<svg width="294" height="261" viewBox="0 0 294 261" fill="none" xmlns="http://www.w3.org/2000/svg">
<path d="M270.127 53.1103L268.516 50.4885C254.939 28.3772 230.39 15.1103 204.507 16.6897C201.176 16.8977 197.866 17.3474 194.601 18.0354C171.068 23.0136 150.586 40.5826 142.102 63.092C137.111 76.3272 135.715 91.5651 126.239 102.071C113.913 115.742 92.9832 116.172 74.5802 115.61C56.1773 115.047 35.2346 115.521 22.9786 129.249C15.2965 137.847 12.8706 150.097 13.5023 161.589C15.1386 192.071 26.4659 218.92 53.8208 232.471C81.1757 246.022 123.566 247.633 153.505 241.67C195.409 233.324 235.292 210.417 259.254 174.988C283.217 139.559 289.307 91.3314 270.127 53.1103Z" fill="#F5F7FF"/>
<path d="M36.4087 197.042C39.7191 195.337 43.6107 195.116 47.2812 195.722C49.2522 196.051 51.3054 196.638 52.6511 198.123C53.9967 199.607 54.2431 202.21 52.7016 203.48C51.7856 204.238 50.5094 204.352 49.3217 204.339C46.4472 204.308 43.2569 203.802 40.9636 205.527C39.6496 206.519 38.7778 208.155 37.2173 208.641C35.6569 209.128 33.9512 208.212 33.1425 206.828C32.3952 205.389 32.2301 203.717 32.6813 202.16C32.8663 201.077 33.299 200.052 33.9456 199.164C34.5921 198.277 35.4351 197.55 36.4087 197.042Z" fill="#3366FF"/>
<path d="M28.8342 182.424C30.8558 185.311 34.7853 184.351 36.611 182.594C38.4368 180.838 39.2012 178.273 39.9025 175.841C41.5008 170.275 43.1181 164.469 41.9241 158.783C41.6394 157.066 40.885 155.461 39.7445 154.146C39.1682 153.497 38.4311 153.01 37.6073 152.735C36.7834 152.46 35.9017 152.406 35.0506 152.58C33.0669 153.104 31.8413 155.044 30.9505 156.895C28.3266 162.343 26.9518 168.309 26.9263 174.356C26.9263 177.168 27.2485 180.118 28.8215 182.443" fill="#3366FF"/>
<path d="M23.281 186.568C25.4795 183.959 25.8965 180.162 24.9173 176.896C23.9381 173.63 21.7585 170.856 19.1936 168.588C16.2009 165.926 12.7182 163.873 8.94024 162.542C7.47808 161.95 5.90435 161.682 4.32844 161.759C3.54136 161.804 2.77712 162.04 2.10219 162.447C1.42726 162.855 0.862077 163.421 0.455793 164.097C-0.624505 166.156 0.411569 168.651 1.52977 170.692C3.50238 174.281 5.75415 177.709 8.26426 180.945C10.2859 183.548 12.5981 186.113 15.6747 187.263C18.7514 188.413 21.948 188.305 23.6095 186.195" fill="#3366FF"/>
<path d="M28.7019 225.977C28.8069 225.548 28.8683 225.11 28.8851 224.669C28.9735 223.709 29.0936 222.515 29.2326 221.087C29.4089 219.322 29.6767 217.568 30.0349 215.831C30.5026 213.718 31.1364 211.646 31.9302 209.633C32.7143 207.624 33.7776 205.736 35.0889 204.023C36.1593 202.631 37.5279 201.495 39.0942 200.7C40.1614 200.181 41.3045 199.836 42.4804 199.677C42.9217 199.659 43.36 199.595 43.7882 199.487C43.3473 199.438 42.9023 199.438 42.4615 199.487C41.2439 199.58 40.0524 199.888 38.9426 200.397C37.2966 201.176 35.8525 202.324 34.7225 203.752C33.3539 205.488 32.2491 207.417 31.4437 209.475C30.6296 211.522 29.9954 213.636 29.5484 215.793C29.2085 217.55 28.9743 219.327 28.8472 221.112C28.7335 222.635 28.6956 223.867 28.6703 224.72C28.6355 225.139 28.6461 225.56 28.7019 225.977Z" fill="#263238"/>
<path d="M28.9481 223.222C28.9719 223.012 28.9719 222.8 28.9481 222.591V220.847C28.9481 219.337 28.9481 217.151 29.0239 214.454C29.1566 209.052 29.6557 203.24 30.5212 195.046C31.3678 187.345 32.5112 178.374 33.7179 172.549C33.9706 171.223 34.2359 170.022 34.476 168.986C34.716 167.95 34.9119 167.034 35.1077 166.301C35.3036 165.569 35.411 165.038 35.5184 164.615C35.5808 164.409 35.6169 164.197 35.6258 163.983C35.5289 164.162 35.4567 164.353 35.411 164.551C35.2783 164.987 35.114 165.543 34.9056 166.219C34.6971 166.895 34.4507 167.837 34.1917 168.885C33.9327 169.934 33.6294 171.115 33.3451 172.436C31.8575 179.321 30.7356 186.28 29.9842 193.284C29.0871 201.496 28.6828 208.97 28.6449 214.378C28.6449 217.088 28.6449 219.28 28.7397 220.79C28.7839 221.498 28.8218 222.054 28.8471 222.527C28.849 222.763 28.8831 222.996 28.9481 223.222Z" fill="#263238"/>
<path d="M28.9795 208.806C29.0277 208.2 29.0277 207.592 28.9795 206.986C28.8766 205.335 28.691 203.691 28.4235 202.059C28.0275 199.638 27.4938 197.242 26.8252 194.882C26.0368 191.985 25.0273 189.153 23.8054 186.41C21.714 181.336 18.7171 176.684 14.9609 172.682C14.3101 171.998 13.6181 171.355 12.8887 170.755C12.5665 170.49 12.2886 170.218 11.998 170.01L11.1956 169.454C10.728 169.08 10.2315 168.745 9.71101 168.449C9.62257 168.563 11.8779 169.896 14.7271 172.922C18.3449 176.961 21.2483 181.586 23.3127 186.6C24.5037 189.335 25.5125 192.146 26.3324 195.014C27.1158 197.655 27.6402 200.069 28.0319 202.122C28.4235 204.175 28.6257 205.843 28.7584 207.005C28.7897 207.61 28.8636 208.211 28.9795 208.806Z" fill="#263238"/>
<path d="M15.0496 234.24L16.49 254.033H41.918L43.3647 234.24H15.0496Z" fill="#263238"/>
<path d="M46.3972 226.438H12.592V234.24H46.3972V226.438Z" fill="#263238"/>
<path d="M12.592 253.275V255.436H14.1777H45.8412V253.275H12.592Z" fill="#455A64"/>
<path d="M15.7382 259.245L14.1777 255.435H44.6282L42.8088 259.245H15.7382Z" fill="#455A64"/>
<path d="M42.891 240.741C42.8594 240.805 42.819 240.865 42.771 240.918C42.6699 241.057 42.5499 241.221 42.3919 241.423L40.9136 243.319L40.8441 243.407L40.781 243.319L37.1421 238.264H37.3505L33.7685 243.319L33.6548 243.476L33.5284 243.331L29.2831 238.277H29.5294C29.4536 238.366 29.3715 238.467 29.2957 238.568L25.5052 243.331L25.3788 243.489L25.2651 243.325L21.6767 238.271H21.8852C20.1226 240.286 18.6191 241.992 17.463 243.325L17.3871 243.413L17.3303 243.312C16.7428 242.339 16.2816 241.556 15.9467 240.994C15.8014 240.741 15.6814 240.539 15.593 240.362C15.5449 240.294 15.5066 240.219 15.4792 240.141C15.4792 240.141 15.5361 240.204 15.6309 240.337L16.0226 240.93L17.4756 243.211H17.3366L21.6767 238.119L21.7905 237.993L21.8852 238.132L25.5052 243.186H25.2525L29.043 238.416L29.2767 238.125L29.4031 237.974L29.5231 238.119C31.0141 239.894 32.4418 241.606 33.7622 243.173H33.5221L37.1421 238.119L37.2495 237.974L37.3505 238.119L40.9136 243.211H40.7873L42.3288 241.373L42.7394 240.893C42.8363 240.762 42.8868 240.711 42.891 240.741Z" fill="#E0E0E0"/>
<path d="M43.7184 234.107C43.7184 234.196 37.344 234.265 29.4913 234.265C21.6386 234.265 15.2579 234.196 15.2579 234.107C15.2579 234.019 21.626 233.949 29.4913 233.949C37.3567 233.949 43.7184 234.019 43.7184 234.107Z" fill="#455A64"/>
<path d="M45.001 255.65C45.001 255.739 38.0517 255.808 29.5356 255.808C21.0196 255.808 14.0703 255.739 14.0703 255.65C14.0703 255.562 21.0196 255.492 29.5356 255.492C38.0517 255.492 45.001 255.562 45.001 255.65Z" fill="#263238"/>
<path d="M218.885 175.74H277.973C280.508 175.74 282.939 176.747 284.732 178.539C286.524 180.332 287.531 182.763 287.531 185.298V259.605H209.346V185.298C209.346 182.766 210.35 180.338 212.138 178.546C213.927 176.754 216.353 175.745 218.885 175.74Z" fill="#455A64"/>
<path d="M280.949 176.169C281.043 176.169 281.113 194.838 281.113 217.865C281.113 240.892 281.043 259.561 280.949 259.561C280.854 259.561 280.784 240.892 280.784 217.865C280.784 194.838 280.86 176.169 280.949 176.169Z" fill="#263238"/>
<path d="M242.424 84.6981C249.614 94.9925 253.737 107.116 254.313 119.659C254.68 128.062 253.549 137.014 257.535 144.418C263.259 155.044 275.635 154.684 279.426 166.137C281.074 171.122 278.036 182.083 277.214 187.27C276.286 193.158 279.887 198.104 278.958 203.998C278.105 209.4 274.062 213.254 269.21 215.768C264.889 218.004 260.896 218.068 256.405 216.204C247.838 212.66 240.712 208.92 234.615 201.945C226.049 192.153 223.459 178.57 221.98 165.664C218.754 137.12 219.407 108.271 223.92 79.9031" fill="#263238"/>
<path d="M260.738 217.41C260.827 217.382 260.918 217.358 261.01 217.341C261.193 217.297 261.471 217.252 261.825 217.145C264.49 216.42 266.878 214.918 268.686 212.83C269.366 212.034 269.885 211.114 270.214 210.12C270.53 208.989 270.71 207.825 270.751 206.652C270.797 203.946 270.522 201.244 269.93 198.603C269.381 195.735 268.667 192.677 268.452 189.361C268.347 187.667 268.469 185.968 268.812 184.307C269.208 182.581 269.745 180.891 270.417 179.253C271.105 177.572 271.708 175.858 272.223 174.116C272.759 172.336 272.91 170.463 272.666 168.62C272.371 166.787 271.67 165.042 270.612 163.516C269.579 162.03 268.377 160.669 267.03 159.46C264.421 157.021 261.597 155.037 259.184 152.75C254.879 148.767 251.405 143.97 248.962 138.637C248.016 136.596 247.23 134.483 246.612 132.32C246.309 131.378 246.132 130.469 245.917 129.647C245.702 128.826 245.608 128.055 245.469 127.373C245.273 125.989 245.121 124.922 245.083 124.214C245.083 123.86 245.033 123.582 245.02 123.38C245.008 123.178 245.02 123.096 245.02 123.096C245.02 123.096 245.02 123.191 245.064 123.38C245.109 123.57 245.121 123.854 245.165 124.208C245.222 124.934 245.393 126.002 245.608 127.367C245.753 128.049 245.911 128.807 246.081 129.635C246.252 130.462 246.486 131.347 246.802 132.288C247.436 134.43 248.232 136.521 249.183 138.542C251.643 143.827 255.113 148.578 259.399 152.529C261.8 154.766 264.63 156.768 267.264 159.22C268.629 160.447 269.848 161.827 270.897 163.332C271.982 164.901 272.701 166.693 273 168.576C273.253 170.463 273.1 172.382 272.552 174.205C272.059 175.999 271.371 177.698 270.733 179.366C270.066 180.985 269.529 182.653 269.128 184.357C268.787 185.995 268.666 187.672 268.768 189.342C268.938 192.614 269.671 195.659 270.214 198.546C270.796 201.21 271.059 203.933 270.998 206.658C270.945 207.851 270.754 209.034 270.429 210.183C270.078 211.195 269.54 212.131 268.844 212.944C267.729 214.237 266.373 215.299 264.851 216.071C263.902 216.575 262.894 216.957 261.85 217.208C261.485 217.304 261.113 217.372 260.738 217.41Z" fill="#455A64"/>
<path d="M143.112 239.983L173.437 225.585C173.437 225.585 185.244 168.254 187.48 163.951C189.717 159.649 199.042 155.928 199.042 155.928L197.481 233.558L194.701 251.481L151.944 255.53L143.112 239.983Z" fill="#3366FF"/>
<path d="M117.242 253.566C117.071 253.566 116.231 254.084 116.932 255.417C117.634 256.75 122.776 261.153 124.286 259.618C125.796 258.083 123.49 256.213 123.49 256.213L117.242 253.566Z" fill="#FFBE9D"/>
<path d="M123.705 256.27C123.705 256.27 129.908 257.053 132.29 257.963C134.887 258.948 138.045 258.272 140.168 256.838C141.374 256.035 142.5 255.117 143.529 254.096L151.439 253.97C152.576 252.639 153.322 251.018 153.594 249.289C153.866 247.559 153.653 245.788 152.98 244.172C152.557 243.047 151.946 242.003 151.173 241.082C150.232 240.065 148.747 239.244 146.182 238.802L136.788 240.83C136.788 240.83 122.258 239.787 119.642 241.013C119.642 241.013 116.389 242.94 115.384 243.748C115.005 244.058 113.849 247.76 116.218 249.687C116.218 249.687 114.159 251.323 115.277 252.795L115.808 253.427C115.808 253.427 114.424 255.221 115.138 256.004C115.852 256.788 122.087 260.427 124.305 259.567C126.522 258.708 124.69 256.63 123.705 256.251" fill="#FFBE9D"/>
<path d="M117.779 246.484C118.041 246.561 118.299 246.654 118.55 246.762C119.036 246.945 119.75 247.21 120.647 247.495C121.089 247.64 121.582 247.785 122.119 247.924C122.656 248.063 123.231 248.183 123.831 248.379C124.484 248.558 125.075 248.914 125.537 249.409C125.792 249.683 125.968 250.02 126.048 250.386C126.128 250.751 126.109 251.132 125.992 251.487C125.843 251.845 125.572 252.139 125.227 252.315C124.903 252.474 124.551 252.572 124.191 252.605C123.53 252.644 122.867 252.608 122.214 252.498C121.12 252.321 120.046 252.042 119.005 251.664C118.114 251.348 117.412 251.032 116.926 250.843C116.669 250.75 116.421 250.631 116.187 250.489C116.451 250.559 116.71 250.646 116.964 250.748C117.457 250.925 118.171 251.197 119.061 251.487C120.09 251.836 121.147 252.096 122.22 252.264C122.847 252.362 123.482 252.392 124.115 252.353C124.443 252.323 124.762 252.233 125.057 252.087C125.343 251.938 125.567 251.692 125.688 251.392C125.791 251.085 125.81 250.757 125.746 250.44C125.682 250.123 125.536 249.829 125.322 249.586C124.892 249.125 124.343 248.791 123.736 248.619C123.155 248.423 122.574 248.297 122.043 248.145C121.513 247.994 121.013 247.836 120.571 247.684C119.674 247.374 118.973 247.052 118.493 246.869C118.243 246.763 118.004 246.634 117.779 246.484Z" fill="#EB996E"/>
<path d="M118.335 242.005C118.596 242.078 118.852 242.171 119.099 242.283C119.592 242.472 120.299 242.744 121.184 243.034C122.068 243.325 123.136 243.666 124.343 243.938C125.005 244.042 125.634 244.297 126.181 244.683C126.471 244.924 126.662 245.264 126.718 245.637C126.773 246.013 126.719 246.397 126.56 246.743C126.4 247.072 126.172 247.365 125.893 247.602C125.613 247.839 125.288 248.015 124.937 248.12C124.299 248.327 123.622 248.381 122.959 248.278C121.882 248.062 120.825 247.754 119.8 247.356L117.709 246.623C117.45 246.541 117.197 246.442 116.951 246.326C117.22 246.371 117.484 246.438 117.741 246.528L119.857 247.16C120.887 247.526 121.943 247.813 123.016 248.019C123.642 248.108 124.279 248.052 124.88 247.855C125.199 247.757 125.495 247.594 125.748 247.377C126.001 247.159 126.207 246.892 126.352 246.591C126.501 246.304 126.551 245.976 126.495 245.657C126.44 245.339 126.28 245.047 126.042 244.829C125.525 244.468 124.933 244.228 124.311 244.127C123.104 243.824 122.037 243.496 121.152 243.167C120.268 242.838 119.573 242.535 119.093 242.333C118.832 242.244 118.578 242.134 118.335 242.005Z" fill="#EB996E"/>
<path d="M121.323 243.268C121.194 242.855 121.098 242.433 121.039 242.005C120.896 241.594 120.792 241.171 120.729 240.741C121.03 241.07 121.226 241.481 121.291 241.922C121.449 242.355 121.46 242.828 121.323 243.268Z" fill="#EB996E"/>
<path d="M143.201 243.47L137.673 241.373C137.673 241.373 122.328 234.209 122.069 234.6C121.81 234.992 120.976 234.942 121.159 236.812C121.342 238.682 130.282 242.459 130.566 243.129C130.85 243.799 130.376 247.059 133.68 249.402C136.984 251.746 139.366 251.803 139.366 251.803" fill="#FFBE9D"/>
<path d="M139.366 251.746H139.221L138.841 251.708C138.355 251.631 137.875 251.515 137.407 251.361C135.685 250.774 134.093 249.858 132.72 248.663C131.79 247.792 131.132 246.671 130.825 245.435C130.666 244.755 130.556 244.065 130.496 243.369C130.485 243.29 130.466 243.211 130.439 243.135C130.403 243.074 130.353 243.022 130.294 242.984C130.15 242.879 130 242.782 129.845 242.693C129.536 242.51 129.214 242.333 128.872 242.156C127.546 241.442 126.124 240.728 124.697 239.907C123.965 239.495 123.254 239.046 122.568 238.562C122.212 238.312 121.878 238.033 121.569 237.728C121.405 237.571 121.263 237.392 121.146 237.197C121.083 237.09 121.041 236.972 121.02 236.85C121.007 236.736 121.007 236.622 121.02 236.508C120.969 236.051 121.05 235.588 121.253 235.175C121.379 234.98 121.545 234.814 121.74 234.689C121.819 234.638 121.891 234.576 121.955 234.506C121.955 234.506 121.955 234.506 122.005 234.449C122.036 234.426 122.074 234.414 122.113 234.417C122.148 234.413 122.184 234.413 122.22 234.417L122.391 234.461C123.218 234.714 123.983 235.049 124.747 235.365C126.263 235.997 127.71 236.628 129.087 237.26C131.848 238.524 134.312 239.648 136.384 240.621C136.902 240.855 137.388 241.101 137.856 241.303L139.208 241.834L141.375 242.693L142.739 243.243L143.087 243.394C143.169 243.394 143.207 243.445 143.207 243.451C143.207 243.458 143.163 243.451 143.081 243.413L142.72 243.293L141.337 242.782L139.151 242.005L137.786 241.493C137.306 241.297 136.82 241.057 136.302 240.823L128.986 237.519C127.603 236.887 126.156 236.256 124.64 235.624C123.882 235.314 123.111 234.992 122.315 234.733L122.176 234.702H122.125C122.125 234.702 122.125 234.664 122.125 234.638C122.302 234.752 122.17 234.676 122.207 234.702C122.132 234.795 122.042 234.876 121.942 234.942C121.774 235.045 121.631 235.185 121.525 235.352C121.347 235.723 121.277 236.137 121.323 236.546C121.319 236.744 121.365 236.939 121.456 237.115C121.561 237.29 121.689 237.452 121.835 237.595C122.134 237.889 122.457 238.158 122.801 238.397C123.484 238.89 124.197 239.32 124.905 239.73C126.326 240.552 127.735 241.272 129.068 241.986C129.403 242.169 129.7 242.346 130.047 242.542C130.211 242.634 130.369 242.736 130.521 242.845C130.613 242.907 130.687 242.992 130.736 243.091C130.768 243.183 130.789 243.279 130.799 243.376C130.859 244.064 130.963 244.747 131.109 245.422C131.398 246.626 132.025 247.722 132.916 248.581C134.262 249.772 135.82 250.7 137.508 251.317C137.968 251.479 138.439 251.608 138.917 251.702C139.082 251.74 139.208 251.753 139.296 251.765L139.366 251.746Z" fill="#EB996E"/>
<path d="M122.441 252.466C122.645 252.491 122.844 252.549 123.029 252.637C123.548 252.845 124.035 253.126 124.476 253.471C124.783 253.711 125.062 253.984 125.309 254.286C125.465 254.456 125.585 254.655 125.662 254.872C125.739 255.089 125.771 255.319 125.758 255.549C125.707 255.811 125.585 256.053 125.404 256.248C125.223 256.443 124.991 256.584 124.735 256.655C124.207 256.799 123.648 256.782 123.13 256.604C121.373 256.084 119.668 255.401 118.038 254.564C117.547 254.308 117.07 254.025 116.61 253.717C116.433 253.616 116.27 253.493 116.124 253.351C116.312 253.425 116.492 253.518 116.661 253.629C117.002 253.825 117.495 254.096 118.12 254.4C119.753 255.18 121.442 255.834 123.174 256.358C123.646 256.521 124.156 256.541 124.64 256.415C124.852 256.359 125.046 256.246 125.198 256.087C125.351 255.929 125.457 255.732 125.505 255.518C125.519 255.315 125.493 255.111 125.428 254.918C125.363 254.725 125.26 254.547 125.126 254.393C124.894 254.099 124.632 253.83 124.343 253.591C123.759 253.137 123.12 252.76 122.441 252.466Z" fill="#EB996E"/>
<g opacity="0.3">
<path opacity="0.3" d="M194.486 251.481C189.521 234.733 185.143 213.165 180.177 196.417C178.358 211.876 180.632 232.288 183.475 247.589C183.81 249.383 183.961 251.14 185.37 252.321L194.486 251.481Z" fill="black"/>
</g>
<path d="M186.356 239.983C186.286 239.983 186.078 238.89 185.402 237.216C185.004 236.24 184.529 235.298 183.98 234.398C183.296 233.307 182.513 232.279 181.643 231.328C180.76 230.387 179.791 229.531 178.75 228.769C177.895 228.151 176.991 227.606 176.046 227.14C174.428 226.344 173.342 226.053 173.361 225.99C173.624 226.021 173.883 226.082 174.131 226.173C174.431 226.249 174.724 226.346 175.01 226.464C175.397 226.599 175.776 226.755 176.147 226.931C177.12 227.377 178.05 227.909 178.926 228.523C179.995 229.284 180.988 230.147 181.889 231.101C182.773 232.075 183.56 233.133 184.24 234.259C184.785 235.179 185.248 236.145 185.623 237.146C185.794 237.57 185.895 237.968 186.002 238.315C186.099 238.611 186.175 238.912 186.23 239.219C186.296 239.469 186.338 239.725 186.356 239.983Z" fill="#263238"/>
<path d="M195.819 155.145C195.819 155.145 179.943 190.618 179.943 197.15C179.943 203.682 191.839 248.91 191.839 248.91C191.726 250.71 191.265 259.725 191.265 259.725L257.971 259.959L258.988 245.618L253.783 231.953L258.982 193.322C258.982 193.322 262.482 170.894 262.773 164.621C263.164 156.775 236.58 147.677 237.307 146.591L232.72 140.425L206.433 161.772L201.234 146.761L195.004 152.643L195.819 155.145Z" fill="#3366FF"/>
<path d="M239.505 164.583C232.284 176.795 219.074 199.045 219.074 199.045L195.396 226.046C195.396 226.046 193.848 239.762 196.944 243.969C200.039 248.177 205.352 251.051 205.352 251.051C205.352 251.051 211.6 251.051 219.541 244.411C227.482 237.772 249.385 210.335 249.385 210.335L256.91 201.256C256.91 201.256 265.88 179.221 264.206 168.007C263.575 163.68 261.717 161.886 259.266 159.902C253.094 154.93 243.542 157.754 239.505 164.583Z" fill="#3366FF"/>
<path d="M259.696 193.612C259.664 193.699 259.626 193.784 259.582 193.865C259.5 194.042 259.38 194.276 259.235 194.585C258.919 195.217 258.439 196.133 257.782 197.295C256.474 199.627 254.44 202.918 251.787 206.892C250.454 208.875 248.969 211.03 247.333 213.317C245.696 215.604 243.839 217.96 242.31 220.715C240.781 223.469 239.392 226.476 237.717 229.483C235.997 232.599 233.981 235.542 231.697 238.271C229.412 241.011 226.723 243.389 223.724 245.321C220.913 247.115 217.773 248.33 214.488 248.897C211.514 249.425 208.461 249.295 205.542 248.518C204.221 248.161 202.949 247.646 201.752 246.983C200.638 246.395 199.591 245.688 198.631 244.873C197.75 244.143 196.961 243.309 196.281 242.39C195.668 241.573 195.147 240.692 194.727 239.762C194.077 238.266 193.651 236.682 193.463 235.062C193.355 234.04 193.319 233.012 193.356 231.985C193.356 231.644 193.394 231.353 193.406 231.183C193.4 231.092 193.4 231.001 193.406 230.911C193.413 231.001 193.413 231.092 193.406 231.183C193.406 231.379 193.406 231.644 193.406 231.985C193.394 233.007 193.449 234.028 193.57 235.043C193.783 236.646 194.225 238.21 194.884 239.686C195.309 240.598 195.83 241.462 196.439 242.264C197.116 243.167 197.901 243.983 198.776 244.696C199.728 245.495 200.764 246.187 201.865 246.762C203.046 247.408 204.299 247.91 205.599 248.259C208.488 249.013 211.506 249.13 214.444 248.6C217.685 248.032 220.782 246.825 223.553 245.05C226.526 243.131 229.191 240.773 231.457 238.056C233.728 235.346 235.731 232.422 237.439 229.325C239.114 226.337 240.465 223.305 242.051 220.563C243.6 218.003 245.287 215.529 247.105 213.152C248.748 210.878 250.264 208.73 251.584 206.759C254.263 202.811 256.323 199.538 257.662 197.232C258.338 196.076 258.837 195.173 259.165 194.554L259.551 193.846C259.59 193.763 259.639 193.684 259.696 193.612Z" fill="#263238"/>
<path d="M194.183 224.84C194.183 224.884 193.848 225.093 193.412 225.579C192.832 226.195 192.474 226.987 192.397 227.83C192.319 228.672 192.525 229.517 192.983 230.229C193.318 230.785 193.615 231.056 193.615 231.094C193.615 231.132 193.217 230.917 192.8 230.361C192.255 229.624 192.001 228.712 192.086 227.8C192.171 226.888 192.589 226.038 193.261 225.415C193.506 225.137 193.826 224.937 194.183 224.84Z" fill="#263238"/>
<path d="M198.561 232.004C198.688 232.021 198.813 232.05 198.934 232.092L199.376 232.212L200.008 232.326C201.321 232.499 202.655 232.374 203.912 231.96C205.783 231.333 207.504 230.327 208.966 229.003C210.705 227.335 212.281 225.505 213.673 223.538C215.087 221.556 216.717 219.736 218.531 218.112C219.39 217.391 220.231 216.753 220.932 216.065C221.6 215.452 222.137 214.711 222.511 213.885C222.762 213.282 222.861 212.627 222.798 211.976C222.735 211.326 222.513 210.702 222.151 210.158C221.846 209.784 221.453 209.491 221.008 209.305C221.133 209.329 221.256 209.365 221.374 209.412C221.714 209.565 222.015 209.794 222.252 210.082C222.652 210.638 222.906 211.286 222.99 211.966C223.074 212.647 222.985 213.337 222.732 213.974C222.356 214.836 221.81 215.613 221.128 216.261C220.414 216.968 219.567 217.625 218.727 218.345C216.943 219.967 215.337 221.776 213.938 223.741C212.529 225.724 210.93 227.565 209.162 229.237C207.669 230.568 205.913 231.571 204.007 232.181C202.714 232.586 201.344 232.679 200.008 232.452L199.376 232.307C199.199 232.257 199.054 232.193 198.94 232.156C198.809 232.12 198.681 232.069 198.561 232.004Z" fill="#263238"/>
<path d="M242.721 160.831C242.641 160.963 242.552 161.089 242.456 161.21C242.247 161.475 241.982 161.841 241.647 162.265C240.927 163.162 239.935 164.501 238.722 166.169C235.63 170.551 232.818 175.123 230.301 179.859C227.319 185.393 224.855 190.529 222.966 194.194C222.031 196.032 221.26 197.51 220.698 198.521L220.085 199.677C220.016 199.816 219.934 199.947 219.839 200.069C219.886 199.922 219.948 199.781 220.022 199.646L220.616 198.452L222.783 194.086C224.615 190.39 227.053 185.242 230.035 179.695C232.555 174.944 235.405 170.376 238.564 166.024C239.827 164.375 240.819 163.048 241.571 162.176L242.43 161.159C242.515 161.039 242.612 160.929 242.721 160.831Z" fill="#263238"/>
<g opacity="0.3">
<path opacity="0.3" d="M193.425 230.911C196.501 232.579 199.888 232.402 203.324 231.732C206.794 231.039 209.918 229.169 212.169 226.438C211.649 229.479 210.224 232.293 208.081 234.512C205.895 236.654 202.724 237.892 199.717 237.342C196.71 236.793 193.665 233.962 193.399 230.911" fill="black"/>
</g>
<g opacity="0.3">
<path opacity="0.3" d="M222.549 212.679C224.501 215.689 225.183 219.351 224.444 222.862C227.053 218.87 227.666 213.816 226.971 209.096C226.276 204.377 224.349 199.923 222.214 195.659C222.214 195.659 219.864 199.639 219.838 200.081C219.725 202.381 220.571 206.702 221.013 208.957C221.603 209.524 222.043 210.228 222.294 211.007C222.544 211.785 222.597 212.614 222.447 213.418" fill="black"/>
</g>
<g opacity="0.3">
<path opacity="0.3" d="M203.861 247.438C210.141 252.334 219.459 252.561 226.326 248.543C232.941 244.671 237.016 237.696 240.794 231.031C246.65 220.708 253.789 207.941 257.971 196.834C257.971 196.834 246.252 212.824 242.72 219.716C240.366 224.376 237.694 228.868 234.722 233.16C231.36 237.997 226.814 241.891 221.519 244.471C216.224 247.052 210.355 248.232 204.474 247.899" fill="black"/>
</g>
<path d="M191.264 259.694C191.254 259.629 191.254 259.563 191.264 259.498C191.264 259.346 191.264 259.157 191.264 258.923C191.264 258.386 191.308 257.659 191.346 256.731C191.435 254.835 191.555 252.119 191.706 248.878V248.954C190.576 245.163 189.249 240.564 187.872 235.599C186.052 229.016 184.517 223.027 183.481 218.674C182.969 216.501 182.565 214.732 182.312 213.506C182.192 212.919 182.097 212.445 182.028 212.097C181.991 211.933 181.963 211.766 181.946 211.598C182.01 211.753 182.058 211.914 182.091 212.078L182.439 213.481C182.748 214.744 183.178 216.475 183.702 218.617C184.795 222.957 186.368 228.934 188.188 235.51C189.558 240.476 190.866 245.075 191.978 248.872V248.916C191.782 252.157 191.618 254.854 191.498 256.775C191.435 257.691 191.384 258.424 191.346 258.961C191.346 259.188 191.308 259.378 191.296 259.529C191.292 259.585 191.282 259.64 191.264 259.694Z" fill="#263238"/>
<path d="M257.99 159.536C257.99 159.586 257.308 159.346 256.215 159.074C254.79 158.715 253.331 158.503 251.862 158.443C250.393 158.402 248.923 158.517 247.478 158.784C246.366 158.992 245.69 159.182 245.677 159.131C245.818 159.041 245.971 158.973 246.132 158.929C246.557 158.783 246.989 158.658 247.427 158.556C248.876 158.218 250.363 158.07 251.85 158.114C253.348 158.159 254.834 158.397 256.272 158.822C256.702 158.947 257.124 159.099 257.535 159.277C257.851 159.435 257.99 159.51 257.99 159.536Z" fill="#263238"/>
<path d="M236.871 147.873C236.825 147.988 236.768 148.098 236.7 148.202L236.163 149.105C235.689 149.889 234.988 151.001 234.097 152.384C232.31 155.12 229.751 158.853 226.725 162.821C224.293 166.024 221.936 168.898 220.009 171.147L219.87 171.305L219.788 171.116C218.866 169.107 218.108 167.439 217.558 166.232C217.312 165.676 217.116 165.221 216.958 164.874C216.88 164.718 216.819 164.555 216.775 164.387C216.876 164.53 216.963 164.682 217.034 164.842C217.204 165.183 217.419 165.626 217.697 166.169C218.272 167.363 219.068 169.012 220.022 171.008L219.807 170.977C221.702 168.702 224.034 165.821 226.466 162.625C229.486 158.657 232.063 154.955 233.902 152.251L236.056 149.036L236.643 148.164C236.706 148.057 236.783 147.96 236.871 147.873Z" fill="#263238"/>
<path d="M252.228 249.756C252.134 249.756 252.424 246.465 252.86 242.428C253.296 238.391 253.745 235.131 253.833 235.144C253.922 235.156 253.631 238.429 253.201 242.466C252.772 246.503 252.304 249.762 252.228 249.756Z" fill="#263238"/>
<path d="M206.503 248.891C206.862 250.711 207.113 252.55 207.254 254.4C207.51 256.236 207.651 258.086 207.678 259.94C207.322 258.12 207.071 256.28 206.926 254.431C206.678 252.594 206.536 250.744 206.503 248.891Z" fill="#263238"/>
<path d="M240.244 176.738C240.214 176.613 240.154 176.497 240.069 176.399C239.984 176.302 239.877 176.226 239.757 176.179C239.637 176.131 239.508 176.113 239.379 176.125C239.251 176.138 239.127 176.181 239.019 176.252L238.975 176.29C238.876 176.378 238.801 176.491 238.759 176.616C238.717 176.742 238.708 176.877 238.733 177.007C238.759 177.137 238.818 177.259 238.905 177.359C238.991 177.46 239.103 177.536 239.228 177.58C239.353 177.625 239.487 177.636 239.618 177.613C239.749 177.589 239.871 177.532 239.973 177.447C240.075 177.362 240.153 177.252 240.2 177.128C240.246 177.003 240.259 176.869 240.238 176.738H240.244Z" fill="white"/>
<path d="M233.655 160.679C233.624 160.554 233.564 160.437 233.479 160.34C233.395 160.243 233.288 160.167 233.168 160.119C233.048 160.072 232.918 160.053 232.79 160.066C232.661 160.079 232.538 160.122 232.429 160.192L232.392 160.23C232.293 160.319 232.218 160.431 232.176 160.557C232.134 160.683 232.125 160.818 232.15 160.948C232.176 161.078 232.235 161.2 232.322 161.3C232.408 161.401 232.52 161.477 232.645 161.521C232.77 161.566 232.904 161.577 233.035 161.553C233.166 161.53 233.288 161.473 233.39 161.388C233.492 161.303 233.57 161.193 233.616 161.069C233.663 160.944 233.676 160.81 233.655 160.679Z" fill="white"/>
<path d="M218.537 173.611C218.507 173.486 218.447 173.369 218.362 173.272C218.277 173.175 218.17 173.099 218.05 173.051C217.93 173.004 217.801 172.985 217.672 172.998C217.544 173.011 217.42 173.054 217.312 173.124H217.274C217.175 173.213 217.1 173.325 217.058 173.45C217.015 173.576 217.006 173.71 217.031 173.841C217.056 173.971 217.115 174.092 217.201 174.193C217.287 174.293 217.398 174.37 217.523 174.415C217.648 174.46 217.782 174.472 217.913 174.449C218.043 174.426 218.166 174.37 218.268 174.286C218.37 174.201 218.449 174.092 218.496 173.968C218.543 173.844 218.558 173.71 218.537 173.579V173.611Z" fill="white"/>
<path d="M202.194 167.117C202.164 166.991 202.105 166.875 202.02 166.778C201.936 166.68 201.83 166.604 201.71 166.557C201.591 166.509 201.462 166.491 201.333 166.504C201.205 166.516 201.082 166.56 200.974 166.63L200.93 166.668C200.831 166.756 200.757 166.869 200.715 166.995C200.672 167.121 200.663 167.255 200.689 167.386C200.715 167.516 200.774 167.637 200.86 167.738C200.947 167.838 201.058 167.914 201.183 167.959C201.308 168.003 201.443 168.014 201.574 167.991C201.704 167.968 201.827 167.911 201.929 167.826C202.031 167.741 202.109 167.631 202.155 167.506C202.202 167.382 202.215 167.248 202.194 167.117Z" fill="white"/>
<path d="M199.307 160.717C199.276 160.591 199.216 160.475 199.131 160.378C199.046 160.281 198.939 160.205 198.819 160.157C198.699 160.11 198.57 160.091 198.441 160.104C198.313 160.117 198.189 160.16 198.081 160.23L198.037 160.268C197.935 160.357 197.858 160.47 197.813 160.597C197.769 160.725 197.759 160.861 197.784 160.994C197.809 161.126 197.868 161.25 197.956 161.352C198.043 161.455 198.156 161.532 198.283 161.577C198.41 161.622 198.547 161.633 198.68 161.609C198.812 161.585 198.936 161.526 199.039 161.439C199.142 161.352 199.22 161.24 199.266 161.113C199.312 160.986 199.324 160.85 199.3 160.717H199.307Z" fill="white"/>
<path d="M200.564 153.325C200.533 153.2 200.473 153.084 200.388 152.986C200.303 152.889 200.197 152.813 200.077 152.766C199.957 152.718 199.827 152.7 199.698 152.713C199.57 152.725 199.446 152.769 199.338 152.839L199.294 152.87C199.195 152.959 199.12 153.071 199.078 153.196C199.035 153.322 199.026 153.456 199.051 153.587C199.076 153.717 199.135 153.838 199.221 153.939C199.307 154.039 199.418 154.116 199.543 154.161C199.668 154.206 199.802 154.218 199.933 154.195C200.063 154.172 200.186 154.116 200.288 154.032C200.39 153.947 200.469 153.838 200.516 153.714C200.563 153.59 200.578 153.456 200.557 153.325H200.564Z" fill="white"/>
<path d="M191.511 163.497C191.48 163.371 191.42 163.255 191.335 163.158C191.25 163.06 191.144 162.985 191.024 162.937C190.904 162.889 190.774 162.871 190.646 162.884C190.517 162.897 190.394 162.94 190.285 163.01L190.241 163.042C190.142 163.13 190.068 163.242 190.025 163.368C189.982 163.493 189.973 163.628 189.998 163.758C190.024 163.888 190.082 164.009 190.168 164.11C190.255 164.211 190.365 164.287 190.49 164.332C190.615 164.377 190.749 164.389 190.88 164.366C191.01 164.343 191.133 164.287 191.235 164.203C191.337 164.119 191.416 164.009 191.463 163.885C191.51 163.762 191.525 163.628 191.505 163.497H191.511Z" fill="white"/>
<path d="M212.504 166.428C212.474 166.303 212.414 166.186 212.33 166.089C212.246 165.992 212.14 165.916 212.02 165.868C211.901 165.82 211.772 165.802 211.643 165.815C211.515 165.828 211.392 165.871 211.284 165.942L211.24 165.979C211.141 166.068 211.067 166.18 211.024 166.306C210.982 166.432 210.973 166.567 210.999 166.697C211.024 166.827 211.083 166.949 211.17 167.049C211.257 167.15 211.368 167.226 211.493 167.27C211.618 167.315 211.753 167.326 211.884 167.302C212.014 167.279 212.137 167.222 212.239 167.137C212.34 167.052 212.419 166.942 212.465 166.818C212.512 166.693 212.525 166.559 212.504 166.428Z" fill="white"/>
<path d="M194.726 179.613C194.696 179.487 194.636 179.371 194.551 179.274C194.466 179.176 194.359 179.101 194.239 179.053C194.119 179.005 193.99 178.987 193.861 179C193.733 179.013 193.609 179.056 193.501 179.126H193.457C193.358 179.214 193.283 179.327 193.241 179.452C193.198 179.578 193.189 179.712 193.214 179.842C193.239 179.972 193.298 180.094 193.384 180.194C193.47 180.295 193.581 180.372 193.706 180.417C193.83 180.462 193.965 180.473 194.095 180.451C194.226 180.428 194.348 180.372 194.451 180.287C194.553 180.203 194.632 180.094 194.679 179.97C194.726 179.846 194.74 179.712 194.72 179.581L194.726 179.613Z" fill="white"/>
<path d="M178.478 217.531C178.447 217.405 178.387 217.289 178.302 217.192C178.217 217.094 178.11 217.019 177.991 216.971C177.871 216.923 177.741 216.905 177.612 216.918C177.484 216.931 177.36 216.974 177.252 217.044L177.214 217.076C177.115 217.164 177.041 217.276 176.998 217.402C176.956 217.527 176.946 217.662 176.972 217.792C176.997 217.922 177.055 218.043 177.141 218.144C177.228 218.245 177.339 218.321 177.463 218.366C177.588 218.411 177.722 218.423 177.853 218.4C177.983 218.377 178.106 218.321 178.208 218.237C178.311 218.153 178.389 218.043 178.436 217.919C178.484 217.796 178.498 217.662 178.478 217.531Z" fill="white"/>
<path d="M184.277 195.659C184.247 195.534 184.186 195.418 184.102 195.32C184.017 195.223 183.91 195.147 183.79 195.1C183.67 195.052 183.54 195.034 183.412 195.047C183.284 195.059 183.16 195.103 183.052 195.173L183.008 195.211C182.908 195.299 182.834 195.412 182.792 195.538C182.75 195.663 182.741 195.798 182.766 195.928C182.792 196.059 182.851 196.18 182.938 196.28C183.024 196.381 183.136 196.457 183.261 196.502C183.386 196.546 183.52 196.557 183.651 196.534C183.782 196.51 183.904 196.453 184.006 196.368C184.108 196.283 184.186 196.173 184.232 196.049C184.279 195.925 184.292 195.79 184.271 195.659H184.277Z" fill="white"/>
<path d="M227.034 157.261C227.003 157.136 226.943 157.02 226.858 156.922C226.774 156.825 226.667 156.749 226.547 156.702C226.427 156.654 226.297 156.636 226.169 156.648C226.04 156.661 225.917 156.704 225.808 156.775L225.764 156.806C225.665 156.894 225.591 157.007 225.548 157.132C225.506 157.258 225.497 157.392 225.522 157.522C225.547 157.653 225.605 157.774 225.692 157.875C225.778 157.975 225.889 158.052 226.013 158.097C226.138 158.142 226.272 158.153 226.403 158.131C226.533 158.108 226.656 158.052 226.758 157.968C226.861 157.883 226.939 157.774 226.986 157.65C227.034 157.526 227.048 157.392 227.028 157.261H227.034Z" fill="white"/>
<path d="M247.402 200.802C247.371 200.676 247.311 200.56 247.227 200.462C247.142 200.365 247.035 200.289 246.915 200.242C246.795 200.194 246.665 200.176 246.537 200.189C246.408 200.201 246.285 200.245 246.177 200.315L246.132 200.353C246.03 200.441 245.953 200.555 245.909 200.682C245.865 200.809 245.854 200.946 245.879 201.078C245.904 201.211 245.964 201.334 246.051 201.437C246.139 201.539 246.252 201.617 246.379 201.662C246.506 201.707 246.643 201.718 246.775 201.694C246.908 201.67 247.032 201.611 247.135 201.524C247.238 201.437 247.316 201.324 247.362 201.198C247.407 201.071 247.419 200.934 247.396 200.802H247.402Z" fill="white"/>
<path d="M255.343 163.332C255.313 163.207 255.254 163.091 255.17 162.993C255.086 162.896 254.979 162.82 254.86 162.772C254.74 162.725 254.611 162.707 254.483 162.719C254.355 162.732 254.231 162.775 254.124 162.846L254.079 162.877C253.98 162.966 253.906 163.078 253.863 163.203C253.821 163.329 253.812 163.463 253.837 163.594C253.862 163.724 253.92 163.845 254.007 163.946C254.093 164.046 254.204 164.123 254.328 164.168C254.453 164.213 254.587 164.224 254.718 164.202C254.849 164.179 254.971 164.123 255.073 164.039C255.176 163.954 255.254 163.845 255.302 163.721C255.349 163.597 255.363 163.463 255.343 163.332Z" fill="white"/>
<path d="M252.229 187.87C252.198 187.744 252.138 187.628 252.053 187.531C251.968 187.433 251.861 187.358 251.741 187.31C251.621 187.262 251.492 187.244 251.363 187.257C251.235 187.27 251.111 187.313 251.003 187.383L250.959 187.421C250.857 187.509 250.78 187.623 250.735 187.75C250.691 187.877 250.681 188.014 250.706 188.147C250.731 188.279 250.79 188.403 250.878 188.505C250.965 188.607 251.078 188.685 251.205 188.73C251.332 188.775 251.469 188.786 251.602 188.762C251.734 188.738 251.858 188.679 251.961 188.592C252.064 188.505 252.142 188.392 252.188 188.266C252.234 188.139 252.246 188.002 252.222 187.87H252.229Z" fill="white"/>
<path d="M234.407 205.59C234.377 205.465 234.316 205.349 234.232 205.251C234.147 205.154 234.04 205.078 233.92 205.031C233.8 204.983 233.67 204.965 233.542 204.978C233.413 204.99 233.29 205.034 233.182 205.104L233.137 205.142C233.038 205.23 232.964 205.343 232.922 205.469C232.879 205.594 232.871 205.729 232.896 205.859C232.922 205.99 232.981 206.111 233.067 206.211C233.154 206.312 233.265 206.388 233.391 206.433C233.516 206.477 233.65 206.488 233.781 206.465C233.911 206.441 234.034 206.384 234.136 206.299C234.238 206.214 234.316 206.104 234.362 205.98C234.409 205.856 234.422 205.721 234.401 205.59H234.407Z" fill="white"/>
<path d="M235.158 190.832C235.128 190.707 235.068 190.591 234.983 190.493C234.898 190.396 234.791 190.32 234.671 190.273C234.551 190.225 234.422 190.207 234.293 190.22C234.165 190.232 234.041 190.276 233.933 190.346L233.889 190.384C233.787 190.472 233.71 190.586 233.665 190.713C233.621 190.84 233.611 190.977 233.636 191.109C233.661 191.242 233.72 191.365 233.808 191.468C233.895 191.57 234.008 191.648 234.135 191.693C234.262 191.738 234.399 191.749 234.532 191.725C234.664 191.701 234.788 191.642 234.891 191.555C234.994 191.468 235.072 191.355 235.118 191.229C235.164 191.102 235.176 190.965 235.152 190.832H235.158Z" fill="white"/>
<path d="M245.904 163.459C245.875 163.333 245.815 163.217 245.731 163.12C245.647 163.022 245.541 162.946 245.421 162.899C245.301 162.851 245.172 162.833 245.044 162.846C244.916 162.858 244.793 162.902 244.685 162.972L244.641 163.01C244.542 163.098 244.467 163.211 244.425 163.337C244.383 163.463 244.374 163.597 244.4 163.728C244.425 163.858 244.484 163.979 244.571 164.08C244.657 164.18 244.769 164.256 244.894 164.301C245.019 164.345 245.154 164.356 245.284 164.333C245.415 164.31 245.537 164.253 245.639 164.168C245.741 164.083 245.819 163.973 245.866 163.848C245.912 163.724 245.925 163.59 245.904 163.459Z" fill="white"/>
<path d="M231.457 149.168C231.427 149.043 231.368 148.927 231.284 148.829C231.2 148.732 231.093 148.656 230.974 148.609C230.854 148.561 230.725 148.543 230.597 148.555C230.469 148.568 230.345 148.612 230.238 148.682L230.193 148.714C230.094 148.802 230.02 148.914 229.977 149.039C229.935 149.165 229.926 149.299 229.951 149.43C229.976 149.56 230.035 149.681 230.121 149.782C230.207 149.883 230.318 149.959 230.443 150.004C230.567 150.049 230.701 150.061 230.832 150.038C230.963 150.015 231.085 149.959 231.187 149.875C231.29 149.79 231.368 149.681 231.416 149.557C231.463 149.433 231.477 149.299 231.457 149.168Z" fill="white"/>
<path d="M230.907 172.209C230.878 172.082 230.818 171.965 230.734 171.867C230.649 171.769 230.542 171.692 230.422 171.645C230.301 171.597 230.171 171.579 230.042 171.592C229.913 171.606 229.789 171.65 229.681 171.722L229.644 171.754C229.544 171.842 229.47 171.954 229.427 172.08C229.385 172.205 229.376 172.34 229.401 172.47C229.426 172.6 229.485 172.721 229.571 172.822C229.657 172.923 229.768 172.999 229.893 173.044C230.017 173.089 230.152 173.101 230.282 173.078C230.413 173.055 230.535 172.999 230.638 172.915C230.74 172.831 230.818 172.721 230.866 172.597C230.913 172.474 230.927 172.34 230.907 172.209Z" fill="white"/>
<path d="M212.434 242.491C212.403 242.37 212.344 242.257 212.262 242.163C212.179 242.068 212.076 241.994 211.96 241.947C211.844 241.9 211.718 241.88 211.593 241.89C211.468 241.9 211.347 241.939 211.24 242.005L211.196 242.036C211.097 242.124 211.023 242.237 210.98 242.362C210.938 242.488 210.928 242.622 210.954 242.752C210.979 242.882 211.037 243.004 211.123 243.104C211.21 243.205 211.32 243.282 211.445 243.327C211.57 243.372 211.704 243.383 211.835 243.361C211.965 243.338 212.088 243.282 212.19 243.197C212.292 243.113 212.371 243.004 212.418 242.88C212.466 242.756 212.48 242.622 212.46 242.491H212.434Z" fill="white"/>
<path d="M191.239 230.93C191.208 230.805 191.148 230.688 191.064 230.591C190.979 230.494 190.872 230.418 190.752 230.37C190.632 230.323 190.502 230.305 190.374 230.317C190.245 230.33 190.122 230.373 190.014 230.444L189.969 230.482C189.87 230.57 189.796 230.682 189.754 230.808C189.711 230.934 189.702 231.069 189.728 231.199C189.754 231.329 189.813 231.451 189.899 231.551C189.986 231.652 190.097 231.728 190.222 231.772C190.348 231.817 190.482 231.828 190.613 231.804C190.743 231.781 190.866 231.724 190.968 231.639C191.07 231.554 191.148 231.444 191.194 231.32C191.241 231.195 191.254 231.061 191.233 230.93H191.239Z" fill="white"/>
<path d="M174.099 236.597C174.069 236.471 174.008 236.355 173.924 236.258C173.839 236.16 173.732 236.085 173.612 236.037C173.492 235.989 173.362 235.971 173.234 235.984C173.106 235.997 172.982 236.04 172.874 236.11L172.836 236.142C172.737 236.23 172.662 236.342 172.62 236.468C172.577 236.593 172.568 236.728 172.593 236.858C172.618 236.988 172.677 237.109 172.763 237.21C172.849 237.311 172.96 237.387 173.085 237.432C173.21 237.477 173.344 237.489 173.474 237.466C173.605 237.444 173.727 237.387 173.83 237.303C173.932 237.219 174.011 237.109 174.058 236.986C174.105 236.862 174.119 236.728 174.099 236.597Z" fill="white"/>
<path d="M172.268 246.357C172.237 246.232 172.177 246.116 172.092 246.018C172.008 245.921 171.901 245.845 171.781 245.798C171.661 245.75 171.531 245.732 171.403 245.745C171.274 245.757 171.151 245.801 171.042 245.871L170.998 245.902C170.899 245.991 170.825 246.103 170.782 246.228C170.74 246.354 170.73 246.488 170.756 246.618C170.781 246.749 170.839 246.87 170.925 246.971C171.012 247.071 171.122 247.148 171.247 247.193C171.372 247.238 171.506 247.249 171.637 247.227C171.767 247.204 171.89 247.148 171.992 247.064C172.094 246.979 172.173 246.87 172.22 246.746C172.268 246.622 172.282 246.488 172.262 246.357H172.268Z" fill="white"/>
<path d="M188.333 249.624C188.302 249.498 188.242 249.382 188.157 249.285C188.072 249.187 187.966 249.111 187.846 249.064C187.726 249.016 187.596 248.998 187.467 249.011C187.339 249.024 187.215 249.067 187.107 249.137L187.069 249.175C186.97 249.263 186.896 249.376 186.854 249.502C186.811 249.628 186.802 249.762 186.828 249.893C186.854 250.023 186.913 250.144 186.999 250.245C187.086 250.345 187.197 250.421 187.322 250.466C187.447 250.51 187.582 250.521 187.713 250.498C187.843 250.475 187.966 250.418 188.068 250.333C188.17 250.248 188.248 250.138 188.294 250.013C188.341 249.889 188.354 249.755 188.333 249.624Z" fill="white"/>
<path d="M182.963 227.765C182.932 227.639 182.872 227.523 182.787 227.426C182.703 227.328 182.596 227.253 182.476 227.205C182.356 227.158 182.226 227.139 182.098 227.152C181.969 227.165 181.846 227.208 181.737 227.278L181.693 227.316C181.591 227.405 181.514 227.518 181.47 227.645C181.426 227.772 181.415 227.909 181.44 228.042C181.465 228.174 181.525 228.298 181.612 228.4C181.7 228.503 181.813 228.58 181.94 228.625C182.067 228.67 182.204 228.681 182.336 228.657C182.469 228.633 182.593 228.574 182.696 228.487C182.799 228.4 182.877 228.288 182.923 228.161C182.968 228.034 182.98 227.898 182.957 227.765H182.963Z" fill="white"/>
<path d="M202.674 233.324C202.645 233.198 202.585 233.081 202.501 232.983C202.416 232.884 202.309 232.808 202.189 232.76C202.068 232.712 201.938 232.694 201.809 232.708C201.68 232.721 201.557 232.766 201.449 232.838L201.411 232.869C201.312 232.957 201.237 233.07 201.195 233.195C201.152 233.321 201.143 233.455 201.168 233.585C201.193 233.716 201.252 233.837 201.338 233.938C201.424 234.038 201.535 234.115 201.66 234.16C201.785 234.205 201.919 234.216 202.049 234.194C202.18 234.171 202.302 234.115 202.405 234.031C202.507 233.946 202.586 233.837 202.633 233.713C202.68 233.589 202.694 233.455 202.674 233.324Z" fill="white"/>
<path d="M249.531 227.733C249.503 227.607 249.444 227.49 249.36 227.392C249.276 227.293 249.17 227.217 249.05 227.169C248.93 227.121 248.8 227.103 248.671 227.117C248.543 227.13 248.419 227.175 248.312 227.247L248.268 227.278C248.169 227.367 248.094 227.479 248.052 227.604C248.009 227.73 248 227.864 248.025 227.995C248.05 228.125 248.109 228.246 248.195 228.347C248.281 228.447 248.392 228.524 248.517 228.569C248.642 228.614 248.776 228.626 248.906 228.603C249.037 228.58 249.159 228.524 249.262 228.44C249.364 228.355 249.443 228.246 249.49 228.122C249.537 227.998 249.551 227.864 249.531 227.733Z" fill="white"/>
<path d="M220.54 255.512C220.509 255.386 220.449 255.27 220.364 255.173C220.28 255.075 220.173 254.999 220.053 254.952C219.933 254.904 219.803 254.886 219.675 254.899C219.546 254.912 219.423 254.955 219.314 255.025L219.27 255.063C219.171 255.151 219.097 255.264 219.055 255.39C219.012 255.516 219.003 255.65 219.029 255.781C219.054 255.911 219.114 256.032 219.2 256.133C219.287 256.233 219.398 256.309 219.523 256.354C219.648 256.398 219.783 256.409 219.914 256.386C220.044 256.363 220.167 256.306 220.269 256.221C220.37 256.136 220.449 256.026 220.495 255.901C220.542 255.777 220.555 255.643 220.534 255.512H220.54Z" fill="white"/>
<path d="M232.903 240.046C232.874 239.921 232.814 239.805 232.73 239.707C232.646 239.61 232.54 239.534 232.42 239.486C232.3 239.439 232.171 239.42 232.043 239.433C231.915 239.446 231.792 239.489 231.684 239.56L231.64 239.598C231.541 239.686 231.466 239.799 231.424 239.924C231.382 240.05 231.373 240.185 231.399 240.315C231.424 240.445 231.483 240.567 231.57 240.667C231.656 240.768 231.768 240.844 231.893 240.888C232.018 240.933 232.153 240.944 232.283 240.921C232.414 240.897 232.536 240.84 232.638 240.755C232.74 240.67 232.818 240.56 232.865 240.436C232.911 240.311 232.925 240.177 232.903 240.046Z" fill="white"/>
<path d="M240.251 252.624C240.222 252.499 240.165 252.382 240.082 252.283C239.999 252.184 239.894 252.106 239.776 252.056C239.657 252.006 239.528 251.985 239.4 251.995C239.271 252.005 239.147 252.045 239.038 252.113L239 252.15C238.901 252.239 238.826 252.351 238.784 252.477C238.742 252.603 238.733 252.738 238.758 252.868C238.784 252.998 238.843 253.12 238.93 253.22C239.016 253.321 239.128 253.397 239.253 253.441C239.378 253.486 239.512 253.497 239.643 253.473C239.774 253.45 239.896 253.393 239.998 253.308C240.1 253.223 240.178 253.113 240.225 252.989C240.271 252.864 240.284 252.73 240.263 252.599L240.251 252.624Z" fill="white"/>
<path d="M219.813 186.758C219.783 186.632 219.722 186.516 219.638 186.419C219.553 186.321 219.446 186.246 219.326 186.198C219.206 186.151 219.077 186.132 218.948 186.145C218.82 186.158 218.696 186.201 218.588 186.271L218.544 186.309C218.444 186.398 218.37 186.51 218.328 186.636C218.286 186.762 218.277 186.897 218.302 187.027C218.328 187.157 218.387 187.278 218.474 187.379C218.56 187.479 218.672 187.556 218.797 187.6C218.922 187.644 219.056 187.656 219.187 187.632C219.318 187.609 219.44 187.552 219.542 187.467C219.644 187.382 219.722 187.272 219.768 187.147C219.815 187.023 219.828 186.889 219.807 186.758H219.813Z" fill="white"/>
<path d="M236.447 218.87C236.417 218.744 236.356 218.628 236.272 218.531C236.187 218.433 236.08 218.358 235.96 218.31C235.84 218.263 235.71 218.244 235.582 218.257C235.454 218.27 235.33 218.313 235.222 218.383L235.177 218.415C235.078 218.503 235.004 218.615 234.961 218.741C234.919 218.866 234.91 219.001 234.935 219.131C234.96 219.261 235.019 219.383 235.105 219.483C235.191 219.584 235.302 219.66 235.427 219.705C235.551 219.75 235.685 219.762 235.816 219.739C235.947 219.717 236.069 219.66 236.171 219.576C236.274 219.492 236.352 219.382 236.4 219.259C236.447 219.135 236.461 219.001 236.441 218.87H236.447Z" fill="white"/>
<path d="M231.052 231.031C231.022 230.906 230.961 230.789 230.877 230.692C230.792 230.595 230.685 230.519 230.565 230.471C230.445 230.424 230.315 230.406 230.187 230.418C230.058 230.431 229.935 230.474 229.827 230.545L229.782 230.576C229.683 230.664 229.609 230.777 229.566 230.902C229.524 231.028 229.515 231.162 229.54 231.292C229.565 231.422 229.623 231.544 229.71 231.644C229.796 231.745 229.907 231.822 230.032 231.867C230.156 231.911 230.29 231.923 230.421 231.901C230.552 231.878 230.674 231.822 230.776 231.737C230.879 231.653 230.957 231.544 231.005 231.42C231.052 231.296 231.066 231.162 231.046 231.031H231.052Z" fill="white"/>
<path d="M248.786 240.798C248.755 240.673 248.695 240.556 248.61 240.459C248.525 240.362 248.418 240.286 248.298 240.238C248.178 240.191 248.049 240.172 247.92 240.185C247.792 240.198 247.668 240.241 247.56 240.312L247.516 240.349C247.417 240.438 247.342 240.55 247.3 240.676C247.258 240.802 247.249 240.937 247.275 241.067C247.3 241.197 247.359 241.319 247.446 241.419C247.532 241.52 247.644 241.596 247.769 241.64C247.894 241.685 248.029 241.696 248.159 241.672C248.29 241.649 248.412 241.592 248.514 241.507C248.616 241.422 248.694 241.312 248.741 241.188C248.787 241.063 248.8 240.929 248.779 240.798H248.786Z" fill="white"/>
<path d="M200.261 254.905C200.232 254.779 200.172 254.662 200.087 254.563C200.003 254.465 199.896 254.389 199.775 254.341C199.655 254.293 199.525 254.275 199.396 254.289C199.267 254.302 199.143 254.347 199.035 254.419L198.991 254.45C198.892 254.538 198.818 254.651 198.775 254.776C198.733 254.902 198.723 255.036 198.748 255.166C198.774 255.296 198.832 255.418 198.918 255.518C199.005 255.619 199.115 255.696 199.24 255.741C199.365 255.786 199.499 255.797 199.63 255.775C199.76 255.752 199.883 255.696 199.985 255.611C200.087 255.527 200.166 255.418 200.213 255.294C200.261 255.17 200.275 255.036 200.255 254.905H200.261Z" fill="white"/>
<path d="M159.828 251.209C159.797 251.084 159.737 250.968 159.652 250.87C159.568 250.773 159.461 250.697 159.341 250.65C159.221 250.602 159.091 250.584 158.963 250.596C158.834 250.609 158.711 250.653 158.602 250.723L158.558 250.761C158.456 250.849 158.379 250.962 158.335 251.09C158.291 251.217 158.28 251.354 158.305 251.486C158.33 251.619 158.39 251.742 158.477 251.845C158.565 251.947 158.678 252.025 158.805 252.07C158.932 252.115 159.069 252.126 159.201 252.102C159.334 252.077 159.458 252.019 159.561 251.932C159.663 251.845 159.742 251.732 159.788 251.605C159.833 251.479 159.845 251.342 159.822 251.209H159.828Z" fill="white"/>
<path d="M195.447 244.569C195.416 244.444 195.356 244.328 195.271 244.23C195.186 244.133 195.079 244.057 194.959 244.01C194.839 243.962 194.71 243.944 194.581 243.957C194.453 243.969 194.329 244.013 194.221 244.083L194.177 244.121C194.075 244.209 193.998 244.323 193.953 244.45C193.909 244.577 193.899 244.714 193.924 244.846C193.949 244.979 194.008 245.102 194.096 245.205C194.183 245.307 194.296 245.385 194.423 245.43C194.55 245.475 194.687 245.486 194.82 245.462C194.952 245.438 195.076 245.379 195.179 245.292C195.282 245.205 195.36 245.092 195.406 244.966C195.452 244.839 195.464 244.702 195.44 244.569H195.447Z" fill="white"/>
<path d="M161.332 237.349C161.302 237.222 161.243 237.105 161.158 237.007C161.074 236.909 160.967 236.832 160.846 236.785C160.726 236.737 160.596 236.719 160.467 236.732C160.338 236.746 160.214 236.79 160.106 236.862L160.068 236.894C159.969 236.982 159.895 237.094 159.852 237.22C159.81 237.345 159.8 237.48 159.826 237.61C159.851 237.74 159.909 237.861 159.995 237.962C160.082 238.063 160.193 238.139 160.317 238.184C160.442 238.229 160.576 238.241 160.707 238.218C160.837 238.195 160.96 238.139 161.062 238.055C161.165 237.971 161.243 237.861 161.29 237.737C161.338 237.614 161.352 237.48 161.332 237.349Z" fill="white"/>
<path d="M218.316 214.416C218.285 214.29 218.225 214.174 218.14 214.077C218.056 213.979 217.949 213.904 217.829 213.856C217.709 213.809 217.579 213.79 217.451 213.803C217.322 213.816 217.199 213.859 217.09 213.929L217.046 213.961C216.947 214.049 216.873 214.161 216.83 214.287C216.788 214.412 216.779 214.547 216.804 214.677C216.829 214.807 216.887 214.929 216.973 215.029C217.06 215.13 217.171 215.207 217.295 215.251C217.42 215.296 217.554 215.308 217.685 215.285C217.815 215.263 217.938 215.206 218.04 215.122C218.143 215.038 218.221 214.928 218.268 214.805C218.316 214.681 218.33 214.547 218.31 214.416H218.316Z" fill="white"/>
<path d="M206.389 179.613C206.358 179.487 206.298 179.371 206.213 179.274C206.129 179.176 206.022 179.101 205.902 179.053C205.782 179.005 205.652 178.987 205.524 179C205.395 179.013 205.272 179.056 205.163 179.126H205.119C205.02 179.214 204.946 179.327 204.903 179.452C204.861 179.578 204.851 179.712 204.877 179.842C204.902 179.972 204.96 180.094 205.046 180.194C205.133 180.295 205.243 180.372 205.368 180.417C205.493 180.462 205.627 180.473 205.758 180.451C205.888 180.428 206.011 180.372 206.113 180.287C206.215 180.203 206.294 180.094 206.341 179.97C206.389 179.846 206.403 179.712 206.383 179.581L206.389 179.613Z" fill="white"/>
<path d="M203.407 209.785C203.376 209.66 203.316 209.543 203.231 209.446C203.147 209.349 203.04 209.273 202.92 209.225C202.8 209.178 202.67 209.16 202.542 209.172C202.413 209.185 202.29 209.228 202.181 209.299L202.143 209.337C202.044 209.425 201.97 209.538 201.928 209.663C201.885 209.789 201.877 209.924 201.902 210.054C201.928 210.184 201.987 210.306 202.073 210.406C202.16 210.507 202.272 210.583 202.397 210.627C202.522 210.672 202.656 210.683 202.787 210.66C202.918 210.636 203.04 210.579 203.142 210.494C203.244 210.409 203.322 210.299 203.368 210.175C203.415 210.05 203.428 209.916 203.407 209.785Z" fill="white"/>
<path d="M198.555 199.949C198.524 199.823 198.464 199.707 198.379 199.61C198.295 199.512 198.188 199.437 198.068 199.389C197.948 199.342 197.818 199.323 197.69 199.336C197.561 199.349 197.438 199.392 197.329 199.462H197.291C197.192 199.55 197.118 199.663 197.075 199.788C197.033 199.914 197.024 200.048 197.049 200.178C197.074 200.309 197.133 200.43 197.219 200.531C197.305 200.631 197.416 200.708 197.541 200.753C197.665 200.798 197.799 200.809 197.93 200.787C198.061 200.764 198.183 200.708 198.285 200.624C198.388 200.539 198.466 200.43 198.514 200.306C198.561 200.182 198.575 200.048 198.555 199.917V199.949Z" fill="white"/>
<path d="M220.015 230.892C219.985 230.767 219.925 230.65 219.84 230.553C219.755 230.456 219.648 230.38 219.528 230.332C219.408 230.285 219.279 230.266 219.15 230.279C219.022 230.292 218.898 230.335 218.79 230.406L218.746 230.443C218.644 230.532 218.567 230.645 218.522 230.772C218.478 230.9 218.468 231.036 218.493 231.169C218.518 231.301 218.577 231.425 218.665 231.527C218.752 231.63 218.865 231.707 218.992 231.752C219.119 231.797 219.256 231.808 219.389 231.784C219.521 231.76 219.645 231.701 219.748 231.614C219.851 231.527 219.929 231.415 219.975 231.288C220.021 231.161 220.033 231.025 220.009 230.892H220.015Z" fill="white"/>
<path d="M204.885 224.821C204.858 224.693 204.8 224.574 204.717 224.473C204.633 224.373 204.527 224.294 204.406 224.244C204.285 224.195 204.154 224.175 204.024 224.188C203.894 224.2 203.769 224.244 203.66 224.316L203.615 224.354C203.516 224.442 203.442 224.555 203.4 224.68C203.357 224.806 203.348 224.941 203.374 225.071C203.4 225.201 203.459 225.323 203.545 225.423C203.632 225.524 203.743 225.6 203.868 225.644C203.994 225.689 204.128 225.7 204.259 225.676C204.389 225.653 204.512 225.596 204.614 225.511C204.716 225.426 204.794 225.316 204.84 225.192C204.887 225.067 204.9 224.933 204.879 224.802L204.885 224.821Z" fill="white"/>
<path d="M211.361 191.496C211.331 191.371 211.272 191.254 211.187 191.157C211.103 191.059 210.997 190.984 210.877 190.936C210.758 190.888 210.629 190.87 210.5 190.883C210.372 190.896 210.249 190.939 210.141 191.009L210.097 191.041C209.998 191.129 209.924 191.241 209.881 191.367C209.839 191.492 209.83 191.627 209.855 191.757C209.88 191.887 209.938 192.009 210.025 192.109C210.111 192.21 210.222 192.287 210.346 192.331C210.471 192.376 210.605 192.388 210.736 192.365C210.866 192.343 210.989 192.287 211.091 192.202C211.194 192.118 211.272 192.009 211.319 191.885C211.367 191.761 211.381 191.627 211.361 191.496Z" fill="white"/>
<path d="M188.333 215.092C188.302 214.967 188.242 214.85 188.157 214.753C188.072 214.656 187.966 214.58 187.846 214.532C187.726 214.485 187.596 214.466 187.467 214.479C187.339 214.492 187.215 214.535 187.107 214.605L187.069 214.643C186.97 214.732 186.896 214.844 186.854 214.97C186.811 215.096 186.802 215.231 186.828 215.361C186.854 215.491 186.913 215.613 186.999 215.713C187.086 215.814 187.197 215.89 187.322 215.934C187.447 215.979 187.582 215.99 187.713 215.966C187.843 215.943 187.966 215.886 188.068 215.801C188.17 215.716 188.248 215.606 188.294 215.482C188.341 215.357 188.354 215.223 188.333 215.092Z" fill="white"/>
<path d="M223.875 204.264C223.845 204.138 223.785 204.022 223.7 203.925C223.615 203.827 223.508 203.752 223.388 203.704C223.268 203.656 223.139 203.638 223.01 203.651C222.882 203.664 222.758 203.707 222.65 203.777L222.606 203.809C222.507 203.897 222.432 204.009 222.39 204.135C222.347 204.26 222.338 204.395 222.363 204.525C222.388 204.655 222.447 204.776 222.533 204.877C222.619 204.978 222.73 205.054 222.855 205.099C222.979 205.144 223.114 205.156 223.244 205.133C223.375 205.111 223.497 205.054 223.6 204.97C223.702 204.886 223.781 204.776 223.828 204.652C223.875 204.529 223.889 204.395 223.869 204.264H223.875Z" fill="white"/>
<path d="M256.847 175.986C256.817 175.861 256.756 175.745 256.672 175.647C256.587 175.55 256.48 175.474 256.36 175.427C256.24 175.379 256.11 175.361 255.982 175.374C255.853 175.386 255.73 175.43 255.622 175.5L255.577 175.538C255.478 175.626 255.404 175.739 255.362 175.865C255.319 175.99 255.311 176.125 255.336 176.255C255.362 176.386 255.421 176.507 255.507 176.608C255.594 176.708 255.705 176.784 255.83 176.829C255.956 176.873 256.09 176.884 256.221 176.861C256.351 176.837 256.474 176.78 256.576 176.695C256.678 176.61 256.756 176.5 256.802 176.376C256.849 176.252 256.862 176.117 256.841 175.986H256.847Z" fill="white"/>
<path d="M243.46 154.576C243.43 154.451 243.369 154.334 243.285 154.237C243.2 154.14 243.093 154.064 242.973 154.016C242.853 153.969 242.723 153.951 242.595 153.963C242.466 153.976 242.343 154.019 242.235 154.09L242.19 154.128C242.091 154.216 242.017 154.329 241.975 154.454C241.932 154.58 241.924 154.715 241.949 154.845C241.975 154.975 242.034 155.097 242.12 155.197C242.207 155.298 242.318 155.374 242.444 155.418C242.569 155.463 242.703 155.474 242.834 155.45C242.964 155.427 243.087 155.37 243.189 155.285C243.291 155.2 243.369 155.09 243.415 154.966C243.462 154.841 243.475 154.707 243.454 154.576H243.46Z" fill="white"/>
<path d="M217.52 157.261C217.49 157.136 217.429 157.02 217.345 156.922C217.26 156.825 217.153 156.749 217.033 156.702C216.913 156.654 216.783 156.636 216.655 156.648C216.526 156.661 216.403 156.704 216.295 156.775L216.25 156.806C216.151 156.894 216.077 157.007 216.034 157.132C215.992 157.258 215.983 157.392 216.008 157.522C216.033 157.653 216.091 157.774 216.178 157.875C216.264 157.975 216.375 158.052 216.499 158.097C216.624 158.142 216.758 158.153 216.889 158.131C217.02 158.108 217.142 158.052 217.244 157.968C217.347 157.883 217.425 157.774 217.473 157.65C217.52 157.526 217.534 157.392 217.514 157.261H217.52Z" fill="white"/>
<path d="M191.056 80.4083C186.084 83.5671 184.107 90.2068 185.042 94.13C185.522 96.1074 186.419 98.0974 186.027 100.087C185.693 101.812 184.448 103.196 183.5 104.687C181.939 107.196 181.222 110.14 181.453 113.087C181.685 116.033 182.854 118.829 184.788 121.064C186.722 123.299 189.321 124.856 192.204 125.508C195.087 126.16 198.103 125.873 200.81 124.688" fill="#263238"/>
<path d="M188.112 106.304C176.008 79.6819 204.803 66.3077 220.508 70.7426C235.272 74.9122 241.571 82.2595 244.003 92.1338C246.435 102.008 246.315 112.716 242.443 122.123C240.548 126.76 237.098 131.473 232.114 132.054" fill="#263238"/>
<path d="M202.295 171.318C202.086 158.594 201.935 141.126 201.935 141.196C201.935 141.265 191.024 139.383 188.731 125.13C187.607 118.036 187.967 106.405 188.561 96.8971C189.104 88.3369 194.771 77.8371 203.299 78.7405L229.928 85.4687C231.178 85.6 232.333 86.1964 233.164 87.1396C233.995 88.0828 234.441 89.3039 234.413 90.5606L232.682 145.631" fill="#FFBE9D"/>
<path d="M193.324 105.596C193.313 106.07 193.489 106.529 193.812 106.875C194.136 107.221 194.582 107.426 195.055 107.447C195.286 107.469 195.519 107.444 195.741 107.374C195.962 107.304 196.167 107.19 196.344 107.039C196.521 106.888 196.665 106.704 196.77 106.496C196.874 106.288 196.935 106.062 196.95 105.83C196.959 105.357 196.783 104.898 196.46 104.551C196.137 104.205 195.692 103.997 195.219 103.973C194.987 103.952 194.754 103.978 194.533 104.049C194.311 104.12 194.106 104.234 193.929 104.385C193.753 104.537 193.608 104.722 193.504 104.93C193.4 105.138 193.339 105.364 193.324 105.596Z" fill="#263238"/>
<path d="M212.226 105.596C212.218 106.069 212.394 106.526 212.717 106.871C213.04 107.215 213.485 107.42 213.957 107.441C214.189 107.463 214.422 107.438 214.643 107.368C214.865 107.298 215.07 107.184 215.247 107.033C215.423 106.882 215.568 106.697 215.672 106.49C215.776 106.282 215.838 106.056 215.853 105.824C215.863 105.35 215.688 104.892 215.364 104.546C215.041 104.2 214.595 103.994 214.122 103.973C213.89 103.951 213.656 103.976 213.434 104.047C213.212 104.117 213.007 104.232 212.83 104.383C212.653 104.535 212.509 104.72 212.405 104.929C212.301 105.137 212.241 105.364 212.226 105.596Z" fill="#263238"/>
<path d="M191.353 102.273C191.574 102.52 192.995 101.541 194.96 101.642C196.925 101.743 198.334 102.741 198.561 102.507C198.669 102.406 198.447 101.97 197.835 101.49C197.005 100.87 196.002 100.523 194.966 100.498C193.943 100.462 192.934 100.752 192.086 101.326C191.467 101.755 191.245 102.16 191.353 102.273Z" fill="#263238"/>
<path d="M210.04 102.741C210.268 102.981 211.651 101.945 213.616 101.945C215.581 101.945 217.034 102.918 217.242 102.678C217.35 102.57 217.116 102.141 216.484 101.686C215.631 101.096 214.615 100.787 213.578 100.801C212.555 100.801 211.559 101.129 210.735 101.736C210.129 102.204 209.926 102.633 210.04 102.741Z" fill="#263238"/>
<path d="M203.293 117.903C203.293 117.789 202.08 117.581 200.097 117.322C199.591 117.271 199.117 117.17 199.035 116.829C198.99 116.309 199.107 115.789 199.37 115.338C199.838 114.125 200.337 112.849 200.855 111.51C202.92 106.064 204.411 101.578 204.19 101.496C203.969 101.414 202.118 105.767 200.059 111.219L198.631 115.073C198.314 115.679 198.223 116.377 198.372 117.044C198.445 117.221 198.558 117.379 198.701 117.505C198.845 117.632 199.015 117.725 199.199 117.777C199.477 117.855 199.764 117.895 200.052 117.897C202.049 118.004 203.287 118.01 203.293 117.903Z" fill="#263238"/>
<path d="M201.934 141.196C208.651 141.298 215.264 139.536 221.039 136.104C221.039 136.104 216.212 146.022 201.934 144.689V141.196Z" fill="#EB996E"/>
<path d="M209.553 99.9423C209.743 100.479 211.714 100.22 214.02 100.505C216.326 100.789 218.196 101.408 218.505 100.928C218.644 100.7 218.316 100.195 217.564 99.6643C216.558 99.0297 215.421 98.6322 214.239 98.502C213.057 98.3718 211.861 98.5121 210.741 98.9125C209.894 99.2663 209.465 99.6896 209.553 99.9423Z" fill="#263238"/>
<path d="M191.808 97.333C192.155 97.7815 193.513 97.333 195.143 97.2951C196.773 97.2572 198.157 97.5983 198.473 97.1308C198.612 96.9034 198.397 96.4548 197.79 96.0316C196.985 95.5115 196.038 95.2554 195.08 95.2987C194.122 95.3174 193.194 95.6307 192.42 96.1958C191.846 96.6444 191.656 97.1055 191.808 97.333Z" fill="#263238"/>
<path d="M231.968 109.336C232.176 109.235 239.606 105.95 239.694 114.491C239.783 123.033 231.185 121.359 231.166 121.112C231.147 120.866 231.968 109.336 231.968 109.336Z" fill="#FFBE9D"/>
<path d="M233.743 117.84C233.781 117.84 233.895 117.941 234.148 118.054C234.505 118.197 234.903 118.197 235.26 118.054C236.157 117.713 236.902 116.273 236.928 114.731C236.947 114 236.797 113.274 236.492 112.609C236.41 112.342 236.264 112.1 236.067 111.903C235.87 111.705 235.627 111.56 235.361 111.478C235.19 111.434 235.008 111.451 234.849 111.528C234.69 111.604 234.562 111.734 234.489 111.895C234.375 112.135 234.432 112.305 234.388 112.318C234.344 112.331 234.198 112.179 234.268 111.825C234.312 111.614 234.428 111.424 234.596 111.288C234.712 111.198 234.843 111.132 234.984 111.093C235.125 111.054 235.272 111.043 235.418 111.061C235.769 111.127 236.097 111.282 236.371 111.511C236.646 111.74 236.857 112.035 236.984 112.369C237.357 113.104 237.543 113.92 237.528 114.744C237.49 116.462 236.624 118.086 235.392 118.452C235.164 118.521 234.923 118.539 234.687 118.502C234.45 118.466 234.225 118.378 234.028 118.244C233.762 118.048 233.718 117.852 233.743 117.84Z" fill="#EB996E"/>
<path d="M200.456 74.5141C195.706 76.9716 193.747 86.688 195.712 91.6662C197.677 96.6444 202.977 99.0704 208.202 100.214C213.426 101.357 218.55 101.477 223.705 100.062C224.059 103.524 226.137 107.081 229.498 107.997C233.952 109.204 238.437 105.129 239.429 100.624C240.421 96.1201 238.93 91.483 237.465 87.105" fill="#263238"/>
<path d="M238.141 105.502C238.141 105.502 237.926 105.754 237.477 106.133C236.85 106.664 236.194 107.16 235.512 107.618C234.493 108.321 233.373 108.864 232.189 109.229C230.712 109.695 229.123 109.671 227.66 109.159C226.22 108.579 225.013 107.537 224.229 106.197C223.595 105.126 223.176 103.941 222.997 102.709C222.873 101.89 222.828 101.061 222.865 100.233C222.851 99.9299 222.887 99.6268 222.972 99.3357C223.067 99.3357 222.972 100.631 223.339 102.646C223.555 103.817 223.983 104.939 224.602 105.956C225.352 107.191 226.48 108.153 227.818 108.698C229.187 109.171 230.669 109.202 232.057 108.787C233.204 108.455 234.299 107.964 235.31 107.327C237.067 106.228 238.09 105.432 238.141 105.502Z" fill="#263238"/>
<path d="M203.875 123.387C204.126 124.127 204.483 124.827 204.936 125.465C205.163 125.785 205.456 126.052 205.795 126.249C206.134 126.446 206.511 126.569 206.901 126.609C207.317 126.606 207.727 126.5 208.093 126.3C208.459 126.101 208.77 125.814 208.998 125.465C209.438 124.75 209.642 123.914 209.579 123.077C209.548 122.325 209.2 121.428 208.455 121.34C208.141 121.329 207.83 121.398 207.551 121.542L203.622 123.134" fill="#EB996E"/>
<path d="M205.441 126.615C205.441 126.495 206.326 126.842 207.539 126.356C208.226 126.09 208.791 125.579 209.124 124.922C209.313 124.521 209.414 124.084 209.423 123.642C209.432 123.199 209.347 122.759 209.175 122.351C209.084 122.142 208.969 121.945 208.834 121.763C208.676 121.599 208.701 121.605 208.537 121.63C208.372 121.656 208.113 121.795 207.905 121.877L207.273 122.142C206.433 122.483 205.669 122.774 205.03 123.02C203.767 123.5 202.927 123.753 202.889 123.652C202.851 123.551 203.596 123.147 204.835 122.553C205.466 122.256 206.193 121.921 207.021 121.536L207.652 121.251C207.886 121.157 208.057 121.055 208.372 120.954C208.561 120.892 208.765 120.892 208.954 120.954C209.126 121.028 209.277 121.146 209.39 121.295C209.811 121.844 210.066 122.502 210.123 123.191C210.18 123.88 210.037 124.571 209.712 125.181C209.502 125.568 209.218 125.91 208.875 126.186C208.532 126.463 208.138 126.669 207.715 126.792C207.166 126.972 206.578 126.996 206.016 126.861C205.612 126.792 205.428 126.659 205.441 126.615Z" fill="#263238"/>
<path d="M241.565 103.48C240.693 103.417 233.636 104.333 234.192 117.442C234.71 129.691 243.302 126.994 246.044 122.382C248.622 118.017 250.125 104.08 241.565 103.48Z" fill="#455A64"/>
<path d="M245.905 105.028C245.885 104.915 245.874 104.801 245.873 104.687C245.873 104.428 245.873 104.099 245.835 103.682C245.835 102.779 245.772 101.515 245.728 99.9486C245.665 96.733 245.576 92.2538 245.469 87.0924L245.627 87.244H241.994L242.158 87.0798C242.158 88.0527 242.209 89.0824 242.24 90.1312C242.361 95.0462 242.474 99.6075 242.569 103.467V103.581H242.462C240.97 103.925 239.645 104.779 238.715 105.994C238.011 106.937 237.502 108.011 237.218 109.153C237.029 109.889 236.9 110.639 236.833 111.396C236.833 111.655 236.801 111.857 236.795 111.99C236.788 112.122 236.795 112.198 236.795 112.198C236.787 112.129 236.787 112.059 236.795 111.99C236.795 111.857 236.795 111.655 236.795 111.39C236.826 110.623 236.931 109.861 237.111 109.115C237.374 107.94 237.875 106.831 238.583 105.855C239.536 104.59 240.901 103.696 242.443 103.328L242.335 103.467C242.228 99.6327 242.095 95.0525 241.956 90.1312C241.925 89.0888 241.899 88.059 241.874 87.0798V86.9092H245.835V87.0671C245.892 92.2349 245.943 96.7077 245.98 99.9296C245.98 101.496 245.98 102.76 245.98 103.663C245.98 104.08 245.98 104.409 245.98 104.661C245.972 104.787 245.947 104.91 245.905 105.028Z" fill="#455A64"/>
<path d="M241.565 87.0861C241.565 87.0861 237.875 78.4563 229.088 74.192C225.727 72.518 222.196 71.2091 218.556 70.2877C218.556 70.2877 223.686 69.0748 231.981 72.7642C235.772 74.4447 239.562 76.6242 242.089 79.903C243.681 81.9815 245.678 86.0437 245.671 87.0861H241.565Z" fill="#455A64"/>
<path d="M218.821 191.622C218.821 191.622 218.872 191.559 218.979 191.452C219.087 191.344 219.251 191.18 219.453 190.959C220.059 190.318 220.629 189.643 221.159 188.937C222.002 187.808 222.772 186.627 223.465 185.399C224.286 183.965 225.145 182.272 226.074 180.383C227.938 176.593 230.092 172.032 232.328 166.788C233.44 164.166 234.577 161.38 235.714 158.443L236.561 156.219C236.828 155.44 237.168 154.689 237.578 153.976C238.015 153.236 238.65 152.633 239.41 152.232C239.797 152.02 240.232 151.909 240.674 151.91C240.915 151.927 241.147 152.01 241.343 152.15C241.53 152.301 241.675 152.497 241.767 152.719V152.763V152.814C241.713 153.114 241.597 153.401 241.426 153.654C241.235 153.918 240.954 154.102 240.636 154.172C240.029 154.256 239.411 154.143 238.873 153.85C238.309 153.586 237.848 153.142 237.566 152.586C237.283 152.031 237.194 151.397 237.313 150.786C237.442 150.157 237.811 149.604 238.343 149.244C238.867 148.878 239.498 148.698 240.137 148.732C240.467 148.735 240.792 148.82 241.081 148.98C241.37 149.14 241.615 149.37 241.792 149.649C241.881 149.808 241.923 149.99 241.912 150.173C241.9 150.355 241.837 150.531 241.729 150.678C241.52 150.942 241.243 151.144 240.926 151.259C240.397 151.461 239.816 151.486 239.271 151.331C238.726 151.176 238.245 150.85 237.9 150.4C237.565 149.942 237.418 149.372 237.49 148.808C237.545 148.259 237.765 147.739 238.121 147.317C238.484 146.891 238.989 146.613 239.543 146.534C239.822 146.497 240.107 146.526 240.373 146.618C240.639 146.711 240.881 146.863 241.078 147.065C241.28 147.282 241.389 147.57 241.381 147.867C241.378 148.015 241.343 148.16 241.28 148.294C241.217 148.428 241.127 148.547 241.015 148.644C240.809 148.83 240.562 148.964 240.294 149.036C240.026 149.109 239.745 149.117 239.473 149.061C239.21 148.992 238.965 148.869 238.753 148.699C238.541 148.529 238.366 148.317 238.242 148.075C237.997 147.623 237.84 147.127 237.78 146.616C237.602 145.623 237.719 144.6 238.115 143.672C238.337 143.199 238.72 142.82 239.195 142.604C239.682 142.424 240.22 142.442 240.693 142.655C240.941 142.745 241.159 142.901 241.323 143.108C241.487 143.314 241.59 143.562 241.621 143.824C241.634 144.091 241.564 144.356 241.42 144.582C241.276 144.809 241.067 144.985 240.819 145.087C240.594 145.203 240.345 145.263 240.093 145.263C239.84 145.263 239.591 145.203 239.366 145.087C238.938 144.84 238.617 144.444 238.463 143.975C238.32 143.531 238.291 143.057 238.38 142.598C238.43 142.151 238.527 141.71 238.671 141.284C238.814 140.846 239.079 140.458 239.436 140.166C239.786 139.885 240.193 139.684 240.63 139.578C240.857 139.513 241.097 139.513 241.324 139.578C241.542 139.654 241.739 139.779 241.899 139.945C242.06 140.103 242.187 140.292 242.272 140.501C242.364 140.725 242.364 140.977 242.272 141.202C242.17 141.41 242.007 141.582 241.805 141.695C241.603 141.807 241.372 141.856 241.141 141.834C240.714 141.828 240.299 141.688 239.954 141.436C239.299 140.953 238.848 140.243 238.69 139.446C238.525 138.658 238.648 137.838 239.038 137.133C239.209 136.796 239.452 136.5 239.751 136.268C240.046 136.044 240.391 135.895 240.756 135.832C241.121 135.758 241.5 135.812 241.83 135.984C241.993 136.072 242.132 136.2 242.233 136.356C242.335 136.511 242.396 136.689 242.411 136.874C242.409 137.223 242.291 137.561 242.076 137.836C241.861 138.11 241.561 138.305 241.223 138.391C240.907 138.458 240.577 138.434 240.273 138.323C239.969 138.211 239.703 138.015 239.505 137.759C239.126 137.302 238.904 136.735 238.873 136.142C238.928 135.109 239.141 134.09 239.505 133.122C239.764 132.212 239.998 131.378 240.213 130.633C240.636 129.148 240.964 127.992 241.198 127.196C241.306 126.811 241.394 126.514 241.457 126.305C241.52 126.097 241.558 126.002 241.558 126.002C241.558 126.002 241.558 126.109 241.489 126.312C241.419 126.514 241.356 126.83 241.261 127.215C241.046 128.017 240.731 129.18 240.333 130.664L239.657 133.16C239.442 134.076 239.025 135.055 239.069 136.129C239.115 136.684 239.336 137.211 239.701 137.633C239.875 137.859 240.11 138.033 240.378 138.133C240.646 138.233 240.936 138.257 241.217 138.201C241.501 138.128 241.753 137.966 241.938 137.738C242.122 137.511 242.228 137.23 242.241 136.938C242.227 136.789 242.178 136.647 242.096 136.522C242.015 136.397 241.904 136.295 241.773 136.224C241.487 136.082 241.163 136.04 240.851 136.104C240.52 136.16 240.207 136.297 239.941 136.502C239.676 136.717 239.461 136.986 239.309 137.291C238.996 137.939 238.914 138.675 239.075 139.376C239.227 140.109 239.646 140.76 240.25 141.202C240.553 141.419 240.914 141.541 241.287 141.549C241.462 141.57 241.639 141.538 241.795 141.455C241.95 141.373 242.077 141.245 242.158 141.088C242.197 140.913 242.187 140.73 242.127 140.561C242.068 140.391 241.963 140.241 241.824 140.128C241.693 139.996 241.536 139.895 241.362 139.831C241.182 139.784 240.993 139.784 240.813 139.831C240.415 139.918 240.045 140.104 239.739 140.372C239.433 140.641 239.2 140.983 239.063 141.366C238.925 141.776 238.834 142.2 238.791 142.63C238.706 143.05 238.732 143.486 238.867 143.893C238.993 144.291 239.263 144.627 239.625 144.835C239.808 144.926 240.011 144.974 240.216 144.974C240.421 144.974 240.623 144.926 240.806 144.835C240.995 144.761 241.157 144.631 241.27 144.463C241.383 144.295 241.442 144.096 241.438 143.893C241.41 143.689 241.326 143.497 241.196 143.337C241.065 143.178 240.893 143.058 240.699 142.99C240.299 142.815 239.847 142.799 239.436 142.946C239.032 143.134 238.708 143.458 238.519 143.862C238.157 144.734 238.054 145.693 238.223 146.622C238.278 147.093 238.422 147.55 238.646 147.968C238.749 148.169 238.892 148.346 239.067 148.489C239.243 148.631 239.445 148.736 239.663 148.796C239.885 148.843 240.115 148.838 240.335 148.78C240.554 148.722 240.757 148.612 240.926 148.461C241.006 148.391 241.07 148.305 241.115 148.21C241.16 148.114 241.186 148.011 241.19 147.905C241.194 147.799 241.177 147.694 241.139 147.595C241.101 147.496 241.044 147.406 240.971 147.33C240.806 147.167 240.607 147.045 240.388 146.971C240.169 146.898 239.936 146.876 239.707 146.907C239.232 146.976 238.8 147.219 238.494 147.589C238.163 147.945 237.96 148.401 237.919 148.886C237.878 149.37 238 149.855 238.267 150.261C238.57 150.65 238.99 150.933 239.465 151.067C239.94 151.201 240.445 151.18 240.907 151.007C241.155 150.905 241.372 150.742 241.539 150.533C241.61 150.435 241.652 150.318 241.658 150.197C241.665 150.076 241.637 149.956 241.577 149.851C241.425 149.623 241.219 149.436 240.978 149.308C240.737 149.179 240.467 149.111 240.194 149.112C239.635 149.068 239.079 149.224 238.625 149.551C238.17 149.878 237.847 150.356 237.711 150.899C237.608 151.427 237.682 151.974 237.922 152.455C238.162 152.936 238.554 153.324 239.038 153.559C239.507 153.826 240.05 153.932 240.585 153.862C240.826 153.787 241.039 153.642 241.197 153.445C241.355 153.248 241.45 153.008 241.47 152.757V152.851C241.409 152.677 241.298 152.524 241.15 152.412C241.003 152.3 240.827 152.233 240.642 152.22C240.251 152.218 239.865 152.318 239.524 152.51C238.812 152.883 238.219 153.448 237.812 154.14C237.411 154.833 237.079 155.563 236.82 156.32L235.961 158.55C234.824 161.481 233.674 164.236 232.549 166.889C230.3 172.133 228.127 176.707 226.232 180.472C225.291 182.367 224.419 184.041 223.579 185.475C222.871 186.698 222.083 187.874 221.222 188.994C220.518 189.954 219.713 190.835 218.821 191.622Z" fill="white"/>
<path d="M249.202 97.333C249.125 96.5301 248.932 95.7426 248.627 94.9956C247.71 92.9862 246.1 91.374 244.091 90.4532C242.713 89.8304 241.23 89.4684 239.72 89.3856C237.981 89.2961 236.238 89.4278 234.533 89.7773C230.913 90.4469 227.11 92.0074 222.852 92.6517C220.776 92.9267 218.673 92.9267 216.598 92.6517C214.671 92.3615 212.784 91.8485 210.975 91.1229C207.904 89.8862 205.112 88.0475 202.762 85.7151C201.181 84.1555 199.843 82.3665 198.795 80.4084C198.618 80.11 198.461 79.7997 198.327 79.4797L198.024 78.7784C197.948 78.6079 197.891 78.4626 197.841 78.3488C197.817 78.3011 197.8 78.25 197.79 78.1972C197.823 78.2399 197.851 78.2866 197.872 78.3362L198.081 78.7532L198.416 79.4355C198.56 79.7513 198.724 80.0573 198.908 80.3515C199.992 82.268 201.345 84.0189 202.926 85.5508C206.656 89.2038 211.45 91.5775 216.617 92.3296C218.663 92.6013 220.736 92.6013 222.782 92.3296C226.984 91.6978 230.793 90.1437 234.457 89.4867C236.187 89.1411 237.953 89.018 239.713 89.1202C241.256 89.2138 242.767 89.5974 244.167 90.2511C246.209 91.2078 247.83 92.8801 248.722 94.9513C248.944 95.5151 249.091 96.1056 249.158 96.7076V97.1751C249.181 97.2252 249.196 97.2785 249.202 97.333Z" fill="#455A64"/>
<path d="M239.669 83.7189C239.52 83.7555 239.368 83.7808 239.215 83.7947C238.918 83.8389 238.475 83.9021 237.913 84.0032C236.789 84.1864 235.178 84.5465 233.194 85.0392C230.873 85.6648 228.511 86.123 226.125 86.4101C223.192 86.7105 220.234 86.6447 217.318 86.2143C214.401 85.7911 211.545 85.0234 208.808 83.9273C206.565 83.0394 204.417 81.9282 202.396 80.6106C201.549 80.0357 200.791 79.5051 200.147 78.9997C199.503 78.4943 198.959 78.0584 198.542 77.6667L197.582 76.7633C197.367 76.5548 197.254 76.4411 197.266 76.4284C197.395 76.5118 197.515 76.607 197.626 76.7127L198.624 77.5656C199.054 77.9446 199.629 78.349 200.261 78.8291C200.892 79.3092 201.676 79.8336 202.522 80.3895C207.026 83.2305 212.075 85.0964 217.343 85.8668C220.236 86.2905 223.17 86.3626 226.08 86.0816C228.453 85.8237 230.804 85.4015 233.118 84.8181C235.108 84.3569 236.738 84.0284 237.875 83.8768C238.444 83.801 238.886 83.7568 239.189 83.7378C239.348 83.7149 239.509 83.7086 239.669 83.7189Z" fill="#455A64"/>
<path d="M240.605 126.046C240.52 126.03 240.438 126.005 240.358 125.971C240.138 125.878 239.927 125.766 239.727 125.636C238.963 125.134 238.329 124.458 237.876 123.665C237.228 122.477 236.84 121.166 236.738 119.817C236.593 118.186 236.593 116.546 236.738 114.915C236.875 113.284 237.146 111.668 237.547 110.082C237.834 108.772 238.309 107.51 238.956 106.336C239.422 105.539 240.072 104.865 240.851 104.371C241.05 104.24 241.262 104.13 241.483 104.042C241.641 103.985 241.729 103.96 241.729 103.973C241.729 103.985 241.407 104.118 240.895 104.478C240.181 105.001 239.59 105.674 239.164 106.449C238.557 107.619 238.114 108.867 237.85 110.158C237.467 111.732 237.205 113.332 237.067 114.946C236.935 116.557 236.935 118.175 237.067 119.786C237.147 121.107 237.5 122.398 238.103 123.576C238.52 124.358 239.107 125.036 239.821 125.56C240.301 125.895 240.624 126.015 240.605 126.046Z" fill="#263238"/>
<path d="M212.19 124.094L205.706 125.367C204.73 125.558 204.094 126.504 204.285 127.48L204.333 127.722C204.524 128.698 205.471 129.334 206.446 129.142L212.931 127.87C213.907 127.678 214.542 126.732 214.351 125.756L214.304 125.515C214.112 124.539 213.166 123.903 212.19 124.094Z" fill="#455A64"/>
<path d="M213.433 125.054L243.41 115.654C243.766 115.543 244.151 115.576 244.482 115.748C244.814 115.92 245.064 116.215 245.178 116.57C245.236 116.752 245.257 116.945 245.238 117.135C245.22 117.326 245.164 117.511 245.072 117.679C244.981 117.847 244.856 117.995 244.706 118.114C244.556 118.233 244.384 118.32 244.199 118.37L213.547 126.646L213.433 125.054Z" fill="#455A64"/>
<path d="M235.588 120.923C235.909 120.781 236.241 120.665 236.58 120.575L239.322 119.741C240.472 119.388 241.887 119.008 243.378 118.522C243.746 118.385 244.08 118.169 244.357 117.89C244.63 117.612 244.782 117.238 244.78 116.848C244.779 116.656 244.717 116.47 244.603 116.316C244.49 116.162 244.331 116.047 244.148 115.989C243.732 115.883 243.294 115.896 242.885 116.027L233.895 118.92L231.16 119.767C230.846 119.896 230.523 119.999 230.193 120.076C230.509 119.922 230.836 119.794 231.172 119.691L233.876 118.743C236.169 117.966 239.316 116.886 242.853 115.755C243.324 115.619 243.823 115.619 244.294 115.755C244.534 115.842 244.742 115.999 244.891 116.207C245.04 116.414 245.122 116.662 245.128 116.917C245.128 117.39 244.942 117.844 244.61 118.181C244.277 118.473 243.885 118.688 243.46 118.813C241.912 119.299 240.528 119.64 239.36 119.969L236.618 120.708C236.282 120.812 235.937 120.884 235.588 120.923Z" fill="#263238"/>
<path d="M186.602 97.9648C187.626 101.566 183.968 104.655 182.679 108.174C181.415 111.573 182.489 115.382 184.025 118.667C185.56 121.952 187.581 125.061 188.365 128.592C190.304 137.31 182.42 146.705 183.942 155.505C184.486 158.714 185.781 162.062 186.899 165.114C187.979 167.991 187.979 171.163 186.899 174.04C185.193 179.095 182.3 181.464 180.266 186.379C179.223 188.906 179.305 191.711 179.356 194.427C179.406 197.144 179.394 199.987 178.181 202.425C176.968 204.864 174.201 206.746 171.573 206.039C172.991 207.628 174.894 208.705 176.986 209.104C179.078 209.502 181.243 209.2 183.146 208.244C186.602 206.399 188.535 202.659 190.191 199.108C198.201 181.918 202.44 180.465 202.194 161.5C202.194 160.281 201.954 141.284 201.954 141.284C200.294 140.838 198.702 140.169 197.222 139.294C188.276 133.116 187.948 122.11 188.017 113.575" fill="#263238"/>
<path d="M204.481 155.505V162.663C204.481 162.663 198.978 190.744 197.323 206.342C195.668 221.94 195.396 226.059 195.396 226.059C195.396 226.059 199.345 232.219 207.602 221.757C215.859 211.295 217.331 209.646 220.635 209.463C220.635 209.463 216.598 165.6 216.781 163.977C216.986 162.825 217.492 161.749 218.247 160.856L204.481 155.505Z" fill="#FFBE9D"/>
<path d="M215.309 139.357C215.309 139.357 206.319 151.285 205.587 152.927C204.854 154.57 204.481 155.492 204.481 155.492L218.247 160.818L231.646 146.136L236.599 133.103L235.127 117.688C235.127 117.688 232.196 117.505 231.646 120.076C231.309 121.704 231.184 123.369 231.274 125.029L227.167 121.725L220.54 119.71C220.54 119.71 218.98 122.275 221.551 123.563C224.122 124.852 224.855 124.827 224.855 124.827L227.167 128.864L226.156 133.387L221.469 128.965C221.015 128.536 220.425 128.28 219.802 128.241C219.179 128.202 218.562 128.382 218.057 128.75L215.025 130.949L212.188 129.685L206.686 134.607L204.481 136.622C204.481 136.622 205.953 139.376 208.903 138.094L211.841 136.83L215.309 139.357Z" fill="#FFBE9D"/>
<path d="M204.481 157.924C204.472 157.796 204.472 157.667 204.481 157.539C204.481 157.286 204.512 156.907 204.569 156.421C204.643 155.813 204.759 155.212 204.917 154.62C205.113 153.804 205.437 153.024 205.877 152.308C207.936 149.149 211.177 144.727 215.22 139.288V139.452L211.733 136.887H211.853L210.04 137.689C209.418 137.993 208.771 138.244 208.107 138.441C207.384 138.614 206.624 138.527 205.959 138.195C205.283 137.847 204.721 137.312 204.342 136.653L204.291 136.565L204.373 136.489C206.736 134.265 209.37 132.023 212.074 129.622L212.156 129.552L212.245 129.603L214.69 131.05H214.532L217.387 129.154C217.886 128.832 218.335 128.523 218.872 128.194C219.164 128.049 219.491 127.987 219.816 128.015C220.142 128.042 220.453 128.159 220.717 128.352L226.282 133.059L226.023 133.147C226.327 131.789 226.655 130.317 226.984 128.832V128.946L224.672 124.909L224.817 124.991C224.424 124.938 224.04 124.834 223.673 124.682C223.313 124.549 222.953 124.397 222.593 124.239C222.233 124.081 221.879 123.905 221.525 123.734C221.342 123.646 221.165 123.525 220.988 123.424C220.815 123.301 220.655 123.161 220.508 123.007C220.296 122.782 220.131 122.517 220.022 122.228C219.914 121.938 219.864 121.63 219.876 121.321C219.897 120.717 220.064 120.127 220.363 119.602L220.426 119.495L220.552 119.533L227.173 121.554H227.205L231.311 124.858L231.052 124.997C230.964 123.362 231.08 121.721 231.4 120.114C231.467 119.7 231.621 119.304 231.852 118.954C232.082 118.603 232.385 118.305 232.739 118.08C233.445 117.663 234.257 117.459 235.076 117.492H235.247V117.631C235.765 123.109 236.252 128.276 236.7 133.046V133.078C234.868 137.879 233.2 142.238 231.722 146.098L221.348 157.545L218.531 160.597C218.209 160.932 217.962 161.197 217.792 161.38L217.533 161.639C217.533 161.639 217.608 161.538 217.766 161.355L218.48 160.553L221.26 157.463L231.583 146.092V146.123L236.511 133.084V133.147C236.049 128.377 235.557 123.216 235.026 117.732L235.171 117.878C234.418 117.847 233.672 118.036 233.023 118.421C232.705 118.623 232.434 118.892 232.228 119.208C232.022 119.524 231.886 119.88 231.829 120.253C231.512 121.83 231.398 123.442 231.488 125.048V125.414L231.204 125.187L227.034 121.864H227.091L220.47 119.849L220.654 119.773C220.387 120.249 220.238 120.782 220.218 121.327C220.206 121.594 220.248 121.861 220.342 122.112C220.435 122.362 220.578 122.592 220.761 122.786C220.892 122.92 221.033 123.042 221.184 123.153C221.355 123.248 221.506 123.349 221.683 123.437C222.037 123.608 222.385 123.784 222.738 123.936C223.404 124.261 224.106 124.505 224.829 124.663H224.931L224.968 124.726L227.281 128.763L227.312 128.82V128.883C226.977 130.367 226.68 131.839 226.346 133.198L226.289 133.463L226.08 133.286L220.534 128.592C220.318 128.432 220.062 128.334 219.795 128.309C219.527 128.285 219.258 128.335 219.017 128.453C218.55 128.731 218.044 129.085 217.564 129.394L214.702 131.29L214.627 131.34L214.545 131.296L212.1 129.843H212.277C209.573 132.231 206.932 134.474 204.563 136.685L204.594 136.521C204.943 137.13 205.461 137.626 206.085 137.948C206.694 138.258 207.393 138.339 208.056 138.176C208.707 137.985 209.341 137.742 209.952 137.449L211.765 136.653H211.834L211.891 136.691L215.372 139.269L215.467 139.338L215.397 139.433C211.335 144.872 208.063 149.257 205.978 152.384C205.539 153.086 205.209 153.851 204.999 154.652C204.838 155.238 204.713 155.833 204.626 156.434C204.556 156.92 204.525 157.299 204.506 157.545C204.487 157.792 204.481 157.924 204.481 157.924Z" fill="#EB996E"/>
<path d="M221.513 142.118C221.45 142.118 221.69 141.145 221.791 139.591C221.858 138.685 221.71 137.776 221.361 136.938C220.834 135.955 220.083 135.111 219.169 134.474C217.537 133.222 215.835 132.064 214.071 131.005L212.46 130.058C212.253 129.956 212.058 129.831 211.879 129.685C212.101 129.739 212.314 129.826 212.511 129.944C212.915 130.127 213.49 130.418 214.185 130.803C215.993 131.812 217.724 132.952 219.365 134.215C220.321 134.881 221.098 135.773 221.627 136.811C221.99 137.694 222.124 138.655 222.018 139.604C221.965 140.23 221.861 140.851 221.709 141.461C221.675 141.688 221.609 141.909 221.513 142.118Z" fill="#EB996E"/>
<path d="M231.147 136.394C231.187 135.838 231.265 135.285 231.381 134.739C231.577 133.422 231.673 132.091 231.665 130.759C231.648 129.423 231.53 128.091 231.311 126.773C231.189 126.231 231.103 125.683 231.052 125.13C231.284 125.639 231.448 126.176 231.538 126.728C232.122 129.379 232.145 132.123 231.608 134.783C231.526 135.338 231.371 135.88 231.147 136.394Z" fill="#EB996E"/>
<path d="M169.798 89.5816L163.228 77.9763C167.296 71.3674 168.746 63.4757 167.292 55.8522C165.838 48.2287 161.585 41.4248 155.369 36.7778C149.153 32.1308 141.424 29.9768 133.7 30.7392C125.977 31.5016 118.818 35.1252 113.63 40.8978C108.443 46.6704 105.602 54.1745 105.667 61.9352C105.731 69.6959 108.696 77.1519 113.978 82.8377C119.261 88.5235 126.479 92.0278 134.214 92.662C141.949 93.2962 149.641 91.0143 155.779 86.2649L169.798 89.5816Z" fill="white"/>
<path d="M169.797 89.5814L155.735 86.3594H155.615L155.69 86.2583L155.804 86.3721C153.834 87.9016 151.69 89.193 149.417 90.2194C146.711 91.4304 143.845 92.2473 140.907 92.6454C139.279 92.8722 137.635 92.9546 135.992 92.8918C135.152 92.8475 134.287 92.8223 133.421 92.7528L130.799 92.3548C122.985 90.808 116.056 86.3389 111.423 79.8587C108.837 76.2785 107.049 72.1853 106.18 67.8554C105.282 63.2834 105.408 58.5695 106.546 54.0516C107.717 49.3292 109.998 44.9544 113.199 41.2901L114.462 39.894C114.879 39.4265 115.378 39.0411 115.827 38.6305C116.274 38.1856 116.745 37.7639 117.236 37.367L118.726 36.2551C119.217 35.8915 119.732 35.5622 120.268 35.2695L121.841 34.3156L123.49 33.5259C124.026 33.2423 124.581 32.9953 125.151 32.7867C129.566 31.0428 134.315 30.311 139.05 30.6451C143.53 30.9591 147.886 32.2531 151.811 34.4356C158.867 38.362 164.142 44.8517 166.544 52.5606C167.509 55.841 167.965 59.25 167.896 62.6687C167.813 65.6306 167.303 68.565 166.38 71.3806C165.608 73.7234 164.563 75.9669 163.265 78.0645V77.9824L169.778 89.6256C169.5 89.1391 167.39 85.4813 163.126 78.0582V78.0203V77.9824C164.403 75.8895 165.431 73.6549 166.19 71.3237C167.091 68.5214 167.586 65.6048 167.662 62.6624C167.717 59.2743 167.255 55.8977 166.291 52.6491C163.892 45.0167 158.655 38.5966 151.66 34.7136C147.77 32.5653 143.458 31.2952 139.025 30.9926C134.335 30.6622 129.63 31.3897 125.259 33.1216C124.695 33.3281 124.146 33.5729 123.616 33.8544L121.986 34.6441L120.426 35.5917C119.892 35.888 119.383 36.226 118.903 36.6025L117.425 37.7018C116.926 38.0556 116.503 38.5167 116.035 38.9148C115.568 39.3128 115.1 39.7234 114.683 40.1783L113.42 41.5555C110.253 45.1846 107.997 49.5158 106.837 54.1905C105.709 58.6627 105.582 63.3284 106.464 67.8554C107.326 72.1361 109.092 76.1834 111.644 79.726C116.243 86.1336 123.103 90.5568 130.837 92.1021L133.434 92.5001C134.293 92.5759 135.152 92.5948 135.961 92.6454C137.59 92.7112 139.222 92.6351 140.838 92.4179C146.239 91.7027 151.354 89.5711 155.665 86.2394L156.158 85.8603L155.779 86.3594L155.728 86.2268L169.797 89.5814Z" fill="#263238"/>
<path d="M130.041 61.7211C130.041 62.2209 129.893 62.7095 129.615 63.1251C129.338 63.5406 128.943 63.8645 128.481 64.0558C128.019 64.247 127.511 64.2971 127.021 64.1996C126.531 64.1021 126.081 63.8614 125.727 63.508C125.374 63.1546 125.133 62.7043 125.036 62.2141C124.938 61.7239 124.988 61.2158 125.18 60.7541C125.371 60.2923 125.695 59.8977 126.11 59.62C126.526 59.3423 127.014 59.1941 127.514 59.1941C128.184 59.1941 128.827 59.4603 129.301 59.9343C129.775 60.4082 130.041 61.0509 130.041 61.7211Z" fill="#263238"/>
<path d="M140.124 61.7211C140.124 62.2209 139.976 62.7095 139.699 63.1251C139.421 63.5406 139.026 63.8645 138.564 64.0558C138.103 64.247 137.595 64.2971 137.104 64.1996C136.614 64.1021 136.164 63.8614 135.811 63.508C135.457 63.1546 135.216 62.7043 135.119 62.2141C135.021 61.7239 135.072 61.2158 135.263 60.7541C135.454 60.2923 135.778 59.8977 136.194 59.62C136.609 59.3423 137.098 59.1941 137.597 59.1941C138.268 59.1941 138.91 59.4603 139.384 59.9343C139.858 60.4082 140.124 61.0509 140.124 61.7211Z" fill="#263238"/>
<path d="M150.188 60.4576C150.44 60.8902 150.557 61.3878 150.525 61.8871C150.493 62.3865 150.314 62.8651 150.01 63.2625C149.706 63.6599 149.291 63.958 148.817 64.1192C148.343 64.2804 147.833 64.2973 147.349 64.1678C146.866 64.0384 146.432 63.7683 146.102 63.3919C145.773 63.0155 145.562 62.5498 145.497 62.0536C145.433 61.5575 145.517 61.0533 145.739 60.6049C145.961 60.1566 146.311 59.7843 146.745 59.5352C147.325 59.2027 148.012 59.1131 148.657 59.2859C149.302 59.4588 149.853 59.88 150.188 60.4576Z" fill="#263238"/>
<path d="M294 259.782C294 259.877 229.776 259.946 150.592 259.946C71.408 259.946 7.18396 259.877 7.18396 259.782C7.18396 259.687 71.3891 259.618 150.624 259.618C229.858 259.618 294 259.693 294 259.782Z" fill="#263238"/>
<path d="M212.851 259.94C214.334 257.684 216.333 255.815 218.684 254.488C221.034 253.16 223.667 252.413 226.365 252.308C235.594 251.993 240.206 259.94 240.206 259.94H212.851Z" fill="#455A64"/>
<path d="M230.54 259.694C230.418 259.241 230.328 258.781 230.269 258.316C229.772 256.125 228.466 254.202 226.611 252.934C226.202 252.705 225.808 252.452 225.429 252.176C225.906 252.249 226.361 252.426 226.762 252.694C227.769 253.282 228.632 254.087 229.288 255.051C229.944 256.015 230.376 257.113 230.553 258.266C230.652 258.737 230.648 259.224 230.54 259.694Z" fill="#263238"/>
<path d="M207.14 259.605V259.542C207.125 258.612 206.745 257.726 206.082 257.075C205.419 256.423 204.526 256.059 203.596 256.061H125.044C124.104 256.061 123.202 256.434 122.538 257.099C121.873 257.764 121.5 258.665 121.5 259.605H207.14Z" fill="#455A64"/>
<path d="M56.7577 121.971C56.7577 123.627 58.0212 222.281 58.0212 222.281L131.305 239.913H137.325L133.471 102.191H127.963L56.7577 121.971Z" fill="#263238"/>
<path d="M72.2545 218.181L49.543 259.801H70.3024C66.5877 259.434 103.154 259.801 103.154 259.801L70.3024 251.089L80.581 227.746L79.7029 218.181H72.2545Z" fill="#263238"/>
<path d="M72.7596 225.863L70.3021 148.284L92.6156 146.148L95.3638 228.978L87.3974 229.382L72.7596 225.863Z" fill="#263238"/>
<path d="M98.4847 232.048C98.4847 232.048 98.4847 231.928 98.4847 231.688C98.4847 231.448 98.4847 231.088 98.4847 230.627C98.4847 229.679 98.4847 228.295 98.4847 226.508C98.4847 222.9 98.4531 217.663 98.4342 211.074C98.4342 197.889 98.4026 179.334 98.3773 157.817L98.5353 157.975H72.1596L72.3238 157.811V161.386C72.3238 182.373 72.3238 201.901 72.2922 218.175V218.206C65.4566 230.734 59.7898 241.133 55.8224 248.398C53.8387 252.024 52.2783 254.867 51.2106 256.813C50.6799 257.773 50.2693 258.506 49.9913 259.018C49.7134 259.529 49.5554 259.763 49.5554 259.763C49.5554 259.763 49.6881 259.498 49.9534 258.999C50.2188 258.499 50.6231 257.735 51.1348 256.768C52.1898 254.816 53.725 251.961 55.6834 248.322L72.0458 218.074V218.143C72.0458 201.869 72.0458 182.342 72.0458 161.355V157.615H98.6932V157.773C98.6932 179.29 98.649 197.845 98.6363 211.03C98.6363 217.612 98.5984 222.856 98.5858 226.463C98.5858 228.251 98.5858 229.622 98.5858 230.582C98.5858 231.044 98.5858 231.397 98.5858 231.644C98.5858 231.89 98.4847 232.048 98.4847 232.048Z" fill="#455A64"/>
<path d="M80.5814 227.746C80.6635 227.777 77.5047 235.087 73.5247 244.058C69.5446 253.029 66.2469 260.281 66.1648 260.243C66.0826 260.205 69.2414 252.902 73.2215 243.925C77.2015 234.948 80.4993 227.708 80.5814 227.746Z" fill="#455A64"/>
<path d="M131.273 239.939C131.273 239.939 131.273 239.818 131.273 239.585C131.273 239.351 131.273 238.991 131.273 238.542C131.273 237.614 131.242 236.268 131.223 234.537C131.223 231.062 131.115 226.034 130.995 219.817C130.761 207.384 130.199 190.22 129.511 171.261C128.822 152.302 128.298 135.118 128.121 122.685C128.026 116.469 127.982 111.434 128.001 107.959C128.001 106.228 128.001 104.882 128.001 103.954C128.001 103.505 128.001 103.164 128.001 102.911C128.001 102.659 128.001 102.557 128.001 102.557C128.001 102.557 128.001 102.677 128.001 102.911C128.001 103.145 128.001 103.505 128.001 103.954C128.001 104.882 128.001 106.228 128.051 107.959C128.051 111.434 128.152 116.462 128.279 122.679C128.55 135.112 129.113 152.295 129.801 171.248C130.49 190.201 131.014 207.378 131.191 219.811C131.286 226.027 131.324 231.062 131.311 234.537C131.311 236.268 131.311 237.614 131.311 238.542C131.311 238.991 131.311 239.338 131.311 239.585C131.311 239.831 131.273 239.939 131.273 239.939Z" fill="#455A64"/>
<path d="M94.4862 157.242C94.5809 157.242 94.6504 173.744 94.6504 194.092C94.6504 214.441 94.5809 230.942 94.4862 230.942C94.3914 230.942 94.3219 214.447 94.3219 194.092C94.3219 173.737 94.3977 157.242 94.4862 157.242Z" fill="#455A64"/>
<path d="M55.0076 253.306C54.8881 253.17 54.7823 253.022 54.6918 252.864C54.5844 252.713 54.4643 252.529 54.3254 252.321C54.1582 252.074 54.0063 251.816 53.8705 251.55C52.9442 249.879 52.2694 248.08 51.8678 246.212C51.2851 243.436 51.1528 240.584 51.4762 237.765C51.8715 234.315 52.7963 230.946 54.218 227.777C54.9701 226.141 55.9322 224.61 57.0798 223.222C57.3412 222.878 57.6217 222.549 57.92 222.237C58.2106 221.921 58.4886 221.605 58.7792 221.302C59.411 220.727 59.9606 220.139 60.586 219.64C61.7386 218.66 62.9658 217.771 64.2565 216.981C64.8883 216.64 65.4632 216.279 66.057 215.995C66.6509 215.711 67.2131 215.408 67.7817 215.205C69.5375 214.453 71.3931 213.959 73.2906 213.74C73.8034 213.67 74.3208 213.638 74.8384 213.645C75.0192 213.63 75.2009 213.63 75.3817 213.645C75.2041 213.675 75.0247 213.694 74.8447 213.702C74.3304 213.725 73.8179 213.778 73.3095 213.86C71.4338 214.126 69.6036 214.649 67.8701 215.414C67.3079 215.622 66.7646 215.938 66.1707 216.21C65.5769 216.482 65.0083 216.842 64.3955 217.208C63.1244 218 61.9163 218.89 60.7819 219.868C60.1501 220.361 59.6005 220.948 59.0003 221.517C58.716 221.814 58.4381 222.148 58.1538 222.439C57.8632 222.751 57.589 223.078 57.3325 223.418C56.2031 224.787 55.256 226.297 54.5149 227.91C53.107 231.046 52.1846 234.377 51.7794 237.791C51.444 240.578 51.5506 243.401 52.0953 246.155C52.477 248.01 53.1149 249.802 53.9905 251.481C54.1162 251.751 54.2597 252.013 54.4201 252.264L54.755 252.826C54.8498 252.981 54.9342 253.141 55.0076 253.306Z" fill="#455A64"/>
</svg>
