<svg width="266" height="266" viewBox="0 0 266 266" fill="none" xmlns="http://www.w3.org/2000/svg">
<path d="M266 265.176C266 265.262 206.533 265.336 133.194 265.336C59.8554 265.336 0.375732 265.28 0.375732 265.176C0.375732 265.071 59.8308 265.015 133.194 265.015C206.557 265.015 266 265.089 266 265.176Z" fill="#263238"/>
<path d="M97.4187 186.023C97.4187 186.023 79.8855 197.934 78.9238 225.738C78.6032 235.066 83.1838 264.763 83.1838 264.763L185.726 265.176L166.547 185.58L134.285 178.182L97.4187 186.023Z" fill="#EBF0FF"/>
<path d="M136.591 206.664L122.621 264.941L157.54 265.176L136.591 206.664Z" fill="#263238"/>
<path d="M136.061 194.044C136.171 194.674 136.233 195.311 136.246 195.949C136.326 197.232 136.425 198.81 136.536 200.561C136.647 202.312 136.708 203.995 136.733 205.172C136.775 205.811 136.76 206.453 136.69 207.089C136.58 206.46 136.518 205.823 136.505 205.185C136.425 203.908 136.326 202.324 136.215 200.579C136.104 198.835 136.042 197.145 136.024 195.962C135.979 195.323 135.991 194.681 136.061 194.044Z" fill="#263238"/>
<path d="M142.386 200.468C142.386 200.499 142.158 200.548 141.769 200.764C141.26 201.069 140.855 201.52 140.604 202.059C140.411 202.445 140.32 202.876 140.342 203.308C140.363 203.74 140.496 204.159 140.728 204.525C140.992 204.983 141.39 205.349 141.868 205.577C142.345 205.804 142.881 205.881 143.403 205.797C143.926 205.714 144.41 205.474 144.793 205.109C145.176 204.744 145.44 204.272 145.549 203.754C145.658 203.34 145.658 202.904 145.55 202.49C145.442 202.075 145.229 201.695 144.932 201.387C144.527 200.952 144.001 200.649 143.422 200.517C143.015 200.425 142.805 200.45 142.768 200.419C142.731 200.388 142.83 200.419 142.941 200.382C143.108 200.358 143.279 200.358 143.446 200.382C144.071 200.473 144.649 200.765 145.092 201.214C145.405 201.523 145.646 201.898 145.795 202.311C145.961 202.796 145.984 203.318 145.863 203.816C145.743 204.393 145.45 204.92 145.024 205.326C144.597 205.733 144.057 206 143.475 206.093C142.893 206.185 142.296 206.098 141.765 205.843C141.233 205.588 140.792 205.178 140.499 204.666C140.231 204.231 140.092 203.729 140.099 203.218C140.117 202.788 140.228 202.367 140.425 201.985C140.708 201.419 141.167 200.96 141.732 200.678C141.882 200.6 142.042 200.544 142.207 200.511C142.324 200.462 142.38 200.456 142.386 200.468Z" fill="#263238"/>
<path d="M153.563 232.285C153.563 232.285 153.335 232.372 152.947 232.581C152.44 232.888 152.036 233.338 151.788 233.876C151.594 234.263 151.504 234.693 151.525 235.125C151.547 235.557 151.68 235.977 151.911 236.342C152.176 236.8 152.573 237.167 153.051 237.394C153.529 237.621 154.064 237.698 154.587 237.615C155.109 237.531 155.594 237.291 155.977 236.927C156.36 236.562 156.623 236.089 156.732 235.571C156.84 235.157 156.841 234.722 156.733 234.307C156.625 233.893 156.412 233.513 156.116 233.204C155.713 232.77 155.189 232.467 154.611 232.335C154.198 232.242 153.958 232.267 153.958 232.236C154.012 232.212 154.071 232.199 154.13 232.199C154.296 232.178 154.464 232.178 154.63 232.199C155.257 232.292 155.837 232.586 156.282 233.038C156.594 233.343 156.833 233.717 156.979 234.129C157.15 234.612 157.174 235.136 157.046 235.633C156.931 236.213 156.641 236.743 156.215 237.153C155.789 237.563 155.248 237.832 154.664 237.925C154.08 238.017 153.482 237.929 152.95 237.671C152.419 237.414 151.978 236.999 151.689 236.484C151.415 236.051 151.275 235.547 151.288 235.035C151.304 234.605 151.415 234.183 151.615 233.802C151.898 233.236 152.356 232.777 152.922 232.495C153.072 232.419 153.232 232.363 153.397 232.329C153.45 232.307 153.506 232.292 153.563 232.285Z" fill="#263238"/>
<path d="M117.307 209.179C117.243 209.277 117.168 209.368 117.085 209.45C116.937 209.623 116.715 209.876 116.413 210.19C115.548 211.073 114.626 211.896 113.651 212.656C110.406 215.144 106.663 216.904 102.677 217.816C100.489 218.341 98.2328 218.524 95.9885 218.359C94.1375 218.225 92.359 217.585 90.8469 216.509C89.837 215.772 89.0257 214.795 88.4857 213.667C88.35 213.36 88.2387 213.042 88.1528 212.718C88.118 212.606 88.0993 212.49 88.0973 212.372C88.1281 212.372 88.2206 212.841 88.6028 213.605C89.169 214.684 89.9849 215.612 90.9825 216.312C92.4724 217.336 94.2094 217.943 96.0131 218.069C98.2279 218.209 100.451 218.018 102.61 217.502C106.554 216.598 110.268 214.885 113.515 212.471C114.494 211.737 115.43 210.949 116.321 210.11L117.042 209.413C117.208 209.247 117.295 209.179 117.307 209.179Z" fill="#263238"/>
<path d="M117.307 214.95C117.243 215.048 117.168 215.139 117.085 215.221C116.937 215.394 116.715 215.653 116.413 215.967C112.663 219.775 107.894 222.419 102.677 223.581C100.489 224.108 98.2331 224.293 95.9885 224.129C94.1381 223.993 92.3603 223.353 90.8469 222.28C89.8362 221.546 89.0246 220.571 88.4857 219.444C88.3489 219.135 88.2376 218.815 88.1528 218.488C88.1174 218.377 88.0987 218.26 88.0973 218.143C88.1281 218.143 88.2206 218.612 88.6028 219.376C89.1686 220.457 89.9845 221.387 90.9825 222.089C92.473 223.111 94.21 223.716 96.0131 223.84C98.228 223.983 100.452 223.792 102.61 223.272C106.553 222.368 110.266 220.657 113.515 218.248C114.494 217.512 115.431 216.722 116.321 215.881L117.042 215.184C117.121 215.096 117.21 215.017 117.307 214.95Z" fill="#263238"/>
<path d="M118.213 213.205C118.235 213.285 118.25 213.368 118.257 213.451C118.257 213.63 118.3 213.877 118.337 214.185C118.411 214.851 118.515 215.8 118.645 217.015C118.904 219.481 119.397 223.013 119.619 227.433C119.746 229.844 119.694 232.262 119.465 234.665C119.212 237.434 118.59 240.156 117.615 242.76C116.54 245.655 114.837 248.277 112.628 250.435C111.455 251.57 110.137 252.545 108.707 253.333C107.228 254.138 105.629 254.702 103.972 255.003C100.668 255.54 97.2789 254.913 94.3857 253.228C91.6876 251.699 89.4138 249.52 87.7707 246.89C86.3218 244.513 85.28 241.91 84.6882 239.19C84.1613 236.825 83.8763 234.412 83.8374 231.989C83.8243 228.497 84.0716 225.008 84.5772 221.552C84.756 220.319 84.8916 219.394 84.9841 218.735C85.0334 218.426 85.0766 218.186 85.1012 218.001C85.1126 217.917 85.1312 217.835 85.1567 217.754C85.1649 217.839 85.1649 217.923 85.1567 218.007C85.1567 218.192 85.1074 218.433 85.0704 218.741C84.9903 219.407 84.8731 220.356 84.719 221.564C84.2683 225.019 84.0623 228.5 84.1025 231.983C84.1545 234.384 84.4477 236.774 84.9779 239.116C85.5792 241.801 86.6208 244.367 88.0604 246.711C89.6709 249.299 91.9024 251.444 94.5521 252.95C97.3823 254.598 100.697 255.21 103.929 254.683C105.553 254.393 107.119 253.841 108.565 253.049C109.972 252.277 111.27 251.321 112.424 250.207C114.605 248.084 116.29 245.505 117.356 242.655C118.326 240.077 118.948 237.382 119.206 234.64C119.447 232.25 119.51 229.845 119.397 227.446C119.206 223.038 118.781 219.487 118.528 217.027C118.404 215.794 118.324 214.838 118.275 214.191C118.275 213.883 118.238 213.636 118.226 213.451C118.213 213.266 118.213 213.205 118.213 213.205Z" fill="#263238"/>
<g opacity="0.2">
<path opacity="0.2" d="M86.1306 243.74C87.2403 247.501 87.715 248.475 89.7926 251.477C91.7111 254.322 94.5188 256.451 97.7762 257.531C100.105 258.335 102.601 258.53 105.026 258.099C107.452 257.667 109.727 256.623 111.635 255.065C115.402 251.915 116.734 247.051 117.387 243.752C115.747 245.959 114.002 249.097 111.937 250.916C109.872 252.735 107.141 254.325 104.416 254.8C100.717 255.416 96.3089 254.307 93.1463 252.297C89.9837 250.287 88.0725 246.687 86.1121 243.746" fill="black"/>
</g>
<g opacity="0.2">
<path opacity="0.2" d="M88.7694 219.826C89.4726 221.394 90.5466 222.767 91.8988 223.827C93.251 224.887 94.8408 225.602 96.5311 225.911C99.8664 226.527 104.188 225.473 106.272 222.341C98.9355 224.918 91.6423 224.98 88.7694 219.826Z" fill="black"/>
</g>
<path d="M149.057 210.733C148.9 210.76 148.739 210.76 148.582 210.733C148.165 210.675 147.752 210.584 147.349 210.461C144.602 209.646 142.246 207.858 140.722 205.431C140.49 205.068 140.283 204.689 140.105 204.296C139.988 204.013 139.933 203.859 139.957 203.846C139.982 203.834 140.29 204.426 140.895 205.307C141.69 206.444 142.655 207.453 143.755 208.298C144.864 209.132 146.095 209.789 147.405 210.246C148.41 210.56 149.063 210.677 149.057 210.733Z" fill="#263238"/>
<g opacity="0.2">
<path opacity="0.2" d="M140.524 204.247C141.282 206.824 144.143 209.229 146.689 210.073C147.187 210.259 147.719 210.336 148.249 210.301C148.514 210.283 148.772 210.207 149.004 210.078C149.236 209.949 149.437 209.77 149.593 209.555C150.129 208.735 149.667 207.57 148.878 206.991C148.038 206.479 147.102 206.145 146.128 206.01C144.162 205.554 142.386 206.547 140.758 204.895" fill="black"/>
</g>
<g opacity="0.2">
<path opacity="0.2" d="M86.0012 199.475C90.6003 203.495 97.0982 203.668 102.949 201.941C108.799 200.215 113.898 196.966 118.867 193.415C113.448 194.494 108.824 196.966 103.356 197.774C98.1339 198.545 92.7025 198.625 87.5671 196.88" fill="black"/>
</g>
<path d="M174.197 261.224C174.163 261.254 174.123 261.277 174.08 261.292C173.963 261.355 173.841 261.41 173.717 261.458C173.237 261.652 172.733 261.776 172.218 261.828C170.311 261.986 168.409 261.476 166.836 260.386C164.79 259.085 162.928 256.896 160.937 254.467C158.8 251.801 156.881 248.969 155.197 245.996C152.141 240.589 149.801 234.807 148.237 228.796C147.62 226.49 147.263 224.604 147.034 223.291C146.936 222.674 146.856 222.15 146.794 221.78C146.764 221.605 146.743 221.428 146.732 221.25C146.792 221.418 146.835 221.592 146.862 221.768L147.158 223.266C147.423 224.567 147.836 226.447 148.452 228.735C150.077 234.704 152.435 240.448 155.474 245.836C157.153 248.794 159.057 251.618 161.171 254.282C163.137 256.711 164.975 258.9 166.96 260.194C168.494 261.283 170.353 261.816 172.231 261.705C172.905 261.635 173.567 261.473 174.197 261.224Z" fill="#263238"/>
<g opacity="0.2">
<path opacity="0.2" d="M152.028 238.475C152.028 238.475 161.128 249.917 167.767 252.722C170.018 253.678 172.496 254.455 174.031 256.353C174.415 256.788 174.699 257.301 174.864 257.857C175.029 258.413 175.071 258.998 174.987 259.572C174.961 259.707 174.92 259.84 174.863 259.966C173.908 262.401 169.315 262.062 167.213 260.521C166.294 259.849 166.836 260.281 166.097 259.726C163.97 258.123 152.583 244.936 152.028 238.475Z" fill="black"/>
</g>
<path d="M111.857 84.0425L117.665 82.8896L146.387 83.2287L160.98 86.4345L166.547 167.923L102.03 170.938L111.857 84.0425Z" fill="#E0E0E0"/>
<path d="M153.637 164.175L155.012 127.111L152.725 84.1349C161.8 86.4714 174.21 89.0669 181.084 96.9026C185.541 101.989 189.912 108.493 191.564 118.967C193.463 131.297 195.966 154.878 197.532 168.071" fill="#EBF0FF"/>
<path d="M162.761 158.096L118.158 165.34L116.579 137.795L114.113 83.3398C101.167 83.87 86.4327 94.5663 82.0124 102.901C78.9299 108.684 76.3468 115.404 75.5392 121.908C73.9918 134.238 71.3717 155.365 69.8058 168.564C69.3321 172.576 69.7581 176.643 71.0527 180.469C72.3473 184.295 74.478 187.785 77.29 190.684C83.7633 197.361 93.8985 199.673 103.01 197.786L170.924 178.675L162.761 158.096Z" fill="#EBF0FF"/>
<path d="M158.051 157.603C158.055 157.55 158.065 157.499 158.082 157.449C158.119 157.338 158.162 157.19 158.212 157.005C158.341 156.592 158.514 156.018 158.742 155.285C159.223 153.768 159.907 151.586 160.758 148.886L167.755 127.037L167.847 127.228L160.616 124.238L160.332 124.121L160.585 123.954L162.256 122.857L167.712 119.294L167.65 119.466C164.876 109.837 162.435 101.341 160.678 95.2318C159.821 92.1986 159.13 89.7573 158.643 88.0557C158.421 87.2235 158.242 86.5761 158.113 86.1138C158.059 85.9124 158.016 85.7459 157.983 85.6144C157.963 85.5588 157.951 85.5007 157.946 85.4418C157.946 85.4418 157.946 85.4911 158.008 85.6021L158.168 86.1014C158.31 86.5576 158.507 87.1988 158.754 88.0249L160.881 95.1701L167.952 119.38L167.983 119.491L167.884 119.559L162.435 123.128L160.764 124.219V123.936L167.989 126.938L168.125 126.994L168.082 127.129C165.233 135.877 162.749 143.491 160.973 148.947C160.08 151.647 159.371 153.811 158.871 155.316C158.625 156.043 158.427 156.616 158.292 157.023C158.23 157.202 158.175 157.344 158.138 157.461C158.114 157.511 158.085 157.559 158.051 157.603Z" fill="#263238"/>
<g opacity="0.2">
<path opacity="0.2" d="M167.915 119.516C167.551 120.853 166.764 122.036 165.671 122.888C164.821 123.375 165.308 124.022 166.01 124.7C166.855 125.514 168.211 125.736 168.834 126.723C169.457 127.709 169.105 128.837 168.785 129.873C165.696 139.699 161.948 149.305 157.564 158.626L167.915 127.08L160.696 124.102L167.915 119.516Z" fill="black"/>
</g>
<path d="M114.447 158.368C114.416 158.328 114.391 158.285 114.373 158.238C114.329 158.14 114.268 158.016 114.2 157.856L113.534 156.352C112.955 155.02 112.129 153.103 111.068 150.711L102.752 131.217L102.702 131.106L102.807 131.032L108.51 126.951V127.185L104.731 124.189L103.054 122.87L102.221 122.253L102.018 122.087C101.975 122.056 101.936 122.021 101.901 121.982C101.861 121.931 101.832 121.872 101.815 121.809C101.769 121.626 101.746 121.437 101.747 121.248C101.785 119.869 101.912 118.493 102.129 117.13C102.505 114.461 102.949 111.896 103.362 109.455C104.237 104.578 105.107 100.207 105.828 96.5082C106.549 92.8092 107.197 89.8685 107.634 87.8217C107.856 86.8107 108.035 86.0216 108.158 85.4606L108.3 84.8441C108.311 84.7736 108.331 84.7051 108.362 84.6406C108.358 84.7134 108.348 84.7856 108.331 84.8564C108.331 85.0105 108.263 85.214 108.22 85.4729C108.109 86.036 107.955 86.8251 107.758 87.8402C107.351 89.9117 106.771 92.8832 106.056 96.5452C105.341 100.207 104.502 104.603 103.639 109.492C103.214 111.927 102.776 114.491 102.406 117.155C102.194 118.502 102.068 119.861 102.03 121.224C102.029 121.382 102.047 121.539 102.086 121.692C102.086 121.766 102.265 121.877 102.394 121.988L103.22 122.642L104.891 123.967L108.664 126.957L108.83 127.093L108.658 127.216L102.949 131.285L102.998 131.094L111.265 150.612C112.27 153.023 113.072 154.928 113.627 156.29C113.892 156.937 114.101 157.443 114.243 157.813L114.391 158.207C114.414 158.259 114.433 158.313 114.447 158.368Z" fill="#263238"/>
<path d="M168.376 131.62L123.435 124.686C122.624 124.561 121.865 125.117 121.74 125.928L112.047 188.758C111.922 189.569 112.478 190.328 113.289 190.453L158.23 197.386C159.041 197.512 159.8 196.956 159.925 196.145L169.618 133.315C169.743 132.504 169.187 131.745 168.376 131.62Z" fill="#EBF0FF"/>
<g opacity="0.2">
<path opacity="0.2" d="M168.376 131.62L123.435 124.686C122.624 124.561 121.865 125.117 121.74 125.928L112.047 188.758C111.922 189.569 112.478 190.328 113.289 190.453L158.23 197.386C159.041 197.512 159.8 196.956 159.925 196.145L169.618 133.315C169.743 132.504 169.187 131.745 168.376 131.62Z" fill="black"/>
</g>
<path d="M166.958 132.832L124.423 126.27L114.978 187.491L157.513 194.053L166.958 132.832Z" fill="#EBEBEB"/>
<path d="M154.18 131.827C153.878 130.895 153.323 130.066 152.578 129.431C151.832 128.797 150.925 128.382 149.957 128.233L150.314 125.613C150.46 124.664 150.222 123.696 149.655 122.922C149.087 122.147 148.236 121.63 147.287 121.482C146.337 121.335 145.368 121.572 144.592 122.139C143.816 122.707 143.298 123.559 143.151 124.509L142.731 127.222L141.819 127.099C140.862 126.966 139.886 127.099 139 127.484C138.114 127.869 137.351 128.491 136.794 129.281L136.085 130.267L154.58 133.128L154.18 131.827ZM146.535 127.043C146.154 126.985 145.799 126.815 145.514 126.555C145.23 126.295 145.029 125.956 144.937 125.581C144.845 125.207 144.867 124.814 144.998 124.452C145.13 124.089 145.366 123.774 145.677 123.546C145.988 123.318 146.36 123.188 146.745 123.171C147.13 123.154 147.511 123.252 147.841 123.452C148.17 123.652 148.433 123.946 148.596 124.295C148.758 124.645 148.814 125.035 148.755 125.416C148.674 125.925 148.396 126.381 147.98 126.686C147.564 126.991 147.045 127.119 146.535 127.043Z" fill="#263238"/>
<path d="M138.835 137.388C136.891 137.254 134.957 137.011 133.04 136.661C131.109 136.414 129.193 136.064 127.3 135.613C129.242 135.747 131.175 135.99 133.089 136.34C135.022 136.586 136.94 136.936 138.835 137.388Z" fill="#263238"/>
<path d="M132.559 138.411C131.617 138.432 130.675 138.341 129.754 138.14C128.816 138.05 127.892 137.853 126.998 137.554C127.94 137.541 128.881 137.632 129.803 137.826C130.741 137.916 131.666 138.113 132.559 138.411Z" fill="#263238"/>
<path d="M158.816 148.016C158.816 148.103 151.603 147.061 142.744 145.698C133.885 144.336 126.715 143.146 126.715 143.06C126.715 142.974 133.922 144.009 142.787 145.378C151.652 146.747 158.828 147.924 158.816 148.016Z" fill="#263238"/>
<path d="M158.341 151.074C158.341 151.161 151.134 150.125 142.269 148.756C133.404 147.388 126.24 146.21 126.24 146.124C126.24 146.037 133.447 147.073 142.312 148.442C151.177 149.81 158.353 150.988 158.341 151.074Z" fill="#263238"/>
<path d="M157.873 154.138C157.873 154.225 150.66 153.183 141.8 151.82C132.941 150.458 125.771 149.268 125.771 149.182C125.771 149.095 132.985 150.131 141.85 151.5C150.715 152.868 157.885 154.046 157.873 154.138Z" fill="#263238"/>
<path d="M157.398 157.196C157.398 157.282 150.191 156.246 141.326 154.878C132.461 153.509 125.297 152.332 125.297 152.239C125.297 152.147 132.504 153.195 141.369 154.563C150.234 155.932 157.435 157.11 157.398 157.196Z" fill="#263238"/>
<path d="M156.923 160.254C156.923 160.346 149.716 159.304 140.851 157.936C131.986 156.567 124.822 155.39 124.822 155.303C124.822 155.217 132.029 156.253 140.894 157.621C149.759 158.99 156.942 160.168 156.923 160.254Z" fill="#263238"/>
<path d="M156.455 163.318C156.455 163.404 149.242 162.368 140.383 161C131.524 159.631 124.354 158.454 124.354 158.361C124.354 158.269 131.561 159.311 140.426 160.679C149.291 162.048 156.467 163.232 156.455 163.318Z" fill="#263238"/>
<path d="M139.982 163.601C139.776 163.612 139.569 163.6 139.365 163.564C138.952 163.521 138.367 163.447 137.639 163.349C136.178 163.151 134.168 162.862 131.955 162.523C129.742 162.183 127.738 161.851 126.289 161.598C125.562 161.475 124.982 161.364 124.576 161.283C124.364 161.258 124.156 161.204 123.959 161.123C124.165 161.109 124.373 161.121 124.576 161.16C124.989 161.203 125.574 161.277 126.302 161.376C127.763 161.567 129.773 161.863 131.986 162.202C134.199 162.541 136.203 162.874 137.652 163.127C138.379 163.25 138.958 163.361 139.365 163.441C139.577 163.466 139.785 163.52 139.982 163.601Z" fill="#263238"/>
<path d="M161.387 140.588C160.515 140.614 159.643 140.533 158.791 140.347C157.923 140.268 157.068 140.082 156.245 139.792C157.985 139.847 159.712 140.114 161.387 140.588Z" fill="#263238"/>
<path d="M131.653 169.144C130.245 169.087 128.844 168.925 127.461 168.657C126.061 168.496 124.676 168.228 123.318 167.855C124.726 167.912 126.127 168.074 127.51 168.342C128.909 168.505 130.294 168.773 131.653 169.144Z" fill="#263238"/>
<path d="M131.505 171.967C130.073 171.906 128.647 171.739 127.239 171.468C125.816 171.307 124.408 171.035 123.028 170.654C124.458 170.715 125.882 170.882 127.288 171.153C128.713 171.314 130.123 171.586 131.505 171.967Z" fill="#263238"/>
<path d="M155.894 172.46C154.528 172.465 153.17 172.257 151.868 171.844C152.552 171.79 153.24 171.84 153.909 171.992C154.591 172.039 155.262 172.198 155.894 172.46Z" fill="#263238"/>
<path d="M155.647 174.982C154.281 174.987 152.923 174.779 151.621 174.366C152.987 174.361 154.345 174.569 155.647 174.982Z" fill="#263238"/>
<path d="M127.165 174.285C126.504 174.34 125.838 174.292 125.192 174.144C124.532 174.094 123.885 173.938 123.275 173.681C123.934 173.623 124.598 173.67 125.241 173.823C125.904 173.87 126.553 174.027 127.165 174.285Z" fill="#263238"/>
<path d="M155.339 177.923C154.844 178.004 154.338 177.981 153.853 177.855C153.353 177.83 152.863 177.7 152.417 177.473C152.91 177.384 153.418 177.405 153.902 177.534C154.403 177.56 154.893 177.692 155.339 177.923Z" fill="#263238"/>
<path d="M121.998 180.234C122.24 180.213 122.484 180.213 122.726 180.234L124.773 180.296L132.084 180.586H132.251L132.214 180.746C132.031 181.539 131.577 182.243 130.931 182.737C130.589 183.011 130.19 183.203 129.763 183.301C129.336 183.398 128.892 183.397 128.465 183.298C128.01 183.193 127.587 182.978 127.234 182.671C126.88 182.365 126.607 181.977 126.437 181.541C126.282 181.073 126.27 180.569 126.404 180.094C126.539 179.62 126.812 179.196 127.189 178.878C127.466 178.628 127.801 178.45 128.163 178.36C128.254 178.337 128.347 178.322 128.441 178.317C128.541 178.305 128.643 178.305 128.743 178.317C128.81 178.328 128.874 178.355 128.929 178.396C128.983 178.437 129.028 178.49 129.057 178.551C129.098 178.657 129.111 178.772 129.094 178.884C129.013 179.574 128.784 180.239 128.422 180.832C128.071 181.401 127.607 181.891 127.06 182.275C126.526 182.675 125.877 182.892 125.21 182.892C124.889 182.869 124.58 182.757 124.319 182.569C124.057 182.38 123.854 182.123 123.731 181.825C123.495 181.282 123.451 180.676 123.607 180.105C123.973 179.154 124.565 178.307 125.334 177.639L125.5 177.473V177.707C125.599 178.557 125.435 179.418 125.032 180.173C124.731 180.744 124.311 181.242 123.799 181.634C123.48 181.881 123.124 182.077 122.744 182.213C122.614 182.265 122.477 182.298 122.337 182.312C122.839 182.129 123.307 181.867 123.725 181.535C124.2 181.138 124.589 180.647 124.865 180.093C125.236 179.363 125.376 178.537 125.266 177.725L125.463 177.787C124.734 178.441 124.173 179.262 123.829 180.179C123.695 180.69 123.738 181.231 123.953 181.714C124.055 181.962 124.225 182.177 124.443 182.333C124.661 182.49 124.918 182.583 125.186 182.602C125.775 182.596 126.346 182.399 126.813 182.041C127.335 181.676 127.773 181.205 128.099 180.659C128.425 180.113 128.632 179.504 128.706 178.872C128.72 178.817 128.72 178.76 128.706 178.706C128.706 178.675 128.706 178.662 128.62 178.65C128.47 178.642 128.321 178.656 128.176 178.693C127.865 178.772 127.577 178.924 127.337 179.137C127.011 179.415 126.775 179.784 126.657 180.196C126.54 180.609 126.547 181.047 126.678 181.455C126.826 181.831 127.061 182.167 127.363 182.435C127.665 182.703 128.026 182.897 128.416 183C128.807 183.103 129.216 183.113 129.611 183.029C130.007 182.945 130.376 182.769 130.691 182.515C131.287 182.069 131.708 181.428 131.881 180.703L132.01 180.869L124.76 180.444L122.714 180.308C122.474 180.299 122.235 180.274 121.998 180.234Z" fill="#263238"/>
<path d="M152.466 184.828C152.368 184.968 152.249 185.092 152.114 185.197C151.956 185.333 151.78 185.445 151.59 185.53C151.324 185.648 151.023 185.664 150.746 185.573C150.571 185.52 150.419 185.409 150.314 185.259C150.21 185.096 150.151 184.909 150.142 184.717C150.147 184.323 150.176 183.929 150.228 183.539C150.308 182.701 150.401 181.782 150.499 180.789L150.764 180.894L148.409 184.082L147.824 184.871L147.441 185.389L147.534 184.772C147.787 183.126 148.015 181.591 148.218 180.241L148.446 180.364C147.485 181.175 146.633 182.107 145.912 183.138C145.395 183.884 145.148 184.371 145.117 184.334C145.147 184.211 145.195 184.093 145.259 183.983C145.417 183.664 145.592 183.353 145.783 183.052C146.46 181.971 147.29 180.995 148.249 180.155L148.526 179.914L148.471 180.284C148.286 181.628 148.064 183.169 147.854 184.821L147.565 184.698L148.181 183.909C149.02 182.787 149.815 181.714 150.555 180.734L150.881 180.29L150.82 180.839C150.703 181.831 150.598 182.75 150.499 183.582C150.442 183.96 150.405 184.341 150.388 184.723C150.378 184.871 150.416 185.019 150.496 185.144C150.576 185.269 150.694 185.366 150.832 185.419C151.045 185.477 151.269 185.481 151.484 185.432C151.699 185.382 151.899 185.281 152.065 185.136C152.19 185.022 152.324 184.919 152.466 184.828Z" fill="#263238"/>
<path d="M153.551 183.151C151.539 183.3 149.52 183.343 147.503 183.28C145.487 183.325 143.471 183.263 141.461 183.095C143.471 182.942 145.488 182.896 147.503 182.959C149.521 182.915 151.54 182.979 153.551 183.151Z" fill="#263238"/>
<path d="M155.518 185.068C153.923 185.4 152.308 185.628 150.684 185.752C149.072 185.979 147.448 186.103 145.82 186.122C147.413 185.781 149.028 185.551 150.653 185.432C152.265 185.201 153.89 185.079 155.518 185.068Z" fill="#263238"/>
<g opacity="0.2">
<path opacity="0.2" d="M101.907 121.593C101.833 123.443 102.332 125.329 103.874 126.371C101.944 127.308 100.914 129.552 100.853 131.698C100.791 133.843 101.537 135.927 102.345 137.918C104.842 144.04 110.168 152.659 114.231 157.874C114.231 157.874 112.172 152.326 111.58 151.025C108.904 145.174 106.543 139.312 103.861 133.442C103.565 132.826 103.035 131.026 103.035 131.026C103.327 130.882 103.597 130.697 103.837 130.477C105.341 129.244 108.602 127.08 108.602 127.08C108.602 127.08 101.907 121.778 101.907 121.593Z" fill="black"/>
</g>
<path d="M101.815 134.17C101.901 134.17 101.747 141.29 101.463 150.063C101.18 158.836 100.884 165.95 100.797 165.944C100.711 165.938 100.859 158.83 101.143 150.051C101.426 141.272 101.722 134.164 101.815 134.17Z" fill="#263238"/>
<path d="M112.431 115.472H111.814C111.814 115.237 112.708 91.9154 113.405 82.6309C113.427 81.9793 113.583 81.3392 113.862 80.7498C114.141 80.1604 114.537 79.6341 115.026 79.2032C116.95 77.5571 119.829 77.7729 119.958 77.7791L119.909 78.3956C119.878 78.3956 117.159 78.1983 115.433 79.6717C115.007 80.0519 114.662 80.5144 114.419 81.0315C114.177 81.5485 114.041 82.1094 114.021 82.6802C113.343 91.8969 112.461 115.213 112.431 115.472Z" fill="#263238"/>
<path d="M118.207 154.483H117.116V153.25H118.207C119.352 153.25 120.449 152.796 121.259 151.986C122.068 151.177 122.523 150.08 122.523 148.935V135.878H123.756V148.935C123.756 150.407 123.171 151.818 122.13 152.858C121.09 153.899 119.679 154.483 118.207 154.483Z" fill="#455A64"/>
<path d="M118.651 154.015C118.625 154.276 118.523 154.523 118.357 154.726C118.19 154.929 117.968 155.078 117.717 155.154C117.466 155.23 117.198 155.23 116.947 155.154C116.697 155.078 116.474 154.929 116.308 154.727C116.141 154.524 116.039 154.277 116.013 154.016C115.987 153.755 116.039 153.492 116.163 153.261C116.286 153.03 116.475 152.84 116.706 152.717C116.938 152.593 117.2 152.541 117.461 152.566C117.81 152.602 118.131 152.774 118.354 153.046C118.577 153.317 118.684 153.665 118.651 154.015Z" fill="#263238"/>
<path d="M107.542 154.452H106.45C104.979 154.452 103.568 153.868 102.527 152.827C101.487 151.787 100.902 150.376 100.902 148.904L100.951 135.847H102.184L102.135 148.904C102.135 150.049 102.59 151.146 103.399 151.955C104.208 152.765 105.306 153.219 106.45 153.219H107.542V154.452Z" fill="#455A64"/>
<path d="M106.013 153.978C106.038 154.237 106.14 154.483 106.305 154.685C106.471 154.887 106.692 155.035 106.941 155.111C107.191 155.187 107.457 155.187 107.706 155.112C107.956 155.037 108.178 154.889 108.344 154.688C108.51 154.487 108.612 154.241 108.638 153.982C108.665 153.723 108.614 153.461 108.492 153.231C108.37 153.001 108.182 152.812 107.953 152.688C107.723 152.564 107.462 152.511 107.203 152.535C107.03 152.552 106.862 152.602 106.708 152.683C106.555 152.764 106.419 152.875 106.308 153.009C106.198 153.143 106.115 153.298 106.064 153.464C106.013 153.63 105.996 153.805 106.013 153.978Z" fill="#263238"/>
<path d="M100.588 137.351L100.433 128.042C100.316 120.946 105.501 115.095 111.993 114.978C113.574 114.964 115.14 115.283 116.59 115.914C118.04 116.545 119.341 117.474 120.408 118.64C122.676 121.094 123.949 124.306 123.978 127.647L124.132 136.963L122.282 136.994L122.128 127.678C122.106 124.793 121.006 122.021 119.046 119.904C118.157 118.923 117.071 118.141 115.859 117.609C114.646 117.078 113.335 116.809 112.011 116.822C106.537 116.914 102.147 121.926 102.271 128.005L102.425 137.314L100.588 137.351Z" fill="#263238"/>
<path d="M153.249 115.817C153.249 115.57 150.419 91.3357 149.605 83.5678L149.55 83.0006C149.297 80.362 149.001 77.3781 146.085 76.589L146.245 75.9725C149.574 76.8726 149.901 80.2264 150.166 82.9205L150.222 83.4815C151.029 91.2493 153.834 115.484 153.859 115.73L153.249 115.817Z" fill="#263238"/>
<path d="M158.237 116.341C160.82 113.758 160.82 109.569 158.237 106.986C155.654 104.403 151.465 104.403 148.882 106.986C146.299 109.569 146.299 113.758 148.882 116.341C151.465 118.924 155.654 118.924 158.237 116.341Z" fill="#263238"/>
<path d="M156.751 111.662C156.751 112.295 156.563 112.914 156.211 113.44C155.859 113.966 155.359 114.376 154.774 114.618C154.189 114.86 153.545 114.923 152.924 114.799C152.304 114.675 151.734 114.37 151.286 113.922C150.839 113.474 150.535 112.903 150.412 112.282C150.289 111.661 150.354 111.017 150.597 110.433C150.84 109.848 151.251 109.349 151.778 108.998C152.305 108.647 152.924 108.461 153.557 108.462C153.977 108.462 154.393 108.545 154.781 108.706C155.168 108.866 155.521 109.102 155.817 109.399C156.114 109.697 156.349 110.049 156.509 110.438C156.669 110.826 156.751 111.242 156.751 111.662Z" fill="#455A64"/>
<path d="M114.446 158.367L106.142 178.792L172.385 197.157C175.413 198.001 178.591 198.162 181.689 197.629C184.787 197.096 187.728 195.882 190.3 194.075C197.23 189.186 198.931 180.635 198.087 172.171L196.891 163.17L114.446 158.367Z" fill="#EBF0FF"/>
<path d="M184.628 180.537C184.561 180.537 184.419 179.144 183.735 176.992C183.559 176.404 183.353 175.826 183.118 175.26C182.884 174.643 182.557 174.027 182.23 173.336C181.47 171.909 180.576 170.557 179.561 169.298C178.527 168.055 177.38 166.912 176.133 165.883C175.517 165.433 174.986 164.983 174.425 164.65C173.918 164.3 173.394 163.977 172.853 163.682C170.881 162.591 169.53 162.171 169.555 162.104C169.878 162.17 170.194 162.267 170.498 162.393C170.866 162.513 171.227 162.655 171.577 162.819C171.99 163.01 172.471 163.201 172.964 163.484C173.518 163.768 174.055 164.083 174.573 164.428C175.147 164.773 175.714 165.223 176.318 165.661C177.593 166.69 178.764 167.843 179.814 169.101C180.84 170.377 181.736 171.752 182.489 173.207C182.816 173.891 183.137 174.532 183.365 175.167C183.604 175.742 183.81 176.331 183.981 176.93C184.136 177.42 184.262 177.918 184.357 178.422C184.455 178.805 184.523 179.194 184.561 179.587C184.612 179.901 184.635 180.219 184.628 180.537Z" fill="#263238"/>
<g opacity="0.2">
<path opacity="0.2" d="M104.663 167.06C99.6073 167.479 95.7049 167.942 90.4832 168.583C87.2219 168.984 83.8374 168.755 82.7708 165.654C81.7043 162.553 82.3825 159.002 84.1333 156.222C85.8842 153.442 88.6337 146.975 103.356 151.907L104.663 167.06Z" fill="black"/>
</g>
<path d="M111.481 166.166L111.518 166.03L111.66 165.624L112.215 164.07L114.342 158.33L114.372 158.25H114.452L136.985 160.291L158.785 162.362L165.388 163.022L167.182 163.219L167.644 163.281C167.699 163.282 167.753 163.293 167.804 163.312H167.644H167.175L165.375 163.176L158.76 162.609L136.955 160.636L114.434 158.497L114.545 158.423L112.326 164.132L111.709 165.661L111.543 166.055C111.512 166.129 111.487 166.172 111.481 166.166Z" fill="#263238"/>
<g opacity="0.2">
<path opacity="0.2" d="M138.737 187.232C148.144 189.753 153.865 188.292 162.41 183.619C164.161 182.593 165.841 181.452 167.441 180.204C168.659 179.208 169.743 178.057 170.665 176.782C159.661 180.993 150.518 184.18 139.174 187.349" fill="black"/>
</g>
<path d="M111.512 165.944L113.663 159.933L108.664 152.116C108.231 151.439 107.664 150.857 106.998 150.406C106.333 149.956 105.582 149.646 104.792 149.496L86.3957 146.025C86.1669 146.714 86.1987 147.463 86.485 148.13C86.7713 148.797 87.2923 149.335 87.9493 149.644C90.3598 151.019 101.204 153.54 101.204 153.54L84.5031 153.257C84.5031 153.257 83.9852 155.667 85.8779 156.53C87.7705 157.393 99.6689 157.831 99.6689 157.831L84.4353 159.976C84.4353 159.976 84.3489 162.393 87.8322 162.442C91.2625 162.401 94.6885 162.185 98.0969 161.795C98.2379 161.775 98.3811 161.811 98.4962 161.895C98.6112 161.979 98.6891 162.105 98.7134 162.245C98.7342 162.381 98.7033 162.52 98.6269 162.634C98.5504 162.748 98.4338 162.829 98.3003 162.862L88.1712 165.254C87.8794 165.319 87.6175 165.48 87.4262 165.71C87.235 165.94 87.1252 166.227 87.114 166.526C87.1027 166.825 87.1906 167.119 87.364 167.363C87.5374 167.607 87.7865 167.786 88.0726 167.874C88.2561 167.918 88.4459 167.93 88.6336 167.911C90.3598 167.738 100.668 166.431 100.668 166.431L101.204 167.633L111.512 165.956" fill="#B78876"/>
<path d="M103.948 164.089C103.807 163.757 103.616 163.449 103.38 163.176C103.108 162.898 102.774 162.687 102.406 162.56C101.952 162.421 101.475 162.368 101.001 162.405C99.9773 162.479 99.0525 162.775 98.362 162.862C97.9893 162.952 97.6004 162.952 97.2277 162.862C97.5864 162.76 97.9507 162.68 98.3189 162.621C99.1899 162.364 100.081 162.178 100.982 162.066C101.5 162.026 102.021 162.093 102.511 162.264C102.91 162.418 103.266 162.668 103.547 162.991C103.695 163.13 103.808 163.302 103.877 163.492C103.947 163.683 103.971 163.887 103.948 164.089Z" fill="#AA6550"/>
<path d="M105.612 159.508C105.581 159.508 105.563 159.342 105.427 159.076C105.227 158.709 104.922 158.408 104.552 158.213C103.621 157.671 102.049 157.85 100.396 157.961C98.7441 158.072 97.2275 158.318 96.1363 158.46C95.5508 158.571 94.9567 158.631 94.3608 158.639C94.9256 158.448 95.508 158.314 96.0994 158.238C97.5101 157.961 98.934 157.755 100.365 157.622C101.157 157.55 101.951 157.519 102.745 157.529C103.414 157.513 104.076 157.675 104.662 157.998C105.059 158.227 105.368 158.583 105.538 159.009C105.615 159.163 105.641 159.338 105.612 159.508Z" fill="#AA6550"/>
<path d="M106.882 156.845C106.868 156.355 106.735 155.877 106.494 155.451C106.219 155.005 105.838 154.635 105.384 154.372C104.809 154.072 104.181 153.887 103.535 153.83C102.154 153.7 100.859 153.83 99.9157 153.756C99.4031 153.755 98.8981 153.633 98.4423 153.398C98.4423 153.349 99.0094 153.516 99.928 153.534C100.847 153.553 102.123 153.38 103.572 153.534C104.261 153.591 104.929 153.802 105.526 154.15C106.016 154.449 106.417 154.875 106.685 155.383C106.871 155.719 106.966 156.097 106.962 156.481C106.95 156.709 106.882 156.845 106.882 156.845Z" fill="#AA6550"/>
<path d="M166.602 156.826C166.604 156.491 166.634 156.157 166.695 155.828C166.775 155.211 166.929 154.262 167.145 153.127C167.57 150.859 168.322 147.758 169.117 144.336C169.821 141.422 170.358 138.47 170.727 135.495C170.801 134.922 170.831 134.404 170.874 133.948C170.918 133.492 170.942 133.103 170.955 132.777C170.952 132.442 170.981 132.107 171.041 131.778C171.081 132.111 171.093 132.447 171.078 132.783C171.078 133.103 171.078 133.504 171.078 133.96C171.078 134.417 171.041 134.941 170.973 135.514C170.673 138.511 170.167 141.483 169.457 144.41C168.655 147.838 167.872 150.92 167.391 153.177C167.151 154.299 166.96 155.217 166.843 155.846C166.789 156.179 166.709 156.507 166.602 156.826Z" fill="#263238"/>
<path d="M172.995 197.268C172.872 197.266 172.749 197.245 172.632 197.207L171.608 196.979L167.86 196.054C164.697 195.259 160.339 194.106 155.53 192.774C150.721 191.442 146.412 190.166 143.299 189.211L139.6 188.064L138.601 187.731C138.504 187.698 138.411 187.655 138.324 187.602C138.446 187.61 138.566 187.635 138.681 187.676L139.698 187.947L143.397 189.001L155.653 192.472L167.915 195.838L171.614 196.855L172.626 197.145C172.753 197.173 172.877 197.214 172.995 197.268Z" fill="#263238"/>
<path d="M109.533 18.4533C110.889 14.2673 117.837 10.4882 121.647 8.29344C127.35 5.01984 132.633 5.67332 135.888 8.58936C141.77 3.65738 149.519 -1.08966 156.948 0.85231C164.377 2.79428 170.412 10.4019 169.056 17.9663C168.261 22.4236 165.172 26.4185 165.357 30.9127C165.48 33.9952 167.114 36.7818 168.439 39.5807C169.765 42.3796 170.739 45.6347 169.58 48.4953C168.501 51.1524 165.807 52.8107 164.358 55.2767C163.175 57.2989 162.903 59.7032 162.145 61.9164C159.346 70.1158 149.667 74.7149 141.122 73.2723C132.578 71.8297 125.457 65.3996 121.394 57.7304C117.332 50.0612 116.025 41.2576 115.556 32.6081" fill="#263238"/>
<path d="M115.827 24.2298L117.535 92.5994C118.152 100.435 125.371 106.162 133.755 105.435C142.22 104.707 148.687 97.6979 148.2 89.7697C147.688 81.4532 147.306 72.6804 147.306 72.6804C147.306 72.6804 157.903 70.2144 159.223 56.0843C159.895 48.8466 158.723 36.9728 157.496 27.5651C157.256 25.6895 156.638 23.8819 155.681 22.2511C154.724 20.6204 153.446 19.2002 151.926 18.0759C150.406 16.9517 148.673 16.1467 146.834 15.7093C144.994 15.272 143.085 15.2113 141.221 15.5311" fill="#B78876"/>
<path d="M154.352 37.6695C154.389 38.1361 154.24 38.5982 153.939 38.9567C153.639 39.3152 153.209 39.5414 152.743 39.5868C152.517 39.6206 152.285 39.6085 152.063 39.5514C151.841 39.4942 151.633 39.393 151.451 39.2539C151.269 39.1148 151.116 38.9406 151.003 38.7415C150.889 38.5424 150.816 38.3225 150.789 38.0949C150.755 37.628 150.903 37.166 151.204 36.8069C151.504 36.4478 151.932 36.2199 152.398 36.1714C152.625 36.1386 152.857 36.1515 153.079 36.2094C153.301 36.2673 153.509 36.369 153.691 36.5086C153.873 36.6482 154.025 36.8228 154.139 37.0222C154.253 37.2216 154.325 37.4417 154.352 37.6695Z" fill="#263238"/>
<path d="M156.134 35.8444C155.924 36.091 154.5 35.1724 152.571 35.3019C150.641 35.4313 149.291 36.4855 149.069 36.2636C148.958 36.165 149.155 35.7334 149.741 35.2402C150.54 34.6066 151.515 34.2361 152.534 34.1798C153.535 34.1139 154.532 34.3663 155.382 34.9011C156.005 35.3265 156.233 35.7273 156.134 35.8444Z" fill="#263238"/>
<path d="M135.857 39.6052C135.895 40.0728 135.748 40.5365 135.447 40.8963C135.146 41.2562 134.715 41.4833 134.248 41.5287C134.021 41.5615 133.79 41.5486 133.568 41.4907C133.346 41.4328 133.138 41.3311 132.955 41.1915C132.773 41.0519 132.621 40.8772 132.507 40.6779C132.394 40.4785 132.321 40.2584 132.294 40.0306C132.259 39.5637 132.408 39.1017 132.708 38.7426C133.009 38.3835 133.437 38.1555 133.903 38.1071C134.13 38.0742 134.362 38.0871 134.584 38.145C134.806 38.2029 135.014 38.3047 135.196 38.4443C135.378 38.5839 135.53 38.7585 135.644 38.9579C135.758 39.1573 135.83 39.3773 135.857 39.6052Z" fill="#263238"/>
<path d="M137.189 37.4291C136.98 37.6757 135.556 36.7571 133.626 36.8866C131.696 37.0161 130.346 38.0703 130.124 37.8483C130.013 37.7497 130.211 37.3181 130.802 36.8249C131.6 36.1925 132.573 35.8221 133.589 35.7646C134.591 35.6986 135.588 35.9511 136.437 36.4859C137.091 36.9051 137.288 37.312 137.189 37.4291Z" fill="#263238"/>
<path d="M145.105 51.2818C145.105 51.177 146.27 50.8934 148.187 50.5174C148.674 50.4372 149.137 50.3077 149.199 49.9625C149.207 49.4514 149.059 48.9501 148.773 48.5261C148.237 47.3609 147.67 46.1464 147.078 44.8702C144.71 39.6547 142.96 35.3577 143.169 35.2652C143.379 35.1727 145.469 39.3217 147.842 44.5127C148.409 45.795 148.958 47.0218 149.476 48.2117C149.828 48.7846 149.964 49.4647 149.858 50.129C149.798 50.3072 149.698 50.4693 149.565 50.6029C149.433 50.7365 149.271 50.838 149.094 50.8996C148.827 50.9926 148.549 51.0486 148.268 51.066C146.338 51.3065 145.105 51.3928 145.105 51.2818Z" fill="#263238"/>
<path d="M147.312 72.6558C140.734 73.1816 134.139 71.8712 128.262 68.8705C128.262 68.8705 133.558 78.2844 147.466 76.0712L147.312 72.6558Z" fill="#AA6550"/>
<path d="M137.201 29.8337C137.041 30.37 135.099 30.2468 132.855 30.666C130.611 31.0852 128.817 31.8188 128.484 31.3688C128.336 31.153 128.626 30.6351 129.329 30.0803C130.268 29.3854 131.358 28.9228 132.51 28.7302C133.661 28.5181 134.845 28.5793 135.968 28.9089C136.819 29.1925 137.263 29.5809 137.201 29.8337Z" fill="#263238"/>
<path d="M155.061 30.3024C154.753 30.7647 153.391 30.3948 151.794 30.475C150.197 30.5551 148.859 30.962 148.52 30.5243C148.366 30.3085 148.52 29.8585 149.137 29.4023C149.899 28.854 150.807 28.5449 151.746 28.5141C152.685 28.4834 153.611 28.7325 154.408 29.2297C154.969 29.6427 155.197 30.0804 155.061 30.3024Z" fill="#263238"/>
<path d="M142.121 54.913C143.631 54.913 144.384 55.3568 145.666 56.146C146.052 56.3494 146.37 56.6626 146.578 57.046C146.677 57.3215 146.711 57.616 146.678 57.9067C146.645 58.1975 146.545 58.4767 146.387 58.7229C146.072 59.2828 145.603 59.741 145.036 60.0435C144.47 60.3461 143.828 60.4804 143.188 60.4306C142.549 60.3636 141.947 60.0988 141.467 59.6733C140.986 59.2478 140.65 58.6827 140.506 58.0571C140.386 57.4263 140.48 56.7737 140.773 56.2022C141.065 55.6307 141.54 55.1728 142.121 54.9006" fill="#AA6550"/>
<path d="M147.244 58.1371C147.244 58.285 146.763 58.507 145.919 58.4577C144.851 58.3585 143.818 58.0215 142.898 57.4713C141.969 56.9545 141.147 56.2662 140.475 55.443C139.976 54.8265 139.822 54.284 139.951 54.21C140.204 54.0435 141.474 55.3752 143.471 56.4725C144.297 56.9493 145.166 57.3476 146.067 57.6624C146.757 57.8966 147.226 57.9768 147.244 58.1371Z" fill="#263238"/>
<path d="M137.719 46.1032C138.002 46.1032 138.231 45.8741 138.231 45.5915C138.231 45.3089 138.002 45.0798 137.719 45.0798C137.437 45.0798 137.208 45.3089 137.208 45.5915C137.208 45.8741 137.437 46.1032 137.719 46.1032Z" fill="#AA6550"/>
<path d="M152.719 43.0824C152.719 43.1836 152.689 43.2825 152.632 43.3667C152.576 43.4508 152.496 43.5164 152.403 43.5551C152.309 43.5939 152.206 43.604 152.107 43.5842C152.008 43.5645 151.917 43.5158 151.845 43.4442C151.774 43.3726 151.725 43.2815 151.705 43.1822C151.685 43.0829 151.695 42.9801 151.734 42.8866C151.773 42.7931 151.838 42.7131 151.923 42.6569C152.007 42.6007 152.106 42.5707 152.207 42.5707C152.343 42.5707 152.473 42.6246 152.569 42.7206C152.665 42.8165 152.719 42.9467 152.719 43.0824Z" fill="#AA6550"/>
<path d="M155.548 44.4141C155.556 44.4864 155.549 44.5596 155.527 44.6289C155.504 44.6982 155.468 44.762 155.419 44.8162C155.371 44.8703 155.311 44.9137 155.245 44.9434C155.178 44.973 155.106 44.9884 155.034 44.9884C154.961 44.9884 154.889 44.973 154.822 44.9434C154.756 44.9137 154.697 44.8703 154.648 44.8162C154.599 44.762 154.563 44.6982 154.541 44.6289C154.518 44.5596 154.511 44.4864 154.519 44.4141C154.533 44.2873 154.593 44.17 154.688 44.0849C154.783 43.9997 154.906 43.9526 155.034 43.9526C155.161 43.9526 155.284 43.9997 155.379 44.0849C155.474 44.17 155.534 44.2873 155.548 44.4141Z" fill="#AA6550"/>
<path d="M156.405 42.2748C156.405 42.376 156.375 42.4749 156.319 42.559C156.263 42.6432 156.183 42.7088 156.09 42.7475C155.996 42.7862 155.893 42.7964 155.794 42.7766C155.695 42.7569 155.604 42.7081 155.532 42.6366C155.461 42.565 155.412 42.4738 155.392 42.3746C155.372 42.2753 155.382 42.1724 155.421 42.0789C155.46 41.9854 155.525 41.9055 155.61 41.8493C155.694 41.7931 155.793 41.7631 155.894 41.7631C156.03 41.7631 156.16 41.817 156.256 41.9129C156.352 42.0089 156.405 42.139 156.405 42.2748Z" fill="#AA6550"/>
<path d="M135.888 47.8541C135.889 47.9568 135.86 48.0575 135.804 48.1435C135.748 48.2294 135.667 48.2968 135.573 48.3369C135.478 48.377 135.374 48.3882 135.273 48.3689C135.172 48.3496 135.079 48.3008 135.006 48.2286C134.933 48.1565 134.883 48.0642 134.863 47.9636C134.842 47.863 134.852 47.7585 134.891 47.6635C134.93 47.5686 134.997 47.4873 135.082 47.4301C135.167 47.3729 135.268 47.3424 135.37 47.3424C135.507 47.3424 135.637 47.3961 135.734 47.4919C135.831 47.5877 135.887 47.7178 135.888 47.8541Z" fill="#AA6550"/>
<path d="M133.965 45.8071C133.965 45.9083 133.935 46.0072 133.878 46.0914C133.822 46.1755 133.742 46.2411 133.649 46.2799C133.555 46.3186 133.452 46.3287 133.353 46.309C133.254 46.2892 133.163 46.2405 133.091 46.1689C133.02 46.0974 132.971 46.0062 132.951 45.9069C132.931 45.8077 132.942 45.7048 132.98 45.6113C133.019 45.5178 133.085 45.4379 133.169 45.3816C133.253 45.3254 133.352 45.2954 133.453 45.2954C133.589 45.2954 133.719 45.3493 133.815 45.4453C133.911 45.5412 133.965 45.6714 133.965 45.8071Z" fill="#AA6550"/>
<path d="M142.349 39.6052C142.292 38.8783 142.179 38.1569 142.01 37.4475C141.503 35.5194 140.361 33.8186 138.768 32.6203C137.68 31.7941 136.412 31.2365 135.069 30.9927C133.528 30.7109 131.941 30.845 130.469 31.3811C129.677 31.6641 128.932 32.0675 128.262 32.5771C127.553 33.0931 126.929 33.7172 126.413 34.4266C125.312 35.9252 124.718 37.7363 124.718 39.596C124.718 41.4556 125.312 43.2667 126.413 44.7653C127.434 46.1676 128.845 47.2393 130.469 47.8478C131.941 48.384 133.528 48.518 135.069 48.2362C136.412 47.9925 137.68 47.4348 138.768 46.6086C140.359 45.4112 141.501 43.7131 142.01 41.7876C142.178 41.078 142.291 40.3567 142.349 39.6299C142.359 39.6767 142.359 39.7248 142.349 39.7717V40.1971C142.349 40.4283 142.331 40.6592 142.294 40.8875C142.263 41.1996 142.207 41.5088 142.127 41.8123C141.933 42.6586 141.609 43.4697 141.166 44.2166C140.107 46.0288 138.446 47.4124 136.473 48.1265C134.499 48.8407 132.338 48.8402 130.365 48.1252C129.542 47.8326 128.769 47.4168 128.071 46.8922C127.333 46.3605 126.686 45.7131 126.154 44.9749C125.005 43.4261 124.385 41.5489 124.385 39.6206C124.385 37.6923 125.005 35.8152 126.154 34.2663C126.686 33.5281 127.333 32.8807 128.071 32.349C128.769 31.8244 129.542 31.4087 130.365 31.116C131.885 30.5703 133.525 30.4426 135.112 30.7461C136.366 30.9893 137.555 31.4965 138.599 32.2342C139.643 32.9718 140.518 33.923 141.166 35.0246C141.608 35.772 141.932 36.583 142.127 37.429C142.207 37.7344 142.263 38.0457 142.294 38.3599C142.331 38.5861 142.349 38.815 142.349 39.0442V39.4696C142.357 39.5145 142.357 39.5603 142.349 39.6052Z" fill="white"/>
<path d="M146.214 36.9112C145.528 36.7224 144.817 36.6392 144.106 36.6646C143.405 36.7915 142.726 37.0199 142.09 37.3427C142.09 37.3427 142.22 37.1084 142.565 36.8742C143.018 36.5818 143.533 36.4002 144.069 36.344C144.608 36.2829 145.154 36.3549 145.66 36.5536C146.042 36.7077 146.233 36.8742 146.214 36.9112Z" fill="white"/>
<path d="M140.58 13.5335C139.347 24.6736 131.061 34.7041 120.371 38.0825C123.817 43.0514 121.647 52.5085 121.733 60.3997C121.82 67.736 121.813 69.8321 117.06 73.5742C113.133 74.5175 110.895 63.7596 107.948 60.7511C105.002 57.7426 102.234 54.0374 102.449 49.8576C102.554 47.8971 103.319 46.023 103.423 44.0687C103.547 41.8986 102.85 39.7532 102.468 37.6386C100.766 28.1753 105.649 17.997 113.916 13.0465C122.183 8.096 133.163 8.42891 141.344 13.4904" fill="#263238"/>
<path d="M116.987 59.3332C115.962 55.7346 114.2 52.3882 111.814 49.5063L111.993 49.8885C111.256 48.2073 110.146 46.7158 108.747 45.527C107.348 44.3382 105.697 43.4832 103.919 43.0268C102.141 42.5703 100.282 42.5244 98.4835 42.8925C96.685 43.2605 94.9938 44.0329 93.538 45.1512C92.0821 46.2694 90.8997 47.7043 90.0803 49.347C89.261 50.9898 88.826 52.7974 88.8085 54.6331C88.791 56.4688 89.1914 58.2844 89.9792 59.9425C90.7671 61.6006 91.9219 63.0577 93.3562 64.2036C91.9691 63.8953 90.5634 65.0913 90.2737 66.4785C90.1661 67.1841 90.203 67.9042 90.3821 68.5952C90.5612 69.2861 90.8788 69.9335 91.3156 70.498C94.2069 74.7272 100.76 75.8431 104.879 72.8099C108.146 75.0231 112.973 73.7346 115.396 70.6213C117.819 67.508 118.102 63.1185 116.987 59.3332Z" fill="#263238"/>
<path d="M103.75 43.0146C103.622 42.8936 103.504 42.7616 103.399 42.6201C103.112 42.2073 102.903 41.7456 102.782 41.2576C102.406 39.9814 102.585 37.9655 103.596 35.8324C104.146 34.6646 104.902 33.6057 105.828 32.7068C106.842 31.64 107.966 30.6832 109.182 29.8524C110.526 28.9262 111.993 28.1916 113.54 27.67C115.137 27.1213 116.832 26.6959 118.559 26.2644C120.285 25.8328 121.974 25.4074 123.552 24.8526C125.074 24.3282 126.552 23.6851 127.972 22.9291C130.376 21.6495 132.61 20.0756 134.624 18.2437C135.982 17.0025 137.236 15.6519 138.373 14.2057C138.78 13.694 139.076 13.2809 139.279 12.9727C139.375 12.8273 139.485 12.6911 139.606 12.5658C139.526 12.7198 139.435 12.8682 139.335 13.0097C139.143 13.2994 138.866 13.7248 138.471 14.2427C137.366 15.7285 136.128 17.111 134.772 18.3732C132.756 20.2443 130.511 21.8518 128.09 23.1572C126.657 23.9246 125.167 24.5781 123.632 25.1115C122.036 25.6725 120.34 26.1041 118.614 26.5418C116.888 26.9795 115.199 27.3926 113.614 27.9289C112.085 28.4375 110.633 29.1531 109.299 30.0558C108.098 30.8746 106.983 31.8123 105.97 32.8547C105.067 33.7462 104.332 34.7923 103.8 35.9434C102.782 38.021 102.567 39.9876 102.906 41.2391C103.063 41.8825 103.35 42.4868 103.75 43.0146Z" fill="#455A64"/>
<path d="M139.594 12.5966C139.505 12.7202 139.408 12.8376 139.304 12.948C139.107 13.1761 138.804 13.4966 138.416 13.9097C137.298 15.0604 136.11 16.1414 134.859 17.1463C133.009 18.6671 130.949 19.913 128.743 20.8453C127.419 21.3347 126.053 21.7041 124.662 21.9488C123.226 22.2386 121.727 22.4605 120.199 22.6948C117.318 23.0391 114.473 23.6353 111.697 24.4765C109.444 25.2117 107.352 26.3687 105.532 27.8857C104.308 28.9117 103.299 30.1686 102.56 31.5847C102.368 31.9737 102.197 32.373 102.049 32.7807C102.005 32.9267 101.945 33.0674 101.87 33.1999C101.899 33.0515 101.938 32.9052 101.987 32.7622C102.11 32.3402 102.265 31.9281 102.45 31.5292C103.155 30.0707 104.154 28.7736 105.384 27.7193C107.206 26.1561 109.314 24.9626 111.592 24.2052C114.379 23.3345 117.239 22.7155 120.137 22.3557C121.672 22.1276 123.164 21.8995 124.588 21.6221C125.963 21.384 127.314 21.025 128.626 20.5494C130.811 19.6417 132.857 18.4318 134.705 16.9552C135.966 15.9745 137.174 14.927 138.324 13.8172L139.255 12.9048C139.357 12.7909 139.47 12.6876 139.594 12.5966Z" fill="#455A64"/>
<path d="M155.246 0.402213C155.246 0.470028 154.044 0.513183 152.164 1.01871C151.654 1.15143 151.152 1.31196 150.66 1.49958C150.123 1.67836 149.581 1.94346 148.995 2.20239C146.502 3.40645 144.307 5.1501 142.571 7.30699C142.189 7.81868 141.807 8.28722 141.511 8.77425C141.216 9.2084 140.946 9.65919 140.703 10.1244C139.797 11.8259 139.47 12.9973 139.421 12.9726C139.462 12.6947 139.532 12.4219 139.631 12.1588C139.719 11.839 139.83 11.5259 139.963 11.2217C140.12 10.8004 140.301 10.3887 140.506 9.98875C140.736 9.5076 140.998 9.04215 141.289 8.59547C141.579 8.10227 141.955 7.61524 142.337 7.09121C143.219 5.99803 144.213 5.00004 145.302 4.11353C146.41 3.25302 147.607 2.51315 148.872 1.90647C149.425 1.64619 149.994 1.41771 150.573 1.22216C151.491 0.900383 152.436 0.66509 153.397 0.519349C153.722 0.456244 154.052 0.417092 154.383 0.402213C154.67 0.368533 154.96 0.368533 155.246 0.402213Z" fill="#455A64"/>
<path d="M165.178 53.6306C165.178 53.6306 165.178 53.5875 165.27 53.5073L165.56 53.1682C165.819 52.8662 166.207 52.4284 166.645 51.8181C167.196 51.0989 167.614 50.2866 167.878 49.4199C168.028 48.8808 168.072 48.3175 168.008 47.7615C167.92 47.1409 167.711 46.5437 167.391 46.0045C166.725 44.8517 165.634 43.8468 164.635 42.6015C162.39 39.7913 160.947 36.4251 160.462 32.8608C160.263 30.8636 160.214 28.8544 160.314 26.8499C160.413 24.8631 160.228 22.8723 159.765 20.9377C159.272 19.2505 158.42 17.6901 157.266 16.364C156.112 15.038 154.685 13.9777 153.082 13.2561C151.753 12.6604 150.321 12.3296 148.865 12.2821C146.156 12.1727 143.487 12.9593 141.27 14.52L140.9 14.7789C140.82 14.8344 140.777 14.8652 140.771 14.859C141.347 14.3277 141.992 13.8757 142.688 13.5151C144.581 12.4994 146.706 11.9957 148.853 12.054C150.34 12.0906 151.805 12.4151 153.169 13.0095C154.818 13.7378 156.288 14.8175 157.476 16.1731C158.664 17.5286 159.542 19.1274 160.049 20.8576C160.52 22.8202 160.709 24.8401 160.61 26.8561C160.51 28.8461 160.558 30.8407 160.751 32.8238C161.22 36.3369 162.631 39.6579 164.833 42.435C165.807 43.668 166.904 44.6914 167.582 45.8936C167.911 46.462 168.121 47.0912 168.199 47.7431C168.26 48.3254 168.206 48.9142 168.038 49.4754C167.755 50.3575 167.309 51.179 166.725 51.8983C166.373 52.3593 165.994 52.7998 165.591 53.2176L165.27 53.5381C165.243 53.5726 165.212 53.6037 165.178 53.6306Z" fill="#455A64"/>
<path d="M163.748 37.4289C163.69 36.7021 163.577 35.9807 163.409 35.2712C162.902 33.3431 161.759 31.6423 160.166 30.444C158.995 29.5633 157.623 28.9892 156.174 28.7738C154.724 28.5585 153.244 28.7088 151.868 29.211C150.243 29.8194 148.833 30.8912 147.811 32.2935C146.71 33.7907 146.116 35.6009 146.116 37.4597C146.116 39.3186 146.71 41.1288 147.811 42.626C148.324 43.338 148.949 43.9625 149.661 44.4755C150.332 44.981 151.076 45.3822 151.868 45.6653C153.021 46.0843 154.249 46.258 155.473 46.1752C156.697 46.0924 157.891 45.755 158.977 45.1846C160.063 44.6142 161.019 43.8233 161.782 42.8626C162.545 41.9018 163.099 40.7924 163.409 39.6052C163.577 38.8956 163.69 38.1743 163.748 37.4474C163.757 37.4963 163.757 37.5465 163.748 37.5954C163.748 37.7063 163.748 37.8481 163.748 38.0146C163.748 38.2459 163.729 38.4768 163.692 38.7051C163.66 39.0191 163.605 39.3303 163.526 39.636C163.33 40.482 163.006 41.2929 162.564 42.0403C161.981 43.0339 161.213 43.9065 160.302 44.6111C159.105 45.5336 157.696 46.1393 156.203 46.3721C154.711 46.6049 153.183 46.4572 151.763 45.9428C150.939 45.6533 150.166 45.2373 149.47 44.7098C148.733 44.1738 148.086 43.5246 147.552 42.7863C146.403 41.2388 145.783 39.3625 145.783 37.4351C145.783 35.5076 146.403 33.6314 147.552 32.0839C148.084 31.3457 148.732 30.6982 149.47 30.1666C150.167 29.642 150.941 29.2262 151.763 28.9336C153.283 28.3861 154.923 28.2563 156.51 28.5575C157.769 28.8034 158.96 29.3157 160.004 30.06C161.048 30.8043 161.921 31.7635 162.564 32.873C163.007 33.6178 163.331 34.4268 163.526 35.2712C163.605 35.5768 163.66 35.888 163.692 36.2021C163.729 36.4304 163.748 36.6613 163.748 36.8926C163.748 37.059 163.748 37.2008 163.748 37.3179C163.753 37.3547 163.753 37.3921 163.748 37.4289Z" fill="white"/>
<path d="M116.974 73.8025C116.865 73.7484 116.763 73.68 116.672 73.5991C116.481 73.4573 116.21 73.2415 115.852 72.9826C114.856 72.1843 113.92 71.3126 113.053 70.3748C111.716 68.9909 110.8 67.2544 110.415 65.3688C110.287 64.2557 110.237 63.1351 110.267 62.0151C110.288 60.8417 109.952 59.6895 109.305 58.7106C108.58 57.7705 107.773 56.8958 106.895 56.0967C106.08 55.3078 105.408 54.3838 104.909 53.3656C104.468 52.4442 104.145 51.4706 103.948 50.4681C103.762 49.5991 103.677 48.7117 103.695 47.8233C103.695 47.0033 103.886 46.2882 103.96 45.6594C104.032 45.122 104.045 44.5782 103.997 44.038C103.892 43.1502 103.72 42.6755 103.75 42.6632C103.807 42.7713 103.853 42.8849 103.886 43.0023C103.989 43.3352 104.067 43.6752 104.12 44.0195C104.187 44.5703 104.187 45.1271 104.12 45.6779C104.065 46.2944 103.917 47.0342 103.898 47.8295C103.908 49.7003 104.329 51.5462 105.131 53.2361C105.622 54.2209 106.279 55.1136 107.073 55.8748C107.974 56.6817 108.799 57.569 109.539 58.5257C109.897 59.0407 110.162 59.6145 110.322 60.2211C110.464 60.8047 110.54 61.4023 110.55 62.0027C110.52 63.11 110.563 64.218 110.68 65.3195C111.038 67.1661 111.907 68.8751 113.189 70.2515C114.035 71.1963 114.944 72.084 115.908 72.9086L116.746 73.5497C116.83 73.6264 116.907 73.711 116.974 73.8025Z" fill="#455A64"/>
<path d="M109.964 59.4443C109.975 59.5282 109.975 59.6132 109.964 59.6971C109.964 59.8636 109.964 60.104 109.915 60.4184C109.811 61.3045 109.604 62.1755 109.299 63.0139C108.325 65.8277 106.39 68.2085 103.836 69.7383C101.281 71.2682 98.2692 71.8493 95.3288 71.3797C94.448 71.2466 93.5854 71.0129 92.758 70.6831C92.4621 70.5721 92.2463 70.4488 92.0983 70.381C91.9504 70.3132 91.8764 70.2639 91.8826 70.2515C93.0089 70.6674 94.1736 70.9709 95.3596 71.1578C96.6486 71.3242 97.955 71.3013 99.2374 71.09C102.413 70.6034 105.272 68.8928 107.203 66.3244C107.993 65.2943 108.629 64.154 109.089 62.9399C109.491 61.8051 109.784 60.6347 109.964 59.4443Z" fill="#455A64"/>
<path d="M107.591 56.5466C107.565 56.8343 107.505 57.1178 107.412 57.3912C107.194 58.1471 106.902 58.88 106.543 59.5798C105.343 61.9034 103.525 63.851 101.29 65.2084C99.0496 66.5506 96.503 67.2976 93.8923 67.3785C93.1073 67.4025 92.3216 67.3613 91.5435 67.2552C91.2564 67.2292 90.9731 67.1713 90.6989 67.0826C91.7595 67.1588 92.8232 67.1815 93.8861 67.1504C96.445 67.009 98.9311 66.2473 101.13 64.931C103.317 63.5984 105.115 61.7148 106.346 59.4688C106.824 58.5231 107.24 57.5469 107.591 56.5466Z" fill="#455A64"/>
<path d="M89.5585 50.4064C89.7277 50.2744 89.9145 50.1665 90.1133 50.0858C90.3338 49.9669 90.5625 49.8639 90.7976 49.7776C91.1054 49.6486 91.4203 49.5374 91.7409 49.4447C92.5709 49.1955 93.4239 49.0302 94.287 48.9515C95.3445 48.8592 96.4088 48.8799 97.462 49.0131C98.5136 49.1615 99.5467 49.4198 100.544 49.7837C101.355 50.0948 102.131 50.4873 102.862 50.9551C103.143 51.1316 103.413 51.3252 103.67 51.5346C103.874 51.6809 104.066 51.8438 104.243 52.0216C104.408 52.1595 104.555 52.3168 104.681 52.4902C104.638 52.5395 103.991 51.8737 102.739 51.1462C102.007 50.7151 101.238 50.3519 100.44 50.0612C99.4575 49.7252 98.4462 49.4816 97.4188 49.3337C96.3966 49.2053 95.3644 49.1743 94.3363 49.2412C93.4888 49.3071 92.649 49.4495 91.8272 49.6666C90.3969 50.0365 89.6201 50.4619 89.5585 50.4064Z" fill="#455A64"/>
<path d="M103.75 49.2659C103.695 49.3337 99.8047 46.0293 95.07 41.868C90.3353 37.7066 86.5376 34.322 86.5931 34.2542C86.6486 34.1864 90.5387 37.497 95.2796 41.6522C100.02 45.8074 103.8 49.2043 103.75 49.2659Z" fill="#EBF0FF"/>
<path d="M121.512 42.5152C121.806 41.9379 122.243 41.4455 122.782 41.0849C123.251 40.6371 123.829 40.3185 124.458 40.1602C123.999 40.5912 123.504 40.983 122.979 41.3315C122.521 41.7633 122.03 42.159 121.512 42.5152Z" fill="white"/>
<path d="M104.2 45.986C104.17 45.9476 104.143 45.9063 104.12 45.8627C104.065 45.7579 103.997 45.6346 103.911 45.4866C103.672 44.9879 103.509 44.4558 103.43 43.9084C103.202 41.858 103.786 39.7999 105.057 38.175C105.459 37.63 105.92 37.1317 106.432 36.6892C106.994 36.2188 107.601 35.8058 108.245 35.4562C109.674 34.7077 111.207 34.1797 112.794 33.8903C116.13 33.1937 119.884 33.3601 123.706 32.793C125.577 32.5456 127.392 31.985 129.076 31.1346C130.615 30.2981 132.006 29.2152 133.194 27.9288C135.211 25.7377 136.827 23.2084 137.966 20.4568C138.977 18.1203 139.612 16.1414 140.074 14.8097L140.598 13.25L140.74 12.8493C140.755 12.8025 140.773 12.7571 140.796 12.7136C140.796 12.7136 140.796 12.7629 140.796 12.8554L140.685 13.2685L140.173 14.8714C139.602 16.8045 138.929 18.7059 138.157 20.5678C137.035 23.362 135.421 25.9324 133.392 28.1569C132.179 29.4666 130.759 30.5665 129.187 31.412C127.48 32.2841 125.637 32.8594 123.737 33.1135C119.866 33.693 116.13 33.5081 112.831 34.1862C109.533 34.8644 106.703 36.2392 105.218 38.3106C103.971 39.8781 103.371 41.8633 103.541 43.8591C103.647 44.5984 103.87 45.3162 104.2 45.986Z" fill="#FAFAFA"/>
<path d="M108.115 70.4672C107.986 71.32 107.737 72.1502 107.375 72.9332C106.958 73.8747 106.417 74.756 105.766 75.5533C104.902 76.6187 103.843 77.5099 102.646 78.1796C101.18 78.9741 99.5422 79.3975 97.8748 79.4126C95.9501 79.4569 94.059 78.9034 92.4619 77.8282C90.7053 76.6127 89.4345 74.8157 88.8739 72.7544C88.5744 71.6687 88.5113 70.5314 88.6889 69.4192C88.8842 68.2745 89.3237 67.1854 89.9774 66.2257C91.0433 64.6083 92.6783 63.4508 94.558 62.9829V63.2912C92.6512 62.9962 90.8397 62.2594 89.2684 61.1396C87.8118 60.112 86.6509 58.7194 85.9024 57.1016C85.2436 55.6475 84.9617 54.051 85.0824 52.4593C85.1843 51.084 85.6456 49.7595 86.4202 48.6185C87.0719 47.6925 87.9123 46.9151 88.8862 46.3375C89.6099 45.9102 90.3994 45.606 91.2228 45.4374C91.7381 45.3351 92.2639 45.2958 92.7887 45.3203L93.1894 45.3634C93.2343 45.3567 93.28 45.3567 93.325 45.3634C92.6264 45.3273 91.9261 45.3812 91.2412 45.5237C90.439 45.7072 89.6724 46.0217 88.9725 46.4546C88.0384 47.0338 87.2361 47.8025 86.6175 48.711C85.8765 49.8265 85.4407 51.1168 85.3537 52.4532C85.2506 54.0006 85.5345 55.5494 86.1798 56.9598C86.9157 58.5267 88.0485 59.8741 89.4657 60.8683C91.0047 61.9521 92.7724 62.6672 94.632 62.9583L95.4273 63.0816L94.6443 63.2665C92.8412 63.718 91.2742 64.8317 90.2548 66.386C89.6265 67.3126 89.2059 68.3642 89.0218 69.4685C88.8529 70.5373 88.9118 71.6298 89.1945 72.6743C89.7291 74.675 90.9542 76.422 92.653 77.6063C94.1977 78.6529 96.0276 79.1976 97.8933 79.166C99.5217 79.1601 101.124 78.7558 102.56 77.9885C103.738 77.3455 104.784 76.4858 105.643 75.4547C106.297 74.6759 106.848 73.816 107.283 72.8962C107.552 72.3127 107.781 71.7112 107.967 71.0961C108.022 70.8988 108.065 70.7385 108.096 70.609L108.115 70.4672Z" fill="#263238"/>
<path d="M104.484 43.8037C104.432 43.7883 104.382 43.7655 104.336 43.7359L103.904 43.5078C103.365 43.1988 102.851 42.8462 102.369 42.4536C100.578 40.9908 99.2115 39.0749 98.4114 36.9051C97.4828 34.3331 97.4008 31.5317 98.1771 28.9098C98.9535 26.2879 100.548 23.9828 102.727 22.3311C104.471 21.046 106.432 20.0854 108.516 19.4952C110.6 18.9068 112.737 18.5289 114.897 18.367C116.968 18.1697 118.965 18.0772 120.864 17.9478C122.662 17.8347 124.452 17.6289 126.228 17.3313C127.77 17.0661 129.283 16.6532 130.747 16.0983C132.871 15.3146 134.807 14.0944 136.431 12.5164C136.858 12.0727 137.256 11.6011 137.621 11.1047L137.904 10.7163C137.934 10.6688 137.969 10.6253 138.009 10.5868C137.603 11.3219 137.102 11.9998 136.517 12.6027C134.906 14.2362 132.958 15.4985 130.808 16.3017C129.335 16.8745 127.809 17.302 126.252 17.5779C124.469 17.8783 122.67 18.084 120.864 18.1944C117.073 18.4965 112.85 18.5273 108.627 19.7788C106.581 20.3598 104.654 21.2991 102.937 22.553C100.801 24.1658 99.2319 26.415 98.4564 28.9766C97.6808 31.5381 97.7385 34.2798 98.621 36.8064C99.3944 38.9412 100.712 40.8368 102.443 42.3056C102.913 42.7075 103.412 43.0742 103.935 43.403L104.342 43.6557C104.396 43.6984 104.444 43.7482 104.484 43.8037Z" fill="#263238"/>
<path d="M173.187 34.7101C173.116 34.7945 173.028 34.8632 172.93 34.912C172.831 34.9609 172.723 34.9887 172.613 34.9937C172.293 34.9999 171.979 34.9098 171.71 34.735C171.442 34.5602 171.233 34.3088 171.109 34.0134C171.014 33.799 170.972 33.5649 170.987 33.3309C171.002 33.0968 171.074 32.8699 171.195 32.6695C171.48 32.1955 171.913 31.8292 172.428 31.6276C173.057 31.4004 173.733 31.3377 174.392 31.4456C175.051 31.5536 175.672 31.8284 176.195 32.2441C176.826 32.6991 177.311 33.3263 177.595 34.0504C177.894 34.8374 177.954 35.6954 177.767 36.5164C177.578 37.4064 177.096 38.2073 176.399 38.7913C175.66 39.4036 174.757 39.7852 173.803 39.8886C172.785 39.9625 171.764 39.8069 170.814 39.4335C169.865 39.06 169.011 38.4782 168.316 37.7309C167.551 36.9735 166.952 36.0642 166.559 35.0615C166.158 34.0192 166.051 32.8867 166.251 31.7879C166.464 30.7135 166.799 29.6669 167.25 28.6684C167.663 27.682 168.045 26.7079 168.366 25.7339C169.006 23.8626 169.42 21.9211 169.599 19.9511C169.764 18.1737 169.656 16.3815 169.278 14.6369C168.942 13.1091 168.347 11.6497 167.521 10.3214C166.33 8.38932 164.622 6.83007 162.589 5.82098C162.033 5.56898 161.458 5.3628 160.869 5.20448L160.4 5.08735C160.347 5.07658 160.295 5.05788 160.246 5.03186H160.407L160.881 5.11817C161.487 5.25581 162.077 5.45196 162.644 5.70384C164.723 6.69102 166.475 8.25273 167.694 10.2043C168.551 11.527 169.177 12.9865 169.543 14.5198C169.94 16.2907 170.061 18.1124 169.901 19.9203C169.727 21.9151 169.313 23.8816 168.668 25.777C168.347 26.7634 167.959 27.7498 167.546 28.73C167.108 29.7185 166.782 30.7523 166.572 31.8125C166.387 32.8478 166.49 33.9137 166.867 34.895C167.24 35.8597 167.814 36.734 168.55 37.4596C169.21 38.1751 170.021 38.7341 170.925 39.0957C171.828 39.4573 172.801 39.6124 173.772 39.5496C174.677 39.4573 175.534 39.1014 176.238 38.5262C176.894 37.986 177.35 37.2415 177.533 36.4116C177.714 35.6376 177.664 34.8277 177.391 34.0812C177.125 33.3967 176.672 32.8006 176.084 32.3612C175.593 31.9621 175.007 31.6958 174.383 31.5878C173.759 31.4799 173.118 31.5339 172.521 31.7447C172.038 31.923 171.628 32.257 171.356 32.6941C171.238 32.8751 171.167 33.082 171.147 33.2969C171.128 33.5117 171.161 33.7281 171.245 33.9271C171.357 34.2054 171.548 34.4448 171.794 34.6157C172.041 34.7867 172.332 34.8816 172.632 34.8889C172.829 34.8798 173.021 34.818 173.187 34.7101Z" fill="#263238"/>
<g opacity="0.2">
<path opacity="0.2" d="M169.253 174.236C172.25 173.392 175.357 176.086 178.396 175.389C180.245 174.957 181.639 173.305 182.477 171.573C183.316 169.84 183.766 167.929 184.653 166.215C185.541 164.502 187.021 162.93 188.932 162.664C190.683 162.43 192.76 163.25 194.061 162.048C195.066 161.123 194.93 159.409 194.129 158.306C193.328 157.202 192.058 156.555 190.831 155.951C189.485 155.216 188.054 154.649 186.571 154.262C185.072 153.88 183.485 154.065 182.113 154.779C179.549 156.271 179.031 159.656 178.285 162.529C177.83 164.55 176.975 166.46 175.77 168.145C174.546 169.835 172.734 171.005 170.69 171.425C169.903 171.453 169.131 171.651 168.427 172.004C167.78 172.448 167.527 173.558 168.199 173.971" fill="black"/>
</g>
<path d="M153.637 163.158L164.87 159.243L174.937 143.504C175.428 142.736 176.071 142.077 176.826 141.566C177.58 141.055 178.431 140.703 179.327 140.532L197.384 137.123C197.613 137.811 197.582 138.559 197.297 139.226C197.012 139.893 196.492 140.432 195.836 140.742C193.426 142.117 182.582 144.644 182.582 144.644L199.283 144.361C199.283 144.361 199.794 146.771 197.902 147.634C196.009 148.497 184.111 148.929 184.111 148.929L199.357 151.099C199.357 151.099 199.443 153.522 195.96 153.565C192.53 153.534 189.104 153.328 185.695 152.949C185.554 152.927 185.41 152.963 185.294 153.047C185.179 153.131 185.101 153.257 185.079 153.399C185.056 153.535 185.087 153.674 185.163 153.789C185.24 153.903 185.357 153.984 185.492 154.015L195.621 156.407C195.913 156.472 196.175 156.632 196.367 156.861C196.559 157.091 196.669 157.378 196.681 157.677C196.693 157.976 196.606 158.27 196.433 158.515C196.26 158.759 196.011 158.939 195.726 159.027C195.54 159.074 195.348 159.087 195.158 159.064C193.438 158.892 183.124 157.585 183.124 157.585C183.124 157.585 179.487 170.334 177.132 171.363C174.777 172.393 169.839 172.676 169.839 172.676L159.358 176.825L153.637 163.158Z" fill="#B78876"/>
<path d="M198.124 144.311C197.836 144.372 197.542 144.401 197.248 144.398L194.856 144.515C192.84 144.601 190.047 144.7 186.971 144.78L182.625 144.891C181.456 144.842 180.287 145.009 179.179 145.384C178.449 145.671 177.829 146.183 177.409 146.845C177.274 147.1 177.157 147.363 177.058 147.634C177.046 147.559 177.046 147.482 177.058 147.406C177.105 147.192 177.18 146.985 177.28 146.79C177.682 146.068 178.313 145.502 179.074 145.181C180.201 144.762 181.398 144.566 182.6 144.601L186.916 144.465C189.998 144.385 192.791 144.324 194.807 144.293H197.199C197.507 144.273 197.816 144.279 198.124 144.311Z" fill="#AA6550"/>
<path d="M198.376 151.142C198.106 151.153 197.835 151.134 197.569 151.087L195.386 150.809C193.537 150.569 190.997 150.193 188.192 149.786C186.792 149.589 185.455 149.336 184.246 149.231C183.186 149.103 182.113 149.297 181.164 149.786C180.531 150.137 179.986 150.626 179.567 151.216C179.271 151.635 179.154 151.9 179.129 151.888C179.139 151.817 179.16 151.749 179.191 151.685C179.266 151.497 179.357 151.315 179.462 151.142C179.859 150.503 180.405 149.97 181.053 149.589C182.032 149.042 183.156 148.814 184.271 148.935C185.504 149.028 186.842 149.274 188.247 149.465C191.052 149.884 193.592 150.285 195.423 150.587L197.593 150.963C197.86 150.997 198.122 151.057 198.376 151.142Z" fill="#AA6550"/>
<path d="M189.9 155.02C189.303 154.936 188.714 154.808 188.136 154.638C187.051 154.373 185.559 153.978 183.907 153.639C183.514 153.547 183.114 153.487 182.711 153.46C182.35 153.474 181.999 153.578 181.688 153.762C181.136 154.068 180.671 154.509 180.338 155.045C180.062 155.568 179.88 156.135 179.801 156.721C179.75 156.562 179.737 156.393 179.764 156.228C179.797 155.776 179.923 155.335 180.134 154.934C180.465 154.339 180.951 153.845 181.54 153.503C181.894 153.292 182.294 153.17 182.705 153.146C183.13 153.169 183.553 153.226 183.969 153.318C185.646 153.67 187.125 154.095 188.192 154.416C188.78 154.56 189.352 154.762 189.9 155.02Z" fill="#AA6550"/>
<path d="M70.256 171.622L103.948 167.479L163.039 157.874L170.665 177.041C148.471 184.735 125.698 191.677 103.356 197.78C101.53 198.144 99.6685 198.302 97.8073 198.249C90.3477 198.28 71.9514 195.283 70.256 171.622Z" fill="#EBF0FF"/>
<path d="M170.665 177.041C170.608 176.931 170.556 176.818 170.511 176.702C170.406 176.462 170.271 176.129 170.086 175.697C169.722 174.797 169.192 173.503 168.52 171.85L162.916 157.917L163.058 157.998L134.347 162.794C127.566 163.959 121.062 164.717 115.168 165.5C112.215 165.889 109.416 166.277 106.808 166.733C105.501 166.943 104.244 167.149 103.035 167.35C101.877 167.536 100.731 167.787 99.6014 168.102C96.1992 169.174 93.3333 171.502 91.5869 174.612C91.1085 175.449 90.7141 176.331 90.4094 177.245C90.3046 177.559 90.2368 177.806 90.1936 177.966C90.1724 178.051 90.1435 178.133 90.1073 178.213C90.1648 177.879 90.2451 177.549 90.3477 177.226C90.6286 176.297 91.0067 175.4 91.4759 174.551C92.2172 173.201 93.1706 171.979 94.2995 170.932C95.8106 169.55 97.6023 168.511 99.5521 167.886C100.69 167.562 101.844 167.301 103.011 167.103C104.244 166.881 105.477 166.653 106.784 166.437C109.398 166.006 112.196 165.599 115.143 165.204C121.043 164.409 127.541 163.645 134.31 162.473L163.033 157.745H163.138L163.175 157.844C165.468 163.663 167.354 168.46 168.674 171.813L170.178 175.685C170.345 176.123 170.468 176.462 170.566 176.702C170.665 176.943 170.665 177.041 170.665 177.041Z" fill="#263238"/>
<path d="M88.387 197.231C88.479 197.241 88.5698 197.26 88.6582 197.287L89.4412 197.478C90.1317 197.626 91.1489 197.86 92.4805 198.021C96.2425 198.484 100.056 198.301 103.756 197.478C104.928 197.231 106.136 196.899 107.4 196.541L111.333 195.431L119.964 192.965C126.061 191.19 132.75 189.199 139.747 187.022C151.461 183.385 162.225 179.822 170.572 176.943L170.498 177.109C168.193 171.252 166.3 166.462 164.987 163.114C164.339 161.456 163.84 160.155 163.489 159.255C163.322 158.824 163.199 158.491 163.106 158.244C163.014 157.998 162.989 157.899 162.989 157.899C162.989 157.899 163.045 158.01 163.143 158.232C163.242 158.454 163.378 158.805 163.557 159.231L165.116 163.059L170.733 177.017L170.782 177.14L170.659 177.183C162.299 180.105 151.547 183.687 139.834 187.331C132.836 189.507 126.141 191.492 120.038 193.255L111.358 195.721L107.418 196.806C106.185 197.157 104.952 197.49 103.762 197.731C100.036 198.538 96.1975 198.69 92.4189 198.181C91.0475 197.995 89.6972 197.677 88.387 197.231Z" fill="#263238"/>
<path d="M101.445 167.479C101.168 167.552 100.885 167.596 100.6 167.609L98.2881 167.837L90.6682 168.583L83.0482 169.397L80.7364 169.637C80.4555 169.685 80.1702 169.702 79.8856 169.686C80.1598 169.606 80.4402 169.548 80.7241 169.514C81.2666 169.427 82.0495 169.31 83.0236 169.175C84.9656 168.903 87.6535 168.558 90.6312 168.268C93.6089 167.979 96.3153 167.744 98.2696 167.615C99.2498 167.547 100.045 167.504 100.594 167.479C100.877 167.455 101.161 167.455 101.445 167.479Z" fill="#263238"/>
<path d="M42.5749 229.283C40.8734 231.719 37.5566 230.911 36.0216 229.425C34.4865 227.939 33.8392 225.788 33.2473 223.735C31.8972 219.043 30.5347 214.124 31.5396 209.346C31.7853 207.896 32.4251 206.542 33.3891 205.431C33.8754 204.884 34.4972 204.474 35.192 204.244C35.8868 204.013 36.6301 203.97 37.347 204.118C39.0177 204.556 40.0535 206.189 40.8056 207.749C43.0163 212.343 44.1746 217.373 44.1963 222.471C44.1963 224.838 43.9251 227.329 42.5873 229.283" fill="#EBF0FF"/>
<g opacity="0.2">
<path opacity="0.2" d="M42.5749 229.283C40.8734 231.719 37.5566 230.911 36.0216 229.425C34.4865 227.939 33.8392 225.788 33.2473 223.735C31.8972 219.043 30.5347 214.124 31.5396 209.346C31.7853 207.896 32.4251 206.542 33.3891 205.431C33.8754 204.884 34.4972 204.474 35.192 204.244C35.8868 204.013 36.6301 203.97 37.347 204.118C39.0177 204.556 40.0535 206.189 40.8056 207.749C43.0163 212.343 44.1746 217.373 44.1963 222.471C44.1963 224.838 43.9251 227.329 42.5873 229.283" fill="black"/>
</g>
<path d="M36.1881 241.607C33.4015 240.171 30.1218 239.986 27.0269 240.498C25.3686 240.769 23.63 241.268 22.5018 242.52C21.3737 243.771 21.1579 245.966 22.4525 247.039C23.2917 247.602 24.3006 247.857 25.3069 247.76C27.7298 247.729 30.4177 247.304 32.3535 248.765C33.457 249.591 34.203 250.978 35.51 251.385C36.1694 251.539 36.8611 251.474 37.4806 251.201C38.1 250.927 38.6137 250.46 38.9439 249.868C39.5736 248.656 39.7127 247.247 39.3323 245.935C39.1783 245.02 38.8143 244.153 38.2687 243.402C37.7232 242.651 37.011 242.037 36.1881 241.607Z" fill="#EBF0FF"/>
<path d="M47.2544 232.779C45.4049 230.578 45.0535 227.379 45.8796 224.629C46.7057 221.879 48.5614 219.537 50.7007 217.626C53.2197 215.382 56.1511 213.651 59.3316 212.527C60.5622 212.025 61.8882 211.8 63.2156 211.867C63.8791 211.904 64.5233 212.104 65.0919 212.448C65.6605 212.792 66.136 213.27 66.4769 213.84C67.3893 215.573 66.5138 217.681 65.5706 219.389C63.909 222.411 62.0104 225.297 59.8926 228.02C58.1911 230.214 56.243 232.378 53.6537 233.371C51.0644 234.363 48.3641 234.246 46.9893 232.446" fill="#EBF0FF"/>
<path d="M42.6923 265.996C42.6002 265.635 42.5486 265.265 42.5382 264.892C42.458 264.091 42.3594 263.08 42.2422 261.878C42.091 260.39 41.8647 258.91 41.5641 257.445C41.1686 255.664 40.6306 253.918 39.955 252.223C39.2925 250.529 38.3938 248.937 37.2856 247.495C36.383 246.322 35.2312 245.364 33.9134 244.69C33.013 244.245 32.0472 243.947 31.0528 243.808C30.6825 243.792 30.3148 243.739 29.9554 243.648C30.3263 243.608 30.7004 243.608 31.0713 243.648C32.0978 243.726 33.1021 243.987 34.0367 244.418C35.4246 245.075 36.642 246.043 37.5938 247.248C38.7503 248.709 39.6832 250.334 40.3619 252.069C41.0439 253.792 41.5781 255.57 41.9586 257.383C42.2547 258.863 42.4606 260.36 42.5751 261.865C42.6738 263.148 42.7108 264.183 42.7231 264.898C42.7515 265.264 42.7412 265.632 42.6923 265.996Z" fill="#263238"/>
<path d="M42.4826 263.678C42.4513 263.509 42.441 263.337 42.4518 263.166C42.4518 262.778 42.4518 262.291 42.4518 261.693C42.4518 260.423 42.4518 258.579 42.384 256.305C42.273 251.755 41.8784 245.466 41.151 238.562C40.4235 231.657 39.3569 225.443 38.4507 220.985C38.2287 219.863 38.013 218.858 37.8342 217.977C37.6554 217.095 37.4704 216.337 37.3102 215.72C37.1499 215.104 37.0574 214.666 36.9649 214.29C36.9166 214.125 36.8856 213.956 36.8724 213.785C36.9525 213.937 37.0126 214.098 37.0512 214.266C37.1684 214.635 37.304 215.104 37.4828 215.671C37.6616 216.238 37.865 217.04 38.0993 217.921C38.3335 218.803 38.574 219.802 38.8144 220.918C40.0712 226.728 41.0158 232.601 41.6442 238.512C42.4025 245.436 42.7477 251.736 42.7785 256.298C42.7785 258.579 42.7785 260.429 42.6984 261.699C42.6614 262.315 42.6306 262.784 42.6059 263.166C42.5872 263.341 42.5458 263.513 42.4826 263.678Z" fill="#263238"/>
<path d="M42.4517 251.521C42.4126 251.012 42.4126 250.501 42.4517 249.992C42.5071 249.005 42.6428 247.581 42.9202 245.836C43.2557 243.797 43.7065 241.777 44.2703 239.789C44.9436 237.344 45.7882 234.95 46.798 232.625C48.5562 228.35 51.0753 224.429 54.2329 221.053C54.7789 220.476 55.3617 219.934 55.9776 219.432C56.2489 219.204 56.4832 218.976 56.7236 218.815L57.4017 218.347C57.8126 218.04 58.2453 217.764 58.6964 217.521C58.7704 217.625 56.8469 218.754 54.4672 221.3C51.4119 224.702 48.96 228.601 47.2172 232.828C46.2143 235.133 45.3658 237.501 44.6772 239.918C44.0964 241.89 43.6149 243.89 43.2346 245.91C42.9202 247.637 42.7353 249.048 42.6181 250.022C42.6033 250.525 42.5477 251.026 42.4517 251.521Z" fill="#263238"/>
<path d="M221.908 56.041C221.292 51.1522 217.167 46.5963 212.241 46.5963C209.338 46.5963 206.57 48.1129 204.585 50.2398C203.879 50.9548 203.229 51.7236 202.643 52.5393C202.225 51.6242 201.739 50.7421 201.188 49.9007C199.659 47.4347 197.248 45.3941 194.406 44.8208C189.573 43.859 184.629 47.5087 183.069 52.1818C181.509 56.8548 182.81 62.095 185.368 66.2996C187.927 70.5041 192.335 76.0094 200.454 78.7343C206.046 78.0192 213.542 73.0564 216.878 69.4314C220.213 65.8064 222.512 60.9299 221.908 56.041Z" fill="#3366FF"/>
<path d="M220.133 64.8138H219.972L219.498 64.783L217.648 64.6289L210.953 64.0124L211.07 63.9384L208.283 71.2131L208.111 71.6508L208 71.1946C207.155 67.662 206.2 63.7103 205.195 59.5428L204.289 55.7513L204.572 55.813L199.461 62.841L199.412 62.9027H199.357L187.588 61.6697L184.259 61.2998L183.377 61.1888L183.075 61.1333C183.177 61.1238 183.281 61.1238 183.383 61.1333L184.265 61.2011L187.606 61.4909L199.381 62.6006L199.252 62.6622L204.338 55.6157L204.541 55.3383L204.621 55.6712C204.917 56.9042 205.238 58.1803 205.534 59.4749C206.526 63.6425 207.47 67.6004 208.314 71.1329H208.031L210.879 63.8767L210.91 63.7966H210.996L217.685 64.5117L219.504 64.7275L219.972 64.7892L220.133 64.8138Z" fill="#FAFAFA"/>
<path d="M36.2764 152.03L46.2484 154.984L44.55 160.717C44.3434 161.415 43.868 162.002 43.2286 162.349C42.5892 162.696 41.838 162.775 41.1404 162.569L36.4115 161.168C35.7139 160.961 35.1269 160.486 34.7797 159.846C34.4325 159.207 34.3536 158.456 34.5602 157.758L36.2587 152.024L36.2764 152.03Z" fill="#3366FF"/>
<path opacity="0.3" d="M36.2766 152.03L46.2486 154.984L44.5484 160.723C44.3427 161.418 43.8695 162.002 43.233 162.348C42.5964 162.693 41.8487 162.772 41.1542 162.566L36.4253 161.165C36.0814 161.064 35.761 160.895 35.4822 160.669C35.2035 160.444 34.972 160.165 34.8009 159.85C34.6297 159.535 34.5223 159.189 34.4849 158.832C34.4474 158.476 34.4805 158.115 34.5824 157.771L36.2825 152.032L36.2766 152.03Z" fill="black"/>
<path d="M44.6898 160.716C42.9785 160.381 41.29 159.939 39.6345 159.391C37.9586 158.945 36.3115 158.398 34.7025 157.751C36.4133 158.091 38.1016 158.536 39.7578 159.083C41.433 159.528 43.0799 160.074 44.6898 160.716Z" fill="#263238"/>
<path d="M37.8344 158.626C37.8765 158.469 37.9494 158.321 38.0489 158.192C38.1485 158.063 38.2727 157.955 38.4143 157.874C38.5559 157.793 38.7122 157.741 38.874 157.721C39.0358 157.701 39.2 157.713 39.3571 157.757L41.3546 158.374C41.5094 158.423 41.6531 158.502 41.7773 158.607C41.9014 158.711 42.0037 158.84 42.0782 158.984C42.1527 159.128 42.1979 159.286 42.2112 159.448C42.2246 159.61 42.2058 159.773 42.156 159.927L37.8344 158.626Z" fill="#263238"/>
<path d="M45.8056 103.592L34.7086 149.465C34.4547 150.433 34.5825 151.462 35.0655 152.339C35.5486 153.215 36.35 153.873 37.3041 154.175L44.5726 156.333C45.5112 156.592 46.5127 156.49 47.3799 156.047C48.2471 155.604 48.9171 154.853 49.2579 153.941L66.6863 109.769L45.8056 103.592Z" fill="#3366FF"/>
<path d="M65.2497 113.406C65.2497 113.493 60.6506 112.21 55.0343 110.546C49.418 108.881 44.8806 107.463 44.9053 107.377C44.9299 107.291 49.5043 108.573 55.1268 110.238C60.7492 111.902 65.2743 113.32 65.2497 113.406Z" fill="#263238"/>
<path d="M46.5084 107.901C46.5396 107.24 46.677 106.589 46.9153 105.971C47.0544 105.322 47.2936 104.698 47.6243 104.122C47.5971 104.783 47.4617 105.435 47.2236 106.052C47.0873 106.703 46.8457 107.328 46.5084 107.901Z" fill="#263238"/>
<path d="M48.1666 108.388C48.3265 107.079 48.7036 105.806 49.2825 104.621C49.2513 105.282 49.1139 105.934 48.8756 106.551C48.7366 107.196 48.4974 107.816 48.1666 108.388Z" fill="#263238"/>
<path d="M49.8188 108.881C49.8501 108.22 49.9874 107.569 50.2257 106.952C50.3616 106.301 50.601 105.677 50.9347 105.102C50.9075 105.763 50.7722 106.415 50.534 107.032C50.3977 107.683 50.1561 108.308 49.8188 108.881Z" fill="#263238"/>
<path d="M51.4773 109.368C51.6372 108.059 52.0143 106.786 52.5932 105.601C52.4255 106.909 52.0488 108.181 51.4773 109.368Z" fill="#263238"/>
<path d="M53.1298 109.862C53.161 109.201 53.2984 108.549 53.5367 107.932C53.6726 107.281 53.9119 106.657 54.2456 106.082C54.2185 106.743 54.0831 107.395 53.8449 108.012C53.7086 108.663 53.4671 109.288 53.1298 109.862Z" fill="#263238"/>
<path d="M54.7881 110.348C54.948 109.039 55.3251 107.766 55.904 106.582C55.7364 107.889 55.3596 109.161 54.7881 110.348Z" fill="#263238"/>
<path d="M56.4401 110.842C56.4713 110.181 56.6087 109.529 56.847 108.912C56.9829 108.262 57.2222 107.637 57.5559 107.062C57.5288 107.723 57.3934 108.375 57.1552 108.992C57.0189 109.643 56.7774 110.268 56.4401 110.842Z" fill="#263238"/>
<path d="M58.0923 111.329C58.1272 110.668 58.2645 110.017 58.4992 109.399C58.6341 108.747 58.8757 108.122 59.2143 107.549C59.1794 108.21 59.0421 108.861 58.8074 109.479C58.6725 110.131 58.4309 110.756 58.0923 111.329Z" fill="#263238"/>
<path d="M59.7507 111.822C59.7775 111.161 59.9128 110.509 60.1515 109.892C60.291 109.242 60.5324 108.618 60.8666 108.043C60.8354 108.704 60.698 109.355 60.4597 109.972C60.3238 110.623 60.0844 111.247 59.7507 111.822Z" fill="#263238"/>
<path d="M61.4028 112.309C61.5705 111.002 61.9472 109.73 62.5187 108.542C62.3588 109.851 61.9817 111.124 61.4028 112.309Z" fill="#263238"/>
<path d="M63.0613 112.802C63.088 112.141 63.2234 111.489 63.462 110.872C63.5983 110.221 63.8398 109.596 64.1771 109.023C64.1459 109.684 64.0085 110.335 63.7703 110.953C63.6343 111.603 63.395 112.227 63.0613 112.802Z" fill="#263238"/>
<path d="M64.7137 113.289C64.8814 111.982 65.2581 110.71 65.8296 109.522C65.6698 110.831 65.2926 112.104 64.7137 113.289Z" fill="#263238"/>
<path d="M48.4874 127.573L49.2703 124.947L51.8658 125.718L51.1383 128.178L53.2591 128.8L52.4946 131.383L50.1458 130.693L49.4799 132.943L47.3099 132.296L48.025 129.879L45.4666 129.121L46.1447 126.834L48.4874 127.573Z" fill="white"/>
<path d="M54.7632 130.539C54.7263 130.539 54.8989 130.046 54.942 129.139C54.9935 127.861 54.6255 126.601 53.894 125.551C53.3961 124.833 52.732 124.245 51.9582 123.837C51.0669 123.38 50.0652 123.181 49.0668 123.264C47.9633 123.366 46.9155 123.795 46.0583 124.497C45.1361 125.247 44.4621 126.258 44.1243 127.398C43.7866 128.538 43.801 129.753 44.1656 130.884C44.5008 131.937 45.1453 132.865 46.0151 133.547C46.8088 134.158 47.7565 134.536 48.7524 134.639C49.623 134.72 50.5004 134.591 51.3109 134.262C52.5001 133.775 53.4949 132.908 54.1406 131.796C54.603 131.014 54.7201 130.514 54.7571 130.526C54.7447 130.649 54.7156 130.769 54.6708 130.884C54.5659 131.223 54.4254 131.549 54.2516 131.858C53.6194 133.02 52.6137 133.934 51.3972 134.454C50.494 134.84 49.5044 134.98 48.5296 134.858C47.5548 134.737 46.6296 134.359 45.8487 133.763C44.9233 133.051 44.2355 132.075 43.8759 130.964C43.4842 129.776 43.4631 128.497 43.8154 127.297C44.1678 126.097 44.8769 125.032 45.8487 124.244C46.7545 123.505 47.8643 123.06 49.0298 122.968C50.0808 122.883 51.1345 123.096 52.0691 123.585C52.8733 124.021 53.5605 124.645 54.0728 125.403C54.8045 126.492 55.1496 127.794 55.053 129.102C55.0283 129.457 54.9684 129.808 54.8742 130.15C54.8579 130.285 54.8204 130.416 54.7632 130.539Z" fill="white"/>
</svg>
