<svg width="491" height="389" viewBox="0 0 491 389" fill="none" xmlns="http://www.w3.org/2000/svg">
<path d="M424.531 292.747C446.216 247.278 404.593 201.185 329.993 163.843C255.393 126.5 276.802 96.3572 239.362 58.9564C201.922 21.5556 84.8148 34.8725 129.32 185.676C173.826 336.48 367.95 411.586 424.531 292.747Z" fill="#F5F7FF"/>
<path d="M152.178 332.211C150.9 334.095 148.351 333.503 147.161 332.379C145.97 331.254 145.452 329.611 144.97 328.041C143.889 324.463 142.779 320.738 143.509 317.028C143.684 315.917 144.159 314.874 144.882 314.012C145.251 313.589 145.724 313.271 146.255 313.087C146.785 312.904 147.354 312.863 147.906 312.968C149.184 313.297 149.994 314.538 150.586 315.721C152.321 319.223 153.254 323.067 153.317 326.975C153.471 328.795 153.074 330.619 152.178 332.211Z" fill="#3366FF"/>
<g opacity="0.2">
<path opacity="0.2" d="M152.178 332.211C150.9 334.095 148.351 333.503 147.161 332.379C145.97 331.254 145.452 329.611 144.97 328.041C143.889 324.463 142.779 320.738 143.509 317.028C143.684 315.917 144.159 314.874 144.882 314.012C145.251 313.589 145.724 313.271 146.255 313.087C146.785 312.904 147.354 312.863 147.906 312.968C149.184 313.297 149.994 314.538 150.586 315.721C152.321 319.223 153.254 323.067 153.317 326.975C153.471 328.795 153.074 330.619 152.178 332.211Z" fill="black"/>
</g>
<path d="M147.38 341.704C145.173 340.717 142.709 340.461 140.347 340.974C139.05 341.105 137.835 341.665 136.893 342.566C136.039 343.53 135.892 345.217 136.893 346.028C137.54 346.453 138.314 346.642 139.084 346.561C140.939 346.517 142.998 346.166 144.495 347.291C145.349 347.919 145.919 348.971 146.934 349.27C147.442 349.382 147.972 349.326 148.445 349.11C148.918 348.894 149.308 348.529 149.556 348.072C150.026 347.135 150.12 346.053 149.819 345.049C149.702 344.34 149.42 343.668 148.997 343.087C148.573 342.506 148.019 342.033 147.38 341.704Z" fill="#3366FF"/>
<path d="M155.778 334.84C155.096 333.971 154.637 332.949 154.44 331.862C154.242 330.775 154.313 329.657 154.646 328.603C155.345 326.501 156.608 324.632 158.297 323.199C160.207 321.454 162.44 320.099 164.87 319.212C165.809 318.817 166.824 318.633 167.842 318.672C168.349 318.69 168.844 318.833 169.284 319.088C169.723 319.343 170.093 319.701 170.361 320.132C171.092 321.454 170.427 323.053 169.719 324.397C168.472 326.73 167.043 328.962 165.447 331.072C164.161 332.773 162.686 334.446 160.707 335.227C158.728 336.008 156.661 335.957 155.595 334.584" fill="#3366FF"/>
<path d="M152.58 360.34C152.504 360.064 152.46 359.78 152.448 359.493C152.382 358.88 152.295 358.106 152.2 357.186C152.105 356.266 151.922 355.061 151.637 353.797C151.318 352.436 150.89 351.103 150.36 349.81C149.835 348.518 149.132 347.306 148.271 346.21C147.568 345.318 146.675 344.594 145.657 344.092C144.965 343.759 144.226 343.537 143.466 343.435C143.18 343.429 142.896 343.392 142.619 343.325C142.905 343.297 143.194 343.297 143.48 343.325C144.267 343.376 145.039 343.567 145.759 343.887C146.829 344.379 147.771 345.111 148.512 346.027C149.418 347.13 150.157 348.36 150.703 349.679C151.245 350.992 151.67 352.351 151.973 353.739C152.206 354.872 152.369 356.018 152.463 357.171C152.55 358.15 152.587 358.946 152.609 359.493C152.625 359.776 152.616 360.06 152.58 360.34Z" fill="#263238"/>
<path d="M152.396 358.566C152.379 358.435 152.379 358.303 152.396 358.172C152.396 357.88 152.396 357.507 152.396 357.047C152.396 356.069 152.396 354.659 152.294 352.914C152.17 349.431 151.812 344.618 151.169 339.331C150.527 334.044 149.709 329.29 148.979 325.879C148.803 325.025 148.621 324.258 148.46 323.586C148.299 322.915 148.161 322.33 148.037 321.856C147.912 321.381 147.832 321.052 147.759 320.768C147.718 320.642 147.694 320.512 147.686 320.38C147.745 320.497 147.791 320.62 147.825 320.746C147.912 321.03 148.029 321.381 148.161 321.819C148.292 322.257 148.467 322.863 148.65 323.535C148.833 324.207 149.022 324.996 149.22 325.828C150.235 330.27 151.013 334.763 151.549 339.287C152.192 344.582 152.513 349.409 152.572 352.907C152.615 354.659 152.572 356.069 152.572 357.047C152.572 357.507 152.528 357.88 152.513 358.172C152.494 358.309 152.455 358.442 152.396 358.566Z" fill="#263238"/>
<path d="M152.265 349.248C152.238 348.857 152.238 348.464 152.265 348.072C152.265 347.342 152.389 346.225 152.586 344.888C152.826 343.323 153.153 341.773 153.565 340.244C154.056 338.366 154.681 336.526 155.434 334.738C156.746 331.446 158.641 328.418 161.028 325.799C161.442 325.353 161.883 324.934 162.35 324.543C162.554 324.36 162.737 324.185 162.919 324.046L163.438 323.681C163.747 323.443 164.074 323.228 164.417 323.039C163.289 323.945 162.218 324.921 161.211 325.96C158.902 328.596 157.06 331.607 155.763 334.862C155.013 336.639 154.381 338.464 153.871 340.324C153.382 342.033 153.068 343.603 152.827 344.925C152.586 346.247 152.469 347.335 152.396 348.087C152.379 348.477 152.335 348.865 152.265 349.248Z" fill="#263238"/>
<path d="M293.008 160.042C292.433 160.604 291.67 160.932 290.868 160.963C290.085 160.985 289.305 161.056 288.531 161.174C288.13 161.245 287.751 161.407 287.423 161.648C287.095 161.888 286.827 162.201 286.64 162.562C286.475 162.965 286.417 163.404 286.47 163.836C286.524 164.268 286.688 164.68 286.946 165.03C287.192 165.353 287.509 165.614 287.873 165.794C288.236 165.974 288.637 166.067 289.042 166.067L293.008 164.424V160.042Z" fill="#EB996E"/>
<path d="M289.035 149.439C289.166 149.826 289.035 165.768 289.035 165.768L279.914 189.618C279.796 189.931 279.755 190.267 279.795 190.599C279.836 190.93 279.956 191.247 280.145 191.522C280.335 191.797 280.588 192.021 280.884 192.177C281.179 192.333 281.508 192.415 281.842 192.415H307.343C307.687 192.414 308.026 192.326 308.328 192.16C308.63 191.993 308.886 191.754 309.071 191.463C309.256 191.172 309.366 190.84 309.389 190.496C309.412 190.152 309.349 189.807 309.205 189.494L297.922 165.505V149.439H289.035Z" fill="#EBEBEB"/>
<path d="M289.034 149.439H289.173H289.604H291.312L297.885 149.381H297.98V149.483C297.98 153.572 297.98 159.064 298.031 165.549V165.483L305.626 181.549C306.312 183.01 307.018 184.504 307.744 186.033L308.824 188.341L309.372 189.509C309.566 189.942 309.617 190.425 309.518 190.889C309.413 191.358 309.162 191.78 308.801 192.097C308.44 192.413 307.988 192.607 307.51 192.649C306.604 192.649 305.743 192.649 304.844 192.649H282.498C282.221 192.649 281.972 192.649 281.673 192.649C281.383 192.63 281.1 192.553 280.84 192.423C280.323 192.164 279.926 191.716 279.731 191.172C279.537 190.628 279.56 190.029 279.796 189.502C279.979 189.012 280.169 188.53 280.351 188.041L281.439 185.2C284.316 177.737 286.858 171.128 288.917 165.783V165.826C288.961 160.714 289.005 156.647 289.034 153.828C289.063 151.009 289.034 149.497 289.034 149.497C289.034 149.497 289.034 149.592 289.078 149.775C289.122 149.958 289.078 150.257 289.078 150.607C289.078 151.338 289.114 152.419 289.122 153.828C289.122 156.632 289.122 160.714 289.122 165.826V165.87C287.091 171.223 284.572 177.847 281.731 185.325C281.381 186.259 281.001 187.209 280.65 188.173C280.468 188.655 280.285 189.137 280.095 189.633C279.898 190.081 279.877 190.587 280.037 191.05C280.199 191.511 280.534 191.891 280.972 192.109C281.435 192.294 281.937 192.362 282.432 192.306H304.801C305.684 192.306 306.59 192.306 307.437 192.306C307.734 192.282 308.022 192.187 308.275 192.029C308.528 191.87 308.739 191.654 308.891 191.397C309.043 191.14 309.13 190.85 309.147 190.552C309.163 190.254 309.108 189.956 308.985 189.684L308.445 188.523L307.43 186.157C306.714 184.628 306.01 183.131 305.319 181.666L297.783 165.6V165.563C297.783 159.079 297.819 153.587 297.834 149.497L297.936 149.592L291.364 149.534H289.626H289.019L289.034 149.439Z" fill="#263238"/>
<path d="M312.294 155.916C312.505 156.215 312.673 156.542 312.791 156.888C312.791 156.888 317.822 162.65 318.231 164.19C318.64 165.731 326.264 178.131 326.264 178.131L315.661 182.98C315.661 182.98 311.849 178.599 311.717 176.919C311.717 176.919 306.277 177.116 305.459 175.882C304.865 174.938 304.322 173.963 303.83 172.961C303.106 172.872 302.41 172.623 301.793 172.231C300.946 171.364 300.21 170.395 299.602 169.346C299.602 169.346 297.411 168.893 297.017 168.214C296.623 167.535 295.52 165.103 295.52 165.103C295.52 165.103 292.124 168.587 290.897 168.214C289.671 167.842 287.246 166.023 289.678 163.738L296.856 157.092C297.393 156.587 298.053 156.232 298.77 156.063L307.635 154.003C308.514 153.804 309.433 153.881 310.267 154.223C311.101 154.566 311.809 155.157 312.294 155.916Z" fill="#FFBE9D"/>
<path d="M295.52 165.074C295.52 165.03 296.06 164.526 296.892 163.613L298.353 161.999C298.63 161.693 298.923 161.371 299.244 161.05C299.406 160.883 299.576 160.724 299.755 160.575C299.85 160.493 299.953 160.419 300.062 160.356C300.18 160.298 300.302 160.249 300.427 160.21C302.238 159.648 303.881 159.151 305.079 158.815C305.715 158.598 306.37 158.439 307.036 158.341C306.436 158.646 305.807 158.89 305.159 159.071C303.983 159.473 302.355 160.006 300.544 160.575C300.142 160.726 299.785 160.978 299.507 161.306C299.193 161.62 298.893 161.934 298.616 162.226C298.054 162.825 297.542 163.358 297.09 163.796C296.637 164.302 296.107 164.733 295.52 165.074Z" fill="#EB996E"/>
<path d="M300.135 169.872C300.03 169.724 299.96 169.554 299.93 169.375C299.828 168.894 299.828 168.396 299.93 167.915C300.055 167.171 300.428 166.491 300.989 165.987C301.692 165.427 302.498 165.012 303.363 164.767C304.866 164.246 306.403 163.827 307.963 163.511C308.602 163.342 309.259 163.249 309.92 163.234C309.302 163.461 308.667 163.642 308.022 163.774C306.846 164.081 305.232 164.504 303.487 165.125C302.667 165.356 301.897 165.738 301.216 166.25C300.7 166.698 300.342 167.299 300.193 167.966C300.062 168.593 300.042 169.238 300.135 169.872Z" fill="#EB996E"/>
<path d="M304.027 173.268C303.926 173.034 303.882 172.779 303.9 172.525C303.918 172.271 303.996 172.025 304.129 171.807C304.374 171.305 304.753 170.88 305.225 170.58C305.787 170.229 306.4 169.968 307.043 169.806C308.615 169.278 310.227 168.875 311.863 168.601C310.324 169.239 308.74 169.762 307.123 170.164C306.516 170.329 305.934 170.575 305.392 170.894C304.961 171.154 304.602 171.518 304.348 171.953C304.147 172.363 304.037 172.811 304.027 173.268Z" fill="#EB996E"/>
<path d="M310.169 176.838C311.008 176.784 311.85 176.823 312.681 176.955C313.524 176.957 314.365 177.055 315.186 177.247C314.354 177.437 313.494 177.466 312.652 177.335C311.801 177.322 310.959 177.154 310.169 176.838Z" fill="#EB996E"/>
<path d="M287.596 173.012L281.469 189.275C281.398 189.463 281.373 189.665 281.398 189.865C281.422 190.064 281.496 190.254 281.611 190.418C281.726 190.583 281.88 190.716 282.059 190.807C282.238 190.898 282.437 190.944 282.638 190.94L306.218 190.692C306.424 190.69 306.625 190.636 306.805 190.537C306.984 190.437 307.136 190.294 307.246 190.12C307.357 189.947 307.422 189.749 307.436 189.544C307.45 189.339 307.413 189.134 307.328 188.947L300.135 173.012H287.596Z" fill="#3366FF"/>
<path d="M272.224 296.216L269.303 280.15L269.705 276.608L268.617 276.426L258.89 223.503L235.923 193.941L216.468 170.047L212.612 179.541C212.612 179.541 193.026 196.454 191.186 199.061C191.186 199.061 185.884 206.875 185.074 215.127C184.753 218.362 192.786 278.865 193.691 281.581C194.37 283.626 200.577 287.986 204.959 290.6C204.382 308.521 202.768 360.706 203.615 360.706L279.315 360.516L272.224 296.216Z" fill="#EBEBEB"/>
<path d="M261.525 211.322C261.525 211.322 258.604 197.206 258.838 196.768C259.071 196.329 252.265 179.657 252.265 179.657C252.265 179.657 249.972 172.026 249.972 172.055C249.972 172.084 218.79 166.783 218.79 166.783L217.271 171.493L258.86 224.072L263.117 246.623L267.499 240.474L261.525 211.322Z" fill="#3366FF"/>
<path d="M289.349 317.525L282.579 236.137L277.029 204.414C276.299 198.082 266.542 185.573 266.542 185.573L255.807 182.323C255.807 182.323 251.426 176.912 251.17 176.123L258.838 195.65L261.525 211.3L263.198 247.193L272.049 295.391L279.351 360.684L298.74 360.553L289.349 317.525Z" fill="#EBEBEB"/>
<path d="M263.862 222.714L267.499 196.016L255.807 182.294L251.17 176.094L258.356 196.768L263.862 222.714Z" fill="#EBEBEB"/>
<path d="M265.746 206.495C265.666 206.495 266.279 209.117 267.112 212.337C267.944 215.558 268.682 218.099 268.755 218.077C268.402 216.108 267.948 214.158 267.397 212.235C266.564 209.044 265.826 206.48 265.746 206.495Z" fill="#263238"/>
<path d="M275.13 224.54C275.306 225.688 275.154 226.863 274.692 227.928C274.459 228.477 274.112 228.969 273.674 229.372C273.236 229.775 272.716 230.079 272.15 230.265C271.383 230.507 270.566 230.546 269.779 230.379C268.992 230.211 268.261 229.842 267.659 229.309C265.877 227.629 264.475 223.539 264.848 220.816C265.096 218.939 266.25 216.952 268.068 216.434C269.082 216.16 270.159 216.236 271.124 216.651C272.089 217.066 272.886 217.795 273.385 218.72" fill="#E0E0E0"/>
<path d="M273.385 218.72C273.207 218.324 272.959 217.963 272.655 217.654C272.305 217.278 271.898 216.96 271.45 216.712C270.849 216.372 270.175 216.182 269.485 216.157C269.085 216.14 268.685 216.177 268.295 216.266C267.864 216.357 267.453 216.526 267.083 216.763C266.282 217.305 265.653 218.065 265.272 218.954C264.83 219.916 264.624 220.97 264.673 222.028C264.72 223.153 264.921 224.266 265.272 225.336C265.718 227.013 266.627 228.531 267.893 229.718C268.528 230.21 269.286 230.518 270.084 230.609C270.805 230.699 271.537 230.634 272.231 230.419C272.742 230.293 273.214 230.042 273.604 229.689C273.955 229.381 274.26 229.024 274.509 228.63C274.891 227.982 275.14 227.264 275.24 226.519C275.315 226.048 275.328 225.569 275.276 225.095C275.268 224.97 275.248 224.845 275.218 224.723C275.218 224.642 275.218 224.599 275.181 224.599C275.236 225.232 275.211 225.87 275.108 226.497C274.99 227.213 274.743 227.901 274.378 228.528C274.128 228.898 273.831 229.235 273.494 229.528C273.127 229.853 272.686 230.084 272.209 230.2C271.523 230.41 270.797 230.453 270.091 230.326C269.385 230.199 268.719 229.905 268.149 229.47C266.885 228.332 265.966 226.862 265.498 225.227C264.819 223.094 264.614 220.845 265.498 219.056C265.853 218.211 266.444 217.486 267.199 216.967C267.541 216.739 267.922 216.578 268.324 216.493C268.693 216.396 269.074 216.352 269.456 216.361C270.112 216.37 270.757 216.53 271.34 216.829C271.781 217.065 272.187 217.362 272.545 217.712C272.845 218.031 273.125 218.368 273.385 218.72Z" fill="#263238"/>
<path d="M276.452 224.314C276.628 225.462 276.476 226.636 276.014 227.702C275.781 228.25 275.434 228.742 274.996 229.145C274.558 229.548 274.038 229.853 273.473 230.039C272.705 230.281 271.888 230.32 271.101 230.152C270.314 229.985 269.584 229.616 268.981 229.082C267.2 227.403 265.798 223.313 266.17 220.589C266.418 218.712 267.572 216.726 269.39 216.208C270.405 215.935 271.481 216.012 272.446 216.427C273.41 216.842 274.207 217.57 274.707 218.493" fill="#E0E0E0"/>
<path d="M274.692 218.493C274.514 218.099 274.267 217.741 273.962 217.434C273.613 217.056 273.206 216.736 272.757 216.485C272.156 216.146 271.482 215.955 270.793 215.93C270.392 215.912 269.991 215.951 269.602 216.047C269.173 216.131 268.764 216.297 268.397 216.536C267.593 217.076 266.962 217.837 266.579 218.727C266.134 219.689 265.929 220.743 265.98 221.801C266.027 222.924 266.229 224.035 266.579 225.102C267.026 226.779 267.934 228.297 269.201 229.484C269.835 229.976 270.593 230.284 271.391 230.375C272.11 230.464 272.839 230.399 273.531 230.185C274.042 230.059 274.514 229.808 274.904 229.455C275.255 229.147 275.56 228.79 275.809 228.396C276.191 227.748 276.44 227.031 276.54 226.285C276.615 225.814 276.628 225.335 276.576 224.861C276.566 224.736 276.547 224.611 276.518 224.489C276.518 224.408 276.518 224.365 276.518 224.365C276.572 224.998 276.547 225.636 276.445 226.263C276.32 226.983 276.06 227.671 275.678 228.294C275.431 228.666 275.133 229.003 274.794 229.294C274.428 229.623 273.987 229.856 273.509 229.973C272.826 230.188 272.101 230.237 271.395 230.117C270.689 229.996 270.022 229.709 269.449 229.279C268.237 228.127 267.366 226.665 266.929 225.051C266.25 222.926 266.046 220.67 266.929 218.88C267.288 218.038 267.878 217.314 268.631 216.792C268.974 216.566 269.355 216.405 269.756 216.317C270.126 216.224 270.506 216.18 270.887 216.186C271.548 216.198 272.197 216.369 272.779 216.682C273.223 216.914 273.63 217.212 273.984 217.566C274.239 217.86 274.476 218.17 274.692 218.493Z" fill="#263238"/>
<path d="M272.428 218.428C273.015 218.197 273.661 218.163 274.269 218.33C274.877 218.497 275.415 218.857 275.802 219.355C276.552 220.385 276.881 221.662 276.722 222.926C276.689 223.567 276.523 224.194 276.233 224.766C275.935 225.343 275.424 225.78 274.809 225.986C274.349 226.082 273.872 226.066 273.42 225.939C272.967 225.812 272.552 225.577 272.209 225.256C271.627 224.764 271.159 224.153 270.836 223.463C270.513 222.774 270.344 222.022 270.34 221.261C270.34 220.253 270.792 219.07 271.764 218.815" fill="#E0E0E0"/>
<path d="M271.763 218.8C271.687 218.8 271.612 218.818 271.544 218.851C271.342 218.933 271.158 219.055 271.004 219.209C270.743 219.508 270.544 219.855 270.418 220.231C270.293 220.607 270.244 221.005 270.274 221.4C270.299 222.59 270.723 223.737 271.479 224.657C271.917 225.209 272.48 225.65 273.122 225.942C273.471 226.115 273.858 226.202 274.248 226.194C274.638 226.186 275.021 226.085 275.364 225.898C276.022 225.487 276.498 224.839 276.693 224.087C276.873 223.412 276.945 222.712 276.904 222.013C276.897 221.418 276.768 220.831 276.525 220.287C276.283 219.744 275.932 219.255 275.495 218.851C275.196 218.591 274.848 218.393 274.472 218.268C274.096 218.142 273.699 218.092 273.304 218.121C273.087 218.139 272.875 218.193 272.676 218.282C272.545 218.347 272.479 218.384 272.486 218.391C272.756 218.314 273.032 218.26 273.312 218.231C274.072 218.205 274.815 218.465 275.393 218.961C275.795 219.353 276.115 219.822 276.332 220.34C276.549 220.858 276.659 221.415 276.656 221.977C276.693 222.641 276.622 223.307 276.444 223.949C276.269 224.629 275.841 225.217 275.247 225.592C274.943 225.753 274.605 225.84 274.262 225.846C273.918 225.853 273.577 225.778 273.268 225.628C272.665 225.356 272.134 224.946 271.719 224.431C270.99 223.56 270.564 222.476 270.507 221.341C270.438 220.58 270.666 219.821 271.143 219.224C271.325 219.049 271.534 218.906 271.763 218.8Z" fill="#263238"/>
<path d="M272.012 228.133C272.056 228.133 272.07 227.929 272.202 227.666C272.377 227.318 272.645 227.024 272.976 226.819C273.324 226.619 273.694 226.46 274.079 226.344C274.378 226.242 274.561 226.169 274.553 226.125C274.546 226.081 274.349 226.088 274.027 226.125C273.602 226.186 273.193 226.33 272.823 226.548C272.436 226.781 272.146 227.143 272.005 227.571C271.91 227.921 271.975 228.133 272.012 228.133Z" fill="#263238"/>
<path d="M269.047 218.515C269.047 218.515 269.179 218.691 269.485 218.822C269.891 218.992 270.332 219.062 270.771 219.027C271.209 218.99 271.633 218.855 272.012 218.632C272.29 218.45 272.421 218.289 272.399 218.26C271.87 218.483 271.316 218.642 270.749 218.734C270.175 218.73 269.603 218.657 269.047 218.515Z" fill="#263238"/>
<path d="M246.321 238.356C244.824 238.78 243.174 237.685 241.72 238.247C241.407 238.316 241.113 238.454 240.858 238.649C240.604 238.845 240.395 239.094 240.248 239.38C240.1 239.665 240.017 239.979 240.005 240.3C239.992 240.62 240.05 240.94 240.175 241.236C240.299 241.532 240.487 241.797 240.725 242.012C240.964 242.227 241.246 242.387 241.553 242.481C241.86 242.575 242.184 242.6 242.502 242.555C242.82 242.51 243.124 242.395 243.393 242.22C244.853 241.533 245.196 239.43 246.606 238.568" fill="#263238"/>
<path d="M234.22 243.666C234.678 243.515 235.124 243.332 235.557 243.118L235.308 242.636C234.585 243.059 233.783 243.329 232.952 243.431C232.121 243.532 231.278 243.463 230.474 243.228C228.604 242.607 226.998 240.942 225.683 238.277L225.632 238.174C225.106 237.116 217.826 215.426 216.489 211.293C214.393 204.838 219.775 202.121 220.009 202.011C220.243 201.902 225.121 199.36 230.109 205.531C235.359 211.987 244.546 224.73 245.386 226.3C245.488 226.497 245.627 226.731 245.788 227.03C246.956 229.009 249.381 233.136 247.248 236.655C244.868 240.577 241.91 240.307 241.786 240.307L241.727 240.84C241.866 240.84 245.138 241.169 247.708 236.94C250.009 233.143 247.467 228.834 246.248 226.768C246.094 226.505 245.956 226.271 245.861 226.088C245.006 224.504 235.79 211.702 230.525 205.225C225.26 198.747 219.819 201.537 219.761 201.573C218.031 202.484 216.692 203.994 215.995 205.821C215.299 207.648 215.293 209.666 215.978 211.498C217.081 214.901 224.595 237.335 225.15 238.452L225.201 238.554C226.582 241.351 228.298 243.111 230.313 243.776C231.593 244.163 232.964 244.124 234.22 243.666Z" fill="#263238"/>
<path d="M217.585 215.521C217.532 214.556 217.613 213.587 217.826 212.644C218.428 210.373 219.889 208.424 221.901 207.211C223.924 206.025 226.297 205.583 228.612 205.962C229.565 206.141 230.492 206.438 231.372 206.846C231.372 206.846 231.321 206.794 231.211 206.721C231.102 206.648 230.927 206.546 230.693 206.444C230.046 206.127 229.358 205.901 228.648 205.772C227.597 205.565 226.518 205.538 225.457 205.692C224.148 205.859 222.888 206.294 221.754 206.97C220.625 207.653 219.658 208.576 218.921 209.672C218.321 210.56 217.886 211.55 217.636 212.593C217.472 213.298 217.412 214.024 217.461 214.747C217.472 214.941 217.499 215.134 217.541 215.324C217.546 215.391 217.561 215.458 217.585 215.521Z" fill="#263238"/>
<path d="M212.589 179.555L236.98 209.774L258.837 223.496L216.438 170.047L212.589 179.555Z" fill="#EBEBEB"/>
<path d="M213.765 219.063C213.663 219.107 212.984 217.69 211.881 215.412C210.522 212.441 208.805 209.648 206.769 207.094C204.716 204.577 202.029 202.654 198.985 201.522C196.633 200.711 195.034 200.792 195.041 200.667C195.396 200.551 195.772 200.512 196.144 200.551C197.163 200.564 198.176 200.719 199.152 201.011C202.381 202.033 205.239 203.977 207.375 206.604C209.456 209.206 211.141 212.1 212.378 215.192C213.356 217.559 213.86 219.019 213.765 219.063Z" fill="#263238"/>
<path d="M207.236 269.919C207.076 269.824 209.427 266.947 213.612 265.369C217.796 263.792 221.448 264.311 221.389 264.493C221.331 264.676 217.847 264.537 213.882 266.085C209.917 267.633 207.397 270.138 207.236 269.919Z" fill="#263238"/>
<path d="M211.867 274.651C211.684 274.651 212.634 271.219 215.62 268.203C218.607 265.187 221.974 264.128 221.996 264.311C222.018 264.493 218.987 265.822 216.154 268.736C213.32 271.65 212.086 274.754 211.867 274.651Z" fill="#263238"/>
<path d="M258.837 223.496C258.25 223.233 257.683 222.925 257.143 222.575L252.557 219.822L236.79 210.088H236.739L236.696 210.044L229.393 200.989C222.645 192.627 216.598 185.061 212.414 179.752L212.312 179.628L212.37 179.49L215.291 172.559C215.627 171.829 215.897 171.208 216.124 170.704C216.202 170.482 216.313 170.273 216.452 170.084C216.422 170.319 216.356 170.548 216.255 170.763C216.073 171.274 215.839 171.909 215.561 172.669C214.882 174.421 213.962 176.788 212.845 179.687L212.801 179.424C217.11 184.638 223.229 192.145 229.977 200.507L237.28 209.584L237.192 209.504C243.451 213.506 248.876 216.952 252.813 219.472L257.289 222.393C257.836 222.716 258.354 223.085 258.837 223.496Z" fill="#263238"/>
<path d="M262.394 229.17C262.386 228.512 262.437 227.854 262.548 227.205C262.723 225.811 262.949 224.014 263.227 221.845C263.833 217.303 264.724 210.993 265.768 203.895L265.812 204.129L264.352 201.434C260.62 194.489 257.275 188.18 254.858 183.594L252.105 178.124C251.736 177.468 251.423 176.781 251.17 176.072C251.624 176.671 252.025 177.309 252.368 177.978L255.369 183.316C257.881 187.829 261.299 194.102 265.031 201.047L266.491 203.749L266.55 203.859V203.983C265.483 211.081 264.505 217.376 263.767 221.896C263.395 224.051 263.088 225.84 262.855 227.227C262.769 227.889 262.615 228.54 262.394 229.17Z" fill="#263238"/>
<path d="M217.644 202.953L218.907 202.223L217.644 202.953C215.564 199.691 213.741 196.273 212.189 192.729L211.926 192.101C210.465 188.501 208.742 184.412 209.457 180.468V180.366C209.831 178.643 210.779 177.098 212.145 175.984L212.554 175.641H213.766V177.919L214.029 178.241C213.936 178.315 213.848 178.396 213.766 178.482V178.584H213.649C212.98 179.237 212.525 180.077 212.342 180.994V181.082C211.809 184.156 213.313 187.793 214.642 190.999L214.905 191.634C216.413 195.041 218.181 198.327 220.192 201.463L217.644 202.953Z" fill="#263238"/>
<path d="M252.587 327.165C252.308 327.524 251.984 327.846 251.623 328.122C250.951 328.699 249.965 329.509 248.702 330.488C245.457 333.056 242.041 335.401 238.478 337.506C236.494 338.638 234.443 339.648 232.336 340.529C230.607 341.231 228.827 341.802 227.013 342.238C225.792 342.545 224.549 342.757 223.295 342.873C222.84 342.955 222.375 342.969 221.915 342.917C221.915 342.778 223.85 342.566 226.874 341.712C228.642 341.211 230.377 340.596 232.066 339.872C234.128 338.971 236.139 337.96 238.091 336.841C242.246 334.431 245.788 331.883 248.358 330.05C250.929 328.217 252.521 327.099 252.587 327.165Z" fill="#263238"/>
<path d="M254.829 332.89C254.622 333.322 254.357 333.722 254.04 334.08C253.257 335.109 252.409 336.084 251.499 337.002C245.451 343.195 237.63 347.359 229.116 348.92C227.84 349.161 226.549 349.317 225.253 349.387C224.768 349.454 224.277 349.454 223.792 349.387C223.792 349.248 225.808 349.088 228.984 348.394C237.291 346.577 244.937 342.506 251.082 336.629C253.463 334.402 254.727 332.803 254.829 332.89Z" fill="#263238"/>
<path d="M223.383 349.92C223.179 349.92 222.821 348.138 222.595 345.889C222.368 343.64 222.354 341.807 222.558 341.785C222.763 341.763 223.128 343.567 223.354 345.816C223.581 348.065 223.595 349.898 223.383 349.92Z" fill="#263238"/>
<path d="M326.249 178.124C326.249 178.124 335.203 200.259 335.933 205.94C336.663 211.622 336.897 216.894 336.897 216.894L326.249 224.328L316.756 212.973L315.631 182.98L326.249 178.124Z" fill="#FFBE9D"/>
<path d="M332.142 182.958C332.142 182.958 336.611 203.523 336.896 204.311C337.181 205.1 338.904 211.081 338.904 211.081V221.94C338.904 221.94 338.4 230.857 332.828 232.66C327.256 234.464 307.269 232.354 307.269 232.354C307.269 232.354 299.426 230.733 297.702 230.397C295.979 230.061 278.869 223.152 278.869 223.152L265.497 185.383L272.34 186.471L298.162 201.208C298.162 201.208 300.273 200.244 301.244 200.697C302.215 201.149 315.156 204.991 315.156 204.991C315.156 204.991 311.147 185.273 311.833 185.383C312.519 185.492 332.142 182.958 332.142 182.958Z" fill="#EBEBEB"/>
<path d="M279.964 360.48C279.954 360.422 279.954 360.362 279.964 360.304C279.964 360.166 279.964 359.99 279.913 359.786C279.913 359.297 279.84 358.625 279.781 357.785C279.679 356.04 279.504 353.527 279.248 350.424C278.993 347.32 278.627 343.632 278.182 339.535C277.736 335.439 277.167 330.955 276.546 326.245C275.29 316.817 274.078 308.294 273.296 302.146C272.902 299.049 272.566 296.552 272.405 294.843C272.318 294.003 272.245 293.339 272.194 292.849C272.194 292.637 272.194 292.47 272.15 292.331C272.141 292.27 272.141 292.209 272.15 292.148C272.173 292.204 272.185 292.263 272.186 292.323C272.186 292.462 272.238 292.63 272.274 292.842C272.34 293.324 272.435 293.988 272.552 294.828C272.8 296.588 273.136 299.071 273.559 302.131C274.414 308.302 275.663 316.817 276.926 326.23C277.547 330.94 278.087 335.439 278.532 339.535C278.978 343.632 279.299 347.327 279.511 350.438C279.723 353.549 279.876 356.069 279.927 357.807C279.927 358.654 279.978 359.326 279.993 359.815C279.993 360.027 279.993 360.195 279.993 360.341C279.99 360.388 279.981 360.435 279.964 360.48Z" fill="#263238"/>
<path d="M201.65 188.961L201.3 189.297L200.263 190.268L196.202 194.007C195.326 194.833 194.304 195.716 193.281 196.753C192.162 197.898 191.169 199.159 190.316 200.514C189.37 202.108 188.542 203.771 187.841 205.487C186.996 207.402 186.279 209.371 185.694 211.381C185.376 212.462 185.171 213.573 185.08 214.696C185.047 215.277 185.079 215.86 185.175 216.434C185.256 217.025 185.343 217.624 185.424 218.223C185.752 220.64 186.103 223.152 186.461 225.774C187.191 231.01 187.921 236.648 188.768 242.643C190.404 254.627 192.237 268.028 194.209 282.45L194.136 282.334C197.057 284.524 200.051 286.715 203.176 288.906C204.728 290.016 206.35 291.024 208.033 291.922L213.605 293.638C221.119 295.982 228.882 298.37 236.849 300.598C241.859 301.985 246.825 303.322 251.761 304.432C254.23 304.972 256.683 305.498 259.137 305.892C261.548 306.322 263.991 306.549 266.44 306.571L266.265 306.739C267.433 296.26 268.558 286.219 269.617 276.762L269.763 276.952L228.751 269.97H228.714C226.414 267.874 224.259 265.924 222.076 264.281H222.032V264.23C220.221 253.028 218.79 244.111 217.797 237.992C217.322 234.932 216.957 232.573 216.701 230.974C216.446 229.374 216.336 228.505 216.38 228.571C216.533 229.506 218.571 241.92 222.273 264.194L222.222 264.113C224.413 265.764 226.604 267.706 228.904 269.795H228.838L269.858 276.711H270.018V276.879C268.974 286.328 267.827 296.369 266.688 306.856V307.017H266.528C264.049 307.001 261.577 306.774 259.137 306.338C256.669 305.951 254.208 305.418 251.732 304.877C246.788 303.774 241.822 302.438 236.805 301.043C228.831 298.816 221.068 296.428 213.554 294.076L207.938 292.346C206.237 291.436 204.598 290.416 203.03 289.293C199.898 287.102 196.889 284.912 193.975 282.721L193.917 282.677V282.604L188.454 242.68C187.644 236.684 186.884 231.039 186.176 225.803C185.825 223.179 185.489 220.674 185.168 218.289C185.088 217.683 185.007 217.084 184.934 216.5C184.833 215.911 184.802 215.313 184.839 214.718C184.932 213.579 185.143 212.454 185.467 211.359C186.067 209.341 186.799 207.365 187.658 205.443C188.366 203.721 189.205 202.056 190.17 200.463C191.033 199.101 192.039 197.835 193.172 196.687C194.231 195.643 195.253 194.774 196.137 193.956L200.234 190.261L201.292 189.312C201.519 189.078 201.65 188.961 201.65 188.961Z" fill="#263238"/>
<path d="M245.087 272.446L273.195 232.799L322.386 247.682L285.171 295.807L268.324 292.55L269.872 276.63L245.087 272.446Z" fill="#3366FF"/>
<path d="M308.015 245.827C308.015 246.069 307.943 246.304 307.809 246.505C307.675 246.706 307.485 246.862 307.262 246.954C307.039 247.046 306.794 247.071 306.557 247.024C306.321 246.977 306.103 246.86 305.933 246.69C305.762 246.519 305.646 246.302 305.599 246.065C305.552 245.829 305.576 245.584 305.668 245.361C305.761 245.138 305.917 244.947 306.117 244.813C306.318 244.679 306.554 244.608 306.795 244.608C306.955 244.607 307.114 244.638 307.263 244.699C307.411 244.76 307.546 244.85 307.66 244.963C307.773 245.076 307.863 245.211 307.924 245.36C307.985 245.508 308.016 245.667 308.015 245.827Z" fill="#263238"/>
<path d="M288.355 240.336C288.357 240.577 288.286 240.814 288.153 241.015C288.02 241.217 287.83 241.374 287.607 241.468C287.385 241.561 287.139 241.586 286.902 241.54C286.665 241.494 286.447 241.378 286.276 241.208C286.105 241.038 285.988 240.82 285.94 240.584C285.892 240.347 285.916 240.101 286.008 239.878C286.1 239.655 286.257 239.464 286.457 239.33C286.658 239.195 286.894 239.124 287.136 239.124C287.458 239.124 287.767 239.251 287.995 239.478C288.224 239.705 288.353 240.014 288.355 240.336Z" fill="#263238"/>
<path d="M269.536 278.244L272.063 277.806C272.063 277.806 272.866 273.965 273.874 273.161C274.882 272.358 284.996 267.743 287.216 266.538C289.436 265.333 298.119 261.367 299.207 263.471C300.442 265.851 296.907 267.808 294.994 268.714C293.08 269.62 287.603 271.745 288.713 273.059C289.823 274.374 302.048 273.789 302.048 273.789L303.582 271.737C303.582 271.737 306.276 274.286 305.97 276.506C305.817 277.792 305.407 279.033 304.765 280.157H303.852C304.109 280.544 304.254 280.994 304.272 281.457C304.29 281.921 304.18 282.381 303.954 282.786C303.226 283.856 302.416 284.867 301.53 285.81C301.53 285.81 300.069 288.833 295.775 290.016C295.271 290.155 275.079 291.907 275.079 291.907L268.317 292.587L269.536 278.244Z" fill="#FFBE9D"/>
<path d="M224.055 105.396C217.008 107.412 211.261 112.327 211.45 119.659C211.531 122.937 212.502 126.56 210.64 129.269C211.076 129.137 211.474 128.903 211.801 128.587C212.129 128.271 212.377 127.881 212.524 127.451C213.707 132.102 213.897 139.033 217.789 141.844" fill="#263238"/>
<path d="M219.074 136.9C218.877 136.813 210.939 134.651 211.341 142.706C211.743 150.761 219.746 148.687 219.754 148.453C219.761 148.22 219.074 136.9 219.074 136.9Z" fill="#FFBE9D"/>
<path d="M217.139 145.524C217.139 145.524 217 145.634 216.774 145.751C216.446 145.908 216.071 145.936 215.722 145.831C214.853 145.561 214.072 144.247 213.963 142.793C213.905 142.106 214.005 141.414 214.255 140.77C214.316 140.514 214.439 140.277 214.614 140.08C214.788 139.882 215.008 139.731 215.255 139.639C215.414 139.591 215.585 139.599 215.739 139.661C215.893 139.724 216.021 139.837 216.102 139.982C216.219 140.201 216.175 140.361 216.219 140.376C216.263 140.391 216.387 140.23 216.307 139.901C216.251 139.704 216.13 139.532 215.963 139.412C215.732 139.257 215.449 139.197 215.175 139.244C214.848 139.328 214.549 139.493 214.303 139.724C214.058 139.956 213.876 140.245 213.773 140.566C213.467 141.282 213.339 142.061 213.4 142.837C213.532 144.458 214.437 145.933 215.591 146.211C215.81 146.263 216.038 146.265 216.258 146.217C216.478 146.169 216.684 146.072 216.862 145.933C217.132 145.722 217.168 145.539 217.139 145.524Z" fill="#EB996E"/>
<path d="M260.466 151.871C260.466 146.182 259.407 134.468 258.356 123.872C257.812 118.38 255.219 113.294 251.095 109.626C246.97 105.959 241.615 103.98 236.097 104.082H234.958C222.711 105.024 216.701 115.949 217.957 128.181L219.673 167.17L248.884 183.192L248.789 165.709C248.789 165.709 260.539 163.657 260.466 151.871Z" fill="#FFBE9D"/>
<path d="M248.804 165.709C243.366 165.907 237.991 164.481 233.366 161.612C233.366 161.612 237.076 170.164 248.811 168.915L248.804 165.709Z" fill="#EB996E"/>
<path d="M255.486 132.657C255.496 133.095 255.336 133.52 255.039 133.841C254.741 134.163 254.331 134.356 253.894 134.381C253.682 134.403 253.468 134.382 253.264 134.321C253.06 134.259 252.871 134.157 252.707 134.021C252.543 133.885 252.408 133.717 252.309 133.528C252.211 133.339 252.151 133.133 252.134 132.92C252.12 132.482 252.278 132.056 252.574 131.732C252.87 131.409 253.281 131.214 253.719 131.19C253.931 131.168 254.146 131.19 254.35 131.252C254.555 131.315 254.745 131.417 254.909 131.554C255.073 131.691 255.209 131.858 255.308 132.048C255.407 132.237 255.468 132.444 255.486 132.657Z" fill="#263238"/>
<path d="M256.092 129.057C255.895 129.283 254.631 128.363 252.791 128.4C250.951 128.436 249.665 129.371 249.468 129.13C249.366 129.035 249.57 128.634 250.147 128.203C250.92 127.645 251.845 127.339 252.798 127.326C253.74 127.307 254.663 127.589 255.434 128.13C256.004 128.568 256.194 128.962 256.092 129.057Z" fill="#263238"/>
<path d="M238.536 132.657C238.548 133.096 238.389 133.521 238.091 133.843C237.794 134.165 237.382 134.358 236.944 134.381C236.733 134.402 236.519 134.381 236.315 134.319C236.112 134.256 235.923 134.154 235.759 134.018C235.595 133.883 235.46 133.716 235.362 133.527C235.263 133.338 235.203 133.132 235.184 132.92C235.17 132.481 235.329 132.053 235.627 131.73C235.925 131.406 236.337 131.212 236.776 131.189C236.989 131.168 237.203 131.19 237.407 131.253C237.611 131.315 237.8 131.418 237.964 131.554C238.128 131.691 238.263 131.859 238.361 132.048C238.459 132.238 238.519 132.445 238.536 132.657Z" fill="#263238"/>
<path d="M238.04 128.882C237.865 129.13 236.477 128.356 234.681 128.59C232.884 128.823 231.687 129.89 231.46 129.692C231.351 129.605 231.511 129.189 232.037 128.699C232.744 128.059 233.632 127.653 234.579 127.538C235.513 127.421 236.461 127.6 237.288 128.049C237.894 128.4 238.135 128.772 238.04 128.882Z" fill="#263238"/>
<path d="M244.955 143.655C244.955 143.553 246.073 143.334 247.876 143.071C248.336 143.012 248.775 142.917 248.84 142.596C248.876 142.118 248.761 141.64 248.512 141.231C248.054 140.121 247.567 138.957 247.051 137.74C245.058 132.759 243.604 128.663 243.809 128.582C244.013 128.502 245.788 132.475 247.774 137.455L249.154 140.975C249.455 141.528 249.551 142.169 249.425 142.786C249.361 142.947 249.263 143.093 249.137 143.212C249.01 143.33 248.859 143.419 248.694 143.472C248.438 143.548 248.173 143.59 247.906 143.597C246.102 143.728 244.97 143.757 244.955 143.655Z" fill="#263238"/>
<path d="M239.654 145.006C239.946 145.006 239.982 146.949 241.691 148.314C243.4 149.68 245.488 149.424 245.51 149.695C245.51 149.819 245.05 150.089 244.167 150.126C243.015 150.169 241.885 149.798 240.983 149.081C240.111 148.4 239.542 147.403 239.398 146.306C239.303 145.488 239.515 144.999 239.654 145.006Z" fill="#263238"/>
<path d="M238.149 121.068C237.974 121.565 236.163 121.36 234.045 121.66C231.927 121.959 230.218 122.565 229.926 122.127C229.795 121.915 230.087 121.448 230.773 120.958C231.682 120.348 232.724 119.962 233.811 119.834C234.895 119.681 236 119.791 237.032 120.155C237.82 120.433 238.222 120.834 238.149 121.068Z" fill="#263238"/>
<path d="M255.172 124.456C254.858 124.873 253.602 124.456 252.104 124.456C250.607 124.456 249.337 124.785 249.037 124.361C248.906 124.157 249.096 123.741 249.643 123.339C250.375 122.844 251.243 122.589 252.126 122.609C253.009 122.603 253.87 122.876 254.587 123.39C255.12 123.828 255.274 124.252 255.172 124.456Z" fill="#263238"/>
<path d="M244.722 102.826C240.552 101.19 236.331 102.052 231.906 102.702C228.496 103.133 225.251 104.424 222.478 106.455C217.994 109.764 215.781 115.029 215.54 120.594C215.299 125.954 215.893 131.32 217.3 136.499L217.739 136.404C217.468 137.762 217.205 139.201 217.68 140.501C218.155 141.801 219.659 142.83 220.93 142.275C222.39 141.625 222.463 139.581 222.325 137.967C221.919 132.522 221.897 127.056 222.259 121.609C222.493 117.541 224.815 112.553 227.992 110.655C233.768 106.806 241.297 109.924 243.853 110.392C247.767 107.04 251.433 109.661 253.829 112.582C252.93 108.128 248.885 104.469 244.722 102.826Z" fill="#263238"/>
<path d="M224.523 110.406C226.06 109.184 227.987 108.557 229.949 108.64C231.911 108.723 233.778 109.511 235.206 110.859C236.353 112.012 237.127 113.495 238.325 114.583C240.873 116.883 244.685 116.898 248.11 116.774C247.073 116.386 246.206 115.644 245.664 114.678C247.785 115.866 250.131 116.594 252.552 116.817C254.972 117.04 257.412 116.751 259.714 115.971C257.282 109.493 251.623 103.264 244.897 101.628C238.171 99.9922 229.189 100.744 224.055 105.389" fill="#263238"/>
<path d="M258.122 115.868C257.999 115.908 257.871 115.93 257.742 115.934C257.487 115.934 257.114 115.985 256.632 116C255.26 116.011 253.893 115.83 252.572 115.46C250.605 114.91 248.769 113.969 247.175 112.692C245.372 111.231 243.882 109.179 242.158 107.229C241.337 106.27 240.397 105.418 239.361 104.695C238.391 104.04 237.306 103.572 236.163 103.315C234.203 102.93 232.186 102.93 230.226 103.315C228.539 103.607 227.195 103.98 226.268 104.221L225.194 104.513C225.072 104.554 224.944 104.579 224.814 104.586C224.927 104.52 225.047 104.469 225.172 104.432C225.413 104.352 225.764 104.228 226.224 104.082C227.52 103.664 228.839 103.32 230.175 103.052C232.172 102.621 234.235 102.594 236.243 102.972C237.43 103.231 238.557 103.711 239.566 104.389C240.631 105.124 241.598 105.993 242.443 106.974C244.189 108.953 245.649 110.998 247.402 112.414C248.948 113.683 250.734 114.63 252.652 115.197C253.945 115.587 255.283 115.808 256.632 115.854C257.589 115.883 258.122 115.832 258.122 115.868Z" fill="#455A64"/>
<path d="M246.789 116.876C246.695 116.895 246.598 116.895 246.504 116.876C246.241 116.852 245.98 116.81 245.723 116.752C244.765 116.536 243.846 116.174 242.999 115.678C241.756 114.936 240.606 114.049 239.574 113.035C238.391 111.903 237.222 110.559 235.922 109.23C234.735 107.956 233.364 106.865 231.855 105.995C230.611 105.316 229.232 104.919 227.816 104.834C226.861 104.78 225.905 104.93 225.012 105.272C224.384 105.52 224.07 105.747 224.048 105.71C224.026 105.674 224.114 105.645 224.267 105.535C224.482 105.379 224.712 105.244 224.954 105.133C225.853 104.724 226.836 104.529 227.824 104.564C229.288 104.614 230.721 104.996 232.016 105.681C233.568 106.553 234.977 107.659 236.193 108.96C237.507 110.304 238.668 111.655 239.844 112.779C240.846 113.792 241.961 114.686 243.167 115.445C244.287 116.119 245.511 116.602 246.789 116.876Z" fill="#455A64"/>
<path d="M210.786 127.187C211.795 126.456 212.697 125.589 213.466 124.61C214.265 123.524 214.941 122.353 215.482 121.119C216.11 119.724 216.658 118.132 217.278 116.467C217.832 114.883 218.533 113.355 219.374 111.903C220.081 110.719 220.98 109.66 222.033 108.77C222.743 108.17 223.551 107.696 224.421 107.368C224.658 107.278 224.902 107.208 225.151 107.156C225.236 107.143 225.322 107.143 225.406 107.156C224.236 107.575 223.152 108.203 222.208 109.011C221.203 109.907 220.348 110.957 219.674 112.122C218.862 113.563 218.18 115.073 217.636 116.635C217.016 118.293 216.461 119.892 215.803 121.294C215.242 122.548 214.528 123.728 213.678 124.807C213.1 125.534 212.424 126.178 211.67 126.72C211.463 126.863 211.248 126.994 211.027 127.114C210.951 127.149 210.87 127.174 210.786 127.187Z" fill="#455A64"/>
<path d="M212.32 130.021C212.32 129.977 212.685 130.021 213.328 129.853C214.226 129.65 215.075 129.27 215.825 128.736C216.935 127.942 217.864 126.922 218.549 125.742C219.369 124.277 219.969 122.7 220.331 121.061C220.769 119.323 221.061 117.628 221.477 116.109C221.82 114.755 222.309 113.442 222.938 112.195C223.364 111.355 223.902 110.576 224.537 109.88C224.714 109.693 224.901 109.518 225.1 109.354C225.231 109.245 225.304 109.186 225.311 109.201C224.458 110.135 223.74 111.185 223.179 112.319C222.6 113.562 222.149 114.862 221.835 116.197C221.456 117.709 221.156 119.396 220.718 121.155C220.341 122.829 219.716 124.436 218.863 125.924C218.138 127.133 217.159 128.17 215.993 128.962C215.204 129.493 214.31 129.847 213.371 129.999C213.117 130.035 212.861 130.05 212.605 130.043C212.415 130.043 212.32 130.036 212.32 130.021Z" fill="#455A64"/>
<path d="M352.857 360.792C352.857 360.844 301.205 360.882 237.505 360.882C173.806 360.882 122.14 360.837 122.14 360.792C122.14 360.748 173.782 360.703 237.505 360.703C301.229 360.703 352.857 360.737 352.857 360.792Z" fill="#263238"/>
<path d="M371.863 273.139L364.298 274.025L363.094 275.547L363.713 280.278L365.301 281.507L372.59 280.169L371.863 273.139Z" fill="#263238"/>
<path d="M364.373 273.966C364.32 275.194 364.419 276.424 364.665 277.628C364.761 278.851 365.008 280.059 365.401 281.222C365.443 279.994 365.342 278.765 365.1 277.561C364.997 276.339 364.753 275.132 364.373 273.966Z" fill="#455A64"/>
<path d="M366.555 281.256C366.584 280.022 366.463 278.79 366.196 277.586C366.073 276.35 365.806 275.133 365.401 273.958C365.379 275.2 365.502 276.44 365.769 277.653C365.89 278.88 366.154 280.089 366.555 281.256Z" fill="#455A64"/>
<path d="M379.161 285.026C379.161 285.46 374.321 292.373 374.321 292.373H369.89L368.219 291.136L367.466 286.84L372.758 279.977L379.161 285.026Z" fill="#263238"/>
<path d="M367.433 286.839C367.374 286.948 369.038 288.026 370.927 289.589C372.816 291.153 374.27 292.498 374.362 292.406C373.468 291.221 372.406 290.17 371.211 289.289C370.099 288.264 368.821 287.436 367.433 286.839Z" fill="#455A64"/>
<path d="M367.95 286.171C367.892 286.296 369.672 287.174 371.553 288.679C373.434 290.183 374.646 291.78 374.746 291.705C374.046 290.379 373.048 289.234 371.829 288.361C370.706 287.364 369.384 286.618 367.95 286.171Z" fill="#455A64"/>
<path d="M379.62 284.382H387.753V295.474H379.62V284.382Z" fill="#263238"/>
<path d="M379.511 294.229C380.851 294.443 382.21 294.516 383.566 294.446C384.918 294.516 386.274 294.443 387.611 294.229C386.275 294.01 384.918 293.937 383.566 294.012C382.21 293.936 380.851 294.009 379.511 294.229Z" fill="#455A64"/>
<path d="M379.453 293.226C380.793 293.441 382.152 293.513 383.507 293.443C384.862 293.513 386.221 293.441 387.561 293.226C386.221 293.011 384.862 292.939 383.507 293.009C382.152 292.939 380.793 293.011 379.453 293.226Z" fill="#455A64"/>
<path d="M391.774 281.273C390.353 283.4 388.245 284.976 385.802 285.736C383.359 286.496 380.73 286.396 378.352 285.45C375.975 284.505 373.993 282.773 372.739 280.543C371.485 278.313 371.034 275.72 371.462 273.198L375.758 275.998L391.774 281.273Z" fill="#EBEBEB"/>
<path d="M412.387 326.244H401.445V315.536H378.433C377.712 315.536 377.021 315.25 376.512 314.741C376.002 314.231 375.716 313.54 375.716 312.82C375.718 312.1 376.005 311.41 376.514 310.901C377.023 310.392 377.713 310.105 378.433 310.103H391.857V306.433H367.616C366.916 306.431 366.246 306.152 365.751 305.657C365.256 305.162 364.977 304.492 364.975 303.792C364.977 303.093 365.256 302.423 365.751 301.929C366.246 301.436 366.917 301.159 367.616 301.159H407.681V305.338H412.17L412.387 326.244Z" fill="#263238"/>
<path d="M407.706 326.244C407.832 326.244 407.924 320.627 407.915 313.706C407.907 306.784 407.798 301.167 407.681 301.167C407.564 301.167 407.472 306.776 407.481 313.706C407.489 320.635 407.589 326.244 407.706 326.244Z" fill="#455A64"/>
<path d="M401.488 301.526C401.279 303.877 401.217 306.239 401.304 308.598C401.228 310.96 401.301 313.325 401.521 315.678C401.736 313.324 401.809 310.96 401.738 308.598C401.797 306.238 401.714 303.876 401.488 301.526Z" fill="#455A64"/>
<path d="M365.009 347.509C365.762 345.023 367.205 342.801 369.172 341.104C371.139 339.406 373.548 338.303 376.118 337.921H412.505L413.341 348.144L365.009 347.509Z" fill="#EBEBEB"/>
<path d="M431.621 323.377V282.075C431.627 281.424 431.411 280.79 431.008 280.278C430.605 279.766 430.04 279.406 429.406 279.258L395.201 269.545L394.858 256.003L374.412 255.66L368.084 249.809L358.103 261.211L371.353 275.655L411.961 288.294L412.629 347.509H365.108C364.833 347.509 364.561 347.564 364.307 347.669C364.053 347.775 363.822 347.929 363.628 348.124C363.434 348.319 363.28 348.551 363.175 348.805C363.071 349.06 363.018 349.332 363.019 349.608V357.348H431.621V323.377Z" fill="#455A64"/>
<path d="M370.943 297.556H389.45C390.438 297.556 391.239 298.357 391.239 299.344V299.37C391.239 300.358 390.438 301.158 389.45 301.158H370.943C369.955 301.158 369.154 300.358 369.154 299.37V299.344C369.154 298.357 369.955 297.556 370.943 297.556Z" fill="#E0E0E0"/>
<path d="M370.952 301.159C370.952 301.159 370.777 301.159 370.476 301.042C370.2 300.955 369.95 300.801 369.749 300.594C369.548 300.386 369.402 300.131 369.325 299.853C369.248 299.575 369.241 299.281 369.306 299C369.372 298.718 369.506 298.457 369.698 298.241C369.992 297.919 370.4 297.724 370.835 297.698H372.381L389.451 297.765C389.811 297.768 390.159 297.893 390.438 298.12C390.717 298.348 390.911 298.663 390.988 299.014C391.065 299.366 391.02 299.733 390.86 300.056C390.701 300.379 390.437 300.638 390.111 300.791C389.777 300.925 389.415 300.974 389.058 300.933H385.714H378.041L372.866 301.008H371.454C371.29 301.004 371.127 301.02 370.969 301.058C371.129 301.085 371.291 301.099 371.454 301.1L372.866 301.142L378.041 301.209L385.714 301.259H389.058C389.479 301.298 389.903 301.235 390.295 301.075C390.712 300.883 391.051 300.555 391.256 300.144C391.461 299.734 391.52 299.265 391.423 298.816C391.325 298.368 391.077 297.966 390.72 297.677C390.363 297.389 389.918 297.231 389.459 297.23L372.39 297.297C371.838 297.297 371.328 297.297 370.818 297.297C370.497 297.322 370.187 297.429 369.918 297.607C369.649 297.784 369.43 298.027 369.281 298.313C369.131 298.598 369.056 298.917 369.064 299.24C369.071 299.562 369.16 299.877 369.322 300.156C369.447 300.363 369.612 300.544 369.807 300.687C370.002 300.831 370.223 300.934 370.459 300.991C370.61 301.08 370.778 301.137 370.952 301.159Z" fill="#263238"/>
<path d="M422.126 333.625C416.272 333.625 411.527 328.88 411.527 323.026C411.527 317.172 416.272 312.427 422.126 312.427C427.98 312.427 432.725 317.172 432.725 323.026C432.725 328.88 427.98 333.625 422.126 333.625Z" fill="#263238"/>
<path d="M416.232 323.369C416.282 323.369 416.232 322.842 416.499 321.956C416.851 320.699 417.609 319.593 418.656 318.813C419.369 318.279 420.196 317.919 421.072 317.76C422.075 317.585 423.108 317.677 424.064 318.027C425.121 318.413 426.038 319.106 426.697 320.017C427.217 320.728 427.565 321.55 427.713 322.418C427.861 323.286 427.805 324.177 427.55 325.02C427.294 325.863 426.847 326.635 426.242 327.276C425.637 327.916 424.891 328.407 424.064 328.71C423.109 329.068 422.075 329.161 421.072 328.978C420.196 328.821 419.369 328.464 418.656 327.933C417.609 327.152 416.851 326.047 416.499 324.79C416.257 323.895 416.282 323.369 416.232 323.369C416.21 323.496 416.21 323.626 416.232 323.753C416.232 324.116 416.274 324.478 416.357 324.831C416.662 326.158 417.414 327.339 418.489 328.175C419.223 328.752 420.082 329.15 420.997 329.337C422.064 329.541 423.166 329.458 424.19 329.095C425.653 328.595 426.871 327.557 427.596 326.191C428.321 324.826 428.498 323.235 428.091 321.743C427.684 320.251 426.723 318.971 425.405 318.163C424.087 317.354 422.511 317.079 420.997 317.392C419.872 317.617 418.836 318.16 418.012 318.958C417.188 319.755 416.611 320.773 416.349 321.889C416.265 322.242 416.223 322.604 416.224 322.967C416.201 323.1 416.204 323.237 416.232 323.369Z" fill="#455A64"/>
<path d="M371.319 251.389L359.165 264.604L354.919 260.266L366.981 247.393L371.319 251.389Z" fill="#263238"/>
<path d="M352.82 239.645L358.371 244.936C358.546 245.114 358.645 245.354 358.645 245.605C358.645 245.855 358.546 246.095 358.371 246.273L353.648 251.289C353.56 251.379 353.455 251.451 353.338 251.5C353.222 251.549 353.097 251.575 352.971 251.575C352.845 251.575 352.72 251.549 352.603 251.5C352.487 251.451 352.382 251.379 352.294 251.289L346.676 245.747C346.587 245.658 346.516 245.553 346.467 245.436C346.419 245.32 346.394 245.195 346.394 245.07C346.394 244.944 346.419 244.819 346.467 244.703C346.516 244.587 346.587 244.481 346.676 244.392L351.458 239.645C351.547 239.554 351.653 239.482 351.77 239.432C351.887 239.383 352.012 239.358 352.139 239.358C352.266 239.358 352.392 239.383 352.509 239.432C352.626 239.482 352.732 239.554 352.82 239.645Z" fill="#263238"/>
<path d="M357.903 246.064C358.037 246.265 364.114 252.158 364.114 252.158L359.291 257.098L353.172 251.013L357.903 246.064Z" fill="#263238"/>
<path d="M356.883 357.348H438.944V360.483H356.883V357.348Z" fill="#263238"/>
<path d="M376.109 329.262H394.858V337.922H376.109V329.262Z" fill="#455A64"/>
<path d="M392.836 337.922C393.126 335.079 393.126 332.213 392.836 329.37C392.535 332.213 392.535 335.079 392.836 337.922Z" fill="#263238"/>
<path d="M389.693 337.922C389.983 335.079 389.983 332.213 389.693 329.37C389.403 332.213 389.403 335.079 389.693 337.922Z" fill="#263238"/>
<path d="M386.558 337.922C386.847 335.079 386.847 332.213 386.558 329.37C386.268 332.213 386.268 335.079 386.558 337.922Z" fill="#263238"/>
<path d="M383.424 337.922C383.713 335.079 383.713 332.213 383.424 329.37C383.134 332.213 383.134 335.079 383.424 337.922Z" fill="#263238"/>
<path d="M380.289 337.922C380.579 335.079 380.579 332.213 380.289 329.37C379.999 332.213 379.999 335.079 380.289 337.922Z" fill="#263238"/>
<path d="M377.154 337.922C377.444 335.079 377.444 332.213 377.154 329.37C376.864 332.213 376.864 335.079 377.154 337.922Z" fill="#263238"/>
</svg>
