<svg width="351" height="337" viewBox="0 0 351 337" fill="none" xmlns="http://www.w3.org/2000/svg">
<path d="M302.752 75.1461L301.007 72.3134C286.916 49.3838 261.722 35.2527 234.824 36.1617C230.542 36.3051 226.281 36.8211 222.089 37.7039C196.968 43.0122 175.109 61.7698 166.084 85.8033C160.759 99.9344 159.274 116.2 149.16 127.417C135.995 142.027 113.65 142.474 94.0076 141.865C74.3653 141.256 52.0039 141.776 38.9036 156.475C30.7057 165.655 28.0922 178.707 28.7577 190.995C30.5353 223.478 53.4567 252.593 82.6605 267.057C111.864 281.52 146.246 282.811 178.21 276.456C222.981 267.527 265.561 243.064 291.161 205.256C316.761 167.449 323.23 115.949 302.752 75.1461Z" fill="#F5F7FF"/>
<path d="M350.989 335.488C350.989 335.602 272.591 335.699 175.905 335.699C79.2191 335.699 0.803955 335.618 0.803955 335.488C0.803955 335.358 79.1866 335.277 175.905 335.277C272.623 335.277 350.989 335.391 350.989 335.488Z" fill="#263238"/>
<path d="M95.615 56.4696C82.5877 76.956 83.44 105.364 97.6766 125.031C107.165 138.148 121.394 146.946 132.692 158.52C143.99 170.095 152.578 187.18 146.612 202.229C140.541 217.545 122.757 223.77 109.446 233.478C94.759 244.175 84.7886 260.147 81.6285 278.039C78.4683 295.931 82.3643 314.352 92.4982 329.433H230.822C230.822 329.433 255.124 283.127 223.883 247.828C192.642 212.529 175.864 211.961 177.017 188.812C178.17 165.663 194.37 158.155 203.632 149.47C212.893 140.786 258.013 120.551 231.399 56.4615L95.615 56.4696Z" fill="#FAFAFA"/>
<path d="M95.6147 56.4695H97.9929H105.006H132.002L231.398 56.3965H231.504V56.4939C233.541 61.3465 235.276 66.3208 236.699 71.388C238.192 76.6933 239.176 82.129 239.637 87.6213C240.116 93.3624 239.821 99.1417 238.76 104.804C237.595 110.674 235.485 116.316 232.51 121.508C230.969 124.157 229.227 126.683 227.3 129.065C225.332 131.479 223.203 133.757 220.928 135.883C218.624 138.048 216.21 140.094 213.696 142.011C211.18 143.959 208.55 145.793 205.985 147.741C204.703 148.707 203.55 149.795 202.3 150.883C201.05 151.97 199.808 152.985 198.526 154.008C195.969 156.053 193.388 158.066 190.953 160.33C185.871 164.735 181.966 170.337 179.59 176.629C178.448 179.856 177.728 183.217 177.447 186.628C177.374 187.44 177.26 188.333 177.228 189.193C177.195 190.054 177.163 190.914 177.228 191.774C177.246 193.502 177.42 195.224 177.747 196.92C178.391 200.357 179.794 203.608 181.854 206.433C183.975 209.258 186.376 211.861 189.021 214.201C194.273 218.998 199.849 223.584 205.182 228.535C210.514 233.486 215.733 238.648 220.766 244.111C223.333 246.814 225.735 249.671 227.957 252.666C230.193 255.697 232.136 258.934 233.76 262.333C237.045 269.221 239.063 276.644 239.718 284.248C240.38 291.956 239.926 299.72 238.371 307.299C237.615 311.128 236.622 314.907 235.4 318.613C234.198 322.351 232.734 325.999 231.017 329.53L230.96 329.644H92.3843L92.3275 329.555C85.8408 319.788 81.8626 308.573 80.745 296.901C79.6207 285.69 81.265 274.375 85.5339 263.948C89.591 253.981 95.8381 245.054 103.813 237.828C107.682 234.412 111.862 231.363 116.296 228.721C120.614 226.043 124.973 223.559 129.088 220.848C133.207 218.273 136.991 215.198 140.354 211.693C143.565 208.25 145.947 204.119 147.318 199.615C148.519 195.221 148.708 190.611 147.87 186.133C147.069 181.812 145.627 177.634 143.592 173.739C141.646 169.988 139.312 166.452 136.628 163.187C134.038 160.056 131.222 157.118 128.203 154.397C122.351 149.008 116.353 144.292 110.963 139.446C108.261 137.011 105.704 134.576 103.342 132.084C101.053 129.645 98.9422 127.044 97.0271 124.3C93.5649 119.27 90.8959 113.738 89.1133 107.897C87.5519 102.853 86.6462 97.6286 86.4186 92.3533C86.3049 91.152 86.3536 89.967 86.3536 88.8063C86.3536 87.6456 86.3536 86.5174 86.4592 85.4217C86.5647 84.3259 86.6215 83.2545 86.7027 82.175C86.7838 81.0955 87.003 80.1296 87.141 79.1475C88.0377 73.1687 89.8673 67.3678 92.5629 61.9564C92.928 61.1193 93.3455 60.306 93.8129 59.5214L94.8112 57.825C95.3388 56.9241 95.6229 56.4695 95.6229 56.4695L94.8112 57.8494L93.8453 59.5214C93.3891 60.3095 92.9772 61.1224 92.6116 61.9564C89.9404 67.3809 88.1329 73.1894 87.2546 79.1718C87.1166 80.1458 86.9543 81.1523 86.8325 82.1831C86.7108 83.2139 86.6702 84.2935 86.589 85.3892C86.5079 86.485 86.5079 87.6132 86.4997 88.7657C86.4916 89.9183 86.4592 91.1033 86.5728 92.3046C86.8076 97.5625 87.7215 102.768 89.2919 107.791C91.0723 113.611 93.7388 119.122 97.1975 124.13C99.1078 126.862 101.216 129.45 103.504 131.873C105.858 134.373 108.415 136.808 111.118 139.178C116.507 144.048 122.481 148.715 128.374 154.113C131.416 156.854 134.254 159.813 136.864 162.968C139.562 166.256 141.91 169.817 143.868 173.593C145.923 177.512 147.378 181.718 148.186 186.068C149.037 190.594 148.848 195.254 147.634 199.696C146.258 204.253 143.853 208.432 140.605 211.912C137.226 215.438 133.426 218.534 129.291 221.132C125.159 223.851 120.801 226.335 116.491 229.014C112.075 231.649 107.912 234.686 104.056 238.088C96.1306 245.276 89.9202 254.152 85.8829 264.061C81.6399 274.436 80.0094 285.693 81.1346 296.845C82.2523 308.449 86.2107 319.6 92.6603 329.311L92.498 329.222H230.822L230.635 329.336C232.349 325.814 233.809 322.174 235.002 318.443C236.218 314.752 237.205 310.99 237.957 307.177C239.505 299.636 239.957 291.91 239.296 284.239C238.654 276.678 236.649 269.294 233.379 262.446C231.766 259.072 229.839 255.857 227.624 252.844C225.407 249.865 223.017 247.02 220.465 244.322C215.46 238.873 210.273 233.689 204.906 228.77C199.581 223.827 194.021 219.249 188.753 214.428C186.087 212.068 183.664 209.447 181.522 206.603C179.421 203.744 177.982 200.453 177.309 196.969C176.984 195.248 176.807 193.502 176.781 191.75C176.741 190.882 176.781 190.013 176.781 189.145C176.781 188.276 176.928 187.416 176.992 186.555C177.29 183.123 178.027 179.744 179.184 176.499C181.58 170.151 185.522 164.502 190.653 160.063C193.088 157.806 195.693 155.761 198.25 153.723C199.532 152.701 200.791 151.67 202.016 150.615C203.242 149.56 204.451 148.423 205.717 147.449C208.298 145.501 210.92 143.667 213.428 141.727C215.935 139.818 218.343 137.784 220.644 135.631C222.904 133.515 225.022 131.25 226.983 128.854C228.895 126.48 230.629 123.968 232.17 121.338C235.127 116.181 237.227 110.578 238.387 104.747C239.443 99.1309 239.74 93.3981 239.272 87.7025C238.818 82.2111 237.842 76.7754 236.358 71.4691C234.955 66.3879 233.242 61.3976 231.228 56.5263L231.366 56.6156L132.026 56.5426H105.014H97.9848L95.6147 56.4695Z" fill="#263238"/>
<path d="M225.879 94.0416C246.252 97.3937 214.134 133.48 195.945 147.717C185.393 155.956 174.111 164.9 169.111 177.302C163.43 191.377 167.642 207.188 164.899 221.343C164.81 221.831 164.541 222.268 164.144 222.565C163.747 222.863 163.252 222.999 162.758 222.947C162.265 222.894 161.81 222.657 161.484 222.283C161.159 221.909 160.987 221.425 161.003 220.929C161.133 211.636 160.889 202.35 159.379 193.203C157.196 180.216 152.212 167.4 143.146 157.895C135.719 150.128 125.987 144.974 118.074 137.717C106.516 127.125 94.6409 113.465 93.4802 97.832C93.4802 97.832 115.671 79.9754 127.992 82.2075C142.391 84.8454 156.563 107.061 178.868 104.52C194.387 102.743 202.252 90.1618 225.879 94.0416Z" fill="#3366FF"/>
<path d="M227.689 287.178C227.178 282.08 225.814 276.318 221.293 273.915C218.558 272.454 215.222 272.616 212.219 273.404C209.216 274.191 206.399 275.563 203.428 276.447C197.523 278.184 191.216 277.982 185.434 275.871C179.906 273.842 175.166 270.19 170.012 267.284C164.858 264.378 158.876 262.251 153.162 263.672C143.308 266.107 138.179 277.99 128.439 280.855C124.104 282.121 119.453 281.407 115.054 280.417C110.655 279.426 106.231 278.136 101.727 278.306C98.1877 278.436 94.5109 279.662 92.0353 282.08L91.9704 282.154C91.5582 282.557 91.1833 282.997 90.8503 283.468C87.8309 287.527 87.3439 292.908 88.2773 297.827C89.3162 303.338 91.8892 308.427 94.6489 313.305C97.8955 319.052 101.597 324.766 106.97 328.597C113.609 333.329 121.945 330.066 130.07 330.707C149.006 332.201 169.379 333.215 188.323 331.754C198.331 330.943 207.706 332.063 215.644 325.919C221.228 321.6 224.865 315.091 226.618 308.257C228.371 301.422 228.395 294.199 227.689 287.178Z" fill="#3366FF"/>
<g opacity="0.24">
<path opacity="0.24" d="M191.943 277.421C190.88 279.045 190.417 281.253 191.448 282.908C192.479 284.564 193.883 286.082 194.322 287.989C195.028 290.976 193.226 293.898 191.887 296.666C189.408 301.615 188.472 307.194 189.2 312.68C189.968 318.185 192.81 323.188 197.146 326.665C199.07 328.151 201.57 329.303 203.891 328.573C206.075 327.891 207.479 325.675 207.949 323.427C208.42 321.178 208.023 318.865 207.738 316.601C206.417 306.046 206.69 295.353 208.55 284.881C208.859 283.136 209.151 281.139 208.047 279.751C207.251 278.943 206.239 278.379 205.133 278.128C200.912 276.723 196.359 278.282 191.984 277.454" fill="black"/>
</g>
<path d="M82.344 335.715C82.344 335.715 81.9625 329.368 90.2415 325.829H235.733C235.733 325.829 243.322 329.677 244.255 335.569L82.344 335.715Z" fill="#263238"/>
<path d="M232.64 57.2407L232.405 57.3462L95.5986 56.4696C95.5986 56.4696 95.1116 56.1611 94.3892 55.5849C93.5364 54.9168 92.9141 53.9984 92.6099 52.9586C92.3056 51.9188 92.3346 50.8099 92.6927 49.7874C93.0508 48.765 93.7202 47.8803 94.6067 47.2576C95.4933 46.635 96.5526 46.3056 97.6359 46.3156L230.425 47.387C235.887 47.4357 237.608 54.9031 232.64 57.2407Z" fill="#263238"/>
<g opacity="0.24">
<path opacity="0.24" d="M210.725 109.431C211.001 109.958 209.97 111.054 208.014 112.84C206.058 114.626 203.144 116.971 199.524 119.918C195.178 123.509 190.565 126.765 185.726 129.658C182.72 131.398 179.557 132.852 176.278 134C174.501 134.614 172.688 135.116 170.848 135.502C168.915 135.912 166.953 136.167 164.98 136.265C160.981 136.482 156.977 135.931 153.186 134.641C149.834 133.422 146.649 131.786 143.706 129.771C140.979 127.969 138.633 126.184 136.401 124.471C134.169 122.758 132.18 121.111 130.378 119.552C123.195 113.327 119.413 108.749 120.143 107.864C120.874 106.98 125.987 109.861 133.942 114.731L140.435 118.708C142.764 120.121 145.256 121.687 147.805 123.132C150.334 124.616 153.014 125.827 155.8 126.744C158.65 127.597 161.627 127.949 164.598 127.783C170.832 127.458 176.879 125.266 182.114 122.734C187.349 120.202 192.089 117.247 196.196 114.942C199.447 113.024 202.845 111.368 206.358 109.991C208.931 109.09 210.49 108.92 210.725 109.431Z" fill="black"/>
</g>
<path d="M161.1 238.299C161.675 238.07 162.317 238.077 162.887 238.318C163.457 238.56 163.909 239.016 164.146 239.588C164.382 240.16 164.383 240.802 164.15 241.375C163.916 241.948 163.466 242.406 162.897 242.65C162.328 242.894 161.686 242.904 161.11 242.677C160.534 242.451 160.07 242.007 159.819 241.442C159.568 240.876 159.549 240.234 159.768 239.655C159.986 239.076 160.424 238.607 160.986 238.348" fill="#3366FF"/>
<path d="M112.173 132.068C111.995 131.922 111.832 131.759 111.686 131.581L110.363 130.136C109.803 129.495 109.064 128.748 108.309 127.799L105.728 124.552C104.843 123.302 103.845 121.955 102.838 120.494L101.353 118.132C101.102 117.726 100.834 117.32 100.59 116.89L99.8759 115.575C97.7158 111.747 96.0235 107.673 94.8355 103.441C93.6416 99.212 92.9978 94.8472 92.9199 90.454C92.9199 89.4394 92.9767 88.4573 92.993 87.4914C92.993 87.0125 92.993 86.5418 93.0579 86.0791C93.1228 85.6165 93.1553 85.1619 93.204 84.7155C93.3095 83.8227 93.3745 82.9542 93.4962 82.1263C93.618 81.2984 93.7884 80.503 93.9264 79.7643C94.1537 78.2465 94.5595 76.9235 94.8436 75.706C94.9978 75.1216 95.1195 74.5697 95.2738 74.0827L95.7202 72.7272L96.3452 70.8685C96.4049 70.6472 96.4864 70.4324 96.5887 70.2273C96.5553 70.4537 96.5009 70.6765 96.4263 70.8928C96.2883 71.3636 96.1098 71.9886 95.8744 72.7759L95.4686 74.1314C95.3306 74.6265 95.2169 75.1784 95.0708 75.7547C94.8111 76.9316 94.4296 78.2628 94.2592 79.813C94.1293 80.5598 93.9994 81.3471 93.8615 82.1669C93.7235 82.9866 93.691 83.847 93.5936 84.7399C93.5936 85.1863 93.5043 85.6327 93.4556 86.0953C93.4069 86.558 93.4556 87.0288 93.4069 87.4995C93.4069 88.4573 93.342 89.4313 93.3501 90.4378C93.4293 94.8052 94.0649 99.1447 95.2413 103.351C96.4229 107.552 98.0928 111.6 100.217 115.413C100.452 115.851 100.688 116.289 100.915 116.728C101.142 117.166 101.426 117.539 101.67 117.961L103.131 120.323C104.121 121.817 105.103 123.164 105.963 124.382L108.496 127.628C109.226 128.594 109.949 129.349 110.484 130.015L111.751 131.516C111.903 131.691 112.044 131.875 112.173 132.068Z" fill="#263238"/>
<path d="M104.47 252.649C104.51 252.556 104.559 252.466 104.616 252.382L105.103 251.619C105.322 251.278 105.59 250.872 105.915 250.385L106.426 249.573C106.629 249.305 106.865 249.038 107.1 248.762L108.723 246.814C109.348 246.14 110.063 245.442 110.817 244.679C112.568 242.994 114.428 241.426 116.385 239.987C120.695 236.741 126.255 233.494 132.278 229.687C135.445 227.736 138.489 225.592 141.393 223.267C144.508 220.785 147.26 217.878 149.566 214.631C153.788 208.144 156.082 200.593 156.181 192.854C156.284 186.547 155.228 180.274 153.065 174.348C151.632 170.349 149.833 166.491 147.691 162.822C146.937 161.516 146.32 160.525 145.898 159.852L145.419 159.089C145.313 158.918 145.265 158.821 145.265 158.821C145.337 158.894 145.4 158.975 145.451 159.064L145.971 159.811C146.417 160.46 147.058 161.434 147.829 162.741C150.037 166.39 151.886 170.244 153.349 174.251C155.57 180.201 156.671 186.511 156.595 192.862C156.561 194.693 156.412 196.52 156.149 198.333C155.886 200.228 155.487 202.103 154.956 203.941C153.847 207.834 152.124 211.525 149.85 214.875C147.52 218.157 144.739 221.095 141.588 223.6C138.666 225.927 135.606 228.073 132.424 230.028C126.377 233.803 120.809 237.017 116.499 240.239C114.542 241.659 112.677 243.201 110.915 244.857C110.16 245.612 109.438 246.294 108.805 246.96L107.181 248.867C106.938 249.159 106.702 249.427 106.499 249.679L105.972 250.45L105.16 251.659L104.641 252.398C104.591 252.486 104.534 252.57 104.47 252.649Z" fill="#263238"/>
<path d="M96.9215 266.991C96.8726 267.123 96.8128 267.251 96.743 267.373L96.1586 268.404C95.8988 268.842 95.5904 269.394 95.2738 270.027C94.9573 270.66 94.5515 271.407 94.2106 272.259C94.032 272.681 93.8372 273.12 93.6424 273.574C93.4476 274.029 93.2853 274.532 93.0905 275.035C92.7009 276.042 92.3924 277.145 92.0353 278.282C90.6235 283.37 90.1369 288.67 90.5986 293.931C90.7366 295.132 90.834 296.284 91.0451 297.34C91.1343 297.867 91.2074 298.387 91.3129 298.874C91.4184 299.361 91.5321 299.831 91.6376 300.278C91.8161 301.179 92.084 301.966 92.2788 302.664C92.4736 303.362 92.6684 303.963 92.847 304.45L93.2284 305.57C93.2832 305.697 93.3187 305.831 93.334 305.968C93.2557 305.855 93.193 305.732 93.1473 305.602C93.0255 305.302 92.8794 304.945 92.6927 304.507C92.4474 303.929 92.2334 303.338 92.0515 302.737C91.8324 302.039 91.5483 301.252 91.3454 300.351C91.2317 299.905 91.1181 299.434 90.9964 298.947C90.8746 298.46 90.8016 297.932 90.696 297.405C90.4688 296.333 90.3551 295.181 90.209 293.971C89.701 288.678 90.191 283.337 91.6538 278.225C92.0191 277.056 92.3437 275.944 92.7577 274.938C92.9606 274.434 93.1229 273.939 93.334 273.477L93.9346 272.154C94.2917 271.342 94.7463 270.587 95.0628 269.938C95.3488 269.379 95.6659 268.837 96.0125 268.314L96.6618 267.316C96.8241 267.097 96.9053 266.983 96.9215 266.991Z" fill="#263238"/>
<path d="M197.268 286.504L197.106 286.618L196.602 286.934L194.63 288.119L193.201 288.931C192.666 289.231 192.073 289.507 191.44 289.824C190.158 290.44 188.745 291.228 187.073 291.861L184.476 292.924C183.575 293.281 182.593 293.565 181.603 293.906C179.63 294.629 177.439 295.148 175.158 295.741C165.144 298.086 154.756 298.362 144.631 296.552C142.31 296.082 140.102 295.676 138.089 295.059C137.083 294.767 136.093 294.539 135.167 294.247L132.521 293.281C130.825 292.738 129.364 292.031 128.057 291.479C127.408 291.195 126.799 290.944 126.255 290.668L124.778 289.897L122.749 288.817L122.229 288.525L122.059 288.419C122.059 288.419 122.132 288.419 122.254 288.492L122.789 288.744L124.851 289.751L126.336 290.481C126.888 290.741 127.505 290.976 128.154 291.252C129.461 291.772 130.922 292.462 132.627 292.981L135.24 293.931C136.166 294.239 137.156 294.458 138.162 294.742C140.167 295.343 142.367 295.724 144.656 296.187C154.734 297.932 165.058 297.656 175.028 295.375C177.301 294.791 179.484 294.296 181.457 293.59C182.447 293.257 183.421 292.989 184.322 292.632L186.919 291.601C188.591 290.984 190.012 290.221 191.294 289.629C191.927 289.32 192.528 289.053 193.063 288.817L194.508 288.005L196.513 286.885L197.041 286.609C197.203 286.52 197.268 286.496 197.268 286.504Z" fill="#263238"/>
<path d="M205.734 114.715C205.684 114.774 205.627 114.826 205.563 114.869L205.027 115.307C204.532 115.705 203.842 116.265 202.958 116.931C201.156 118.359 198.542 120.429 195.239 122.896C191.394 125.839 187.363 128.529 183.169 130.948C180.675 132.344 178.075 133.541 175.393 134.528C172.5 135.58 169.483 136.251 166.416 136.524C160.455 136.859 154.51 135.622 149.177 132.937C146.87 131.765 144.644 130.442 142.513 128.976C140.532 127.58 138.722 126.224 137.123 124.917C133.877 122.336 131.393 120.153 129.64 118.66L127.635 116.923L127.124 116.468L126.953 116.298C126.953 116.298 127.026 116.298 127.148 116.427L127.692 116.858L129.745 118.53C131.531 119.991 134.08 122.133 137.31 124.682C138.933 125.956 140.727 127.296 142.716 128.676C144.839 130.116 147.055 131.418 149.347 132.572C154.627 135.203 160.502 136.415 166.392 136.086C169.422 135.817 172.404 135.157 175.264 134.122C177.927 133.148 180.511 131.967 182.991 130.591C187.178 128.216 191.214 125.584 195.076 122.71C198.388 120.275 201.026 118.246 202.868 116.858L204.987 115.234L205.547 114.828C205.603 114.781 205.666 114.743 205.734 114.715Z" fill="#263238"/>
<g opacity="0.24">
<path opacity="0.24" d="M132.529 293.322C136.377 290.351 141.782 291.066 146.539 292.072C151.295 293.078 156.084 294.694 160.897 294.02C164.525 293.509 167.853 291.731 171.449 290.952C175.044 290.173 179.371 290.749 181.359 293.825C165.465 298.947 148.338 298.77 132.554 293.322" fill="black"/>
</g>
<path d="M266.73 271.293L249.279 251.724L249.101 275.514L254.36 290.773L202.073 299.84L199.857 258.583L196.091 226.928C195.867 225.04 196.274 223.132 197.249 221.501C198.224 219.87 199.712 218.607 201.48 217.91L215.871 212.228L236.163 215.946L244.32 219.046C247.74 220.349 250.789 222.47 253.2 225.223L277.745 253.291" fill="#3366FF"/>
<path d="M248.062 247.016C249.047 247.003 250.031 246.933 251.008 246.805C253.363 246.446 255.556 245.392 257.307 243.778C259.058 242.164 260.288 240.064 260.838 237.747C261.04 236.779 261.189 235.801 261.284 234.817C261.35 235.082 261.375 235.356 261.357 235.629C261.363 236.365 261.287 237.101 261.13 237.82C260.638 240.23 259.401 242.425 257.593 244.093C255.786 245.761 253.499 246.818 251.057 247.114C250.328 247.208 249.59 247.224 248.857 247.163C248.586 247.157 248.318 247.108 248.062 247.016Z" fill="white"/>
<path d="M249.58 274.499C249.701 274.499 249.734 266.253 249.653 256.091C249.572 245.929 249.401 237.69 249.279 237.69C249.158 237.69 249.125 245.929 249.206 256.099C249.287 266.269 249.458 274.499 249.58 274.499Z" fill="#263238"/>
<path d="M247.664 280.547L216.074 267.828C214.825 267.325 213.742 266.483 212.946 265.398C212.15 264.312 211.673 263.026 211.569 261.683L209.256 231.392C209.256 231.392 209.532 218.503 201.48 217.878L196.927 219.68C191.01 222.821 189.549 231.441 190.352 238.088C191.497 247.536 191.976 260.912 193.25 269.11C194.305 275.823 198.12 281.723 204.711 283.452L243.622 291.877L247.664 280.547Z" fill="#3366FF"/>
<path d="M209.711 236.01C209.764 236.237 209.796 236.468 209.808 236.7C209.857 237.195 209.93 237.861 210.011 238.697C210.173 240.474 210.401 242.974 210.677 246.042C210.953 249.111 211.261 252.852 211.618 256.943C211.699 257.974 211.789 259.021 211.878 260.092C211.941 261.182 212.076 262.267 212.284 263.339C212.504 264.423 213.054 265.412 213.858 266.172C214.724 266.933 215.708 267.547 216.772 267.99C225.481 271.756 233.509 274.873 239.337 277.056L246.26 279.605L248.143 280.295C248.363 280.368 248.578 280.457 248.784 280.563C248.555 280.521 248.329 280.458 248.111 280.376L246.203 279.759C244.58 279.207 242.145 278.387 239.239 277.324C233.371 275.214 225.335 272.146 216.594 268.396C215.488 267.931 214.465 267.29 213.566 266.496C212.703 265.677 212.113 264.611 211.878 263.445C211.668 262.357 211.535 261.256 211.48 260.149C211.391 259.07 211.31 258.023 211.228 256.992C210.912 252.934 210.62 249.2 210.417 246.083C210.214 242.966 210.011 240.507 209.881 238.729C209.824 237.918 209.784 237.22 209.759 236.725C209.723 236.488 209.706 236.249 209.711 236.01Z" fill="#263238"/>
<path d="M191.611 252.479C191.643 252.612 191.662 252.748 191.667 252.885L191.773 254.054C191.87 255.133 191.992 256.586 192.146 258.355C192.3 260.125 192.544 262.325 192.86 264.711C193.171 267.295 193.646 269.857 194.281 272.381C194.58 273.681 195.102 274.92 195.823 276.042C196.528 277.072 197.318 278.041 198.185 278.939C199.662 280.459 201.369 281.738 203.242 282.73C204.988 283.617 206.861 284.231 208.794 284.548C208.656 284.566 208.517 284.566 208.38 284.548C207.987 284.522 207.597 284.47 207.211 284.394C205.783 284.128 204.4 283.66 203.104 283.006C201.178 282.036 199.423 280.759 197.909 279.223C197.012 278.315 196.197 277.329 195.474 276.277C194.716 275.124 194.167 273.846 193.851 272.503C193.206 269.96 192.737 267.375 192.447 264.768C192.154 262.333 191.96 260.206 191.83 258.388C191.7 256.57 191.627 255.093 191.586 254.07C191.586 253.599 191.586 253.21 191.586 252.893C191.572 252.755 191.58 252.615 191.611 252.479Z" fill="#263238"/>
<path d="M205.117 273.672C205.2 273.08 205.395 272.51 205.693 271.992C206.344 270.698 207.246 269.547 208.347 268.606C209.448 267.666 210.726 266.954 212.105 266.513C212.664 266.299 213.26 266.197 213.858 266.212C213.327 266.434 212.785 266.629 212.235 266.797C210.93 267.302 209.72 268.023 208.656 268.932C207.594 269.842 206.691 270.922 205.985 272.13C205.417 273.063 205.182 273.696 205.117 273.672Z" fill="#263238"/>
<path d="M211.334 250.637C211.403 250.657 211.468 250.687 211.529 250.726L212.097 251.026C212.83 251.387 213.583 251.704 214.353 251.976C217.194 252.972 220.24 253.235 223.209 252.739C227.618 251.952 231.558 249.503 234.215 245.896C235.803 243.813 236.798 241.34 237.096 238.738C237.244 237.37 237.1 235.987 236.674 234.679C236.225 233.344 235.443 232.146 234.402 231.197C233.375 230.236 232.082 229.608 230.692 229.395C230.034 229.277 229.357 229.31 228.713 229.492C228.069 229.673 227.475 229.998 226.975 230.442C226.522 230.886 226.26 231.489 226.244 232.122C226.258 232.753 226.475 233.362 226.861 233.859C227.264 234.34 227.759 234.737 228.316 235.025C228.873 235.313 229.482 235.488 230.108 235.54C232.306 235.814 234.537 235.531 236.598 234.719C238.658 233.906 240.482 232.589 241.901 230.889C242.977 229.565 243.788 228.047 244.288 226.416C244.661 225.181 244.863 223.9 244.888 222.61C244.897 221.794 244.837 220.98 244.71 220.175C244.661 219.923 244.62 219.712 244.596 219.55C244.589 219.477 244.589 219.403 244.596 219.331C244.932 220.38 245.096 221.476 245.083 222.577C245.091 223.887 244.911 225.191 244.547 226.449C243.644 229.481 241.693 232.094 239.043 233.823C236.393 235.552 233.215 236.284 230.075 235.889C229.405 235.829 228.753 235.638 228.157 235.326C227.561 235.014 227.032 234.587 226.601 234.07C226.161 233.503 225.916 232.808 225.903 232.09C225.904 231.351 226.196 230.643 226.715 230.118C227.26 229.631 227.908 229.273 228.611 229.07C229.314 228.868 230.053 228.827 230.773 228.949C232.25 229.168 233.623 229.833 234.71 230.856C235.809 231.849 236.631 233.111 237.096 234.517C237.538 235.877 237.688 237.315 237.535 238.738C237.218 241.396 236.189 243.92 234.556 246.043C232.303 249.117 229.104 251.369 225.45 252.454C221.796 253.538 217.887 253.396 214.321 252.049C213.267 251.712 212.263 251.237 211.334 250.637Z" fill="white"/>
<path d="M190.636 242.561C190.774 242.318 190.949 242.098 191.156 241.911C191.675 241.362 192.246 240.865 192.86 240.426C194.933 239.002 197.343 238.148 199.849 237.95C201.224 237.796 202.615 237.853 203.972 238.121C205.076 238.35 206.143 238.727 207.146 239.241C207.819 239.58 208.465 239.971 209.078 240.41C209.315 240.555 209.528 240.736 209.711 240.945C209.662 241.01 208.72 240.296 207.016 239.509C204.794 238.478 202.33 238.085 199.898 238.372C197.455 238.565 195.098 239.354 193.031 240.669C191.464 241.716 190.693 242.617 190.636 242.561Z" fill="white"/>
<path d="M195.693 220.897C196.463 221.623 197.322 222.247 198.25 222.756C199.263 223.275 200.364 223.6 201.497 223.714C202.875 223.852 204.267 223.657 205.555 223.146C206.817 222.607 207.931 221.772 208.802 220.711C209.52 219.825 210.07 218.815 210.425 217.732C210.717 216.714 210.883 215.665 210.92 214.607C210.999 214.886 211.035 215.177 211.025 215.467C211.039 216.263 210.932 217.057 210.709 217.821C210.378 218.961 209.827 220.026 209.086 220.954C208.196 222.118 207.014 223.026 205.659 223.585C204.305 224.143 202.827 224.334 201.375 224.136C200.198 224.002 199.059 223.638 198.023 223.064C197.325 222.681 196.69 222.194 196.14 221.62C195.948 221.408 195.796 221.163 195.693 220.897Z" fill="white"/>
<path d="M223.225 270.709C223.226 270.507 223.248 270.306 223.29 270.108C223.403 269.545 223.592 268.999 223.85 268.485C224.882 266.595 226.558 265.137 228.574 264.378C231.54 263.198 234.824 263.081 237.867 264.045C239.539 264.54 241.455 265.157 242.737 266.789C243.06 267.205 243.263 267.702 243.326 268.225C243.389 268.748 243.309 269.278 243.094 269.759C242.605 270.698 241.813 271.445 240.846 271.878C239.913 272.34 238.892 272.594 237.851 272.625C236.818 272.675 235.801 272.358 234.978 271.732C234.598 271.408 234.288 271.009 234.068 270.561C233.847 270.113 233.721 269.625 233.695 269.126C233.642 268.194 233.789 267.262 234.126 266.391C235.349 263.432 237.678 261.067 240.619 259.8C242.57 258.931 244.707 258.563 246.836 258.729C247.612 258.788 248.376 258.949 249.109 259.208C249.109 259.265 248.297 258.997 246.82 258.891C245.056 258.795 243.291 259.061 241.633 259.671C239.975 260.28 238.459 261.222 237.177 262.438C235.988 263.578 235.06 264.963 234.458 266.496C234.143 267.316 234.008 268.193 234.061 269.069C234.084 269.513 234.199 269.948 234.397 270.346C234.595 270.744 234.873 271.097 235.213 271.383C235.955 271.953 236.876 272.24 237.811 272.194C238.786 272.169 239.745 271.931 240.619 271.496C241.501 271.103 242.227 270.426 242.681 269.573C242.863 269.158 242.931 268.702 242.877 268.252C242.823 267.802 242.648 267.375 242.372 267.016C241.806 266.301 241.08 265.729 240.254 265.344C239.452 264.96 238.618 264.648 237.762 264.41C234.799 263.452 231.597 263.535 228.687 264.646C226.716 265.359 225.056 266.741 223.996 268.55C223.645 269.232 223.385 269.958 223.225 270.709Z" fill="white"/>
<path d="M202.187 282.113C202.187 282.032 203.388 281.935 205.214 281.301C207.598 280.462 209.734 279.038 211.427 277.161C213.12 275.284 214.316 273.013 214.905 270.555C215.368 268.672 215.352 267.446 215.433 267.454C215.49 267.735 215.503 268.022 215.474 268.307C215.455 269.085 215.362 269.859 215.198 270.62C214.671 273.157 213.478 275.508 211.74 277.43C210.002 279.352 207.783 280.775 205.311 281.553C204.571 281.794 203.811 281.965 203.039 282.064C202.759 282.122 202.471 282.138 202.187 282.113Z" fill="white"/>
<path d="M191.943 258.567C192.063 258.499 192.191 258.447 192.325 258.412C192.584 258.331 192.958 258.218 193.453 258.088C194.858 257.718 196.312 257.57 197.763 257.649C198.77 257.726 199.758 257.97 200.685 258.372C201.764 258.837 202.704 259.576 203.412 260.515C204.189 261.579 204.566 262.884 204.475 264.2C204.423 264.899 204.209 265.577 203.85 266.18C203.487 266.815 202.913 267.304 202.227 267.56C201.865 267.683 201.478 267.709 201.103 267.635C200.728 267.561 200.38 267.389 200.092 267.138C199.605 266.601 199.341 265.898 199.354 265.174C199.312 263.88 199.567 262.595 200.1 261.416C200.841 259.735 202.122 258.351 203.74 257.482C205.357 256.613 207.219 256.309 209.029 256.619C209.418 256.679 209.801 256.774 210.173 256.903C210.425 257 210.555 257.057 210.547 257.073C210.538 257.089 210.003 256.903 209.004 256.781C207.593 256.61 206.162 256.794 204.841 257.317C202.882 258.102 201.315 259.632 200.482 261.57C199.986 262.696 199.75 263.919 199.792 265.149C199.775 265.77 199.995 266.374 200.409 266.837C200.642 267.036 200.922 267.17 201.222 267.227C201.522 267.283 201.832 267.261 202.121 267.162C202.723 266.94 203.228 266.515 203.55 265.961C203.873 265.414 204.067 264.8 204.118 264.167C204.203 262.948 203.862 261.737 203.152 260.742C202.493 259.848 201.612 259.143 200.595 258.696C199.707 258.293 198.758 258.041 197.787 257.95C196.368 257.844 194.94 257.945 193.55 258.25C192.503 258.453 191.959 258.599 191.943 258.567Z" fill="white"/>
<g opacity="0.3">
<path opacity="0.3" d="M238.582 276.935C235.205 275.027 231.902 273.558 228.371 271.959C224.84 270.36 221.374 268.29 219.061 265.174C214.702 259.297 215.198 250.815 210.741 245.02C211.034 248.916 211.323 252.815 211.61 256.716C211.878 260.287 211.334 263.826 213.631 266.253C215.571 268.298 219.353 269.865 222.032 270.75C227.413 272.527 233.208 275.165 238.582 276.935Z" fill="black"/>
</g>
<path d="M293.515 321.454C293.515 321.454 319.951 328.76 321.015 329.149C322.638 329.709 322.338 335.545 319.862 335.448C318.685 335.407 299.57 336.162 297.135 336.016C294.7 335.87 287.395 332.988 287.395 332.988L293.515 321.454Z" fill="#3366FF"/>
<path d="M304.497 331.543C304.824 330.572 305.214 329.623 305.666 328.703C306.235 327.851 306.858 327.038 307.533 326.268C306.592 326.783 305.811 327.546 305.276 328.476C304.741 329.405 304.471 330.463 304.497 331.535V331.543Z" fill="#263238"/>
<path d="M301.737 330.294C301.867 330.294 302.135 329.068 302.841 327.688C303.547 326.308 304.375 325.342 304.286 325.253C303.514 325.854 302.886 326.618 302.445 327.491C302.004 328.364 301.763 329.324 301.737 330.302V330.294Z" fill="#263238"/>
<path d="M299.197 329.604C299.327 328.658 299.533 327.724 299.814 326.811C300.228 325.95 300.709 325.123 301.25 324.336C300.412 324.9 299.766 325.707 299.399 326.648C299.032 327.59 298.962 328.621 299.197 329.604Z" fill="#263238"/>
<path d="M299.627 326.186C299.86 325.559 299.957 324.89 299.911 324.222C299.903 323.495 299.813 322.771 299.643 322.063C299.542 321.645 299.409 321.236 299.246 320.838C299.169 320.586 299.023 320.361 298.824 320.188C298.69 320.089 298.526 320.04 298.36 320.049C298.194 320.058 298.037 320.124 297.915 320.237C297.71 320.434 297.585 320.7 297.566 320.984C297.546 321.216 297.546 321.449 297.566 321.682C297.568 322.117 297.623 322.55 297.728 322.972C297.904 323.68 298.177 324.361 298.54 324.993C298.83 325.603 299.232 326.154 299.725 326.617C299.79 326.617 299.343 325.959 298.816 324.88C298.507 324.255 298.276 323.596 298.126 322.915C298.04 322.518 297.997 322.113 297.996 321.706C297.996 321.3 297.996 320.797 298.239 320.602C298.287 320.559 298.349 320.535 298.414 320.535C298.478 320.535 298.54 320.559 298.588 320.602C298.72 320.732 298.82 320.89 298.88 321.065C299.036 321.446 299.169 321.837 299.278 322.234C299.464 322.907 299.581 323.598 299.627 324.295C299.676 325.432 299.554 326.178 299.627 326.186Z" fill="#263238"/>
<path d="M299.595 325.919C299.056 325.694 298.472 325.599 297.89 325.643C297.258 325.643 296.629 325.719 296.015 325.87C295.637 325.956 295.272 326.089 294.927 326.268C294.711 326.378 294.536 326.555 294.429 326.773C294.322 326.991 294.289 327.238 294.335 327.477C294.396 327.705 294.515 327.913 294.682 328.08C294.849 328.246 295.057 328.366 295.285 328.427C295.674 328.524 296.081 328.524 296.47 328.427C297.095 328.284 297.682 328.007 298.19 327.615C298.671 327.293 299.087 326.882 299.416 326.406C298.928 326.691 298.459 327.009 298.012 327.355C297.521 327.692 296.97 327.932 296.388 328.061C296.066 328.143 295.729 328.143 295.406 328.061C295.254 328.023 295.114 327.945 295.002 327.835C294.889 327.725 294.808 327.588 294.765 327.436C294.74 327.288 294.765 327.135 294.836 327.002C294.906 326.868 295.018 326.761 295.155 326.698C295.456 326.532 295.778 326.406 296.113 326.324C296.695 326.158 297.294 326.055 297.898 326.016C298.929 325.886 299.578 325.992 299.595 325.919Z" fill="#263238"/>
<path d="M308.555 331.828C308.669 331.02 308.845 330.222 309.083 329.441C309.454 328.716 309.886 328.024 310.374 327.372C309.604 327.791 309.002 328.464 308.671 329.276C308.34 330.088 308.299 330.989 308.555 331.828Z" fill="#263238"/>
<path d="M290.114 333.053C290.434 333.256 290.778 333.419 291.137 333.54C292.096 333.904 293.078 334.208 294.075 334.449C297.39 335.172 300.78 335.494 304.172 335.407C308.133 335.358 311.705 335.18 314.294 335.074L317.354 334.912C317.73 334.906 318.104 334.868 318.474 334.798C318.101 334.74 317.723 334.721 317.346 334.741H314.286L304.172 334.936C300.812 335.022 297.451 334.75 294.148 334.125C291.616 333.613 290.147 332.964 290.114 333.053Z" fill="#263238"/>
<path d="M289.335 333.654C289.335 333.711 290.09 333.289 291.316 332.753C292.873 332.017 294.606 331.736 296.316 331.941C297.997 332.306 299.515 333.206 300.642 334.506C301.111 335.06 301.618 335.581 302.16 336.064C301.811 335.419 301.377 334.824 300.869 334.295C300.348 333.689 299.76 333.145 299.116 332.672C298.309 332.075 297.371 331.679 296.38 331.519C294.586 331.302 292.769 331.645 291.178 332.501C290.505 332.784 289.883 333.173 289.335 333.654Z" fill="#263238"/>
<path d="M265.423 314.158C265.423 314.158 240.408 330.537 239.515 331.203C238.168 332.217 239.71 337.063 242.047 336.227C243.151 335.829 264.141 329.985 266.397 329.109C268.654 328.232 274.733 323.313 274.733 323.313L265.423 314.158Z" fill="#3366FF"/>
<path d="M257.997 327.112C257.695 326.082 257.116 325.155 256.323 324.432C255.53 323.709 254.553 323.218 253.5 323.013C254.38 323.54 255.223 324.126 256.024 324.766C256.73 325.506 257.389 326.29 257.997 327.112Z" fill="#263238"/>
<path d="M260.237 325.083C259.919 324.156 259.399 323.312 258.716 322.61C258.032 321.908 257.202 321.367 256.284 321.024C256.219 321.138 257.315 321.836 258.394 322.907C259.474 323.979 260.123 325.147 260.237 325.083Z" fill="#263238"/>
<path d="M262.493 323.638C262.49 322.616 262.102 321.634 261.406 320.886C260.824 320.061 259.956 319.482 258.971 319.263C259.724 319.851 260.432 320.494 261.089 321.187C261.621 321.965 262.091 322.785 262.493 323.638Z" fill="#263238"/>
<path d="M261.049 320.529C261.114 320.529 260.773 319.823 260.489 318.654C260.318 317.977 260.217 317.283 260.188 316.585C260.16 316.174 260.16 315.762 260.188 315.351C260.185 315.166 260.233 314.983 260.326 314.823C260.361 314.768 260.417 314.729 260.48 314.714C260.544 314.698 260.611 314.709 260.667 314.742C260.951 314.856 261.097 315.343 261.235 315.732C261.354 316.119 261.436 316.515 261.479 316.917C261.542 317.613 261.52 318.313 261.414 319.003C261.243 320.188 261.008 320.911 261.073 320.935C261.407 320.354 261.628 319.715 261.722 319.052C261.878 318.341 261.933 317.611 261.885 316.885C261.852 316.45 261.773 316.02 261.649 315.602C261.582 315.378 261.501 315.159 261.406 314.945C261.298 314.679 261.095 314.463 260.838 314.336C260.687 314.266 260.517 314.251 260.356 314.294C260.196 314.337 260.056 314.436 259.961 314.572C259.827 314.797 259.757 315.056 259.758 315.318C259.669 316.474 259.801 317.637 260.148 318.744C260.318 319.396 260.626 320.004 261.049 320.529Z" fill="#263238"/>
<path d="M260.959 320.261C260.959 320.326 261.576 320.034 262.583 319.782C263.171 319.642 263.772 319.56 264.376 319.539C264.721 319.516 265.068 319.537 265.407 319.604C265.557 319.624 265.695 319.692 265.804 319.797C265.912 319.903 265.983 320.04 266.008 320.188C266.015 320.35 265.978 320.51 265.903 320.652C265.827 320.795 265.715 320.915 265.578 321C265.298 321.176 264.981 321.281 264.652 321.308C264.059 321.366 263.46 321.306 262.891 321.13C262.362 320.932 261.819 320.772 261.268 320.651C261.726 321.017 262.249 321.292 262.81 321.463C263.412 321.693 264.057 321.79 264.701 321.747C265.101 321.726 265.49 321.603 265.829 321.39C266.03 321.266 266.194 321.091 266.304 320.883C266.414 320.674 266.466 320.44 266.454 320.205C266.426 319.963 266.319 319.737 266.151 319.561C265.982 319.386 265.761 319.269 265.521 319.231C265.14 319.163 264.753 319.147 264.368 319.182C263.737 319.224 263.113 319.341 262.509 319.531C261.943 319.652 261.413 319.902 260.959 320.261Z" fill="#263238"/>
<path d="M245.229 335.326C245.229 335.366 245.651 335.074 245.846 334.36C246.04 333.427 245.872 332.454 245.375 331.641C245.135 331.205 244.863 330.788 244.563 330.391C244.319 330.053 244.033 329.747 243.711 329.482C243.481 329.291 243.198 329.175 242.9 329.149C242.689 329.149 242.583 329.19 242.583 329.214C242.583 329.238 243.029 329.255 243.492 329.725C243.765 330.001 244.007 330.306 244.214 330.634C244.506 331.026 244.777 331.433 245.026 331.852C245.475 332.58 245.669 333.437 245.578 334.287C245.483 334.64 245.366 334.987 245.229 335.326Z" fill="#263238"/>
<path d="M254.214 328.613C254.248 328.174 254.186 327.733 254.033 327.32C253.881 326.906 253.641 326.531 253.329 326.219C253.08 325.856 252.753 325.552 252.373 325.329C251.993 325.106 251.569 324.97 251.13 324.928C251.793 325.399 252.415 325.926 252.989 326.503C253.456 327.171 253.866 327.877 254.214 328.613Z" fill="#263238"/>
<path d="M272.16 324.182C271.771 324.398 271.402 324.648 271.056 324.928C270.065 325.617 269.035 326.248 267.972 326.82C266.399 327.654 264.772 328.384 263.102 329.003C261.203 329.709 259.044 330.375 256.836 331.024C252.331 332.323 248.257 333.508 245.318 334.393L241.82 335.488C241.388 335.603 240.967 335.755 240.562 335.943C241.004 335.883 241.441 335.788 241.869 335.659L245.383 334.677C248.346 333.865 252.429 332.729 256.933 331.43C259.182 330.772 261.316 330.091 263.216 329.36C264.906 328.718 266.547 327.953 268.126 327.071C269.187 326.471 270.201 325.792 271.162 325.042C271.518 324.783 271.852 324.496 272.16 324.182Z" fill="#263238"/>
<path d="M273.086 324.514C272.412 324.218 271.698 324.026 270.967 323.946C269.189 323.617 267.352 323.844 265.707 324.596C264.818 325.061 264.055 325.735 263.484 326.56C263.013 327.211 262.618 327.913 262.307 328.654C261.981 329.311 261.749 330.01 261.617 330.732C261.984 330.105 262.31 329.454 262.591 328.784C263.268 327.199 264.441 325.877 265.935 325.018C267.506 324.311 269.244 324.061 270.951 324.295C272.25 324.401 273.069 324.579 273.086 324.514Z" fill="#263238"/>
<path d="M317.411 274.215C317.411 274.215 324.919 276.894 324.943 285.311C325.008 301.423 292.379 319.19 292.379 319.19L248.955 290.424L246.236 289.321C246.236 289.321 304.879 267.308 317.411 274.215Z" fill="#263238"/>
<path d="M270.951 304.953C271.351 304.732 271.731 304.477 272.087 304.19C272.793 303.671 273.808 302.908 275.05 301.942C277.542 300.026 280.918 297.299 284.563 294.174C288.207 291.049 291.405 288.119 293.678 285.952C294.814 284.873 295.723 283.98 296.348 283.355C296.685 283.05 296.995 282.716 297.273 282.357C296.9 282.618 296.549 282.911 296.226 283.233L293.467 285.725C291.137 287.827 287.907 290.725 284.27 293.842C280.634 296.958 277.29 299.718 274.863 301.699L271.982 304.052C271.615 304.325 271.27 304.626 270.951 304.953Z" fill="#455A64"/>
<path d="M305.154 280.238C302.315 279.938 299.472 280.775 297.249 282.568C297.322 282.689 298.872 281.675 301.096 281.042C303.32 280.408 305.154 280.376 305.154 280.238Z" fill="#455A64"/>
<path d="M301.413 277.697C300.408 278.124 299.524 278.791 298.839 279.641C298.153 280.49 297.688 281.495 297.484 282.567C297.614 282.567 298.085 281.261 299.181 279.921C300.276 278.582 301.486 277.811 301.413 277.697Z" fill="#455A64"/>
<path d="M319.797 328.735C319.797 328.686 319.277 328.581 318.677 329.076C317.969 329.736 317.525 330.63 317.427 331.592C317.284 332.538 317.42 333.505 317.816 334.376C318.125 335.034 318.466 335.342 318.506 335.31C318.399 334.949 318.266 334.596 318.109 334.254C317.824 333.42 317.741 332.53 317.865 331.657C317.962 330.787 318.318 329.967 318.888 329.303C319.35 328.824 319.805 328.808 319.797 328.735Z" fill="#263238"/>
<path d="M307.419 247.877L291.957 287.08L225.376 288.168L224.142 284.564L247.478 283.72L258.695 248.94L307.419 247.877Z" fill="#455A64"/>
<path d="M276.324 264.873C276.835 264.617 277.41 264.513 277.979 264.575C278.547 264.637 279.086 264.862 279.53 265.222C279.907 265.577 280.169 266.037 280.28 266.542C280.392 267.048 280.348 267.575 280.155 268.055C279.947 268.534 279.608 268.946 279.178 269.243C278.747 269.54 278.243 269.71 277.72 269.735C277.171 269.77 276.624 269.625 276.164 269.322C275.704 269.019 275.356 268.574 275.172 268.055C274.998 267.474 275.013 266.854 275.214 266.282C275.415 265.71 275.793 265.217 276.292 264.873" fill="#EBEBEB"/>
<path d="M296.486 321.154C296.486 321.154 235.14 280.912 232.64 280.076C230.14 279.24 224.053 275.263 217.99 276.935C211.927 278.607 206.472 284.053 203.753 292.007C202.195 296.553 201.464 304.304 201.115 310.124C200.65 317.083 202.905 323.95 207.406 329.279C209.399 331.765 212.047 333.646 215.051 334.709C215.693 334.912 216.358 335.082 217.04 335.228C228.639 337.745 240.578 332.534 247.072 322.615L248.5 320.44C248.5 320.44 288.637 335.18 289.262 334.977L296.486 321.154Z" fill="#263238"/>
<path d="M220.595 310.075C220.703 310.13 220.814 310.178 220.928 310.221L221.934 310.619L225.822 312.12L240.278 317.567C246.414 319.856 253.768 322.583 262.022 325.586C270.277 328.589 279.416 331.876 289.189 335.18L289.359 335.245L289.449 335.074L294.246 325.919L296.681 321.252L296.77 321.073L296.599 320.968L249.807 291.261L235.749 282.397L231.934 280.011L230.936 279.402C230.708 279.264 230.587 279.207 230.587 279.207L230.911 279.443L231.885 280.084L235.66 282.519L249.685 291.52L296.405 321.341L296.323 321.049C295.552 322.534 294.7 324.117 293.888 325.716L289.1 334.871L289.367 334.766C279.627 331.47 270.456 328.191 262.193 325.213L240.416 317.291L225.879 311.95L221.967 310.521L220.944 310.164L220.595 310.075Z" fill="#455A64"/>
<path d="M226.959 167.181C228.006 164.348 230.319 163.123 233.249 162.416C234.723 162.073 236.258 162.091 237.723 162.469C239.188 162.846 240.541 163.572 241.666 164.584C243.151 165.939 244.239 167.83 246.073 168.642C249.101 170.014 252.973 168.009 255.813 169.689C256.667 170.192 257.32 170.974 257.661 171.904C258.002 172.834 258.011 173.853 257.686 174.789C257.361 175.724 256.722 176.518 255.877 177.036C255.033 177.553 254.035 177.762 253.054 177.627C255.026 178.552 255.391 181.523 254.036 183.228C252.68 184.932 250.172 185.395 248.07 184.802C245.998 184.088 244.16 182.823 242.754 181.142C241.276 179.518 239.978 177.773 238.371 176.272C236.828 174.704 234.781 173.733 232.592 173.528C229.645 173.415 226.91 175.403 225.376 177.911C223.842 180.419 223.249 183.398 222.819 186.32C222.389 189.242 222.064 192.213 220.936 194.94C220.806 195.265 220.611 195.614 220.279 195.687C219.783 195.792 219.426 195.248 219.232 194.786C217.011 189.573 215.836 183.975 215.774 178.309C215.733 175.062 216.107 171.954 218.144 169.381C220.181 166.808 224.881 165.209 226.934 167.14" fill="#263238"/>
<path d="M220.043 180.273L215.53 213.048C215.349 214.372 215.44 215.718 215.796 217.006C216.152 218.294 216.766 219.495 217.601 220.538C218.437 221.58 219.475 222.442 220.654 223.07C221.833 223.699 223.127 224.08 224.459 224.193C226.979 224.412 229.486 223.653 231.463 222.074C233.439 220.495 234.732 218.217 235.075 215.711C235.408 213.276 235.692 211.19 235.749 210.938C235.749 210.938 244.198 211.303 245.935 203.13C246.747 199.177 247.843 190.898 248.727 183.398C249.174 179.517 248.144 175.61 245.844 172.453C243.543 169.295 240.14 167.118 236.309 166.353L235.497 166.199C226.853 164.965 221.009 171.621 220.043 180.273Z" fill="#FFBE9D"/>
<path d="M235.741 210.824C231.942 210.127 228.435 208.316 225.668 205.622C225.668 205.622 227.015 212.017 235.335 212.927L235.741 210.824Z" fill="#EB996E"/>
<path d="M245.197 188.414C245.139 188.72 244.964 188.99 244.709 189.168C244.454 189.346 244.14 189.416 243.833 189.364C243.682 189.347 243.536 189.3 243.404 189.225C243.272 189.151 243.156 189.05 243.063 188.929C242.971 188.809 242.904 188.671 242.866 188.524C242.828 188.377 242.82 188.224 242.843 188.073C242.898 187.766 243.073 187.494 243.328 187.314C243.583 187.135 243.899 187.064 244.206 187.116C244.358 187.133 244.504 187.182 244.636 187.257C244.769 187.333 244.884 187.434 244.977 187.555C245.069 187.676 245.136 187.815 245.174 187.962C245.212 188.11 245.219 188.264 245.197 188.414Z" fill="#263238"/>
<path d="M246.122 187.067C245.943 187.197 245.189 186.361 243.931 186.109C242.672 185.857 241.617 186.312 241.496 186.109C241.374 185.906 241.65 185.784 242.112 185.573C242.729 185.299 243.417 185.228 244.077 185.37C244.732 185.496 245.33 185.829 245.781 186.32C246.13 186.71 246.203 187.018 246.122 187.067Z" fill="#263238"/>
<path d="M232.762 186.369C232.706 186.676 232.532 186.948 232.277 187.128C232.022 187.307 231.706 187.379 231.398 187.327C231.247 187.308 231.101 187.259 230.969 187.183C230.837 187.107 230.721 187.006 230.628 186.885C230.535 186.765 230.467 186.627 230.428 186.479C230.389 186.332 230.379 186.179 230.4 186.028C230.461 185.724 230.637 185.455 230.89 185.277C231.144 185.098 231.457 185.024 231.764 185.07C231.915 185.088 232.062 185.136 232.194 185.212C232.327 185.287 232.443 185.388 232.536 185.509C232.629 185.63 232.697 185.769 232.736 185.916C232.775 186.064 232.783 186.218 232.762 186.369Z" fill="#263238"/>
<path d="M233.695 184.835C233.517 184.957 232.762 184.121 231.504 183.869C230.246 183.617 229.191 184.072 229.069 183.869C228.947 183.666 229.223 183.544 229.686 183.333C230.303 183.063 230.99 182.992 231.65 183.13C232.305 183.263 232.903 183.595 233.363 184.08C233.703 184.518 233.776 184.778 233.695 184.835Z" fill="#263238"/>
<path d="M236.398 195.07C237.103 194.991 237.815 195.005 238.517 195.111C238.849 195.111 239.166 195.111 239.263 194.924C239.367 194.602 239.367 194.256 239.263 193.934C239.117 193.122 238.963 192.213 238.801 191.288C238.176 187.538 237.794 184.486 237.94 184.461C238.086 184.437 238.752 187.456 239.345 191.206C239.491 192.132 239.637 193.008 239.767 193.852C239.894 194.282 239.862 194.743 239.677 195.151C239.608 195.254 239.517 195.339 239.41 195.401C239.303 195.463 239.184 195.5 239.06 195.508C238.875 195.535 238.686 195.535 238.5 195.508C237.784 195.45 237.078 195.303 236.398 195.07Z" fill="#263238"/>
<path d="M232.519 195.216C232.73 195.216 232.454 196.612 233.428 197.813C234.402 199.015 235.863 199.161 235.863 199.355C235.863 199.55 235.489 199.55 234.872 199.445C234.069 199.297 233.342 198.872 232.819 198.244C232.323 197.635 232.082 196.859 232.145 196.076C232.21 195.492 232.429 195.184 232.519 195.216Z" fill="#263238"/>
<path d="M235.002 179.957C234.816 180.281 233.59 179.867 232.072 179.746C230.554 179.624 229.288 179.794 229.15 179.445C229.093 179.283 229.369 179.007 229.913 178.772C230.635 178.487 231.413 178.376 232.186 178.447C232.963 178.506 233.714 178.751 234.377 179.161C234.872 179.486 235.075 179.811 235.002 179.957Z" fill="#263238"/>
<path d="M246.382 183.333C246.106 183.577 245.302 183.106 244.255 182.879C243.208 182.651 242.291 182.692 242.153 182.351C242.088 182.189 242.283 181.929 242.729 181.734C243.311 181.505 243.949 181.463 244.556 181.612C245.168 181.741 245.722 182.063 246.138 182.53C246.439 182.895 246.512 183.211 246.382 183.333Z" fill="#263238"/>
<path d="M219.499 186.474C219.37 186.385 214.199 183.682 213.258 189.323C212.316 194.964 218.176 194.745 218.209 194.583C218.241 194.421 219.499 186.474 219.499 186.474Z" fill="#FFBE9D"/>
<path d="M216.845 192.156C216.845 192.156 216.74 192.213 216.561 192.262C216.31 192.321 216.046 192.284 215.823 192.156C215.494 191.866 215.25 191.493 215.115 191.076C214.981 190.659 214.962 190.213 215.06 189.786C215.125 189.299 215.299 188.832 215.571 188.422C215.648 188.254 215.764 188.107 215.909 187.992C216.055 187.878 216.225 187.8 216.407 187.765C216.526 187.755 216.644 187.787 216.742 187.855C216.84 187.923 216.911 188.023 216.943 188.138C216.991 188.301 216.943 188.414 216.943 188.422C216.943 188.43 217.081 188.349 217.073 188.114C217.064 187.969 217.007 187.832 216.91 187.724C216.844 187.652 216.764 187.593 216.675 187.553C216.586 187.512 216.489 187.49 216.391 187.489C216.153 187.496 215.92 187.564 215.715 187.686C215.511 187.808 215.341 187.981 215.222 188.187C214.899 188.636 214.691 189.157 214.613 189.705C214.459 190.849 214.865 192.01 215.644 192.375C215.788 192.445 215.946 192.481 216.107 192.481C216.267 192.481 216.425 192.445 216.569 192.375C216.813 192.294 216.861 192.172 216.845 192.156Z" fill="#EB996E"/>
<path d="M250.757 182.083C248.849 182.186 246.945 181.835 245.199 181.059C243.454 180.283 241.918 179.104 240.716 177.619C239.093 175.525 238.013 172.79 235.668 171.523C234.86 171.126 233.981 170.893 233.083 170.837C232.184 170.781 231.283 170.904 230.432 171.199C228.739 171.804 227.187 172.749 225.871 173.975C226.618 178.455 224.629 182.903 222.689 186.961C222.522 187.44 222.199 187.849 221.772 188.122C221.009 188.504 220.1 187.903 219.637 187.181C218.989 185.97 218.707 184.596 218.826 183.228C218.843 180.109 219.477 177.025 220.692 174.153C221.926 171.273 223.978 168.818 226.593 167.092C229.948 165.044 233.966 164.377 237.802 165.233C241.617 166.12 245.055 168.185 247.632 171.134C248.887 172.441 249.799 174.039 250.286 175.785" fill="#263238"/>
<path d="M23.6037 314.263C23.6392 314.144 23.6882 314.03 23.7498 313.922L24.2043 312.94C24.764 311.67 25.2174 310.356 25.5598 309.012C26.4526 305.521 26.7611 300.189 25.4381 293.858C24.7263 290.404 23.7881 287.002 22.6297 283.671C21.4365 280.059 20.0567 276.228 18.9285 272.081C17.6547 267.755 17.039 263.262 17.1022 258.753C17.2727 254.037 18.6688 249.33 20.2028 244.646C21.7369 239.963 23.3196 235.369 23.7904 230.759C24.3224 226.323 23.4328 221.833 21.2498 217.935C19.2126 214.185 16.6639 210.987 14.7565 207.667C12.9687 204.593 11.6501 201.269 10.8443 197.805C9.69456 192.784 9.6116 187.577 10.6008 182.521C10.9647 180.674 11.5084 178.866 12.2241 177.124C12.2051 177.248 12.1752 177.37 12.1348 177.489L11.8102 178.52C9.90042 184.753 9.69582 191.385 11.2177 197.724C12.031 201.148 13.3524 204.431 15.138 207.464C17.0454 210.711 19.6103 213.957 21.68 217.715C23.8969 221.69 24.803 226.263 24.2692 230.783C23.7904 235.475 22.1914 240.093 20.6655 244.776C19.1395 249.46 17.7516 254.11 17.5811 258.745C17.5105 263.208 18.1096 267.657 19.3587 271.943C20.4706 276.066 21.8424 279.897 23.0112 283.525C24.1598 286.875 25.0845 290.297 25.7789 293.769C27.0695 300.148 26.6961 305.538 25.7789 309.036C25.4212 310.385 24.9375 311.698 24.3342 312.956C24.1231 313.362 23.9527 313.679 23.8309 313.922C23.7663 314.043 23.6902 314.157 23.6037 314.263Z" fill="#263238"/>
<path d="M17.3457 210.938C17.3457 210.938 13.4578 198.52 20.43 191.247C20.484 191.188 20.5532 191.146 20.6299 191.125C20.7066 191.103 20.7877 191.103 20.8643 191.125C20.9408 191.147 21.0098 191.19 21.0636 191.249C21.1173 191.307 21.1537 191.38 21.1686 191.458C21.542 193.512 22.0046 199.761 17.3457 210.938Z" fill="#3366FF"/>
<path d="M19.6752 195.387C19.6622 196.156 19.5725 196.923 19.4074 197.675C19.1557 199.299 18.8554 201.109 18.5226 203.154C18.1899 205.2 17.9058 207.058 17.6542 208.633C17.5885 209.402 17.4499 210.163 17.2402 210.906C17.1746 210.134 17.1991 209.358 17.3133 208.592C17.4431 207.172 17.6947 205.224 18.0438 203.081C18.3928 200.938 18.7661 199.023 19.0746 197.619C19.1884 196.854 19.3899 196.105 19.6752 195.387Z" fill="#263238"/>
<path d="M21.9075 240.239C21.9075 240.239 24.2857 227.439 33.8471 224.29C33.9225 224.264 34.0036 224.259 34.0816 224.276C34.1595 224.293 34.2311 224.332 34.2884 224.387C34.3457 224.443 34.3864 224.513 34.4059 224.591C34.4254 224.668 34.4231 224.749 34.399 224.826C33.7822 226.79 31.2579 232.536 21.9075 240.239Z" fill="#3366FF"/>
<path d="M31.2414 227.577C30.8702 228.252 30.4324 228.888 29.9347 229.476C28.9769 230.759 27.8406 232.252 26.5906 233.908L23.2303 238.348C22.8108 238.994 22.3326 239.6 21.8018 240.158C22.1035 239.445 22.4876 238.769 22.9462 238.145C23.7579 236.952 24.8536 235.345 26.1929 233.616C27.5321 231.887 28.7415 230.369 29.6587 229.265C30.1194 228.643 30.6505 228.077 31.2414 227.577Z" fill="#263238"/>
<path d="M19.3263 272.341C19.3263 272.341 17.8816 259.403 26.1119 253.591C26.1767 253.544 26.2532 253.517 26.3329 253.511C26.4126 253.505 26.4924 253.522 26.5632 253.559C26.6339 253.596 26.693 253.652 26.7337 253.721C26.7744 253.79 26.7952 253.868 26.7937 253.948C26.7693 256.026 26.0307 262.252 19.3263 272.341Z" fill="#3366FF"/>
<path d="M24.5776 257.511C24.4233 258.267 24.1893 259.005 23.8796 259.711C23.3277 261.213 22.6865 262.958 21.9641 264.922L20.0729 270.133C19.8717 270.874 19.5999 271.594 19.2612 272.284C19.3471 271.515 19.5187 270.758 19.7726 270.027C20.1703 268.656 20.7872 266.781 21.542 264.751C22.2969 262.722 23.0355 260.896 23.5955 259.589C23.8432 258.862 24.1727 258.165 24.5776 257.511Z" fill="#263238"/>
<path d="M26.5258 304.645C26.5258 304.645 25.5437 291.658 33.9769 286.155C34.0428 286.11 34.1201 286.084 34.2 286.08C34.2799 286.076 34.3593 286.094 34.4293 286.133C34.4993 286.172 34.5571 286.23 34.5962 286.299C34.6353 286.369 34.6541 286.449 34.6506 286.529C34.545 288.598 33.5873 294.791 26.5258 304.645Z" fill="#3366FF"/>
<path d="M32.3048 290.035C32.1101 290.786 31.8381 291.515 31.4932 292.21C30.8844 293.687 30.1782 295.457 29.3909 297.34L27.3049 302.486C27.0923 303.202 26.8152 303.898 26.4771 304.564C26.5862 303.799 26.785 303.05 27.0696 302.332C27.5079 300.976 28.1978 299.134 29.0257 297.129C29.8536 295.124 30.649 293.322 31.2578 292.04C31.5321 291.335 31.8832 290.663 32.3048 290.035Z" fill="#263238"/>
<path d="M11.7615 200.029C11.7615 200.029 0.227688 194.007 0.000420851 183.934C-0.00311753 183.854 0.0157123 183.774 0.0547943 183.705C0.0938764 183.635 0.15166 183.577 0.221652 183.539C0.291644 183.5 0.371067 183.481 0.450995 183.485C0.530923 183.489 0.608188 183.515 0.674103 183.56C2.38672 184.745 7.13497 188.828 11.7615 200.029Z" fill="#3366FF"/>
<path d="M2.39478 187.391C2.93391 187.941 3.4153 188.545 3.83142 189.193L7.07809 193.69L10.3248 198.178C10.8194 198.768 11.2595 199.401 11.6397 200.07C11.0293 199.581 10.4838 199.016 10.0163 198.39C9.09914 197.302 7.88976 195.743 6.62356 193.982C5.35736 192.221 4.25349 190.589 3.48241 189.388C3.04489 188.766 2.67997 188.096 2.39478 187.391Z" fill="#263238"/>
<path d="M24.1474 226.725C24.1474 226.725 12.2727 221.416 11.4286 211.376C11.4218 211.297 11.437 211.218 11.4724 211.147C11.5078 211.076 11.5621 211.017 11.6292 210.975C11.6963 210.933 11.7737 210.91 11.8529 210.909C11.9321 210.909 12.0099 210.93 12.0779 210.97C13.8636 212.017 18.8553 215.808 24.1474 226.725Z" fill="#3366FF"/>
<path d="M14.0342 214.664C14.6041 215.182 15.1207 215.755 15.5763 216.376L19.099 220.67L22.6297 224.947C23.1567 225.493 23.6296 226.088 24.042 226.725C23.4231 226.248 22.8595 225.704 22.3619 225.102C21.3798 224.063 20.0811 222.585 18.7094 220.905C17.3377 219.225 16.1364 217.659 15.3004 216.514C14.8097 215.947 14.3849 215.326 14.0342 214.664Z" fill="#263238"/>
<path d="M17.3134 256.464C17.3134 256.464 9.15611 246.318 12.9872 236.984C13.0163 236.911 13.0653 236.846 13.1286 236.799C13.192 236.751 13.2673 236.722 13.3463 236.714C13.4252 236.706 13.5047 236.721 13.576 236.756C13.6473 236.79 13.7075 236.844 13.7501 236.911C14.8459 238.705 17.5487 244.346 17.3134 256.464Z" fill="#3366FF"/>
<path d="M13.7907 241.132C14.0637 241.851 14.2622 242.596 14.3832 243.356C14.7241 244.922 15.1218 246.757 15.5682 248.786C16.0146 250.815 16.3799 252.641 16.7614 254.2C16.9785 254.94 17.1279 255.698 17.2078 256.464C16.8474 255.776 16.5747 255.045 16.3961 254.289C15.9903 252.917 15.5114 251.042 15.0569 248.883C14.6023 246.724 14.2452 244.825 14.0179 243.429C13.8584 242.674 13.7822 241.904 13.7907 241.132Z" fill="#263238"/>
<path d="M25.3975 291.48C25.3975 291.48 13.604 285.977 12.9384 275.912C12.9333 275.834 12.9497 275.756 12.9857 275.686C13.0218 275.616 13.0761 275.558 13.143 275.517C13.2098 275.476 13.2866 275.454 13.365 275.454C13.4434 275.453 13.5204 275.474 13.5878 275.514C15.3572 276.626 20.284 280.498 25.3975 291.48Z" fill="#3366FF"/>
<path d="M15.479 279.264C16.0426 279.79 16.5511 280.372 16.9968 281.001C17.9871 282.259 19.1559 283.728 20.4464 285.352L23.9041 289.694C24.424 290.262 24.8913 290.876 25.3002 291.529C24.6963 291.054 24.1513 290.509 23.6768 289.905C22.7191 288.858 21.4448 287.357 20.1055 285.652C18.7663 283.948 17.5488 282.373 16.7371 281.212C16.2492 280.61 15.8274 279.957 15.479 279.264Z" fill="#263238"/>
<path d="M48.8792 240.304C48.8905 240.401 48.8905 240.499 48.8792 240.596C48.8792 240.824 48.8792 241.091 48.8792 241.408C48.8792 242.22 48.798 243.25 48.7412 244.565C48.587 247.341 48.3759 251.205 48.1243 255.839C47.3126 260.547 44.8776 265.766 41.631 270.831C39.269 274.564 36.761 277.965 34.6588 281.123C32.7153 283.879 30.9659 286.768 29.4235 289.767C28.415 291.802 27.5998 293.927 26.9885 296.114C26.7775 296.885 26.6233 297.494 26.534 297.908C26.4981 298.122 26.441 298.331 26.3635 298.533C26.3661 298.317 26.3906 298.103 26.4366 297.892C26.4934 297.47 26.6233 296.853 26.8018 296.066C27.3526 293.828 28.1305 291.652 29.1232 289.572C30.6318 286.536 32.3598 283.615 34.2935 280.831C36.412 277.649 38.8794 274.248 41.2333 270.539C44.4799 265.49 46.8175 260.352 47.7266 255.718C48.0513 251.099 48.3191 247.236 48.5383 244.46C48.6438 243.145 48.7331 242.09 48.7899 241.311C48.7899 240.986 48.8548 240.71 48.8792 240.499C48.8722 240.434 48.8722 240.369 48.8792 240.304Z" fill="#263238"/>
<path d="M41.8987 269.906C41.8987 269.906 46.8904 257.885 40.6081 250.012C40.5594 249.948 40.4942 249.9 40.4195 249.872C40.3449 249.844 40.264 249.837 40.1857 249.852C40.1073 249.867 40.0348 249.904 39.9761 249.958C39.9174 250.012 39.8749 250.081 39.8533 250.158C39.2608 252.171 38.23 258.38 41.8987 269.906Z" fill="#3366FF"/>
<path d="M40.949 254.208C41.1642 254.949 41.2976 255.711 41.3467 256.481C41.5252 257.893 41.7201 259.849 41.8743 262.016C42.0285 264.184 42.1015 266.148 42.1015 267.568C42.1516 268.339 42.1052 269.114 41.9636 269.873C41.8225 269.119 41.7545 268.352 41.7606 267.584C41.6551 265.961 41.5253 264.119 41.3873 262.049C41.2493 259.979 41.1113 258.104 41.0058 256.513C40.9111 255.749 40.8921 254.977 40.949 254.208Z" fill="#263238"/>
<g opacity="0.3">
<path opacity="0.3" d="M41.8987 269.906C41.8987 269.906 46.8904 257.885 40.6081 250.012C40.5594 249.948 40.4942 249.9 40.4195 249.872C40.3449 249.844 40.264 249.837 40.1857 249.852C40.1073 249.867 40.0348 249.904 39.9761 249.958C39.9174 250.012 39.8749 250.081 39.8533 250.158C39.2608 252.171 38.23 258.38 41.8987 269.906Z" fill="black"/>
</g>
<path d="M26.3959 298.866C26.3959 298.866 30.3974 286.488 23.4982 279.15C23.4447 279.092 23.3762 279.049 23.3001 279.028C23.2239 279.006 23.1432 279.005 23.0668 279.026C22.9905 279.047 22.9213 279.089 22.8671 279.146C22.8129 279.204 22.7757 279.276 22.7596 279.353C22.3619 281.399 21.8424 287.641 26.3959 298.866Z" fill="#3366FF"/>
<path d="M24.2124 283.29C24.4882 284.013 24.6815 284.764 24.7887 285.53C25.0809 286.918 25.438 288.85 25.7708 291.001C26.1036 293.152 26.3309 295.1 26.4445 296.52C26.5548 297.287 26.5711 298.063 26.4932 298.834C26.2955 298.089 26.1651 297.329 26.1036 296.561C25.8682 294.938 25.5922 293.128 25.2919 291.074C24.9916 289.021 24.6994 287.17 24.4803 285.587C24.3157 284.832 24.226 284.063 24.2124 283.29Z" fill="#263238"/>
<g opacity="0.3">
<path opacity="0.3" d="M26.3959 298.866C26.3959 298.866 30.3974 286.488 23.4982 279.15C23.4447 279.092 23.3762 279.049 23.3001 279.028C23.2239 279.006 23.1432 279.005 23.0668 279.026C22.9905 279.047 22.9213 279.089 22.8671 279.146C22.8129 279.204 22.7757 279.276 22.7596 279.353C22.3619 281.399 21.8424 287.641 26.3959 298.866Z" fill="black"/>
</g>
<path d="M48.2134 255.222C48.2134 255.222 58.8787 247.755 57.7992 237.739C57.7922 237.66 57.7633 237.584 57.7157 237.52C57.6681 237.456 57.6037 237.406 57.5296 237.377C57.4555 237.347 57.3747 237.339 57.2962 237.353C57.2176 237.367 57.1445 237.402 57.0849 237.455C55.5427 238.9 51.3545 243.518 48.2134 255.222Z" fill="#3366FF"/>
<g opacity="0.3">
<path opacity="0.3" d="M48.2134 255.222C48.2134 255.222 58.8787 247.755 57.7992 237.739C57.7922 237.66 57.7633 237.584 57.7157 237.52C57.6681 237.456 57.6037 237.406 57.5296 237.377C57.4555 237.347 57.3747 237.339 57.2962 237.353C57.2176 237.367 57.1445 237.402 57.0849 237.455C55.5427 238.9 51.3545 243.518 48.2134 255.222Z" fill="black"/>
</g>
<path d="M55.8757 241.481C55.6603 242.22 55.3636 242.934 54.991 243.608C54.3822 244.898 53.4975 246.651 52.4667 248.567C51.4359 250.482 50.4457 252.179 49.6746 253.38C49.3059 254.059 48.8502 254.686 48.3191 255.247C48.6119 254.535 48.9677 253.85 49.3824 253.201L52.0365 248.331L54.6826 243.461C55.011 242.762 55.4109 242.098 55.8757 241.481Z" fill="#263238"/>
<path d="M30.6895 286.594C30.6895 286.594 43.5219 284.589 46.9958 275.125C47.0245 275.05 47.0319 274.969 47.0171 274.89C47.0022 274.812 46.9658 274.739 46.9118 274.68C46.8579 274.621 46.7886 274.578 46.7116 274.556C46.6347 274.535 46.5532 274.535 46.4764 274.557C44.4715 275.125 38.6519 277.47 30.6895 286.594Z" fill="#3366FF"/>
<g opacity="0.3">
<path opacity="0.3" d="M30.6895 286.594C30.6895 286.594 43.5219 284.589 46.9958 275.125C47.0245 275.05 47.0319 274.969 47.0171 274.89C47.0022 274.812 46.9658 274.739 46.9118 274.68C46.8579 274.621 46.7886 274.578 46.7116 274.556C46.6347 274.535 46.5532 274.535 46.4764 274.557C44.4715 275.125 38.6519 277.47 30.6895 286.594Z" fill="black"/>
</g>
<path d="M43.6196 277.633C43.1011 278.198 42.5243 278.707 41.8988 279.15C40.7868 280.043 39.2203 281.228 37.4509 282.486C35.6815 283.744 34.0419 284.84 32.8325 285.587C32.1967 286.028 31.5099 286.39 30.7871 286.666C31.3611 286.154 31.9805 285.695 32.6377 285.295L37.1749 282.097L41.6959 278.85C42.2932 278.379 42.9379 277.971 43.6196 277.633Z" fill="#263238"/>
<path d="M18.4254 310.262L14.6755 335.505H38.0515L35.0159 310.262H18.4254Z" fill="#455A64"/>
<path d="M35.9573 318.078C35.9573 318.216 31.7366 318.322 26.5257 318.322C21.3148 318.322 17.1023 318.216 17.1023 318.078C20.2373 317.838 23.3825 317.756 26.5257 317.835C29.6717 317.756 32.8196 317.838 35.9573 318.078Z" fill="#263238"/>
<path d="M36.4199 320.067C36.4199 320.196 32.0613 320.31 26.6799 320.31C21.2986 320.31 16.9399 320.196 16.9399 320.067C16.9399 319.937 21.2986 319.823 26.6799 319.823C32.0613 319.823 36.4199 319.953 36.4199 320.067Z" fill="#263238"/>
</svg>
