<svg width="93" height="67" viewBox="0 0 93 67" fill="none" xmlns="http://www.w3.org/2000/svg">
<path d="M6.64795 59.8481L31.4892 56.8593L87.4031 24.0169L76.5795 7.08265L21.9249 39.4215L6.64795 59.8481Z" fill="#3366FF"/>
<path d="M22.008 39.1013C22.8699 39.545 23.2009 40.6194 22.7213 41.4897C22.6833 41.5319 22.6452 41.574 22.649 41.6546C25.0179 40.9373 27.4856 42.3145 28.1571 44.6646C28.5413 46.019 28.2882 47.4438 27.5004 48.5708C30.3544 48.7995 32.4776 51.3637 32.2529 54.2404C32.1767 55.1724 31.8589 56.0755 31.2937 56.8288L6.64795 59.8481L22.008 39.1013Z" fill="#D6E0FF"/>
<path d="M16.6435 58.6347C16.6435 58.6347 19.0051 54.3598 12.8936 51.309L6.64795 59.8481L16.6435 58.6347Z" fill="#3366FF"/>
</svg>
