<svg width="85" height="49" viewBox="0 0 85 49" fill="none" xmlns="http://www.w3.org/2000/svg">
<rect width="85" height="49" rx="3" fill="#D6E0FF"/>
<rect x="7" y="10" width="71" height="31" rx="2" fill="#F3F6FF"/>
<path d="M15.05 15.25H15.95V16.15H15.05V15.25ZM15.05 17.05H15.95V19.75H15.05V17.05ZM15.5 13C13.016 13 11 15.016 11 17.5C11 19.984 13.016 22 15.5 22C17.984 22 20 19.984 20 17.5C20 15.016 17.984 13 15.5 13ZM15.5 21.1C13.5155 21.1 11.9 19.4845 11.9 17.5C11.9 15.5155 13.5155 13.9 15.5 13.9C17.4845 13.9 19.1 15.5155 19.1 17.5C19.1 19.4845 17.4845 21.1 15.5 21.1Z" fill="#3366FF"/>
<rect x="24" y="16" width="48" height="4" rx="1" fill="#3366FF"/>
<rect x="13" y="26" width="59" height="2" rx="1" fill="#9DB5FF"/>
<rect x="13" y="29" width="59" height="2" rx="1" fill="#9DB5FF"/>
</svg>
