<svg width="48" height="48" viewBox="0 0 48 48" fill="none" xmlns="http://www.w3.org/2000/svg">
<path d="M14.4 48H3.69231C2.70769 48 1.84615 47.6205 1.10769 46.8615C0.369231 46.1026 0 45.1897 0 44.1231V33.2923C1.80513 33.0872 3.35385 32.3795 4.64615 31.1692C5.93846 29.959 6.58462 28.4718 6.58462 26.7077C6.58462 24.9436 5.93846 23.4564 4.64615 22.2462C3.35385 21.0359 1.80513 20.3282 0 20.1231V9.29231C0 8.34872 0.369231 7.49744 1.10769 6.73846C1.84615 5.97949 2.70769 5.6 3.69231 5.6H14.5231C14.9744 3.95897 15.7538 2.61538 16.8615 1.56923C17.9692 0.523077 19.3436 0 20.9846 0C22.5846 0 24.0205 0.523077 25.2923 1.56923C26.5641 2.61538 27.4256 3.95897 27.8769 5.6H38.7077C39.6513 5.6 40.5026 5.97949 41.2615 6.73846C42.0205 7.49744 42.4 8.34872 42.4 9.29231V20.1231C44.041 20.5744 45.3846 21.4359 46.4308 22.7077C47.4769 23.9795 48 25.4154 48 27.0154C48 28.6564 47.4769 30.0308 46.4308 31.1385C45.3846 32.2462 44.041 33.0256 42.4 33.4769V44.3077C42.4 45.2923 42.0205 46.1538 41.2615 46.8923C40.5026 47.6308 39.6513 48 38.7077 48H28C27.7949 46.0308 27.0154 44.441 25.6615 43.2308C24.3077 42.0205 22.7487 41.4154 20.9846 41.4154C19.4256 41.4154 17.9897 42.0205 16.6769 43.2308C15.3641 44.441 14.6051 46.0308 14.4 48Z" fill="#3366FF"/>
</svg>
