<svg width="44" height="39" viewBox="0 0 44 39" fill="none" xmlns="http://www.w3.org/2000/svg">
<path d="M42.9355 7.99228C42.2528 6.42828 41.2684 5.011 40.0375 3.81978C38.8056 2.62501 37.3532 1.67554 35.7592 1.023C34.1063 0.343677 32.3336 -0.0040404 30.5438 3.54202e-05C28.0328 3.54202e-05 25.583 0.680333 23.4541 1.96534C22.9448 2.27273 22.4609 2.61036 22.0025 2.97823C21.5441 2.61036 21.0603 2.27273 20.551 1.96534C18.422 0.680333 15.9722 3.54202e-05 13.4613 3.54202e-05C11.6532 3.54202e-05 9.90113 0.342704 8.24585 1.023C6.64659 1.6781 5.20523 2.62044 3.96758 3.81978C2.73502 5.00966 1.75041 6.42727 1.06957 7.99228C0.361616 9.61995 0 11.3484 0 13.1273C0 14.8053 0.346336 16.5539 1.03391 18.3328C1.60944 19.8194 2.43454 21.3614 3.48883 22.9185C5.15939 25.3827 7.45641 27.9527 10.3086 30.558C15.0351 34.8766 19.7157 37.8599 19.9143 37.9808L21.1214 38.7468C21.6562 39.0844 22.3438 39.0844 22.8785 38.7468L24.0856 37.9808C24.2843 37.8548 28.9598 34.8766 33.6914 30.558C36.5435 27.9527 38.8406 25.3827 40.5111 22.9185C41.5654 21.3614 42.3956 19.8194 42.966 18.3328C43.6536 16.5539 43.9999 14.8053 43.9999 13.1273C44.005 11.3484 43.6434 9.61995 42.9355 7.99228Z" fill="#3366FF"/>
</svg>
