<svg width="402" height="408" viewBox="0 0 402 408" fill="none" xmlns="http://www.w3.org/2000/svg">
<path d="M263.078 81.6564C260.908 81.2886 258.872 80.3565 257.175 78.9535C255.479 77.5505 254.181 75.7261 253.412 73.6631C252.643 71.6002 252.431 69.3714 252.795 67.2003C253.16 65.0292 254.089 62.9921 255.489 61.2935L301.48 5.44351C302.871 3.7316 304.693 2.42034 306.757 1.64415C308.822 0.867961 311.056 0.65476 313.23 1.0264H313.274C315.441 1.38142 317.475 2.30417 319.17 3.70076C320.864 5.09735 322.159 6.91791 322.921 8.9772L348.293 76.7357C349.066 78.7989 349.281 81.0291 348.919 83.2022C348.557 85.3753 347.629 87.4148 346.229 89.1157C344.829 90.8167 343.006 92.1192 340.943 92.8924C338.88 93.6656 336.65 93.8823 334.476 93.5208L263.113 81.6122L263.078 81.6564Z" fill="#3366FF"/>
<path d="M263.078 81.6565L263.829 81.7536L266.046 82.0982L274.563 83.4763L305.854 88.6267L327.462 92.1604L333.39 93.141C334.385 93.3424 335.396 93.4606 336.411 93.4943C337.434 93.5148 338.456 93.4019 339.45 93.1586C341.52 92.6497 343.423 91.6169 344.978 90.1594C346.533 88.702 347.687 86.869 348.329 84.8368C348.998 82.7248 349.074 80.4695 348.549 78.3171C348.249 77.2271 347.883 76.1562 347.454 75.1103C347.048 74.0325 346.65 72.9547 346.244 71.8681C344.612 67.5276 342.951 63.1105 341.261 58.6168C337.878 49.597 334.379 40.2593 330.801 30.6918C329.035 25.9095 327.268 21.1979 325.501 16.557C324.617 14.2248 323.734 11.9191 322.904 9.62215C322.274 7.66501 321.164 5.89678 319.675 4.47896C318.187 3.06113 316.366 2.0389 314.381 1.50561C312.395 0.97233 310.308 0.944992 308.309 1.4261C306.31 1.90721 304.464 2.88142 302.938 4.25978C302.125 5.04398 301.369 5.88538 300.677 6.77753C299.24 8.54438 297.814 10.2729 296.401 11.9632L266.462 48.2454C262.221 53.4223 258.308 58.0602 254.977 62.1947C253.549 64.2033 252.758 66.5949 252.707 69.0589C252.675 71.1301 253.151 73.1775 254.094 75.022C254.838 76.4968 255.868 77.809 257.124 78.8825C258.052 79.6624 259.087 80.305 260.198 80.7907C260.884 81.0864 261.593 81.3257 262.318 81.5063C262.804 81.6123 263.061 81.683 263.061 81.683C263.061 81.683 262.804 81.683 262.301 81.5505C260.514 81.1658 258.836 80.3872 257.389 79.2715C255.942 78.1558 254.762 76.7312 253.935 75.1015C252.963 73.2368 252.465 71.1615 252.486 69.0589C252.523 66.5447 253.317 64.1002 254.765 62.0445C258.078 57.8659 261.965 53.2102 266.197 48.0422L296.056 11.6982L300.332 6.50367C301.031 5.59176 301.799 4.73523 302.629 3.94174C303.517 3.14034 304.513 2.4682 305.589 1.94521C307.23 1.13872 309.025 0.693992 310.853 0.641089C312.681 0.588187 314.499 0.928343 316.184 1.63856C317.869 2.34878 319.382 3.4125 320.62 4.75782C321.859 6.10314 322.794 7.6987 323.363 9.43663C324.246 11.7335 325.13 14.0393 325.96 16.3715C327.727 21.0271 329.494 25.7623 331.261 30.5063C334.847 40.0737 338.328 49.4115 341.721 58.4401C343.405 62.9456 345.06 67.3627 346.685 71.6915L347.896 74.9248C348.33 75.9888 348.701 77.0772 349.009 78.1846C349.546 80.4141 349.463 82.748 348.77 84.934C348.102 87.0332 346.907 88.9259 345.298 90.4309C343.69 91.9359 341.722 93.0029 339.583 93.5297C338.553 93.7731 337.496 93.8858 336.438 93.8654C335.402 93.8307 334.37 93.7095 333.354 93.5032L327.436 92.5137L305.836 88.8829L274.572 83.5823L266.073 82.1247L263.864 81.736L263.078 81.6565Z" fill="#263238"/>
<path d="M312.656 4.74567C311.129 4.46829 309.555 4.60463 308.098 5.14054C306.64 5.67646 305.353 6.59244 304.37 7.79348L258.379 63.6435C257.407 64.8363 256.764 66.2623 256.513 67.7801C256.262 69.2979 256.411 70.855 256.947 72.2972C257.482 73.7394 258.385 75.0169 259.566 76.003C260.747 76.9891 262.164 77.6498 263.679 77.9196L335.095 89.8634C336.62 90.1135 338.183 89.9593 339.63 89.4162C341.076 88.8731 342.355 87.9602 343.338 86.7685C344.322 85.5768 344.975 84.148 345.234 82.6247C345.493 81.1014 345.347 79.537 344.813 78.0874L319.414 10.3377C318.882 8.89162 317.977 7.61228 316.79 6.62998C315.602 5.64769 314.176 4.99752 312.656 4.74567Z" fill="white"/>
<path d="M297.019 66.8148C297.122 66.1975 297.348 65.6073 297.684 65.0799C298.021 64.5525 298.461 64.0988 298.978 63.7462C299.495 63.3937 300.078 63.1495 300.692 63.0286C301.306 62.9076 301.938 62.9124 302.55 63.0426C303.151 63.1406 303.728 63.3562 304.246 63.677C304.764 63.9977 305.214 64.4174 305.57 64.9121C305.926 65.4067 306.181 65.9667 306.321 66.5599C306.46 67.1532 306.482 67.7681 306.384 68.3696C306.286 68.9712 306.07 69.5475 305.749 70.0657C305.429 70.584 305.009 71.0339 304.514 71.3899C304.02 71.746 303.46 72.0011 302.866 72.1407C302.273 72.2803 301.658 72.3017 301.057 72.2037C300.433 72.1263 299.831 71.9238 299.287 71.6084C298.743 71.293 298.269 70.8711 297.892 70.368C297.515 69.8648 297.243 69.2908 297.094 68.6803C296.944 68.0698 296.918 67.4353 297.019 66.8148ZM303.477 29.7111L312.232 31.1422L306.251 58.5725L300.394 57.6184L303.477 29.7111Z" fill="#3366FF"/>
<path d="M291.895 86.4622L284.431 123.389H300.394L306.949 88.9711L291.895 86.4622Z" fill="#455A64"/>
<path d="M300.825 104.057C266.366 73.9456 219.721 104.057 174.403 167.423C129.085 230.79 107.536 204.122 69.0123 232.051C30.4883 259.979 20.1844 374.385 155.913 363.262C291.641 352.14 390.906 182.667 300.825 104.057Z" fill="#F5F7FF"/>
<path d="M342.671 406.821C342.671 406.952 277.328 407.065 196.751 407.065C116.174 407.065 50.804 406.952 50.804 406.821C50.804 406.689 116.137 406.576 196.751 406.576C277.366 406.576 342.671 406.698 342.671 406.821Z" fill="#263238"/>
<path d="M279.003 291.625C264.465 281.471 261.172 262.623 261.746 245.676C261.84 242.853 261.529 239.861 262.875 237.386C264.221 234.911 267.363 233.208 269.895 234.394C271.993 235.382 272.906 237.828 274.082 239.851C275.652 242.546 277.951 244.742 280.716 246.184C282.513 247.125 284.744 247.69 286.522 246.711C288.969 245.366 289.251 242.006 289.232 239.183C289.232 233.933 289.201 228.688 289.138 223.45C288.969 220.637 289.255 217.816 289.985 215.094C290.86 212.422 292.808 209.947 295.471 209.194C298.134 208.441 301.455 209.994 302.058 212.741C302.161 213.905 302.19 215.075 302.142 216.242C302.218 217.418 302.763 218.707 303.864 219.065C304.965 219.423 306.113 218.604 306.96 217.776C309.859 214.953 311.835 211.274 313.669 207.641C315.504 204.009 317.302 200.273 319.936 197.178C322.571 194.082 326.213 191.626 330.287 191.39C334.362 191.155 338.606 193.658 339.622 197.61C340.638 201.563 338.333 205.599 335.858 208.808C332.124 213.571 327.721 217.77 322.788 221.276C321.825 221.802 321.056 222.623 320.595 223.619C319.984 225.501 321.762 227.383 323.616 227.976C325.714 228.672 327.991 228.456 330.203 228.719C332.414 228.983 334.766 229.943 335.604 232.013C336.752 234.892 334.343 237.904 331.981 239.88C327.239 243.832 321.853 246.941 316.06 249.073C313.989 249.826 311.816 250.494 310.141 251.943C308.466 253.392 307.468 255.923 308.475 257.909C309.482 259.894 312.07 260.525 314.244 260.12C316.417 259.716 318.346 258.549 320.416 257.768C324.284 256.309 329.271 256.573 331.708 259.913C332.463 261.064 332.941 262.374 333.105 263.741C333.268 265.107 333.112 266.493 332.649 267.789C331.707 270.369 330.258 272.733 328.387 274.743C322.224 282.107 314.216 287.702 305.182 290.956C296.214 294.062 287.905 294.909 278.994 291.643" fill="#3366FF"/>
<path d="M335.482 193.715C335.482 193.715 335.397 193.809 335.209 193.978L334.372 194.721C333.638 195.38 332.556 196.34 331.191 197.61C327.323 201.202 323.731 205.081 320.445 209.213C318.347 211.819 316.173 214.774 313.858 217.983C311.543 221.191 309.153 224.654 306.782 228.334C304.254 232.213 301.939 236.228 299.847 240.359C298.755 242.514 297.796 244.763 296.808 247.059L293.89 254.07C290.045 262.9 286.696 271.938 283.86 281.142C281.574 288.672 279.999 296.4 279.155 304.224C278.607 309.504 278.519 314.822 278.891 320.118C279.042 322 279.183 323.439 279.315 324.418C279.371 324.888 279.409 325.265 279.446 325.538V325.923C279.406 325.801 279.377 325.675 279.362 325.547C279.315 325.274 279.258 324.907 279.183 324.437C279.013 323.496 278.835 322.009 278.665 320.127C278.211 314.822 278.243 309.486 278.759 304.187C279.552 296.329 281.092 288.565 283.361 281.001C286.174 271.771 289.514 262.71 293.363 253.863L296.356 246.88C297.344 244.594 298.313 242.326 299.414 240.162C301.52 236.018 303.855 231.994 306.406 228.108C308.815 224.344 311.242 220.937 313.529 217.757C315.815 214.576 318.027 211.603 320.116 209.006C323.435 204.884 327.075 201.033 331.003 197.488C332.396 196.236 333.506 195.295 334.259 194.665L335.134 193.959C335.241 193.866 335.358 193.784 335.482 193.715Z" fill="#263238"/>
<path d="M299.535 240.143C299.403 239.756 299.311 239.355 299.263 238.948C299.112 238.167 298.943 237.066 298.745 235.636C298.34 232.813 297.926 228.945 297.484 224.664C297.042 220.382 296.543 216.506 296.129 213.711C295.913 212.318 295.724 211.198 295.593 210.417C295.49 210.018 295.436 209.607 295.433 209.194C295.595 209.571 295.712 209.966 295.781 210.37C295.988 211.142 296.223 212.252 296.487 213.654C297.023 216.477 297.55 220.317 297.992 224.607C298.434 228.898 298.811 232.662 299.103 235.589C299.244 236.906 299.366 238.026 299.46 238.92C299.533 239.323 299.559 239.734 299.535 240.143Z" fill="#263238"/>
<path d="M335.745 233.387C335.287 233.487 334.821 233.543 334.353 233.556C333.412 233.641 332.075 233.754 330.419 233.942C327.107 234.3 322.553 234.958 317.556 235.899C312.559 236.84 308.071 237.904 304.843 238.722C303.234 239.136 301.936 239.513 301.079 239.767C300.622 239.929 300.149 240.043 299.668 240.106C300.103 239.887 300.556 239.707 301.023 239.569C301.907 239.259 303.187 238.826 304.787 238.365C307.995 237.424 312.484 236.304 317.499 235.344C321.748 234.532 326.035 233.935 330.344 233.556C332.009 233.415 333.355 233.359 334.296 233.34C334.78 233.307 335.265 233.323 335.745 233.387Z" fill="#263238"/>
<path d="M283.821 280.342C283.721 280.206 283.638 280.057 283.576 279.9L282.955 278.592C282.419 277.453 281.694 275.769 280.829 273.708C279.078 269.568 276.848 263.771 274.477 257.335C272.106 250.899 269.923 245.102 268.266 240.915C267.457 238.882 266.789 237.217 266.29 235.975L265.763 234.629C265.69 234.474 265.64 234.309 265.613 234.14C265.713 234.276 265.795 234.424 265.858 234.582L266.479 235.89C267.006 237.028 267.74 238.713 268.605 240.774C270.355 244.914 272.586 250.71 274.957 257.147C277.328 263.583 279.511 269.38 281.167 273.567C281.977 275.6 282.645 277.265 283.134 278.507C283.351 279.044 283.529 279.448 283.67 279.853C283.744 280.008 283.794 280.173 283.821 280.342Z" fill="#263238"/>
<path d="M331.887 264.844C331.736 264.931 331.575 264.997 331.407 265.042L330.014 265.512L324.867 267.178C320.52 268.589 314.516 270.603 307.929 272.824C301.342 275.045 295.31 277.021 290.935 278.338C288.752 279.006 286.973 279.514 285.741 279.853L284.32 280.22C284.154 280.272 283.984 280.307 283.812 280.323C283.962 280.237 284.124 280.171 284.291 280.126L285.684 279.655L290.831 277.99C295.179 276.578 301.182 274.565 307.769 272.344C314.356 270.123 320.378 268.147 324.754 266.83C326.946 266.162 328.715 265.653 329.958 265.315L331.379 264.948C331.544 264.895 331.714 264.861 331.887 264.844Z" fill="#263238"/>
<path d="M262.733 335.484L168.738 335.051C163.31 335.022 158.115 332.839 154.296 328.982C150.476 325.125 148.343 319.91 148.366 314.481L149.363 78.8484C149.374 76.1591 149.915 73.4983 150.955 71.0182C151.995 68.5381 153.514 66.2873 155.424 64.3945C157.334 62.5016 159.599 61.0038 162.089 59.9866C164.578 58.9695 167.244 58.4529 169.933 58.4666L263.919 58.8994C269.347 58.9268 274.543 61.1075 278.364 64.9626C282.186 68.8176 284.321 74.0318 284.301 79.46L283.303 315.084C283.292 317.774 282.751 320.435 281.712 322.917C280.672 325.398 279.154 327.65 277.243 329.544C275.333 331.439 273.069 332.938 270.579 333.957C268.09 334.977 265.424 335.495 262.733 335.484Z" fill="#455A64"/>
<path d="M263.778 67.0016H245.56C244.966 67.0126 244.38 67.1406 243.835 67.3783C243.29 67.616 242.797 67.9587 242.384 68.3869C241.972 68.8151 241.648 69.3203 241.431 69.8738C241.214 70.4272 241.108 71.018 241.119 71.6124V74.9153C241.13 75.5093 241.024 76.0996 240.807 76.6525C240.59 77.2054 240.265 77.71 239.853 78.1374C239.44 78.5649 238.947 78.9067 238.402 79.1434C237.858 79.3801 237.271 79.5069 236.677 79.5167L201.165 79.3568C199.963 79.3247 198.824 78.8172 197.996 77.9456C197.169 77.0741 196.721 75.9097 196.751 74.7083V71.4054C196.782 70.2056 196.335 69.0426 195.51 68.1713C194.684 67.3 193.547 66.7914 192.347 66.7569H185.939L169.99 66.6817C166.196 66.6591 162.548 68.1406 159.844 70.802C157.14 73.4633 155.601 77.0876 155.564 80.8812L154.623 310.878C154.615 312.76 154.977 314.625 155.689 316.367C156.401 318.109 157.449 319.694 158.774 321.031C160.099 322.368 161.674 323.431 163.409 324.159C165.145 324.887 167.007 325.266 168.889 325.275L262.686 325.708C264.57 325.716 266.436 325.354 268.179 324.641C269.923 323.929 271.508 322.88 272.846 321.554C274.184 320.228 275.247 318.652 275.976 316.916C276.705 315.179 277.084 313.316 277.093 311.433L278.034 81.4364C278.056 77.6321 276.567 73.9745 273.894 71.2677C271.221 68.561 267.582 67.0265 263.778 67.0016Z" fill="white"/>
<path d="M251.159 295.022L181.413 294.721C180.688 294.721 180.105 293.93 180.114 292.97L180.19 274.725C180.19 273.784 180.782 272.974 181.507 272.974L251.253 273.294C251.655 273.364 252.014 273.585 252.256 273.913C252.498 274.241 252.604 274.65 252.552 275.054L252.486 293.281C252.486 294.25 251.883 295.031 251.159 295.022Z" fill="#3366FF"/>
<path d="M195.325 134.612L171.123 134.502L171.103 138.943L195.305 139.053L195.325 134.612Z" fill="#3366FF"/>
<path opacity="0.1" d="M195.325 134.612L171.123 134.502L171.103 138.943L195.305 139.053L195.325 134.612Z" fill="black"/>
<path d="M266.271 161.881C266.461 161.862 266.648 161.818 266.826 161.75C267.087 161.648 267.313 161.475 267.48 161.25C267.646 161.025 267.746 160.758 267.767 160.479C267.767 158.983 267.767 156.8 267.767 153.996C267.767 152.594 267.767 151.022 267.767 149.291C267.767 148.867 267.767 148.425 267.767 147.983C267.829 147.554 267.735 147.117 267.504 146.75C267.374 146.575 267.206 146.431 267.012 146.332C266.817 146.232 266.602 146.179 266.384 146.176H264.916H251.319L172.615 145.885C172.413 145.881 172.214 145.926 172.034 146.017C171.853 146.107 171.698 146.239 171.58 146.402C171.352 146.77 171.265 147.208 171.335 147.635C171.335 148.576 171.335 149.517 171.335 150.458C171.335 152.34 171.335 154.222 171.335 156.104C171.335 157.045 171.335 157.986 171.335 158.927C171.296 159.365 171.296 159.806 171.335 160.244C171.384 160.432 171.476 160.606 171.603 160.753C171.731 160.9 171.89 161.015 172.069 161.091C172.254 161.165 172.453 161.2 172.652 161.194H177.442L198.341 161.307L233.722 161.524L257.576 161.712L264.06 161.787H265.744C266.13 161.787 266.318 161.787 266.318 161.787H265.744H264.06H257.576H233.722L198.341 161.674L177.442 161.59H172.652C172.389 161.6 172.126 161.555 171.881 161.458C171.633 161.352 171.412 161.191 171.236 160.987C171.06 160.784 170.933 160.542 170.864 160.282C170.81 160.035 170.791 159.781 170.808 159.529V158.833C170.808 157.892 170.808 156.951 170.808 156.01C170.808 154.128 170.808 152.246 170.808 150.364C170.808 149.423 170.808 148.482 170.808 147.541C170.79 147.29 170.79 147.039 170.808 146.788C170.843 146.511 170.95 146.248 171.118 146.026C171.281 145.799 171.496 145.614 171.745 145.488C171.994 145.362 172.27 145.298 172.549 145.301L251.253 145.734L264.85 145.828H266.318C266.577 145.828 266.832 145.891 267.061 146.01C267.29 146.13 267.487 146.303 267.636 146.515C267.901 146.924 268.008 147.416 267.937 147.898C267.937 148.341 267.937 148.783 267.937 149.206C267.937 150.919 267.937 152.49 267.937 153.911C267.937 156.734 267.871 158.898 267.852 160.404C267.829 160.694 267.724 160.97 267.549 161.202C267.374 161.434 267.136 161.611 266.864 161.712C266.686 161.822 266.481 161.881 266.271 161.881Z" fill="#E0E0E0"/>
<path d="M222.656 150.608H178.392V154.758H222.656V150.608Z" fill="#3366FF"/>
<path opacity="0.2" d="M222.656 150.608H178.392V154.758H222.656V150.608Z" fill="white"/>
<path d="M195.16 175.13L170.958 175.02L170.938 179.461L195.14 179.571L195.16 175.13Z" fill="#3366FF"/>
<path opacity="0.1" d="M195.16 175.13L170.958 175.02L170.938 179.461L195.14 179.571L195.16 175.13Z" fill="black"/>
<path d="M265.659 202.4C265.849 202.377 266.038 202.342 266.224 202.297C266.487 202.213 266.729 202.074 266.933 201.889C267.138 201.704 267.3 201.477 267.41 201.224C267.558 200.844 267.616 200.435 267.579 200.029C267.579 199.577 267.579 199.088 267.579 198.542C267.579 197.451 267.579 196.208 267.579 194.778V188.803C267.624 188.37 267.528 187.935 267.306 187.561C267.074 187.177 266.709 186.893 266.28 186.761C265.812 186.677 265.334 186.652 264.86 186.686H251.319L172.887 186.394C172.465 186.395 172.058 186.549 171.742 186.828C171.425 187.106 171.22 187.491 171.165 187.909C171.165 188.803 171.165 189.791 171.165 190.732C171.165 192.614 171.165 194.496 171.165 196.378C171.165 197.319 171.165 198.26 171.165 199.201C171.13 199.641 171.149 200.083 171.222 200.518C171.339 200.9 171.581 201.231 171.909 201.459C172.256 201.68 172.665 201.785 173.075 201.76H174.383H177.103L197.927 201.864L233.186 202.08L256.955 202.268L263.42 202.344H265.104H265.669H265.104H263.42H256.955H233.186L197.908 202.306L177.084 202.231H172.991C172.482 202.261 171.977 202.126 171.551 201.845C171.123 201.548 170.81 201.113 170.667 200.612C170.582 200.134 170.557 199.647 170.591 199.163C170.591 198.222 170.591 197.281 170.591 196.34C170.591 194.458 170.591 192.576 170.591 190.694C170.591 189.753 170.591 188.812 170.591 187.871C170.66 187.333 170.922 186.839 171.329 186.48C171.736 186.122 172.26 185.924 172.803 185.923L251.234 186.356L264.775 186.46C265.279 186.429 265.785 186.464 266.28 186.563C266.769 186.723 267.182 187.058 267.438 187.504C267.681 187.919 267.787 188.4 267.739 188.878C267.739 189.32 267.739 189.753 267.739 190.186C267.739 191.889 267.739 193.451 267.739 194.891C267.739 196.331 267.739 197.545 267.739 198.655C267.739 199.191 267.739 199.69 267.739 200.151C267.773 200.572 267.705 200.995 267.541 201.384C267.419 201.643 267.243 201.874 267.023 202.059C266.804 202.244 266.547 202.38 266.271 202.457C266.065 202.474 265.858 202.454 265.659 202.4Z" fill="#E0E0E0"/>
<path d="M194.977 217.407L170.775 217.297L170.755 221.738L194.957 221.848L194.977 217.407Z" fill="#3366FF"/>
<path opacity="0.1" d="M194.977 217.407L170.775 217.297L170.755 221.738L194.957 221.848L194.977 217.407Z" fill="black"/>
<path d="M265.472 244.66C265.662 244.638 265.851 244.603 266.037 244.557C266.298 244.473 266.539 244.336 266.744 244.152C266.948 243.969 267.111 243.744 267.222 243.493C267.37 243.113 267.428 242.704 267.392 242.298C267.392 241.837 267.392 241.357 267.392 240.802C267.392 239.72 267.392 238.468 267.392 237.038V231.063C267.437 230.63 267.341 230.195 267.119 229.821C266.881 229.444 266.518 229.164 266.093 229.03C265.625 228.943 265.148 228.915 264.672 228.946H251.131L172.7 228.654C172.278 228.655 171.871 228.809 171.554 229.088C171.237 229.366 171.033 229.751 170.978 230.169C170.978 231.11 170.978 232.051 170.978 232.992C170.978 234.874 170.978 236.756 170.978 238.638C170.978 239.579 170.978 240.52 170.978 241.461C170.943 241.897 170.962 242.337 171.034 242.769C171.147 243.153 171.39 243.485 171.721 243.71C172.067 243.935 172.477 244.041 172.888 244.011H176.981L197.806 244.124L233.064 244.34L256.834 244.528L263.298 244.604H264.983C265.359 244.604 265.547 244.604 265.547 244.604C265.547 244.604 265.359 244.604 264.983 244.604H263.298H256.834H233.064L197.806 244.5L176.981 244.415H172.888C172.379 244.45 171.872 244.314 171.448 244.03C171.02 243.733 170.708 243.298 170.564 242.797C170.48 242.319 170.454 241.832 170.489 241.348C170.489 240.407 170.489 239.466 170.489 238.525C170.489 236.643 170.489 234.761 170.489 232.879C170.489 231.938 170.489 230.997 170.489 230.009C170.555 229.472 170.816 228.977 171.221 228.619C171.627 228.26 172.149 228.062 172.691 228.061L251.122 228.494L264.663 228.597C265.167 228.567 265.673 228.601 266.168 228.701C266.657 228.861 267.07 229.196 267.326 229.642C267.569 230.056 267.675 230.537 267.627 231.016C267.627 231.458 267.627 231.9 267.627 232.324C267.627 234.027 267.627 235.589 267.627 237.029C267.627 238.468 267.627 239.682 267.627 240.793C267.627 241.329 267.627 241.828 267.627 242.289C267.663 242.71 267.595 243.133 267.429 243.522C267.307 243.781 267.13 244.011 266.911 244.197C266.692 244.382 266.435 244.517 266.159 244.594C265.938 244.67 265.703 244.692 265.472 244.66Z" fill="#E0E0E0"/>
<path d="M221.712 192.3L177.448 192.1L177.429 196.249L221.693 196.45L221.712 192.3Z" fill="#3366FF"/>
<path opacity="0.2" d="M221.712 192.3L177.448 192.1L177.429 196.249L221.693 196.45L221.712 192.3Z" fill="white"/>
<path d="M181.451 236.982C181.423 237.36 181.285 237.722 181.053 238.023C180.821 238.323 180.507 238.549 180.148 238.673C179.789 238.796 179.402 238.812 179.034 238.717C178.667 238.622 178.335 238.422 178.08 238.14C177.826 237.859 177.659 237.509 177.602 237.134C177.544 236.759 177.598 236.375 177.756 236.03C177.915 235.685 178.171 235.395 178.493 235.194C178.815 234.994 179.189 234.892 179.569 234.902C180.093 234.931 180.585 235.166 180.937 235.555C181.289 235.945 181.474 236.457 181.451 236.982Z" fill="#3366FF"/>
<path d="M187.445 237.01C187.463 237.275 187.427 237.541 187.338 237.792C187.249 238.043 187.11 238.272 186.929 238.467C186.747 238.661 186.528 238.816 186.284 238.922C186.04 239.028 185.777 239.083 185.511 239.083C185.245 239.083 184.982 239.028 184.738 238.922C184.494 238.816 184.275 238.661 184.093 238.467C183.912 238.272 183.773 238.043 183.684 237.792C183.595 237.541 183.559 237.275 183.577 237.01C183.559 236.744 183.595 236.478 183.684 236.227C183.773 235.977 183.912 235.747 184.093 235.553C184.275 235.358 184.494 235.203 184.738 235.097C184.982 234.991 185.245 234.936 185.511 234.936C185.777 234.936 186.04 234.991 186.284 235.097C186.528 235.203 186.747 235.358 186.929 235.553C187.11 235.747 187.249 235.977 187.338 236.227C187.427 236.478 187.463 236.744 187.445 237.01Z" fill="#3366FF"/>
<path d="M193.448 237.038C193.42 237.417 193.282 237.779 193.05 238.079C192.819 238.38 192.504 238.606 192.145 238.73C191.786 238.853 191.399 238.868 191.031 238.774C190.664 238.679 190.332 238.478 190.078 238.197C189.823 237.916 189.656 237.566 189.599 237.191C189.541 236.815 189.595 236.432 189.754 236.087C189.912 235.742 190.168 235.451 190.491 235.251C190.813 235.05 191.187 234.949 191.566 234.959C192.089 234.99 192.58 235.226 192.931 235.614C193.283 236.003 193.469 236.514 193.448 237.038Z" fill="#3366FF"/>
<path d="M199.442 237.066C199.414 237.445 199.276 237.807 199.044 238.107C198.812 238.408 198.498 238.634 198.139 238.757C197.78 238.881 197.393 238.896 197.025 238.801C196.658 238.707 196.326 238.506 196.071 238.225C195.817 237.943 195.65 237.594 195.593 237.218C195.535 236.843 195.589 236.459 195.747 236.115C195.906 235.77 196.162 235.479 196.484 235.278C196.806 235.078 197.18 234.976 197.56 234.986C198.083 235.018 198.573 235.253 198.925 235.642C199.277 236.031 199.462 236.542 199.442 237.066Z" fill="#3366FF"/>
<path d="M205.436 237.085C205.41 237.464 205.273 237.827 205.043 238.129C204.812 238.431 204.498 238.659 204.139 238.783C203.78 238.908 203.392 238.925 203.024 238.831C202.656 238.738 202.323 238.538 202.068 238.257C201.812 237.975 201.645 237.625 201.587 237.25C201.528 236.874 201.582 236.49 201.74 236.145C201.898 235.799 202.155 235.508 202.477 235.307C202.8 235.106 203.174 235.005 203.554 235.015C204.076 235.046 204.564 235.281 204.916 235.667C205.268 236.054 205.454 236.563 205.436 237.085Z" fill="#3366FF"/>
<path d="M211.44 237.113C211.415 237.49 211.279 237.852 211.051 238.153C210.822 238.454 210.511 238.682 210.155 238.808C209.798 238.935 209.413 238.954 209.046 238.864C208.679 238.775 208.346 238.579 208.088 238.303C207.83 238.026 207.659 237.681 207.596 237.308C207.532 236.935 207.579 236.552 207.73 236.206C207.881 235.86 208.13 235.565 208.447 235.358C208.763 235.152 209.133 235.042 209.511 235.043C210.041 235.063 210.542 235.292 210.903 235.68C211.265 236.068 211.458 236.583 211.44 237.113Z" fill="#3366FF"/>
<path d="M217.434 237.141C217.453 237.407 217.417 237.673 217.328 237.924C217.239 238.174 217.1 238.404 216.918 238.598C216.737 238.793 216.517 238.948 216.273 239.054C216.03 239.16 215.766 239.215 215.501 239.215C215.235 239.215 214.972 239.16 214.728 239.054C214.484 238.948 214.264 238.793 214.083 238.598C213.902 238.404 213.762 238.174 213.673 237.924C213.585 237.673 213.548 237.407 213.567 237.141C213.548 236.876 213.585 236.61 213.673 236.359C213.762 236.108 213.902 235.879 214.083 235.684C214.264 235.49 214.484 235.335 214.728 235.229C214.972 235.123 215.235 235.068 215.501 235.068C215.766 235.068 216.03 235.123 216.273 235.229C216.517 235.335 216.737 235.49 216.918 235.684C217.1 235.879 217.239 236.108 217.328 236.359C217.417 236.61 217.453 236.876 217.434 237.141Z" fill="#3366FF"/>
<path d="M223.428 237.17C223.402 237.547 223.267 237.908 223.039 238.209C222.81 238.511 222.499 238.738 222.143 238.865C221.786 238.991 221.401 239.011 221.034 238.921C220.667 238.831 220.334 238.636 220.076 238.359C219.818 238.083 219.647 237.737 219.583 237.364C219.52 236.992 219.566 236.609 219.718 236.262C219.869 235.916 220.118 235.621 220.435 235.415C220.751 235.208 221.121 235.099 221.499 235.1C222.029 235.119 222.53 235.348 222.891 235.736C223.253 236.124 223.446 236.64 223.428 237.17Z" fill="#3366FF"/>
<path d="M229.423 237.198C229.397 237.577 229.26 237.94 229.029 238.242C228.799 238.544 228.485 238.772 228.126 238.897C227.767 239.022 227.379 239.038 227.011 238.944C226.643 238.851 226.31 238.651 226.055 238.37C225.799 238.089 225.632 237.739 225.573 237.363C225.515 236.988 225.568 236.603 225.727 236.258C225.885 235.913 226.142 235.621 226.464 235.421C226.787 235.22 227.161 235.118 227.541 235.128C228.062 235.16 228.551 235.394 228.903 235.781C229.254 236.167 229.441 236.676 229.423 237.198Z" fill="#3366FF"/>
<g opacity="0.2">
<path opacity="0.2" d="M181.451 236.982C181.423 237.36 181.285 237.722 181.053 238.023C180.821 238.323 180.507 238.549 180.148 238.673C179.789 238.796 179.402 238.812 179.034 238.717C178.667 238.622 178.335 238.422 178.08 238.14C177.826 237.859 177.659 237.509 177.602 237.134C177.544 236.759 177.598 236.375 177.756 236.03C177.915 235.685 178.171 235.395 178.493 235.194C178.815 234.994 179.189 234.892 179.569 234.902C180.093 234.931 180.585 235.166 180.937 235.555C181.289 235.945 181.474 236.457 181.451 236.982Z" fill="#E81515"/>
<path opacity="0.2" d="M187.445 237.01C187.463 237.275 187.427 237.541 187.338 237.792C187.249 238.043 187.11 238.272 186.928 238.467C186.747 238.661 186.528 238.816 186.284 238.922C186.04 239.028 185.777 239.083 185.511 239.083C185.245 239.083 184.982 239.028 184.738 238.922C184.494 238.816 184.275 238.661 184.093 238.467C183.912 238.272 183.772 238.043 183.684 237.792C183.595 237.541 183.559 237.275 183.577 237.01C183.559 236.744 183.595 236.478 183.684 236.227C183.772 235.977 183.912 235.747 184.093 235.553C184.275 235.358 184.494 235.203 184.738 235.097C184.982 234.991 185.245 234.936 185.511 234.936C185.777 234.936 186.04 234.991 186.284 235.097C186.528 235.203 186.747 235.358 186.928 235.553C187.11 235.747 187.249 235.977 187.338 236.227C187.427 236.478 187.463 236.744 187.445 237.01Z" fill="#E81515"/>
<path opacity="0.2" d="M193.448 237.038C193.42 237.417 193.282 237.779 193.05 238.079C192.819 238.38 192.504 238.606 192.145 238.73C191.786 238.853 191.399 238.868 191.031 238.774C190.664 238.679 190.332 238.478 190.077 238.197C189.823 237.916 189.656 237.566 189.599 237.191C189.541 236.815 189.595 236.432 189.753 236.087C189.912 235.742 190.168 235.451 190.49 235.251C190.813 235.05 191.187 234.949 191.566 234.959C192.089 234.99 192.58 235.226 192.931 235.614C193.283 236.003 193.469 236.514 193.448 237.038Z" fill="#E81515"/>
<path opacity="0.2" d="M199.442 237.066C199.415 237.445 199.276 237.807 199.045 238.107C198.813 238.408 198.498 238.634 198.14 238.757C197.781 238.881 197.393 238.896 197.026 238.801C196.658 238.707 196.327 238.506 196.072 238.225C195.817 237.943 195.651 237.594 195.593 237.218C195.536 236.843 195.589 236.459 195.748 236.115C195.906 235.77 196.163 235.479 196.485 235.278C196.807 235.078 197.181 234.976 197.561 234.986C198.084 235.018 198.574 235.253 198.926 235.642C199.278 236.031 199.463 236.542 199.442 237.066Z" fill="#E81515"/>
<path opacity="0.2" d="M205.436 237.085C205.41 237.464 205.273 237.827 205.042 238.129C204.812 238.431 204.498 238.659 204.139 238.783C203.78 238.908 203.392 238.925 203.024 238.831C202.656 238.738 202.323 238.538 202.068 238.257C201.812 237.975 201.645 237.625 201.586 237.25C201.528 236.874 201.582 236.49 201.74 236.145C201.898 235.799 202.155 235.508 202.477 235.307C202.8 235.106 203.174 235.005 203.554 235.015C204.076 235.046 204.564 235.281 204.916 235.667C205.267 236.054 205.454 236.563 205.436 237.085Z" fill="#E81515"/>
<path opacity="0.2" d="M211.44 237.114C211.414 237.491 211.279 237.852 211.051 238.153C210.822 238.454 210.511 238.682 210.155 238.809C209.798 238.935 209.413 238.955 209.046 238.865C208.679 238.775 208.346 238.58 208.088 238.303C207.83 238.027 207.659 237.681 207.595 237.308C207.532 236.936 207.578 236.553 207.73 236.206C207.881 235.86 208.13 235.565 208.447 235.359C208.763 235.152 209.133 235.042 209.511 235.043C210.041 235.063 210.542 235.292 210.903 235.68C211.265 236.068 211.458 236.584 211.44 237.114Z" fill="#E81515"/>
<path opacity="0.2" d="M217.434 237.142C217.453 237.407 217.416 237.673 217.328 237.924C217.239 238.175 217.099 238.404 216.918 238.599C216.737 238.793 216.517 238.948 216.273 239.054C216.029 239.161 215.766 239.215 215.5 239.215C215.235 239.215 214.971 239.161 214.728 239.054C214.484 238.948 214.264 238.793 214.083 238.599C213.901 238.404 213.762 238.175 213.673 237.924C213.584 237.673 213.548 237.407 213.567 237.142C213.548 236.877 213.584 236.61 213.673 236.36C213.762 236.109 213.901 235.879 214.083 235.685C214.264 235.49 214.484 235.335 214.728 235.229C214.971 235.123 215.235 235.068 215.5 235.068C215.766 235.068 216.029 235.123 216.273 235.229C216.517 235.335 216.737 235.49 216.918 235.685C217.099 235.879 217.239 236.109 217.328 236.36C217.416 236.61 217.453 236.877 217.434 237.142Z" fill="#E81515"/>
<path opacity="0.2" d="M223.428 237.17C223.402 237.547 223.267 237.908 223.038 238.209C222.81 238.511 222.499 238.738 222.142 238.865C221.786 238.991 221.401 239.011 221.034 238.921C220.666 238.831 220.333 238.636 220.076 238.359C219.818 238.083 219.647 237.737 219.583 237.364C219.52 236.992 219.566 236.609 219.717 236.262C219.869 235.916 220.118 235.621 220.434 235.415C220.751 235.208 221.121 235.099 221.499 235.1C222.029 235.119 222.53 235.348 222.891 235.736C223.253 236.124 223.446 236.64 223.428 237.17Z" fill="#E81515"/>
<path opacity="0.2" d="M229.423 237.198C229.397 237.577 229.26 237.94 229.029 238.242C228.799 238.544 228.484 238.772 228.126 238.897C227.767 239.022 227.379 239.038 227.011 238.944C226.643 238.851 226.31 238.651 226.054 238.37C225.799 238.089 225.631 237.739 225.573 237.363C225.515 236.988 225.568 236.603 225.727 236.258C225.885 235.913 226.141 235.621 226.464 235.421C226.786 235.22 227.161 235.118 227.541 235.128C228.062 235.16 228.551 235.394 228.903 235.781C229.254 236.167 229.441 236.676 229.423 237.198Z" fill="#E81515"/>
</g>
<path d="M123.712 402.314V394.268L109.287 394.165L109.165 406.332L110.059 406.397C114.039 406.651 130.309 407.028 132.981 406.2C135.955 405.278 123.712 402.314 123.712 402.314Z" fill="#3366FF"/>
<path d="M133.319 405.447C133.319 405.578 127.918 405.691 121.265 405.691C114.612 405.691 109.211 405.578 109.211 405.447C109.211 405.315 114.612 405.202 121.265 405.202C127.918 405.202 133.319 405.315 133.319 405.447Z" fill="#263238"/>
<path d="M123.966 403.96C123.844 403.894 123.966 403.471 124.258 403.019C124.55 402.568 124.945 402.379 125.039 402.474C125.133 402.568 124.935 402.925 124.653 403.311C124.371 403.697 124.089 404.026 123.966 403.96Z" fill="#263238"/>
<path d="M124.888 404.487C124.756 404.487 124.822 403.96 125.104 403.461C125.386 402.963 125.763 402.662 125.866 402.737C125.97 402.812 125.8 403.236 125.537 403.678C125.273 404.12 125.01 404.534 124.888 404.487Z" fill="#263238"/>
<path d="M113.559 405.409C113.502 405.409 113.286 405.24 112.975 404.882C112.596 404.423 112.174 404 111.715 403.621C111.263 403.26 110.724 403.024 110.152 402.935C109.71 402.878 109.428 402.935 109.4 402.878C109.371 402.822 109.644 402.624 110.162 402.586C110.845 402.572 111.511 402.798 112.044 403.226C112.543 403.633 112.964 404.127 113.286 404.685C113.502 405.099 113.615 405.372 113.559 405.409Z" fill="#263238"/>
<path d="M124.013 402.445C124.079 402.558 123.834 402.84 123.42 402.991C123.006 403.142 122.639 403.085 122.62 402.991C122.602 402.897 122.893 402.699 123.251 402.567C123.608 402.436 123.938 402.332 124.013 402.445Z" fill="#263238"/>
<path d="M123.788 401.664C123.788 401.805 123.411 401.918 122.922 401.927C122.433 401.937 122.047 401.824 122.056 401.692C122.066 401.56 122.451 401.438 122.922 401.429C123.392 401.419 123.769 401.532 123.788 401.664Z" fill="#263238"/>
<path d="M159.234 402.314V394.268L144.808 394.165L144.686 406.209L145.58 406.275C149.56 406.529 165.84 407.028 168.503 406.2C171.476 405.278 159.234 402.314 159.234 402.314Z" fill="#3366FF"/>
<path d="M168.842 405.466C168.842 405.597 163.45 405.71 156.787 405.71C150.125 405.71 144.743 405.597 144.743 405.466C144.743 405.334 150.135 405.221 156.787 405.221C163.44 405.221 168.842 405.334 168.842 405.466Z" fill="#263238"/>
<path d="M159.489 403.96C159.376 403.894 159.489 403.471 159.78 403.019C160.072 402.568 160.467 402.379 160.561 402.474C160.655 402.568 160.458 402.925 160.176 403.311C159.893 403.697 159.611 404.026 159.489 403.96Z" fill="#263238"/>
<path d="M160.41 404.487C160.288 404.487 160.344 403.96 160.636 403.461C160.928 402.963 161.295 402.662 161.398 402.737C161.502 402.812 161.323 403.236 161.06 403.678C160.796 404.12 160.542 404.534 160.41 404.487Z" fill="#263238"/>
<path d="M149.081 405.409C149.024 405.409 148.817 405.24 148.497 404.882C148.118 404.423 147.696 404 147.236 403.621C146.784 403.26 146.246 403.024 145.674 402.935C145.241 402.878 144.95 402.935 144.921 402.878C144.893 402.822 145.166 402.624 145.684 402.586C146.367 402.572 147.033 402.798 147.566 403.226C148.067 403.63 148.489 404.125 148.808 404.685C149.024 405.099 149.137 405.372 149.081 405.409Z" fill="#263238"/>
<path d="M159.536 402.445C159.601 402.558 159.357 402.84 158.943 402.991C158.529 403.142 158.162 403.085 158.143 402.991C158.124 402.897 158.416 402.699 158.773 402.567C159.131 402.436 159.46 402.332 159.536 402.445Z" fill="#263238"/>
<path d="M159.328 401.664C159.328 401.805 158.952 401.918 158.462 401.927C157.973 401.937 157.597 401.824 157.606 401.692C157.616 401.56 157.992 401.438 158.462 401.429C158.933 401.419 159.328 401.532 159.328 401.664Z" fill="#263238"/>
<path d="M212.381 163.396C212.005 163.011 211.073 163.199 211.073 163.199C211.167 162.657 211.167 162.103 211.073 161.561C210.904 161.035 209.718 161.138 209.718 161.138C209.664 160.694 209.664 160.246 209.718 159.802C209.728 159.703 209.707 159.605 209.658 159.519C209.609 159.433 209.535 159.364 209.446 159.322C208.885 159.093 208.282 158.984 207.676 159.002C206.952 158.484 209.888 154.372 210.979 153.055C212.071 151.738 211.873 150.712 210.904 150.712C210.236 150.712 206.811 154.664 205.757 155.991C204.703 157.318 201.908 161.006 201.814 158.061C201.72 155.116 200.534 152.895 199.791 152.519C199.048 152.142 198.257 153.027 198.662 153.845C199.017 154.775 199.239 155.751 199.32 156.744C199.423 157.534 199.388 158.336 199.217 159.115C198.905 160.564 198.48 161.986 197.947 163.368H197.871C197.871 163.368 177.339 183.063 175.852 184.465C174.525 185.726 147.839 182.969 142.485 182.404C140.665 182.138 138.828 182.012 136.989 182.028C134.665 182.131 134.251 182.461 131.936 182.489C126.09 182.554 120.258 183.067 114.49 184.023C111.879 184.467 109.439 185.62 107.438 187.355C105.437 189.091 103.951 191.343 103.142 193.866C97.7501 210.709 85.5361 250.579 83.3812 272.975C81.7529 275.927 80.2829 278.965 78.9774 282.074C77.4624 286.195 77.8294 286.337 78.3375 286.431C79.7114 286.685 81.2734 279.289 81.8568 281.076C82.4402 282.864 78.8927 289.894 80.3324 290.101C82.2144 290.364 83.7106 282.573 83.8894 281.952C84.0681 281.331 84.9997 281.528 84.8303 282.112C84.5575 282.94 81.9133 291.719 83.7576 292.001C84.7739 292.152 84.8868 290.298 84.8868 290.298C84.8868 290.298 86.7688 281.895 87.6251 282.064C88.4814 282.234 87.5686 287.193 87.1358 288.849C86.7029 290.505 87.3051 291.343 88.1897 290.938C88.7919 290.656 90.2316 285.621 90.6268 283.984C91.0221 282.347 92.0101 277.811 93.3369 280.437C94.6637 283.062 96.6774 284.586 97.5055 284.624C97.6921 284.602 97.8679 284.526 98.0105 284.403C98.153 284.281 98.2557 284.119 98.3053 283.938C98.3549 283.756 98.3491 283.565 98.2888 283.387C98.2284 283.209 98.1162 283.053 97.9665 282.94C97.2543 282.244 96.643 281.452 96.1504 280.587C95.7115 279.913 95.3931 279.168 95.2095 278.385C94.8303 276.824 94.6096 275.229 94.5508 273.624L94.4002 272.683C96.508 262.247 102.577 231.618 111.338 212.055L114.933 219.451L116.495 224.928L106.915 248.575L147.773 248.038L141.675 224.57L149.081 200.104C157.089 200.283 177.649 200.584 181.075 199.032C185.384 197.15 207.676 168.995 207.676 168.995C209.13 167.866 210.521 166.66 211.845 165.382C211.845 165.382 213.2 164.243 212.381 163.396Z" fill="#FFBE9D"/>
<path d="M105.118 231.1C106.304 227.054 112.392 207.049 112.392 207.049C112.392 207.049 115.384 223.356 114.594 225.323C113.867 227.006 113.008 228.63 112.025 230.178C105.118 240.689 106.021 245.949 106.021 245.949L147.754 244.679C147.848 238.845 144.395 225.276 143.68 223.111C142.965 220.947 145.345 213.861 145.345 213.861C145.345 213.861 150.05 209.072 149.881 206.606C149.792 204.392 149.518 202.189 149.062 200.02L174.469 200.96L173.669 183.74L137.178 180.089C135.907 183.675 124.418 181.915 124.418 181.915C112.015 182.329 111.244 184.606 106.087 188.615C100.931 192.623 92.3959 227.026 92.3959 227.026L105.118 231.1Z" fill="#3366FF"/>
<path d="M129.791 227.026C129.067 227.155 128.331 227.193 127.598 227.139C126.234 227.139 124.361 227.045 122.3 226.838C120.24 226.631 118.376 226.339 117.05 226.075C116.318 225.981 115.601 225.798 114.914 225.53C115.649 225.53 116.383 225.599 117.106 225.737C118.442 225.906 120.296 226.141 122.347 226.348C124.399 226.555 126.262 226.696 127.608 226.791C128.341 226.8 129.072 226.879 129.791 227.026Z" fill="#263238"/>
<path d="M132.651 223.479C131.928 223.833 131.163 224.095 130.374 224.26C126.62 225.246 122.747 225.705 118.866 225.624C118.063 225.65 117.26 225.574 116.476 225.398C117.268 225.298 118.067 225.257 118.866 225.276C120.343 225.229 122.376 225.125 124.615 224.862C126.855 224.598 128.85 224.222 130.261 223.921C131.045 223.711 131.844 223.564 132.651 223.479Z" fill="#263238"/>
<path d="M146.691 207.651C146.672 208.368 146.574 209.081 146.399 209.778C146.154 211.085 145.778 212.873 145.298 214.831C144.818 216.788 144.357 218.595 143.943 219.818C143.777 220.518 143.53 221.197 143.209 221.841C143.262 221.126 143.394 220.419 143.604 219.733C143.962 218.265 144.367 216.571 144.818 214.718C145.27 212.864 145.703 211.17 146.06 209.702C146.188 208.996 146.399 208.307 146.691 207.651Z" fill="#263238"/>
<path d="M105.561 228.701C103.384 228.365 101.235 227.864 99.1337 227.205C96.9863 226.702 94.879 226.042 92.8291 225.228C95.005 225.57 97.153 226.07 99.2561 226.725C101.404 227.225 103.511 227.886 105.561 228.701Z" fill="#263238"/>
<path d="M149.513 199.812C149.158 199.874 148.795 199.874 148.44 199.812C147.458 199.712 146.492 199.481 145.57 199.126C144.031 198.547 142.63 197.653 141.456 196.501C140.283 195.349 139.364 193.964 138.758 192.435C138.088 190.754 137.802 188.944 137.92 187.137C137.962 185.647 138.408 184.197 139.209 182.941C139.773 182.094 140.615 181.472 141.59 181.181C141.851 181.109 142.12 181.074 142.39 181.077C142.578 181.077 142.672 181.077 142.672 181.077C142.672 181.077 142.277 181.077 141.647 181.331C140.752 181.662 139.994 182.281 139.492 183.091C138.212 185.105 137.854 188.784 139.219 192.219C139.854 193.838 140.848 195.292 142.126 196.472C143.174 197.437 144.381 198.214 145.693 198.768C146.924 199.255 148.205 199.605 149.513 199.812Z" fill="#263238"/>
<path d="M171.448 200.622C171.213 197.736 171.137 194.84 171.222 191.946C171.148 189.054 171.236 186.161 171.486 183.279C171.721 186.162 171.797 189.055 171.711 191.946C171.791 194.84 171.703 197.737 171.448 200.622Z" fill="#263238"/>
<path d="M136.933 181.143C137.036 179.045 137.253 176.674 137.253 176.674C137.253 176.674 142.447 176.1 142.757 170.736C143.068 165.372 142.757 152.998 142.757 152.998L133.347 148.18L122.902 156.395L124.512 183.213L134.091 183.825C134.823 183.845 135.533 183.574 136.066 183.072C136.599 182.569 136.91 181.875 136.933 181.143Z" fill="#FFBE9D"/>
<path d="M137.864 166.492C137.864 166.492 137.864 166.596 137.78 166.718C137.71 166.807 137.619 166.877 137.516 166.923C137.413 166.969 137.3 166.989 137.187 166.981C136.585 166.981 136.001 166.285 135.794 165.476C135.696 165.084 135.696 164.673 135.794 164.281C135.814 164.11 135.875 163.946 135.974 163.805C136.072 163.663 136.205 163.549 136.359 163.472C136.485 163.419 136.628 163.419 136.754 163.472C136.848 163.518 136.924 163.594 136.97 163.688C137.036 163.848 136.97 163.951 136.97 163.942C136.97 163.933 136.97 163.848 136.876 163.754C136.827 163.686 136.755 163.64 136.673 163.622C136.592 163.605 136.506 163.618 136.434 163.66C136.319 163.73 136.223 163.827 136.155 163.944C136.088 164.061 136.051 164.193 136.048 164.328C135.969 164.678 135.969 165.041 136.048 165.391C136.237 166.125 136.745 166.718 137.196 166.774C137.285 166.786 137.375 166.78 137.46 166.756C137.546 166.731 137.626 166.69 137.695 166.633C137.808 166.558 137.846 166.483 137.864 166.492Z" fill="#EB996E"/>
<path d="M145.985 150.1C145.261 147.635 142.635 146.411 140.245 145.734C136.604 144.699 132.67 144.247 129.113 145.555C125.556 146.863 121.284 149.159 121.284 153.083C119.186 152.914 117.981 154.749 117.153 157.026C116.624 158.413 116.307 159.872 116.212 161.354C115.949 166.492 114.509 173.587 111.178 177.351C109.296 179.449 106.69 180.899 105.617 183.515C104.676 185.782 105.165 188.474 104.29 190.77C103.509 192.793 101.787 194.232 100.526 195.992C99.2415 197.988 98.4855 200.278 98.3291 202.647C98.1727 205.016 98.6211 207.385 99.6322 209.533C100.65 211.626 102.084 213.489 103.846 215.01C105.608 216.53 107.661 217.677 109.88 218.378C114.275 219.715 118.962 219.761 123.383 218.51C126.7 217.717 129.795 216.182 132.435 214.021C135.136 211.816 136.991 208.744 137.686 205.327C138.354 201.487 137.281 197.582 136.481 193.762C133.978 181.689 134.693 181.059 137.855 169.851C137.93 169.654 137.968 169.447 138.025 169.249C138.081 169.052 138.109 168.957 138.147 168.807C138.237 168.364 138.284 167.913 138.288 167.461C137.826 167.633 137.325 167.669 136.843 167.566C136.361 167.463 135.919 167.224 135.569 166.878C135.217 166.509 134.972 166.052 134.859 165.555C134.747 165.058 134.771 164.539 134.929 164.055C135.151 163.525 135.482 163.048 135.9 162.654C136.318 162.26 136.814 161.958 137.356 161.768C138.401 161.335 139.521 161.11 140.546 160.63C142.72 159.595 144.226 157.449 145.251 155.2C146.095 153.641 146.355 151.833 145.985 150.1Z" fill="#263238"/>
<path d="M138.241 166.746C138.439 167.04 138.604 167.356 138.73 167.687C139.012 168.28 139.389 169.118 139.803 170.087L139.878 170.266H139.68L138.739 170.35C138.09 170.35 137.544 170.473 136.904 170.463C136.849 170.451 136.797 170.424 136.754 170.386C136.712 170.349 136.679 170.301 136.66 170.247C136.632 170.161 136.632 170.069 136.66 169.983C136.682 169.856 136.71 169.731 136.744 169.607L136.914 168.939C136.999 168.493 137.131 168.058 137.309 167.64C137.292 168.095 137.225 168.546 137.111 168.986L136.98 169.654C136.933 169.88 136.848 170.228 136.98 170.2C137.45 170.2 138.118 170.096 138.739 170.059L139.68 169.974L139.558 170.181C139.153 169.24 138.815 168.355 138.617 167.744C138.444 167.431 138.317 167.095 138.241 166.746Z" fill="#3366FF"/>
<path d="M106.022 245.949L147.754 244.679L165.915 315.573L162.575 396.893H140.509L143.209 317.304L127.071 267.95L129.556 400.046L107.254 400.375L104.911 276.211C104.808 272.758 103.678 264.976 104.102 261.551L106.022 245.949Z" fill="#263238"/>
<path d="M132.623 268.956C131.94 268.999 131.254 268.958 130.581 268.834C129.32 268.683 127.598 268.42 125.707 268.044C123.816 267.667 122.122 267.234 120.899 266.886C120.245 266.742 119.612 266.515 119.017 266.209C119.017 266.068 122.084 266.802 125.848 267.564C129.612 268.326 132.642 268.815 132.623 268.956Z" fill="#455A64"/>
<path d="M162.348 392.433C162.348 392.565 157.352 392.677 151.188 392.677C145.025 392.677 140.019 392.565 140.019 392.433C140.019 392.301 145.015 392.188 151.188 392.188C157.361 392.188 162.348 392.292 162.348 392.433Z" fill="#455A64"/>
<path d="M129.358 396.611C129.358 396.752 124.502 396.855 118.517 396.855C112.533 396.855 107.687 396.752 107.687 396.611C107.687 396.47 112.542 396.366 118.517 396.366C124.493 396.366 129.358 396.479 129.358 396.611Z" fill="#455A64"/>
<path d="M126.478 396.272C126.346 396.272 125.763 367.412 125.17 331.815C124.577 296.217 124.229 267.338 124.351 267.338C124.474 267.338 125.076 296.189 125.659 331.805C126.243 367.422 126.619 396.272 126.478 396.272Z" fill="#455A64"/>
<path d="M159.384 392.433C159.374 392.305 159.374 392.176 159.384 392.047V390.918C159.384 389.902 159.459 388.443 159.516 386.59C159.648 382.826 159.836 377.358 160.071 370.659C160.579 357.184 161.294 338.609 162.075 318.104C162.075 317.907 162.075 317.719 162.075 317.549V317.615C157.135 297.854 152.666 279.919 149.419 266.943L145.655 251.595C145.222 249.798 144.893 248.396 144.658 247.417C144.545 246.956 144.469 246.599 144.404 246.326C144.367 246.203 144.345 246.077 144.338 245.949C144.387 246.068 144.424 246.191 144.451 246.316C144.526 246.58 144.62 246.937 144.752 247.389C145.006 248.33 145.373 249.76 145.843 251.548C146.784 255.18 148.111 260.412 149.767 266.858C153.042 279.825 157.559 297.713 162.565 317.502V317.568C162.565 317.737 162.565 317.935 162.565 318.123C161.727 338.627 160.965 357.193 160.41 370.668C160.118 377.377 159.873 382.807 159.704 386.59C159.61 388.472 159.535 389.902 159.488 390.918C159.488 391.398 159.431 391.774 159.422 392.047C159.423 392.177 159.411 392.306 159.384 392.433Z" fill="#455A64"/>
<path d="M152.186 315.893C150.601 316.414 148.968 316.777 147.311 316.975C145.279 317.323 143.547 317.568 142.766 317.606V317.417C143.02 317.493 143.152 317.54 143.152 317.577C143.152 317.615 142.992 317.577 142.729 317.577H142.164L142.729 317.408C143.463 317.192 145.194 316.834 147.227 316.467C148.857 316.113 150.518 315.921 152.186 315.893Z" fill="#455A64"/>
<path d="M151.801 318.593C150.333 318.661 148.862 318.595 147.406 318.396C145.937 318.366 144.472 318.205 143.031 317.916C145.972 317.676 148.932 317.905 151.801 318.593Z" fill="#455A64"/>
<path opacity="0.2" d="M105.842 247.445C106.336 248.08 106.959 248.603 107.669 248.981C108.379 249.359 109.161 249.583 109.963 249.638C111.644 249.837 113.344 249.805 115.017 249.544C125.791 248.349 137.205 247.248 147.754 244.679C134.1 245.441 119.674 245.187 106.021 245.949L105.88 247.116" fill="black"/>
<g opacity="0.2">
<path opacity="0.2" d="M119.911 266.689L127.608 296.556L127.072 267.95L119.911 266.689Z" fill="black"/>
</g>
</svg>
