<svg width="299" height="265" viewBox="0 0 299 265" fill="none" xmlns="http://www.w3.org/2000/svg">
<path d="M270.689 53.0722L269.075 50.4449C255.47 28.2875 230.869 14.9931 204.932 16.5757C201.595 16.7841 198.278 17.2348 195.006 17.9242C171.424 22.9128 150.9 40.5184 142.398 63.0747C137.397 76.3375 135.998 91.6071 126.502 102.135C114.15 115.835 93.1768 116.265 74.7355 115.702C56.2942 115.138 35.3079 115.613 23.0264 129.37C15.3283 137.986 12.8973 150.261 13.5304 161.776C15.17 192.322 26.5209 219.227 53.9328 232.807C81.3447 246.386 123.824 248 153.825 242.024C195.816 233.661 235.782 210.706 259.794 175.204C283.806 139.701 289.909 91.3728 270.689 53.0722Z" fill="#F5F7FF"/>
<path d="M280.488 260.115C280.488 260.202 217.69 260.276 140.25 260.276C62.8103 260.276 0 260.202 0 260.115C0 260.029 62.7794 259.955 140.25 259.955C217.721 259.955 280.488 260.023 280.488 260.115Z" fill="#263238"/>
<path d="M72.4043 232.966C72.3486 233.04 63.7442 226.651 53.2284 218.702C42.7126 210.753 34.201 204.252 34.2505 204.215C34.2999 204.178 42.9105 210.524 53.4264 218.479C63.9422 226.434 72.46 232.898 72.4043 232.966Z" fill="#263238"/>
<path d="M30.3474 233.709C30.2918 233.641 38.8652 226.972 49.5233 218.819C60.1814 210.667 68.8168 204.11 68.8724 204.184C68.9281 204.258 60.3546 210.92 49.6965 219.073C39.0385 227.226 30.3969 233.777 30.3474 233.709Z" fill="#263238"/>
<path d="M36.6693 196.866L35.1538 205.087H37.4054L39.7375 196.866H36.6693Z" fill="#263238"/>
<path d="M32.7597 202.681C30.7555 212.695 23.0294 250.082 21.0747 259.522C21.0169 259.779 21.0171 260.046 21.0752 260.304C21.1333 260.561 21.2479 260.803 21.4106 261.011C21.5734 261.218 21.7804 261.387 22.0165 261.505C22.2525 261.623 22.5119 261.687 22.7758 261.693C23.1624 261.69 23.5371 261.559 23.8415 261.321C24.1458 261.082 24.3627 260.75 24.4583 260.375L39.5454 204.14C39.6727 203.687 39.6948 203.211 39.6103 202.749C39.5257 202.286 39.3367 201.848 39.0575 201.469C38.7783 201.091 38.4164 200.78 37.9993 200.563C37.5822 200.345 37.1209 200.225 36.6505 200.213H35.7041C35.0031 200.218 34.3258 200.467 33.7885 200.918C33.2513 201.368 32.8875 201.991 32.7597 202.681Z" fill="#455A64"/>
<path d="M66.5896 196.866L68.1051 205.087H65.8535L63.5215 196.866H66.5896Z" fill="#263238"/>
<path d="M82.5064 186.277C78.1145 178.13 72.8937 153.257 70.5926 145.321C70.5307 145.098 70.4627 144.881 70.3947 144.671C69.5221 142.129 67.8725 139.925 65.6792 138.371C63.4858 136.817 60.8596 135.991 58.1716 136.011H44.9216C42.2343 135.991 39.6085 136.816 37.4161 138.37C35.2236 139.924 33.5754 142.129 32.7047 144.671L32.5006 145.321C30.2057 153.257 24.9787 178.105 20.593 186.277C20.593 186.277 14.7413 189.722 16.4114 193.019C18.0259 196.192 33.0511 198.444 51.5466 197.85C70.0483 198.469 85.0735 196.192 86.6818 193.019C88.352 189.722 82.5064 186.277 82.5064 186.277Z" fill="#E0E0E0"/>
<path d="M82.5058 186.276C83.0131 186.566 83.4971 186.894 83.9533 187.259C84.5232 187.689 85.0532 188.17 85.5368 188.695C86.2292 189.396 86.7261 190.266 86.9781 191.218C87.0887 191.806 87.0152 192.413 86.7678 192.957C86.4565 193.544 85.97 194.019 85.376 194.317C84.7607 194.663 84.1145 194.951 83.446 195.177C82.7532 195.431 82.0233 195.647 81.2624 195.845C77.7727 196.676 74.2238 197.234 70.6477 197.515C66.664 197.887 62.2721 198.078 57.5276 198.085C56.34 198.085 55.1337 198.085 53.9028 198.085C52.6718 198.085 51.4285 197.998 50.1913 198.085C47.6551 198.151 45.0365 198.151 42.3354 198.085C36.6609 198.028 30.9982 197.557 25.3925 196.674C23.9106 196.425 22.4426 196.098 20.9944 195.697C20.2474 195.489 19.5141 195.235 18.7985 194.936C18.0673 194.653 17.3864 194.254 16.7819 193.755C16.4746 193.475 16.2481 193.118 16.1262 192.722C16.0953 192.629 16.052 192.53 16.0273 192.431L15.9902 192.128L15.9592 191.825C15.9592 191.719 15.9592 191.62 15.9592 191.515C16.0716 190.712 16.3938 189.952 16.8933 189.313C17.8913 188.055 19.1089 186.988 20.4872 186.165L20.4254 186.226C21.9305 183.077 23.1719 179.808 24.1368 176.453C25.1822 173.057 26.141 169.581 27.0627 166.048C28.0277 162.337 28.9184 158.687 29.8277 155.075C30.2772 153.269 30.7226 151.475 31.1639 149.693C31.6278 147.918 32.0422 146.155 32.6175 144.423C33.2238 142.732 34.1786 141.188 35.42 139.89C36.6615 138.592 38.1619 137.57 39.8239 136.889C41.4347 136.231 43.1566 135.889 44.8963 135.88H57.2307C58.0257 135.865 58.8209 135.896 59.6122 135.973C61.1691 136.145 62.6832 136.591 64.0845 137.291C65.4399 137.973 66.6664 138.886 67.7094 139.988C68.7148 141.054 69.527 142.287 70.1095 143.631L70.4868 144.633C70.592 144.974 70.7033 145.308 70.7899 145.648C70.9755 146.322 71.1611 146.984 71.3281 147.646C72.0209 150.293 72.6333 152.848 73.2333 155.279C75.5963 165.015 77.6499 172.859 79.3634 178.166C80.1985 180.839 80.9903 182.861 81.5532 184.228C81.8315 184.909 82.0975 185.398 82.246 185.744L82.4872 186.27C82.4872 186.27 82.1099 185.595 81.4913 184.253C80.8727 182.911 80.0995 180.87 79.2459 178.203C77.4891 172.878 75.4045 165.034 73.0106 155.316C72.392 152.885 71.7735 150.337 71.0868 147.695C70.9198 147.033 70.7343 146.371 70.5487 145.697C70.4559 145.357 70.3507 145.029 70.2456 144.695C70.1404 144.361 69.9981 144.077 69.8682 143.718C69.2978 142.401 68.5 141.195 67.5115 140.155C65.4197 137.946 62.6071 136.557 59.5813 136.239C58.8004 136.16 58.0153 136.131 57.2307 136.153H49.9315C46.6407 136.258 43.1271 135.738 39.9477 137.149C38.3267 137.814 36.8636 138.813 35.6531 140.08C34.4426 141.347 33.5117 142.854 32.9206 144.503C32.3639 146.198 31.9371 147.98 31.4793 149.749C31.0216 151.518 30.5948 153.318 30.1432 155.124C29.2525 158.743 28.3493 162.405 27.3844 166.11C26.4627 169.642 25.5286 173.125 24.4523 176.527C23.489 179.899 22.2476 183.184 20.7408 186.35V186.387H20.7037C19.3404 187.192 18.1351 188.238 17.1469 189.474C16.6785 190.067 16.3755 190.773 16.2685 191.521C16.2685 191.614 16.2685 191.707 16.2685 191.794L16.2994 192.066V192.338C16.2994 192.425 16.3613 192.511 16.3922 192.598C16.4948 192.946 16.6918 193.258 16.9613 193.501C17.5392 193.978 18.1911 194.359 18.8913 194.627C19.586 194.918 20.2988 195.164 21.0254 195.363C22.4626 195.766 23.9204 196.093 25.3925 196.34C30.9814 197.227 36.6275 197.704 42.2859 197.769C44.9788 197.827 47.5933 197.827 50.1294 197.769C51.3666 197.701 52.6532 197.769 53.878 197.769C55.1028 197.769 56.309 197.806 57.4967 197.806C62.235 197.806 66.6207 197.627 70.5982 197.274C74.1649 197.006 77.7055 196.462 81.1882 195.647C81.9491 195.456 82.679 195.245 83.3656 195.029C84.0273 194.805 84.6671 194.522 85.277 194.181C85.841 193.914 86.3111 193.483 86.6255 192.944C86.8666 192.425 86.9401 191.843 86.8358 191.28C86.5935 190.349 86.114 189.497 85.444 188.806C84.9683 188.28 84.4489 187.796 83.8914 187.358C83.4398 187 83.0811 186.74 82.8398 186.585L82.5058 186.276Z" fill="#263238"/>
<path d="M70.3444 202.681C72.3362 212.695 80.0746 250.082 82.0231 259.522C82.0809 259.779 82.0808 260.046 82.0227 260.304C81.9646 260.561 81.85 260.803 81.6872 261.011C81.5244 261.218 81.3175 261.387 81.0814 261.505C80.8453 261.623 80.5859 261.687 80.322 261.693C79.9355 261.69 79.5608 261.559 79.2564 261.321C78.952 261.082 78.7351 260.75 78.6395 260.375L63.54 204.14C63.4129 203.688 63.3906 203.212 63.4749 202.75C63.5591 202.288 63.7476 201.85 64.0261 201.472C64.3046 201.093 64.6657 200.783 65.082 200.565C65.4983 200.346 65.9589 200.226 66.4288 200.213H67.3814C68.0853 200.215 68.7663 200.463 69.3072 200.913C69.848 201.364 70.2148 201.989 70.3444 202.681Z" fill="#455A64"/>
<path d="M79.7841 190.773C79.7412 190.793 79.6952 190.806 79.648 190.81L79.2274 190.884L77.6252 191.132C76.2334 191.342 74.2169 191.608 71.7117 191.893C66.7074 192.462 59.7669 193.012 52.0842 193.13C44.4015 193.247 37.4363 192.926 32.4196 192.511C29.9082 192.313 27.8792 192.115 26.4813 191.948L24.873 191.757L24.4523 191.695C24.4034 191.693 24.3552 191.683 24.3101 191.664H24.4585H24.8791L26.4936 191.8C27.8916 191.93 29.9267 192.091 32.432 192.264C37.4486 192.604 44.4015 192.882 52.078 192.771C59.7545 192.66 66.6826 192.152 71.6869 191.608C74.1921 191.354 76.2149 191.126 77.6129 190.952L79.2212 190.761L79.6418 190.724C79.6922 190.73 79.7407 190.747 79.7841 190.773Z" fill="#263238"/>
<g opacity="0.3">
<path opacity="0.3" d="M75.862 187.915C75.3857 186.728 73.4619 186.431 71.8846 186.357C57.0975 185.64 42.2762 186.211 27.5882 188.064C27.1703 188.084 26.7622 188.198 26.3944 188.398C26.0665 188.614 25.9181 189.016 26.2026 189.295L26.1346 190.031C40.733 193.241 56.2469 192.573 71.2907 190.99C72.4239 190.941 73.5389 190.687 74.5816 190.241C75.528 189.746 76.2146 188.788 75.862 187.915Z" fill="black"/>
</g>
<path d="M249.113 232.966C249.064 233.04 240.453 226.651 229.938 218.702C219.422 210.753 210.898 204.252 210.947 204.215C210.997 204.178 219.607 210.524 230.123 218.479C240.639 226.434 249.157 232.898 249.113 232.966Z" fill="#263238"/>
<path d="M207.05 233.709C206.994 233.641 215.568 226.972 226.195 218.819C236.822 210.667 245.488 204.11 245.544 204.184C245.6 204.258 237.026 210.92 226.368 219.073C215.71 227.226 207.1 233.777 207.05 233.709Z" fill="#263238"/>
<path d="M213.366 196.866L211.85 205.087H214.102L216.434 196.866H213.366Z" fill="#263238"/>
<path d="M209.456 202.681C207.458 212.695 199.726 250.082 197.771 259.522C197.714 259.78 197.714 260.047 197.772 260.305C197.831 260.563 197.946 260.805 198.109 261.013C198.273 261.221 198.481 261.39 198.717 261.507C198.954 261.625 199.214 261.688 199.479 261.693C199.864 261.689 200.238 261.557 200.541 261.319C200.844 261.081 201.06 260.749 201.155 260.375L216.242 204.14C216.369 203.687 216.392 203.211 216.307 202.749C216.222 202.286 216.033 201.848 215.754 201.469C215.475 201.091 215.113 200.78 214.696 200.563C214.279 200.345 213.818 200.225 213.347 200.213H212.395C211.695 200.219 211.019 200.469 210.483 200.92C209.947 201.37 209.584 201.992 209.456 202.681Z" fill="#455A64"/>
<path d="M243.286 196.866L244.802 205.087H242.55L240.218 196.866H243.286Z" fill="#263238"/>
<path d="M259.202 186.276C254.811 178.129 249.59 153.256 247.289 145.32C247.227 145.097 247.159 144.881 247.091 144.67C246.219 142.127 244.57 139.923 242.376 138.369C240.183 136.815 237.556 135.99 234.868 136.01H221.618C218.93 135.99 216.305 136.815 214.112 138.369C211.92 139.924 210.271 142.128 209.401 144.67C209.333 144.881 209.265 145.097 209.203 145.32C206.902 153.256 201.675 178.105 197.289 186.276C197.289 186.276 191.437 189.721 193.107 193.018C194.722 196.192 209.747 198.443 228.243 197.85C246.744 198.468 261.77 196.192 263.378 193.018C265.054 189.721 259.202 186.276 259.202 186.276Z" fill="#E0E0E0"/>
<path d="M259.202 186.276C259.709 186.566 260.193 186.895 260.65 187.26C261.22 187.689 261.75 188.17 262.233 188.695C262.929 189.393 263.426 190.264 263.674 191.218C263.784 191.805 263.713 192.411 263.47 192.957C263.163 193.538 262.686 194.013 262.103 194.318C261.489 194.664 260.842 194.952 260.173 195.177C259.487 195.431 258.751 195.647 257.99 195.845C254.5 196.676 250.951 197.234 247.375 197.516C243.397 197.887 238.999 198.078 234.255 198.085C233.067 198.085 231.861 198.085 230.63 198.085C229.399 198.085 228.156 197.998 226.919 198.085C224.382 198.151 221.764 198.151 219.063 198.085C213.388 198.029 207.725 197.557 202.12 196.674C200.638 196.425 199.17 196.099 197.722 195.697C196.983 195.492 196.258 195.242 195.551 194.948C194.82 194.664 194.14 194.265 193.534 193.767C193.227 193.489 193.002 193.132 192.884 192.734C192.843 192.64 192.808 192.542 192.779 192.443L192.742 192.14V191.837C192.742 191.732 192.742 191.633 192.742 191.528C192.855 190.724 193.177 189.965 193.676 189.326C194.676 188.069 195.893 187.003 197.27 186.177L197.208 186.239C198.713 183.089 199.955 179.82 200.92 176.465C201.965 173.069 202.924 169.593 203.839 166.061C204.804 162.349 205.695 158.7 206.605 155.087C207.058 153.281 207.504 151.487 207.941 149.706C208.405 147.93 208.825 146.167 209.394 144.435C210.001 142.745 210.955 141.2 212.197 139.902C213.438 138.605 214.939 137.582 216.601 136.901C218.212 136.244 219.933 135.902 221.673 135.893H234.014C234.809 135.878 235.604 135.909 236.395 135.986C237.95 136.158 239.462 136.604 240.861 137.303C242.217 137.986 243.443 138.898 244.486 140C245.465 141.056 246.256 142.272 246.824 143.594L247.202 144.596C247.307 144.936 247.418 145.271 247.505 145.611C247.69 146.285 247.882 146.947 248.049 147.609C248.736 150.256 249.354 152.811 249.948 155.242C252.311 164.978 254.365 172.822 256.078 178.129C256.913 180.802 257.705 182.824 258.268 184.191C258.546 184.872 258.812 185.361 258.961 185.707L259.202 186.233C259.202 186.233 258.825 185.558 258.206 184.216C257.588 182.874 256.814 180.833 255.961 178.166C254.204 172.841 252.119 164.997 249.726 155.279C249.107 152.848 248.488 150.3 247.808 147.658C247.635 146.996 247.449 146.334 247.264 145.66C247.171 145.32 247.066 144.992 246.96 144.658L246.589 143.681C246.014 142.365 245.215 141.159 244.226 140.118C242.138 137.907 239.327 136.518 236.302 136.202C235.522 136.123 234.736 136.095 233.952 136.116H226.64C223.349 136.221 219.836 135.701 216.656 137.111C215.035 137.777 213.572 138.776 212.362 140.043C211.151 141.31 210.22 142.817 209.629 144.466C209.073 146.161 208.646 147.943 208.188 149.712C207.73 151.481 207.303 153.281 206.852 155.087C205.961 158.706 205.058 162.368 204.093 166.073C203.171 169.605 202.237 173.088 201.161 176.49C200.198 179.861 198.956 183.147 197.45 186.313V186.35H197.412C196.071 187.153 194.885 188.19 193.911 189.412C193.445 190.006 193.144 190.712 193.039 191.46C193.039 191.552 193.039 191.645 193.039 191.732V192.004L193.07 192.276C193.07 192.363 193.132 192.449 193.163 192.536C193.265 192.884 193.462 193.197 193.732 193.439C194.31 193.917 194.962 194.297 195.662 194.565C196.357 194.856 197.069 195.102 197.796 195.301C199.233 195.705 200.691 196.031 202.163 196.278C207.752 197.165 213.398 197.643 219.056 197.707C221.749 197.765 224.364 197.765 226.9 197.707C228.168 197.639 229.424 197.707 230.649 197.707C231.873 197.707 233.08 197.744 234.267 197.744C239.006 197.744 243.397 197.565 247.369 197.212C250.935 196.945 254.476 196.401 257.959 195.586C258.726 195.394 259.45 195.184 260.136 194.967C260.798 194.743 261.438 194.46 262.048 194.12C262.612 193.853 263.082 193.421 263.396 192.882C263.636 192.363 263.711 191.782 263.613 191.218C263.369 190.287 262.887 189.434 262.215 188.744C261.74 188.217 261.221 187.733 260.662 187.297C260.21 186.938 259.852 186.678 259.61 186.523L259.202 186.276Z" fill="#263238"/>
<path d="M247.035 202.681C249.027 212.695 256.765 250.082 258.72 259.522C258.776 259.78 258.775 260.047 258.716 260.304C258.658 260.562 258.542 260.803 258.379 261.011C258.216 261.218 258.009 261.387 257.772 261.505C257.536 261.623 257.276 261.687 257.012 261.693C256.626 261.691 256.252 261.56 255.949 261.321C255.645 261.083 255.43 260.75 255.336 260.375L240.249 204.14C240.122 203.688 240.1 203.212 240.184 202.75C240.268 202.288 240.457 201.85 240.735 201.472C241.014 201.093 241.375 200.783 241.791 200.565C242.207 200.346 242.668 200.226 243.138 200.213H244.097C244.796 200.221 245.471 200.471 246.007 200.921C246.543 201.371 246.906 201.993 247.035 202.681Z" fill="#455A64"/>
<path d="M256.481 190.773C256.438 190.793 256.392 190.806 256.344 190.81L255.93 190.884L254.328 191.132C252.936 191.342 250.913 191.608 248.408 191.893C243.41 192.462 236.463 193.012 228.781 193.13C221.098 193.247 214.133 192.926 209.116 192.511C206.605 192.313 204.576 192.115 203.178 191.948L201.569 191.757L201.149 191.695C201.056 191.695 201.007 191.695 201.013 191.664H201.155H201.576L203.19 191.8C204.594 191.93 206.623 192.091 209.128 192.264C214.151 192.604 221.098 192.882 228.774 192.771C236.451 192.66 243.385 192.152 248.39 191.608C250.864 191.354 252.911 191.126 254.309 190.952L255.918 190.761L256.338 190.724C256.389 190.73 256.437 190.747 256.481 190.773Z" fill="#263238"/>
<g opacity="0.3">
<path opacity="0.3" d="M252.559 187.915C252.082 186.728 250.159 186.431 248.581 186.357C233.794 185.64 218.973 186.211 204.285 188.064C203.867 188.084 203.459 188.198 203.091 188.398C202.763 188.614 202.615 189.016 202.899 189.295L202.831 190.031C217.436 193.241 232.944 192.573 247.987 190.99C249.121 190.941 250.236 190.687 251.278 190.241C252.206 189.746 252.911 188.788 252.559 187.915Z" fill="black"/>
</g>
<path d="M159.834 232.966C159.779 233.04 151.174 226.65 140.658 218.702C130.143 210.753 121.625 204.252 121.687 204.215C121.748 204.178 130.347 210.524 140.863 218.479C151.378 226.434 159.884 232.898 159.834 232.966Z" fill="#263238"/>
<path d="M117.771 233.708C117.715 233.64 126.295 226.972 136.947 218.819C147.599 210.666 156.24 204.109 156.296 204.184C156.352 204.258 147.753 210.92 137.151 219.06C126.549 227.201 117.827 233.776 117.771 233.708Z" fill="#263238"/>
<path d="M124.099 196.866L122.577 205.087H124.835L127.161 196.866H124.099Z" fill="#263238"/>
<path d="M120.183 202.681C118.192 212.695 110.453 250.082 108.505 259.522C108.447 259.779 108.447 260.046 108.505 260.304C108.563 260.561 108.678 260.803 108.841 261.01C109.003 261.218 109.21 261.387 109.446 261.505C109.682 261.623 109.942 261.687 110.206 261.693C110.592 261.691 110.966 261.56 111.27 261.321C111.573 261.083 111.789 260.75 111.882 260.375L126.969 204.14C127.096 203.688 127.119 203.212 127.034 202.75C126.95 202.287 126.762 201.85 126.483 201.472C126.205 201.093 125.844 200.783 125.427 200.565C125.011 200.346 124.55 200.226 124.08 200.212H123.128C122.427 200.219 121.75 200.469 121.213 200.919C120.676 201.369 120.312 201.992 120.183 202.681Z" fill="#455A64"/>
<path d="M154.013 196.866L155.535 205.087H153.277L150.951 196.866H154.013Z" fill="#263238"/>
<path d="M169.936 186.276C165.55 178.129 160.323 153.256 158.022 145.32C157.96 145.097 157.892 144.881 157.824 144.67C156.953 142.128 155.305 139.924 153.113 138.369C150.92 136.815 148.294 135.99 145.607 136.01H132.351C129.663 135.99 127.037 136.816 124.843 138.37C122.65 139.924 121 142.128 120.128 144.67C120.06 144.881 119.992 145.097 119.93 145.32C117.629 153.256 112.408 178.104 108.016 186.276C108.016 186.276 102.164 189.721 103.841 193.018C105.449 196.192 120.474 198.443 138.976 197.849C157.471 198.468 172.497 196.192 174.111 193.018C175.781 189.721 169.936 186.276 169.936 186.276Z" fill="#E0E0E0"/>
<path d="M169.936 186.276C170.446 186.564 170.932 186.893 171.389 187.259C171.958 187.688 172.486 188.168 172.967 188.695C173.663 189.394 174.162 190.264 174.414 191.218C174.522 191.806 174.448 192.412 174.204 192.957C173.886 193.535 173.398 194.001 172.806 194.293C172.192 194.641 171.545 194.929 170.876 195.152C170.16 195.412 169.431 195.635 168.692 195.821C165.205 196.65 161.658 197.209 158.084 197.491C154.1 197.862 149.702 198.054 144.957 198.06C143.776 198.06 142.564 198.06 141.339 198.06C140.114 198.06 138.864 197.973 137.627 198.06C135.091 198.128 132.468 198.14 129.778 198.06C124.103 198.004 118.44 197.533 112.835 196.649C111.353 196.401 109.885 196.075 108.437 195.672C107.684 195.473 106.944 195.227 106.222 194.936C105.489 194.653 104.806 194.254 104.199 193.754C103.894 193.475 103.67 193.118 103.55 192.721C103.519 192.629 103.476 192.53 103.451 192.431L103.414 192.128L103.377 191.825C103.377 191.719 103.377 191.62 103.408 191.515C103.518 190.712 103.838 189.953 104.336 189.313C105.335 188.057 106.552 186.99 107.929 186.165L107.874 186.226C109.376 183.076 110.618 179.807 111.585 176.453C112.631 173.057 113.589 169.58 114.511 166.048C115.476 162.337 116.367 158.687 117.276 155.075C117.722 153.269 118.167 151.475 118.612 149.693C119.07 147.918 119.491 146.155 120.066 144.423C120.665 142.728 121.615 141.179 122.854 139.877C124.092 138.574 125.592 137.548 127.254 136.864C128.865 136.207 130.586 135.864 132.326 135.856H144.661C145.456 135.84 146.251 135.871 147.042 135.948C148.599 136.12 150.113 136.566 151.514 137.266C152.868 137.948 154.092 138.861 155.133 139.963C156.15 141.021 156.973 142.25 157.564 143.594L157.948 144.596C158.053 144.936 158.158 145.27 158.251 145.611C158.43 146.285 158.622 146.947 158.789 147.609C159.476 150.256 160.094 152.811 160.694 155.242C163.057 164.978 165.105 172.822 166.824 178.129C167.659 180.801 168.451 182.824 169.008 184.191C169.286 184.872 169.552 185.36 169.707 185.707C169.861 186.053 169.942 186.233 169.942 186.233C169.942 186.233 169.571 185.558 168.952 184.216C168.334 182.874 167.56 180.832 166.7 178.166C164.95 172.84 162.859 164.997 160.471 155.279C159.853 152.848 159.234 150.299 158.548 147.658C158.381 146.996 158.189 146.334 158.003 145.66C157.917 145.32 157.805 144.992 157.706 144.658C157.607 144.324 157.453 144.039 157.329 143.681C156.759 142.364 155.961 141.158 154.972 140.118C152.876 137.923 150.067 136.548 147.048 136.239C146.267 136.16 145.482 136.131 144.698 136.153H137.368C134.083 136.258 130.563 135.738 127.39 137.148C125.768 137.813 124.305 138.811 123.094 140.078C121.883 141.346 120.953 142.853 120.363 144.503C119.8 146.198 119.379 147.98 118.922 149.749C118.464 151.518 118.031 153.318 117.585 155.124C116.695 158.743 115.785 162.405 114.82 166.11C113.899 169.642 112.965 173.125 111.888 176.527C110.925 179.898 109.684 183.184 108.177 186.35V186.387H108.134C106.793 187.191 105.608 188.228 104.632 189.449C104.166 190.043 103.865 190.749 103.76 191.497C103.76 191.589 103.76 191.682 103.76 191.769L103.791 192.041L103.822 192.313C103.822 192.4 103.884 192.486 103.909 192.573C104.014 192.92 104.21 193.232 104.478 193.476C105.057 193.952 105.708 194.333 106.408 194.602C107.103 194.892 107.816 195.138 108.542 195.338C109.979 195.741 111.437 196.067 112.909 196.315C118.473 197.206 124.094 197.692 129.728 197.769C132.421 197.827 135.035 197.827 137.572 197.769C138.809 197.701 140.089 197.769 141.32 197.769C142.551 197.769 143.751 197.806 144.933 197.806C149.671 197.806 154.063 197.627 158.04 197.274C161.607 197.005 165.148 196.461 168.63 195.647C169.391 195.456 170.121 195.245 170.802 195.029C171.464 194.806 172.104 194.523 172.713 194.181C173.278 193.913 173.75 193.483 174.068 192.944C174.303 192.423 174.376 191.843 174.278 191.28C174.034 190.348 173.552 189.496 172.88 188.806C172.406 188.279 171.886 187.795 171.327 187.358C170.882 187 170.523 186.74 170.276 186.585L169.936 186.276Z" fill="#263238"/>
<path d="M157.762 202.681C159.76 212.695 167.492 250.082 169.447 259.522C169.505 259.78 169.505 260.047 169.446 260.305C169.388 260.563 169.273 260.805 169.109 261.013C168.946 261.221 168.738 261.39 168.501 261.507C168.264 261.625 168.004 261.688 167.74 261.693C167.354 261.688 166.981 261.557 166.678 261.319C166.375 261.08 166.159 260.749 166.063 260.375L150.976 204.14C150.849 203.687 150.827 203.211 150.911 202.748C150.996 202.285 151.185 201.848 151.464 201.469C151.743 201.09 152.105 200.78 152.522 200.563C152.94 200.345 153.401 200.225 153.871 200.212H154.824C155.524 200.219 156.2 200.469 156.736 200.92C157.272 201.37 157.634 201.992 157.762 202.681Z" fill="#455A64"/>
<path d="M167.214 190.773L167.071 190.81L166.657 190.884L165.055 191.132C163.663 191.342 161.64 191.608 159.141 191.893C154.137 192.462 147.197 193.012 139.508 193.13C131.819 193.247 124.86 192.926 119.843 192.511C117.332 192.313 115.303 192.115 113.905 191.948L112.296 191.756L111.882 191.695C111.833 191.693 111.785 191.683 111.74 191.664H111.882H112.303L113.917 191.8C115.321 191.93 117.35 192.091 119.862 192.264C124.878 192.604 131.825 192.882 139.501 192.771C147.178 192.66 154.112 192.152 159.117 191.608C161.591 191.354 163.645 191.126 165.036 190.952L166.651 190.761L167.065 190.723C167.118 190.73 167.168 190.746 167.214 190.773Z" fill="#263238"/>
<g opacity="0.3">
<path opacity="0.3" d="M163.292 187.915C162.81 186.727 160.886 186.43 159.309 186.356C144.524 185.64 129.704 186.211 115.018 188.064C114.598 188.083 114.188 188.197 113.818 188.398C113.49 188.614 113.348 189.016 113.633 189.294L113.565 190.031C128.163 193.241 143.671 192.573 158.721 190.989C159.854 190.94 160.969 190.687 162.012 190.241C162.952 189.746 163.639 188.787 163.292 187.915Z" fill="black"/>
</g>
<path d="M119.534 155.458C119.534 155.458 111.536 162.64 109.872 170.725C107.398 182.614 113.8 191.893 113.8 191.893C126.122 192.548 137.021 193.235 158.053 191.893L158.412 161.026L119.534 155.458Z" fill="#263238"/>
<path d="M139.223 139.542C139.124 139.202 136.279 129.231 136.279 129.231L148.032 122.674L151.378 135.751L139.223 139.542Z" fill="#3366FF"/>
<path d="M170.177 115.232C168.977 112.541 167.016 110.84 163.929 109.764L154.558 107.098H132.747C132.747 107.098 122.701 107.475 119.095 112.597L121.068 142.518C121.068 142.518 121.612 147.794 115.897 159.337C115.897 159.337 120.227 164.904 127.235 164.904C134.244 164.904 158.164 161.867 158.164 161.867L160.552 148.778L167.647 132.985C169.138 129.614 170.25 126.087 170.962 122.47C171.421 120.032 171.148 117.514 170.177 115.232Z" fill="#3366FF"/>
<path d="M141.679 148.159C141.63 148.047 141.588 147.931 141.555 147.813C141.475 147.559 141.376 147.194 141.24 146.786C140.967 145.87 140.578 144.559 140.095 142.92C139.124 139.567 137.757 134.847 136.136 129.268L136.105 129.156L136.204 129.101L147.957 122.531L148.143 122.432L148.192 122.63C148.285 122.989 148.384 123.373 148.477 123.756C149.547 127.987 150.568 132.027 151.496 135.713H151.217C153.902 129.88 156.166 124.888 157.83 121.338L159.747 117.224L160.273 116.135C160.327 116.007 160.391 115.882 160.465 115.764C160.425 115.898 160.376 116.028 160.317 116.154L159.84 117.261L157.985 121.412L151.477 135.837L151.298 136.233L151.193 135.812C150.259 132.132 149.232 128.086 148.155 123.861C148.056 123.478 147.957 123.094 147.871 122.736L148.106 122.841L136.347 129.367L136.421 129.2C137.992 134.767 139.316 139.524 140.262 142.883C140.714 144.534 141.073 145.852 141.332 146.774C141.444 147.213 141.537 147.553 141.598 147.813C141.635 147.926 141.662 148.042 141.679 148.159Z" fill="#263238"/>
<path d="M120.233 111.298C118.858 112.466 117.758 113.922 117.009 115.563C116.261 117.204 115.883 118.99 115.903 120.793C116.045 126.855 122.788 157.79 127.427 160.382C132.283 163.11 134.652 162.386 137.417 162.386C140.182 162.386 160.539 160.63 160.539 160.63L160.465 147.541L137.918 148.264L129.938 119.723L120.233 111.298Z" fill="#3366FF"/>
<path d="M117.524 131.223C117.524 131.223 117.561 131.334 117.616 131.544C117.672 131.754 117.759 132.089 117.864 132.491C118.074 133.338 118.384 134.569 118.779 136.14C119.59 139.301 120.74 143.891 122.349 149.508C122.757 150.912 123.202 152.372 123.716 153.881C124.213 155.451 124.943 156.938 125.881 158.291C126.906 159.724 128.321 160.832 129.957 161.483C131.713 162.125 133.585 162.387 135.45 162.25C139.304 162.102 143.355 161.805 147.549 161.502L160.54 160.506L160.391 160.667V160.296C160.391 155.922 160.342 151.636 160.323 147.541L160.484 147.701L137.931 148.4H137.825V148.295C135.444 139.697 133.495 132.559 132.085 127.554C131.405 125.08 130.848 123.113 130.508 121.764C130.33 121.109 130.194 120.602 130.099 120.243C130.013 119.896 129.976 119.717 129.976 119.717C129.976 119.717 130.037 119.89 130.143 120.23C130.248 120.571 130.39 121.09 130.582 121.746C130.972 123.088 131.528 125.037 132.233 127.517C133.644 132.509 135.66 139.635 138.085 148.221L137.949 148.122L160.502 147.38H160.657V147.541C160.657 151.654 160.707 155.922 160.731 160.289V160.778H160.583L147.593 161.768C143.393 162.065 139.347 162.356 135.475 162.498C133.571 162.634 131.66 162.362 129.87 161.7C128.187 161.022 126.734 159.876 125.683 158.397C124.732 157.021 123.996 155.509 123.499 153.912C122.992 152.396 122.547 150.924 122.151 149.52C120.567 143.891 119.454 139.295 118.68 136.122C118.309 134.538 118.019 133.307 117.814 132.46C117.728 132.051 117.654 131.73 117.604 131.501C117.555 131.272 117.524 131.223 117.524 131.223Z" fill="#263238"/>
<g opacity="0.3">
<path opacity="0.3" d="M129.239 161.446C127.891 160.844 126.755 159.851 125.979 158.595C123.468 154.883 122.082 149.433 121.21 145.536L120.901 145.134C121.207 148.963 121.956 152.743 123.134 156.399C123.808 158.31 124.662 160.265 126.227 161.539C127.722 162.652 129.547 163.231 131.411 163.184C133.258 163.134 135.094 162.879 136.885 162.424C135.345 162.399 131.646 162.516 129.239 161.446Z" fill="black"/>
</g>
<g opacity="0.3">
<path opacity="0.3" d="M131.169 124.09L139.446 146.613L158.949 147.602L137.93 148.277L131.169 124.09Z" fill="black"/>
</g>
<path d="M179.32 216.524L181.392 231.568C181.392 231.568 197.376 234.513 198.031 237.259L169.008 242.325L164.82 219.017L179.32 216.524Z" fill="#3366FF"/>
<path d="M172.2 231.877C171.934 232.011 171.725 232.236 171.611 232.511C171.498 232.786 171.487 233.092 171.581 233.374C171.704 233.644 171.927 233.855 172.202 233.965C172.478 234.074 172.785 234.073 173.059 233.962C173.345 233.827 173.569 233.588 173.684 233.293C173.799 232.999 173.797 232.672 173.678 232.378C173.52 232.11 173.264 231.914 172.964 231.83C172.664 231.747 172.343 231.784 172.07 231.933" fill="#E0E0E0"/>
<path d="M169.094 242.938L168.698 240.711L196.64 236.016C196.64 236.016 198.031 236.356 198.044 237.29L169.094 242.938Z" fill="#E0E0E0"/>
<path d="M181.837 231.339C181.837 231.482 181.157 231.667 180.544 232.249C179.932 232.83 179.653 233.486 179.517 233.449C179.381 233.412 179.443 232.564 180.204 231.877C180.965 231.191 181.843 231.203 181.837 231.339Z" fill="#263238"/>
<path d="M185.103 232.051C185.159 232.18 184.583 232.527 184.206 233.213C183.829 233.9 183.804 234.556 183.662 234.574C183.52 234.593 183.291 233.801 183.773 232.966C184.256 232.131 185.072 231.933 185.103 232.051Z" fill="#263238"/>
<path d="M187.466 235.409C187.342 235.459 187.021 234.791 187.25 233.95C187.478 233.108 188.085 232.682 188.165 232.793C188.245 232.904 187.911 233.411 187.732 234.08C187.553 234.748 187.602 235.372 187.466 235.409Z" fill="#263238"/>
<path d="M180.984 227.962C180.946 228.104 180.26 228.024 179.474 228.215C178.689 228.407 178.101 228.772 178.002 228.661C177.903 228.549 178.423 227.943 179.357 227.727C180.291 227.51 181.033 227.838 180.984 227.962Z" fill="#263238"/>
<path d="M160.298 231.432L162.463 247.15L175.224 260.505C175.417 260.712 175.566 260.957 175.66 261.224C175.755 261.491 175.793 261.774 175.773 262.057C175.754 262.339 175.676 262.615 175.546 262.866C175.415 263.117 175.234 263.339 175.014 263.518C174.759 263.727 174.457 263.871 174.133 263.938C173.81 264.004 173.476 263.992 173.158 263.901C169.051 262.75 150.092 255.742 150.092 255.742C149.356 252.556 146.764 237.655 146.764 237.655L160.298 231.432Z" fill="#3366FF"/>
<path d="M149.628 253.812L174.989 263.536C174.464 263.982 173.752 264.495 173.09 264.309L150.518 256.175C150.413 256.138 150.318 256.075 150.244 255.992C150.169 255.909 150.117 255.808 150.092 255.699L149.628 253.812Z" fill="#E0E0E0"/>
<path d="M154.057 250.218C154.363 250.26 154.642 250.414 154.84 250.651C155.038 250.888 155.141 251.19 155.127 251.499C155.096 251.801 154.95 252.08 154.72 252.279C154.491 252.478 154.193 252.581 153.89 252.569C153.566 252.528 153.269 252.367 153.056 252.119C152.843 251.871 152.73 251.553 152.739 251.227C152.804 250.909 152.99 250.629 153.258 250.448C153.527 250.266 153.856 250.197 154.174 250.255" fill="white"/>
<path d="M164.152 255.297C164.276 255.297 164.443 254.183 165.451 253.33C166.459 252.476 167.585 252.427 167.579 252.297C167.573 252.167 167.294 252.161 166.824 252.216C166.208 252.314 165.632 252.583 165.163 252.993C164.693 253.404 164.349 253.938 164.171 254.536C164.053 255 164.096 255.297 164.152 255.297Z" fill="#263238"/>
<path d="M167.412 257.876C167.536 257.913 167.795 257.029 168.575 256.274C169.354 255.52 170.22 255.247 170.189 255.124C170.158 255 169.138 255.08 168.265 255.959C167.393 256.837 167.288 257.882 167.412 257.876Z" fill="#263238"/>
<path d="M160.311 252.847C160.422 252.915 161.164 251.709 162.568 250.763C163.972 249.816 165.352 249.525 165.327 249.42C165.302 249.315 163.812 249.371 162.315 250.398C160.818 251.424 160.199 252.81 160.311 252.847Z" fill="#263238"/>
<path d="M159.135 99.9781C158.77 98.2213 159.135 96.4027 159.445 94.6336C159.754 92.8645 159.909 90.9654 159.16 89.3324C158.22 87.2787 156.067 86.091 154.694 84.2848C153.321 82.4785 152.888 80.1527 152.35 77.9506C151.811 75.7484 151.051 73.4411 149.3 71.9937C147.092 70.1379 142.124 70.5647 140.071 72.5751C141.747 85.3302 140.795 98.6667 145.49 110.636C151.763 109.898 157.709 107.435 162.667 103.523C160.874 103.442 159.5 101.735 159.135 99.9781Z" fill="#263238"/>
<path d="M134.881 111.552L126.666 81.7858C126.524 81.1117 126.64 80.4087 126.992 79.8164C127.344 79.224 127.905 78.7854 128.565 78.5877L142.23 72.2473C146.733 70.8926 150.89 75.9588 152.022 80.53C153.314 85.59 154.688 91.8253 154.805 95.7594C155.04 103.677 149.331 105.774 149.331 105.774L150.432 114.137L148.038 122.513L140.708 126.534L134.881 111.552Z" fill="#FFBE9D"/>
<path d="M150.104 86.722C150.156 86.9785 150.105 87.245 149.963 87.4646C149.821 87.6842 149.598 87.8395 149.343 87.8973C149.22 87.9307 149.091 87.9393 148.965 87.9224C148.839 87.9055 148.717 87.8636 148.607 87.7991C148.497 87.7346 148.401 87.6488 148.324 87.5467C148.248 87.4446 148.193 87.3282 148.162 87.2045C148.11 86.948 148.161 86.6816 148.303 86.4619C148.445 86.2423 148.667 86.087 148.922 86.0292C149.046 85.9949 149.174 85.9857 149.301 86.0022C149.428 86.0186 149.55 86.0604 149.66 86.1251C149.77 86.1897 149.866 86.2759 149.943 86.3784C150.019 86.481 150.074 86.5978 150.104 86.722Z" fill="#263238"/>
<path d="M151.081 83.6786C150.982 83.8333 150.135 83.4188 149.071 83.6229C148.007 83.8271 147.333 84.5013 147.215 84.3962C147.098 84.291 147.215 84.0931 147.518 83.7776C147.918 83.373 148.432 83.1009 148.991 82.9982C149.543 82.8919 150.115 82.9633 150.624 83.2023C150.976 83.4003 151.131 83.592 151.081 83.6786Z" fill="#263238"/>
<path d="M140.43 88.6582C140.48 88.9145 140.428 89.1802 140.286 89.3994C140.145 89.6186 139.923 89.7742 139.669 89.8335C139.545 89.8668 139.416 89.8751 139.29 89.8578C139.163 89.8406 139.041 89.7981 138.931 89.733C138.821 89.6679 138.725 89.5813 138.648 89.4786C138.572 89.3758 138.518 89.2588 138.487 89.1345C138.436 88.878 138.486 88.6115 138.628 88.3919C138.771 88.1723 138.993 88.017 139.248 87.9592C139.372 87.9258 139.501 87.9175 139.627 87.9348C139.754 87.9521 139.876 87.9945 139.986 88.0596C140.096 88.1248 140.192 88.2113 140.268 88.3141C140.345 88.4169 140.399 88.5339 140.43 88.6582Z" fill="#263238"/>
<path d="M141.407 86.2334C141.308 86.388 140.461 85.9736 139.397 86.1777C138.333 86.3818 137.659 87.0623 137.541 86.9509C137.423 86.8396 137.541 86.6478 137.844 86.3323C138.243 85.9277 138.757 85.6556 139.316 85.5529C139.869 85.4496 140.439 85.5209 140.949 85.7571C141.302 85.955 141.481 86.1653 141.407 86.2334Z" fill="#263238"/>
<path d="M146.244 93.3718C146.771 93.0972 147.33 92.8894 147.908 92.7532C148.174 92.6728 148.421 92.5676 148.428 92.3758C148.399 92.0927 148.285 91.825 148.1 91.6088L146.906 89.6974C145.236 86.9695 143.974 84.7055 144.085 84.6374C144.197 84.5694 145.638 86.7282 147.308 89.4562L148.465 91.3861C148.697 91.6819 148.817 92.0497 148.805 92.4253C148.785 92.5273 148.741 92.6233 148.678 92.7059C148.615 92.7885 148.533 92.8554 148.44 92.9016C148.296 92.9696 148.144 93.0214 147.988 93.0563C147.423 93.2371 146.837 93.3431 146.244 93.3718Z" fill="#263238"/>
<path d="M149.349 105.793C145.74 106.532 141.997 106.254 138.537 104.989C138.537 104.989 142.155 109.981 149.714 107.809L149.349 105.793Z" fill="#EB996E"/>
<path d="M140.547 81.7796C140.497 82.0889 139.415 82.1507 138.196 82.5343C136.978 82.9178 136.037 83.4497 135.821 83.2209C135.728 83.1157 135.852 82.8064 136.204 82.4538C136.675 82.0014 137.248 81.6702 137.875 81.4889C138.498 81.2909 139.16 81.2443 139.805 81.3528C140.293 81.4518 140.565 81.6311 140.547 81.7796Z" fill="#E0E0E0"/>
<path d="M150.234 80.4991C150.092 80.7713 149.312 80.66 148.434 80.8146C147.555 80.9693 146.838 81.2847 146.621 81.0621C146.522 80.9569 146.621 80.6909 146.875 80.4002C147.258 80.0417 147.741 79.8087 148.261 79.7321C148.78 79.6438 149.314 79.7195 149.788 79.9486C150.141 80.1218 150.289 80.3507 150.234 80.4991Z" fill="#263238"/>
<path d="M143.955 71.7896C142.1 68.6287 139.174 68.7957 136.044 68.938C132.914 69.0802 128.559 71.1587 126.301 73.3299C124.538 75.0248 122.59 77.1279 121.476 79.3053C120.363 81.4827 120.14 83.6354 119.62 85.9179C118.841 89.4871 119.515 93.1862 119.905 96.8172C120.395 101.38 120.43 105.98 120.01 110.55C119.862 112.189 119.75 114.137 121.99 114.707C122.407 114.804 122.836 114.844 123.264 114.824C126.586 114.725 129.907 115.344 133.563 115.01L135.796 114.645C138.629 114.193 139.761 112.028 139.273 109.591C137.8 102.224 132.468 90.5944 131.701 88.318C131.695 88.318 127.903 72.0989 143.955 71.7896Z" fill="#263238"/>
<path d="M142.91 72.0308C142.5 72.4994 142.19 73.0465 141.999 73.6389C141.807 74.2313 141.739 74.8564 141.797 75.4763C141.797 76.7134 142.094 77.9506 142.057 79.1877C142.015 80.4384 141.672 81.6605 141.057 82.7503C140.442 83.8402 139.573 84.7655 138.524 85.4477C137.856 85.8745 136.885 86.1591 136.341 85.5838C136.5 86.4347 136.401 87.3138 136.056 88.1077C135.711 88.9016 135.136 89.5738 134.405 90.0376C133.335 90.6561 132.042 90.8108 130.879 91.2747C129.716 91.7387 128.59 92.7655 128.72 94.0088L126.864 85.5158L128.064 77.5485L134.77 71.9813L142.91 72.0308Z" fill="#263238"/>
<path d="M132.035 88.2623C132.262 88.0529 132.469 87.823 132.654 87.5757C133.112 86.8711 133.394 86.0672 133.477 85.2312C133.58 83.995 133.557 82.7514 133.409 81.5198C133.226 79.9929 133.16 78.4544 133.211 76.9176C133.272 75.3636 133.746 73.854 134.584 72.5442C134.963 71.9797 135.451 71.4961 136.019 71.1215C136.514 70.7991 137.063 70.5686 137.64 70.4411C138.473 70.2342 139.351 70.2992 140.145 70.6266C140.268 70.6789 140.388 70.7388 140.504 70.806C140.588 70.8531 140.669 70.9069 140.745 70.9669C140.812 71.0122 140.874 71.064 140.931 71.1215C140.675 70.9502 140.403 70.8032 140.12 70.6823C139.331 70.3764 138.465 70.3266 137.646 70.54C136.43 70.8354 135.372 71.5802 134.683 72.6246C133.861 73.9238 133.4 75.4183 133.347 76.9547C133.296 78.483 133.358 80.013 133.532 81.5322C133.68 82.7808 133.692 84.0418 133.569 85.2931C133.474 86.1436 133.17 86.9574 132.685 87.6623C132.502 87.8958 132.283 88.0984 132.035 88.2623Z" fill="#455A64"/>
<path d="M125.429 88.2561C125.812 88.1554 126.178 88.0013 126.518 87.7983C127.408 87.1735 128.111 86.3182 128.553 85.324C128.88 84.6542 129.141 83.9539 129.332 83.2332C129.526 82.4027 129.599 81.5485 129.549 80.6971C129.512 79.794 129.4 78.8413 129.351 77.8578C129.323 77.353 129.323 76.8471 129.351 76.3423C129.389 75.8198 129.476 75.3021 129.611 74.7958C130.156 72.8624 131.405 71.203 133.112 70.1441C134.508 69.2943 136.142 68.9189 137.77 69.074C138.854 69.1659 139.908 69.4841 140.862 70.0081C141.215 70.1953 141.547 70.4192 141.852 70.6761L141.784 70.639L141.592 70.5091C141.491 70.4378 141.385 70.3717 141.277 70.3112C141.147 70.2369 141.005 70.1441 140.832 70.0575C139.87 69.5595 138.818 69.2608 137.739 69.1792C136.136 69.0427 134.533 69.422 133.161 70.2617C131.485 71.3053 130.261 72.9382 129.728 74.8391C129.596 75.3331 129.511 75.8384 129.474 76.3485C129.444 76.8557 129.474 77.3568 129.474 77.8454C129.524 78.829 129.635 79.7816 129.666 80.6909C129.717 81.5556 129.638 82.423 129.431 83.2642C129.236 83.9929 128.966 84.6998 128.627 85.3735C128.171 86.3771 127.445 87.2339 126.53 87.8478C126.275 87.9995 126 88.116 125.713 88.1942L125.491 88.2437C125.454 88.2561 125.429 88.2623 125.429 88.2561Z" fill="#455A64"/>
<path d="M136.341 85.5653C136.342 85.59 136.342 85.6148 136.341 85.6395C136.341 85.6952 136.341 85.7694 136.341 85.856C136.341 85.9426 136.341 86.0725 136.341 86.2086C136.341 86.3447 136.341 86.5117 136.341 86.6973C136.302 87.1419 136.202 87.579 136.044 87.9963C135.836 88.5603 135.509 89.073 135.085 89.4994C133.91 90.5712 132.404 91.2105 130.817 91.3119C129.877 91.4111 128.93 91.4111 127.99 91.3119C126.968 91.223 125.962 90.9941 125.002 90.6314L124.81 90.551L125.008 90.4892C126.113 90.1496 127.156 89.6382 128.101 88.9736L128.151 88.9427L128.219 89.0726C125.98 89.8111 123.556 89.7653 121.346 88.9427L121.198 88.887L121.34 88.819C122.7 88.1583 123.933 87.2643 124.984 86.1777C125.799 85.3149 126.361 84.2451 126.611 83.0848C126.745 82.3257 126.745 81.5489 126.611 80.7899L126.468 80.1713C126.468 80.1094 126.468 80.0538 126.431 80.0166C126.394 79.9795 126.431 79.961 126.431 79.961V80.0105L126.474 80.1651C126.518 80.3074 126.567 80.5053 126.641 80.7837C126.859 81.7518 126.83 82.7593 126.555 83.713C126.28 84.6666 125.77 85.5356 125.07 86.2395C124.021 87.3473 122.78 88.2568 121.408 88.9241V88.8004C123.597 89.6104 125.997 89.6519 128.213 88.918L128.695 88.7571L128.281 89.0479L128.231 89.085C127.286 89.754 126.243 90.2716 125.138 90.6191V90.483C126.086 90.8419 127.079 91.0687 128.089 91.1572C129.016 91.2594 129.952 91.2594 130.879 91.1572C132.442 91.0669 133.929 90.4498 135.097 89.4066C135.515 88.9922 135.842 88.495 136.056 87.9468C136.215 87.5349 136.321 87.1047 136.372 86.6663C136.372 86.487 136.372 86.3261 136.403 86.1839C136.409 86.0664 136.409 85.9487 136.403 85.8313V85.6148C136.383 85.5971 136.362 85.5805 136.341 85.5653Z" fill="#455A64"/>
<path d="M124.235 111.552C124.192 111.552 123.963 107.092 123.716 101.586C123.468 96.0811 123.307 91.615 123.351 91.615C123.394 91.615 123.623 96.0749 123.864 101.58C124.105 107.086 124.278 111.546 124.235 111.552Z" fill="#455A64"/>
<path d="M128.782 111.917C128.756 111.859 128.738 111.799 128.726 111.737C128.689 111.601 128.646 111.428 128.596 111.212C128.479 110.76 128.33 110.098 128.157 109.282C127.798 107.642 127.359 105.366 126.963 102.842C126.567 100.318 126.289 98.0173 126.128 96.3533C126.041 95.5182 125.986 94.844 125.949 94.38C125.949 94.1574 125.949 93.978 125.949 93.8419C125.943 93.7781 125.943 93.7139 125.949 93.6501C125.958 93.7116 125.958 93.7742 125.949 93.8357C125.949 93.9718 125.986 94.1512 126.017 94.3739C126.066 94.8563 126.147 95.5244 126.239 96.3409C126.425 98.0049 126.722 100.3 127.118 102.824C127.514 105.347 127.934 107.618 128.262 109.257C128.429 110.067 128.559 110.723 128.658 111.199C128.701 111.416 128.732 111.595 128.757 111.731C128.772 111.792 128.781 111.854 128.782 111.917Z" fill="#455A64"/>
<path d="M147.438 95.1038C147.267 94.9671 147.069 94.868 146.856 94.813H146.894C146.622 94.6692 146.312 94.6122 146.007 94.6498C145.702 94.6874 145.415 94.8178 145.186 95.0233C144.924 95.2767 144.757 95.6135 144.716 95.976C144.644 96.3526 144.707 96.7428 144.896 97.077C145.107 97.3766 145.422 97.5862 145.78 97.6647C146.137 97.7389 146.506 97.7389 146.863 97.6647C147.207 97.6219 147.529 97.4676 147.778 97.2255C147.955 97.0086 148.053 96.7383 148.056 96.4585C148.065 96.2003 148.013 95.9436 147.906 95.7086C147.799 95.4737 147.638 95.2666 147.438 95.1038Z" fill="#EB996E"/>
<path d="M143.985 96.1195C143.985 96.1195 143.985 96.1999 143.984 96.3112C143.997 96.3875 144.026 96.4601 144.07 96.5244C144.113 96.5886 144.17 96.6429 144.235 96.6838C144.471 96.7696 144.721 96.8068 144.971 96.7933C145.292 96.7972 145.611 96.751 145.918 96.6566C146.497 96.5044 147.057 96.2856 147.586 96.0045C148.02 95.8152 148.311 95.7551 148.323 95.7923C148.335 95.8295 148.081 95.9703 147.702 96.2093C147.183 96.5547 146.611 96.8126 146.009 96.9726C145.829 97.0148 145.674 97.0511 145.483 97.0809C145.314 97.0919 145.144 97.0909 144.975 97.0779C144.675 97.0795 144.379 97.0032 144.117 96.8563C144.03 96.7917 143.962 96.7056 143.92 96.6067C143.877 96.5077 143.861 96.3992 143.873 96.292C143.904 96.1499 143.973 96.107 143.985 96.1195Z" fill="#263238"/>
<path d="M160.484 149.433C160.484 149.433 168.061 148.32 169.93 149.05C171.798 149.78 181.237 154.339 182.301 156.312C183.365 158.285 185.827 161.811 186.142 163.574C186.458 165.337 186.761 170.626 186.761 170.626C186.136 170.604 185.542 170.347 185.099 169.905C184.656 169.463 184.396 168.87 184.373 168.244L183.65 170.626C183.65 170.626 181.676 171.145 181.367 169.797C181.367 169.797 180.223 171.251 179.709 167.941C179.446 166.51 179.273 165.064 179.19 163.611L177.631 161.329L178.46 164.378L178.045 169.005C178.045 169.005 176.388 169.005 176.282 167.552C176.163 166.47 175.92 165.405 175.559 164.378L173.48 161.118C173.48 161.118 168.235 158.384 167.059 157.073C166.523 156.56 166.081 155.957 165.754 155.291L160.577 157.017L160.484 149.433Z" fill="#FFBE9D"/>
<path d="M182.808 170.743C182.468 170.758 182.13 170.679 181.831 170.515C181.706 170.441 181.598 170.343 181.513 170.226C181.428 170.109 181.368 169.975 181.336 169.834C181.254 169.935 181.149 170.013 181.029 170.062C180.909 170.11 180.778 170.128 180.65 170.112C180.204 169.995 179.876 169.265 179.666 167.935C179.407 166.503 179.233 165.057 179.146 163.605L177.643 161.403L178.454 164.36L178.033 169.005C178.033 169.005 176.357 169.005 176.251 167.539C176.134 166.457 175.891 165.392 175.528 164.366L173.455 161.112C173.295 161.026 168.185 158.353 167.041 157.067C166.512 156.551 166.069 155.954 165.729 155.298L160.552 157.023L160.484 149.464C160.558 149.464 168.086 148.363 169.936 149.081C170.882 149.452 173.734 150.788 176.418 152.248C178.788 153.535 181.732 155.291 182.289 156.355C182.617 156.974 183.087 157.747 183.588 158.57C184.676 160.37 185.914 162.405 186.13 163.624C186.439 165.368 186.749 170.626 186.749 170.675C186.371 170.655 186.001 170.554 185.666 170.378C185.296 170.172 184.982 169.878 184.753 169.522C184.523 169.166 184.384 168.759 184.349 168.337L183.637 170.669C183.365 170.725 183.087 170.75 182.808 170.743ZM181.349 169.766V169.797C181.38 169.94 181.44 170.075 181.525 170.194C181.61 170.313 181.718 170.414 181.843 170.49C182.4 170.728 183.021 170.772 183.606 170.614L184.349 168.17V168.238C184.373 168.857 184.628 169.445 185.065 169.885C185.501 170.324 186.086 170.585 186.705 170.614C186.705 170.286 186.378 165.269 186.087 163.574C185.876 162.368 184.639 160.333 183.544 158.533C183.05 157.716 182.573 156.937 182.252 156.318C181.93 155.7 180.68 154.549 176.394 152.223C173.709 150.77 170.857 149.427 169.911 149.062C168.105 148.357 160.849 149.396 160.49 149.446L160.558 156.962L165.723 155.236C166.058 155.893 166.499 156.491 167.028 157.005C168.185 158.304 173.394 161.026 173.443 161.05L175.521 164.304C175.883 165.335 176.128 166.404 176.251 167.49C176.344 168.838 177.823 168.925 177.983 168.931L178.398 164.316L177.544 161.18L179.153 163.543C179.237 164.996 179.411 166.442 179.672 167.873C179.926 169.512 180.34 169.952 180.637 170.032H180.748C180.967 170.006 181.167 169.895 181.305 169.723L181.349 169.766Z" fill="#EB996E"/>
<path d="M165.674 148.802H163.515V156.194H165.674V148.802Z" fill="#263238"/>
<path d="M167.134 147.349H162.049V148.803H167.134V147.349Z" fill="#455A64"/>
<path d="M141.982 106.436C141.982 106.436 139.508 107.63 139.508 109.585C139.508 111.539 139.093 127.393 139.093 127.393L148.032 122.371L146.578 111.855L156.246 105.929C156.246 105.929 158.102 102.632 157.923 101.599C157.743 100.566 155.832 98.5554 154.892 98.6606C154.598 98.7085 154.318 98.8161 154.068 98.9768C153.818 99.1374 153.604 99.3477 153.438 99.5946L150.525 100.213C150.525 100.213 150.735 102.069 151.984 101.982L152.813 101.877L152.708 102.601L151.254 103.646L141.982 106.436Z" fill="#FFBE9D"/>
<path d="M141.982 106.436L142.137 106.374L142.601 106.22L144.407 105.644L151.211 103.535H151.18L152.634 102.49L152.591 102.564C152.622 102.341 152.653 102.087 152.69 101.834L152.813 101.964L152.009 102.069C151.855 102.086 151.699 102.073 151.551 102.029C151.402 101.985 151.264 101.913 151.143 101.815C150.711 101.381 150.444 100.81 150.389 100.201V100.089H150.506L153.42 99.4709L153.333 99.5328C153.579 99.159 153.927 98.863 154.335 98.6791C154.548 98.5807 154.781 98.5301 155.015 98.5307C155.252 98.5498 155.481 98.6239 155.684 98.7472C156.468 99.2222 157.134 99.8695 157.632 100.64C157.766 100.834 157.88 101.042 157.972 101.259C158.076 101.494 158.11 101.753 158.071 102.007C157.991 102.484 157.854 102.949 157.663 103.393C157.291 104.293 156.864 105.169 156.383 106.015V106.046L146.714 111.979L146.788 111.818C146.838 112.152 146.887 112.511 146.937 112.869C147.388 116.135 147.828 119.309 148.242 122.34V122.445L148.149 122.501L139.149 127.511L138.926 127.635V127.387C139.106 120.818 139.254 115.325 139.353 111.447C139.353 110.964 139.384 110.506 139.396 110.073C139.383 109.657 139.427 109.241 139.526 108.836C139.755 108.228 140.139 107.691 140.64 107.277C141.035 106.918 141.487 106.626 141.976 106.411C141.976 106.411 141.976 106.411 141.889 106.473L141.636 106.628C141.3 106.837 140.986 107.077 140.695 107.345C140.22 107.757 139.859 108.286 139.65 108.879C139.562 109.265 139.527 109.66 139.545 110.055C139.545 110.488 139.545 110.946 139.545 111.428C139.471 115.306 139.365 120.806 139.236 127.375L139.025 127.245L147.958 122.204L147.877 122.364C147.456 119.333 147.017 116.179 146.56 112.894C146.51 112.535 146.461 112.176 146.417 111.842V111.737L146.504 111.682L156.178 105.762L156.123 105.818C156.599 104.985 157.022 104.123 157.391 103.238C157.574 102.821 157.705 102.382 157.781 101.933C157.806 101.503 157.669 101.079 157.397 100.745C156.918 100.014 156.285 99.3978 155.541 98.9389C155.376 98.8373 155.19 98.7759 154.997 98.7595C154.805 98.7567 154.615 98.7968 154.44 98.8771C154.083 99.0413 153.775 99.2974 153.549 99.6194L153.519 99.6688H153.469L150.556 100.287L150.654 100.151C150.697 100.699 150.929 101.215 151.31 101.611C151.406 101.689 151.515 101.746 151.633 101.78C151.751 101.814 151.875 101.824 151.997 101.809L152.801 101.716H152.949V101.859C152.912 102.118 152.875 102.366 152.844 102.589V102.638H152.807L151.347 103.671L144.543 105.694L142.687 106.22L142.217 106.349L141.982 106.436Z" fill="#EB996E"/>
<path d="M153.989 104.574C153.958 104.537 154.255 104.271 154.688 103.807C154.936 103.542 155.144 103.242 155.306 102.916C155.485 102.519 155.549 102.08 155.492 101.648C155.455 101.204 155.372 100.764 155.244 100.337C155.19 100.183 155.087 100.051 154.951 99.9606C154.815 99.8702 154.653 99.8265 154.49 99.8359C154.23 99.8373 153.971 99.8103 153.717 99.7555C153.531 99.6936 153.463 99.607 153.469 99.5946C153.475 99.5823 153.574 99.5946 153.741 99.6317C153.993 99.6449 154.245 99.6449 154.496 99.6317C154.691 99.6213 154.886 99.6574 155.065 99.7369C155.273 99.8491 155.435 100.031 155.523 100.25C155.679 100.702 155.777 101.172 155.814 101.648C155.875 102.138 155.791 102.635 155.572 103.077C155.384 103.423 155.137 103.733 154.842 103.993C154.601 104.244 154.31 104.442 153.989 104.574Z" fill="#EB996E"/>
<path d="M154.174 176.379C150.419 171.43 142.458 170.997 138.376 175.704C136.967 177.307 136.208 179.379 136.248 181.513C136.248 191.286 141.518 217.693 142.675 225.432C143.912 233.721 147.351 247.905 147.351 247.905L164.232 245.511C164.232 245.511 157.898 195.889 157.112 190.074C156.327 184.259 155.121 179.267 155.121 179.267L154.174 176.379Z" fill="#263238"/>
<path d="M126.177 167.459C126.697 167.112 150.302 158.329 154.434 157.469C158.566 156.609 162.407 156.139 167.034 160.432C172.688 165.665 182.994 228.345 182.994 228.345C182.994 228.345 165.606 231.296 165.606 230.95C165.606 230.603 153.692 179.608 153.692 179.608L132.741 193.018L121.08 175.698L126.177 167.459Z" fill="#263238"/>
<path d="M158.702 199.637C158.681 199.588 158.667 199.536 158.659 199.482C158.659 199.359 158.609 199.204 158.572 199.012C158.504 198.573 158.405 197.973 158.282 197.206C158.04 195.61 157.706 193.346 157.286 190.556C156.865 187.767 156.327 184.42 155.399 180.777C154.969 178.877 154.238 177.058 153.234 175.389C152.134 173.613 150.505 172.226 148.576 171.424C146.614 170.697 144.457 170.697 142.495 171.424C140.655 172.058 139.034 173.207 137.825 174.733C136.823 176.193 136.262 177.911 136.211 179.682C136.106 181.333 136.174 182.898 136.211 184.309C136.384 187.129 136.786 189.406 136.904 190.989C136.972 191.781 137.003 192.4 137.015 192.814V193.29C137.022 193.346 137.022 193.402 137.015 193.457C137.008 193.402 137.008 193.346 137.015 193.29C137.015 193.161 137.015 193.006 136.978 192.814C136.947 192.4 136.897 191.781 136.811 190.996C136.656 189.418 136.192 187.16 136.013 184.315C135.92 182.764 135.905 181.209 135.97 179.657C136.018 177.841 136.589 176.078 137.615 174.579C138.851 172.997 140.518 171.807 142.415 171.152C144.448 170.397 146.685 170.397 148.718 171.152C150.71 171.983 152.39 173.417 153.525 175.253C154.539 176.943 155.277 178.785 155.708 180.709C156.605 184.364 157.125 187.711 157.533 190.519C157.941 193.328 158.207 195.585 158.424 197.188C158.523 197.955 158.603 198.561 158.659 199C158.659 199.192 158.696 199.353 158.708 199.476C158.713 199.53 158.711 199.584 158.702 199.637Z" fill="#455A64"/>
<path d="M144.122 160.859C144.038 160.915 143.946 160.961 143.85 160.995L143.034 161.329C142.329 161.619 141.296 162.015 140.015 162.504C137.467 163.475 133.916 164.774 130.007 166.215C126.097 167.657 122.584 168.98 120.023 169.995L117.023 171.201L116.206 171.529C116.112 171.573 116.012 171.604 115.909 171.622C115.909 171.622 115.996 171.56 116.175 171.467L116.973 171.09C117.666 170.762 118.674 170.31 119.936 169.785C122.454 168.714 125.973 167.347 129.895 165.912C133.817 164.477 137.368 163.215 139.941 162.294L142.99 161.217L143.826 160.939C143.919 160.896 144.02 160.869 144.122 160.859Z" fill="#455A64"/>
<path d="M236.344 38.1411C235.513 38.2926 234.671 38.371 233.826 38.3754C230.735 38.3845 227.724 37.389 225.247 35.5387C222.77 33.6885 220.961 31.0837 220.093 28.1165C219.225 25.1494 219.344 21.9804 220.433 19.0868C221.521 16.1932 223.52 13.7315 226.129 12.0724C228.738 10.4133 231.815 9.64662 234.897 9.88773C237.979 10.1288 240.9 11.3647 243.219 13.4093C245.538 15.4539 247.13 18.1965 247.755 21.2242C248.381 24.2519 248.005 27.4008 246.686 30.1969C247.761 30.5054 248.75 31.0559 249.578 31.806C250.407 32.5562 251.052 33.4862 251.466 34.5247C253.784 30.4326 254.617 25.6649 253.823 21.0291C253.029 16.3934 250.656 12.1747 247.108 9.08776C243.559 6.00085 239.053 4.23552 234.352 4.09086C229.651 3.9462 225.044 5.4311 221.313 8.294C217.581 11.1569 214.954 15.2217 213.876 19.7999C212.799 24.3781 213.337 29.188 215.399 33.4149C217.462 37.6417 220.922 41.0256 225.194 42.9931C229.466 44.9607 234.287 45.391 238.84 44.2111C238.039 43.4177 237.406 42.4716 236.977 41.429C236.548 40.3864 236.333 39.2684 236.344 38.1411Z" fill="#101840"/>
<path d="M249.263 38.0474C249.226 39.3389 248.686 40.5649 247.759 41.465C246.832 42.3652 245.591 42.8687 244.299 42.8687C243.007 42.8687 241.765 42.3652 240.839 41.465C239.912 40.5649 239.372 39.3389 239.334 38.0474C239.315 37.3832 239.429 36.7218 239.669 36.1025C239.91 35.4831 240.273 34.9184 240.736 34.4417C241.199 33.965 241.753 33.5861 242.365 33.3273C242.977 33.0685 243.634 32.9352 244.299 32.9352C244.963 32.9352 245.621 33.0685 246.233 33.3273C246.845 33.5861 247.399 33.965 247.862 34.4417C248.325 34.9184 248.687 35.4831 248.928 36.1025C249.169 36.7218 249.283 37.3832 249.263 38.0474Z" fill="#3366FF"/>
<path d="M230.938 13.3925H234.572V23.407H243.658V27.0405H230.938V13.3925Z" fill="#101840"/>
<path d="M266.75 238.034L270.126 260.226H289.745L294.295 238.356L266.75 238.034Z" fill="#3366FF"/>
<path d="M291.554 252.255C291.554 252.32 286.528 252.369 280.327 252.369C274.126 252.369 269.1 252.32 269.1 252.255C269.1 252.191 274.126 252.141 280.327 252.141C286.528 252.141 291.554 252.191 291.554 252.255Z" fill="#FAFAFA"/>
<path d="M291.628 251.165C291.628 251.229 286.567 251.279 280.327 251.279C274.081 251.279 269.02 251.229 269.02 251.165C269.02 251.1 274.081 251.051 280.327 251.051C286.567 251.051 291.628 251.1 291.628 251.165Z" fill="#FAFAFA"/>
<path d="M291.589 249.93C291.589 249.995 286.528 250.044 280.287 250.044C274.042 250.044 268.981 249.995 268.981 249.93C268.981 249.866 274.042 249.816 280.287 249.816C286.528 249.816 291.589 249.871 291.589 249.93Z" fill="#FAFAFA"/>
<path d="M272.376 258.962C272.312 258.971 272.044 257.722 271.776 256.166C271.509 254.61 271.34 253.346 271.4 253.331C271.464 253.321 271.732 254.57 271.999 256.126C272.272 257.678 272.441 258.947 272.376 258.962Z" fill="#FAFAFA"/>
<path d="M273.714 258.724C273.65 258.724 273.576 257.504 273.472 255.997C273.372 254.491 273.278 253.271 273.343 253.261C273.402 253.251 273.6 254.466 273.7 255.978C273.804 257.494 273.774 258.724 273.714 258.724Z" fill="#FAFAFA"/>
<path d="M276.143 258.724C276.084 258.734 275.816 257.489 275.633 255.928C275.449 254.367 275.419 253.093 275.484 253.088C275.548 253.083 275.677 254.347 275.861 255.898C276.044 257.455 276.208 258.714 276.143 258.724Z" fill="#FAFAFA"/>
<path d="M277.853 258.838C277.794 258.843 277.63 257.574 277.581 255.997C277.526 254.421 277.605 253.142 277.67 253.147C277.734 253.147 277.759 254.421 277.814 255.992C277.863 257.559 277.918 258.833 277.853 258.838Z" fill="#FAFAFA"/>
<path d="M280.877 258.724C280.813 258.724 280.723 257.519 280.669 256.027C280.619 254.535 280.629 253.326 280.694 253.326C280.758 253.326 280.847 254.53 280.902 256.022C280.951 257.509 280.936 258.724 280.877 258.724Z" fill="#FAFAFA"/>
<path d="M283.083 258.843C283.018 258.843 282.979 257.594 282.989 256.052C283.003 254.51 283.063 253.266 283.127 253.266C283.192 253.266 283.231 254.515 283.222 256.057C283.207 257.593 283.147 258.843 283.083 258.843Z" fill="#FAFAFA"/>
<path d="M285.155 258.545C285.09 258.54 285.164 257.237 285.323 255.631C285.477 254.025 285.655 252.731 285.72 252.736C285.784 252.741 285.71 254.044 285.551 255.65C285.392 257.256 285.214 258.55 285.155 258.545Z" fill="#FAFAFA"/>
<path d="M287.821 258.253C287.762 258.243 287.856 257.128 288.153 255.774C288.446 254.421 288.823 253.365 288.882 253.38C288.947 253.4 288.669 254.481 288.377 255.819C288.084 257.167 287.886 258.263 287.821 258.253Z" fill="#FAFAFA"/>
<path d="M285.933 194.246C285.938 194.246 285.928 194.286 285.908 194.355C285.883 194.439 285.853 194.543 285.819 194.667C285.729 194.96 285.606 195.361 285.447 195.867C285.278 196.387 285.08 197.022 284.872 197.765C284.659 198.509 284.396 199.351 284.163 200.293C283.915 201.235 283.643 202.266 283.4 203.381C283.127 204.492 282.899 205.696 282.641 206.955C282.171 209.483 281.744 212.284 281.442 215.238C281.154 218.192 281.021 221.022 280.986 223.595C280.986 224.884 280.976 226.103 281.021 227.248C281.04 228.393 281.1 229.459 281.159 230.43C281.204 231.402 281.293 232.279 281.353 233.053C281.407 233.826 281.482 234.485 281.541 235.025C281.596 235.551 281.64 235.967 281.67 236.274C281.68 236.408 281.69 236.512 281.7 236.602C281.705 236.676 281.705 236.711 281.7 236.716C281.695 236.716 281.69 236.681 281.675 236.607C281.66 236.522 281.645 236.413 281.625 236.284C281.586 235.982 281.526 235.566 281.452 235.04C281.377 234.5 281.293 233.841 281.224 233.067C281.149 232.294 281.05 231.422 280.996 230.445C280.926 229.474 280.857 228.408 280.827 227.258C280.773 226.113 280.778 224.889 280.773 223.595C280.802 221.018 280.926 218.182 281.214 215.218C281.516 212.259 281.952 209.453 282.438 206.92C282.701 205.656 282.939 204.457 283.216 203.342C283.469 202.221 283.752 201.19 284.009 200.254C284.252 199.312 284.53 198.469 284.753 197.731C284.971 196.987 285.184 196.358 285.368 195.842C285.541 195.341 285.68 194.945 285.784 194.657C285.829 194.534 285.868 194.434 285.898 194.35C285.913 194.281 285.928 194.246 285.933 194.246Z" fill="#455A64"/>
<path d="M282.394 207.986C282.924 206.4 284.024 205.012 285.442 204.135C285.928 203.832 286.542 203.59 287.058 203.837C287.742 204.169 287.797 205.131 287.593 205.865C287.251 207.094 286.443 208.194 285.373 208.893C284.302 209.592 283.306 209.919 282.042 209.736" fill="#191E41"/>
<path d="M281.199 217.265C281.705 215.352 283.231 212.626 284.822 211.441C285.075 211.253 285.343 211.074 285.645 211.005C285.948 210.93 286.3 210.98 286.528 211.193C286.85 211.505 286.82 212.026 286.726 212.462C286.121 215.258 283.791 217.597 281.001 218.222" fill="#191E41"/>
<path d="M280.872 225.434C281.655 223.615 282.929 222.009 284.525 220.839C284.902 220.566 285.343 220.304 285.799 220.383C286.493 220.507 286.805 221.355 286.746 222.058C286.622 223.501 285.516 224.661 284.376 225.558C283.152 226.524 280.996 227.293 280.996 227.293" fill="#191E41"/>
<path d="M281.055 231.303C281.858 229.94 282.855 228.656 284.163 227.764C284.446 227.57 284.753 227.392 285.095 227.347C285.437 227.303 285.819 227.412 286.012 227.694C286.324 228.15 286.027 228.77 285.695 229.211C284.54 230.738 283.088 231.893 281.259 232.463" fill="#191E41"/>
<path d="M280.902 228.919C279.563 227.278 278.071 225.761 276.455 224.388C276.203 224.175 275.885 223.952 275.568 224.051C275.325 224.13 275.176 224.393 275.162 224.651C275.147 224.909 275.231 225.156 275.33 225.394C276.302 227.744 278.592 229.583 281.055 230.207" fill="#191E41"/>
<path d="M281.045 221.28C279.881 219.863 278.716 218.44 277.551 217.022C277.219 216.616 276.877 216.205 276.416 215.947C275.96 215.689 275.355 215.63 274.924 215.927C274.498 216.229 274.354 216.819 274.448 217.335C274.542 217.85 274.83 218.306 275.127 218.732C275.836 219.754 276.649 220.73 277.67 221.434C278.696 222.138 279.628 222.599 280.857 222.415" fill="#191E41"/>
<path d="M281.531 212.675C280.852 210.648 279.628 208.809 278.017 207.401C277.749 207.168 277.452 206.935 277.1 206.866C276.401 206.732 275.727 207.317 275.499 207.991C275.246 208.75 275.419 209.607 275.816 210.301C276.217 210.995 276.822 211.55 277.457 212.036C278.631 212.933 279.945 213.642 281.343 214.133" fill="#191E41"/>
<path d="M282.924 205.007C282.587 202.539 281.303 200.487 279.811 198.489C279.499 198.068 279.058 197.622 278.542 197.701C278.21 197.75 277.942 198.018 277.814 198.325C277.685 198.633 277.665 198.98 277.675 199.312C277.754 202.296 279.811 205.126 282.622 206.122" fill="#191E41"/>
<path d="M283.9 201.091C283.777 199.822 283.658 198.544 283.772 197.275C283.891 196.006 284.262 194.732 285.041 193.721C285.373 193.284 285.794 192.898 286.309 192.709C286.825 192.521 287.445 192.566 287.866 192.918C288.257 193.245 288.416 193.78 288.396 194.286C288.376 194.791 288.198 195.277 288.005 195.748C287.073 197.983 285.521 200.462 283.9 201.091Z" fill="#191E41"/>
<path d="M268.688 204.031C268.698 204.031 268.703 204.14 268.708 204.343C268.713 204.571 268.713 204.868 268.718 205.24C268.718 205.627 268.718 206.103 268.738 206.658C268.758 207.208 268.758 207.837 268.807 208.531C268.867 209.919 269.001 211.57 269.214 213.394C269.442 215.218 269.749 217.211 270.18 219.288C270.621 221.36 271.137 223.312 271.662 225.072C272.203 226.827 272.743 228.393 273.244 229.687C273.481 230.341 273.729 230.916 273.933 231.432C274.136 231.947 274.324 232.383 274.483 232.735C274.626 233.077 274.745 233.35 274.835 233.558C274.914 233.746 274.949 233.851 274.944 233.851C274.939 233.856 274.884 233.761 274.795 233.578C274.696 233.375 274.567 233.107 274.403 232.77C274.235 232.418 274.032 231.987 273.819 231.476C273.6 230.966 273.343 230.396 273.095 229.741C272.569 228.453 272.014 226.886 271.459 225.127C270.919 223.367 270.393 221.404 269.952 219.327C269.521 217.245 269.214 215.243 269.001 213.409C268.802 211.58 268.683 209.919 268.644 208.531C268.609 207.837 268.614 207.203 268.609 206.653C268.599 206.098 268.609 205.622 268.624 205.235C268.639 204.863 268.649 204.566 268.659 204.338C268.673 204.14 268.683 204.031 268.688 204.031Z" fill="#263238"/>
<path d="M269.239 214.147C269.258 212.953 269.709 211.773 270.488 210.866C270.755 210.559 271.117 210.256 271.524 210.316C272.059 210.395 272.307 211.04 272.327 211.58C272.356 212.492 272.044 213.414 271.464 214.118C270.884 214.822 270.279 215.263 269.377 215.406" fill="#4A4E65"/>
<path d="M270.423 220.72C270.354 219.307 270.81 217.126 271.633 215.976C271.762 215.793 271.905 215.615 272.099 215.501C272.292 215.387 272.54 215.342 272.738 215.441C273.025 215.585 273.115 215.947 273.144 216.264C273.333 218.296 272.252 220.393 270.488 221.419" fill="#4A4E65"/>
<path d="M271.955 226.356C272.094 224.948 272.619 223.58 273.452 222.44C273.65 222.172 273.893 221.9 274.22 221.855C274.721 221.791 275.117 222.301 275.226 222.792C275.449 223.803 274.949 224.829 274.369 225.687C273.744 226.609 272.441 227.595 272.441 227.595" fill="#4A4E65"/>
<path d="M273.348 230.311C273.6 229.211 274.002 228.121 274.701 227.233C274.855 227.04 275.023 226.852 275.246 226.748C275.469 226.643 275.752 226.634 275.945 226.787C276.257 227.03 276.188 227.516 276.054 227.888C275.598 229.176 274.855 230.277 273.734 231.06" fill="#4A4E65"/>
<path d="M272.728 228.72C271.464 227.893 270.121 227.179 268.728 226.594C268.51 226.505 268.247 226.42 268.054 226.554C267.905 226.658 267.861 226.871 267.905 227.05C267.95 227.228 268.064 227.377 268.178 227.521C269.343 228.909 271.301 229.672 273.11 229.568" fill="#4A4E65"/>
<path d="M271.182 223.486C270.086 222.772 268.986 222.053 267.885 221.34C267.573 221.136 267.251 220.928 266.884 220.854C266.517 220.78 266.091 220.864 265.868 221.161C265.64 221.459 265.67 221.89 265.843 222.222C266.017 222.554 266.314 222.802 266.607 223.03C267.31 223.575 268.069 224.061 268.921 224.324C269.769 224.581 270.503 224.695 271.306 224.304" fill="#4A4E65"/>
<path d="M269.66 217.528C268.763 216.294 267.528 215.302 266.131 214.693C265.898 214.589 265.645 214.494 265.392 214.524C264.886 214.584 264.554 215.124 264.544 215.634C264.535 216.205 264.837 216.755 265.258 217.141C265.68 217.528 266.21 217.776 266.75 217.969C267.742 218.326 268.792 218.529 269.848 218.559" fill="#4A4E65"/>
<path d="M268.956 212.006C268.193 210.4 266.879 209.275 265.437 208.239C265.134 208.021 264.738 207.808 264.401 207.976C264.188 208.08 264.064 208.323 264.039 208.561C264.014 208.799 264.078 209.037 264.158 209.26C264.852 211.273 266.864 212.76 268.991 212.834" fill="#4A4E65"/>
<path d="M268.782 209.126C268.426 208.289 268.069 207.446 267.875 206.554C267.682 205.666 267.662 204.715 267.974 203.862C268.108 203.495 268.312 203.138 268.619 202.901C268.931 202.663 269.362 202.559 269.724 202.707C270.061 202.846 270.284 203.178 270.383 203.525C270.478 203.877 270.463 204.244 270.428 204.606C270.269 206.331 269.749 208.353 268.782 209.126Z" fill="#4A4E65"/>
<path d="M293.492 203.818C293.502 203.818 293.507 203.927 293.517 204.13C293.527 204.358 293.537 204.655 293.552 205.027C293.566 205.419 293.576 205.894 293.566 206.445C293.561 207 293.566 207.629 293.532 208.323C293.492 209.716 293.373 211.372 293.175 213.201C292.962 215.03 292.654 217.032 292.223 219.119C291.782 221.201 291.257 223.159 290.716 224.919C290.161 226.678 289.606 228.24 289.081 229.533C288.833 230.183 288.575 230.758 288.357 231.268C288.144 231.779 287.94 232.21 287.772 232.562C287.608 232.894 287.48 233.162 287.38 233.37C287.291 233.553 287.237 233.647 287.232 233.642C287.227 233.637 287.261 233.538 287.341 233.35C287.43 233.142 287.549 232.864 287.693 232.527C287.851 232.17 288.04 231.734 288.243 231.224C288.446 230.713 288.699 230.133 288.932 229.479C289.432 228.185 289.973 226.619 290.513 224.864C291.038 223.104 291.554 221.151 291.995 219.079C292.426 217.003 292.734 215.01 292.962 213.186C293.17 211.362 293.309 209.711 293.368 208.323C293.413 207.629 293.418 207 293.438 206.45C293.457 205.899 293.462 205.424 293.457 205.032C293.462 204.66 293.462 204.363 293.467 204.135C293.482 203.922 293.487 203.818 293.492 203.818Z" fill="#455A64"/>
<path d="M292.947 213.934C292.927 212.74 292.476 211.56 291.698 210.653C291.43 210.346 291.068 210.043 290.662 210.103C290.126 210.182 289.878 210.826 289.859 211.367C289.829 212.279 290.141 213.201 290.721 213.905C291.301 214.608 291.906 215.05 292.808 215.193" fill="#4A4E65"/>
<path d="M291.762 220.507C291.831 219.094 291.375 216.913 290.553 215.763C290.424 215.58 290.28 215.402 290.087 215.288C289.893 215.174 289.645 215.129 289.447 215.228C289.16 215.372 289.07 215.734 289.041 216.051C288.852 218.083 289.933 220.18 291.698 221.206" fill="#4A4E65"/>
<path d="M290.226 226.138C290.087 224.73 289.561 223.362 288.729 222.222C288.53 221.954 288.287 221.682 287.96 221.637C287.46 221.573 287.063 222.083 286.954 222.574C286.731 223.585 287.232 224.611 287.812 225.469C288.436 226.391 289.74 227.377 289.74 227.377" fill="#4A4E65"/>
<path d="M288.838 230.098C288.585 228.998 288.183 227.907 287.484 227.02C287.331 226.827 287.162 226.639 286.939 226.534C286.716 226.43 286.434 226.42 286.24 226.574C285.928 226.817 285.997 227.303 286.131 227.674C286.587 228.963 287.331 230.064 288.451 230.847" fill="#4A4E65"/>
<path d="M289.457 228.507C290.721 227.679 292.065 226.966 293.457 226.381C293.676 226.292 293.938 226.207 294.132 226.341C294.28 226.445 294.325 226.658 294.28 226.837C294.236 227.015 294.122 227.164 294.008 227.308C292.843 228.696 290.885 229.459 289.076 229.355" fill="#4A4E65"/>
<path d="M291.004 223.273C292.104 222.559 293.2 221.84 294.3 221.127C294.612 220.923 294.935 220.715 295.301 220.641C295.668 220.566 296.094 220.651 296.317 220.948C296.545 221.246 296.516 221.677 296.342 222.009C296.169 222.341 295.871 222.589 295.579 222.817C294.875 223.362 294.117 223.848 293.264 224.111C292.416 224.368 291.683 224.482 290.88 224.091" fill="#4A4E65"/>
<path d="M292.526 217.31C293.423 216.076 294.657 215.084 296.055 214.475C296.288 214.371 296.54 214.276 296.793 214.306C297.299 214.366 297.631 214.906 297.641 215.416C297.651 215.986 297.348 216.537 296.927 216.923C296.506 217.31 295.975 217.558 295.435 217.751C294.444 218.108 293.393 218.311 292.337 218.341" fill="#4A4E65"/>
<path d="M293.224 211.788C293.988 210.182 295.301 209.057 296.744 208.021C297.046 207.803 297.443 207.59 297.78 207.758C297.993 207.862 298.117 208.105 298.142 208.343C298.166 208.581 298.102 208.819 298.023 209.042C297.329 211.054 295.316 212.541 293.19 212.616" fill="#4A4E65"/>
<path d="M293.403 208.913C293.76 208.075 294.117 207.233 294.31 206.341C294.503 205.453 294.523 204.502 294.211 203.649C294.077 203.282 293.874 202.925 293.566 202.687C293.259 202.45 292.823 202.345 292.461 202.494C292.124 202.633 291.901 202.965 291.802 203.312C291.708 203.659 291.722 204.031 291.757 204.393C291.911 206.118 292.436 208.14 293.403 208.913Z" fill="#4A4E65"/>
<path d="M264.495 233.642V237.796C264.495 238.698 265.228 239.432 266.131 239.432H294.538C295.44 239.432 296.174 238.698 296.174 237.796V233.642H264.495Z" fill="#3366FF"/>
<g opacity="0.4">
<path opacity="0.4" d="M266.958 239.427L267.196 240.75L293.408 242.619L294.072 239.427H266.958Z" fill="black"/>
</g>
</svg>
