<svg width="293" height="93" viewBox="0 0 293 93" fill="none" xmlns="http://www.w3.org/2000/svg">
<rect width="41" height="41" rx="8" fill="#3366FF"/>
<rect x="84" width="41" height="41" rx="8" fill="#52BD94"/>
<rect x="168" width="41" height="41" rx="8" fill="#FF991F"/>
<rect x="252" width="41" height="41" rx="8" fill="#DE350B"/>
<circle cx="188" cy="78" r="14.5" transform="rotate(-180 188 78)" fill="#101840" stroke="#101840"/>
<path d="M191.135 76.3496C191.135 76.7441 191.053 77.0859 190.889 77.375C190.725 77.6641 190.502 77.9004 190.221 78.084C189.943 78.2676 189.631 78.4023 189.283 78.4883V78.5234C189.971 78.6094 190.492 78.8203 190.848 79.1562C191.207 79.4922 191.387 79.9414 191.387 80.5039C191.387 81.0039 191.264 81.4512 191.018 81.8457C190.775 82.2402 190.4 82.5508 189.893 82.7773C189.385 83.0039 188.73 83.1172 187.93 83.1172C187.457 83.1172 187.016 83.0781 186.605 83C186.199 82.9258 185.816 82.8105 185.457 82.6543V81.1133C185.824 81.3008 186.209 81.4434 186.611 81.541C187.014 81.6348 187.389 81.6816 187.736 81.6816C188.385 81.6816 188.838 81.5703 189.096 81.3477C189.357 81.1211 189.488 80.8047 189.488 80.3984C189.488 80.1602 189.428 79.959 189.307 79.7949C189.186 79.6309 188.975 79.5059 188.674 79.4199C188.377 79.334 187.961 79.291 187.426 79.291H186.775V77.9023H187.438C187.965 77.9023 188.365 77.8535 188.639 77.7559C188.916 77.6543 189.104 77.5176 189.201 77.3457C189.303 77.1699 189.354 76.9707 189.354 76.748C189.354 76.4434 189.26 76.2051 189.072 76.0332C188.885 75.8613 188.572 75.7754 188.135 75.7754C187.861 75.7754 187.611 75.8105 187.385 75.8809C187.162 75.9473 186.961 76.0293 186.781 76.127C186.602 76.2207 186.443 76.3125 186.307 76.4023L185.469 75.1543C185.805 74.9121 186.197 74.7109 186.646 74.5508C187.1 74.3906 187.639 74.3105 188.264 74.3105C189.146 74.3105 189.846 74.4883 190.361 74.8438C190.877 75.1992 191.135 75.7012 191.135 76.3496Z" fill="white"/>
<path d="M188 63V27" stroke="#101840" stroke-width="2"/>
<circle cx="188" cy="29" r="2.5" transform="rotate(-180 188 29)" fill="#101840" stroke="#101840"/>
<circle cx="104" cy="78" r="14.5" transform="rotate(-180 104 78)" fill="#101840" stroke="#101840"/>
<path d="M106.469 83H100.48V81.7402L102.631 79.5664C103.064 79.1211 103.412 78.75 103.674 78.4531C103.939 78.1523 104.131 77.8789 104.248 77.6328C104.369 77.3867 104.43 77.123 104.43 76.8418C104.43 76.502 104.334 76.248 104.143 76.0801C103.955 75.9082 103.703 75.8223 103.387 75.8223C103.055 75.8223 102.732 75.8984 102.42 76.0508C102.107 76.2031 101.781 76.4199 101.441 76.7012L100.457 75.5352C100.703 75.3242 100.963 75.125 101.236 74.9375C101.514 74.75 101.834 74.5996 102.197 74.4863C102.564 74.3691 103.004 74.3105 103.516 74.3105C104.078 74.3105 104.561 74.4121 104.963 74.6152C105.369 74.8184 105.682 75.0957 105.9 75.4473C106.119 75.7949 106.229 76.1895 106.229 76.6309C106.229 77.1035 106.135 77.5352 105.947 77.9258C105.76 78.3164 105.486 78.7031 105.127 79.0859C104.771 79.4688 104.342 79.8926 103.838 80.3574L102.736 81.3945V81.4766H106.469V83Z" fill="white"/>
<path d="M104 63V27" stroke="#101840" stroke-width="2"/>
<circle cx="104" cy="29" r="2.5" transform="rotate(-180 104 29)" fill="#101840" stroke="#101840"/>
<circle cx="20" cy="78" r="14.5" transform="rotate(-180 20 78)" fill="#101840" stroke="#101840"/>
<path d="M20.957 83H19.1465V78.043C19.1465 77.9062 19.1484 77.7383 19.1523 77.5391C19.1562 77.3359 19.1621 77.1289 19.1699 76.918C19.1777 76.7031 19.1855 76.5098 19.1934 76.3379C19.1504 76.3887 19.0625 76.4766 18.9297 76.6016C18.8008 76.7227 18.6797 76.832 18.5664 76.9297L17.582 77.7207L16.709 76.6309L19.4688 74.4336H20.957V83Z" fill="white"/>
<path d="M20 63L20 27" stroke="#101840" stroke-width="2"/>
<circle cx="20" cy="29" r="2.5" transform="rotate(-180 20 29)" fill="#101840" stroke="#101840"/>
<circle cx="272" cy="78" r="14.5" transform="rotate(-180 272 78)" fill="#101840" stroke="#101840"/>
<path d="M274.662 81.2246H273.631V83H271.861V81.2246H268.205V79.9648L271.961 74.4336H273.631V79.8184H274.662V81.2246ZM271.861 79.8184V78.3652C271.861 78.2285 271.863 78.0664 271.867 77.8789C271.875 77.6914 271.883 77.5039 271.891 77.3164C271.898 77.1289 271.906 76.9629 271.914 76.8184C271.926 76.6699 271.934 76.5664 271.938 76.5078H271.891C271.816 76.668 271.738 76.8242 271.656 76.9766C271.574 77.125 271.479 77.2812 271.369 77.4453L269.799 79.8184H271.861Z" fill="white"/>
<path d="M272 63V27" stroke="#101840" stroke-width="2"/>
<circle cx="272" cy="29" r="2.5" transform="rotate(-180 272 29)" fill="#101840" stroke="#101840"/>
</svg>
