<svg width="43" height="137" viewBox="0 0 43 137" fill="none" xmlns="http://www.w3.org/2000/svg">
<rect y="56" width="33" height="32" rx="4" fill="white"/>
<path d="M12.5 70.667C11.7667 70.667 11.1667 71.267 11.1667 72.0003C11.1667 72.7337 11.7667 73.3337 12.5 73.3337C13.2333 73.3337 13.8333 72.7337 13.8333 72.0003C13.8333 71.267 13.2333 70.667 12.5 70.667ZM20.5 70.667C19.7667 70.667 19.1667 71.267 19.1667 72.0003C19.1667 72.7337 19.7667 73.3337 20.5 73.3337C21.2333 73.3337 21.8333 72.7337 21.8333 72.0003C21.8333 71.267 21.2333 70.667 20.5 70.667ZM16.5 70.667C15.7667 70.667 15.1667 71.267 15.1667 72.0003C15.1667 72.7337 15.7667 73.3337 16.5 73.3337C17.2333 73.3337 17.8333 72.7337 17.8333 72.0003C17.8333 71.267 17.2333 70.667 16.5 70.667Z" fill="#101840"/>
<circle cx="28" cy="122" r="14.5" transform="rotate(-180 28 122)" fill="#101840" stroke="#101840"/>
<path d="M31.4688 127H25.4805V125.74L27.6309 123.566C28.2676 122.914 28.6836 122.463 28.8789 122.213C29.0742 121.959 29.2148 121.725 29.3008 121.51C29.3867 121.295 29.4297 121.072 29.4297 120.842C29.4297 120.498 29.334 120.242 29.1426 120.074C28.9551 119.906 28.7031 119.822 28.3867 119.822C28.0547 119.822 27.7324 119.898 27.4199 120.051C27.1074 120.203 26.7812 120.42 26.4414 120.701L25.457 119.535C25.8789 119.176 26.2285 118.922 26.5059 118.773C26.7832 118.625 27.0859 118.512 27.4141 118.434C27.7422 118.352 28.1094 118.311 28.5156 118.311C29.0508 118.311 29.5234 118.408 29.9336 118.604C30.3438 118.799 30.6621 119.072 30.8887 119.424C31.1152 119.775 31.2285 120.178 31.2285 120.631C31.2285 121.025 31.1582 121.396 31.0176 121.744C30.8809 122.088 30.666 122.441 30.373 122.805C30.084 123.168 29.5723 123.686 28.8379 124.357L27.7363 125.395V125.477H31.4688V127Z" fill="white"/>
<path d="M28 107L28 71" stroke="#101840" stroke-width="2"/>
<circle cx="28" cy="73" r="2.5" transform="rotate(-180 28 73)" fill="#101840" stroke="#101840"/>
<circle cx="17" cy="15" r="14.5" fill="#101840" stroke="#101840"/>
<path d="M17.957 20H16.1465V15.043L16.1641 14.2285L16.1934 13.3379C15.8926 13.6387 15.6836 13.8359 15.5664 13.9297L14.582 14.7207L13.709 13.6309L16.4688 11.4336H17.957V20Z" fill="white"/>
<path d="M17 30V66" stroke="#101840" stroke-width="2"/>
<circle cx="17" cy="64" r="2.5" fill="#101840" stroke="#101840"/>
</svg>
