<svg width="104" height="153" viewBox="0 0 104 153" fill="none" xmlns="http://www.w3.org/2000/svg">
<circle cx="52" cy="138" r="14.5" transform="rotate(-180 52 138)" fill="#101840" stroke="#101840"/>
<path d="M55.4688 143H49.4805V141.74L51.6309 139.566C52.2676 138.914 52.6836 138.463 52.8789 138.213C53.0742 137.959 53.2148 137.725 53.3008 137.51C53.3867 137.295 53.4297 137.072 53.4297 136.842C53.4297 136.498 53.334 136.242 53.1426 136.074C52.9551 135.906 52.7031 135.822 52.3867 135.822C52.0547 135.822 51.7324 135.898 51.4199 136.051C51.1074 136.203 50.7812 136.42 50.4414 136.701L49.457 135.535C49.8789 135.176 50.2285 134.922 50.5059 134.773C50.7832 134.625 51.0859 134.512 51.4141 134.434C51.7422 134.352 52.1094 134.311 52.5156 134.311C53.0508 134.311 53.5234 134.408 53.9336 134.604C54.3438 134.799 54.6621 135.072 54.8887 135.424C55.1152 135.775 55.2285 136.178 55.2285 136.631C55.2285 137.025 55.1582 137.396 55.0176 137.744C54.8809 138.088 54.666 138.441 54.373 138.805C54.084 139.168 53.5723 139.686 52.8379 140.357L51.7363 141.395V141.477H55.4688V143Z" fill="white"/>
<path d="M52 123L52 87" stroke="#101840" stroke-width="2"/>
<circle cx="52" cy="89" r="2.5" transform="rotate(-180 52 89)" fill="#101840" stroke="#101840"/>
<rect y="54" width="104" height="32" rx="4" fill="#3366FF"/>
<rect width="12" height="12" transform="translate(16 64)" fill="white" fill-opacity="0.6"/>
<path d="M37.5273 75V66.4336H38.9277V73.7988H42.5547V75H37.5273ZM47.9395 75L47.6641 74.0977H47.6172C47.3047 74.4922 46.9902 74.7617 46.6738 74.9062C46.3574 75.0469 45.9512 75.1172 45.4551 75.1172C44.8184 75.1172 44.3203 74.9453 43.9609 74.6016C43.6055 74.2578 43.4277 73.7715 43.4277 73.1426C43.4277 72.4746 43.6758 71.9707 44.1719 71.6309C44.668 71.291 45.4238 71.1055 46.4395 71.0742L47.5586 71.0391V70.6934C47.5586 70.2793 47.4609 69.9707 47.2656 69.7676C47.0742 69.5605 46.7754 69.457 46.3691 69.457C46.0371 69.457 45.7188 69.5059 45.4141 69.6035C45.1094 69.7012 44.8164 69.8164 44.5352 69.9492L44.0898 68.9648C44.4414 68.7812 44.8262 68.6426 45.2441 68.5488C45.6621 68.4512 46.0566 68.4023 46.4277 68.4023C47.252 68.4023 47.873 68.582 48.291 68.9414C48.7129 69.3008 48.9238 69.8652 48.9238 70.6348V75H47.9395ZM45.8887 74.0625C46.3887 74.0625 46.7891 73.9238 47.0898 73.6465C47.3945 73.3652 47.5469 72.9727 47.5469 72.4688V71.9062L46.7148 71.9414C46.0664 71.9648 45.5938 72.0742 45.2969 72.2695C45.0039 72.4609 44.8574 72.7559 44.8574 73.1543C44.8574 73.4434 44.9434 73.668 45.1152 73.8281C45.2871 73.9844 45.5449 74.0625 45.8887 74.0625ZM54.1562 68.4023C54.9648 68.4023 55.5938 68.6953 56.043 69.2812C56.4961 69.8672 56.7227 70.6895 56.7227 71.748C56.7227 72.8105 56.4941 73.6387 56.0371 74.2324C55.5801 74.8223 54.9453 75.1172 54.1328 75.1172C53.3125 75.1172 52.6758 74.8223 52.2227 74.2324H52.1289L51.877 75H50.8457V65.8828H52.2227V68.0508C52.2227 68.2109 52.2148 68.4492 52.1992 68.7656C52.1836 69.082 52.1719 69.2832 52.1641 69.3691H52.2227C52.6602 68.7246 53.3047 68.4023 54.1562 68.4023ZM53.7988 69.5273C53.2441 69.5273 52.8438 69.6914 52.5977 70.0195C52.3555 70.3438 52.2305 70.8887 52.2227 71.6543V71.748C52.2227 72.5371 52.3477 73.1094 52.5977 73.4648C52.8477 73.8164 53.2559 73.9922 53.8223 73.9922C54.3105 73.9922 54.6797 73.7988 54.9297 73.4121C55.1836 73.0254 55.3105 72.4668 55.3105 71.7363C55.3105 70.2637 54.8066 69.5273 53.7988 69.5273ZM61.1523 75.1172C60.1445 75.1172 59.3555 74.8242 58.7852 74.2383C58.2188 73.6484 57.9355 72.8379 57.9355 71.8066C57.9355 70.748 58.1992 69.916 58.7266 69.3105C59.2539 68.7051 59.9785 68.4023 60.9004 68.4023C61.7559 68.4023 62.4316 68.6621 62.9277 69.1816C63.4238 69.7012 63.6719 70.416 63.6719 71.3262V72.0703H59.3535C59.373 72.6992 59.543 73.1836 59.8633 73.5234C60.1836 73.8594 60.6348 74.0273 61.2168 74.0273C61.5996 74.0273 61.9551 73.9922 62.2832 73.9219C62.6152 73.8477 62.9707 73.7266 63.3496 73.5586V74.6777C63.0137 74.8379 62.6738 74.9512 62.3301 75.0176C61.9863 75.084 61.5938 75.1172 61.1523 75.1172ZM60.9004 69.4453C60.4629 69.4453 60.1113 69.584 59.8457 69.8613C59.584 70.1387 59.4277 70.543 59.377 71.0742H62.3184C62.3105 70.5391 62.1816 70.1348 61.9316 69.8613C61.6816 69.584 61.3379 69.4453 60.9004 69.4453ZM66.6133 75H65.2363V65.8828H66.6133V75Z" fill="white"/>
<rect width="12" height="12" transform="translate(76 64)" fill="white" fill-opacity="0.6"/>
<circle cx="83" cy="15" r="14.5" fill="#101840" stroke="#101840"/>
<path d="M85.1348 13.3496C85.1348 13.8848 84.9727 14.3398 84.6484 14.7148C84.3242 15.0898 83.8691 15.3477 83.2832 15.4883V15.5234C83.9746 15.6094 84.498 15.8203 84.8535 16.1562C85.209 16.4883 85.3867 16.9375 85.3867 17.5039C85.3867 18.3281 85.0879 18.9707 84.4902 19.4316C83.8926 19.8887 83.0391 20.1172 81.9297 20.1172C81 20.1172 80.1758 19.9629 79.457 19.6543V18.1133C79.7891 18.2812 80.1543 18.418 80.5527 18.5234C80.9512 18.6289 81.3457 18.6816 81.7363 18.6816C82.334 18.6816 82.7754 18.5801 83.0605 18.377C83.3457 18.1738 83.4883 17.8477 83.4883 17.3984C83.4883 16.9961 83.3242 16.7109 82.9961 16.543C82.668 16.375 82.1445 16.291 81.4258 16.291H80.7754V14.9023H81.4375C82.1016 14.9023 82.5859 14.8164 82.8906 14.6445C83.1992 14.4688 83.3535 14.1699 83.3535 13.748C83.3535 13.0996 82.9473 12.7754 82.1348 12.7754C81.8535 12.7754 81.5664 12.8223 81.2734 12.916C80.9844 13.0098 80.6621 13.1719 80.3066 13.4023L79.4688 12.1543C80.25 11.5918 81.1816 11.3105 82.2637 11.3105C83.1504 11.3105 83.8496 11.4902 84.3613 11.8496C84.877 12.209 85.1348 12.709 85.1348 13.3496Z" fill="white"/>
<path d="M83 30V66" stroke="#101840" stroke-width="2"/>
<circle cx="83" cy="64" r="2.5" fill="#101840" stroke="#101840"/>
<circle cx="22" cy="15" r="14.5" fill="#101840" stroke="#101840"/>
<path d="M22.957 20H21.1465V15.043L21.1641 14.2285L21.1934 13.3379C20.8926 13.6387 20.6836 13.8359 20.5664 13.9297L19.582 14.7207L18.709 13.6309L21.4688 11.4336H22.957V20Z" fill="white"/>
<path d="M22 30V66" stroke="#101840" stroke-width="2"/>
<circle cx="22" cy="64" r="2.5" fill="#101840" stroke="#101840"/>
</svg>
