<svg width="370" height="340" viewBox="0 0 370 340" fill="none" xmlns="http://www.w3.org/2000/svg">
<rect y="47" width="319" height="293" rx="3" fill="white"/>
<path d="M112.446 80H110.361V70.0059H116.09V71.7422H112.446V74.3193H115.837V76.0488H112.446V80ZM121.046 73.6973C120.604 73.6973 120.257 73.8385 120.007 74.1211C119.756 74.3991 119.613 74.7956 119.576 75.3105H122.502C122.493 74.7956 122.358 74.3991 122.099 74.1211C121.839 73.8385 121.488 73.6973 121.046 73.6973ZM121.34 80.1367C120.109 80.1367 119.148 79.7972 118.455 79.1182C117.762 78.4391 117.416 77.4775 117.416 76.2334C117.416 74.9528 117.735 73.9639 118.373 73.2666C119.016 72.5648 119.902 72.2139 121.032 72.2139C122.112 72.2139 122.953 72.5215 123.555 73.1367C124.156 73.752 124.457 74.6019 124.457 75.6865V76.6982H119.528C119.551 77.2907 119.727 77.7533 120.055 78.0859C120.383 78.4186 120.843 78.585 121.436 78.585C121.896 78.585 122.331 78.5371 122.741 78.4414C123.151 78.3457 123.58 78.193 124.026 77.9834V79.5967C123.662 79.779 123.272 79.9134 122.857 80C122.443 80.0911 121.937 80.1367 121.34 80.1367ZM130.404 72.2139C131.307 72.2139 132.013 72.5671 132.523 73.2734C133.034 73.9753 133.289 74.9391 133.289 76.165C133.289 77.4274 133.025 78.4049 132.496 79.0977C131.972 79.7904 131.257 80.1367 130.35 80.1367C129.452 80.1367 128.748 79.8109 128.237 79.1592H128.094L127.745 80H126.152V69.3633H128.237V71.8379C128.237 72.1523 128.21 72.6559 128.155 73.3486H128.237C128.725 72.5921 129.447 72.2139 130.404 72.2139ZM129.734 73.8818C129.219 73.8818 128.843 74.0413 128.606 74.3604C128.369 74.6748 128.246 75.1966 128.237 75.9258V76.1514C128.237 76.9717 128.358 77.5596 128.6 77.915C128.846 78.2705 129.233 78.4482 129.762 78.4482C130.19 78.4482 130.53 78.2523 130.78 77.8604C131.035 77.4639 131.163 76.8896 131.163 76.1377C131.163 75.3857 131.035 74.8229 130.78 74.4492C130.525 74.071 130.176 73.8818 129.734 73.8818ZM139.277 72.2139C139.56 72.2139 139.795 72.2344 139.981 72.2754L139.824 74.2305C139.656 74.1849 139.451 74.1621 139.209 74.1621C138.544 74.1621 138.024 74.333 137.65 74.6748C137.281 75.0166 137.097 75.4951 137.097 76.1104V80H135.012V72.3574H136.591L136.898 73.6426H137.001C137.238 73.2142 137.557 72.8701 137.958 72.6104C138.364 72.346 138.803 72.2139 139.277 72.2139ZM146.783 80L146.503 79.0225H146.394C146.17 79.3779 145.854 79.6536 145.443 79.8496C145.033 80.041 144.566 80.1367 144.042 80.1367C143.144 80.1367 142.467 79.8975 142.012 79.4189C141.556 78.9359 141.328 78.2432 141.328 77.3408V72.3574H143.413V76.8213C143.413 77.3727 143.511 77.7874 143.707 78.0654C143.903 78.3389 144.215 78.4756 144.644 78.4756C145.227 78.4756 145.648 78.2819 145.908 77.8945C146.168 77.5026 146.298 76.8555 146.298 75.9531V72.3574H148.383V80H146.783ZM155.424 80L155.021 78.9609H154.966C154.615 79.403 154.253 79.7106 153.879 79.8838C153.51 80.0524 153.027 80.1367 152.43 80.1367C151.696 80.1367 151.117 79.9271 150.693 79.5078C150.274 79.0885 150.064 78.4915 150.064 77.7168C150.064 76.9056 150.347 76.3086 150.912 75.9258C151.482 75.5384 152.339 75.3242 153.482 75.2832L154.809 75.2422V74.9072C154.809 74.1325 154.412 73.7451 153.619 73.7451C153.008 73.7451 152.291 73.9297 151.466 74.2988L150.775 72.8906C151.655 72.4303 152.63 72.2002 153.701 72.2002C154.727 72.2002 155.513 72.4235 156.06 72.8701C156.606 73.3167 156.88 73.9958 156.88 74.9072V80H155.424ZM154.809 76.459L154.002 76.4863C153.396 76.5046 152.945 76.6139 152.648 76.8145C152.352 77.015 152.204 77.3203 152.204 77.7305C152.204 78.3184 152.541 78.6123 153.216 78.6123C153.699 78.6123 154.084 78.4733 154.371 78.1953C154.663 77.9173 154.809 77.5482 154.809 77.0879V76.459ZM163.299 72.2139C163.581 72.2139 163.816 72.2344 164.003 72.2754L163.846 74.2305C163.677 74.1849 163.472 74.1621 163.23 74.1621C162.565 74.1621 162.046 74.333 161.672 74.6748C161.303 75.0166 161.118 75.4951 161.118 76.1104V80H159.033V72.3574H160.612L160.92 73.6426H161.022C161.259 73.2142 161.578 72.8701 161.979 72.6104C162.385 72.346 162.825 72.2139 163.299 72.2139ZM164.297 72.3574H166.58L168.022 76.6572C168.146 77.0309 168.23 77.473 168.275 77.9834H168.316C168.367 77.514 168.465 77.0719 168.61 76.6572L170.025 72.3574H172.261L169.027 80.9775C168.731 81.7751 168.307 82.3721 167.756 82.7686C167.209 83.165 166.569 83.3633 165.835 83.3633C165.475 83.3633 165.122 83.3245 164.775 83.2471V81.5928C165.026 81.652 165.299 81.6816 165.596 81.6816C165.965 81.6816 166.286 81.5677 166.56 81.3398C166.838 81.1165 167.054 80.777 167.209 80.3213L167.332 79.9453L164.297 72.3574ZM183.451 80H176.465V78.5303L178.974 75.9941C179.716 75.2331 180.202 74.7067 180.43 74.415C180.658 74.1188 180.822 73.8454 180.922 73.5947C181.022 73.3441 181.072 73.0843 181.072 72.8154C181.072 72.4144 180.961 72.1159 180.737 71.9199C180.519 71.724 180.225 71.626 179.855 71.626C179.468 71.626 179.092 71.7148 178.728 71.8926C178.363 72.0703 177.982 72.3232 177.586 72.6514L176.438 71.291C176.93 70.8717 177.338 70.5755 177.661 70.4023C177.985 70.2292 178.338 70.097 178.721 70.0059C179.104 69.9102 179.532 69.8623 180.006 69.8623C180.63 69.8623 181.182 69.9762 181.66 70.2041C182.139 70.432 182.51 70.751 182.774 71.1611C183.039 71.5713 183.171 72.0407 183.171 72.5693C183.171 73.0296 183.089 73.4626 182.925 73.8682C182.765 74.2692 182.515 74.6816 182.173 75.1055C181.836 75.5293 181.239 76.1331 180.382 76.917L179.097 78.127V78.2227H183.451V80ZM191.395 75.0029C191.395 76.7484 191.107 78.0404 190.533 78.8789C189.964 79.7174 189.084 80.1367 187.895 80.1367C186.742 80.1367 185.871 79.7038 185.283 78.8379C184.7 77.972 184.408 76.6937 184.408 75.0029C184.408 73.2393 184.693 71.9404 185.263 71.1064C185.832 70.2679 186.71 69.8486 187.895 69.8486C189.048 69.8486 189.918 70.2861 190.506 71.1611C191.098 72.0361 191.395 73.3167 191.395 75.0029ZM186.507 75.0029C186.507 76.2288 186.612 77.1084 186.821 77.6416C187.035 78.1702 187.393 78.4346 187.895 78.4346C188.387 78.4346 188.742 78.1657 188.961 77.6279C189.18 77.0902 189.289 76.2152 189.289 75.0029C189.289 73.777 189.177 72.8975 188.954 72.3643C188.735 71.8265 188.382 71.5576 187.895 71.5576C187.398 71.5576 187.042 71.8265 186.828 72.3643C186.614 72.8975 186.507 73.777 186.507 75.0029ZM199.447 80H192.461V78.5303L194.97 75.9941C195.713 75.2331 196.198 74.7067 196.426 74.415C196.654 74.1188 196.818 73.8454 196.918 73.5947C197.018 73.3441 197.068 73.0843 197.068 72.8154C197.068 72.4144 196.957 72.1159 196.733 71.9199C196.515 71.724 196.221 71.626 195.852 71.626C195.464 71.626 195.088 71.7148 194.724 71.8926C194.359 72.0703 193.979 72.3232 193.582 72.6514L192.434 71.291C192.926 70.8717 193.334 70.5755 193.657 70.4023C193.981 70.2292 194.334 70.097 194.717 70.0059C195.1 69.9102 195.528 69.8623 196.002 69.8623C196.626 69.8623 197.178 69.9762 197.656 70.2041C198.135 70.432 198.506 70.751 198.771 71.1611C199.035 71.5713 199.167 72.0407 199.167 72.5693C199.167 73.0296 199.085 73.4626 198.921 73.8682C198.761 74.2692 198.511 74.6816 198.169 75.1055C197.832 75.5293 197.235 76.1331 196.378 76.917L195.093 78.127V78.2227H199.447V80ZM207.391 75.0029C207.391 76.7484 207.104 78.0404 206.529 78.8789C205.96 79.7174 205.08 80.1367 203.891 80.1367C202.738 80.1367 201.867 79.7038 201.279 78.8379C200.696 77.972 200.404 76.6937 200.404 75.0029C200.404 73.2393 200.689 71.9404 201.259 71.1064C201.828 70.2679 202.706 69.8486 203.891 69.8486C205.044 69.8486 205.914 70.2861 206.502 71.1611C207.094 72.0361 207.391 73.3167 207.391 75.0029ZM202.503 75.0029C202.503 76.2288 202.608 77.1084 202.817 77.6416C203.032 78.1702 203.389 78.4346 203.891 78.4346C204.383 78.4346 204.738 78.1657 204.957 77.6279C205.176 77.0902 205.285 76.2152 205.285 75.0029C205.285 73.777 205.174 72.8975 204.95 72.3643C204.731 71.8265 204.378 71.5576 203.891 71.5576C203.394 71.5576 203.038 71.8265 202.824 72.3643C202.61 72.8975 202.503 73.777 202.503 75.0029Z" fill="#474D66"/>
<rect width="24" height="24" transform="translate(22 63)" fill="white" fill-opacity="0.01"/>
<path fill-rule="evenodd" clip-rule="evenodd" d="M31.005 73.9946L35.598 69.4016C35.6896 69.3081 35.7988 69.2337 35.9193 69.1827C36.0398 69.1318 36.1692 69.1052 36.3001 69.1045C36.4309 69.1038 36.5606 69.1291 36.6816 69.1789C36.8026 69.2287 36.9126 69.3019 37.0051 69.3945C37.0976 69.487 37.1709 69.5969 37.2207 69.7179C37.2704 69.839 37.2957 69.9686 37.2951 70.0995C37.2944 70.2303 37.2678 70.3598 37.2168 70.4803C37.1658 70.6008 37.0915 70.71 36.998 70.8016L33.098 74.7016L36.998 78.6016C37.1806 78.7879 37.2822 79.0387 37.2809 79.2995C37.2796 79.5603 37.1754 79.8101 36.991 79.9945C36.8065 80.179 36.5568 80.2832 36.2959 80.2845C36.0351 80.2858 35.7843 80.1841 35.598 80.0016L31.005 75.4096C30.8175 75.222 30.7122 74.9677 30.7122 74.7026C30.7122 74.4374 30.8175 74.1831 31.005 73.9956V73.9946Z" fill="#696F8C"/>
<rect width="24" height="24" transform="translate(271 63)" fill="white" fill-opacity="0.01"/>
<path fill-rule="evenodd" clip-rule="evenodd" d="M285.995 73.9951C286.182 74.1826 286.288 74.4369 286.288 74.7021C286.288 74.9672 286.182 75.2215 285.995 75.4091L281.402 80.0021C281.216 80.1846 280.965 80.2863 280.704 80.285C280.443 80.2837 280.193 80.1795 280.009 79.995C279.825 79.8106 279.72 79.5608 279.719 79.3C279.718 79.0392 279.819 78.7884 280.002 78.6021L283.902 74.7021L280.002 70.8021C279.819 70.6158 279.718 70.365 279.719 70.1041C279.72 69.8433 279.825 69.5935 280.009 69.4091C280.193 69.2247 280.443 69.1205 280.704 69.1192C280.965 69.1178 281.216 69.2195 281.402 69.4021L285.995 73.9951Z" fill="#696F8C"/>
<path d="M34.7949 118.621C34.7949 119.129 34.6719 119.57 34.4258 119.945C34.1797 120.32 33.8203 120.609 33.3477 120.812C32.8789 121.016 32.3086 121.117 31.6367 121.117C31.3398 121.117 31.0488 121.098 30.7637 121.059C30.4824 121.02 30.2109 120.963 29.9492 120.889C29.6914 120.811 29.4453 120.715 29.2109 120.602V118.914C29.6172 119.094 30.0391 119.256 30.4766 119.4C30.9141 119.545 31.3477 119.617 31.7773 119.617C32.0742 119.617 32.3125 119.578 32.4922 119.5C32.6758 119.422 32.8086 119.314 32.8906 119.178C32.9727 119.041 33.0137 118.885 33.0137 118.709C33.0137 118.494 32.9414 118.311 32.7969 118.158C32.6523 118.006 32.4531 117.863 32.1992 117.73C31.9492 117.598 31.666 117.455 31.3496 117.303C31.1504 117.209 30.9336 117.096 30.6992 116.963C30.4648 116.826 30.2422 116.66 30.0312 116.465C29.8203 116.27 29.6465 116.033 29.5098 115.756C29.377 115.475 29.3105 115.139 29.3105 114.748C29.3105 114.236 29.4277 113.799 29.6621 113.436C29.8965 113.072 30.2305 112.795 30.6641 112.604C31.1016 112.408 31.6172 112.311 32.2109 112.311C32.6562 112.311 33.0801 112.363 33.4824 112.469C33.8887 112.57 34.3125 112.719 34.7539 112.914L34.168 114.326C33.7734 114.166 33.4199 114.043 33.1074 113.957C32.7949 113.867 32.4766 113.822 32.1523 113.822C31.9258 113.822 31.7324 113.859 31.5723 113.934C31.4121 114.004 31.291 114.105 31.209 114.238C31.127 114.367 31.0859 114.518 31.0859 114.689C31.0859 114.893 31.1445 115.064 31.2617 115.205C31.3828 115.342 31.5625 115.475 31.8008 115.604C32.043 115.732 32.3438 115.883 32.7031 116.055C33.1406 116.262 33.5137 116.479 33.8223 116.705C34.1348 116.928 34.375 117.191 34.543 117.496C34.7109 117.797 34.7949 118.172 34.7949 118.621ZM43.3203 112.434V117.977C43.3203 118.566 43.1895 119.1 42.9277 119.576C42.6699 120.049 42.2773 120.424 41.75 120.701C41.2266 120.979 40.5664 121.117 39.7695 121.117C38.6367 121.117 37.7734 120.828 37.1797 120.25C36.5859 119.672 36.2891 118.906 36.2891 117.953V112.434H38.0996V117.678C38.0996 118.385 38.2441 118.881 38.5332 119.166C38.8223 119.451 39.25 119.594 39.8164 119.594C40.2148 119.594 40.5371 119.525 40.7832 119.389C41.0332 119.252 41.2168 119.041 41.334 118.756C41.4512 118.471 41.5098 118.107 41.5098 117.666V112.434H43.3203Z" fill="#696F8C"/>
<path d="M71.7695 121L69.707 114.279H69.6543C69.6621 114.439 69.6738 114.682 69.6895 115.006C69.709 115.326 69.7266 115.668 69.7422 116.031C69.7578 116.395 69.7656 116.723 69.7656 117.016V121H68.1426V112.434H70.6152L72.6426 118.984H72.6777L74.8281 112.434H77.3008V121H75.6074V116.945C75.6074 116.676 75.6113 116.365 75.6191 116.014C75.6309 115.662 75.6445 115.328 75.6602 115.012C75.6758 114.691 75.6875 114.451 75.6953 114.291H75.6426L73.4336 121H71.7695ZM87.2383 116.705C87.2383 117.365 87.1562 117.967 86.9922 118.51C86.8281 119.049 86.5781 119.514 86.2422 119.904C85.9102 120.295 85.4883 120.596 84.9766 120.807C84.4648 121.014 83.8594 121.117 83.1602 121.117C82.4609 121.117 81.8555 121.014 81.3438 120.807C80.832 120.596 80.4082 120.295 80.0723 119.904C79.7402 119.514 79.4922 119.047 79.3281 118.504C79.1641 117.961 79.082 117.357 79.082 116.693C79.082 115.807 79.2266 115.035 79.5156 114.379C79.8086 113.719 80.2578 113.207 80.8633 112.844C81.4688 112.48 82.2383 112.299 83.1719 112.299C84.1016 112.299 84.8652 112.48 85.4629 112.844C86.0645 113.207 86.5098 113.719 86.7988 114.379C87.0918 115.039 87.2383 115.814 87.2383 116.705ZM80.9863 116.705C80.9863 117.303 81.0605 117.818 81.209 118.252C81.3613 118.682 81.5977 119.014 81.918 119.248C82.2383 119.479 82.6523 119.594 83.1602 119.594C83.6758 119.594 84.0938 119.479 84.4141 119.248C84.7344 119.014 84.9668 118.682 85.1113 118.252C85.2598 117.818 85.334 117.303 85.334 116.705C85.334 115.807 85.166 115.1 84.8301 114.584C84.4941 114.068 83.9414 113.811 83.1719 113.811C82.6602 113.811 82.2422 113.928 81.918 114.162C81.5977 114.393 81.3613 114.725 81.209 115.158C81.0605 115.588 80.9863 116.104 80.9863 116.705Z" fill="#696F8C"/>
<path d="M114.873 121H113.057V113.945H110.73V112.434H117.199V113.945H114.873V121ZM125.49 112.434V117.977C125.49 118.566 125.359 119.1 125.098 119.576C124.84 120.049 124.447 120.424 123.92 120.701C123.396 120.979 122.736 121.117 121.939 121.117C120.807 121.117 119.943 120.828 119.35 120.25C118.756 119.672 118.459 118.906 118.459 117.953V112.434H120.27V117.678C120.27 118.385 120.414 118.881 120.703 119.166C120.992 119.451 121.42 119.594 121.986 119.594C122.385 119.594 122.707 119.525 122.953 119.389C123.203 119.252 123.387 119.041 123.504 118.756C123.621 118.471 123.68 118.107 123.68 117.666V112.434H125.49Z" fill="#696F8C"/>
<path d="M161.938 112.434L159.758 121H157.689L156.529 116.5C156.506 116.414 156.475 116.283 156.436 116.107C156.396 115.932 156.355 115.74 156.312 115.533C156.27 115.322 156.23 115.125 156.195 114.941C156.164 114.754 156.143 114.605 156.131 114.496C156.119 114.605 156.096 114.752 156.061 114.936C156.029 115.119 155.992 115.314 155.949 115.521C155.91 115.729 155.871 115.922 155.832 116.102C155.793 116.281 155.762 116.418 155.738 116.512L154.584 121H152.521L150.336 112.434H152.123L153.219 117.109C153.25 117.25 153.285 117.418 153.324 117.613C153.367 117.809 153.408 118.014 153.447 118.229C153.49 118.439 153.527 118.645 153.559 118.844C153.594 119.039 153.619 119.209 153.635 119.354C153.654 119.205 153.68 119.033 153.711 118.838C153.742 118.639 153.775 118.438 153.811 118.234C153.85 118.027 153.889 117.836 153.928 117.66C153.967 117.484 154.002 117.342 154.033 117.232L155.281 112.434H156.998L158.246 117.232C158.273 117.338 158.305 117.48 158.34 117.66C158.379 117.836 158.418 118.027 158.457 118.234C158.496 118.441 158.531 118.645 158.562 118.844C158.598 119.039 158.623 119.209 158.639 119.354C158.666 119.158 158.703 118.922 158.75 118.645C158.801 118.363 158.854 118.084 158.908 117.807C158.967 117.529 159.018 117.297 159.061 117.109L160.15 112.434H161.938ZM167.949 121H163.016V112.434H167.949V113.922H164.832V115.803H167.732V117.291H164.832V119.5H167.949V121Z" fill="#696F8C"/>
<path d="M196.814 121H194.998V113.945H192.672V112.434H199.141V113.945H196.814V121ZM207.479 121H205.668V117.303H202.275V121H200.459V112.434H202.275V115.791H205.668V112.434H207.479V121Z" fill="#696F8C"/>
<path d="M237.111 121H235.324V112.434H240.234V113.922H237.111V116.131H240.018V117.613H237.111V121ZM244.406 112.434C245.184 112.434 245.824 112.527 246.328 112.715C246.836 112.902 247.213 113.186 247.459 113.564C247.705 113.943 247.828 114.422 247.828 115C247.828 115.391 247.754 115.732 247.605 116.025C247.457 116.318 247.262 116.566 247.02 116.77C246.777 116.973 246.516 117.139 246.234 117.268L248.754 121H246.738L244.693 117.713H243.727V121H241.91V112.434H244.406ZM244.277 113.922H243.727V116.236H244.312C244.914 116.236 245.344 116.137 245.602 115.938C245.863 115.734 245.994 115.438 245.994 115.047C245.994 114.641 245.854 114.352 245.572 114.18C245.295 114.008 244.863 113.922 244.277 113.922Z" fill="#696F8C"/>
<path d="M281.188 118.621C281.188 119.129 281.064 119.57 280.818 119.945C280.572 120.32 280.213 120.609 279.74 120.812C279.271 121.016 278.701 121.117 278.029 121.117C277.732 121.117 277.441 121.098 277.156 121.059C276.875 121.02 276.604 120.963 276.342 120.889C276.084 120.811 275.838 120.715 275.604 120.602V118.914C276.01 119.094 276.432 119.256 276.869 119.4C277.307 119.545 277.74 119.617 278.17 119.617C278.467 119.617 278.705 119.578 278.885 119.5C279.068 119.422 279.201 119.314 279.283 119.178C279.365 119.041 279.406 118.885 279.406 118.709C279.406 118.494 279.334 118.311 279.189 118.158C279.045 118.006 278.846 117.863 278.592 117.73C278.342 117.598 278.059 117.455 277.742 117.303C277.543 117.209 277.326 117.096 277.092 116.963C276.857 116.826 276.635 116.66 276.424 116.465C276.213 116.27 276.039 116.033 275.902 115.756C275.77 115.475 275.703 115.139 275.703 114.748C275.703 114.236 275.82 113.799 276.055 113.436C276.289 113.072 276.623 112.795 277.057 112.604C277.494 112.408 278.01 112.311 278.604 112.311C279.049 112.311 279.473 112.363 279.875 112.469C280.281 112.57 280.705 112.719 281.146 112.914L280.561 114.326C280.166 114.166 279.812 114.043 279.5 113.957C279.188 113.867 278.869 113.822 278.545 113.822C278.318 113.822 278.125 113.859 277.965 113.934C277.805 114.004 277.684 114.105 277.602 114.238C277.52 114.367 277.479 114.518 277.479 114.689C277.479 114.893 277.537 115.064 277.654 115.205C277.775 115.342 277.955 115.475 278.193 115.604C278.436 115.732 278.736 115.883 279.096 116.055C279.533 116.262 279.906 116.479 280.215 116.705C280.527 116.928 280.768 117.191 280.936 117.496C281.104 117.797 281.188 118.172 281.188 118.621ZM287.984 121L287.363 118.961H284.24L283.619 121H281.662L284.686 112.398H286.906L289.941 121H287.984ZM286.93 117.438L286.309 115.445C286.27 115.312 286.217 115.143 286.15 114.936C286.088 114.725 286.023 114.512 285.957 114.297C285.895 114.078 285.844 113.889 285.805 113.729C285.766 113.889 285.711 114.088 285.641 114.326C285.574 114.561 285.51 114.783 285.447 114.994C285.385 115.205 285.34 115.355 285.312 115.445L284.697 117.438H286.93Z" fill="#696F8C"/>
<g clip-path="url(#clip0_535_4657)">
<rect width="41" height="32" transform="translate(16 132)" fill="white"/>
<path d="M35.7275 153H29.1787V152.05L31.8516 149.336C32.3483 148.835 32.7653 148.388 33.1025 147.996C33.4443 147.604 33.7041 147.219 33.8818 146.841C34.0596 146.458 34.1484 146.039 34.1484 145.583C34.1484 145.018 33.9798 144.587 33.6426 144.291C33.3099 143.99 32.8701 143.84 32.3232 143.84C31.8447 143.84 31.4209 143.922 31.0518 144.086C30.6826 144.25 30.3044 144.482 29.917 144.783L29.3086 144.018C29.5729 143.794 29.86 143.596 30.1699 143.423C30.4844 143.25 30.8193 143.113 31.1748 143.013C31.5348 142.912 31.9176 142.862 32.3232 142.862C32.9385 142.862 33.4694 142.969 33.916 143.184C34.3626 143.398 34.7067 143.703 34.9482 144.1C35.1943 144.496 35.3174 144.968 35.3174 145.515C35.3174 146.043 35.2126 146.535 35.0029 146.991C34.7933 147.442 34.4993 147.891 34.1211 148.338C33.7428 148.78 33.3008 149.249 32.7949 149.746L30.6211 151.913V151.961H35.7275V153ZM37.293 148.728C37.293 148.126 37.334 147.538 37.416 146.964C37.5026 146.39 37.6462 145.856 37.8467 145.364C38.0472 144.868 38.3206 144.432 38.667 144.059C39.0133 143.685 39.444 143.393 39.959 143.184C40.4785 142.969 41.1006 142.862 41.8252 142.862C42.0303 142.862 42.2513 142.874 42.4883 142.896C42.7253 142.915 42.9212 142.947 43.0762 142.992V143.97C42.9076 143.91 42.7139 143.867 42.4951 143.84C42.2809 143.812 42.0645 143.799 41.8457 143.799C40.998 143.799 40.3304 143.983 39.8428 144.353C39.3597 144.722 39.0111 145.223 38.7969 145.856C38.5827 146.485 38.4596 147.194 38.4277 147.982H38.5029C38.6442 147.755 38.8242 147.549 39.043 147.367C39.2617 147.18 39.526 147.032 39.8359 146.923C40.1504 146.813 40.515 146.759 40.9297 146.759C41.513 146.759 42.0212 146.877 42.4541 147.114C42.8916 147.351 43.2288 147.695 43.4658 148.146C43.7074 148.598 43.8281 149.145 43.8281 149.787C43.8281 150.475 43.7005 151.07 43.4453 151.571C43.1901 152.073 42.8255 152.46 42.3516 152.733C41.8822 153.002 41.3216 153.137 40.6699 153.137C40.1823 153.137 39.7334 153.043 39.3232 152.856C38.9131 152.67 38.5553 152.392 38.25 152.022C37.9492 151.653 37.7145 151.195 37.5459 150.648C37.3773 150.097 37.293 149.457 37.293 148.728ZM40.6562 152.18C41.276 152.18 41.7728 151.981 42.1465 151.585C42.5202 151.188 42.707 150.589 42.707 149.787C42.707 149.131 42.5407 148.611 42.208 148.229C41.8753 147.846 41.374 147.654 40.7041 147.654C40.2484 147.654 39.8519 147.75 39.5146 147.941C39.1774 148.128 38.9154 148.365 38.7285 148.652C38.5417 148.939 38.4482 149.231 38.4482 149.527C38.4482 149.828 38.4915 150.133 38.5781 150.443C38.6693 150.753 38.806 151.04 38.9883 151.305C39.1706 151.569 39.4007 151.781 39.6787 151.94C39.9567 152.1 40.2826 152.18 40.6562 152.18Z" fill="#8F95B2"/>
</g>
<g clip-path="url(#clip1_535_4657)">
<rect width="41" height="32" transform="translate(16 164)" fill="white"/>
<path d="M39.7471 185H33.1777V184.022L35.8096 181.377C36.6117 180.566 37.1403 179.987 37.3955 179.641C37.6507 179.294 37.8421 178.957 37.9697 178.629C38.0973 178.301 38.1611 177.948 38.1611 177.569C38.1611 177.036 37.9993 176.615 37.6758 176.305C37.3522 175.99 36.9033 175.833 36.3291 175.833C35.9144 175.833 35.5202 175.901 35.1465 176.038C34.7773 176.175 34.3649 176.423 33.9092 176.783L33.3076 176.011C34.2282 175.245 35.2308 174.862 36.3154 174.862C37.2542 174.862 37.9902 175.104 38.5234 175.587C39.0566 176.065 39.3232 176.71 39.3232 177.521C39.3232 178.155 39.1455 178.782 38.79 179.401C38.4346 180.021 37.7692 180.805 36.7939 181.753L34.6064 183.893V183.947H39.7471V185Z" fill="#474D66"/>
</g>
<g clip-path="url(#clip2_535_4657)">
<rect width="41" height="32" transform="translate(16 196)" fill="white"/>
<path d="M39.7471 211.271C39.7471 215.182 38.234 217.137 35.208 217.137C34.6794 217.137 34.2601 217.091 33.9502 217V216.022C34.3148 216.141 34.7295 216.2 35.1943 216.2C36.2881 216.2 37.113 215.863 37.6689 215.188C38.2295 214.509 38.5348 213.47 38.585 212.071H38.5029C38.2523 212.45 37.9196 212.739 37.5049 212.939C37.0902 213.135 36.623 213.233 36.1035 213.233C35.2194 213.233 34.5176 212.969 33.998 212.44C33.4785 211.912 33.2188 211.174 33.2188 210.226C33.2188 209.187 33.5081 208.366 34.0869 207.765C34.6702 207.163 35.4359 206.862 36.3838 206.862C37.0628 206.862 37.6553 207.038 38.1611 207.389C38.6715 207.735 39.0635 208.243 39.3369 208.913C39.6104 209.578 39.7471 210.365 39.7471 211.271ZM36.3838 207.833C35.7321 207.833 35.2285 208.043 34.873 208.462C34.5176 208.881 34.3398 209.465 34.3398 210.212C34.3398 210.868 34.5039 211.385 34.832 211.764C35.1602 212.137 35.6592 212.324 36.3291 212.324C36.7438 212.324 37.1243 212.24 37.4707 212.071C37.8216 211.903 38.0973 211.673 38.2979 211.381C38.4984 211.089 38.5986 210.784 38.5986 210.465C38.5986 209.986 38.5052 209.544 38.3184 209.139C38.1315 208.733 37.8695 208.414 37.5322 208.182C37.1995 207.949 36.8167 207.833 36.3838 207.833Z" fill="#474D66"/>
</g>
<g clip-path="url(#clip3_535_4657)">
<rect width="41" height="32" transform="translate(57 196)" fill="white"/>
<path d="M74.376 217H73.2686V209.877C73.2686 209.285 73.2868 208.724 73.3232 208.195C73.2275 208.291 73.1204 208.391 73.002 208.496C72.8835 208.601 72.3411 209.045 71.375 209.829L70.7734 209.05L73.4189 207.006H74.376V217ZM84.8076 211.989C84.8076 213.716 84.5342 215.006 83.9873 215.858C83.445 216.711 82.6133 217.137 81.4922 217.137C80.4167 217.137 79.5986 216.701 79.0381 215.831C78.4775 214.956 78.1973 213.675 78.1973 211.989C78.1973 210.248 78.4684 208.956 79.0107 208.113C79.5531 207.27 80.3802 206.849 81.4922 206.849C82.5768 206.849 83.3994 207.288 83.96 208.168C84.5251 209.048 84.8076 210.321 84.8076 211.989ZM79.3457 211.989C79.3457 213.443 79.5166 214.503 79.8584 215.168C80.2002 215.829 80.7448 216.159 81.4922 216.159C82.2487 216.159 82.7956 215.824 83.1328 215.154C83.4746 214.48 83.6455 213.425 83.6455 211.989C83.6455 210.554 83.4746 209.503 83.1328 208.838C82.7956 208.168 82.2487 207.833 81.4922 207.833C80.7448 207.833 80.2002 208.163 79.8584 208.824C79.5166 209.48 79.3457 210.535 79.3457 211.989Z" fill="#474D66"/>
</g>
<g clip-path="url(#clip4_535_4657)">
<rect width="41" height="32" transform="translate(98 196)" fill="white"/>
<path d="M115.376 217H114.269V209.877C114.269 209.285 114.287 208.724 114.323 208.195C114.228 208.291 114.12 208.391 114.002 208.496C113.883 208.601 113.341 209.045 112.375 209.829L111.773 209.05L114.419 207.006H115.376V217ZM123.388 217H122.28V209.877C122.28 209.285 122.299 208.724 122.335 208.195C122.239 208.291 122.132 208.391 122.014 208.496C121.895 208.601 121.353 209.045 120.387 209.829L119.785 209.05L122.431 207.006H123.388V217Z" fill="#474D66"/>
</g>
<g clip-path="url(#clip5_535_4657)">
<rect width="41" height="32" transform="translate(139 196)" fill="white"/>
<path d="M156.376 217H155.269V209.877C155.269 209.285 155.287 208.724 155.323 208.195C155.228 208.291 155.12 208.391 155.002 208.496C154.883 208.601 154.341 209.045 153.375 209.829L152.773 209.05L155.419 207.006H156.376V217ZM166.753 217H160.184V216.022L162.815 213.377C163.618 212.566 164.146 211.987 164.401 211.641C164.657 211.294 164.848 210.957 164.976 210.629C165.103 210.301 165.167 209.948 165.167 209.569C165.167 209.036 165.005 208.615 164.682 208.305C164.358 207.99 163.909 207.833 163.335 207.833C162.92 207.833 162.526 207.901 162.152 208.038C161.783 208.175 161.371 208.423 160.915 208.783L160.313 208.011C161.234 207.245 162.237 206.862 163.321 206.862C164.26 206.862 164.996 207.104 165.529 207.587C166.062 208.065 166.329 208.71 166.329 209.521C166.329 210.155 166.151 210.782 165.796 211.401C165.44 212.021 164.775 212.805 163.8 213.753L161.612 215.893V215.947H166.753V217Z" fill="#474D66"/>
</g>
<g clip-path="url(#clip6_535_4657)">
<rect x="180" y="196" width="41" height="32" rx="3" fill="white"/>
<path d="M198.285 217H196.173V211.217L196.193 210.267L196.228 209.228C195.877 209.578 195.633 209.809 195.496 209.918L194.348 210.841L193.329 209.569L196.549 207.006H198.285V217ZM207.657 209.241C207.657 209.866 207.468 210.396 207.09 210.834C206.712 211.271 206.181 211.572 205.497 211.736V211.777C206.304 211.878 206.914 212.124 207.329 212.516C207.744 212.903 207.951 213.427 207.951 214.088C207.951 215.049 207.603 215.799 206.905 216.337C206.208 216.87 205.212 217.137 203.918 217.137C202.833 217.137 201.872 216.957 201.033 216.597V214.799C201.421 214.995 201.847 215.154 202.312 215.277C202.776 215.4 203.237 215.462 203.692 215.462C204.39 215.462 204.905 215.343 205.237 215.106C205.57 214.869 205.736 214.489 205.736 213.965C205.736 213.495 205.545 213.163 205.162 212.967C204.779 212.771 204.169 212.673 203.33 212.673H202.571V211.053H203.344C204.118 211.053 204.684 210.952 205.039 210.752C205.399 210.547 205.579 210.198 205.579 209.706C205.579 208.95 205.105 208.571 204.157 208.571C203.829 208.571 203.494 208.626 203.152 208.735C202.815 208.845 202.439 209.034 202.024 209.303L201.047 207.847C201.958 207.19 203.045 206.862 204.308 206.862C205.342 206.862 206.158 207.072 206.755 207.491C207.356 207.91 207.657 208.494 207.657 209.241Z" fill="#3366FF"/>
<line x1="184" y1="223" x2="217" y2="223" stroke="#3366FF" stroke-width="2"/>
</g>
<rect x="181" y="197" width="39" height="30" rx="2" stroke="#D6E0FF" stroke-width="2"/>
<g clip-path="url(#clip7_535_4657)">
<rect width="41" height="32" transform="translate(221 196)" fill="white"/>
<path d="M238.376 217H237.269V209.877C237.269 209.285 237.287 208.724 237.323 208.195C237.228 208.291 237.12 208.391 237.002 208.496C236.883 208.601 236.341 209.045 235.375 209.829L234.773 209.05L237.419 207.006H238.376V217ZM249.225 214.703H247.741V217H246.654V214.703H241.794V213.712L246.538 206.951H247.741V213.671H249.225V214.703ZM246.654 213.671V210.349C246.654 209.697 246.677 208.961 246.723 208.141H246.668C246.449 208.578 246.244 208.94 246.053 209.228L242.929 213.671H246.654Z" fill="#474D66"/>
</g>
<g clip-path="url(#clip8_535_4657)">
<rect width="41" height="32" transform="translate(262 196)" fill="white"/>
<path d="M279.376 217H278.269V209.877C278.269 209.285 278.287 208.724 278.323 208.195C278.228 208.291 278.12 208.391 278.002 208.496C277.883 208.601 277.341 209.045 276.375 209.829L275.773 209.05L278.419 207.006H279.376V217ZM286.308 210.896C287.36 210.896 288.188 211.158 288.789 211.682C289.395 212.201 289.698 212.914 289.698 213.821C289.698 214.856 289.368 215.667 288.707 216.255C288.051 216.843 287.144 217.137 285.986 217.137C284.861 217.137 284.002 216.957 283.409 216.597V215.503C283.728 215.708 284.125 215.87 284.599 215.988C285.073 216.102 285.54 216.159 286 216.159C286.802 216.159 287.424 215.97 287.866 215.592C288.313 215.214 288.536 214.667 288.536 213.951C288.536 212.557 287.682 211.859 285.973 211.859C285.54 211.859 284.961 211.925 284.236 212.058L283.648 211.682L284.024 207.006H288.994V208.052H284.995L284.742 211.053C285.266 210.948 285.788 210.896 286.308 210.896Z" fill="#474D66"/>
</g>
<g clip-path="url(#clip9_535_4657)">
<rect width="41" height="32" transform="translate(16 228)" fill="white"/>
<path d="M33.376 249H32.2686V241.877C32.2686 241.285 32.2868 240.724 32.3232 240.195C32.2275 240.291 32.1204 240.391 32.002 240.496C31.8835 240.601 31.3411 241.045 30.375 241.829L29.7734 241.05L32.4189 239.006H33.376V249ZM37.2998 244.728C37.2998 242.763 37.6803 241.296 38.4414 240.325C39.207 239.35 40.3372 238.862 41.832 238.862C42.347 238.862 42.7526 238.906 43.0488 238.992V239.97C42.6979 239.856 42.2969 239.799 41.8457 239.799C40.7747 239.799 39.9567 240.134 39.3916 240.804C38.8265 241.469 38.5166 242.517 38.4619 243.948H38.5439C39.0452 243.164 39.8382 242.772 40.9229 242.772C41.8206 242.772 42.527 243.044 43.042 243.586C43.5615 244.128 43.8213 244.864 43.8213 245.794C43.8213 246.833 43.5365 247.651 42.9668 248.248C42.4017 248.84 41.6361 249.137 40.6699 249.137C39.6354 249.137 38.8151 248.749 38.209 247.975C37.6029 247.195 37.2998 246.113 37.2998 244.728ZM40.6562 248.173C41.3034 248.173 41.8047 247.97 42.1602 247.564C42.5202 247.154 42.7002 246.564 42.7002 245.794C42.7002 245.133 42.5339 244.614 42.2012 244.235C41.8685 243.857 41.3717 243.668 40.7109 243.668C40.3008 243.668 39.9248 243.752 39.583 243.921C39.2412 244.09 38.9678 244.322 38.7627 244.618C38.5622 244.914 38.4619 245.222 38.4619 245.541C38.4619 246.01 38.5531 246.448 38.7354 246.854C38.9176 247.259 39.1751 247.58 39.5078 247.817C39.8451 248.054 40.2279 248.173 40.6562 248.173Z" fill="#474D66"/>
</g>
<g clip-path="url(#clip10_535_4657)">
<rect width="41" height="32" transform="translate(57 228)" fill="white"/>
<path d="M74.376 249H73.2686V241.877C73.2686 241.285 73.2868 240.724 73.3232 240.195C73.2275 240.291 73.1204 240.391 73.002 240.496C72.8835 240.601 72.3411 241.045 71.375 241.829L70.7734 241.05L73.4189 239.006H74.376V249ZM79.4482 249L83.5908 240.052H78.1426V239.006H84.7939V239.915L80.7061 249H79.4482Z" fill="#474D66"/>
</g>
<g clip-path="url(#clip11_535_4657)">
<rect width="41" height="32" transform="translate(98 228)" fill="white"/>
<path d="M115.376 249H114.269V241.877C114.269 241.285 114.287 240.724 114.323 240.195C114.228 240.291 114.12 240.391 114.002 240.496C113.883 240.601 113.341 241.045 112.375 241.829L111.773 241.05L114.419 239.006H115.376V249ZM122.492 238.862C123.404 238.862 124.126 239.074 124.659 239.498C125.192 239.922 125.459 240.507 125.459 241.255C125.459 241.747 125.306 242.196 125.001 242.602C124.696 243.007 124.208 243.376 123.538 243.709C124.349 244.096 124.926 244.504 125.268 244.933C125.609 245.356 125.78 245.849 125.78 246.409C125.78 247.239 125.491 247.902 124.912 248.398C124.333 248.891 123.54 249.137 122.533 249.137C121.467 249.137 120.646 248.904 120.072 248.439C119.498 247.97 119.211 247.307 119.211 246.45C119.211 245.306 119.908 244.415 121.303 243.777C120.674 243.422 120.223 243.039 119.949 242.629C119.676 242.214 119.539 241.752 119.539 241.241C119.539 240.517 119.806 239.94 120.339 239.512C120.877 239.079 121.594 238.862 122.492 238.862ZM120.332 246.478C120.332 247.024 120.521 247.451 120.899 247.756C121.282 248.061 121.818 248.214 122.506 248.214C123.185 248.214 123.714 248.054 124.092 247.735C124.47 247.416 124.659 246.979 124.659 246.423C124.659 245.981 124.481 245.589 124.126 245.247C123.771 244.901 123.151 244.566 122.267 244.242C121.588 244.534 121.095 244.857 120.79 245.213C120.485 245.564 120.332 245.985 120.332 246.478ZM122.479 239.785C121.909 239.785 121.462 239.922 121.139 240.195C120.815 240.469 120.653 240.833 120.653 241.289C120.653 241.708 120.788 242.068 121.057 242.369C121.326 242.67 121.822 242.971 122.547 243.271C123.199 242.998 123.659 242.704 123.928 242.39C124.201 242.075 124.338 241.708 124.338 241.289C124.338 240.829 124.172 240.464 123.839 240.195C123.511 239.922 123.057 239.785 122.479 239.785Z" fill="#474D66"/>
</g>
<g clip-path="url(#clip12_535_4657)">
<rect width="41" height="32" transform="translate(139 228)" fill="white"/>
<path d="M156.376 249H155.269V241.877C155.269 241.285 155.287 240.724 155.323 240.195C155.228 240.291 155.12 240.391 155.002 240.496C154.883 240.601 154.341 241.045 153.375 241.829L152.773 241.05L155.419 239.006H156.376V249ZM166.753 243.271C166.753 247.182 165.24 249.137 162.214 249.137C161.685 249.137 161.266 249.091 160.956 249V248.022C161.321 248.141 161.735 248.2 162.2 248.2C163.294 248.2 164.119 247.863 164.675 247.188C165.235 246.509 165.541 245.47 165.591 244.071H165.509C165.258 244.45 164.925 244.739 164.511 244.939C164.096 245.135 163.629 245.233 163.109 245.233C162.225 245.233 161.523 244.969 161.004 244.44C160.484 243.912 160.225 243.174 160.225 242.226C160.225 241.187 160.514 240.366 161.093 239.765C161.676 239.163 162.442 238.862 163.39 238.862C164.069 238.862 164.661 239.038 165.167 239.389C165.677 239.735 166.069 240.243 166.343 240.913C166.616 241.578 166.753 242.365 166.753 243.271ZM163.39 239.833C162.738 239.833 162.234 240.043 161.879 240.462C161.523 240.881 161.346 241.465 161.346 242.212C161.346 242.868 161.51 243.385 161.838 243.764C162.166 244.137 162.665 244.324 163.335 244.324C163.75 244.324 164.13 244.24 164.477 244.071C164.827 243.903 165.103 243.673 165.304 243.381C165.504 243.089 165.604 242.784 165.604 242.465C165.604 241.986 165.511 241.544 165.324 241.139C165.137 240.733 164.875 240.414 164.538 240.182C164.205 239.949 163.823 239.833 163.39 239.833Z" fill="#474D66"/>
</g>
<g clip-path="url(#clip13_535_4657)">
<rect width="41" height="32" transform="translate(180 228)" fill="white"/>
<path d="M199.741 249H193.172V248.022L195.804 245.377C196.606 244.566 197.134 243.987 197.39 243.641C197.645 243.294 197.836 242.957 197.964 242.629C198.091 242.301 198.155 241.948 198.155 241.569C198.155 241.036 197.993 240.615 197.67 240.305C197.346 239.99 196.897 239.833 196.323 239.833C195.909 239.833 195.514 239.901 195.141 240.038C194.771 240.175 194.359 240.423 193.903 240.783L193.302 240.011C194.222 239.245 195.225 238.862 196.31 238.862C197.248 238.862 197.984 239.104 198.518 239.587C199.051 240.065 199.317 240.71 199.317 241.521C199.317 242.155 199.14 242.782 198.784 243.401C198.429 244.021 197.763 244.805 196.788 245.753L194.601 247.893V247.947H199.741V249ZM207.808 243.989C207.808 245.716 207.534 247.006 206.987 247.858C206.445 248.711 205.613 249.137 204.492 249.137C203.417 249.137 202.599 248.701 202.038 247.831C201.478 246.956 201.197 245.675 201.197 243.989C201.197 242.248 201.468 240.956 202.011 240.113C202.553 239.27 203.38 238.849 204.492 238.849C205.577 238.849 206.399 239.288 206.96 240.168C207.525 241.048 207.808 242.321 207.808 243.989ZM202.346 243.989C202.346 245.443 202.517 246.503 202.858 247.168C203.2 247.829 203.745 248.159 204.492 248.159C205.249 248.159 205.796 247.824 206.133 247.154C206.475 246.48 206.646 245.425 206.646 243.989C206.646 242.554 206.475 241.503 206.133 240.838C205.796 240.168 205.249 239.833 204.492 239.833C203.745 239.833 203.2 240.163 202.858 240.824C202.517 241.48 202.346 242.535 202.346 243.989Z" fill="#474D66"/>
</g>
<g clip-path="url(#clip14_535_4657)">
<rect width="41" height="32" transform="translate(221 228)" fill="white"/>
<path d="M240.741 249H234.172V248.022L236.804 245.377C237.606 244.566 238.134 243.987 238.39 243.641C238.645 243.294 238.836 242.957 238.964 242.629C239.091 242.301 239.155 241.948 239.155 241.569C239.155 241.036 238.993 240.615 238.67 240.305C238.346 239.99 237.897 239.833 237.323 239.833C236.909 239.833 236.514 239.901 236.141 240.038C235.771 240.175 235.359 240.423 234.903 240.783L234.302 240.011C235.222 239.245 236.225 238.862 237.31 238.862C238.248 238.862 238.984 239.104 239.518 239.587C240.051 240.065 240.317 240.71 240.317 241.521C240.317 242.155 240.14 242.782 239.784 243.401C239.429 244.021 238.763 244.805 237.788 245.753L235.601 247.893V247.947H240.741V249ZM246.388 249H245.28V241.877C245.28 241.285 245.299 240.724 245.335 240.195C245.239 240.291 245.132 240.391 245.014 240.496C244.895 240.601 244.353 241.045 243.387 241.829L242.785 241.05L245.431 239.006H246.388V249Z" fill="#474D66"/>
</g>
<g clip-path="url(#clip15_535_4657)">
<rect width="41" height="32" transform="translate(262 228)" fill="white"/>
<path d="M281.741 249H275.172V248.022L277.804 245.377C278.606 244.566 279.134 243.987 279.39 243.641C279.645 243.294 279.836 242.957 279.964 242.629C280.091 242.301 280.155 241.948 280.155 241.569C280.155 241.036 279.993 240.615 279.67 240.305C279.346 239.99 278.897 239.833 278.323 239.833C277.909 239.833 277.514 239.901 277.141 240.038C276.771 240.175 276.359 240.423 275.903 240.783L275.302 240.011C276.222 239.245 277.225 238.862 278.31 238.862C279.248 238.862 279.984 239.104 280.518 239.587C281.051 240.065 281.317 240.71 281.317 241.521C281.317 242.155 281.14 242.782 280.784 243.401C280.429 244.021 279.763 244.805 278.788 245.753L276.601 247.893V247.947H281.741V249ZM289.753 249H283.184V248.022L285.815 245.377C286.618 244.566 287.146 243.987 287.401 243.641C287.657 243.294 287.848 242.957 287.976 242.629C288.103 242.301 288.167 241.948 288.167 241.569C288.167 241.036 288.005 240.615 287.682 240.305C287.358 239.99 286.909 239.833 286.335 239.833C285.92 239.833 285.526 239.901 285.152 240.038C284.783 240.175 284.371 240.423 283.915 240.783L283.313 240.011C284.234 239.245 285.237 238.862 286.321 238.862C287.26 238.862 287.996 239.104 288.529 239.587C289.062 240.065 289.329 240.71 289.329 241.521C289.329 242.155 289.151 242.782 288.796 243.401C288.44 244.021 287.775 244.805 286.8 245.753L284.612 247.893V247.947H289.753V249Z" fill="#474D66"/>
</g>
<g clip-path="url(#clip16_535_4657)">
<rect width="41" height="32" transform="translate(16 260)" fill="white"/>
<path d="M35.7412 281H29.1719V280.022L31.8037 277.377C32.6058 276.566 33.1344 275.987 33.3896 275.641C33.6449 275.294 33.8363 274.957 33.9639 274.629C34.0915 274.301 34.1553 273.948 34.1553 273.569C34.1553 273.036 33.9935 272.615 33.6699 272.305C33.3464 271.99 32.8975 271.833 32.3232 271.833C31.9085 271.833 31.5143 271.901 31.1406 272.038C30.7715 272.175 30.359 272.423 29.9033 272.783L29.3018 272.011C30.2223 271.245 31.2249 270.862 32.3096 270.862C33.2484 270.862 33.9844 271.104 34.5176 271.587C35.0508 272.065 35.3174 272.71 35.3174 273.521C35.3174 274.155 35.1396 274.782 34.7842 275.401C34.4287 276.021 33.7633 276.805 32.7881 277.753L30.6006 279.893V279.947H35.7412V281ZM43.377 273.357C43.377 273.995 43.1969 274.517 42.8369 274.923C42.4814 275.328 41.9756 275.6 41.3193 275.736V275.791C42.1214 275.891 42.7161 276.146 43.1035 276.557C43.4909 276.967 43.6846 277.505 43.6846 278.17C43.6846 279.122 43.3542 279.856 42.6934 280.371C42.0326 280.882 41.0938 281.137 39.877 281.137C39.3483 281.137 38.863 281.096 38.4209 281.014C37.9834 280.936 37.5573 280.797 37.1426 280.597V279.517C37.5755 279.731 38.0358 279.895 38.5234 280.009C39.0156 280.118 39.4805 280.173 39.918 280.173C41.6452 280.173 42.5088 279.496 42.5088 278.143C42.5088 276.93 41.5563 276.324 39.6514 276.324H38.667V275.347H39.665C40.4443 275.347 41.0618 275.176 41.5176 274.834C41.9733 274.488 42.2012 274.009 42.2012 273.398C42.2012 272.911 42.0326 272.528 41.6953 272.25C41.3626 271.972 40.9092 271.833 40.335 271.833C39.8975 271.833 39.485 271.892 39.0977 272.011C38.7103 272.129 38.2682 272.348 37.7715 272.667L37.1973 271.901C37.6074 271.578 38.0791 271.325 38.6123 271.143C39.1501 270.956 39.7152 270.862 40.3076 270.862C41.2783 270.862 42.0326 271.086 42.5703 271.532C43.1081 271.974 43.377 272.583 43.377 273.357Z" fill="#474D66"/>
</g>
<g clip-path="url(#clip17_535_4657)">
<rect width="41" height="32" transform="translate(57 260)" fill="white"/>
<path d="M76.7412 281H70.1719V280.022L72.8037 277.377C73.6058 276.566 74.1344 275.987 74.3896 275.641C74.6449 275.294 74.8363 274.957 74.9639 274.629C75.0915 274.301 75.1553 273.948 75.1553 273.569C75.1553 273.036 74.9935 272.615 74.6699 272.305C74.3464 271.99 73.8975 271.833 73.3232 271.833C72.9085 271.833 72.5143 271.901 72.1406 272.038C71.7715 272.175 71.359 272.423 70.9033 272.783L70.3018 272.011C71.2223 271.245 72.2249 270.862 73.3096 270.862C74.2484 270.862 74.9844 271.104 75.5176 271.587C76.0508 272.065 76.3174 272.71 76.3174 273.521C76.3174 274.155 76.1396 274.782 75.7842 275.401C75.4287 276.021 74.7633 276.805 73.7881 277.753L71.6006 279.893V279.947H76.7412V281ZM85.2246 278.703H83.7412V281H82.6543V278.703H77.7939V277.712L82.5381 270.951H83.7412V277.671H85.2246V278.703ZM82.6543 277.671V274.349C82.6543 273.697 82.6771 272.961 82.7227 272.141H82.668C82.4492 272.578 82.2441 272.94 82.0527 273.228L78.9287 277.671H82.6543Z" fill="#474D66"/>
</g>
<g clip-path="url(#clip18_535_4657)">
<rect width="41" height="32" transform="translate(98 260)" fill="white"/>
<path d="M117.741 281H111.172V280.022L113.804 277.377C114.606 276.566 115.134 275.987 115.39 275.641C115.645 275.294 115.836 274.957 115.964 274.629C116.091 274.301 116.155 273.948 116.155 273.569C116.155 273.036 115.993 272.615 115.67 272.305C115.346 271.99 114.897 271.833 114.323 271.833C113.909 271.833 113.514 271.901 113.141 272.038C112.771 272.175 112.359 272.423 111.903 272.783L111.302 272.011C112.222 271.245 113.225 270.862 114.31 270.862C115.248 270.862 115.984 271.104 116.518 271.587C117.051 272.065 117.317 272.71 117.317 273.521C117.317 274.155 117.14 274.782 116.784 275.401C116.429 276.021 115.763 276.805 114.788 277.753L112.601 279.893V279.947H117.741V281ZM122.308 274.896C123.36 274.896 124.188 275.158 124.789 275.682C125.395 276.201 125.698 276.914 125.698 277.821C125.698 278.856 125.368 279.667 124.707 280.255C124.051 280.843 123.144 281.137 121.986 281.137C120.861 281.137 120.002 280.957 119.409 280.597V279.503C119.728 279.708 120.125 279.87 120.599 279.988C121.073 280.102 121.54 280.159 122 280.159C122.802 280.159 123.424 279.97 123.866 279.592C124.313 279.214 124.536 278.667 124.536 277.951C124.536 276.557 123.682 275.859 121.973 275.859C121.54 275.859 120.961 275.925 120.236 276.058L119.648 275.682L120.024 271.006H124.994V272.052H120.995L120.742 275.053C121.266 274.948 121.788 274.896 122.308 274.896Z" fill="#474D66"/>
</g>
<g clip-path="url(#clip19_535_4657)">
<rect width="41" height="32" transform="translate(139 260)" fill="white"/>
<path d="M158.741 281H152.172V280.022L154.804 277.377C155.606 276.566 156.134 275.987 156.39 275.641C156.645 275.294 156.836 274.957 156.964 274.629C157.091 274.301 157.155 273.948 157.155 273.569C157.155 273.036 156.993 272.615 156.67 272.305C156.346 271.99 155.897 271.833 155.323 271.833C154.909 271.833 154.514 271.901 154.141 272.038C153.771 272.175 153.359 272.423 152.903 272.783L152.302 272.011C153.222 271.245 154.225 270.862 155.31 270.862C156.248 270.862 156.984 271.104 157.518 271.587C158.051 272.065 158.317 272.71 158.317 273.521C158.317 274.155 158.14 274.782 157.784 275.401C157.429 276.021 156.763 276.805 155.788 277.753L153.601 279.893V279.947H158.741V281ZM160.3 276.728C160.3 274.763 160.68 273.296 161.441 272.325C162.207 271.35 163.337 270.862 164.832 270.862C165.347 270.862 165.753 270.906 166.049 270.992V271.97C165.698 271.856 165.297 271.799 164.846 271.799C163.775 271.799 162.957 272.134 162.392 272.804C161.826 273.469 161.517 274.517 161.462 275.948H161.544C162.045 275.164 162.838 274.772 163.923 274.772C164.821 274.772 165.527 275.044 166.042 275.586C166.562 276.128 166.821 276.864 166.821 277.794C166.821 278.833 166.536 279.651 165.967 280.248C165.402 280.84 164.636 281.137 163.67 281.137C162.635 281.137 161.815 280.749 161.209 279.975C160.603 279.195 160.3 278.113 160.3 276.728ZM163.656 280.173C164.303 280.173 164.805 279.97 165.16 279.564C165.52 279.154 165.7 278.564 165.7 277.794C165.7 277.133 165.534 276.614 165.201 276.235C164.868 275.857 164.372 275.668 163.711 275.668C163.301 275.668 162.925 275.752 162.583 275.921C162.241 276.09 161.968 276.322 161.763 276.618C161.562 276.914 161.462 277.222 161.462 277.541C161.462 278.01 161.553 278.448 161.735 278.854C161.918 279.259 162.175 279.58 162.508 279.817C162.845 280.054 163.228 280.173 163.656 280.173Z" fill="#474D66"/>
</g>
<g clip-path="url(#clip20_535_4657)">
<rect width="41" height="32" transform="translate(180 260)" fill="white"/>
<path d="M199.741 281H193.172V280.022L195.804 277.377C196.606 276.566 197.134 275.987 197.39 275.641C197.645 275.294 197.836 274.957 197.964 274.629C198.091 274.301 198.155 273.948 198.155 273.569C198.155 273.036 197.993 272.615 197.67 272.305C197.346 271.99 196.897 271.833 196.323 271.833C195.909 271.833 195.514 271.901 195.141 272.038C194.771 272.175 194.359 272.423 193.903 272.783L193.302 272.011C194.222 271.245 195.225 270.862 196.31 270.862C197.248 270.862 197.984 271.104 198.518 271.587C199.051 272.065 199.317 272.71 199.317 273.521C199.317 274.155 199.14 274.782 198.784 275.401C198.429 276.021 197.763 276.805 196.788 277.753L194.601 279.893V279.947H199.741V281ZM202.448 281L206.591 272.052H201.143V271.006H207.794V271.915L203.706 281H202.448Z" fill="#474D66"/>
</g>
<g clip-path="url(#clip21_535_4657)">
<rect width="41" height="32" transform="translate(221 260)" fill="white"/>
<path d="M240.741 281H234.172V280.022L236.804 277.377C237.606 276.566 238.134 275.987 238.39 275.641C238.645 275.294 238.836 274.957 238.964 274.629C239.091 274.301 239.155 273.948 239.155 273.569C239.155 273.036 238.993 272.615 238.67 272.305C238.346 271.99 237.897 271.833 237.323 271.833C236.909 271.833 236.514 271.901 236.141 272.038C235.771 272.175 235.359 272.423 234.903 272.783L234.302 272.011C235.222 271.245 236.225 270.862 237.31 270.862C238.248 270.862 238.984 271.104 239.518 271.587C240.051 272.065 240.317 272.71 240.317 273.521C240.317 274.155 240.14 274.782 239.784 275.401C239.429 276.021 238.763 276.805 237.788 277.753L235.601 279.893V279.947H240.741V281ZM245.492 270.862C246.404 270.862 247.126 271.074 247.659 271.498C248.192 271.922 248.459 272.507 248.459 273.255C248.459 273.747 248.306 274.196 248.001 274.602C247.696 275.007 247.208 275.376 246.538 275.709C247.349 276.096 247.926 276.504 248.268 276.933C248.609 277.356 248.78 277.849 248.78 278.409C248.78 279.239 248.491 279.902 247.912 280.398C247.333 280.891 246.54 281.137 245.533 281.137C244.467 281.137 243.646 280.904 243.072 280.439C242.498 279.97 242.211 279.307 242.211 278.45C242.211 277.306 242.908 276.415 244.303 275.777C243.674 275.422 243.223 275.039 242.949 274.629C242.676 274.214 242.539 273.752 242.539 273.241C242.539 272.517 242.806 271.94 243.339 271.512C243.877 271.079 244.594 270.862 245.492 270.862ZM243.332 278.478C243.332 279.024 243.521 279.451 243.899 279.756C244.282 280.061 244.818 280.214 245.506 280.214C246.185 280.214 246.714 280.054 247.092 279.735C247.47 279.416 247.659 278.979 247.659 278.423C247.659 277.981 247.481 277.589 247.126 277.247C246.771 276.901 246.151 276.566 245.267 276.242C244.588 276.534 244.095 276.857 243.79 277.213C243.485 277.564 243.332 277.985 243.332 278.478ZM245.479 271.785C244.909 271.785 244.462 271.922 244.139 272.195C243.815 272.469 243.653 272.833 243.653 273.289C243.653 273.708 243.788 274.068 244.057 274.369C244.326 274.67 244.822 274.971 245.547 275.271C246.199 274.998 246.659 274.704 246.928 274.39C247.201 274.075 247.338 273.708 247.338 273.289C247.338 272.829 247.172 272.464 246.839 272.195C246.511 271.922 246.057 271.785 245.479 271.785Z" fill="#474D66"/>
</g>
<g clip-path="url(#clip22_535_4657)">
<rect width="41" height="32" transform="translate(262 260)" fill="white"/>
<path d="M281.741 281H275.172V280.022L277.804 277.377C278.606 276.566 279.134 275.987 279.39 275.641C279.645 275.294 279.836 274.957 279.964 274.629C280.091 274.301 280.155 273.948 280.155 273.569C280.155 273.036 279.993 272.615 279.67 272.305C279.346 271.99 278.897 271.833 278.323 271.833C277.909 271.833 277.514 271.901 277.141 272.038C276.771 272.175 276.359 272.423 275.903 272.783L275.302 272.011C276.222 271.245 277.225 270.862 278.31 270.862C279.248 270.862 279.984 271.104 280.518 271.587C281.051 272.065 281.317 272.71 281.317 273.521C281.317 274.155 281.14 274.782 280.784 275.401C280.429 276.021 279.763 276.805 278.788 277.753L276.601 279.893V279.947H281.741V281ZM289.753 275.271C289.753 279.182 288.24 281.137 285.214 281.137C284.685 281.137 284.266 281.091 283.956 281V280.022C284.321 280.141 284.735 280.2 285.2 280.2C286.294 280.2 287.119 279.863 287.675 279.188C288.235 278.509 288.541 277.47 288.591 276.071H288.509C288.258 276.45 287.925 276.739 287.511 276.939C287.096 277.135 286.629 277.233 286.109 277.233C285.225 277.233 284.523 276.969 284.004 276.44C283.484 275.912 283.225 275.174 283.225 274.226C283.225 273.187 283.514 272.366 284.093 271.765C284.676 271.163 285.442 270.862 286.39 270.862C287.069 270.862 287.661 271.038 288.167 271.389C288.677 271.735 289.069 272.243 289.343 272.913C289.616 273.578 289.753 274.365 289.753 275.271ZM286.39 271.833C285.738 271.833 285.234 272.043 284.879 272.462C284.523 272.881 284.346 273.465 284.346 274.212C284.346 274.868 284.51 275.385 284.838 275.764C285.166 276.137 285.665 276.324 286.335 276.324C286.75 276.324 287.13 276.24 287.477 276.071C287.827 275.903 288.103 275.673 288.304 275.381C288.504 275.089 288.604 274.784 288.604 274.465C288.604 273.986 288.511 273.544 288.324 273.139C288.137 272.733 287.875 272.414 287.538 272.182C287.205 271.949 286.823 271.833 286.39 271.833Z" fill="#474D66"/>
</g>
<g clip-path="url(#clip23_535_4657)">
<rect width="41" height="32" transform="translate(16 292)" fill="white"/>
<path d="M37.4092 313H36.3018V305.918C36.3018 305.649 36.3018 305.419 36.3018 305.228C36.3063 305.032 36.3109 304.854 36.3154 304.694C36.3245 304.53 36.3359 304.364 36.3496 304.195C36.2083 304.341 36.0762 304.466 35.9531 304.571C35.8301 304.672 35.6774 304.797 35.4951 304.947L34.3535 305.863L33.7588 305.091L36.4658 303.006H37.4092V313Z" fill="#8F95B2"/>
</g>
<g clip-path="url(#clip24_535_4657)">
<rect width="41" height="32" transform="translate(57 292)" fill="white"/>
<path d="M80.7334 313H74.1846V312.05L76.8574 309.336C77.3542 308.835 77.7712 308.388 78.1084 307.996C78.4502 307.604 78.71 307.219 78.8877 306.841C79.0654 306.458 79.1543 306.039 79.1543 305.583C79.1543 305.018 78.9857 304.587 78.6484 304.291C78.3158 303.99 77.876 303.84 77.3291 303.84C76.8506 303.84 76.4268 303.922 76.0576 304.086C75.6885 304.25 75.3102 304.482 74.9229 304.783L74.3145 304.018C74.5788 303.794 74.8659 303.596 75.1758 303.423C75.4902 303.25 75.8252 303.113 76.1807 303.013C76.5407 302.912 76.9235 302.862 77.3291 302.862C77.9443 302.862 78.4753 302.969 78.9219 303.184C79.3685 303.398 79.7126 303.703 79.9541 304.1C80.2002 304.496 80.3232 304.968 80.3232 305.515C80.3232 306.043 80.2184 306.535 80.0088 306.991C79.7992 307.442 79.5052 307.891 79.127 308.338C78.7487 308.78 78.3066 309.249 77.8008 309.746L75.627 311.913V311.961H80.7334V313Z" fill="#8F95B2"/>
</g>
<g clip-path="url(#clip25_535_4657)">
<rect width="41" height="32" transform="translate(98 292)" fill="white"/>
<path d="M121.364 305.337C121.364 305.784 121.278 306.171 121.104 306.499C120.931 306.827 120.69 307.096 120.38 307.306C120.07 307.511 119.705 307.654 119.286 307.736V307.791C120.079 307.891 120.674 308.146 121.07 308.557C121.471 308.967 121.672 309.505 121.672 310.17C121.672 310.749 121.535 311.261 121.262 311.708C120.993 312.155 120.578 312.506 120.018 312.761C119.462 313.011 118.748 313.137 117.878 313.137C117.349 313.137 116.859 313.093 116.408 313.007C115.962 312.925 115.533 312.786 115.123 312.59V311.523C115.538 311.729 115.989 311.89 116.477 312.009C116.964 312.123 117.436 312.18 117.892 312.18C118.803 312.18 119.462 312 119.867 311.64C120.273 311.275 120.476 310.778 120.476 310.149C120.476 309.716 120.362 309.368 120.134 309.104C119.91 308.835 119.587 308.639 119.163 308.516C118.744 308.388 118.238 308.324 117.646 308.324H116.647V307.354H117.652C118.195 307.354 118.655 307.274 119.033 307.114C119.411 306.955 119.699 306.731 119.895 306.444C120.095 306.153 120.195 305.809 120.195 305.412C120.195 304.906 120.027 304.517 119.689 304.243C119.352 303.965 118.894 303.826 118.315 303.826C117.96 303.826 117.636 303.863 117.345 303.936C117.053 304.008 116.78 304.109 116.524 304.236C116.269 304.364 116.014 304.512 115.759 304.681L115.185 303.901C115.549 303.619 115.993 303.375 116.518 303.17C117.042 302.965 117.636 302.862 118.302 302.862C119.323 302.862 120.088 303.095 120.599 303.56C121.109 304.024 121.364 304.617 121.364 305.337Z" fill="#8F95B2"/>
</g>
<g clip-path="url(#clip26_535_4657)">
<rect width="41" height="32" transform="translate(139 292)" fill="white"/>
<path d="M163.232 310.683H161.735V313H160.628V310.683H155.795V309.726L160.553 302.951H161.735V309.657H163.232V310.683ZM160.628 309.657V306.39C160.628 306.139 160.63 305.913 160.635 305.713C160.639 305.508 160.646 305.319 160.655 305.146C160.664 304.968 160.671 304.799 160.676 304.64C160.685 304.48 160.692 304.323 160.696 304.168H160.642C160.555 304.35 160.455 304.544 160.341 304.749C160.231 304.95 160.12 305.13 160.006 305.289L156.923 309.657H160.628Z" fill="#8F95B2"/>
</g>
<g clip-path="url(#clip27_535_4657)">
<rect width="41" height="32" transform="translate(180 292)" fill="white"/>
<path d="M200.343 306.889C201.022 306.889 201.612 307.005 202.113 307.237C202.615 307.465 203.002 307.798 203.275 308.235C203.553 308.673 203.692 309.204 203.692 309.828C203.692 310.512 203.544 311.102 203.248 311.599C202.952 312.091 202.526 312.471 201.97 312.74C201.414 313.005 200.748 313.137 199.974 313.137C199.454 313.137 198.971 313.091 198.524 313C198.078 312.909 197.702 312.772 197.396 312.59V311.51C197.729 311.71 198.132 311.87 198.606 311.988C199.08 312.107 199.541 312.166 199.987 312.166C200.493 312.166 200.935 312.086 201.313 311.927C201.696 311.763 201.993 311.517 202.202 311.188C202.416 310.856 202.523 310.439 202.523 309.938C202.523 309.272 202.318 308.759 201.908 308.399C201.503 308.035 200.86 307.853 199.98 307.853C199.698 307.853 199.388 307.875 199.051 307.921C198.714 307.966 198.436 308.017 198.217 308.071L197.643 307.695L198.025 303.006H202.995V304.045H198.996L198.743 307.06C198.916 307.023 199.14 306.987 199.413 306.95C199.687 306.909 199.996 306.889 200.343 306.889Z" fill="#8F95B2"/>
</g>
<g clip-path="url(#clip28_535_4657)">
<rect width="41" height="32" transform="translate(221 292)" fill="white"/>
<path d="M238.287 308.728C238.287 308.126 238.328 307.538 238.41 306.964C238.497 306.39 238.64 305.856 238.841 305.364C239.041 304.868 239.315 304.432 239.661 304.059C240.007 303.685 240.438 303.393 240.953 303.184C241.473 302.969 242.095 302.862 242.819 302.862C243.024 302.862 243.245 302.874 243.482 302.896C243.719 302.915 243.915 302.947 244.07 302.992V303.97C243.902 303.91 243.708 303.867 243.489 303.84C243.275 303.812 243.059 303.799 242.84 303.799C241.992 303.799 241.325 303.983 240.837 304.353C240.354 304.722 240.005 305.223 239.791 305.856C239.577 306.485 239.454 307.194 239.422 307.982H239.497C239.638 307.755 239.818 307.549 240.037 307.367C240.256 307.18 240.52 307.032 240.83 306.923C241.145 306.813 241.509 306.759 241.924 306.759C242.507 306.759 243.015 306.877 243.448 307.114C243.886 307.351 244.223 307.695 244.46 308.146C244.701 308.598 244.822 309.145 244.822 309.787C244.822 310.475 244.695 311.07 244.439 311.571C244.184 312.073 243.82 312.46 243.346 312.733C242.876 313.002 242.316 313.137 241.664 313.137C241.176 313.137 240.728 313.043 240.317 312.856C239.907 312.67 239.549 312.392 239.244 312.022C238.943 311.653 238.709 311.195 238.54 310.648C238.371 310.097 238.287 309.457 238.287 308.728ZM241.65 312.18C242.27 312.18 242.767 311.981 243.141 311.585C243.514 311.188 243.701 310.589 243.701 309.787C243.701 309.131 243.535 308.611 243.202 308.229C242.869 307.846 242.368 307.654 241.698 307.654C241.243 307.654 240.846 307.75 240.509 307.941C240.172 308.128 239.91 308.365 239.723 308.652C239.536 308.939 239.442 309.231 239.442 309.527C239.442 309.828 239.486 310.133 239.572 310.443C239.663 310.753 239.8 311.04 239.982 311.305C240.165 311.569 240.395 311.781 240.673 311.94C240.951 312.1 241.277 312.18 241.65 312.18Z" fill="#8F95B2"/>
</g>
<g clip-path="url(#clip29_535_4657)">
<rect width="41" height="32" transform="translate(262 292)" fill="white"/>
<path d="M280.477 313L284.578 304.045H279.13V303.006H285.795V303.881L281.721 313H280.477Z" fill="#8F95B2"/>
</g>
<g clip-path="url(#clip30_535_4657)">
<rect width="41" height="32" transform="translate(57 164)" fill="white"/>
<path d="M80.3711 177.357C80.3711 177.995 80.1911 178.517 79.8311 178.923C79.4756 179.328 78.9697 179.6 78.3135 179.736V179.791C79.1156 179.891 79.7103 180.146 80.0977 180.557C80.485 180.967 80.6787 181.505 80.6787 182.17C80.6787 183.122 80.3483 183.856 79.6875 184.371C79.0267 184.882 78.0879 185.137 76.8711 185.137C76.3424 185.137 75.8571 185.096 75.415 185.014C74.9775 184.936 74.5514 184.797 74.1367 184.597V183.517C74.5697 183.731 75.0299 183.895 75.5176 184.009C76.0098 184.118 76.4746 184.173 76.9121 184.173C78.6393 184.173 79.5029 183.496 79.5029 182.143C79.5029 180.93 78.5505 180.324 76.6455 180.324H75.6611V179.347H76.6592C77.4385 179.347 78.056 179.176 78.5117 178.834C78.9674 178.488 79.1953 178.009 79.1953 177.398C79.1953 176.911 79.0267 176.528 78.6895 176.25C78.3568 175.972 77.9033 175.833 77.3291 175.833C76.8916 175.833 76.4792 175.892 76.0918 176.011C75.7044 176.129 75.2624 176.348 74.7656 176.667L74.1914 175.901C74.6016 175.578 75.0732 175.325 75.6064 175.143C76.1442 174.956 76.7093 174.862 77.3018 174.862C78.2725 174.862 79.0267 175.086 79.5645 175.532C80.1022 175.974 80.3711 176.583 80.3711 177.357Z" fill="#474D66"/>
</g>
<g clip-path="url(#clip31_535_4657)">
<rect width="41" height="32" transform="translate(98 164)" fill="white"/>
<path d="M122.219 182.703H120.735V185H119.648V182.703H114.788V181.712L119.532 174.951H120.735V181.671H122.219V182.703ZM119.648 181.671V178.349C119.648 177.697 119.671 176.961 119.717 176.141H119.662C119.443 176.578 119.238 176.94 119.047 177.228L115.923 181.671H119.648Z" fill="#474D66"/>
</g>
<g clip-path="url(#clip32_535_4657)">
<rect width="41" height="32" transform="translate(139 164)" fill="white"/>
<path d="M159.302 178.896C160.354 178.896 161.182 179.158 161.783 179.682C162.389 180.201 162.692 180.914 162.692 181.821C162.692 182.856 162.362 183.667 161.701 184.255C161.045 184.843 160.138 185.137 158.98 185.137C157.855 185.137 156.996 184.957 156.403 184.597V183.503C156.722 183.708 157.119 183.87 157.593 183.988C158.067 184.102 158.534 184.159 158.994 184.159C159.796 184.159 160.418 183.97 160.86 183.592C161.307 183.214 161.53 182.667 161.53 181.951C161.53 180.557 160.676 179.859 158.967 179.859C158.534 179.859 157.955 179.925 157.23 180.058L156.643 179.682L157.019 175.006H161.988V176.052H157.989L157.736 179.053C158.26 178.948 158.782 178.896 159.302 178.896Z" fill="#474D66"/>
</g>
<g clip-path="url(#clip33_535_4657)">
<rect width="41" height="32" transform="translate(180 164)" fill="white"/>
<path d="M197.294 180.728C197.294 178.763 197.674 177.296 198.436 176.325C199.201 175.35 200.331 174.862 201.826 174.862C202.341 174.862 202.747 174.906 203.043 174.992V175.97C202.692 175.856 202.291 175.799 201.84 175.799C200.769 175.799 199.951 176.134 199.386 176.804C198.821 177.469 198.511 178.517 198.456 179.948H198.538C199.039 179.164 199.832 178.772 200.917 178.772C201.815 178.772 202.521 179.044 203.036 179.586C203.556 180.128 203.815 180.864 203.815 181.794C203.815 182.833 203.531 183.651 202.961 184.248C202.396 184.84 201.63 185.137 200.664 185.137C199.63 185.137 198.809 184.749 198.203 183.975C197.597 183.195 197.294 182.113 197.294 180.728ZM200.65 184.173C201.298 184.173 201.799 183.97 202.154 183.564C202.514 183.154 202.694 182.564 202.694 181.794C202.694 181.133 202.528 180.614 202.195 180.235C201.863 179.857 201.366 179.668 200.705 179.668C200.295 179.668 199.919 179.752 199.577 179.921C199.235 180.09 198.962 180.322 198.757 180.618C198.556 180.914 198.456 181.222 198.456 181.541C198.456 182.01 198.547 182.448 198.729 182.854C198.912 183.259 199.169 183.58 199.502 183.817C199.839 184.054 200.222 184.173 200.65 184.173Z" fill="#474D66"/>
</g>
<g clip-path="url(#clip34_535_4657)">
<rect width="41" height="32" transform="translate(221 164)" fill="white"/>
<path d="M239.442 185L243.585 176.052H238.137V175.006H244.788V175.915L240.7 185H239.442Z" fill="#474D66"/>
</g>
<g clip-path="url(#clip35_535_4657)">
<rect width="41" height="32" transform="translate(262 164)" fill="white"/>
<path d="M282.486 174.862C283.398 174.862 284.12 175.074 284.653 175.498C285.187 175.922 285.453 176.507 285.453 177.255C285.453 177.747 285.3 178.196 284.995 178.602C284.69 179.007 284.202 179.376 283.532 179.709C284.343 180.096 284.92 180.504 285.262 180.933C285.604 181.356 285.774 181.849 285.774 182.409C285.774 183.239 285.485 183.902 284.906 184.398C284.327 184.891 283.535 185.137 282.527 185.137C281.461 185.137 280.641 184.904 280.066 184.439C279.492 183.97 279.205 183.307 279.205 182.45C279.205 181.306 279.902 180.415 281.297 179.777C280.668 179.422 280.217 179.039 279.943 178.629C279.67 178.214 279.533 177.752 279.533 177.241C279.533 176.517 279.8 175.94 280.333 175.512C280.871 175.079 281.589 174.862 282.486 174.862ZM280.326 182.478C280.326 183.024 280.515 183.451 280.894 183.756C281.276 184.061 281.812 184.214 282.5 184.214C283.179 184.214 283.708 184.054 284.086 183.735C284.464 183.416 284.653 182.979 284.653 182.423C284.653 181.981 284.476 181.589 284.12 181.247C283.765 180.901 283.145 180.566 282.261 180.242C281.582 180.534 281.09 180.857 280.784 181.213C280.479 181.564 280.326 181.985 280.326 182.478ZM282.473 175.785C281.903 175.785 281.456 175.922 281.133 176.195C280.809 176.469 280.647 176.833 280.647 177.289C280.647 177.708 280.782 178.068 281.051 178.369C281.32 178.67 281.816 178.971 282.541 179.271C283.193 178.998 283.653 178.704 283.922 178.39C284.195 178.075 284.332 177.708 284.332 177.289C284.332 176.829 284.166 176.464 283.833 176.195C283.505 175.922 283.051 175.785 282.473 175.785Z" fill="#474D66"/>
</g>
<g clip-path="url(#clip36_535_4657)">
<rect width="41" height="32" transform="translate(57 132)" fill="white"/>
<path d="M76.7275 153H70.1787V152.05L72.8516 149.336C73.3483 148.835 73.7653 148.388 74.1025 147.996C74.4443 147.604 74.7041 147.219 74.8818 146.841C75.0596 146.458 75.1484 146.039 75.1484 145.583C75.1484 145.018 74.9798 144.587 74.6426 144.291C74.3099 143.99 73.8701 143.84 73.3232 143.84C72.8447 143.84 72.4209 143.922 72.0518 144.086C71.6826 144.25 71.3044 144.482 70.917 144.783L70.3086 144.018C70.5729 143.794 70.86 143.596 71.1699 143.423C71.4844 143.25 71.8193 143.113 72.1748 143.013C72.5348 142.912 72.9176 142.862 73.3232 142.862C73.9385 142.862 74.4694 142.969 74.916 143.184C75.3626 143.398 75.7067 143.703 75.9482 144.1C76.1943 144.496 76.3174 144.968 76.3174 145.515C76.3174 146.043 76.2126 146.535 76.0029 146.991C75.7933 147.442 75.4993 147.891 75.1211 148.338C74.7428 148.78 74.3008 149.249 73.7949 149.746L71.6211 151.913V151.961H76.7275V153ZM79.4824 153L83.584 144.045H78.1357V143.006H84.8008V143.881L80.7266 153H79.4824Z" fill="#8F95B2"/>
</g>
<g clip-path="url(#clip37_535_4657)">
<rect width="41" height="32" transform="translate(98 132)" fill="white"/>
<path d="M117.728 153H111.179V152.05L113.852 149.336C114.348 148.835 114.765 148.388 115.103 147.996C115.444 147.604 115.704 147.219 115.882 146.841C116.06 146.458 116.148 146.039 116.148 145.583C116.148 145.018 115.98 144.587 115.643 144.291C115.31 143.99 114.87 143.84 114.323 143.84C113.845 143.84 113.421 143.922 113.052 144.086C112.683 144.25 112.304 144.482 111.917 144.783L111.309 144.018C111.573 143.794 111.86 143.596 112.17 143.423C112.484 143.25 112.819 143.113 113.175 143.013C113.535 142.912 113.918 142.862 114.323 142.862C114.938 142.862 115.469 142.969 115.916 143.184C116.363 143.398 116.707 143.703 116.948 144.1C117.194 144.496 117.317 144.968 117.317 145.515C117.317 146.043 117.213 146.535 117.003 146.991C116.793 147.442 116.499 147.891 116.121 148.338C115.743 148.78 115.301 149.249 114.795 149.746L112.621 151.913V151.961H117.728V153ZM122.492 142.862C123.071 142.862 123.584 142.953 124.03 143.136C124.477 143.318 124.826 143.587 125.076 143.942C125.331 144.293 125.459 144.726 125.459 145.241C125.459 145.647 125.37 146.002 125.192 146.308C125.019 146.608 124.785 146.873 124.488 147.101C124.192 147.324 123.864 147.524 123.504 147.702C123.932 147.898 124.317 148.119 124.659 148.365C125.006 148.611 125.279 148.901 125.479 149.233C125.68 149.566 125.78 149.96 125.78 150.416C125.78 150.977 125.644 151.462 125.37 151.872C125.101 152.278 124.723 152.59 124.235 152.809C123.748 153.027 123.176 153.137 122.52 153.137C121.813 153.137 121.212 153.032 120.715 152.822C120.223 152.608 119.847 152.303 119.587 151.906C119.332 151.505 119.204 151.024 119.204 150.464C119.204 150.004 119.302 149.605 119.498 149.268C119.694 148.926 119.954 148.632 120.277 148.386C120.601 148.14 120.954 147.932 121.337 147.764C121.004 147.581 120.699 147.374 120.421 147.142C120.147 146.909 119.929 146.638 119.765 146.328C119.605 146.014 119.525 145.649 119.525 145.234C119.525 144.729 119.653 144.3 119.908 143.949C120.168 143.594 120.521 143.325 120.968 143.143C121.419 142.956 121.927 142.862 122.492 142.862ZM120.318 150.471C120.318 150.981 120.498 151.403 120.858 151.735C121.218 152.063 121.763 152.228 122.492 152.228C123.185 152.228 123.72 152.063 124.099 151.735C124.477 151.403 124.666 150.967 124.666 150.43C124.666 150.097 124.579 149.805 124.406 149.555C124.233 149.299 123.987 149.072 123.668 148.871C123.349 148.671 122.973 148.488 122.54 148.324L122.294 148.235C121.875 148.409 121.517 148.602 121.221 148.816C120.929 149.026 120.706 149.265 120.551 149.534C120.396 149.803 120.318 150.115 120.318 150.471ZM122.479 143.792C121.941 143.792 121.501 143.922 121.159 144.182C120.817 144.437 120.646 144.806 120.646 145.289C120.646 145.635 120.729 145.929 120.893 146.171C121.061 146.408 121.289 146.613 121.576 146.786C121.863 146.955 122.185 147.112 122.54 147.258C122.886 147.112 123.194 146.952 123.463 146.779C123.732 146.602 123.944 146.392 124.099 146.15C124.254 145.909 124.331 145.619 124.331 145.282C124.331 144.799 124.16 144.43 123.818 144.175C123.481 143.92 123.035 143.792 122.479 143.792Z" fill="#8F95B2"/>
</g>
<g clip-path="url(#clip38_535_4657)">
<rect width="41" height="32" transform="translate(139 132)" fill="white"/>
<path d="M158.728 153H152.179V152.05L154.852 149.336C155.348 148.835 155.765 148.388 156.103 147.996C156.444 147.604 156.704 147.219 156.882 146.841C157.06 146.458 157.148 146.039 157.148 145.583C157.148 145.018 156.98 144.587 156.643 144.291C156.31 143.99 155.87 143.84 155.323 143.84C154.845 143.84 154.421 143.922 154.052 144.086C153.683 144.25 153.304 144.482 152.917 144.783L152.309 144.018C152.573 143.794 152.86 143.596 153.17 143.423C153.484 143.25 153.819 143.113 154.175 143.013C154.535 142.912 154.918 142.862 155.323 142.862C155.938 142.862 156.469 142.969 156.916 143.184C157.363 143.398 157.707 143.703 157.948 144.1C158.194 144.496 158.317 144.968 158.317 145.515C158.317 146.043 158.213 146.535 158.003 146.991C157.793 147.442 157.499 147.891 157.121 148.338C156.743 148.78 156.301 149.249 155.795 149.746L153.621 151.913V151.961H158.728V153ZM166.753 147.265C166.753 147.871 166.71 148.461 166.623 149.035C166.541 149.609 166.397 150.145 166.192 150.642C165.992 151.138 165.718 151.574 165.372 151.947C165.026 152.321 164.59 152.615 164.066 152.829C163.547 153.039 162.925 153.144 162.2 153.144C162.004 153.144 161.781 153.13 161.53 153.103C161.28 153.08 161.075 153.046 160.915 153V152.016C161.084 152.075 161.282 152.123 161.51 152.159C161.738 152.191 161.961 152.207 162.18 152.207C163.032 152.207 163.702 152.025 164.189 151.66C164.677 151.291 165.028 150.792 165.242 150.163C165.456 149.53 165.577 148.819 165.604 148.03H165.522C165.386 148.249 165.206 148.452 164.982 148.639C164.764 148.821 164.497 148.969 164.183 149.083C163.868 149.192 163.501 149.247 163.082 149.247C162.503 149.247 161.997 149.129 161.564 148.892C161.136 148.655 160.801 148.311 160.56 147.859C160.323 147.408 160.204 146.864 160.204 146.226C160.204 145.537 160.334 144.943 160.594 144.441C160.858 143.936 161.227 143.546 161.701 143.272C162.175 142.999 162.733 142.862 163.376 142.862C163.868 142.862 164.319 142.956 164.729 143.143C165.14 143.329 165.495 143.61 165.796 143.983C166.101 144.353 166.336 144.811 166.5 145.357C166.669 145.904 166.753 146.54 166.753 147.265ZM163.376 143.826C162.77 143.826 162.278 144.024 161.899 144.421C161.526 144.817 161.339 145.414 161.339 146.212C161.339 146.873 161.501 147.395 161.824 147.777C162.148 148.16 162.647 148.352 163.321 148.352C163.786 148.352 164.187 148.258 164.524 148.071C164.866 147.884 165.128 147.647 165.311 147.36C165.497 147.073 165.591 146.779 165.591 146.479C165.591 146.178 165.545 145.872 165.454 145.562C165.368 145.253 165.233 144.968 165.051 144.708C164.868 144.444 164.638 144.232 164.36 144.072C164.082 143.908 163.754 143.826 163.376 143.826Z" fill="#8F95B2"/>
</g>
<g clip-path="url(#clip39_535_4657)">
<rect width="41" height="32" transform="translate(180 132)" fill="white"/>
<path d="M199.358 145.337C199.358 145.784 199.272 146.171 199.099 146.499C198.925 146.827 198.684 147.096 198.374 147.306C198.064 147.511 197.7 147.654 197.28 147.736V147.791C198.073 147.891 198.668 148.146 199.064 148.557C199.465 148.967 199.666 149.505 199.666 150.17C199.666 150.749 199.529 151.261 199.256 151.708C198.987 152.155 198.572 152.506 198.012 152.761C197.456 153.011 196.743 153.137 195.872 153.137C195.343 153.137 194.854 153.093 194.402 153.007C193.956 152.925 193.527 152.786 193.117 152.59V151.523C193.532 151.729 193.983 151.89 194.471 152.009C194.958 152.123 195.43 152.18 195.886 152.18C196.797 152.18 197.456 152 197.861 151.64C198.267 151.275 198.47 150.778 198.47 150.149C198.47 149.716 198.356 149.368 198.128 149.104C197.905 148.835 197.581 148.639 197.157 148.516C196.738 148.388 196.232 148.324 195.64 148.324H194.642V147.354H195.646C196.189 147.354 196.649 147.274 197.027 147.114C197.406 146.955 197.693 146.731 197.889 146.444C198.089 146.153 198.189 145.809 198.189 145.412C198.189 144.906 198.021 144.517 197.684 144.243C197.346 143.965 196.888 143.826 196.31 143.826C195.954 143.826 195.631 143.863 195.339 143.936C195.047 144.008 194.774 144.109 194.519 144.236C194.263 144.364 194.008 144.512 193.753 144.681L193.179 143.901C193.543 143.619 193.988 143.375 194.512 143.17C195.036 142.965 195.631 142.862 196.296 142.862C197.317 142.862 198.082 143.095 198.593 143.56C199.103 144.024 199.358 144.617 199.358 145.337ZM207.794 147.989C207.794 148.8 207.732 149.525 207.609 150.163C207.486 150.801 207.293 151.341 207.028 151.783C206.764 152.225 206.422 152.562 206.003 152.795C205.584 153.023 205.08 153.137 204.492 153.137C203.749 153.137 203.134 152.934 202.646 152.528C202.163 152.123 201.801 151.537 201.56 150.771C201.323 150.001 201.204 149.074 201.204 147.989C201.204 146.923 201.311 146.007 201.525 145.241C201.744 144.471 202.095 143.881 202.578 143.471C203.061 143.056 203.699 142.849 204.492 142.849C205.244 142.849 205.864 143.054 206.352 143.464C206.839 143.869 207.201 144.457 207.438 145.228C207.675 145.993 207.794 146.914 207.794 147.989ZM202.346 147.989C202.346 148.919 202.416 149.694 202.558 150.313C202.699 150.933 202.927 151.398 203.241 151.708C203.56 152.013 203.977 152.166 204.492 152.166C205.007 152.166 205.422 152.013 205.736 151.708C206.055 151.403 206.285 150.94 206.427 150.32C206.573 149.701 206.646 148.924 206.646 147.989C206.646 147.073 206.575 146.308 206.434 145.692C206.292 145.073 206.064 144.608 205.75 144.298C205.436 143.983 205.016 143.826 204.492 143.826C203.968 143.826 203.549 143.983 203.234 144.298C202.92 144.608 202.692 145.073 202.551 145.692C202.414 146.308 202.346 147.073 202.346 147.989Z" fill="#8F95B2"/>
</g>
<g clip-path="url(#clip40_535_4657)">
<rect width="41" height="32" transform="translate(221 132)" fill="white"/>
<path d="M240.358 145.337C240.358 145.784 240.272 146.171 240.099 146.499C239.925 146.827 239.684 147.096 239.374 147.306C239.064 147.511 238.7 147.654 238.28 147.736V147.791C239.073 147.891 239.668 148.146 240.064 148.557C240.465 148.967 240.666 149.505 240.666 150.17C240.666 150.749 240.529 151.261 240.256 151.708C239.987 152.155 239.572 152.506 239.012 152.761C238.456 153.011 237.743 153.137 236.872 153.137C236.343 153.137 235.854 153.093 235.402 153.007C234.956 152.925 234.527 152.786 234.117 152.59V151.523C234.532 151.729 234.983 151.89 235.471 152.009C235.958 152.123 236.43 152.18 236.886 152.18C237.797 152.18 238.456 152 238.861 151.64C239.267 151.275 239.47 150.778 239.47 150.149C239.47 149.716 239.356 149.368 239.128 149.104C238.905 148.835 238.581 148.639 238.157 148.516C237.738 148.388 237.232 148.324 236.64 148.324H235.642V147.354H236.646C237.189 147.354 237.649 147.274 238.027 147.114C238.406 146.955 238.693 146.731 238.889 146.444C239.089 146.153 239.189 145.809 239.189 145.412C239.189 144.906 239.021 144.517 238.684 144.243C238.346 143.965 237.888 143.826 237.31 143.826C236.954 143.826 236.631 143.863 236.339 143.936C236.047 144.008 235.774 144.109 235.519 144.236C235.263 144.364 235.008 144.512 234.753 144.681L234.179 143.901C234.543 143.619 234.988 143.375 235.512 143.17C236.036 142.965 236.631 142.862 237.296 142.862C238.317 142.862 239.082 143.095 239.593 143.56C240.103 144.024 240.358 144.617 240.358 145.337ZM246.415 153H245.308V145.918C245.308 145.649 245.308 145.419 245.308 145.228C245.312 145.032 245.317 144.854 245.321 144.694C245.33 144.53 245.342 144.364 245.355 144.195C245.214 144.341 245.082 144.466 244.959 144.571C244.836 144.672 244.683 144.797 244.501 144.947L243.359 145.863L242.765 145.091L245.472 143.006H246.415V153Z" fill="#8F95B2"/>
</g>
<g clip-path="url(#clip41_535_4657)">
<rect width="41" height="32" transform="translate(262 132)" fill="white"/>
<path d="M283.382 153H282.274V145.877C282.274 145.285 282.293 144.724 282.329 144.195C282.233 144.291 282.126 144.391 282.008 144.496C281.889 144.601 281.347 145.045 280.381 145.829L279.779 145.05L282.425 143.006H283.382V153Z" fill="#474D66"/>
</g>
<circle cx="283" cy="15" r="14.5" fill="#101840" stroke="#101840"/>
<path d="M285.469 20H279.48V18.7402L281.631 16.5664C282.064 16.1211 282.412 15.75 282.674 15.4531C282.939 15.1523 283.131 14.8789 283.248 14.6328C283.369 14.3867 283.43 14.123 283.43 13.8418C283.43 13.502 283.334 13.248 283.143 13.0801C282.955 12.9082 282.703 12.8223 282.387 12.8223C282.055 12.8223 281.732 12.8984 281.42 13.0508C281.107 13.2031 280.781 13.4199 280.441 13.7012L279.457 12.5352C279.703 12.3242 279.963 12.125 280.236 11.9375C280.514 11.75 280.834 11.5996 281.197 11.4863C281.564 11.3691 282.004 11.3105 282.516 11.3105C283.078 11.3105 283.561 11.4121 283.963 11.6152C284.369 11.8184 284.682 12.0957 284.9 12.4473C285.119 12.7949 285.229 13.1895 285.229 13.6309C285.229 14.1035 285.135 14.5352 284.947 14.9258C284.76 15.3164 284.486 15.7031 284.127 16.0859C283.771 16.4688 283.342 16.8926 282.838 17.3574L281.736 18.3945V18.4766H285.469V20Z" fill="white"/>
<path d="M283 30V66" stroke="#101840" stroke-width="2"/>
<circle cx="283" cy="64" r="2.5" fill="#101840" stroke="#101840"/>
<circle cx="154" cy="15" r="14.5" fill="#101840" stroke="#101840"/>
<path d="M154.957 20H153.146V15.043L153.164 14.2285L153.193 13.3379C152.893 13.6387 152.684 13.8359 152.566 13.9297L151.582 14.7207L150.709 13.6309L153.469 11.4336H154.957V20Z" fill="white"/>
<path d="M154 30V66" stroke="#101840" stroke-width="2"/>
<circle cx="154" cy="64" r="2.5" fill="#101840" stroke="#101840"/>
<path d="M363 213H213" stroke="#101840" stroke-width="2"/>
<circle cx="215" cy="213" r="2.5" transform="rotate(90 215 213)" fill="#101840" stroke="#101840"/>
<circle cx="355" cy="213" r="14.5" transform="rotate(90 355 213)" fill="#101840" stroke="#101840"/>
<path d="M358.162 215.725H357.131V217.5H355.361V215.725H351.705V214.465L355.461 208.934H357.131V214.318H358.162V215.725ZM355.361 214.318V212.865C355.361 212.729 355.363 212.566 355.367 212.379C355.375 212.191 355.383 212.004 355.391 211.816C355.398 211.629 355.406 211.463 355.414 211.318C355.426 211.17 355.434 211.066 355.438 211.008H355.391C355.316 211.168 355.238 211.324 355.156 211.477C355.074 211.625 354.979 211.781 354.869 211.945L353.299 214.318H355.361Z" fill="white"/>
<circle cx="355" cy="117" r="14.5" transform="rotate(90 355 117)" fill="#101840" stroke="#101840"/>
<path d="M357.635 114.85C357.635 115.244 357.553 115.586 357.389 115.875C357.225 116.164 357.002 116.4 356.721 116.584C356.443 116.768 356.131 116.902 355.783 116.988V117.023C356.471 117.109 356.992 117.32 357.348 117.656C357.707 117.992 357.887 118.441 357.887 119.004C357.887 119.504 357.764 119.951 357.518 120.346C357.275 120.74 356.9 121.051 356.393 121.277C355.885 121.504 355.23 121.617 354.43 121.617C353.957 121.617 353.516 121.578 353.105 121.5C352.699 121.426 352.316 121.311 351.957 121.154V119.613C352.324 119.801 352.709 119.943 353.111 120.041C353.514 120.135 353.889 120.182 354.236 120.182C354.885 120.182 355.338 120.07 355.596 119.848C355.857 119.621 355.988 119.305 355.988 118.898C355.988 118.66 355.928 118.459 355.807 118.295C355.686 118.131 355.475 118.006 355.174 117.92C354.877 117.834 354.461 117.791 353.926 117.791H353.275V116.402H353.938C354.465 116.402 354.865 116.354 355.139 116.256C355.416 116.154 355.604 116.018 355.701 115.846C355.803 115.67 355.854 115.471 355.854 115.248C355.854 114.943 355.76 114.705 355.572 114.533C355.385 114.361 355.072 114.275 354.635 114.275C354.361 114.275 354.111 114.311 353.885 114.381C353.662 114.447 353.461 114.529 353.281 114.627C353.102 114.721 352.943 114.812 352.807 114.902L351.969 113.654C352.305 113.412 352.697 113.211 353.146 113.051C353.6 112.891 354.139 112.811 354.764 112.811C355.646 112.811 356.346 112.988 356.861 113.344C357.377 113.699 357.635 114.201 357.635 114.85Z" fill="white"/>
<path d="M340 117H304" stroke="#101840" stroke-width="2"/>
<circle cx="306" cy="117" r="2.5" transform="rotate(90 306 117)" fill="#101840" stroke="#101840"/>
<defs>
<clipPath id="clip0_535_4657">
<rect width="41" height="32" fill="white" transform="translate(16 132)"/>
</clipPath>
<clipPath id="clip1_535_4657">
<rect width="41" height="32" fill="white" transform="translate(16 164)"/>
</clipPath>
<clipPath id="clip2_535_4657">
<rect width="41" height="32" fill="white" transform="translate(16 196)"/>
</clipPath>
<clipPath id="clip3_535_4657">
<rect width="41" height="32" fill="white" transform="translate(57 196)"/>
</clipPath>
<clipPath id="clip4_535_4657">
<rect width="41" height="32" fill="white" transform="translate(98 196)"/>
</clipPath>
<clipPath id="clip5_535_4657">
<rect width="41" height="32" fill="white" transform="translate(139 196)"/>
</clipPath>
<clipPath id="clip6_535_4657">
<rect x="180" y="196" width="41" height="32" rx="3" fill="white"/>
</clipPath>
<clipPath id="clip7_535_4657">
<rect width="41" height="32" fill="white" transform="translate(221 196)"/>
</clipPath>
<clipPath id="clip8_535_4657">
<rect width="41" height="32" fill="white" transform="translate(262 196)"/>
</clipPath>
<clipPath id="clip9_535_4657">
<rect width="41" height="32" fill="white" transform="translate(16 228)"/>
</clipPath>
<clipPath id="clip10_535_4657">
<rect width="41" height="32" fill="white" transform="translate(57 228)"/>
</clipPath>
<clipPath id="clip11_535_4657">
<rect width="41" height="32" fill="white" transform="translate(98 228)"/>
</clipPath>
<clipPath id="clip12_535_4657">
<rect width="41" height="32" fill="white" transform="translate(139 228)"/>
</clipPath>
<clipPath id="clip13_535_4657">
<rect width="41" height="32" fill="white" transform="translate(180 228)"/>
</clipPath>
<clipPath id="clip14_535_4657">
<rect width="41" height="32" fill="white" transform="translate(221 228)"/>
</clipPath>
<clipPath id="clip15_535_4657">
<rect width="41" height="32" fill="white" transform="translate(262 228)"/>
</clipPath>
<clipPath id="clip16_535_4657">
<rect width="41" height="32" fill="white" transform="translate(16 260)"/>
</clipPath>
<clipPath id="clip17_535_4657">
<rect width="41" height="32" fill="white" transform="translate(57 260)"/>
</clipPath>
<clipPath id="clip18_535_4657">
<rect width="41" height="32" fill="white" transform="translate(98 260)"/>
</clipPath>
<clipPath id="clip19_535_4657">
<rect width="41" height="32" fill="white" transform="translate(139 260)"/>
</clipPath>
<clipPath id="clip20_535_4657">
<rect width="41" height="32" fill="white" transform="translate(180 260)"/>
</clipPath>
<clipPath id="clip21_535_4657">
<rect width="41" height="32" fill="white" transform="translate(221 260)"/>
</clipPath>
<clipPath id="clip22_535_4657">
<rect width="41" height="32" fill="white" transform="translate(262 260)"/>
</clipPath>
<clipPath id="clip23_535_4657">
<rect width="41" height="32" fill="white" transform="translate(16 292)"/>
</clipPath>
<clipPath id="clip24_535_4657">
<rect width="41" height="32" fill="white" transform="translate(57 292)"/>
</clipPath>
<clipPath id="clip25_535_4657">
<rect width="41" height="32" fill="white" transform="translate(98 292)"/>
</clipPath>
<clipPath id="clip26_535_4657">
<rect width="41" height="32" fill="white" transform="translate(139 292)"/>
</clipPath>
<clipPath id="clip27_535_4657">
<rect width="41" height="32" fill="white" transform="translate(180 292)"/>
</clipPath>
<clipPath id="clip28_535_4657">
<rect width="41" height="32" fill="white" transform="translate(221 292)"/>
</clipPath>
<clipPath id="clip29_535_4657">
<rect width="41" height="32" fill="white" transform="translate(262 292)"/>
</clipPath>
<clipPath id="clip30_535_4657">
<rect width="41" height="32" fill="white" transform="translate(57 164)"/>
</clipPath>
<clipPath id="clip31_535_4657">
<rect width="41" height="32" fill="white" transform="translate(98 164)"/>
</clipPath>
<clipPath id="clip32_535_4657">
<rect width="41" height="32" fill="white" transform="translate(139 164)"/>
</clipPath>
<clipPath id="clip33_535_4657">
<rect width="41" height="32" fill="white" transform="translate(180 164)"/>
</clipPath>
<clipPath id="clip34_535_4657">
<rect width="41" height="32" fill="white" transform="translate(221 164)"/>
</clipPath>
<clipPath id="clip35_535_4657">
<rect width="41" height="32" fill="white" transform="translate(262 164)"/>
</clipPath>
<clipPath id="clip36_535_4657">
<rect width="41" height="32" fill="white" transform="translate(57 132)"/>
</clipPath>
<clipPath id="clip37_535_4657">
<rect width="41" height="32" fill="white" transform="translate(98 132)"/>
</clipPath>
<clipPath id="clip38_535_4657">
<rect width="41" height="32" fill="white" transform="translate(139 132)"/>
</clipPath>
<clipPath id="clip39_535_4657">
<rect width="41" height="32" fill="white" transform="translate(180 132)"/>
</clipPath>
<clipPath id="clip40_535_4657">
<rect width="41" height="32" fill="white" transform="translate(221 132)"/>
</clipPath>
<clipPath id="clip41_535_4657">
<rect width="41" height="32" fill="white" transform="translate(262 132)"/>
</clipPath>
</defs>
</svg>
