<svg width="225" height="199" viewBox="0 0 225 199" fill="none" xmlns="http://www.w3.org/2000/svg">
<path d="M76.6484 73.2734C76.6484 75.1328 76.1823 76.5781 75.25 77.6094C74.3229 78.6406 73.0078 79.1562 71.3047 79.1562C69.5807 79.1562 68.2552 78.6458 67.3281 77.625C66.4062 76.599 65.9453 75.1432 65.9453 73.2578C65.9453 71.3724 66.4089 69.9245 67.3359 68.9141C68.2682 67.9036 69.5964 67.3984 71.3203 67.3984C73.0182 67.3984 74.3307 67.9115 75.2578 68.9375C76.1849 69.9635 76.6484 71.4089 76.6484 73.2734ZM67.9297 73.2734C67.9297 74.6797 68.2135 75.7474 68.7812 76.4766C69.349 77.2005 70.1901 77.5625 71.3047 77.5625C72.4141 77.5625 73.25 77.2031 73.8125 76.4844C74.3802 75.7656 74.6641 74.6953 74.6641 73.2734C74.6641 71.8724 74.3828 70.8099 73.8203 70.0859C73.263 69.362 72.4297 69 71.3203 69C70.2005 69 69.3542 69.362 68.7812 70.0859C68.2135 70.8099 67.9297 71.8724 67.9297 73.2734ZM83.2891 79.1562C82.1953 79.1562 81.3464 78.763 80.7422 77.9766H80.6328C80.7057 78.7057 80.7422 79.1484 80.7422 79.3047V82.8438H78.9062V70.3594H80.3906C80.4323 70.5208 80.5182 70.9062 80.6484 71.5156H80.7422C81.3151 70.6406 82.1745 70.2031 83.3203 70.2031C84.3984 70.2031 85.237 70.5938 85.8359 71.375C86.4401 72.1562 86.7422 73.2526 86.7422 74.6641C86.7422 76.0755 86.4349 77.1771 85.8203 77.9688C85.2109 78.7604 84.3672 79.1562 83.2891 79.1562ZM82.8438 71.7031C82.1146 71.7031 81.5807 71.9167 81.2422 72.3438C80.9089 72.7708 80.7422 73.4531 80.7422 74.3906V74.6641C80.7422 75.7161 80.9089 76.4792 81.2422 76.9531C81.5755 77.4219 82.1198 77.6562 82.875 77.6562C83.5104 77.6562 84 77.3958 84.3438 76.875C84.6875 76.3542 84.8594 75.612 84.8594 74.6484C84.8594 73.6797 84.6875 72.9479 84.3438 72.4531C84.0052 71.9531 83.5052 71.7031 82.8438 71.7031ZM92.0938 77.6719C92.5417 77.6719 92.9896 77.6016 93.4375 77.4609V78.8438C93.2344 78.9323 92.9714 79.0052 92.6484 79.0625C92.3307 79.125 92 79.1562 91.6562 79.1562C89.9167 79.1562 89.0469 78.2396 89.0469 76.4062V71.75H87.8672V70.9375L89.1328 70.2656L89.7578 68.4375H90.8906V70.3594H93.3516V71.75H90.8906V76.375C90.8906 76.8177 91 77.1458 91.2188 77.3594C91.4427 77.5677 91.7344 77.6719 92.0938 77.6719ZM97.0078 79H95.1719V70.3594H97.0078V79ZM95.0625 68.0703C95.0625 67.7422 95.151 67.4896 95.3281 67.3125C95.5104 67.1354 95.7682 67.0469 96.1016 67.0469C96.4245 67.0469 96.6745 67.1354 96.8516 67.3125C97.0339 67.4896 97.125 67.7422 97.125 68.0703C97.125 68.3828 97.0339 68.6302 96.8516 68.8125C96.6745 68.9896 96.4245 69.0781 96.1016 69.0781C95.7682 69.0781 95.5104 68.9896 95.3281 68.8125C95.151 68.6302 95.0625 68.3828 95.0625 68.0703ZM107.305 74.6641C107.305 76.0755 106.943 77.1771 106.219 77.9688C105.495 78.7604 104.487 79.1562 103.195 79.1562C102.388 79.1562 101.674 78.974 101.055 78.6094C100.435 78.2448 99.9583 77.7214 99.625 77.0391C99.2917 76.3568 99.125 75.5651 99.125 74.6641C99.125 73.263 99.4844 72.1693 100.203 71.3828C100.922 70.5964 101.935 70.2031 103.242 70.2031C104.492 70.2031 105.482 70.6068 106.211 71.4141C106.94 72.2161 107.305 73.2995 107.305 74.6641ZM101.016 74.6641C101.016 76.6589 101.753 77.6562 103.227 77.6562C104.685 77.6562 105.414 76.6589 105.414 74.6641C105.414 72.6901 104.68 71.7031 103.211 71.7031C102.44 71.7031 101.88 71.9583 101.531 72.4688C101.188 72.9792 101.016 73.7109 101.016 74.6641ZM117.023 79H115.18V73.6875C115.18 73.0208 115.044 72.5234 114.773 72.1953C114.508 71.8672 114.083 71.7031 113.5 71.7031C112.724 71.7031 112.156 71.9323 111.797 72.3906C111.438 72.849 111.258 73.6172 111.258 74.6953V79H109.422V70.3594H110.859L111.117 71.4922H111.211C111.471 71.0807 111.841 70.763 112.32 70.5391C112.799 70.3151 113.331 70.2031 113.914 70.2031C115.987 70.2031 117.023 71.2578 117.023 73.3672V79ZM125.383 76.5391C125.383 77.3828 125.076 78.0312 124.461 78.4844C123.846 78.9323 122.966 79.1562 121.82 79.1562C120.669 79.1562 119.745 78.9818 119.047 78.6328V77.0469C120.062 77.5156 121.008 77.75 121.883 77.75C123.013 77.75 123.578 77.4089 123.578 76.7266C123.578 76.5078 123.516 76.3255 123.391 76.1797C123.266 76.0339 123.06 75.8828 122.773 75.7266C122.487 75.5703 122.089 75.3932 121.578 75.1953C120.583 74.8099 119.909 74.4245 119.555 74.0391C119.206 73.6536 119.031 73.1536 119.031 72.5391C119.031 71.7995 119.328 71.2266 119.922 70.8203C120.521 70.4089 121.333 70.2031 122.359 70.2031C123.375 70.2031 124.336 70.4089 125.242 70.8203L124.648 72.2031C123.716 71.8177 122.932 71.625 122.297 71.625C121.328 71.625 120.844 71.901 120.844 72.4531C120.844 72.724 120.969 72.9531 121.219 73.1406C121.474 73.3281 122.026 73.5859 122.875 73.9141C123.589 74.1901 124.107 74.4427 124.43 74.6719C124.753 74.901 124.992 75.1667 125.148 75.4688C125.305 75.7656 125.383 76.1224 125.383 76.5391Z" fill="#474D66"/>
<rect x="65.5" y="97.5" width="15" height="15" rx="3.5" fill="white" stroke="#D8DAE5"/>
<rect x="64.5" y="96.5" width="17" height="17" stroke="#3366FF"/>
<path d="M104.469 105.273C104.469 106.154 104.357 106.956 104.133 107.68C103.909 108.398 103.576 109.018 103.133 109.539C102.695 110.055 102.151 110.453 101.5 110.734C100.849 111.016 100.094 111.156 99.2344 111.156C98.349 111.156 97.5755 111.016 96.9141 110.734C96.2578 110.453 95.7109 110.052 95.2734 109.531C94.8411 109.01 94.5156 108.388 94.2969 107.664C94.0833 106.94 93.9766 106.138 93.9766 105.258C93.9766 104.091 94.1693 103.068 94.5547 102.188C94.9401 101.307 95.5234 100.622 96.3047 100.133C97.0911 99.6432 98.0755 99.3984 99.2578 99.3984C100.388 99.3984 101.339 99.6406 102.109 100.125C102.885 100.609 103.471 101.292 103.867 102.172C104.268 103.047 104.469 104.081 104.469 105.273ZM95.375 105.273C95.375 106.242 95.513 107.081 95.7891 107.789C96.0651 108.497 96.487 109.044 97.0547 109.43C97.6276 109.815 98.3542 110.008 99.2344 110.008C100.12 110.008 100.844 109.815 101.406 109.43C101.974 109.044 102.393 108.497 102.664 107.789C102.935 107.081 103.07 106.242 103.07 105.273C103.07 103.799 102.76 102.648 102.141 101.82C101.526 100.987 100.565 100.57 99.2578 100.57C98.3724 100.57 97.6432 100.76 97.0703 101.141C96.4974 101.521 96.0703 102.062 95.7891 102.766C95.513 103.464 95.375 104.299 95.375 105.273ZM110.844 102.281C111.911 102.281 112.763 102.648 113.398 103.383C114.034 104.117 114.352 105.221 114.352 106.695C114.352 107.669 114.206 108.487 113.914 109.148C113.622 109.81 113.211 110.31 112.68 110.648C112.154 110.987 111.531 111.156 110.812 111.156C110.359 111.156 109.961 111.096 109.617 110.977C109.273 110.857 108.979 110.695 108.734 110.492C108.49 110.289 108.286 110.068 108.125 109.828H108.031C108.047 110.031 108.065 110.276 108.086 110.562C108.112 110.849 108.125 111.099 108.125 111.312V114.828H106.82V102.438H107.891L108.062 103.703H108.125C108.292 103.443 108.495 103.206 108.734 102.992C108.974 102.773 109.266 102.602 109.609 102.477C109.958 102.346 110.37 102.281 110.844 102.281ZM110.617 103.375C110.023 103.375 109.544 103.49 109.18 103.719C108.82 103.948 108.557 104.292 108.391 104.75C108.224 105.203 108.135 105.773 108.125 106.461V106.711C108.125 107.435 108.203 108.047 108.359 108.547C108.521 109.047 108.784 109.427 109.148 109.688C109.518 109.948 110.013 110.078 110.633 110.078C111.164 110.078 111.607 109.935 111.961 109.648C112.315 109.362 112.578 108.964 112.75 108.453C112.927 107.938 113.016 107.346 113.016 106.68C113.016 105.669 112.818 104.867 112.422 104.273C112.031 103.674 111.43 103.375 110.617 103.375ZM119.383 110.094C119.596 110.094 119.815 110.076 120.039 110.039C120.263 110.003 120.445 109.958 120.586 109.906V110.914C120.435 110.982 120.224 111.039 119.953 111.086C119.688 111.133 119.427 111.156 119.172 111.156C118.719 111.156 118.307 111.078 117.938 110.922C117.568 110.76 117.271 110.49 117.047 110.109C116.828 109.729 116.719 109.203 116.719 108.531V103.453H115.5V102.82L116.727 102.312L117.242 100.453H118.023V102.438H120.531V103.453H118.023V108.492C118.023 109.029 118.146 109.43 118.391 109.695C118.641 109.961 118.971 110.094 119.383 110.094ZM123.617 102.438V111H122.32V102.438H123.617ZM122.984 99.2344C123.198 99.2344 123.38 99.3047 123.531 99.4453C123.688 99.5807 123.766 99.7943 123.766 100.086C123.766 100.372 123.688 100.586 123.531 100.727C123.38 100.867 123.198 100.938 122.984 100.938C122.76 100.938 122.573 100.867 122.422 100.727C122.276 100.586 122.203 100.372 122.203 100.086C122.203 99.7943 122.276 99.5807 122.422 99.4453C122.573 99.3047 122.76 99.2344 122.984 99.2344ZM133.75 106.703C133.75 107.406 133.659 108.034 133.477 108.586C133.294 109.138 133.031 109.604 132.688 109.984C132.344 110.365 131.927 110.656 131.438 110.859C130.953 111.057 130.404 111.156 129.789 111.156C129.216 111.156 128.69 111.057 128.211 110.859C127.737 110.656 127.326 110.365 126.977 109.984C126.633 109.604 126.365 109.138 126.172 108.586C125.984 108.034 125.891 107.406 125.891 106.703C125.891 105.766 126.049 104.969 126.367 104.312C126.685 103.651 127.138 103.148 127.727 102.805C128.32 102.456 129.026 102.281 129.844 102.281C130.625 102.281 131.307 102.456 131.891 102.805C132.479 103.154 132.935 103.659 133.258 104.32C133.586 104.977 133.75 105.771 133.75 106.703ZM127.234 106.703C127.234 107.391 127.326 107.987 127.508 108.492C127.69 108.997 127.971 109.388 128.352 109.664C128.732 109.94 129.221 110.078 129.82 110.078C130.414 110.078 130.901 109.94 131.281 109.664C131.667 109.388 131.951 108.997 132.133 108.492C132.315 107.987 132.406 107.391 132.406 106.703C132.406 106.021 132.315 105.432 132.133 104.938C131.951 104.438 131.669 104.052 131.289 103.781C130.909 103.51 130.417 103.375 129.812 103.375C128.922 103.375 128.268 103.669 127.852 104.258C127.44 104.846 127.234 105.661 127.234 106.703ZM140.047 102.281C141.062 102.281 141.831 102.531 142.352 103.031C142.872 103.526 143.133 104.323 143.133 105.422V111H141.852V105.508C141.852 104.794 141.688 104.26 141.359 103.906C141.036 103.552 140.539 103.375 139.867 103.375C138.919 103.375 138.253 103.643 137.867 104.18C137.482 104.716 137.289 105.495 137.289 106.516V111H135.992V102.438H137.039L137.234 103.672H137.305C137.487 103.37 137.719 103.117 138 102.914C138.281 102.706 138.596 102.549 138.945 102.445C139.294 102.336 139.661 102.281 140.047 102.281ZM156.445 102.242C156.445 102.753 156.346 103.195 156.148 103.57C155.951 103.945 155.674 104.253 155.32 104.492C154.966 104.727 154.549 104.891 154.07 104.984V105.047C154.977 105.161 155.656 105.453 156.109 105.922C156.568 106.391 156.797 107.005 156.797 107.766C156.797 108.427 156.641 109.013 156.328 109.523C156.021 110.034 155.547 110.435 154.906 110.727C154.271 111.013 153.456 111.156 152.461 111.156C151.857 111.156 151.297 111.107 150.781 111.008C150.271 110.914 149.781 110.755 149.312 110.531V109.312C149.786 109.547 150.302 109.732 150.859 109.867C151.417 109.997 151.956 110.062 152.477 110.062C153.518 110.062 154.271 109.857 154.734 109.445C155.198 109.029 155.43 108.461 155.43 107.742C155.43 107.247 155.299 106.849 155.039 106.547C154.784 106.24 154.414 106.016 153.93 105.875C153.451 105.729 152.872 105.656 152.195 105.656H151.055V104.547H152.203C152.823 104.547 153.349 104.456 153.781 104.273C154.214 104.091 154.542 103.836 154.766 103.508C154.995 103.174 155.109 102.781 155.109 102.328C155.109 101.75 154.917 101.305 154.531 100.992C154.146 100.674 153.622 100.516 152.961 100.516C152.555 100.516 152.185 100.557 151.852 100.641C151.518 100.724 151.206 100.839 150.914 100.984C150.622 101.13 150.331 101.299 150.039 101.492L149.383 100.602C149.799 100.279 150.307 100 150.906 99.7656C151.505 99.5312 152.185 99.4141 152.945 99.4141C154.112 99.4141 154.987 99.6797 155.57 100.211C156.154 100.742 156.445 101.419 156.445 102.242Z" fill="#474D66"/>
<rect x="65.5" y="125.5" width="15" height="15" rx="3.5" fill="white" stroke="#D8DAE5"/>
<rect x="64.5" y="124.5" width="17" height="17" stroke="#3366FF"/>
<path d="M104.469 133.273C104.469 134.154 104.357 134.956 104.133 135.68C103.909 136.398 103.576 137.018 103.133 137.539C102.695 138.055 102.151 138.453 101.5 138.734C100.849 139.016 100.094 139.156 99.2344 139.156C98.349 139.156 97.5755 139.016 96.9141 138.734C96.2578 138.453 95.7109 138.052 95.2734 137.531C94.8411 137.01 94.5156 136.388 94.2969 135.664C94.0833 134.94 93.9766 134.138 93.9766 133.258C93.9766 132.091 94.1693 131.068 94.5547 130.188C94.9401 129.307 95.5234 128.622 96.3047 128.133C97.0911 127.643 98.0755 127.398 99.2578 127.398C100.388 127.398 101.339 127.641 102.109 128.125C102.885 128.609 103.471 129.292 103.867 130.172C104.268 131.047 104.469 132.081 104.469 133.273ZM95.375 133.273C95.375 134.242 95.513 135.081 95.7891 135.789C96.0651 136.497 96.487 137.044 97.0547 137.43C97.6276 137.815 98.3542 138.008 99.2344 138.008C100.12 138.008 100.844 137.815 101.406 137.43C101.974 137.044 102.393 136.497 102.664 135.789C102.935 135.081 103.07 134.242 103.07 133.273C103.07 131.799 102.76 130.648 102.141 129.82C101.526 128.987 100.565 128.57 99.2578 128.57C98.3724 128.57 97.6432 128.76 97.0703 129.141C96.4974 129.521 96.0703 130.062 95.7891 130.766C95.513 131.464 95.375 132.299 95.375 133.273ZM110.844 130.281C111.911 130.281 112.763 130.648 113.398 131.383C114.034 132.117 114.352 133.221 114.352 134.695C114.352 135.669 114.206 136.487 113.914 137.148C113.622 137.81 113.211 138.31 112.68 138.648C112.154 138.987 111.531 139.156 110.812 139.156C110.359 139.156 109.961 139.096 109.617 138.977C109.273 138.857 108.979 138.695 108.734 138.492C108.49 138.289 108.286 138.068 108.125 137.828H108.031C108.047 138.031 108.065 138.276 108.086 138.562C108.112 138.849 108.125 139.099 108.125 139.312V142.828H106.82V130.438H107.891L108.062 131.703H108.125C108.292 131.443 108.495 131.206 108.734 130.992C108.974 130.773 109.266 130.602 109.609 130.477C109.958 130.346 110.37 130.281 110.844 130.281ZM110.617 131.375C110.023 131.375 109.544 131.49 109.18 131.719C108.82 131.948 108.557 132.292 108.391 132.75C108.224 133.203 108.135 133.773 108.125 134.461V134.711C108.125 135.435 108.203 136.047 108.359 136.547C108.521 137.047 108.784 137.427 109.148 137.688C109.518 137.948 110.013 138.078 110.633 138.078C111.164 138.078 111.607 137.935 111.961 137.648C112.315 137.362 112.578 136.964 112.75 136.453C112.927 135.938 113.016 135.346 113.016 134.68C113.016 133.669 112.818 132.867 112.422 132.273C112.031 131.674 111.43 131.375 110.617 131.375ZM119.383 138.094C119.596 138.094 119.815 138.076 120.039 138.039C120.263 138.003 120.445 137.958 120.586 137.906V138.914C120.435 138.982 120.224 139.039 119.953 139.086C119.688 139.133 119.427 139.156 119.172 139.156C118.719 139.156 118.307 139.078 117.938 138.922C117.568 138.76 117.271 138.49 117.047 138.109C116.828 137.729 116.719 137.203 116.719 136.531V131.453H115.5V130.82L116.727 130.312L117.242 128.453H118.023V130.438H120.531V131.453H118.023V136.492C118.023 137.029 118.146 137.43 118.391 137.695C118.641 137.961 118.971 138.094 119.383 138.094ZM123.617 130.438V139H122.32V130.438H123.617ZM122.984 127.234C123.198 127.234 123.38 127.305 123.531 127.445C123.688 127.581 123.766 127.794 123.766 128.086C123.766 128.372 123.688 128.586 123.531 128.727C123.38 128.867 123.198 128.938 122.984 128.938C122.76 128.938 122.573 128.867 122.422 128.727C122.276 128.586 122.203 128.372 122.203 128.086C122.203 127.794 122.276 127.581 122.422 127.445C122.573 127.305 122.76 127.234 122.984 127.234ZM133.75 134.703C133.75 135.406 133.659 136.034 133.477 136.586C133.294 137.138 133.031 137.604 132.688 137.984C132.344 138.365 131.927 138.656 131.438 138.859C130.953 139.057 130.404 139.156 129.789 139.156C129.216 139.156 128.69 139.057 128.211 138.859C127.737 138.656 127.326 138.365 126.977 137.984C126.633 137.604 126.365 137.138 126.172 136.586C125.984 136.034 125.891 135.406 125.891 134.703C125.891 133.766 126.049 132.969 126.367 132.312C126.685 131.651 127.138 131.148 127.727 130.805C128.32 130.456 129.026 130.281 129.844 130.281C130.625 130.281 131.307 130.456 131.891 130.805C132.479 131.154 132.935 131.659 133.258 132.32C133.586 132.977 133.75 133.771 133.75 134.703ZM127.234 134.703C127.234 135.391 127.326 135.987 127.508 136.492C127.69 136.997 127.971 137.388 128.352 137.664C128.732 137.94 129.221 138.078 129.82 138.078C130.414 138.078 130.901 137.94 131.281 137.664C131.667 137.388 131.951 136.997 132.133 136.492C132.315 135.987 132.406 135.391 132.406 134.703C132.406 134.021 132.315 133.432 132.133 132.938C131.951 132.438 131.669 132.052 131.289 131.781C130.909 131.51 130.417 131.375 129.812 131.375C128.922 131.375 128.268 131.669 127.852 132.258C127.44 132.846 127.234 133.661 127.234 134.703ZM140.047 130.281C141.062 130.281 141.831 130.531 142.352 131.031C142.872 131.526 143.133 132.323 143.133 133.422V139H141.852V133.508C141.852 132.794 141.688 132.26 141.359 131.906C141.036 131.552 140.539 131.375 139.867 131.375C138.919 131.375 138.253 131.643 137.867 132.18C137.482 132.716 137.289 133.495 137.289 134.516V139H135.992V130.438H137.039L137.234 131.672H137.305C137.487 131.37 137.719 131.117 138 130.914C138.281 130.706 138.596 130.549 138.945 130.445C139.294 130.336 139.661 130.281 140.047 130.281ZM156.867 139H149.383V137.914L152.438 134.812C153.005 134.24 153.482 133.729 153.867 133.281C154.258 132.833 154.555 132.393 154.758 131.961C154.961 131.523 155.062 131.044 155.062 130.523C155.062 129.878 154.87 129.385 154.484 129.047C154.104 128.703 153.602 128.531 152.977 128.531C152.43 128.531 151.945 128.625 151.523 128.812C151.102 129 150.669 129.266 150.227 129.609L149.531 128.734C149.833 128.479 150.161 128.253 150.516 128.055C150.875 127.857 151.258 127.701 151.664 127.586C152.076 127.471 152.513 127.414 152.977 127.414C153.68 127.414 154.286 127.536 154.797 127.781C155.307 128.026 155.701 128.375 155.977 128.828C156.258 129.281 156.398 129.82 156.398 130.445C156.398 131.049 156.279 131.612 156.039 132.133C155.799 132.648 155.464 133.161 155.031 133.672C154.599 134.177 154.094 134.714 153.516 135.281L151.031 137.758V137.812H156.867V139Z" fill="#474D66"/>
<rect x="65" y="153" width="16" height="16" rx="4" fill="#3366FF"/>
<path d="M77 157.5C76.72 157.5 76.47 157.61 76.29 157.79L72 162.09L69.71 159.79C69.53 159.61 69.28 159.5 69 159.5C68.45 159.5 68 159.95 68 160.5C68 160.78 68.11 161.03 68.29 161.21L71.29 164.21C71.47 164.39 71.72 164.5 72 164.5C72.28 164.5 72.53 164.39 72.71 164.21L77.71 159.21C77.89 159.03 78 158.78 78 158.5C78 157.95 77.55 157.5 77 157.5Z" fill="white"/>
<path d="M104.484 161.273C104.484 163.102 104.021 164.539 103.094 165.586C102.172 166.633 100.888 167.156 99.2422 167.156C97.5599 167.156 96.2604 166.643 95.3438 165.617C94.4323 164.586 93.9766 163.133 93.9766 161.258C93.9766 159.398 94.4349 157.958 95.3516 156.938C96.2682 155.911 97.5703 155.398 99.2578 155.398C100.898 155.398 102.18 155.919 103.102 156.961C104.023 158.003 104.484 159.44 104.484 161.273ZM95.3828 161.273C95.3828 162.82 95.7109 163.995 96.3672 164.797C97.0286 165.594 97.987 165.992 99.2422 165.992C100.508 165.992 101.464 165.594 102.109 164.797C102.755 164 103.078 162.826 103.078 161.273C103.078 159.737 102.755 158.573 102.109 157.781C101.469 156.984 100.518 156.586 99.2578 156.586C97.9922 156.586 97.0286 156.987 96.3672 157.789C95.7109 158.586 95.3828 159.747 95.3828 161.273ZM110.828 167.156C110.271 167.156 109.76 167.055 109.297 166.852C108.839 166.643 108.453 166.326 108.141 165.898H108.047C108.109 166.398 108.141 166.872 108.141 167.32V170.844H106.844V158.438H107.898L108.078 159.609H108.141C108.474 159.141 108.862 158.802 109.305 158.594C109.747 158.385 110.255 158.281 110.828 158.281C111.964 158.281 112.839 158.669 113.453 159.445C114.073 160.221 114.383 161.31 114.383 162.711C114.383 164.117 114.068 165.211 113.438 165.992C112.812 166.768 111.943 167.156 110.828 167.156ZM110.641 159.383C109.766 159.383 109.133 159.625 108.742 160.109C108.352 160.594 108.151 161.365 108.141 162.422V162.711C108.141 163.914 108.341 164.776 108.742 165.297C109.143 165.812 109.786 166.07 110.672 166.07C111.411 166.07 111.99 165.771 112.406 165.172C112.828 164.573 113.039 163.747 113.039 162.695C113.039 161.628 112.828 160.81 112.406 160.242C111.99 159.669 111.401 159.383 110.641 159.383ZM119.422 166.086C119.651 166.086 119.872 166.07 120.086 166.039C120.299 166.003 120.469 165.966 120.594 165.93V166.922C120.453 166.99 120.245 167.044 119.969 167.086C119.698 167.133 119.453 167.156 119.234 167.156C117.578 167.156 116.75 166.284 116.75 164.539V159.445H115.523V158.82L116.75 158.281L117.297 156.453H118.047V158.438H120.531V159.445H118.047V164.484C118.047 165 118.169 165.396 118.414 165.672C118.659 165.948 118.995 166.086 119.422 166.086ZM123.609 167H122.312V158.438H123.609V167ZM122.203 156.117C122.203 155.82 122.276 155.604 122.422 155.469C122.568 155.328 122.75 155.258 122.969 155.258C123.177 155.258 123.357 155.328 123.508 155.469C123.659 155.609 123.734 155.826 123.734 156.117C123.734 156.409 123.659 156.628 123.508 156.773C123.357 156.914 123.177 156.984 122.969 156.984C122.75 156.984 122.568 156.914 122.422 156.773C122.276 156.628 122.203 156.409 122.203 156.117ZM133.75 162.711C133.75 164.107 133.398 165.198 132.695 165.984C131.992 166.766 131.021 167.156 129.781 167.156C129.016 167.156 128.336 166.977 127.742 166.617C127.148 166.258 126.69 165.742 126.367 165.07C126.044 164.398 125.883 163.612 125.883 162.711C125.883 161.315 126.232 160.229 126.93 159.453C127.628 158.672 128.596 158.281 129.836 158.281C131.034 158.281 131.984 158.68 132.688 159.477C133.396 160.273 133.75 161.352 133.75 162.711ZM127.227 162.711C127.227 163.805 127.445 164.638 127.883 165.211C128.32 165.784 128.964 166.07 129.812 166.07C130.661 166.07 131.305 165.786 131.742 165.219C132.185 164.646 132.406 163.81 132.406 162.711C132.406 161.622 132.185 160.797 131.742 160.234C131.305 159.667 130.656 159.383 129.797 159.383C128.948 159.383 128.307 159.661 127.875 160.219C127.443 160.776 127.227 161.607 127.227 162.711ZM141.891 167V161.461C141.891 160.763 141.732 160.242 141.414 159.898C141.096 159.555 140.599 159.383 139.922 159.383C139.026 159.383 138.37 159.625 137.953 160.109C137.536 160.594 137.328 161.393 137.328 162.508V167H136.031V158.438H137.086L137.297 159.609H137.359C137.625 159.188 137.997 158.862 138.477 158.633C138.956 158.398 139.49 158.281 140.078 158.281C141.109 158.281 141.885 158.531 142.406 159.031C142.927 159.526 143.188 160.32 143.188 161.414V167H141.891ZM154.227 167H152.961V158.859C152.961 158.182 152.982 157.542 153.023 156.938C152.914 157.047 152.792 157.161 152.656 157.281C152.521 157.401 151.901 157.909 150.797 158.805L150.109 157.914L153.133 155.578H154.227V167Z" fill="#474D66"/>
<rect x="65.5" y="181.5" width="15" height="15" rx="3.5" fill="white" stroke="#D8DAE5"/>
<rect x="64.5" y="180.5" width="17" height="17" stroke="#3366FF"/>
<path d="M104.469 189.273C104.469 190.154 104.357 190.956 104.133 191.68C103.909 192.398 103.576 193.018 103.133 193.539C102.695 194.055 102.151 194.453 101.5 194.734C100.849 195.016 100.094 195.156 99.2344 195.156C98.349 195.156 97.5755 195.016 96.9141 194.734C96.2578 194.453 95.7109 194.052 95.2734 193.531C94.8411 193.01 94.5156 192.388 94.2969 191.664C94.0833 190.94 93.9766 190.138 93.9766 189.258C93.9766 188.091 94.1693 187.068 94.5547 186.188C94.9401 185.307 95.5234 184.622 96.3047 184.133C97.0911 183.643 98.0755 183.398 99.2578 183.398C100.388 183.398 101.339 183.641 102.109 184.125C102.885 184.609 103.471 185.292 103.867 186.172C104.268 187.047 104.469 188.081 104.469 189.273ZM95.375 189.273C95.375 190.242 95.513 191.081 95.7891 191.789C96.0651 192.497 96.487 193.044 97.0547 193.43C97.6276 193.815 98.3542 194.008 99.2344 194.008C100.12 194.008 100.844 193.815 101.406 193.43C101.974 193.044 102.393 192.497 102.664 191.789C102.935 191.081 103.07 190.242 103.07 189.273C103.07 187.799 102.76 186.648 102.141 185.82C101.526 184.987 100.565 184.57 99.2578 184.57C98.3724 184.57 97.6432 184.76 97.0703 185.141C96.4974 185.521 96.0703 186.062 95.7891 186.766C95.513 187.464 95.375 188.299 95.375 189.273ZM110.844 186.281C111.911 186.281 112.763 186.648 113.398 187.383C114.034 188.117 114.352 189.221 114.352 190.695C114.352 191.669 114.206 192.487 113.914 193.148C113.622 193.81 113.211 194.31 112.68 194.648C112.154 194.987 111.531 195.156 110.812 195.156C110.359 195.156 109.961 195.096 109.617 194.977C109.273 194.857 108.979 194.695 108.734 194.492C108.49 194.289 108.286 194.068 108.125 193.828H108.031C108.047 194.031 108.065 194.276 108.086 194.562C108.112 194.849 108.125 195.099 108.125 195.312V198.828H106.82V186.438H107.891L108.062 187.703H108.125C108.292 187.443 108.495 187.206 108.734 186.992C108.974 186.773 109.266 186.602 109.609 186.477C109.958 186.346 110.37 186.281 110.844 186.281ZM110.617 187.375C110.023 187.375 109.544 187.49 109.18 187.719C108.82 187.948 108.557 188.292 108.391 188.75C108.224 189.203 108.135 189.773 108.125 190.461V190.711C108.125 191.435 108.203 192.047 108.359 192.547C108.521 193.047 108.784 193.427 109.148 193.688C109.518 193.948 110.013 194.078 110.633 194.078C111.164 194.078 111.607 193.935 111.961 193.648C112.315 193.362 112.578 192.964 112.75 192.453C112.927 191.938 113.016 191.346 113.016 190.68C113.016 189.669 112.818 188.867 112.422 188.273C112.031 187.674 111.43 187.375 110.617 187.375ZM119.383 194.094C119.596 194.094 119.815 194.076 120.039 194.039C120.263 194.003 120.445 193.958 120.586 193.906V194.914C120.435 194.982 120.224 195.039 119.953 195.086C119.688 195.133 119.427 195.156 119.172 195.156C118.719 195.156 118.307 195.078 117.938 194.922C117.568 194.76 117.271 194.49 117.047 194.109C116.828 193.729 116.719 193.203 116.719 192.531V187.453H115.5V186.82L116.727 186.312L117.242 184.453H118.023V186.438H120.531V187.453H118.023V192.492C118.023 193.029 118.146 193.43 118.391 193.695C118.641 193.961 118.971 194.094 119.383 194.094ZM123.617 186.438V195H122.32V186.438H123.617ZM122.984 183.234C123.198 183.234 123.38 183.305 123.531 183.445C123.688 183.581 123.766 183.794 123.766 184.086C123.766 184.372 123.688 184.586 123.531 184.727C123.38 184.867 123.198 184.938 122.984 184.938C122.76 184.938 122.573 184.867 122.422 184.727C122.276 184.586 122.203 184.372 122.203 184.086C122.203 183.794 122.276 183.581 122.422 183.445C122.573 183.305 122.76 183.234 122.984 183.234ZM133.75 190.703C133.75 191.406 133.659 192.034 133.477 192.586C133.294 193.138 133.031 193.604 132.688 193.984C132.344 194.365 131.927 194.656 131.438 194.859C130.953 195.057 130.404 195.156 129.789 195.156C129.216 195.156 128.69 195.057 128.211 194.859C127.737 194.656 127.326 194.365 126.977 193.984C126.633 193.604 126.365 193.138 126.172 192.586C125.984 192.034 125.891 191.406 125.891 190.703C125.891 189.766 126.049 188.969 126.367 188.312C126.685 187.651 127.138 187.148 127.727 186.805C128.32 186.456 129.026 186.281 129.844 186.281C130.625 186.281 131.307 186.456 131.891 186.805C132.479 187.154 132.935 187.659 133.258 188.32C133.586 188.977 133.75 189.771 133.75 190.703ZM127.234 190.703C127.234 191.391 127.326 191.987 127.508 192.492C127.69 192.997 127.971 193.388 128.352 193.664C128.732 193.94 129.221 194.078 129.82 194.078C130.414 194.078 130.901 193.94 131.281 193.664C131.667 193.388 131.951 192.997 132.133 192.492C132.315 191.987 132.406 191.391 132.406 190.703C132.406 190.021 132.315 189.432 132.133 188.938C131.951 188.438 131.669 188.052 131.289 187.781C130.909 187.51 130.417 187.375 129.812 187.375C128.922 187.375 128.268 187.669 127.852 188.258C127.44 188.846 127.234 189.661 127.234 190.703ZM140.047 186.281C141.062 186.281 141.831 186.531 142.352 187.031C142.872 187.526 143.133 188.323 143.133 189.422V195H141.852V189.508C141.852 188.794 141.688 188.26 141.359 187.906C141.036 187.552 140.539 187.375 139.867 187.375C138.919 187.375 138.253 187.643 137.867 188.18C137.482 188.716 137.289 189.495 137.289 190.516V195H135.992V186.438H137.039L137.234 187.672H137.305C137.487 187.37 137.719 187.117 138 186.914C138.281 186.706 138.596 186.549 138.945 186.445C139.294 186.336 139.661 186.281 140.047 186.281ZM157.438 192.352H155.727V195H154.461V192.352H148.938V191.258L154.375 183.516H155.727V191.18H157.438V192.352ZM154.461 191.18V187.445C154.461 187.159 154.464 186.901 154.469 186.672C154.474 186.438 154.482 186.221 154.492 186.023C154.503 185.82 154.51 185.628 154.516 185.445C154.526 185.263 154.534 185.083 154.539 184.906H154.477C154.378 185.115 154.263 185.336 154.133 185.57C154.008 185.799 153.88 186.005 153.75 186.188L150.227 191.18H154.461Z" fill="#474D66"/>
<circle cx="71" cy="15" r="14.5" fill="#101840" stroke="#101840"/>
<path d="M71.957 20H70.1465V15.043L70.1641 14.2285L70.1934 13.3379C69.8926 13.6387 69.6836 13.8359 69.5664 13.9297L68.582 14.7207L67.709 13.6309L70.4688 11.4336H71.957V20Z" fill="white"/>
<path d="M71 30V66" stroke="#101840" stroke-width="2"/>
<circle cx="71" cy="64" r="2.5" fill="#101840" stroke="#101840"/>
<circle cx="210" cy="162" r="14.5" transform="rotate(90 210 162)" fill="#101840" stroke="#101840"/>
<path d="M212.635 159.85C212.635 160.385 212.473 160.84 212.148 161.215C211.824 161.59 211.369 161.848 210.783 161.988V162.023C211.475 162.109 211.998 162.32 212.354 162.656C212.709 162.988 212.887 163.438 212.887 164.004C212.887 164.828 212.588 165.471 211.99 165.932C211.393 166.389 210.539 166.617 209.43 166.617C208.5 166.617 207.676 166.463 206.957 166.154V164.613C207.289 164.781 207.654 164.918 208.053 165.023C208.451 165.129 208.846 165.182 209.236 165.182C209.834 165.182 210.275 165.08 210.561 164.877C210.846 164.674 210.988 164.348 210.988 163.898C210.988 163.496 210.824 163.211 210.496 163.043C210.168 162.875 209.645 162.791 208.926 162.791H208.275V161.402H208.938C209.602 161.402 210.086 161.316 210.391 161.145C210.699 160.969 210.854 160.67 210.854 160.248C210.854 159.6 210.447 159.275 209.635 159.275C209.354 159.275 209.066 159.322 208.773 159.416C208.484 159.51 208.162 159.672 207.807 159.902L206.969 158.654C207.75 158.092 208.682 157.811 209.764 157.811C210.65 157.811 211.35 157.99 211.861 158.35C212.377 158.709 212.635 159.209 212.635 159.85Z" fill="white"/>
<path d="M195 162H159" stroke="#101840" stroke-width="2"/>
<circle cx="161" cy="162" r="2.5" transform="rotate(90 161 162)" fill="#101840" stroke="#101840"/>
<circle cx="15" cy="105" r="14.5" transform="rotate(-90 15 105)" fill="#101840" stroke="#101840"/>
<path d="M17.9687 110.5H11.9805V109.24L14.1309 107.066C14.7676 106.414 15.1836 105.963 15.3789 105.713C15.5742 105.459 15.7148 105.225 15.8008 105.01C15.8867 104.795 15.9297 104.572 15.9297 104.342C15.9297 103.998 15.834 103.742 15.6426 103.574C15.4551 103.406 15.2031 103.322 14.8867 103.322C14.5547 103.322 14.2324 103.398 13.9199 103.551C13.6074 103.703 13.2812 103.92 12.9414 104.201L11.957 103.035C12.3789 102.676 12.7285 102.422 13.0059 102.273C13.2832 102.125 13.5859 102.012 13.9141 101.934C14.2422 101.852 14.6094 101.811 15.0156 101.811C15.5508 101.811 16.0234 101.908 16.4336 102.104C16.8438 102.299 17.1621 102.572 17.3887 102.924C17.6152 103.275 17.7285 103.678 17.7285 104.131C17.7285 104.525 17.6582 104.896 17.5176 105.244C17.3809 105.588 17.166 105.941 16.873 106.305C16.584 106.668 16.0723 107.186 15.3379 107.857L14.2363 108.895V108.977H17.9687V110.5Z" fill="white"/>
<path d="M30 105H66" stroke="#101840" stroke-width="2"/>
<circle cx="64" cy="105" r="2.5" transform="rotate(-90 64 105)" fill="#101840" stroke="#101840"/>
</svg>
