<svg width="484" height="44" viewBox="0 0 484 44" fill="none" xmlns="http://www.w3.org/2000/svg">
<rect width="484" height="44" rx="4" fill="#FFEBE6"/>
<path d="M27 25H29V27H27V25ZM27 17H29V23H27V17ZM27.99 12C22.47 12 18 16.48 18 22C18 27.52 22.47 32 27.99 32C33.52 32 38 27.52 38 22C38 16.48 33.52 12 27.99 12ZM28 30C23.58 30 20 26.42 20 22C20 17.58 23.58 14 28 14C32.42 14 36 17.58 36 22C36 26.42 32.42 30 28 30Z" fill="#DE350B"/>
<g clip-path="url(#clip0_332_8125)">
<path d="M55.9688 28H49.5V16.5781H55.9688V18.1562H51.375V21.2578H55.6797V22.8281H51.375V26.4141H55.9688V28ZM62.6168 19.1875C62.7626 19.1875 62.9215 19.1953 63.0934 19.2109C63.2653 19.2266 63.4137 19.2474 63.5387 19.2734L63.3668 20.9922C63.2574 20.9609 63.122 20.9375 62.9606 20.9219C62.8043 20.9062 62.6637 20.8984 62.5387 20.8984C62.2106 20.8984 61.8981 20.9531 61.6012 21.0625C61.3043 21.1667 61.0413 21.3281 60.8121 21.5469C60.583 21.7604 60.4033 22.0286 60.2731 22.3516C60.1429 22.6745 60.0778 23.0495 60.0778 23.4766V28H58.234V19.3516H59.6715L59.9215 20.875H60.0074C60.1793 20.5677 60.3929 20.2865 60.6481 20.0312C60.9033 19.776 61.1949 19.5729 61.5231 19.4219C61.8564 19.2656 62.221 19.1875 62.6168 19.1875ZM69.5071 19.1875C69.6529 19.1875 69.8118 19.1953 69.9836 19.2109C70.1555 19.2266 70.3039 19.2474 70.4289 19.2734L70.2571 20.9922C70.1477 20.9609 70.0123 20.9375 69.8508 20.9219C69.6946 20.9062 69.5539 20.8984 69.4289 20.8984C69.1008 20.8984 68.7883 20.9531 68.4914 21.0625C68.1946 21.1667 67.9315 21.3281 67.7024 21.5469C67.4732 21.7604 67.2935 22.0286 67.1633 22.3516C67.0331 22.6745 66.968 23.0495 66.968 23.4766V28H65.1243V19.3516H66.5618L66.8118 20.875H66.8977C67.0696 20.5677 67.2831 20.2865 67.5383 20.0312C67.7935 19.776 68.0852 19.5729 68.4133 19.4219C68.7466 19.2656 69.1112 19.1875 69.5071 19.1875ZM79.6707 23.6562C79.6707 24.375 79.577 25.013 79.3895 25.5703C79.202 26.1276 78.9286 26.599 78.5692 26.9844C78.2098 27.3646 77.7775 27.6562 77.2723 27.8594C76.7671 28.0573 76.1968 28.1562 75.5614 28.1562C74.9676 28.1562 74.4234 28.0573 73.9286 27.8594C73.4338 27.6562 73.0041 27.3646 72.6395 26.9844C72.2801 26.599 72.0015 26.1276 71.8036 25.5703C71.6056 25.013 71.5067 24.375 71.5067 23.6562C71.5067 22.7031 71.6707 21.8958 71.9989 21.2344C72.3322 20.5677 72.8062 20.0599 73.4207 19.7109C74.0353 19.362 74.7671 19.1875 75.6161 19.1875C76.4129 19.1875 77.1161 19.362 77.7254 19.7109C78.3348 20.0599 78.8114 20.5677 79.1551 21.2344C79.4989 21.901 79.6707 22.7083 79.6707 23.6562ZM73.3973 23.6562C73.3973 24.2865 73.4728 24.8255 73.6239 25.2734C73.7801 25.7214 74.0197 26.0651 74.3426 26.3047C74.6655 26.5391 75.0822 26.6562 75.5926 26.6562C76.103 26.6562 76.5197 26.5391 76.8426 26.3047C77.1655 26.0651 77.4025 25.7214 77.5536 25.2734C77.7046 24.8255 77.7801 24.2865 77.7801 23.6562C77.7801 23.026 77.7046 22.4922 77.5536 22.0547C77.4025 21.612 77.1655 21.276 76.8426 21.0469C76.5197 20.8125 76.1004 20.6953 75.5848 20.6953C74.8244 20.6953 74.2697 20.9505 73.9207 21.4609C73.5718 21.9714 73.3973 22.7031 73.3973 23.6562ZM86.1469 19.1875C86.2928 19.1875 86.4516 19.1953 86.6235 19.2109C86.7954 19.2266 86.9438 19.2474 87.0688 19.2734L86.8969 20.9922C86.7876 20.9609 86.6521 20.9375 86.4907 20.9219C86.3344 20.9062 86.1938 20.8984 86.0688 20.8984C85.7407 20.8984 85.4282 20.9531 85.1313 21.0625C84.8344 21.1667 84.5714 21.3281 84.3423 21.5469C84.1131 21.7604 83.9334 22.0286 83.8032 22.3516C83.673 22.6745 83.6079 23.0495 83.6079 23.4766V28H81.7641V19.3516H83.2016L83.4516 20.875H83.5376C83.7094 20.5677 83.923 20.2865 84.1782 20.0312C84.4334 19.776 84.7251 19.5729 85.0532 19.4219C85.3865 19.2656 85.7511 19.1875 86.1469 19.1875ZM102.568 19.1875C103.537 19.1875 104.266 19.4375 104.756 19.9375C105.25 20.4375 105.498 21.2396 105.498 22.3438V28H103.662V22.6719C103.662 22.0156 103.534 21.5208 103.279 21.1875C103.024 20.8542 102.636 20.6875 102.115 20.6875C101.386 20.6875 100.86 20.9219 100.537 21.3906C100.219 21.8542 100.06 22.5286 100.06 23.4141V28H98.2243V22.6719C98.2243 22.2344 98.167 21.8698 98.0524 21.5781C97.9431 21.2812 97.7738 21.0599 97.5446 20.9141C97.3155 20.763 97.0264 20.6875 96.6774 20.6875C96.1722 20.6875 95.7686 20.8021 95.4665 21.0312C95.1696 21.2604 94.9561 21.599 94.8259 22.0469C94.6957 22.4896 94.6306 23.0339 94.6306 23.6797V28H92.7946V19.3516H94.2243L94.4821 20.5156H94.5837C94.7608 20.2135 94.9795 19.9661 95.2399 19.7734C95.5056 19.5755 95.7998 19.4297 96.1227 19.3359C96.4457 19.237 96.7816 19.1875 97.1306 19.1875C97.7764 19.1875 98.3207 19.3021 98.7634 19.5312C99.2061 19.7552 99.5368 20.099 99.7556 20.5625H99.8962C100.167 20.0938 100.545 19.7474 101.029 19.5234C101.513 19.2995 102.026 19.1875 102.568 19.1875ZM111.49 19.1875C112.26 19.1875 112.922 19.3464 113.474 19.6641C114.026 19.9818 114.451 20.4323 114.747 21.0156C115.044 21.599 115.193 22.2969 115.193 23.1094V24.0938H109.419C109.44 24.9323 109.664 25.5781 110.091 26.0312C110.523 26.4844 111.128 26.7109 111.904 26.7109C112.456 26.7109 112.951 26.6589 113.388 26.5547C113.831 26.4453 114.286 26.2865 114.755 26.0781V27.5703C114.323 27.7734 113.883 27.9219 113.435 28.0156C112.987 28.1094 112.451 28.1562 111.826 28.1562C110.977 28.1562 110.229 27.9922 109.583 27.6641C108.943 27.3307 108.44 26.8359 108.076 26.1797C107.716 25.5234 107.536 24.7083 107.536 23.7344C107.536 22.7656 107.701 21.9427 108.029 21.2656C108.357 20.5885 108.818 20.0729 109.411 19.7188C110.005 19.3646 110.698 19.1875 111.49 19.1875ZM111.49 20.5703C110.911 20.5703 110.443 20.7578 110.083 21.1328C109.729 21.5078 109.521 22.0573 109.458 22.7812H113.396C113.391 22.349 113.318 21.9661 113.177 21.6328C113.042 21.2995 112.833 21.0391 112.552 20.8516C112.276 20.6641 111.922 20.5703 111.49 20.5703ZM123.06 25.5312C123.06 26.099 122.921 26.5781 122.645 26.9688C122.369 27.3594 121.966 27.6562 121.435 27.8594C120.908 28.0573 120.263 28.1562 119.497 28.1562C118.893 28.1562 118.372 28.112 117.935 28.0234C117.502 27.9401 117.093 27.8099 116.708 27.6328V26.0469C117.119 26.2396 117.58 26.4062 118.091 26.5469C118.606 26.6875 119.093 26.7578 119.552 26.7578C120.156 26.7578 120.591 26.6641 120.856 26.4766C121.122 26.2839 121.255 26.0286 121.255 25.7109C121.255 25.5234 121.2 25.3568 121.091 25.2109C120.987 25.0599 120.789 24.9062 120.497 24.75C120.211 24.5885 119.789 24.3958 119.231 24.1719C118.685 23.9531 118.224 23.7344 117.849 23.5156C117.474 23.2969 117.19 23.0339 116.997 22.7266C116.804 22.4141 116.708 22.0156 116.708 21.5312C116.708 20.7656 117.01 20.1849 117.614 19.7891C118.224 19.388 119.028 19.1875 120.028 19.1875C120.56 19.1875 121.06 19.2422 121.528 19.3516C122.002 19.4557 122.466 19.6094 122.919 19.8125L122.341 21.1953C121.95 21.0234 121.557 20.8828 121.161 20.7734C120.77 20.6589 120.372 20.6016 119.966 20.6016C119.492 20.6016 119.13 20.6745 118.88 20.8203C118.635 20.9661 118.513 21.1745 118.513 21.4453C118.513 21.6484 118.573 21.8203 118.692 21.9609C118.812 22.1016 119.018 22.2422 119.31 22.3828C119.606 22.5234 120.018 22.6979 120.544 22.9062C121.06 23.1042 121.505 23.3125 121.88 23.5312C122.26 23.7448 122.552 24.0078 122.755 24.3203C122.958 24.6328 123.06 25.0365 123.06 25.5312ZM130.84 25.5312C130.84 26.099 130.702 26.5781 130.426 26.9688C130.15 27.3594 129.747 27.6562 129.215 27.8594C128.689 28.0573 128.044 28.1562 127.278 28.1562C126.674 28.1562 126.153 28.112 125.715 28.0234C125.283 27.9401 124.874 27.8099 124.489 27.6328V26.0469C124.9 26.2396 125.361 26.4062 125.872 26.5469C126.387 26.6875 126.874 26.7578 127.333 26.7578C127.937 26.7578 128.372 26.6641 128.637 26.4766C128.903 26.2839 129.036 26.0286 129.036 25.7109C129.036 25.5234 128.981 25.3568 128.872 25.2109C128.767 25.0599 128.57 24.9062 128.278 24.75C127.991 24.5885 127.57 24.3958 127.012 24.1719C126.465 23.9531 126.004 23.7344 125.629 23.5156C125.254 23.2969 124.971 23.0339 124.778 22.7266C124.585 22.4141 124.489 22.0156 124.489 21.5312C124.489 20.7656 124.791 20.1849 125.395 19.7891C126.004 19.388 126.809 19.1875 127.809 19.1875C128.34 19.1875 128.84 19.2422 129.309 19.3516C129.783 19.4557 130.247 19.6094 130.7 19.8125L130.122 21.1953C129.731 21.0234 129.338 20.8828 128.942 20.7734C128.551 20.6589 128.153 20.6016 127.747 20.6016C127.273 20.6016 126.911 20.6745 126.661 20.8203C126.416 20.9661 126.294 21.1745 126.294 21.4453C126.294 21.6484 126.353 21.8203 126.473 21.9609C126.593 22.1016 126.799 22.2422 127.09 22.3828C127.387 22.5234 127.799 22.6979 128.325 22.9062C128.84 23.1042 129.286 23.3125 129.661 23.5312C130.041 23.7448 130.333 24.0078 130.536 24.3203C130.739 24.6328 130.84 25.0365 130.84 25.5312ZM136.199 19.1875C137.293 19.1875 138.119 19.4297 138.676 19.9141C139.238 20.3984 139.52 21.1536 139.52 22.1797V28H138.215L137.863 26.7734H137.801C137.556 27.0859 137.304 27.3438 137.043 27.5469C136.783 27.75 136.481 27.901 136.137 28C135.798 28.1042 135.384 28.1562 134.895 28.1562C134.379 28.1562 133.918 28.0625 133.512 27.875C133.106 27.6823 132.785 27.3906 132.551 27C132.317 26.6094 132.199 26.1146 132.199 25.5156C132.199 24.625 132.53 23.9557 133.192 23.5078C133.858 23.0599 134.863 22.8125 136.207 22.7656L137.707 22.7109V22.2578C137.707 21.6589 137.567 21.2318 137.285 20.9766C137.009 20.7214 136.619 20.5938 136.113 20.5938C135.681 20.5938 135.262 20.6562 134.856 20.7812C134.449 20.9062 134.054 21.0599 133.668 21.2422L133.074 19.9453C133.496 19.7214 133.975 19.5391 134.512 19.3984C135.054 19.2578 135.616 19.1875 136.199 19.1875ZM137.699 23.8672L136.582 23.9062C135.666 23.9375 135.022 24.0938 134.652 24.375C134.283 24.6562 134.098 25.0417 134.098 25.5312C134.098 25.9583 134.225 26.2708 134.481 26.4688C134.736 26.6615 135.072 26.7578 135.488 26.7578C136.124 26.7578 136.65 26.5781 137.067 26.2188C137.488 25.8542 137.699 25.3203 137.699 24.6172V23.8672ZM144.543 31.8438C143.371 31.8438 142.472 31.6328 141.847 31.2109C141.222 30.7891 140.91 30.1979 140.91 29.4375C140.91 28.9062 141.077 28.4557 141.41 28.0859C141.743 27.7214 142.22 27.4688 142.84 27.3281C142.605 27.224 142.402 27.0625 142.23 26.8438C142.064 26.6198 141.98 26.3724 141.98 26.1016C141.98 25.7786 142.071 25.5026 142.254 25.2734C142.436 25.0443 142.709 24.8229 143.074 24.6094C142.621 24.4167 142.256 24.1042 141.98 23.6719C141.709 23.2344 141.574 22.7214 141.574 22.1328C141.574 21.5078 141.707 20.9766 141.972 20.5391C142.238 20.0964 142.626 19.7604 143.136 19.5312C143.647 19.2969 144.264 19.1797 144.988 19.1797C145.144 19.1797 145.314 19.1901 145.496 19.2109C145.683 19.2266 145.855 19.2474 146.011 19.2734C146.173 19.2943 146.295 19.3177 146.379 19.3438H149.371V20.3672L147.902 20.6406C148.043 20.8385 148.155 21.0651 148.238 21.3203C148.321 21.5703 148.363 21.8438 148.363 22.1406C148.363 23.0365 148.053 23.7422 147.433 24.2578C146.819 24.7682 145.97 25.0234 144.886 25.0234C144.626 25.013 144.373 24.9922 144.129 24.9609C143.941 25.0755 143.798 25.2031 143.699 25.3438C143.6 25.4792 143.551 25.6328 143.551 25.8047C143.551 25.9453 143.6 26.0599 143.699 26.1484C143.798 26.2318 143.944 26.2943 144.136 26.3359C144.334 26.3776 144.574 26.3984 144.855 26.3984H146.347C147.295 26.3984 148.019 26.599 148.519 27C149.019 27.401 149.269 27.9896 149.269 28.7656C149.269 29.75 148.863 30.5078 148.051 31.0391C147.238 31.5755 146.069 31.8438 144.543 31.8438ZM144.613 30.5547C145.254 30.5547 145.793 30.4922 146.23 30.3672C146.668 30.2422 146.998 30.0625 147.222 29.8281C147.446 29.599 147.558 29.3255 147.558 29.0078C147.558 28.7266 147.488 28.5104 147.347 28.3594C147.207 28.2083 146.996 28.1042 146.715 28.0469C146.433 27.9896 146.084 27.9609 145.668 27.9609H144.308C143.97 27.9609 143.67 28.013 143.41 28.1172C143.15 28.2266 142.946 28.3828 142.801 28.5859C142.66 28.7891 142.59 29.0339 142.59 29.3203C142.59 29.7161 142.764 30.0208 143.113 30.2344C143.467 30.4479 143.967 30.5547 144.613 30.5547ZM144.972 23.8203C145.509 23.8203 145.907 23.6745 146.168 23.3828C146.428 23.0859 146.558 22.6693 146.558 22.1328C146.558 21.5495 146.423 21.112 146.152 20.8203C145.886 20.5286 145.491 20.3828 144.965 20.3828C144.449 20.3828 144.056 20.5312 143.785 20.8281C143.519 21.125 143.386 21.5651 143.386 22.1484C143.386 22.6745 143.519 23.0859 143.785 23.3828C144.056 23.6745 144.452 23.8203 144.972 23.8203ZM154.378 19.1875C155.149 19.1875 155.811 19.3464 156.363 19.6641C156.915 19.9818 157.339 20.4323 157.636 21.0156C157.933 21.599 158.081 22.2969 158.081 23.1094V24.0938H152.308C152.329 24.9323 152.553 25.5781 152.98 26.0312C153.412 26.4844 154.016 26.7109 154.792 26.7109C155.344 26.7109 155.839 26.6589 156.277 26.5547C156.719 26.4453 157.175 26.2865 157.644 26.0781V27.5703C157.212 27.7734 156.772 27.9219 156.324 28.0156C155.876 28.1094 155.339 28.1562 154.714 28.1562C153.865 28.1562 153.118 27.9922 152.472 27.6641C151.831 27.3307 151.329 26.8359 150.964 26.1797C150.605 25.5234 150.425 24.7083 150.425 23.7344C150.425 22.7656 150.589 21.9427 150.917 21.2656C151.245 20.5885 151.706 20.0729 152.3 19.7188C152.894 19.3646 153.587 19.1875 154.378 19.1875ZM154.378 20.5703C153.8 20.5703 153.331 20.7578 152.972 21.1328C152.618 21.5078 152.41 22.0573 152.347 22.7812H156.285C156.279 22.349 156.206 21.9661 156.066 21.6328C155.93 21.2995 155.722 21.0391 155.441 20.8516C155.165 20.6641 154.811 20.5703 154.378 20.5703ZM159.87 27.0312C159.87 26.6042 159.979 26.3047 160.198 26.1328C160.422 25.9557 160.693 25.8672 161.011 25.8672C161.328 25.8672 161.599 25.9557 161.823 26.1328C162.052 26.3047 162.167 26.6042 162.167 27.0312C162.167 27.4479 162.052 27.75 161.823 27.9375C161.599 28.1198 161.328 28.2109 161.011 28.2109C160.693 28.2109 160.422 28.1198 160.198 27.9375C159.979 27.75 159.87 27.4479 159.87 27.0312Z" fill="#BF2600"/>
</g>
<defs>
<clipPath id="clip0_332_8125">
<rect width="116" height="20" fill="white" transform="translate(48 12)"/>
</clipPath>
</defs>
</svg>
