<svg width="136" height="139" viewBox="0 0 136 139" fill="none" xmlns="http://www.w3.org/2000/svg">
<circle cx="60" cy="124" r="14.5" transform="rotate(-180 60 124)" fill="#101840" stroke="#101840"/>
<path d="M63.4688 129H57.4805V127.74L59.6309 125.566C60.2676 124.914 60.6836 124.463 60.8789 124.213C61.0742 123.959 61.2148 123.725 61.3008 123.51C61.3867 123.295 61.4297 123.072 61.4297 122.842C61.4297 122.498 61.334 122.242 61.1426 122.074C60.9551 121.906 60.7031 121.822 60.3867 121.822C60.0547 121.822 59.7324 121.898 59.4199 122.051C59.1074 122.203 58.7812 122.42 58.4414 122.701L57.457 121.535C57.8789 121.176 58.2285 120.922 58.5059 120.773C58.7832 120.625 59.0859 120.512 59.4141 120.434C59.7422 120.352 60.1094 120.311 60.5156 120.311C61.0508 120.311 61.5234 120.408 61.9336 120.604C62.3438 120.799 62.6621 121.072 62.8887 121.424C63.1152 121.775 63.2285 122.178 63.2285 122.631C63.2285 123.025 63.1582 123.396 63.0176 123.744C62.8809 124.088 62.666 124.441 62.373 124.805C62.084 125.168 61.5723 125.686 60.8379 126.357L59.7363 127.395V127.477H63.4688V129Z" fill="white"/>
<path d="M60 109L60 73" stroke="#101840" stroke-width="2"/>
<circle cx="60" cy="75" r="2.5" transform="rotate(-180 60 75)" fill="#101840" stroke="#101840"/>
<circle cx="19" cy="65" r="8" fill="#3366FF"/>
<circle cx="19" cy="65" r="4" fill="white"/>
<path d="M43.0674 60.0059C43.8877 60.0059 44.5645 60.1084 45.0977 60.3135C45.6354 60.514 46.0365 60.8216 46.3008 61.2363C46.5651 61.651 46.6973 62.1797 46.6973 62.8223C46.6973 63.3509 46.6016 63.793 46.4102 64.1484C46.2188 64.4993 45.9681 64.7842 45.6582 65.0029C45.3483 65.2217 45.0179 65.3903 44.667 65.5088L47.4082 70H46.0547L43.6074 65.8301H41.5293V70H40.3672V60.0059H43.0674ZM42.999 61.0107H41.5293V64.8457H43.1152C43.931 64.8457 44.5303 64.6794 44.9131 64.3467C45.3005 64.014 45.4941 63.5241 45.4941 62.877C45.4941 62.1979 45.2891 61.7171 44.8789 61.4346C44.4733 61.152 43.8467 61.0107 42.999 61.0107ZM51.6396 62.3848C52.5329 62.3848 53.196 62.5853 53.6289 62.9863C54.0618 63.3874 54.2783 64.0277 54.2783 64.9072V70H53.4512L53.2324 68.8926H53.1777C52.9681 69.166 52.7493 69.3962 52.5215 69.583C52.2936 69.7653 52.0293 69.9043 51.7285 70C51.4323 70.0911 51.0677 70.1367 50.6348 70.1367C50.179 70.1367 49.7734 70.057 49.418 69.8975C49.0671 69.738 48.7891 69.4964 48.584 69.1729C48.3835 68.8493 48.2832 68.4391 48.2832 67.9424C48.2832 67.195 48.5794 66.6208 49.1719 66.2197C49.7643 65.8187 50.6667 65.5999 51.8789 65.5635L53.1709 65.5088V65.0508C53.1709 64.4036 53.0319 63.9502 52.7539 63.6904C52.4759 63.4307 52.084 63.3008 51.5781 63.3008C51.1862 63.3008 50.8125 63.3577 50.457 63.4717C50.1016 63.5856 49.7643 63.7201 49.4453 63.875L49.0967 63.0137C49.4339 62.8405 49.8213 62.6924 50.2588 62.5693C50.6963 62.4463 51.1566 62.3848 51.6396 62.3848ZM53.1572 66.3086L52.0156 66.3564C51.0814 66.3929 50.4229 66.5456 50.04 66.8145C49.6572 67.0833 49.4658 67.4639 49.4658 67.9561C49.4658 68.3844 49.5957 68.7012 49.8555 68.9062C50.1152 69.1113 50.4593 69.2139 50.8877 69.2139C51.5531 69.2139 52.0977 69.0293 52.5215 68.6602C52.9453 68.291 53.1572 67.7373 53.1572 66.999V66.3086ZM59.2822 70.1367C58.3343 70.1367 57.5824 69.8132 57.0264 69.166C56.4749 68.5189 56.1992 67.5573 56.1992 66.2812C56.1992 64.9915 56.4818 64.0186 57.0469 63.3623C57.612 62.7015 58.3639 62.3711 59.3027 62.3711C59.6992 62.3711 60.0456 62.4235 60.3418 62.5283C60.638 62.6331 60.8932 62.7744 61.1074 62.9521C61.3216 63.1253 61.5016 63.3236 61.6475 63.5469H61.7295C61.7113 63.4056 61.693 63.2119 61.6748 62.9658C61.6566 62.7197 61.6475 62.5192 61.6475 62.3643V59.3633H62.7822V70H61.8662L61.6953 68.9336H61.6475C61.5062 69.1569 61.3262 69.3597 61.1074 69.542C60.8932 69.7243 60.6357 69.8701 60.335 69.9795C60.0387 70.0843 59.6878 70.1367 59.2822 70.1367ZM59.46 69.1934C60.262 69.1934 60.8294 68.9655 61.1621 68.5098C61.4948 68.054 61.6611 67.3773 61.6611 66.4795V66.2744C61.6611 65.3219 61.5016 64.5905 61.1826 64.0801C60.8682 63.5697 60.2939 63.3145 59.46 63.3145C58.7627 63.3145 58.2409 63.5833 57.8945 64.1211C57.5482 64.6543 57.375 65.3835 57.375 66.3086C57.375 67.2292 57.5459 67.9401 57.8877 68.4414C58.234 68.9427 58.7581 69.1934 59.46 69.1934ZM66.3232 62.5078V70H65.1885V62.5078H66.3232ZM65.7695 59.7051C65.9564 59.7051 66.1159 59.7666 66.248 59.8896C66.3848 60.0081 66.4531 60.195 66.4531 60.4502C66.4531 60.7008 66.3848 60.8877 66.248 61.0107C66.1159 61.1338 65.9564 61.1953 65.7695 61.1953C65.5736 61.1953 65.4095 61.1338 65.2773 61.0107C65.1497 60.8877 65.0859 60.7008 65.0859 60.4502C65.0859 60.195 65.1497 60.0081 65.2773 59.8896C65.4095 59.7666 65.5736 59.7051 65.7695 59.7051ZM75.1895 66.2402C75.1895 66.8555 75.1097 67.4046 74.9502 67.8877C74.7907 68.3708 74.5605 68.7786 74.2598 69.1113C73.959 69.444 73.5944 69.6992 73.166 69.877C72.7422 70.0501 72.2614 70.1367 71.7236 70.1367C71.2223 70.1367 70.762 70.0501 70.3428 69.877C69.9281 69.6992 69.568 69.444 69.2627 69.1113C68.9619 68.7786 68.7272 68.3708 68.5586 67.8877C68.3945 67.4046 68.3125 66.8555 68.3125 66.2402C68.3125 65.4199 68.4515 64.7227 68.7295 64.1484C69.0075 63.5697 69.404 63.1299 69.9189 62.8291C70.4385 62.5238 71.056 62.3711 71.7715 62.3711C72.4551 62.3711 73.0521 62.5238 73.5625 62.8291C74.0775 63.1344 74.4762 63.5765 74.7588 64.1553C75.0459 64.7295 75.1895 65.4245 75.1895 66.2402ZM69.4883 66.2402C69.4883 66.8418 69.568 67.3636 69.7275 67.8057C69.887 68.2477 70.1331 68.5895 70.4658 68.8311C70.7985 69.0726 71.2269 69.1934 71.751 69.1934C72.2705 69.1934 72.6966 69.0726 73.0293 68.8311C73.3665 68.5895 73.6149 68.2477 73.7744 67.8057C73.9339 67.3636 74.0137 66.8418 74.0137 66.2402C74.0137 65.6432 73.9339 65.1283 73.7744 64.6953C73.6149 64.2578 73.3688 63.9206 73.0361 63.6836C72.7035 63.4466 72.2728 63.3281 71.7441 63.3281C70.9648 63.3281 70.3929 63.5856 70.0283 64.1006C69.6683 64.6156 69.4883 65.3288 69.4883 66.2402ZM83.6729 62.3711C84.3109 62.3711 84.8577 62.5124 85.3135 62.7949C85.7692 63.0775 86.1178 63.474 86.3594 63.9844C86.6009 64.4902 86.7217 65.0827 86.7217 65.7617V66.4658H81.5469C81.5605 67.3454 81.7793 68.0153 82.2031 68.4756C82.627 68.9359 83.224 69.166 83.9941 69.166C84.4681 69.166 84.8874 69.1227 85.252 69.0361C85.6165 68.9495 85.9948 68.8219 86.3867 68.6533V69.6514C86.0085 69.82 85.6325 69.943 85.2588 70.0205C84.8896 70.098 84.4521 70.1367 83.9463 70.1367C83.2262 70.1367 82.5973 69.9909 82.0596 69.6992C81.5264 69.403 81.1117 68.9701 80.8154 68.4004C80.5192 67.8307 80.3711 67.1335 80.3711 66.3086C80.3711 65.502 80.5055 64.8047 80.7744 64.2168C81.0479 63.6243 81.4307 63.1686 81.9229 62.8496C82.4196 62.5306 83.0029 62.3711 83.6729 62.3711ZM83.6592 63.3008C83.0531 63.3008 82.57 63.499 82.21 63.8955C81.8499 64.292 81.6357 64.8457 81.5674 65.5566H85.5322C85.5277 65.11 85.457 64.7181 85.3203 64.3809C85.1882 64.0391 84.9854 63.7747 84.7119 63.5879C84.4385 63.3965 84.0876 63.3008 83.6592 63.3008ZM90.4336 66.165L87.8428 62.5078H89.1416L91.1172 65.3926L93.0859 62.5078H94.3711L91.7803 66.165L94.5146 70H93.2158L91.1172 66.9443L89.0049 70H87.7197L90.4336 66.165ZM98.7803 62.3848C99.6735 62.3848 100.337 62.5853 100.77 62.9863C101.202 63.3874 101.419 64.0277 101.419 64.9072V70H100.592L100.373 68.8926H100.318C100.109 69.166 99.89 69.3962 99.6621 69.583C99.4342 69.7653 99.1699 69.9043 98.8691 70C98.5729 70.0911 98.2083 70.1367 97.7754 70.1367C97.3197 70.1367 96.9141 70.057 96.5586 69.8975C96.2077 69.738 95.9297 69.4964 95.7246 69.1729C95.5241 68.8493 95.4238 68.4391 95.4238 67.9424C95.4238 67.195 95.7201 66.6208 96.3125 66.2197C96.9049 65.8187 97.8073 65.5999 99.0195 65.5635L100.312 65.5088V65.0508C100.312 64.4036 100.173 63.9502 99.8945 63.6904C99.6165 63.4307 99.2246 63.3008 98.7188 63.3008C98.3268 63.3008 97.9531 63.3577 97.5977 63.4717C97.2422 63.5856 96.9049 63.7201 96.5859 63.875L96.2373 63.0137C96.5745 62.8405 96.9619 62.6924 97.3994 62.5693C97.8369 62.4463 98.2972 62.3848 98.7803 62.3848ZM100.298 66.3086L99.1562 66.3564C98.222 66.3929 97.5635 66.5456 97.1807 66.8145C96.7979 67.0833 96.6064 67.4639 96.6064 67.9561C96.6064 68.3844 96.7363 68.7012 96.9961 68.9062C97.2559 69.1113 97.5999 69.2139 98.0283 69.2139C98.6937 69.2139 99.2383 69.0293 99.6621 68.6602C100.086 68.291 100.298 67.7373 100.298 66.999V66.3086ZM111.892 62.3711C112.716 62.3711 113.339 62.5876 113.758 63.0205C114.177 63.4489 114.387 64.1393 114.387 65.0918V70H113.266V65.1465C113.266 64.5404 113.133 64.0869 112.869 63.7861C112.609 63.4808 112.222 63.3281 111.707 63.3281C110.982 63.3281 110.456 63.5378 110.128 63.957C109.8 64.3763 109.636 64.9938 109.636 65.8096V70H108.508V65.1465C108.508 64.7409 108.449 64.4036 108.33 64.1348C108.216 63.8659 108.043 63.6654 107.811 63.5332C107.583 63.3965 107.293 63.3281 106.942 63.3281C106.446 63.3281 106.047 63.4307 105.746 63.6357C105.445 63.8408 105.227 64.1462 105.09 64.5518C104.958 64.9528 104.892 65.4473 104.892 66.0352V70H103.757V62.5078H104.673L104.844 63.5674H104.905C105.056 63.3076 105.245 63.0889 105.473 62.9111C105.701 62.7334 105.956 62.599 106.238 62.5078C106.521 62.4167 106.822 62.3711 107.141 62.3711C107.71 62.3711 108.187 62.4782 108.569 62.6924C108.957 62.902 109.237 63.2233 109.41 63.6562H109.472C109.718 63.2233 110.055 62.902 110.483 62.6924C110.912 62.4782 111.381 62.3711 111.892 62.3711ZM120.238 62.3711C121.173 62.3711 121.918 62.6924 122.474 63.335C123.03 63.9775 123.308 64.9437 123.308 66.2334C123.308 67.0856 123.18 67.8011 122.925 68.3799C122.67 68.9587 122.31 69.3962 121.845 69.6924C121.384 69.9886 120.84 70.1367 120.211 70.1367C119.814 70.1367 119.466 70.0843 119.165 69.9795C118.864 69.8747 118.607 69.7334 118.393 69.5557C118.178 69.3779 118.001 69.1842 117.859 68.9746H117.777C117.791 69.1523 117.807 69.3665 117.825 69.6172C117.848 69.8678 117.859 70.0866 117.859 70.2734V73.3496H116.718V62.5078H117.654L117.805 63.6152H117.859C118.005 63.3874 118.183 63.18 118.393 62.9932C118.602 62.8018 118.857 62.6514 119.158 62.542C119.464 62.4281 119.824 62.3711 120.238 62.3711ZM120.04 63.3281C119.521 63.3281 119.101 63.4284 118.782 63.6289C118.468 63.8294 118.238 64.1302 118.092 64.5312C117.946 64.9277 117.868 65.4268 117.859 66.0283V66.2471C117.859 66.8805 117.928 67.416 118.064 67.8535C118.206 68.291 118.436 68.6237 118.755 68.8516C119.078 69.0794 119.511 69.1934 120.054 69.1934C120.519 69.1934 120.906 69.068 121.216 68.8174C121.526 68.5667 121.756 68.2181 121.906 67.7715C122.061 67.3203 122.139 66.8031 122.139 66.2197C122.139 65.3356 121.965 64.6338 121.619 64.1143C121.277 63.5902 120.751 63.3281 120.04 63.3281ZM126.432 70H125.29V59.3633H126.432V70ZM131.716 62.3711C132.354 62.3711 132.901 62.5124 133.356 62.7949C133.812 63.0775 134.161 63.474 134.402 63.9844C134.644 64.4902 134.765 65.0827 134.765 65.7617V66.4658H129.59C129.604 67.3454 129.822 68.0153 130.246 68.4756C130.67 68.9359 131.267 69.166 132.037 69.166C132.511 69.166 132.93 69.1227 133.295 69.0361C133.66 68.9495 134.038 68.8219 134.43 68.6533V69.6514C134.051 69.82 133.675 69.943 133.302 70.0205C132.933 70.098 132.495 70.1367 131.989 70.1367C131.269 70.1367 130.64 69.9909 130.103 69.6992C129.569 69.403 129.155 68.9701 128.858 68.4004C128.562 67.8307 128.414 67.1335 128.414 66.3086C128.414 65.502 128.549 64.8047 128.817 64.2168C129.091 63.6243 129.474 63.1686 129.966 62.8496C130.463 62.5306 131.046 62.3711 131.716 62.3711ZM131.702 63.3008C131.096 63.3008 130.613 63.499 130.253 63.8955C129.893 64.292 129.679 64.8457 129.61 65.5566H133.575C133.571 65.11 133.5 64.7181 133.363 64.3809C133.231 64.0391 133.028 63.7747 132.755 63.5879C132.481 63.3965 132.131 63.3008 131.702 63.3008Z" fill="#474D66"/>
<circle cx="15" cy="15" r="14.5" fill="#101840" stroke="#101840"/>
<path d="M15.957 20H14.1465V15.043L14.1641 14.2285L14.1934 13.3379C13.8926 13.6387 13.6836 13.8359 13.5664 13.9297L12.582 14.7207L11.709 13.6309L14.4688 11.4336H15.957V20Z" fill="white"/>
<path d="M15 30V66" stroke="#101840" stroke-width="2"/>
<circle cx="15" cy="64" r="2.5" fill="#101840" stroke="#101840"/>
</svg>
