<svg width="119" height="25" viewBox="0 0 119 25" fill="none" xmlns="http://www.w3.org/2000/svg">
<path d="M28.9696 23.9643C26.9025 23.9643 25.239 23.3759 23.9792 22.1991C23.3579 21.6193 22.867 20.9293 22.5353 20.1698C22.2035 19.4103 22.0376 18.5965 22.0474 17.7762V8.49902H25.3545V17.652C25.3456 18.0788 25.4318 18.5026 25.6077 18.8966C25.7836 19.2905 26.0454 19.6459 26.3764 19.9402C26.7147 20.2531 27.1173 20.4986 27.56 20.6621C28.0027 20.8256 28.4762 20.9037 28.9521 20.8915C29.407 20.8952 29.8581 20.8138 30.2789 20.6521C30.6996 20.4905 31.0814 20.2517 31.4018 19.95C31.7386 19.6585 32.006 19.3042 32.1869 18.9101C32.3677 18.5159 32.4579 18.0906 32.4517 17.6618V8.49902H35.7378V17.7762C35.7532 18.6042 35.5876 19.4265 35.2511 20.1926C34.9145 20.9588 34.4142 21.6527 33.7806 22.232C33.147 22.8112 32.3936 23.2636 31.5663 23.5615C30.7391 23.8594 29.8555 23.9964 28.9696 23.9643Z" fill="#3366FF"/>
<path d="M49.9392 8.49975L45.4947 13.5927L51.6575 23.7558H47.7449L43.297 16.1458L43.1535 16.3092V23.7558H39.8499V0.0234375H43.1535V11.396L45.6977 8.48667L49.9392 8.49975Z" fill="#3366FF"/>
<path d="M58.905 20.3002C59.4533 20.7557 60.4542 20.9834 61.9077 20.9834C62.6546 20.9938 63.396 20.8621 64.0867 20.5963C64.7774 20.3304 65.4029 19.9361 65.9252 19.4372C66.0617 19.2999 66.3452 18.9927 66.7686 18.5187L70.0547 19.6138C69.5211 20.3368 68.9365 21.0259 68.3049 21.6764C67.4659 22.4618 66.4694 23.0849 65.3722 23.51C64.2751 23.9352 63.099 24.154 61.9112 24.154C60.7234 24.154 59.5473 23.9352 58.4501 23.51C57.353 23.0849 56.3564 22.4618 55.5174 21.6764C54.6607 20.9013 53.9835 19.9702 53.5278 18.9406C53.0721 17.911 52.8476 16.805 52.8682 15.691C52.8492 14.5775 53.0747 13.4721 53.531 12.4432C53.9872 11.4143 54.6645 10.4837 55.5209 9.70892C57.0903 8.247 59.1789 7.37311 61.3916 7.25263C63.6042 7.13215 65.7874 7.77344 67.528 9.05514C67.794 9.26435 68.053 9.48664 68.3084 9.70892C68.4134 9.81026 68.7144 10.1208 69.2148 10.6438L67.563 12.2031L58.905 20.3002ZM64.3924 10.804C64.0214 10.536 63.1909 10.4019 61.9007 10.4019C60.4014 10.4054 58.9647 10.9642 57.9059 11.9557C56.847 12.9472 56.2523 14.2906 56.2524 15.691C56.2524 16.8875 56.3923 17.6524 56.6793 18.0185L64.3924 10.804Z" fill="#3366FF"/>
<path d="M86.5413 9.55463V8.49877H89.8449V23.7712H86.5413V21.8588C84.9525 23.3843 83.1094 24.1471 81.012 24.1471C79.8221 24.165 78.6408 23.955 77.5411 23.5299C76.4415 23.1049 75.4467 22.4739 74.6183 21.6758C73.7639 20.9019 73.0883 19.9727 72.6333 18.9456C72.1782 17.9184 71.9534 16.815 71.9726 15.7035C71.9534 14.592 72.1782 13.4886 72.6333 12.4614C73.0883 11.4342 73.7639 10.505 74.6183 9.73115C75.4467 8.93308 76.4415 8.30206 77.5411 7.87701C78.6408 7.45197 79.8221 7.24193 81.012 7.25985C83.1071 7.26638 84.9502 8.03131 86.5413 9.55463ZM86.5413 16.8411V14.5855C86.3293 13.5891 85.797 12.6769 85.0155 11.9704C84.2233 11.2301 83.214 10.726 82.1151 10.5215C81.0162 10.3171 79.877 10.4217 78.8417 10.8219C77.8064 11.2222 76.9214 11.9002 76.2986 12.7703C75.6757 13.6403 75.3431 14.6634 75.3427 15.71C75.3464 16.7553 75.681 17.7761 76.3044 18.6442C76.9278 19.5122 77.812 20.1887 78.846 20.5884C79.8799 20.9881 81.0174 21.0933 82.1152 20.8907C83.2129 20.6881 84.222 20.1867 85.0155 19.4497C85.7965 18.7454 86.3288 17.8354 86.5413 16.8411Z" fill="#3366FF"/>
<path d="M97.929 0V23.7552H94.6254V0H97.929Z" fill="#3366FF"/>
<path d="M115.696 9.55459V8.49873H118.986V23.7711H115.696V21.8588C114.108 23.3843 112.264 24.1471 110.167 24.1471C108.977 24.165 107.796 23.9549 106.696 23.5299C105.596 23.1048 104.602 22.4738 103.773 21.6757C102.923 20.9018 102.25 19.9738 101.797 18.9485C101.344 17.9232 101.12 16.8223 101.138 15.7132C101.119 14.602 101.344 13.499 101.798 12.4719C102.252 11.4448 102.927 10.5154 103.78 9.74092C104.609 8.94285 105.603 8.31182 106.703 7.88678C107.803 7.46174 108.984 7.25169 110.174 7.26961C112.269 7.26961 114.11 8.03127 115.696 9.55459ZM115.696 16.841V14.5855C115.486 13.5886 114.953 12.6759 114.171 11.9703C113.378 11.2299 112.368 10.7257 111.269 10.5213C110.17 10.317 109.031 10.4218 107.995 10.8225C106.96 11.2232 106.075 11.9017 105.452 12.7723C104.83 13.6428 104.497 14.6663 104.498 15.7132C104.501 16.7585 104.836 17.7794 105.459 18.6474C106.083 19.5154 106.967 20.1919 108.001 20.5916C109.035 20.9914 110.172 21.0965 111.27 20.8939C112.368 20.6913 113.377 20.1899 114.171 19.4529C114.953 18.7487 115.486 17.837 115.696 16.841Z" fill="#3366FF"/>
<path d="M15.8427 9.7185C15.0151 8.91894 14.0206 8.28649 12.9209 7.86029C11.8211 7.43409 10.6394 7.2232 9.44893 7.24066C7.34918 7.24066 5.50023 8.00341 3.90208 9.5289V0H0.615967V16.8774H3.90208V14.5107C4.12529 13.5371 4.65694 12.6487 5.4279 11.961C5.94854 11.4583 6.57395 11.0605 7.26553 10.7924C7.95712 10.5242 8.7002 10.3912 9.44893 10.4017C10.1961 10.3912 10.9376 10.5242 11.6275 10.7924C12.3174 11.0606 12.9409 11.4584 13.4595 11.961C13.9855 12.4516 14.4028 13.0343 14.6875 13.6757C14.9722 14.3171 15.1187 15.0046 15.1187 15.699C15.1187 16.3933 14.9722 17.0809 14.6875 17.7223C14.4028 18.3637 13.9855 18.9464 13.4595 19.437C12.9387 19.936 12.3144 20.3305 11.6249 20.5963C10.9353 20.8622 10.1949 20.9938 9.44893 20.9832C8.63849 21.0129 7.84284 20.7744 7.20219 20.3098V23.6833C7.89917 24.0084 8.67004 24.171 9.44893 24.1573C10.6394 24.1748 11.8211 23.9639 12.9209 23.5377C14.0206 23.1115 15.0151 22.479 15.8427 21.6795C16.6968 20.9022 17.3717 19.9699 17.8261 18.9401C18.2804 17.9103 18.5046 16.8045 18.4849 15.6908C18.5022 14.5798 18.2769 13.4772 17.8226 12.4504C17.3683 11.4235 16.6946 10.4939 15.8427 9.7185Z" fill="#3366FF"/>
<path d="M4.95542 21.1435C4.95542 21.6012 4.8101 22.0487 4.53785 22.4293C4.26559 22.8099 3.87863 23.1066 3.42589 23.2817C2.97315 23.4569 2.47496 23.5027 1.99433 23.4134C1.5137 23.3241 1.07222 23.1037 0.725705 22.78C0.379191 22.4564 0.143213 22.044 0.0476096 21.595C-0.0479933 21.1461 0.00107356 20.6807 0.188605 20.2578C0.376137 19.8349 0.693711 19.4735 1.10117 19.2191C1.50863 18.9648 1.98767 18.8291 2.47771 18.8291C2.80309 18.8291 3.12528 18.889 3.42589 19.0053C3.7265 19.1216 3.99964 19.2921 4.22971 19.507C4.45979 19.7219 4.6423 19.977 4.76681 20.2578C4.89133 20.5386 4.95542 20.8396 4.95542 21.1435Z" fill="#A9C1FD"/>
</svg>
