<svg width="247" height="180" viewBox="0 0 247 180" fill="none" xmlns="http://www.w3.org/2000/svg">
<rect y="98" width="16" height="16" rx="4" fill="#F4F6FA"/>
<path d="M12 102.5C11.72 102.5 11.47 102.61 11.29 102.79L7.70865 106.38C7.31766 106.772 6.68267 106.771 6.29207 106.379L4.71 104.79C4.53 104.61 4.28 104.5 4 104.5C3.45 104.5 3 104.95 3 105.5C3 105.78 3.11 106.03 3.29 106.21L6.29 109.21C6.47 109.39 6.72 109.5 7 109.5C7.28 109.5 7.53 109.39 7.71 109.21L12.71 104.21C12.89 104.03 13 103.78 13 103.5C13 102.95 12.55 102.5 12 102.5Z" fill="#C1C4D6"/>
<path d="M33.6396 101.888C33.0882 101.888 32.5915 101.983 32.1494 102.175C31.7119 102.362 31.3382 102.635 31.0283 102.995C30.723 103.351 30.4883 103.781 30.3242 104.287C30.1602 104.793 30.0781 105.363 30.0781 105.996C30.0781 106.835 30.208 107.564 30.4678 108.184C30.7321 108.799 31.124 109.275 31.6436 109.612C32.1676 109.95 32.8216 110.118 33.6055 110.118C34.0521 110.118 34.4714 110.082 34.8633 110.009C35.2598 109.931 35.6449 109.836 36.0186 109.722V110.733C35.654 110.87 35.2712 110.97 34.8701 111.034C34.4691 111.103 33.9928 111.137 33.4414 111.137C32.4251 111.137 31.5752 110.927 30.8916 110.508C30.2126 110.084 29.7021 109.487 29.3604 108.717C29.0231 107.947 28.8545 107.037 28.8545 105.989C28.8545 105.233 28.9593 104.542 29.1689 103.918C29.3831 103.289 29.693 102.747 30.0986 102.291C30.5088 101.835 31.0101 101.484 31.6025 101.238C32.1995 100.988 32.8831 100.862 33.6533 100.862C34.1592 100.862 34.6468 100.912 35.1162 101.013C35.5856 101.113 36.0094 101.257 36.3877 101.443L35.9229 102.428C35.6038 102.282 35.2529 102.157 34.8701 102.052C34.4919 101.942 34.0817 101.888 33.6396 101.888ZM39.1494 100.363V103.542C39.1494 103.724 39.1449 103.909 39.1357 104.096C39.1266 104.278 39.1107 104.447 39.0879 104.602H39.1631C39.318 104.337 39.514 104.116 39.751 103.938C39.9925 103.756 40.266 103.619 40.5713 103.528C40.8766 103.433 41.2002 103.385 41.542 103.385C42.1436 103.385 42.6449 103.48 43.0459 103.672C43.4515 103.863 43.7546 104.16 43.9551 104.561C44.1602 104.962 44.2627 105.481 44.2627 106.119V111H43.1416V106.194C43.1416 105.57 42.998 105.103 42.7109 104.793C42.4284 104.483 41.9932 104.328 41.4053 104.328C40.8493 104.328 40.4049 104.435 40.0723 104.649C39.7441 104.859 39.5072 105.169 39.3613 105.579C39.2201 105.989 39.1494 106.491 39.1494 107.083V111H38.0146V100.363H39.1494ZM49.4854 103.371C50.1234 103.371 50.6702 103.512 51.126 103.795C51.5817 104.077 51.9303 104.474 52.1719 104.984C52.4134 105.49 52.5342 106.083 52.5342 106.762V107.466H47.3594C47.373 108.345 47.5918 109.015 48.0156 109.476C48.4395 109.936 49.0365 110.166 49.8066 110.166C50.2806 110.166 50.6999 110.123 51.0645 110.036C51.429 109.95 51.8073 109.822 52.1992 109.653V110.651C51.821 110.82 51.445 110.943 51.0713 111.021C50.7021 111.098 50.2646 111.137 49.7588 111.137C49.0387 111.137 48.4098 110.991 47.8721 110.699C47.3389 110.403 46.9242 109.97 46.6279 109.4C46.3317 108.831 46.1836 108.133 46.1836 107.309C46.1836 106.502 46.318 105.805 46.5869 105.217C46.8604 104.624 47.2432 104.169 47.7354 103.85C48.2321 103.531 48.8154 103.371 49.4854 103.371ZM49.4717 104.301C48.8656 104.301 48.3825 104.499 48.0225 104.896C47.6624 105.292 47.4482 105.846 47.3799 106.557H51.3447C51.3402 106.11 51.2695 105.718 51.1328 105.381C51.0007 105.039 50.7979 104.775 50.5244 104.588C50.251 104.396 49.9001 104.301 49.4717 104.301ZM57.4629 111.137C56.7884 111.137 56.1937 110.998 55.6787 110.72C55.1637 110.442 54.7627 110.018 54.4756 109.448C54.1885 108.879 54.0449 108.161 54.0449 107.295C54.0449 106.388 54.1953 105.647 54.4961 105.073C54.8014 104.494 55.2207 104.066 55.7539 103.788C56.2871 103.51 56.8932 103.371 57.5723 103.371C57.946 103.371 58.306 103.41 58.6523 103.487C59.0033 103.56 59.2904 103.654 59.5137 103.768L59.1719 104.718C58.944 104.627 58.6797 104.545 58.3789 104.472C58.0827 104.399 57.8047 104.362 57.5449 104.362C57.0254 104.362 56.5924 104.474 56.2461 104.697C55.9043 104.921 55.6468 105.249 55.4736 105.682C55.305 106.115 55.2207 106.648 55.2207 107.281C55.2207 107.887 55.3027 108.405 55.4668 108.833C55.6354 109.261 55.8838 109.59 56.2119 109.817C56.5446 110.041 56.9593 110.152 57.4561 110.152C57.8525 110.152 58.2103 110.111 58.5293 110.029C58.8483 109.943 59.1377 109.842 59.3975 109.729V110.74C59.1468 110.868 58.8665 110.966 58.5566 111.034C58.2513 111.103 57.8867 111.137 57.4629 111.137ZM62.3027 100.363V105.887C62.3027 106.069 62.2959 106.292 62.2822 106.557C62.2686 106.816 62.2572 107.047 62.248 107.247H62.2959C62.3916 107.129 62.5306 106.953 62.7129 106.721C62.8997 106.488 63.057 106.301 63.1846 106.16L65.6729 103.508H67.0059L63.9912 106.707L67.2246 111H65.8574L63.2119 107.452L62.3027 108.286V111H61.1748V100.363H62.3027ZM69.665 100.363V103.022C69.665 103.328 69.6559 103.624 69.6377 103.911C69.624 104.198 69.6126 104.422 69.6035 104.581H69.665C69.8701 104.244 70.1663 103.959 70.5537 103.727C70.9411 103.494 71.4355 103.378 72.0371 103.378C72.9759 103.378 73.7233 103.704 74.2793 104.355C74.8398 105.003 75.1201 105.966 75.1201 107.247C75.1201 108.09 74.9925 108.801 74.7373 109.38C74.4821 109.959 74.1221 110.396 73.6572 110.692C73.1924 110.989 72.6432 111.137 72.0098 111.137C71.4173 111.137 70.9297 111.027 70.5469 110.809C70.1686 110.585 69.877 110.314 69.6719 109.995H69.583L69.3506 111H68.5303V100.363H69.665ZM71.8525 104.328C71.3102 104.328 70.8796 104.435 70.5605 104.649C70.2415 104.859 70.0114 105.178 69.8701 105.606C69.7334 106.03 69.665 106.568 69.665 107.22V107.281C69.665 108.225 69.8223 108.947 70.1367 109.448C70.4512 109.945 71.0231 110.193 71.8525 110.193C72.5498 110.193 73.0716 109.938 73.418 109.428C73.7689 108.917 73.9443 108.188 73.9443 107.24C73.9443 106.274 73.7712 105.547 73.4248 105.06C73.083 104.572 72.5589 104.328 71.8525 104.328ZM83.5625 107.24C83.5625 107.855 83.4827 108.405 83.3232 108.888C83.1637 109.371 82.9336 109.779 82.6328 110.111C82.332 110.444 81.9674 110.699 81.5391 110.877C81.1152 111.05 80.6344 111.137 80.0967 111.137C79.5954 111.137 79.1351 111.05 78.7158 110.877C78.3011 110.699 77.9411 110.444 77.6357 110.111C77.335 109.779 77.1003 109.371 76.9316 108.888C76.7676 108.405 76.6855 107.855 76.6855 107.24C76.6855 106.42 76.8245 105.723 77.1025 105.148C77.3805 104.57 77.777 104.13 78.292 103.829C78.8115 103.524 79.429 103.371 80.1445 103.371C80.8281 103.371 81.4251 103.524 81.9355 103.829C82.4505 104.134 82.8493 104.576 83.1318 105.155C83.4189 105.729 83.5625 106.424 83.5625 107.24ZM77.8613 107.24C77.8613 107.842 77.9411 108.364 78.1006 108.806C78.2601 109.248 78.5062 109.59 78.8389 109.831C79.1715 110.073 79.5999 110.193 80.124 110.193C80.6436 110.193 81.0697 110.073 81.4023 109.831C81.7396 109.59 81.988 109.248 82.1475 108.806C82.307 108.364 82.3867 107.842 82.3867 107.24C82.3867 106.643 82.307 106.128 82.1475 105.695C81.988 105.258 81.7419 104.921 81.4092 104.684C81.0765 104.447 80.6458 104.328 80.1172 104.328C79.3379 104.328 78.766 104.586 78.4014 105.101C78.0413 105.616 77.8613 106.329 77.8613 107.24ZM87.3086 107.165L84.7178 103.508H86.0166L87.9922 106.393L89.9609 103.508H91.2461L88.6553 107.165L91.3896 111H90.0908L87.9922 107.944L85.8799 111H84.5947L87.3086 107.165ZM99.4902 111.137C98.8158 111.137 98.221 110.998 97.7061 110.72C97.1911 110.442 96.79 110.018 96.5029 109.448C96.2158 108.879 96.0723 108.161 96.0723 107.295C96.0723 106.388 96.2227 105.647 96.5234 105.073C96.8288 104.494 97.248 104.066 97.7812 103.788C98.3145 103.51 98.9206 103.371 99.5996 103.371C99.9733 103.371 100.333 103.41 100.68 103.487C101.031 103.56 101.318 103.654 101.541 103.768L101.199 104.718C100.971 104.627 100.707 104.545 100.406 104.472C100.11 104.399 99.832 104.362 99.5723 104.362C99.0527 104.362 98.6198 104.474 98.2734 104.697C97.9316 104.921 97.6742 105.249 97.501 105.682C97.3324 106.115 97.248 106.648 97.248 107.281C97.248 107.887 97.3301 108.405 97.4941 108.833C97.6628 109.261 97.9111 109.59 98.2393 109.817C98.5719 110.041 98.9867 110.152 99.4834 110.152C99.8799 110.152 100.238 110.111 100.557 110.029C100.876 109.943 101.165 109.842 101.425 109.729V110.74C101.174 110.868 100.894 110.966 100.584 111.034C100.279 111.103 99.9141 111.137 99.4902 111.137ZM104.337 100.363V103.542C104.337 103.724 104.332 103.909 104.323 104.096C104.314 104.278 104.298 104.447 104.275 104.602H104.351C104.506 104.337 104.701 104.116 104.938 103.938C105.18 103.756 105.453 103.619 105.759 103.528C106.064 103.433 106.388 103.385 106.729 103.385C107.331 103.385 107.832 103.48 108.233 103.672C108.639 103.863 108.942 104.16 109.143 104.561C109.348 104.962 109.45 105.481 109.45 106.119V111H108.329V106.194C108.329 105.57 108.186 105.103 107.898 104.793C107.616 104.483 107.181 104.328 106.593 104.328C106.037 104.328 105.592 104.435 105.26 104.649C104.932 104.859 104.695 105.169 104.549 105.579C104.408 105.989 104.337 106.491 104.337 107.083V111H103.202V100.363H104.337ZM114.673 103.371C115.311 103.371 115.858 103.512 116.313 103.795C116.769 104.077 117.118 104.474 117.359 104.984C117.601 105.49 117.722 106.083 117.722 106.762V107.466H112.547C112.561 108.345 112.779 109.015 113.203 109.476C113.627 109.936 114.224 110.166 114.994 110.166C115.468 110.166 115.887 110.123 116.252 110.036C116.617 109.95 116.995 109.822 117.387 109.653V110.651C117.008 110.82 116.632 110.943 116.259 111.021C115.89 111.098 115.452 111.137 114.946 111.137C114.226 111.137 113.597 110.991 113.06 110.699C112.526 110.403 112.112 109.97 111.815 109.4C111.519 108.831 111.371 108.133 111.371 107.309C111.371 106.502 111.506 105.805 111.774 105.217C112.048 104.624 112.431 104.169 112.923 103.85C113.42 103.531 114.003 103.371 114.673 103.371ZM114.659 104.301C114.053 104.301 113.57 104.499 113.21 104.896C112.85 105.292 112.636 105.846 112.567 106.557H116.532C116.528 106.11 116.457 105.718 116.32 105.381C116.188 105.039 115.985 104.775 115.712 104.588C115.438 104.396 115.088 104.301 114.659 104.301ZM122.65 111.137C121.976 111.137 121.381 110.998 120.866 110.72C120.351 110.442 119.95 110.018 119.663 109.448C119.376 108.879 119.232 108.161 119.232 107.295C119.232 106.388 119.383 105.647 119.684 105.073C119.989 104.494 120.408 104.066 120.941 103.788C121.475 103.51 122.081 103.371 122.76 103.371C123.133 103.371 123.493 103.41 123.84 103.487C124.191 103.56 124.478 103.654 124.701 103.768L124.359 104.718C124.132 104.627 123.867 104.545 123.566 104.472C123.27 104.399 122.992 104.362 122.732 104.362C122.213 104.362 121.78 104.474 121.434 104.697C121.092 104.921 120.834 105.249 120.661 105.682C120.493 106.115 120.408 106.648 120.408 107.281C120.408 107.887 120.49 108.405 120.654 108.833C120.823 109.261 121.071 109.59 121.399 109.817C121.732 110.041 122.147 110.152 122.644 110.152C123.04 110.152 123.398 110.111 123.717 110.029C124.036 109.943 124.325 109.842 124.585 109.729V110.74C124.334 110.868 124.054 110.966 123.744 111.034C123.439 111.103 123.074 111.137 122.65 111.137ZM127.49 100.363V105.887C127.49 106.069 127.483 106.292 127.47 106.557C127.456 106.816 127.445 107.047 127.436 107.247H127.483C127.579 107.129 127.718 106.953 127.9 106.721C128.087 106.488 128.244 106.301 128.372 106.16L130.86 103.508H132.193L129.179 106.707L132.412 111H131.045L128.399 107.452L127.49 108.286V111H126.362V100.363H127.49ZM136.603 103.371C137.241 103.371 137.787 103.512 138.243 103.795C138.699 104.077 139.048 104.474 139.289 104.984C139.531 105.49 139.651 106.083 139.651 106.762V107.466H134.477C134.49 108.345 134.709 109.015 135.133 109.476C135.557 109.936 136.154 110.166 136.924 110.166C137.398 110.166 137.817 110.123 138.182 110.036C138.546 109.95 138.924 109.822 139.316 109.653V110.651C138.938 110.82 138.562 110.943 138.188 111.021C137.819 111.098 137.382 111.137 136.876 111.137C136.156 111.137 135.527 110.991 134.989 110.699C134.456 110.403 134.041 109.97 133.745 109.4C133.449 108.831 133.301 108.133 133.301 107.309C133.301 106.502 133.435 105.805 133.704 105.217C133.978 104.624 134.36 104.169 134.853 103.85C135.349 103.531 135.933 103.371 136.603 103.371ZM136.589 104.301C135.983 104.301 135.5 104.499 135.14 104.896C134.78 105.292 134.565 105.846 134.497 106.557H138.462C138.457 106.11 138.387 105.718 138.25 105.381C138.118 105.039 137.915 104.775 137.642 104.588C137.368 104.396 137.017 104.301 136.589 104.301ZM144.245 111.137C143.297 111.137 142.545 110.813 141.989 110.166C141.438 109.519 141.162 108.557 141.162 107.281C141.162 105.992 141.445 105.019 142.01 104.362C142.575 103.701 143.327 103.371 144.266 103.371C144.662 103.371 145.008 103.424 145.305 103.528C145.601 103.633 145.856 103.774 146.07 103.952C146.285 104.125 146.465 104.324 146.61 104.547H146.692C146.674 104.406 146.656 104.212 146.638 103.966C146.619 103.72 146.61 103.519 146.61 103.364V100.363H147.745V111H146.829L146.658 109.934H146.61C146.469 110.157 146.289 110.36 146.07 110.542C145.856 110.724 145.599 110.87 145.298 110.979C145.002 111.084 144.651 111.137 144.245 111.137ZM144.423 110.193C145.225 110.193 145.792 109.965 146.125 109.51C146.458 109.054 146.624 108.377 146.624 107.479V107.274C146.624 106.322 146.465 105.59 146.146 105.08C145.831 104.57 145.257 104.314 144.423 104.314C143.726 104.314 143.204 104.583 142.857 105.121C142.511 105.654 142.338 106.383 142.338 107.309C142.338 108.229 142.509 108.94 142.851 109.441C143.197 109.943 143.721 110.193 144.423 110.193ZM156.454 111.137C155.506 111.137 154.754 110.813 154.198 110.166C153.647 109.519 153.371 108.557 153.371 107.281C153.371 105.992 153.654 105.019 154.219 104.362C154.784 103.701 155.536 103.371 156.475 103.371C156.871 103.371 157.217 103.424 157.514 103.528C157.81 103.633 158.065 103.774 158.279 103.952C158.493 104.125 158.674 104.324 158.819 104.547H158.901C158.883 104.406 158.865 104.212 158.847 103.966C158.828 103.72 158.819 103.519 158.819 103.364V100.363H159.954V111H159.038L158.867 109.934H158.819C158.678 110.157 158.498 110.36 158.279 110.542C158.065 110.724 157.808 110.87 157.507 110.979C157.211 111.084 156.86 111.137 156.454 111.137ZM156.632 110.193C157.434 110.193 158.001 109.965 158.334 109.51C158.667 109.054 158.833 108.377 158.833 107.479V107.274C158.833 106.322 158.674 105.59 158.354 105.08C158.04 104.57 157.466 104.314 156.632 104.314C155.935 104.314 155.413 104.583 155.066 105.121C154.72 105.654 154.547 106.383 154.547 107.309C154.547 108.229 154.718 108.94 155.06 109.441C155.406 109.943 155.93 110.193 156.632 110.193ZM163.495 103.508V111H162.36V103.508H163.495ZM162.941 100.705C163.128 100.705 163.288 100.767 163.42 100.89C163.557 101.008 163.625 101.195 163.625 101.45C163.625 101.701 163.557 101.888 163.42 102.011C163.288 102.134 163.128 102.195 162.941 102.195C162.745 102.195 162.581 102.134 162.449 102.011C162.322 101.888 162.258 101.701 162.258 101.45C162.258 101.195 162.322 101.008 162.449 100.89C162.581 100.767 162.745 100.705 162.941 100.705ZM170.748 108.949C170.748 109.428 170.627 109.831 170.386 110.159C170.149 110.483 169.807 110.727 169.36 110.891C168.918 111.055 168.39 111.137 167.774 111.137C167.25 111.137 166.797 111.096 166.414 111.014C166.031 110.932 165.696 110.815 165.409 110.665V109.619C165.715 109.77 166.079 109.906 166.503 110.029C166.927 110.152 167.36 110.214 167.802 110.214C168.449 110.214 168.918 110.109 169.21 109.899C169.502 109.69 169.647 109.405 169.647 109.045C169.647 108.84 169.588 108.66 169.47 108.505C169.356 108.345 169.162 108.193 168.889 108.047C168.615 107.896 168.237 107.732 167.754 107.555C167.275 107.372 166.861 107.192 166.51 107.015C166.163 106.832 165.895 106.611 165.703 106.352C165.516 106.092 165.423 105.755 165.423 105.34C165.423 104.706 165.678 104.221 166.188 103.884C166.703 103.542 167.378 103.371 168.212 103.371C168.663 103.371 169.085 103.417 169.477 103.508C169.873 103.594 170.242 103.713 170.584 103.863L170.201 104.772C169.891 104.64 169.561 104.529 169.21 104.438C168.859 104.346 168.501 104.301 168.137 104.301C167.613 104.301 167.209 104.387 166.927 104.561C166.649 104.734 166.51 104.971 166.51 105.271C166.51 105.504 166.574 105.695 166.701 105.846C166.833 105.996 167.043 106.137 167.33 106.27C167.617 106.402 167.995 106.557 168.465 106.734C168.934 106.908 169.34 107.088 169.682 107.274C170.023 107.457 170.285 107.68 170.468 107.944C170.655 108.204 170.748 108.539 170.748 108.949ZM175.376 103.385C176.269 103.385 176.932 103.585 177.365 103.986C177.798 104.387 178.015 105.028 178.015 105.907V111H177.188L176.969 109.893H176.914C176.704 110.166 176.486 110.396 176.258 110.583C176.03 110.765 175.766 110.904 175.465 111C175.169 111.091 174.804 111.137 174.371 111.137C173.915 111.137 173.51 111.057 173.154 110.897C172.803 110.738 172.525 110.496 172.32 110.173C172.12 109.849 172.02 109.439 172.02 108.942C172.02 108.195 172.316 107.621 172.908 107.22C173.501 106.819 174.403 106.6 175.615 106.563L176.907 106.509V106.051C176.907 105.404 176.768 104.95 176.49 104.69C176.212 104.431 175.82 104.301 175.314 104.301C174.923 104.301 174.549 104.358 174.193 104.472C173.838 104.586 173.501 104.72 173.182 104.875L172.833 104.014C173.17 103.84 173.558 103.692 173.995 103.569C174.433 103.446 174.893 103.385 175.376 103.385ZM176.894 107.309L175.752 107.356C174.818 107.393 174.159 107.546 173.776 107.814C173.394 108.083 173.202 108.464 173.202 108.956C173.202 109.384 173.332 109.701 173.592 109.906C173.852 110.111 174.196 110.214 174.624 110.214C175.289 110.214 175.834 110.029 176.258 109.66C176.682 109.291 176.894 108.737 176.894 107.999V107.309ZM181.487 100.363V103.022C181.487 103.328 181.478 103.624 181.46 103.911C181.446 104.198 181.435 104.422 181.426 104.581H181.487C181.692 104.244 181.989 103.959 182.376 103.727C182.763 103.494 183.258 103.378 183.859 103.378C184.798 103.378 185.546 103.704 186.102 104.355C186.662 105.003 186.942 105.966 186.942 107.247C186.942 108.09 186.815 108.801 186.56 109.38C186.304 109.959 185.944 110.396 185.479 110.692C185.015 110.989 184.465 111.137 183.832 111.137C183.24 111.137 182.752 111.027 182.369 110.809C181.991 110.585 181.699 110.314 181.494 109.995H181.405L181.173 111H180.353V100.363H181.487ZM183.675 104.328C183.132 104.328 182.702 104.435 182.383 104.649C182.064 104.859 181.834 105.178 181.692 105.606C181.556 106.03 181.487 106.568 181.487 107.22V107.281C181.487 108.225 181.645 108.947 181.959 109.448C182.273 109.945 182.845 110.193 183.675 110.193C184.372 110.193 184.894 109.938 185.24 109.428C185.591 108.917 185.767 108.188 185.767 107.24C185.767 106.274 185.593 105.547 185.247 105.06C184.905 104.572 184.381 104.328 183.675 104.328ZM190.066 111H188.925V100.363H190.066V111ZM195.351 103.371C195.989 103.371 196.535 103.512 196.991 103.795C197.447 104.077 197.796 104.474 198.037 104.984C198.279 105.49 198.399 106.083 198.399 106.762V107.466H193.225C193.238 108.345 193.457 109.015 193.881 109.476C194.305 109.936 194.902 110.166 195.672 110.166C196.146 110.166 196.565 110.123 196.93 110.036C197.294 109.95 197.673 109.822 198.064 109.653V110.651C197.686 110.82 197.31 110.943 196.937 111.021C196.567 111.098 196.13 111.137 195.624 111.137C194.904 111.137 194.275 110.991 193.737 110.699C193.204 110.403 192.789 109.97 192.493 109.4C192.197 108.831 192.049 108.133 192.049 107.309C192.049 106.502 192.183 105.805 192.452 105.217C192.726 104.624 193.108 104.169 193.601 103.85C194.097 103.531 194.681 103.371 195.351 103.371ZM195.337 104.301C194.731 104.301 194.248 104.499 193.888 104.896C193.528 105.292 193.313 105.846 193.245 106.557H197.21C197.205 106.11 197.135 105.718 196.998 105.381C196.866 105.039 196.663 104.775 196.39 104.588C196.116 104.396 195.765 104.301 195.337 104.301ZM202.993 111.137C202.045 111.137 201.293 110.813 200.737 110.166C200.186 109.519 199.91 108.557 199.91 107.281C199.91 105.992 200.193 105.019 200.758 104.362C201.323 103.701 202.075 103.371 203.014 103.371C203.41 103.371 203.757 103.424 204.053 103.528C204.349 103.633 204.604 103.774 204.818 103.952C205.033 104.125 205.213 104.324 205.358 104.547H205.44C205.422 104.406 205.404 104.212 205.386 103.966C205.368 103.72 205.358 103.519 205.358 103.364V100.363H206.493V111H205.577L205.406 109.934H205.358C205.217 110.157 205.037 110.36 204.818 110.542C204.604 110.724 204.347 110.87 204.046 110.979C203.75 111.084 203.399 111.137 202.993 111.137ZM203.171 110.193C203.973 110.193 204.54 109.965 204.873 109.51C205.206 109.054 205.372 108.377 205.372 107.479V107.274C205.372 106.322 205.213 105.59 204.894 105.08C204.579 104.57 204.005 104.314 203.171 104.314C202.474 104.314 201.952 104.583 201.605 105.121C201.259 105.654 201.086 106.383 201.086 107.309C201.086 108.229 201.257 108.94 201.599 109.441C201.945 109.943 202.469 110.193 203.171 110.193Z" fill="#8F95B2"/>
<rect y="162" width="16" height="16" rx="4" fill="#F4F6FA"/>
<rect x="4" y="169" width="8" height="2" rx="1" fill="#C1C4D6"/>
<path d="M33.6396 165.888C33.0882 165.888 32.5915 165.983 32.1494 166.175C31.7119 166.362 31.3382 166.635 31.0283 166.995C30.723 167.351 30.4883 167.781 30.3242 168.287C30.1602 168.793 30.0781 169.363 30.0781 169.996C30.0781 170.835 30.208 171.564 30.4678 172.184C30.7321 172.799 31.124 173.275 31.6436 173.612C32.1676 173.95 32.8216 174.118 33.6055 174.118C34.0521 174.118 34.4714 174.082 34.8633 174.009C35.2598 173.931 35.6449 173.836 36.0186 173.722V174.733C35.654 174.87 35.2712 174.97 34.8701 175.034C34.4691 175.103 33.9928 175.137 33.4414 175.137C32.4251 175.137 31.5752 174.927 30.8916 174.508C30.2126 174.084 29.7021 173.487 29.3604 172.717C29.0231 171.947 28.8545 171.037 28.8545 169.989C28.8545 169.233 28.9593 168.542 29.1689 167.918C29.3831 167.289 29.693 166.747 30.0986 166.291C30.5088 165.835 31.0101 165.484 31.6025 165.238C32.1995 164.988 32.8831 164.862 33.6533 164.862C34.1592 164.862 34.6468 164.912 35.1162 165.013C35.5856 165.113 36.0094 165.257 36.3877 165.443L35.9229 166.428C35.6038 166.282 35.2529 166.157 34.8701 166.052C34.4919 165.942 34.0817 165.888 33.6396 165.888ZM39.1494 164.363V167.542C39.1494 167.724 39.1449 167.909 39.1357 168.096C39.1266 168.278 39.1107 168.447 39.0879 168.602H39.1631C39.318 168.337 39.514 168.116 39.751 167.938C39.9925 167.756 40.266 167.619 40.5713 167.528C40.8766 167.433 41.2002 167.385 41.542 167.385C42.1436 167.385 42.6449 167.48 43.0459 167.672C43.4515 167.863 43.7546 168.16 43.9551 168.561C44.1602 168.962 44.2627 169.481 44.2627 170.119V175H43.1416V170.194C43.1416 169.57 42.998 169.103 42.7109 168.793C42.4284 168.483 41.9932 168.328 41.4053 168.328C40.8493 168.328 40.4049 168.435 40.0723 168.649C39.7441 168.859 39.5072 169.169 39.3613 169.579C39.2201 169.989 39.1494 170.491 39.1494 171.083V175H38.0146V164.363H39.1494ZM49.4854 167.371C50.1234 167.371 50.6702 167.512 51.126 167.795C51.5817 168.077 51.9303 168.474 52.1719 168.984C52.4134 169.49 52.5342 170.083 52.5342 170.762V171.466H47.3594C47.373 172.345 47.5918 173.015 48.0156 173.476C48.4395 173.936 49.0365 174.166 49.8066 174.166C50.2806 174.166 50.6999 174.123 51.0645 174.036C51.429 173.95 51.8073 173.822 52.1992 173.653V174.651C51.821 174.82 51.445 174.943 51.0713 175.021C50.7021 175.098 50.2646 175.137 49.7588 175.137C49.0387 175.137 48.4098 174.991 47.8721 174.699C47.3389 174.403 46.9242 173.97 46.6279 173.4C46.3317 172.831 46.1836 172.133 46.1836 171.309C46.1836 170.502 46.318 169.805 46.5869 169.217C46.8604 168.624 47.2432 168.169 47.7354 167.85C48.2321 167.531 48.8154 167.371 49.4854 167.371ZM49.4717 168.301C48.8656 168.301 48.3825 168.499 48.0225 168.896C47.6624 169.292 47.4482 169.846 47.3799 170.557H51.3447C51.3402 170.11 51.2695 169.718 51.1328 169.381C51.0007 169.039 50.7979 168.775 50.5244 168.588C50.251 168.396 49.9001 168.301 49.4717 168.301ZM57.4629 175.137C56.7884 175.137 56.1937 174.998 55.6787 174.72C55.1637 174.442 54.7627 174.018 54.4756 173.448C54.1885 172.879 54.0449 172.161 54.0449 171.295C54.0449 170.388 54.1953 169.647 54.4961 169.073C54.8014 168.494 55.2207 168.066 55.7539 167.788C56.2871 167.51 56.8932 167.371 57.5723 167.371C57.946 167.371 58.306 167.41 58.6523 167.487C59.0033 167.56 59.2904 167.654 59.5137 167.768L59.1719 168.718C58.944 168.627 58.6797 168.545 58.3789 168.472C58.0827 168.399 57.8047 168.362 57.5449 168.362C57.0254 168.362 56.5924 168.474 56.2461 168.697C55.9043 168.921 55.6468 169.249 55.4736 169.682C55.305 170.115 55.2207 170.648 55.2207 171.281C55.2207 171.887 55.3027 172.405 55.4668 172.833C55.6354 173.261 55.8838 173.59 56.2119 173.817C56.5446 174.041 56.9593 174.152 57.4561 174.152C57.8525 174.152 58.2103 174.111 58.5293 174.029C58.8483 173.943 59.1377 173.842 59.3975 173.729V174.74C59.1468 174.868 58.8665 174.966 58.5566 175.034C58.2513 175.103 57.8867 175.137 57.4629 175.137ZM62.3027 164.363V169.887C62.3027 170.069 62.2959 170.292 62.2822 170.557C62.2686 170.816 62.2572 171.047 62.248 171.247H62.2959C62.3916 171.129 62.5306 170.953 62.7129 170.721C62.8997 170.488 63.057 170.301 63.1846 170.16L65.6729 167.508H67.0059L63.9912 170.707L67.2246 175H65.8574L63.2119 171.452L62.3027 172.286V175H61.1748V164.363H62.3027ZM69.665 164.363V167.022C69.665 167.328 69.6559 167.624 69.6377 167.911C69.624 168.198 69.6126 168.422 69.6035 168.581H69.665C69.8701 168.244 70.1663 167.959 70.5537 167.727C70.9411 167.494 71.4355 167.378 72.0371 167.378C72.9759 167.378 73.7233 167.704 74.2793 168.355C74.8398 169.003 75.1201 169.966 75.1201 171.247C75.1201 172.09 74.9925 172.801 74.7373 173.38C74.4821 173.959 74.1221 174.396 73.6572 174.692C73.1924 174.989 72.6432 175.137 72.0098 175.137C71.4173 175.137 70.9297 175.027 70.5469 174.809C70.1686 174.585 69.877 174.314 69.6719 173.995H69.583L69.3506 175H68.5303V164.363H69.665ZM71.8525 168.328C71.3102 168.328 70.8796 168.435 70.5605 168.649C70.2415 168.859 70.0114 169.178 69.8701 169.606C69.7334 170.03 69.665 170.568 69.665 171.22V171.281C69.665 172.225 69.8223 172.947 70.1367 173.448C70.4512 173.945 71.0231 174.193 71.8525 174.193C72.5498 174.193 73.0716 173.938 73.418 173.428C73.7689 172.917 73.9443 172.188 73.9443 171.24C73.9443 170.274 73.7712 169.547 73.4248 169.06C73.083 168.572 72.5589 168.328 71.8525 168.328ZM83.5625 171.24C83.5625 171.855 83.4827 172.405 83.3232 172.888C83.1637 173.371 82.9336 173.779 82.6328 174.111C82.332 174.444 81.9674 174.699 81.5391 174.877C81.1152 175.05 80.6344 175.137 80.0967 175.137C79.5954 175.137 79.1351 175.05 78.7158 174.877C78.3011 174.699 77.9411 174.444 77.6357 174.111C77.335 173.779 77.1003 173.371 76.9316 172.888C76.7676 172.405 76.6855 171.855 76.6855 171.24C76.6855 170.42 76.8245 169.723 77.1025 169.148C77.3805 168.57 77.777 168.13 78.292 167.829C78.8115 167.524 79.429 167.371 80.1445 167.371C80.8281 167.371 81.4251 167.524 81.9355 167.829C82.4505 168.134 82.8493 168.576 83.1318 169.155C83.4189 169.729 83.5625 170.424 83.5625 171.24ZM77.8613 171.24C77.8613 171.842 77.9411 172.364 78.1006 172.806C78.2601 173.248 78.5062 173.59 78.8389 173.831C79.1715 174.073 79.5999 174.193 80.124 174.193C80.6436 174.193 81.0697 174.073 81.4023 173.831C81.7396 173.59 81.988 173.248 82.1475 172.806C82.307 172.364 82.3867 171.842 82.3867 171.24C82.3867 170.643 82.307 170.128 82.1475 169.695C81.988 169.258 81.7419 168.921 81.4092 168.684C81.0765 168.447 80.6458 168.328 80.1172 168.328C79.3379 168.328 78.766 168.586 78.4014 169.101C78.0413 169.616 77.8613 170.329 77.8613 171.24ZM87.3086 171.165L84.7178 167.508H86.0166L87.9922 170.393L89.9609 167.508H91.2461L88.6553 171.165L91.3896 175H90.0908L87.9922 171.944L85.8799 175H84.5947L87.3086 171.165ZM97.624 167.508V175H96.4893V167.508H97.624ZM97.0703 164.705C97.2572 164.705 97.4167 164.767 97.5488 164.89C97.6855 165.008 97.7539 165.195 97.7539 165.45C97.7539 165.701 97.6855 165.888 97.5488 166.011C97.4167 166.134 97.2572 166.195 97.0703 166.195C96.8743 166.195 96.7103 166.134 96.5781 166.011C96.4505 165.888 96.3867 165.701 96.3867 165.45C96.3867 165.195 96.4505 165.008 96.5781 164.89C96.7103 164.767 96.8743 164.705 97.0703 164.705ZM103.578 167.371C104.467 167.371 105.139 167.59 105.595 168.027C106.05 168.46 106.278 169.158 106.278 170.119V175H105.157V170.194C105.157 169.57 105.014 169.103 104.727 168.793C104.444 168.483 104.009 168.328 103.421 168.328C102.591 168.328 102.008 168.563 101.671 169.032C101.334 169.502 101.165 170.183 101.165 171.076V175H100.03V167.508H100.946L101.117 168.588H101.179C101.338 168.324 101.541 168.103 101.787 167.925C102.033 167.743 102.309 167.606 102.614 167.515C102.92 167.419 103.241 167.371 103.578 167.371ZM111.282 175.137C110.334 175.137 109.582 174.813 109.026 174.166C108.475 173.519 108.199 172.557 108.199 171.281C108.199 169.992 108.482 169.019 109.047 168.362C109.612 167.701 110.364 167.371 111.303 167.371C111.699 167.371 112.046 167.424 112.342 167.528C112.638 167.633 112.893 167.774 113.107 167.952C113.322 168.125 113.502 168.324 113.647 168.547H113.729C113.711 168.406 113.693 168.212 113.675 167.966C113.657 167.72 113.647 167.519 113.647 167.364V164.363H114.782V175H113.866L113.695 173.934H113.647C113.506 174.157 113.326 174.36 113.107 174.542C112.893 174.724 112.636 174.87 112.335 174.979C112.039 175.084 111.688 175.137 111.282 175.137ZM111.46 174.193C112.262 174.193 112.829 173.965 113.162 173.51C113.495 173.054 113.661 172.377 113.661 171.479V171.274C113.661 170.322 113.502 169.59 113.183 169.08C112.868 168.57 112.294 168.314 111.46 168.314C110.763 168.314 110.241 168.583 109.895 169.121C109.548 169.654 109.375 170.383 109.375 171.309C109.375 172.229 109.546 172.94 109.888 173.441C110.234 173.943 110.758 174.193 111.46 174.193ZM120.073 167.371C120.711 167.371 121.258 167.512 121.714 167.795C122.17 168.077 122.518 168.474 122.76 168.984C123.001 169.49 123.122 170.083 123.122 170.762V171.466H117.947C117.961 172.345 118.18 173.015 118.604 173.476C119.027 173.936 119.624 174.166 120.395 174.166C120.868 174.166 121.288 174.123 121.652 174.036C122.017 173.95 122.395 173.822 122.787 173.653V174.651C122.409 174.82 122.033 174.943 121.659 175.021C121.29 175.098 120.853 175.137 120.347 175.137C119.627 175.137 118.998 174.991 118.46 174.699C117.927 174.403 117.512 173.97 117.216 173.4C116.92 172.831 116.771 172.133 116.771 171.309C116.771 170.502 116.906 169.805 117.175 169.217C117.448 168.624 117.831 168.169 118.323 167.85C118.82 167.531 119.403 167.371 120.073 167.371ZM120.06 168.301C119.453 168.301 118.97 168.499 118.61 168.896C118.25 169.292 118.036 169.846 117.968 170.557H121.933C121.928 170.11 121.857 169.718 121.721 169.381C121.589 169.039 121.386 168.775 121.112 168.588C120.839 168.396 120.488 168.301 120.06 168.301ZM127.47 174.207C127.657 174.207 127.848 174.191 128.044 174.159C128.24 174.127 128.399 174.089 128.522 174.043V174.925C128.39 174.984 128.206 175.034 127.969 175.075C127.736 175.116 127.508 175.137 127.285 175.137C126.889 175.137 126.529 175.068 126.205 174.932C125.882 174.79 125.622 174.553 125.426 174.221C125.234 173.888 125.139 173.428 125.139 172.84V168.396H124.072V167.843L125.146 167.398L125.597 165.771H126.28V167.508H128.475V168.396H126.28V172.806C126.28 173.275 126.387 173.626 126.602 173.858C126.82 174.091 127.11 174.207 127.47 174.207ZM132.925 167.371C133.563 167.371 134.11 167.512 134.565 167.795C135.021 168.077 135.37 168.474 135.611 168.984C135.853 169.49 135.974 170.083 135.974 170.762V171.466H130.799C130.812 172.345 131.031 173.015 131.455 173.476C131.879 173.936 132.476 174.166 133.246 174.166C133.72 174.166 134.139 174.123 134.504 174.036C134.868 173.95 135.247 173.822 135.639 173.653V174.651C135.26 174.82 134.884 174.943 134.511 175.021C134.142 175.098 133.704 175.137 133.198 175.137C132.478 175.137 131.849 174.991 131.312 174.699C130.778 174.403 130.364 173.97 130.067 173.4C129.771 172.831 129.623 172.133 129.623 171.309C129.623 170.502 129.757 169.805 130.026 169.217C130.3 168.624 130.683 168.169 131.175 167.85C131.672 167.531 132.255 167.371 132.925 167.371ZM132.911 168.301C132.305 168.301 131.822 168.499 131.462 168.896C131.102 169.292 130.888 169.846 130.819 170.557H134.784C134.78 170.11 134.709 169.718 134.572 169.381C134.44 169.039 134.237 168.775 133.964 168.588C133.69 168.396 133.34 168.301 132.911 168.301ZM141.306 167.371C141.456 167.371 141.613 167.38 141.777 167.398C141.941 167.412 142.087 167.433 142.215 167.46L142.071 168.513C141.948 168.481 141.812 168.456 141.661 168.438C141.511 168.419 141.369 168.41 141.237 168.41C140.937 168.41 140.652 168.472 140.383 168.595C140.118 168.713 139.886 168.886 139.686 169.114C139.485 169.338 139.328 169.609 139.214 169.928C139.1 170.242 139.043 170.593 139.043 170.98V175H137.901V167.508H138.845L138.968 168.889H139.016C139.171 168.611 139.357 168.358 139.576 168.13C139.795 167.897 140.048 167.713 140.335 167.576C140.627 167.439 140.95 167.371 141.306 167.371ZM151.765 167.371C152.59 167.371 153.212 167.588 153.631 168.021C154.05 168.449 154.26 169.139 154.26 170.092V175H153.139V170.146C153.139 169.54 153.007 169.087 152.742 168.786C152.482 168.481 152.095 168.328 151.58 168.328C150.855 168.328 150.329 168.538 150.001 168.957C149.673 169.376 149.509 169.994 149.509 170.81V175H148.381V170.146C148.381 169.741 148.322 169.404 148.203 169.135C148.089 168.866 147.916 168.665 147.684 168.533C147.456 168.396 147.166 168.328 146.815 168.328C146.319 168.328 145.92 168.431 145.619 168.636C145.318 168.841 145.1 169.146 144.963 169.552C144.831 169.953 144.765 170.447 144.765 171.035V175H143.63V167.508H144.546L144.717 168.567H144.778C144.929 168.308 145.118 168.089 145.346 167.911C145.574 167.733 145.829 167.599 146.111 167.508C146.394 167.417 146.695 167.371 147.014 167.371C147.583 167.371 148.06 167.478 148.442 167.692C148.83 167.902 149.11 168.223 149.283 168.656H149.345C149.591 168.223 149.928 167.902 150.356 167.692C150.785 167.478 151.254 167.371 151.765 167.371ZM157.726 167.508V175H156.591V167.508H157.726ZM157.172 164.705C157.359 164.705 157.518 164.767 157.65 164.89C157.787 165.008 157.855 165.195 157.855 165.45C157.855 165.701 157.787 165.888 157.65 166.011C157.518 166.134 157.359 166.195 157.172 166.195C156.976 166.195 156.812 166.134 156.68 166.011C156.552 165.888 156.488 165.701 156.488 165.45C156.488 165.195 156.552 165.008 156.68 164.89C156.812 164.767 156.976 164.705 157.172 164.705ZM163.68 167.371C164.568 167.371 165.241 167.59 165.696 168.027C166.152 168.46 166.38 169.158 166.38 170.119V175H165.259V170.194C165.259 169.57 165.115 169.103 164.828 168.793C164.546 168.483 164.11 168.328 163.522 168.328C162.693 168.328 162.11 168.563 161.772 169.032C161.435 169.502 161.267 170.183 161.267 171.076V175H160.132V167.508H161.048L161.219 168.588H161.28C161.44 168.324 161.643 168.103 161.889 167.925C162.135 167.743 162.41 167.606 162.716 167.515C163.021 167.419 163.342 167.371 163.68 167.371ZM171.521 167.385C172.414 167.385 173.077 167.585 173.51 167.986C173.943 168.387 174.159 169.028 174.159 169.907V175H173.332L173.113 173.893H173.059C172.849 174.166 172.63 174.396 172.402 174.583C172.174 174.765 171.91 174.904 171.609 175C171.313 175.091 170.949 175.137 170.516 175.137C170.06 175.137 169.654 175.057 169.299 174.897C168.948 174.738 168.67 174.496 168.465 174.173C168.264 173.849 168.164 173.439 168.164 172.942C168.164 172.195 168.46 171.621 169.053 171.22C169.645 170.819 170.548 170.6 171.76 170.563L173.052 170.509V170.051C173.052 169.404 172.913 168.95 172.635 168.69C172.357 168.431 171.965 168.301 171.459 168.301C171.067 168.301 170.693 168.358 170.338 168.472C169.982 168.586 169.645 168.72 169.326 168.875L168.978 168.014C169.315 167.84 169.702 167.692 170.14 167.569C170.577 167.446 171.037 167.385 171.521 167.385ZM173.038 171.309L171.896 171.356C170.962 171.393 170.304 171.546 169.921 171.814C169.538 172.083 169.347 172.464 169.347 172.956C169.347 173.384 169.477 173.701 169.736 173.906C169.996 174.111 170.34 174.214 170.769 174.214C171.434 174.214 171.979 174.029 172.402 173.66C172.826 173.291 173.038 172.737 173.038 171.999V171.309ZM178.917 174.207C179.104 174.207 179.295 174.191 179.491 174.159C179.687 174.127 179.847 174.089 179.97 174.043V174.925C179.838 174.984 179.653 175.034 179.416 175.075C179.184 175.116 178.956 175.137 178.732 175.137C178.336 175.137 177.976 175.068 177.652 174.932C177.329 174.79 177.069 174.553 176.873 174.221C176.682 173.888 176.586 173.428 176.586 172.84V168.396H175.52V167.843L176.593 167.398L177.044 165.771H177.728V167.508H179.922V168.396H177.728V172.806C177.728 173.275 177.835 173.626 178.049 173.858C178.268 174.091 178.557 174.207 178.917 174.207ZM184.372 167.371C185.01 167.371 185.557 167.512 186.013 167.795C186.468 168.077 186.817 168.474 187.059 168.984C187.3 169.49 187.421 170.083 187.421 170.762V171.466H182.246C182.26 172.345 182.479 173.015 182.902 173.476C183.326 173.936 183.923 174.166 184.693 174.166C185.167 174.166 185.587 174.123 185.951 174.036C186.316 173.95 186.694 173.822 187.086 173.653V174.651C186.708 174.82 186.332 174.943 185.958 175.021C185.589 175.098 185.151 175.137 184.646 175.137C183.925 175.137 183.297 174.991 182.759 174.699C182.226 174.403 181.811 173.97 181.515 173.4C181.218 172.831 181.07 172.133 181.07 171.309C181.07 170.502 181.205 169.805 181.474 169.217C181.747 168.624 182.13 168.169 182.622 167.85C183.119 167.531 183.702 167.371 184.372 167.371ZM184.358 168.301C183.752 168.301 183.269 168.499 182.909 168.896C182.549 169.292 182.335 169.846 182.267 170.557H186.231C186.227 170.11 186.156 169.718 186.02 169.381C185.887 169.039 185.685 168.775 185.411 168.588C185.138 168.396 184.787 168.301 184.358 168.301ZM195.651 175.137C194.703 175.137 193.951 174.813 193.396 174.166C192.844 173.519 192.568 172.557 192.568 171.281C192.568 169.992 192.851 169.019 193.416 168.362C193.981 167.701 194.733 167.371 195.672 167.371C196.068 167.371 196.415 167.424 196.711 167.528C197.007 167.633 197.262 167.774 197.477 167.952C197.691 168.125 197.871 168.324 198.017 168.547H198.099C198.08 168.406 198.062 168.212 198.044 167.966C198.026 167.72 198.017 167.519 198.017 167.364V164.363H199.151V175H198.235L198.064 173.934H198.017C197.875 174.157 197.695 174.36 197.477 174.542C197.262 174.724 197.005 174.87 196.704 174.979C196.408 175.084 196.057 175.137 195.651 175.137ZM195.829 174.193C196.631 174.193 197.199 173.965 197.531 173.51C197.864 173.054 198.03 172.377 198.03 171.479V171.274C198.03 170.322 197.871 169.59 197.552 169.08C197.237 168.57 196.663 168.314 195.829 168.314C195.132 168.314 194.61 168.583 194.264 169.121C193.917 169.654 193.744 170.383 193.744 171.309C193.744 172.229 193.915 172.94 194.257 173.441C194.603 173.943 195.127 174.193 195.829 174.193ZM202.692 167.508V175H201.558V167.508H202.692ZM202.139 164.705C202.326 164.705 202.485 164.767 202.617 164.89C202.754 165.008 202.822 165.195 202.822 165.45C202.822 165.701 202.754 165.888 202.617 166.011C202.485 166.134 202.326 166.195 202.139 166.195C201.943 166.195 201.779 166.134 201.646 166.011C201.519 165.888 201.455 165.701 201.455 165.45C201.455 165.195 201.519 165.008 201.646 164.89C201.779 164.767 201.943 164.705 202.139 164.705ZM209.945 172.949C209.945 173.428 209.825 173.831 209.583 174.159C209.346 174.483 209.004 174.727 208.558 174.891C208.116 175.055 207.587 175.137 206.972 175.137C206.448 175.137 205.994 175.096 205.611 175.014C205.229 174.932 204.894 174.815 204.606 174.665V173.619C204.912 173.77 205.276 173.906 205.7 174.029C206.124 174.152 206.557 174.214 206.999 174.214C207.646 174.214 208.116 174.109 208.407 173.899C208.699 173.69 208.845 173.405 208.845 173.045C208.845 172.84 208.785 172.66 208.667 172.505C208.553 172.345 208.359 172.193 208.086 172.047C207.812 171.896 207.434 171.732 206.951 171.555C206.473 171.372 206.058 171.192 205.707 171.015C205.361 170.832 205.092 170.611 204.9 170.352C204.714 170.092 204.62 169.755 204.62 169.34C204.62 168.706 204.875 168.221 205.386 167.884C205.901 167.542 206.575 167.371 207.409 167.371C207.86 167.371 208.282 167.417 208.674 167.508C209.07 167.594 209.439 167.713 209.781 167.863L209.398 168.772C209.089 168.64 208.758 168.529 208.407 168.438C208.056 168.346 207.699 168.301 207.334 168.301C206.81 168.301 206.407 168.387 206.124 168.561C205.846 168.734 205.707 168.971 205.707 169.271C205.707 169.504 205.771 169.695 205.898 169.846C206.031 169.996 206.24 170.137 206.527 170.27C206.814 170.402 207.193 170.557 207.662 170.734C208.132 170.908 208.537 171.088 208.879 171.274C209.221 171.457 209.483 171.68 209.665 171.944C209.852 172.204 209.945 172.539 209.945 172.949ZM214.573 167.385C215.466 167.385 216.13 167.585 216.562 167.986C216.995 168.387 217.212 169.028 217.212 169.907V175H216.385L216.166 173.893H216.111C215.902 174.166 215.683 174.396 215.455 174.583C215.227 174.765 214.963 174.904 214.662 175C214.366 175.091 214.001 175.137 213.568 175.137C213.113 175.137 212.707 175.057 212.352 174.897C212.001 174.738 211.723 174.496 211.518 174.173C211.317 173.849 211.217 173.439 211.217 172.942C211.217 172.195 211.513 171.621 212.105 171.22C212.698 170.819 213.6 170.6 214.812 170.563L216.104 170.509V170.051C216.104 169.404 215.965 168.95 215.688 168.69C215.41 168.431 215.018 168.301 214.512 168.301C214.12 168.301 213.746 168.358 213.391 168.472C213.035 168.586 212.698 168.72 212.379 168.875L212.03 168.014C212.368 167.84 212.755 167.692 213.192 167.569C213.63 167.446 214.09 167.385 214.573 167.385ZM216.091 171.309L214.949 171.356C214.015 171.393 213.356 171.546 212.974 171.814C212.591 172.083 212.399 172.464 212.399 172.956C212.399 173.384 212.529 173.701 212.789 173.906C213.049 174.111 213.393 174.214 213.821 174.214C214.487 174.214 215.031 174.029 215.455 173.66C215.879 173.291 216.091 172.737 216.091 171.999V171.309ZM220.685 164.363V167.022C220.685 167.328 220.675 167.624 220.657 167.911C220.644 168.198 220.632 168.422 220.623 168.581H220.685C220.89 168.244 221.186 167.959 221.573 167.727C221.961 167.494 222.455 167.378 223.057 167.378C223.995 167.378 224.743 167.704 225.299 168.355C225.859 169.003 226.14 169.966 226.14 171.247C226.14 172.09 226.012 172.801 225.757 173.38C225.502 173.959 225.142 174.396 224.677 174.692C224.212 174.989 223.663 175.137 223.029 175.137C222.437 175.137 221.949 175.027 221.566 174.809C221.188 174.585 220.896 174.314 220.691 173.995H220.603L220.37 175H219.55V164.363H220.685ZM222.872 168.328C222.33 168.328 221.899 168.435 221.58 168.649C221.261 168.859 221.031 169.178 220.89 169.606C220.753 170.03 220.685 170.568 220.685 171.22V171.281C220.685 172.225 220.842 172.947 221.156 173.448C221.471 173.945 222.043 174.193 222.872 174.193C223.569 174.193 224.091 173.938 224.438 173.428C224.788 172.917 224.964 172.188 224.964 171.24C224.964 170.274 224.791 169.547 224.444 169.06C224.103 168.572 223.578 168.328 222.872 168.328ZM229.264 175H228.122V164.363H229.264V175ZM234.548 167.371C235.186 167.371 235.733 167.512 236.188 167.795C236.644 168.077 236.993 168.474 237.234 168.984C237.476 169.49 237.597 170.083 237.597 170.762V171.466H232.422C232.436 172.345 232.654 173.015 233.078 173.476C233.502 173.936 234.099 174.166 234.869 174.166C235.343 174.166 235.762 174.123 236.127 174.036C236.492 173.95 236.87 173.822 237.262 173.653V174.651C236.883 174.82 236.507 174.943 236.134 175.021C235.765 175.098 235.327 175.137 234.821 175.137C234.101 175.137 233.472 174.991 232.935 174.699C232.401 174.403 231.987 173.97 231.69 173.4C231.394 172.831 231.246 172.133 231.246 171.309C231.246 170.502 231.381 169.805 231.649 169.217C231.923 168.624 232.306 168.169 232.798 167.85C233.295 167.531 233.878 167.371 234.548 167.371ZM234.534 168.301C233.928 168.301 233.445 168.499 233.085 168.896C232.725 169.292 232.511 169.846 232.442 170.557H236.407C236.403 170.11 236.332 169.718 236.195 169.381C236.063 169.039 235.86 168.775 235.587 168.588C235.313 168.396 234.963 168.301 234.534 168.301ZM242.19 175.137C241.243 175.137 240.491 174.813 239.935 174.166C239.383 173.519 239.107 172.557 239.107 171.281C239.107 169.992 239.39 169.019 239.955 168.362C240.52 167.701 241.272 167.371 242.211 167.371C242.607 167.371 242.954 167.424 243.25 167.528C243.546 167.633 243.801 167.774 244.016 167.952C244.23 168.125 244.41 168.324 244.556 168.547H244.638C244.619 168.406 244.601 168.212 244.583 167.966C244.565 167.72 244.556 167.519 244.556 167.364V164.363H245.69V175H244.774L244.604 173.934H244.556C244.414 174.157 244.234 174.36 244.016 174.542C243.801 174.724 243.544 174.87 243.243 174.979C242.947 175.084 242.596 175.137 242.19 175.137ZM242.368 174.193C243.17 174.193 243.738 173.965 244.07 173.51C244.403 173.054 244.569 172.377 244.569 171.479V171.274C244.569 170.322 244.41 169.59 244.091 169.08C243.776 168.57 243.202 168.314 242.368 168.314C241.671 168.314 241.149 168.583 240.803 169.121C240.456 169.654 240.283 170.383 240.283 171.309C240.283 172.229 240.454 172.94 240.796 173.441C241.142 173.943 241.666 174.193 242.368 174.193Z" fill="#8F95B2"/>
<rect y="34" width="16" height="16" rx="4" fill="#F4F6FA"/>
<path d="M33.6396 37.8877C33.0882 37.8877 32.5915 37.9834 32.1494 38.1748C31.7119 38.3617 31.3382 38.6351 31.0283 38.9951C30.723 39.3506 30.4883 39.7812 30.3242 40.2871C30.1602 40.793 30.0781 41.3626 30.0781 41.9961C30.0781 42.8346 30.208 43.5638 30.4678 44.1836C30.7321 44.7988 31.124 45.2751 31.6436 45.6123C32.1676 45.9495 32.8216 46.1182 33.6055 46.1182C34.0521 46.1182 34.4714 46.0817 34.8633 46.0088C35.2598 45.9313 35.6449 45.8356 36.0186 45.7217V46.7334C35.654 46.8701 35.2712 46.9704 34.8701 47.0342C34.4691 47.1025 33.9928 47.1367 33.4414 47.1367C32.4251 47.1367 31.5752 46.9271 30.8916 46.5078C30.2126 46.084 29.7021 45.487 29.3604 44.7168C29.0231 43.9466 28.8545 43.0374 28.8545 41.9893C28.8545 41.2327 28.9593 40.5423 29.1689 39.918C29.3831 39.2891 29.693 38.7467 30.0986 38.291C30.5088 37.8353 31.0101 37.4844 31.6025 37.2383C32.1995 36.9876 32.8831 36.8623 33.6533 36.8623C34.1592 36.8623 34.6468 36.9124 35.1162 37.0127C35.5856 37.113 36.0094 37.2565 36.3877 37.4434L35.9229 38.4277C35.6038 38.2819 35.2529 38.1566 34.8701 38.0518C34.4919 37.9424 34.0817 37.8877 33.6396 37.8877ZM39.1494 36.3633V39.542C39.1494 39.7243 39.1449 39.9089 39.1357 40.0957C39.1266 40.278 39.1107 40.4466 39.0879 40.6016H39.1631C39.318 40.3372 39.514 40.1162 39.751 39.9385C39.9925 39.7562 40.266 39.6195 40.5713 39.5283C40.8766 39.4326 41.2002 39.3848 41.542 39.3848C42.1436 39.3848 42.6449 39.4805 43.0459 39.6719C43.4515 39.8633 43.7546 40.1595 43.9551 40.5605C44.1602 40.9616 44.2627 41.4811 44.2627 42.1191V47H43.1416V42.1943C43.1416 41.57 42.998 41.1029 42.7109 40.793C42.4284 40.4831 41.9932 40.3281 41.4053 40.3281C40.8493 40.3281 40.4049 40.4352 40.0723 40.6494C39.7441 40.859 39.5072 41.1689 39.3613 41.5791C39.2201 41.9893 39.1494 42.4906 39.1494 43.083V47H38.0146V36.3633H39.1494ZM49.4854 39.3711C50.1234 39.3711 50.6702 39.5124 51.126 39.7949C51.5817 40.0775 51.9303 40.474 52.1719 40.9844C52.4134 41.4902 52.5342 42.0827 52.5342 42.7617V43.4658H47.3594C47.373 44.3454 47.5918 45.0153 48.0156 45.4756C48.4395 45.9359 49.0365 46.166 49.8066 46.166C50.2806 46.166 50.6999 46.1227 51.0645 46.0361C51.429 45.9495 51.8073 45.8219 52.1992 45.6533V46.6514C51.821 46.82 51.445 46.943 51.0713 47.0205C50.7021 47.098 50.2646 47.1367 49.7588 47.1367C49.0387 47.1367 48.4098 46.9909 47.8721 46.6992C47.3389 46.403 46.9242 45.9701 46.6279 45.4004C46.3317 44.8307 46.1836 44.1335 46.1836 43.3086C46.1836 42.502 46.318 41.8047 46.5869 41.2168C46.8604 40.6243 47.2432 40.1686 47.7354 39.8496C48.2321 39.5306 48.8154 39.3711 49.4854 39.3711ZM49.4717 40.3008C48.8656 40.3008 48.3825 40.499 48.0225 40.8955C47.6624 41.292 47.4482 41.8457 47.3799 42.5566H51.3447C51.3402 42.11 51.2695 41.7181 51.1328 41.3809C51.0007 41.0391 50.7979 40.7747 50.5244 40.5879C50.251 40.3965 49.9001 40.3008 49.4717 40.3008ZM57.4629 47.1367C56.7884 47.1367 56.1937 46.9977 55.6787 46.7197C55.1637 46.4417 54.7627 46.0179 54.4756 45.4482C54.1885 44.8786 54.0449 44.1608 54.0449 43.2949C54.0449 42.388 54.1953 41.6475 54.4961 41.0732C54.8014 40.4945 55.2207 40.0661 55.7539 39.7881C56.2871 39.5101 56.8932 39.3711 57.5723 39.3711C57.946 39.3711 58.306 39.4098 58.6523 39.4873C59.0033 39.5602 59.2904 39.6536 59.5137 39.7676L59.1719 40.7178C58.944 40.6266 58.6797 40.5446 58.3789 40.4717C58.0827 40.3988 57.8047 40.3623 57.5449 40.3623C57.0254 40.3623 56.5924 40.474 56.2461 40.6973C55.9043 40.9206 55.6468 41.2487 55.4736 41.6816C55.305 42.1146 55.2207 42.6478 55.2207 43.2812C55.2207 43.8874 55.3027 44.4046 55.4668 44.833C55.6354 45.2614 55.8838 45.5895 56.2119 45.8174C56.5446 46.0407 56.9593 46.1523 57.4561 46.1523C57.8525 46.1523 58.2103 46.1113 58.5293 46.0293C58.8483 45.9427 59.1377 45.8424 59.3975 45.7285V46.7402C59.1468 46.8678 58.8665 46.9658 58.5566 47.0342C58.2513 47.1025 57.8867 47.1367 57.4629 47.1367ZM62.3027 36.3633V41.8867C62.3027 42.069 62.2959 42.2923 62.2822 42.5566C62.2686 42.8164 62.2572 43.0465 62.248 43.2471H62.2959C62.3916 43.1286 62.5306 42.9531 62.7129 42.7207C62.8997 42.4883 63.057 42.3014 63.1846 42.1602L65.6729 39.5078H67.0059L63.9912 42.707L67.2246 47H65.8574L63.2119 43.4521L62.3027 44.2861V47H61.1748V36.3633H62.3027ZM69.665 36.3633V39.0225C69.665 39.3278 69.6559 39.624 69.6377 39.9111C69.624 40.1982 69.6126 40.4215 69.6035 40.5811H69.665C69.8701 40.2438 70.1663 39.959 70.5537 39.7266C70.9411 39.4941 71.4355 39.3779 72.0371 39.3779C72.9759 39.3779 73.7233 39.7038 74.2793 40.3555C74.8398 41.0026 75.1201 41.9665 75.1201 43.2471C75.1201 44.0902 74.9925 44.8011 74.7373 45.3799C74.4821 45.9587 74.1221 46.3962 73.6572 46.6924C73.1924 46.9886 72.6432 47.1367 72.0098 47.1367C71.4173 47.1367 70.9297 47.0273 70.5469 46.8086C70.1686 46.5853 69.877 46.3141 69.6719 45.9951H69.583L69.3506 47H68.5303V36.3633H69.665ZM71.8525 40.3281C71.3102 40.3281 70.8796 40.4352 70.5605 40.6494C70.2415 40.859 70.0114 41.1781 69.8701 41.6064C69.7334 42.0303 69.665 42.568 69.665 43.2197V43.2812C69.665 44.2246 69.8223 44.9469 70.1367 45.4482C70.4512 45.945 71.0231 46.1934 71.8525 46.1934C72.5498 46.1934 73.0716 45.9382 73.418 45.4277C73.7689 44.9173 73.9443 44.1882 73.9443 43.2402C73.9443 42.2741 73.7712 41.5472 73.4248 41.0596C73.083 40.5719 72.5589 40.3281 71.8525 40.3281ZM83.5625 43.2402C83.5625 43.8555 83.4827 44.4046 83.3232 44.8877C83.1637 45.3708 82.9336 45.7786 82.6328 46.1113C82.332 46.444 81.9674 46.6992 81.5391 46.877C81.1152 47.0501 80.6344 47.1367 80.0967 47.1367C79.5954 47.1367 79.1351 47.0501 78.7158 46.877C78.3011 46.6992 77.9411 46.444 77.6357 46.1113C77.335 45.7786 77.1003 45.3708 76.9316 44.8877C76.7676 44.4046 76.6855 43.8555 76.6855 43.2402C76.6855 42.4199 76.8245 41.7227 77.1025 41.1484C77.3805 40.5697 77.777 40.1299 78.292 39.8291C78.8115 39.5238 79.429 39.3711 80.1445 39.3711C80.8281 39.3711 81.4251 39.5238 81.9355 39.8291C82.4505 40.1344 82.8493 40.5765 83.1318 41.1553C83.4189 41.7295 83.5625 42.4245 83.5625 43.2402ZM77.8613 43.2402C77.8613 43.8418 77.9411 44.3636 78.1006 44.8057C78.2601 45.2477 78.5062 45.5895 78.8389 45.8311C79.1715 46.0726 79.5999 46.1934 80.124 46.1934C80.6436 46.1934 81.0697 46.0726 81.4023 45.8311C81.7396 45.5895 81.988 45.2477 82.1475 44.8057C82.307 44.3636 82.3867 43.8418 82.3867 43.2402C82.3867 42.6432 82.307 42.1283 82.1475 41.6953C81.988 41.2578 81.7419 40.9206 81.4092 40.6836C81.0765 40.4466 80.6458 40.3281 80.1172 40.3281C79.3379 40.3281 78.766 40.5856 78.4014 41.1006C78.0413 41.6156 77.8613 42.3288 77.8613 43.2402ZM87.3086 43.165L84.7178 39.5078H86.0166L87.9922 42.3926L89.9609 39.5078H91.2461L88.6553 43.165L91.3896 47H90.0908L87.9922 43.9443L85.8799 47H84.5947L87.3086 43.165ZM99.1553 47.1367C98.2074 47.1367 97.4554 46.8132 96.8994 46.166C96.348 45.5189 96.0723 44.5573 96.0723 43.2812C96.0723 41.9915 96.3548 41.0186 96.9199 40.3623C97.485 39.7015 98.237 39.3711 99.1758 39.3711C99.5723 39.3711 99.9186 39.4235 100.215 39.5283C100.511 39.6331 100.766 39.7744 100.98 39.9521C101.195 40.1253 101.375 40.3236 101.521 40.5469H101.603C101.584 40.4056 101.566 40.2119 101.548 39.9658C101.53 39.7197 101.521 39.5192 101.521 39.3643V36.3633H102.655V47H101.739L101.568 45.9336H101.521C101.379 46.1569 101.199 46.3597 100.98 46.542C100.766 46.7243 100.509 46.8701 100.208 46.9795C99.9118 47.0843 99.5609 47.1367 99.1553 47.1367ZM99.333 46.1934C100.135 46.1934 100.702 45.9655 101.035 45.5098C101.368 45.054 101.534 44.3773 101.534 43.4795V43.2744C101.534 42.3219 101.375 41.5905 101.056 41.0801C100.741 40.5697 100.167 40.3145 99.333 40.3145C98.6357 40.3145 98.1139 40.5833 97.7676 41.1211C97.4212 41.6543 97.248 42.3835 97.248 43.3086C97.248 44.2292 97.4189 44.9401 97.7607 45.4414C98.1071 45.9427 98.6312 46.1934 99.333 46.1934ZM106.196 39.5078V47H105.062V39.5078H106.196ZM105.643 36.7051C105.829 36.7051 105.989 36.7666 106.121 36.8896C106.258 37.0081 106.326 37.195 106.326 37.4502C106.326 37.7008 106.258 37.8877 106.121 38.0107C105.989 38.1338 105.829 38.1953 105.643 38.1953C105.447 38.1953 105.283 38.1338 105.15 38.0107C105.023 37.8877 104.959 37.7008 104.959 37.4502C104.959 37.195 105.023 37.0081 105.15 36.8896C105.283 36.7666 105.447 36.7051 105.643 36.7051ZM113.449 44.9492C113.449 45.4277 113.328 45.8311 113.087 46.1592C112.85 46.4827 112.508 46.7266 112.062 46.8906C111.619 47.0547 111.091 47.1367 110.476 47.1367C109.951 47.1367 109.498 47.0957 109.115 47.0137C108.732 46.9316 108.397 46.8154 108.11 46.665V45.6191C108.416 45.7695 108.78 45.9062 109.204 46.0293C109.628 46.1523 110.061 46.2139 110.503 46.2139C111.15 46.2139 111.619 46.109 111.911 45.8994C112.203 45.6898 112.349 45.4049 112.349 45.0449C112.349 44.8398 112.289 44.6598 112.171 44.5049C112.057 44.3454 111.863 44.1927 111.59 44.0469C111.316 43.8965 110.938 43.7324 110.455 43.5547C109.977 43.3724 109.562 43.1924 109.211 43.0146C108.865 42.8324 108.596 42.6113 108.404 42.3516C108.217 42.0918 108.124 41.7546 108.124 41.3398C108.124 40.7064 108.379 40.221 108.89 39.8838C109.405 39.542 110.079 39.3711 110.913 39.3711C111.364 39.3711 111.786 39.4167 112.178 39.5078C112.574 39.5944 112.943 39.7129 113.285 39.8633L112.902 40.7725C112.592 40.6403 112.262 40.5286 111.911 40.4375C111.56 40.3464 111.202 40.3008 110.838 40.3008C110.314 40.3008 109.91 40.3874 109.628 40.5605C109.35 40.7337 109.211 40.9707 109.211 41.2715C109.211 41.5039 109.275 41.6953 109.402 41.8457C109.535 41.9961 109.744 42.1374 110.031 42.2695C110.318 42.4017 110.697 42.5566 111.166 42.7344C111.635 42.9076 112.041 43.0876 112.383 43.2744C112.725 43.4567 112.987 43.68 113.169 43.9443C113.356 44.2041 113.449 44.5391 113.449 44.9492ZM118.077 39.3848C118.97 39.3848 119.633 39.5853 120.066 39.9863C120.499 40.3874 120.716 41.0277 120.716 41.9072V47H119.889L119.67 45.8926H119.615C119.406 46.166 119.187 46.3962 118.959 46.583C118.731 46.7653 118.467 46.9043 118.166 47C117.87 47.0911 117.505 47.1367 117.072 47.1367C116.617 47.1367 116.211 47.057 115.855 46.8975C115.505 46.738 115.227 46.4964 115.021 46.1729C114.821 45.8493 114.721 45.4391 114.721 44.9424C114.721 44.195 115.017 43.6208 115.609 43.2197C116.202 42.8187 117.104 42.5999 118.316 42.5635L119.608 42.5088V42.0508C119.608 41.4036 119.469 40.9502 119.191 40.6904C118.913 40.4307 118.521 40.3008 118.016 40.3008C117.624 40.3008 117.25 40.3577 116.895 40.4717C116.539 40.5856 116.202 40.7201 115.883 40.875L115.534 40.0137C115.871 39.8405 116.259 39.6924 116.696 39.5693C117.134 39.4463 117.594 39.3848 118.077 39.3848ZM119.595 43.3086L118.453 43.3564C117.519 43.3929 116.86 43.5456 116.478 43.8145C116.095 44.0833 115.903 44.4639 115.903 44.9561C115.903 45.3844 116.033 45.7012 116.293 45.9062C116.553 46.1113 116.897 46.2139 117.325 46.2139C117.991 46.2139 118.535 46.0293 118.959 45.6602C119.383 45.291 119.595 44.7373 119.595 43.999V43.3086ZM124.188 36.3633V39.0225C124.188 39.3278 124.179 39.624 124.161 39.9111C124.147 40.1982 124.136 40.4215 124.127 40.5811H124.188C124.394 40.2438 124.69 39.959 125.077 39.7266C125.465 39.4941 125.959 39.3779 126.561 39.3779C127.499 39.3779 128.247 39.7038 128.803 40.3555C129.363 41.0026 129.644 41.9665 129.644 43.2471C129.644 44.0902 129.516 44.8011 129.261 45.3799C129.006 45.9587 128.646 46.3962 128.181 46.6924C127.716 46.9886 127.167 47.1367 126.533 47.1367C125.941 47.1367 125.453 47.0273 125.07 46.8086C124.692 46.5853 124.4 46.3141 124.195 45.9951H124.106L123.874 47H123.054V36.3633H124.188ZM126.376 40.3281C125.834 40.3281 125.403 40.4352 125.084 40.6494C124.765 40.859 124.535 41.1781 124.394 41.6064C124.257 42.0303 124.188 42.568 124.188 43.2197V43.2812C124.188 44.2246 124.346 44.9469 124.66 45.4482C124.975 45.945 125.547 46.1934 126.376 46.1934C127.073 46.1934 127.595 45.9382 127.941 45.4277C128.292 44.9173 128.468 44.1882 128.468 43.2402C128.468 42.2741 128.295 41.5472 127.948 41.0596C127.606 40.5719 127.082 40.3281 126.376 40.3281ZM132.768 47H131.626V36.3633H132.768V47ZM138.052 39.3711C138.69 39.3711 139.237 39.5124 139.692 39.7949C140.148 40.0775 140.497 40.474 140.738 40.9844C140.98 41.4902 141.101 42.0827 141.101 42.7617V43.4658H135.926C135.939 44.3454 136.158 45.0153 136.582 45.4756C137.006 45.9359 137.603 46.166 138.373 46.166C138.847 46.166 139.266 46.1227 139.631 46.0361C139.995 45.9495 140.374 45.8219 140.766 45.6533V46.6514C140.387 46.82 140.011 46.943 139.638 47.0205C139.269 47.098 138.831 47.1367 138.325 47.1367C137.605 47.1367 136.976 46.9909 136.438 46.6992C135.905 46.403 135.491 45.9701 135.194 45.4004C134.898 44.8307 134.75 44.1335 134.75 43.3086C134.75 42.502 134.884 41.8047 135.153 41.2168C135.427 40.6243 135.81 40.1686 136.302 39.8496C136.799 39.5306 137.382 39.3711 138.052 39.3711ZM138.038 40.3008C137.432 40.3008 136.949 40.499 136.589 40.8955C136.229 41.292 136.015 41.8457 135.946 42.5566H139.911C139.907 42.11 139.836 41.7181 139.699 41.3809C139.567 41.0391 139.364 40.7747 139.091 40.5879C138.817 40.3965 138.466 40.3008 138.038 40.3008ZM145.694 47.1367C144.746 47.1367 143.994 46.8132 143.438 46.166C142.887 45.5189 142.611 44.5573 142.611 43.2812C142.611 41.9915 142.894 41.0186 143.459 40.3623C144.024 39.7015 144.776 39.3711 145.715 39.3711C146.111 39.3711 146.458 39.4235 146.754 39.5283C147.05 39.6331 147.305 39.7744 147.52 39.9521C147.734 40.1253 147.914 40.3236 148.06 40.5469H148.142C148.123 40.4056 148.105 40.2119 148.087 39.9658C148.069 39.7197 148.06 39.5192 148.06 39.3643V36.3633H149.194V47H148.278L148.107 45.9336H148.06C147.918 46.1569 147.738 46.3597 147.52 46.542C147.305 46.7243 147.048 46.8701 146.747 46.9795C146.451 47.0843 146.1 47.1367 145.694 47.1367ZM145.872 46.1934C146.674 46.1934 147.242 45.9655 147.574 45.5098C147.907 45.054 148.073 44.3773 148.073 43.4795V43.2744C148.073 42.3219 147.914 41.5905 147.595 41.0801C147.28 40.5697 146.706 40.3145 145.872 40.3145C145.175 40.3145 144.653 40.5833 144.307 41.1211C143.96 41.6543 143.787 42.3835 143.787 43.3086C143.787 44.2292 143.958 44.9401 144.3 45.4414C144.646 45.9427 145.17 46.1934 145.872 46.1934Z" fill="#8F95B2"/>
<rect y="130" width="16" height="16" rx="4" fill="#3366FF"/>
<rect x="4" y="137" width="8" height="2" rx="1" fill="white"/>
<path d="M33.6396 133.888C33.0882 133.888 32.5915 133.983 32.1494 134.175C31.7119 134.362 31.3382 134.635 31.0283 134.995C30.723 135.351 30.4883 135.781 30.3242 136.287C30.1602 136.793 30.0781 137.363 30.0781 137.996C30.0781 138.835 30.208 139.564 30.4678 140.184C30.7321 140.799 31.124 141.275 31.6436 141.612C32.1676 141.95 32.8216 142.118 33.6055 142.118C34.0521 142.118 34.4714 142.082 34.8633 142.009C35.2598 141.931 35.6449 141.836 36.0186 141.722V142.733C35.654 142.87 35.2712 142.97 34.8701 143.034C34.4691 143.103 33.9928 143.137 33.4414 143.137C32.4251 143.137 31.5752 142.927 30.8916 142.508C30.2126 142.084 29.7021 141.487 29.3604 140.717C29.0231 139.947 28.8545 139.037 28.8545 137.989C28.8545 137.233 28.9593 136.542 29.1689 135.918C29.3831 135.289 29.693 134.747 30.0986 134.291C30.5088 133.835 31.0101 133.484 31.6025 133.238C32.1995 132.988 32.8831 132.862 33.6533 132.862C34.1592 132.862 34.6468 132.912 35.1162 133.013C35.5856 133.113 36.0094 133.257 36.3877 133.443L35.9229 134.428C35.6038 134.282 35.2529 134.157 34.8701 134.052C34.4919 133.942 34.0817 133.888 33.6396 133.888ZM39.1494 132.363V135.542C39.1494 135.724 39.1449 135.909 39.1357 136.096C39.1266 136.278 39.1107 136.447 39.0879 136.602H39.1631C39.318 136.337 39.514 136.116 39.751 135.938C39.9925 135.756 40.266 135.619 40.5713 135.528C40.8766 135.433 41.2002 135.385 41.542 135.385C42.1436 135.385 42.6449 135.48 43.0459 135.672C43.4515 135.863 43.7546 136.16 43.9551 136.561C44.1602 136.962 44.2627 137.481 44.2627 138.119V143H43.1416V138.194C43.1416 137.57 42.998 137.103 42.7109 136.793C42.4284 136.483 41.9932 136.328 41.4053 136.328C40.8493 136.328 40.4049 136.435 40.0723 136.649C39.7441 136.859 39.5072 137.169 39.3613 137.579C39.2201 137.989 39.1494 138.491 39.1494 139.083V143H38.0146V132.363H39.1494ZM49.4854 135.371C50.1234 135.371 50.6702 135.512 51.126 135.795C51.5817 136.077 51.9303 136.474 52.1719 136.984C52.4134 137.49 52.5342 138.083 52.5342 138.762V139.466H47.3594C47.373 140.345 47.5918 141.015 48.0156 141.476C48.4395 141.936 49.0365 142.166 49.8066 142.166C50.2806 142.166 50.6999 142.123 51.0645 142.036C51.429 141.95 51.8073 141.822 52.1992 141.653V142.651C51.821 142.82 51.445 142.943 51.0713 143.021C50.7021 143.098 50.2646 143.137 49.7588 143.137C49.0387 143.137 48.4098 142.991 47.8721 142.699C47.3389 142.403 46.9242 141.97 46.6279 141.4C46.3317 140.831 46.1836 140.133 46.1836 139.309C46.1836 138.502 46.318 137.805 46.5869 137.217C46.8604 136.624 47.2432 136.169 47.7354 135.85C48.2321 135.531 48.8154 135.371 49.4854 135.371ZM49.4717 136.301C48.8656 136.301 48.3825 136.499 48.0225 136.896C47.6624 137.292 47.4482 137.846 47.3799 138.557H51.3447C51.3402 138.11 51.2695 137.718 51.1328 137.381C51.0007 137.039 50.7979 136.775 50.5244 136.588C50.251 136.396 49.9001 136.301 49.4717 136.301ZM57.4629 143.137C56.7884 143.137 56.1937 142.998 55.6787 142.72C55.1637 142.442 54.7627 142.018 54.4756 141.448C54.1885 140.879 54.0449 140.161 54.0449 139.295C54.0449 138.388 54.1953 137.647 54.4961 137.073C54.8014 136.494 55.2207 136.066 55.7539 135.788C56.2871 135.51 56.8932 135.371 57.5723 135.371C57.946 135.371 58.306 135.41 58.6523 135.487C59.0033 135.56 59.2904 135.654 59.5137 135.768L59.1719 136.718C58.944 136.627 58.6797 136.545 58.3789 136.472C58.0827 136.399 57.8047 136.362 57.5449 136.362C57.0254 136.362 56.5924 136.474 56.2461 136.697C55.9043 136.921 55.6468 137.249 55.4736 137.682C55.305 138.115 55.2207 138.648 55.2207 139.281C55.2207 139.887 55.3027 140.405 55.4668 140.833C55.6354 141.261 55.8838 141.59 56.2119 141.817C56.5446 142.041 56.9593 142.152 57.4561 142.152C57.8525 142.152 58.2103 142.111 58.5293 142.029C58.8483 141.943 59.1377 141.842 59.3975 141.729V142.74C59.1468 142.868 58.8665 142.966 58.5566 143.034C58.2513 143.103 57.8867 143.137 57.4629 143.137ZM62.3027 132.363V137.887C62.3027 138.069 62.2959 138.292 62.2822 138.557C62.2686 138.816 62.2572 139.047 62.248 139.247H62.2959C62.3916 139.129 62.5306 138.953 62.7129 138.721C62.8997 138.488 63.057 138.301 63.1846 138.16L65.6729 135.508H67.0059L63.9912 138.707L67.2246 143H65.8574L63.2119 139.452L62.3027 140.286V143H61.1748V132.363H62.3027ZM69.665 132.363V135.022C69.665 135.328 69.6559 135.624 69.6377 135.911C69.624 136.198 69.6126 136.422 69.6035 136.581H69.665C69.8701 136.244 70.1663 135.959 70.5537 135.727C70.9411 135.494 71.4355 135.378 72.0371 135.378C72.9759 135.378 73.7233 135.704 74.2793 136.355C74.8398 137.003 75.1201 137.966 75.1201 139.247C75.1201 140.09 74.9925 140.801 74.7373 141.38C74.4821 141.959 74.1221 142.396 73.6572 142.692C73.1924 142.989 72.6432 143.137 72.0098 143.137C71.4173 143.137 70.9297 143.027 70.5469 142.809C70.1686 142.585 69.877 142.314 69.6719 141.995H69.583L69.3506 143H68.5303V132.363H69.665ZM71.8525 136.328C71.3102 136.328 70.8796 136.435 70.5605 136.649C70.2415 136.859 70.0114 137.178 69.8701 137.606C69.7334 138.03 69.665 138.568 69.665 139.22V139.281C69.665 140.225 69.8223 140.947 70.1367 141.448C70.4512 141.945 71.0231 142.193 71.8525 142.193C72.5498 142.193 73.0716 141.938 73.418 141.428C73.7689 140.917 73.9443 140.188 73.9443 139.24C73.9443 138.274 73.7712 137.547 73.4248 137.06C73.083 136.572 72.5589 136.328 71.8525 136.328ZM83.5625 139.24C83.5625 139.855 83.4827 140.405 83.3232 140.888C83.1637 141.371 82.9336 141.779 82.6328 142.111C82.332 142.444 81.9674 142.699 81.5391 142.877C81.1152 143.05 80.6344 143.137 80.0967 143.137C79.5954 143.137 79.1351 143.05 78.7158 142.877C78.3011 142.699 77.9411 142.444 77.6357 142.111C77.335 141.779 77.1003 141.371 76.9316 140.888C76.7676 140.405 76.6855 139.855 76.6855 139.24C76.6855 138.42 76.8245 137.723 77.1025 137.148C77.3805 136.57 77.777 136.13 78.292 135.829C78.8115 135.524 79.429 135.371 80.1445 135.371C80.8281 135.371 81.4251 135.524 81.9355 135.829C82.4505 136.134 82.8493 136.576 83.1318 137.155C83.4189 137.729 83.5625 138.424 83.5625 139.24ZM77.8613 139.24C77.8613 139.842 77.9411 140.364 78.1006 140.806C78.2601 141.248 78.5062 141.59 78.8389 141.831C79.1715 142.073 79.5999 142.193 80.124 142.193C80.6436 142.193 81.0697 142.073 81.4023 141.831C81.7396 141.59 81.988 141.248 82.1475 140.806C82.307 140.364 82.3867 139.842 82.3867 139.24C82.3867 138.643 82.307 138.128 82.1475 137.695C81.988 137.258 81.7419 136.921 81.4092 136.684C81.0765 136.447 80.6458 136.328 80.1172 136.328C79.3379 136.328 78.766 136.586 78.4014 137.101C78.0413 137.616 77.8613 138.329 77.8613 139.24ZM87.3086 139.165L84.7178 135.508H86.0166L87.9922 138.393L89.9609 135.508H91.2461L88.6553 139.165L91.3896 143H90.0908L87.9922 139.944L85.8799 143H84.5947L87.3086 139.165ZM97.624 135.508V143H96.4893V135.508H97.624ZM97.0703 132.705C97.2572 132.705 97.4167 132.767 97.5488 132.89C97.6855 133.008 97.7539 133.195 97.7539 133.45C97.7539 133.701 97.6855 133.888 97.5488 134.011C97.4167 134.134 97.2572 134.195 97.0703 134.195C96.8743 134.195 96.7103 134.134 96.5781 134.011C96.4505 133.888 96.3867 133.701 96.3867 133.45C96.3867 133.195 96.4505 133.008 96.5781 132.89C96.7103 132.767 96.8743 132.705 97.0703 132.705ZM103.578 135.371C104.467 135.371 105.139 135.59 105.595 136.027C106.05 136.46 106.278 137.158 106.278 138.119V143H105.157V138.194C105.157 137.57 105.014 137.103 104.727 136.793C104.444 136.483 104.009 136.328 103.421 136.328C102.591 136.328 102.008 136.563 101.671 137.032C101.334 137.502 101.165 138.183 101.165 139.076V143H100.03V135.508H100.946L101.117 136.588H101.179C101.338 136.324 101.541 136.103 101.787 135.925C102.033 135.743 102.309 135.606 102.614 135.515C102.92 135.419 103.241 135.371 103.578 135.371ZM111.282 143.137C110.334 143.137 109.582 142.813 109.026 142.166C108.475 141.519 108.199 140.557 108.199 139.281C108.199 137.992 108.482 137.019 109.047 136.362C109.612 135.701 110.364 135.371 111.303 135.371C111.699 135.371 112.046 135.424 112.342 135.528C112.638 135.633 112.893 135.774 113.107 135.952C113.322 136.125 113.502 136.324 113.647 136.547H113.729C113.711 136.406 113.693 136.212 113.675 135.966C113.657 135.72 113.647 135.519 113.647 135.364V132.363H114.782V143H113.866L113.695 141.934H113.647C113.506 142.157 113.326 142.36 113.107 142.542C112.893 142.724 112.636 142.87 112.335 142.979C112.039 143.084 111.688 143.137 111.282 143.137ZM111.46 142.193C112.262 142.193 112.829 141.965 113.162 141.51C113.495 141.054 113.661 140.377 113.661 139.479V139.274C113.661 138.322 113.502 137.59 113.183 137.08C112.868 136.57 112.294 136.314 111.46 136.314C110.763 136.314 110.241 136.583 109.895 137.121C109.548 137.654 109.375 138.383 109.375 139.309C109.375 140.229 109.546 140.94 109.888 141.441C110.234 141.943 110.758 142.193 111.46 142.193ZM120.073 135.371C120.711 135.371 121.258 135.512 121.714 135.795C122.17 136.077 122.518 136.474 122.76 136.984C123.001 137.49 123.122 138.083 123.122 138.762V139.466H117.947C117.961 140.345 118.18 141.015 118.604 141.476C119.027 141.936 119.624 142.166 120.395 142.166C120.868 142.166 121.288 142.123 121.652 142.036C122.017 141.95 122.395 141.822 122.787 141.653V142.651C122.409 142.82 122.033 142.943 121.659 143.021C121.29 143.098 120.853 143.137 120.347 143.137C119.627 143.137 118.998 142.991 118.46 142.699C117.927 142.403 117.512 141.97 117.216 141.4C116.92 140.831 116.771 140.133 116.771 139.309C116.771 138.502 116.906 137.805 117.175 137.217C117.448 136.624 117.831 136.169 118.323 135.85C118.82 135.531 119.403 135.371 120.073 135.371ZM120.06 136.301C119.453 136.301 118.97 136.499 118.61 136.896C118.25 137.292 118.036 137.846 117.968 138.557H121.933C121.928 138.11 121.857 137.718 121.721 137.381C121.589 137.039 121.386 136.775 121.112 136.588C120.839 136.396 120.488 136.301 120.06 136.301ZM127.47 142.207C127.657 142.207 127.848 142.191 128.044 142.159C128.24 142.127 128.399 142.089 128.522 142.043V142.925C128.39 142.984 128.206 143.034 127.969 143.075C127.736 143.116 127.508 143.137 127.285 143.137C126.889 143.137 126.529 143.068 126.205 142.932C125.882 142.79 125.622 142.553 125.426 142.221C125.234 141.888 125.139 141.428 125.139 140.84V136.396H124.072V135.843L125.146 135.398L125.597 133.771H126.28V135.508H128.475V136.396H126.28V140.806C126.28 141.275 126.387 141.626 126.602 141.858C126.82 142.091 127.11 142.207 127.47 142.207ZM132.925 135.371C133.563 135.371 134.11 135.512 134.565 135.795C135.021 136.077 135.37 136.474 135.611 136.984C135.853 137.49 135.974 138.083 135.974 138.762V139.466H130.799C130.812 140.345 131.031 141.015 131.455 141.476C131.879 141.936 132.476 142.166 133.246 142.166C133.72 142.166 134.139 142.123 134.504 142.036C134.868 141.95 135.247 141.822 135.639 141.653V142.651C135.26 142.82 134.884 142.943 134.511 143.021C134.142 143.098 133.704 143.137 133.198 143.137C132.478 143.137 131.849 142.991 131.312 142.699C130.778 142.403 130.364 141.97 130.067 141.4C129.771 140.831 129.623 140.133 129.623 139.309C129.623 138.502 129.757 137.805 130.026 137.217C130.3 136.624 130.683 136.169 131.175 135.85C131.672 135.531 132.255 135.371 132.925 135.371ZM132.911 136.301C132.305 136.301 131.822 136.499 131.462 136.896C131.102 137.292 130.888 137.846 130.819 138.557H134.784C134.78 138.11 134.709 137.718 134.572 137.381C134.44 137.039 134.237 136.775 133.964 136.588C133.69 136.396 133.34 136.301 132.911 136.301ZM141.306 135.371C141.456 135.371 141.613 135.38 141.777 135.398C141.941 135.412 142.087 135.433 142.215 135.46L142.071 136.513C141.948 136.481 141.812 136.456 141.661 136.438C141.511 136.419 141.369 136.41 141.237 136.41C140.937 136.41 140.652 136.472 140.383 136.595C140.118 136.713 139.886 136.886 139.686 137.114C139.485 137.338 139.328 137.609 139.214 137.928C139.1 138.242 139.043 138.593 139.043 138.98V143H137.901V135.508H138.845L138.968 136.889H139.016C139.171 136.611 139.357 136.358 139.576 136.13C139.795 135.897 140.048 135.713 140.335 135.576C140.627 135.439 140.95 135.371 141.306 135.371ZM151.765 135.371C152.59 135.371 153.212 135.588 153.631 136.021C154.05 136.449 154.26 137.139 154.26 138.092V143H153.139V138.146C153.139 137.54 153.007 137.087 152.742 136.786C152.482 136.481 152.095 136.328 151.58 136.328C150.855 136.328 150.329 136.538 150.001 136.957C149.673 137.376 149.509 137.994 149.509 138.81V143H148.381V138.146C148.381 137.741 148.322 137.404 148.203 137.135C148.089 136.866 147.916 136.665 147.684 136.533C147.456 136.396 147.166 136.328 146.815 136.328C146.319 136.328 145.92 136.431 145.619 136.636C145.318 136.841 145.1 137.146 144.963 137.552C144.831 137.953 144.765 138.447 144.765 139.035V143H143.63V135.508H144.546L144.717 136.567H144.778C144.929 136.308 145.118 136.089 145.346 135.911C145.574 135.733 145.829 135.599 146.111 135.508C146.394 135.417 146.695 135.371 147.014 135.371C147.583 135.371 148.06 135.478 148.442 135.692C148.83 135.902 149.11 136.223 149.283 136.656H149.345C149.591 136.223 149.928 135.902 150.356 135.692C150.785 135.478 151.254 135.371 151.765 135.371ZM157.726 135.508V143H156.591V135.508H157.726ZM157.172 132.705C157.359 132.705 157.518 132.767 157.65 132.89C157.787 133.008 157.855 133.195 157.855 133.45C157.855 133.701 157.787 133.888 157.65 134.011C157.518 134.134 157.359 134.195 157.172 134.195C156.976 134.195 156.812 134.134 156.68 134.011C156.552 133.888 156.488 133.701 156.488 133.45C156.488 133.195 156.552 133.008 156.68 132.89C156.812 132.767 156.976 132.705 157.172 132.705ZM163.68 135.371C164.568 135.371 165.241 135.59 165.696 136.027C166.152 136.46 166.38 137.158 166.38 138.119V143H165.259V138.194C165.259 137.57 165.115 137.103 164.828 136.793C164.546 136.483 164.11 136.328 163.522 136.328C162.693 136.328 162.11 136.563 161.772 137.032C161.435 137.502 161.267 138.183 161.267 139.076V143H160.132V135.508H161.048L161.219 136.588H161.28C161.44 136.324 161.643 136.103 161.889 135.925C162.135 135.743 162.41 135.606 162.716 135.515C163.021 135.419 163.342 135.371 163.68 135.371ZM171.521 135.385C172.414 135.385 173.077 135.585 173.51 135.986C173.943 136.387 174.159 137.028 174.159 137.907V143H173.332L173.113 141.893H173.059C172.849 142.166 172.63 142.396 172.402 142.583C172.174 142.765 171.91 142.904 171.609 143C171.313 143.091 170.949 143.137 170.516 143.137C170.06 143.137 169.654 143.057 169.299 142.897C168.948 142.738 168.67 142.496 168.465 142.173C168.264 141.849 168.164 141.439 168.164 140.942C168.164 140.195 168.46 139.621 169.053 139.22C169.645 138.819 170.548 138.6 171.76 138.563L173.052 138.509V138.051C173.052 137.404 172.913 136.95 172.635 136.69C172.357 136.431 171.965 136.301 171.459 136.301C171.067 136.301 170.693 136.358 170.338 136.472C169.982 136.586 169.645 136.72 169.326 136.875L168.978 136.014C169.315 135.84 169.702 135.692 170.14 135.569C170.577 135.446 171.037 135.385 171.521 135.385ZM173.038 139.309L171.896 139.356C170.962 139.393 170.304 139.546 169.921 139.814C169.538 140.083 169.347 140.464 169.347 140.956C169.347 141.384 169.477 141.701 169.736 141.906C169.996 142.111 170.34 142.214 170.769 142.214C171.434 142.214 171.979 142.029 172.402 141.66C172.826 141.291 173.038 140.737 173.038 139.999V139.309ZM178.917 142.207C179.104 142.207 179.295 142.191 179.491 142.159C179.687 142.127 179.847 142.089 179.97 142.043V142.925C179.838 142.984 179.653 143.034 179.416 143.075C179.184 143.116 178.956 143.137 178.732 143.137C178.336 143.137 177.976 143.068 177.652 142.932C177.329 142.79 177.069 142.553 176.873 142.221C176.682 141.888 176.586 141.428 176.586 140.84V136.396H175.52V135.843L176.593 135.398L177.044 133.771H177.728V135.508H179.922V136.396H177.728V140.806C177.728 141.275 177.835 141.626 178.049 141.858C178.268 142.091 178.557 142.207 178.917 142.207ZM184.372 135.371C185.01 135.371 185.557 135.512 186.013 135.795C186.468 136.077 186.817 136.474 187.059 136.984C187.3 137.49 187.421 138.083 187.421 138.762V139.466H182.246C182.26 140.345 182.479 141.015 182.902 141.476C183.326 141.936 183.923 142.166 184.693 142.166C185.167 142.166 185.587 142.123 185.951 142.036C186.316 141.95 186.694 141.822 187.086 141.653V142.651C186.708 142.82 186.332 142.943 185.958 143.021C185.589 143.098 185.151 143.137 184.646 143.137C183.925 143.137 183.297 142.991 182.759 142.699C182.226 142.403 181.811 141.97 181.515 141.4C181.218 140.831 181.07 140.133 181.07 139.309C181.07 138.502 181.205 137.805 181.474 137.217C181.747 136.624 182.13 136.169 182.622 135.85C183.119 135.531 183.702 135.371 184.372 135.371ZM184.358 136.301C183.752 136.301 183.269 136.499 182.909 136.896C182.549 137.292 182.335 137.846 182.267 138.557H186.231C186.227 138.11 186.156 137.718 186.02 137.381C185.887 137.039 185.685 136.775 185.411 136.588C185.138 136.396 184.787 136.301 184.358 136.301Z" fill="#474D66"/>
<rect y="66" width="16" height="16" rx="4" fill="#3366FF"/>
<path d="M12 70.5C11.72 70.5 11.47 70.61 11.29 70.79L7 75.09L4.71 72.79C4.53 72.61 4.28 72.5 4 72.5C3.45 72.5 3 72.95 3 73.5C3 73.78 3.11 74.03 3.29 74.21L6.29 77.21C6.47 77.39 6.72 77.5 7 77.5C7.28 77.5 7.53 77.39 7.71 77.21L12.71 72.21C12.89 72.03 13 71.78 13 71.5C13 70.95 12.55 70.5 12 70.5Z" fill="white"/>
<path d="M33.6396 69.8877C33.0882 69.8877 32.5915 69.9834 32.1494 70.1748C31.7119 70.3617 31.3382 70.6351 31.0283 70.9951C30.723 71.3506 30.4883 71.7812 30.3242 72.2871C30.1602 72.793 30.0781 73.3626 30.0781 73.9961C30.0781 74.8346 30.208 75.5638 30.4678 76.1836C30.7321 76.7988 31.124 77.2751 31.6436 77.6123C32.1676 77.9495 32.8216 78.1182 33.6055 78.1182C34.0521 78.1182 34.4714 78.0817 34.8633 78.0088C35.2598 77.9313 35.6449 77.8356 36.0186 77.7217V78.7334C35.654 78.8701 35.2712 78.9704 34.8701 79.0342C34.4691 79.1025 33.9928 79.1367 33.4414 79.1367C32.4251 79.1367 31.5752 78.9271 30.8916 78.5078C30.2126 78.084 29.7021 77.487 29.3604 76.7168C29.0231 75.9466 28.8545 75.0374 28.8545 73.9893C28.8545 73.2327 28.9593 72.5423 29.1689 71.918C29.3831 71.2891 29.693 70.7467 30.0986 70.291C30.5088 69.8353 31.0101 69.4844 31.6025 69.2383C32.1995 68.9876 32.8831 68.8623 33.6533 68.8623C34.1592 68.8623 34.6468 68.9124 35.1162 69.0127C35.5856 69.113 36.0094 69.2565 36.3877 69.4434L35.9229 70.4277C35.6038 70.2819 35.2529 70.1566 34.8701 70.0518C34.4919 69.9424 34.0817 69.8877 33.6396 69.8877ZM39.1494 68.3633V71.542C39.1494 71.7243 39.1449 71.9089 39.1357 72.0957C39.1266 72.278 39.1107 72.4466 39.0879 72.6016H39.1631C39.318 72.3372 39.514 72.1162 39.751 71.9385C39.9925 71.7562 40.266 71.6195 40.5713 71.5283C40.8766 71.4326 41.2002 71.3848 41.542 71.3848C42.1436 71.3848 42.6449 71.4805 43.0459 71.6719C43.4515 71.8633 43.7546 72.1595 43.9551 72.5605C44.1602 72.9616 44.2627 73.4811 44.2627 74.1191V79H43.1416V74.1943C43.1416 73.57 42.998 73.1029 42.7109 72.793C42.4284 72.4831 41.9932 72.3281 41.4053 72.3281C40.8493 72.3281 40.4049 72.4352 40.0723 72.6494C39.7441 72.859 39.5072 73.1689 39.3613 73.5791C39.2201 73.9893 39.1494 74.4906 39.1494 75.083V79H38.0146V68.3633H39.1494ZM49.4854 71.3711C50.1234 71.3711 50.6702 71.5124 51.126 71.7949C51.5817 72.0775 51.9303 72.474 52.1719 72.9844C52.4134 73.4902 52.5342 74.0827 52.5342 74.7617V75.4658H47.3594C47.373 76.3454 47.5918 77.0153 48.0156 77.4756C48.4395 77.9359 49.0365 78.166 49.8066 78.166C50.2806 78.166 50.6999 78.1227 51.0645 78.0361C51.429 77.9495 51.8073 77.8219 52.1992 77.6533V78.6514C51.821 78.82 51.445 78.943 51.0713 79.0205C50.7021 79.098 50.2646 79.1367 49.7588 79.1367C49.0387 79.1367 48.4098 78.9909 47.8721 78.6992C47.3389 78.403 46.9242 77.9701 46.6279 77.4004C46.3317 76.8307 46.1836 76.1335 46.1836 75.3086C46.1836 74.502 46.318 73.8047 46.5869 73.2168C46.8604 72.6243 47.2432 72.1686 47.7354 71.8496C48.2321 71.5306 48.8154 71.3711 49.4854 71.3711ZM49.4717 72.3008C48.8656 72.3008 48.3825 72.499 48.0225 72.8955C47.6624 73.292 47.4482 73.8457 47.3799 74.5566H51.3447C51.3402 74.11 51.2695 73.7181 51.1328 73.3809C51.0007 73.0391 50.7979 72.7747 50.5244 72.5879C50.251 72.3965 49.9001 72.3008 49.4717 72.3008ZM57.4629 79.1367C56.7884 79.1367 56.1937 78.9977 55.6787 78.7197C55.1637 78.4417 54.7627 78.0179 54.4756 77.4482C54.1885 76.8786 54.0449 76.1608 54.0449 75.2949C54.0449 74.388 54.1953 73.6475 54.4961 73.0732C54.8014 72.4945 55.2207 72.0661 55.7539 71.7881C56.2871 71.5101 56.8932 71.3711 57.5723 71.3711C57.946 71.3711 58.306 71.4098 58.6523 71.4873C59.0033 71.5602 59.2904 71.6536 59.5137 71.7676L59.1719 72.7178C58.944 72.6266 58.6797 72.5446 58.3789 72.4717C58.0827 72.3988 57.8047 72.3623 57.5449 72.3623C57.0254 72.3623 56.5924 72.474 56.2461 72.6973C55.9043 72.9206 55.6468 73.2487 55.4736 73.6816C55.305 74.1146 55.2207 74.6478 55.2207 75.2812C55.2207 75.8874 55.3027 76.4046 55.4668 76.833C55.6354 77.2614 55.8838 77.5895 56.2119 77.8174C56.5446 78.0407 56.9593 78.1523 57.4561 78.1523C57.8525 78.1523 58.2103 78.1113 58.5293 78.0293C58.8483 77.9427 59.1377 77.8424 59.3975 77.7285V78.7402C59.1468 78.8678 58.8665 78.9658 58.5566 79.0342C58.2513 79.1025 57.8867 79.1367 57.4629 79.1367ZM62.3027 68.3633V73.8867C62.3027 74.069 62.2959 74.2923 62.2822 74.5566C62.2686 74.8164 62.2572 75.0465 62.248 75.2471H62.2959C62.3916 75.1286 62.5306 74.9531 62.7129 74.7207C62.8997 74.4883 63.057 74.3014 63.1846 74.1602L65.6729 71.5078H67.0059L63.9912 74.707L67.2246 79H65.8574L63.2119 75.4521L62.3027 76.2861V79H61.1748V68.3633H62.3027ZM69.665 68.3633V71.0225C69.665 71.3278 69.6559 71.624 69.6377 71.9111C69.624 72.1982 69.6126 72.4215 69.6035 72.5811H69.665C69.8701 72.2438 70.1663 71.959 70.5537 71.7266C70.9411 71.4941 71.4355 71.3779 72.0371 71.3779C72.9759 71.3779 73.7233 71.7038 74.2793 72.3555C74.8398 73.0026 75.1201 73.9665 75.1201 75.2471C75.1201 76.0902 74.9925 76.8011 74.7373 77.3799C74.4821 77.9587 74.1221 78.3962 73.6572 78.6924C73.1924 78.9886 72.6432 79.1367 72.0098 79.1367C71.4173 79.1367 70.9297 79.0273 70.5469 78.8086C70.1686 78.5853 69.877 78.3141 69.6719 77.9951H69.583L69.3506 79H68.5303V68.3633H69.665ZM71.8525 72.3281C71.3102 72.3281 70.8796 72.4352 70.5605 72.6494C70.2415 72.859 70.0114 73.1781 69.8701 73.6064C69.7334 74.0303 69.665 74.568 69.665 75.2197V75.2812C69.665 76.2246 69.8223 76.9469 70.1367 77.4482C70.4512 77.945 71.0231 78.1934 71.8525 78.1934C72.5498 78.1934 73.0716 77.9382 73.418 77.4277C73.7689 76.9173 73.9443 76.1882 73.9443 75.2402C73.9443 74.2741 73.7712 73.5472 73.4248 73.0596C73.083 72.5719 72.5589 72.3281 71.8525 72.3281ZM83.5625 75.2402C83.5625 75.8555 83.4827 76.4046 83.3232 76.8877C83.1637 77.3708 82.9336 77.7786 82.6328 78.1113C82.332 78.444 81.9674 78.6992 81.5391 78.877C81.1152 79.0501 80.6344 79.1367 80.0967 79.1367C79.5954 79.1367 79.1351 79.0501 78.7158 78.877C78.3011 78.6992 77.9411 78.444 77.6357 78.1113C77.335 77.7786 77.1003 77.3708 76.9316 76.8877C76.7676 76.4046 76.6855 75.8555 76.6855 75.2402C76.6855 74.4199 76.8245 73.7227 77.1025 73.1484C77.3805 72.5697 77.777 72.1299 78.292 71.8291C78.8115 71.5238 79.429 71.3711 80.1445 71.3711C80.8281 71.3711 81.4251 71.5238 81.9355 71.8291C82.4505 72.1344 82.8493 72.5765 83.1318 73.1553C83.4189 73.7295 83.5625 74.4245 83.5625 75.2402ZM77.8613 75.2402C77.8613 75.8418 77.9411 76.3636 78.1006 76.8057C78.2601 77.2477 78.5062 77.5895 78.8389 77.8311C79.1715 78.0726 79.5999 78.1934 80.124 78.1934C80.6436 78.1934 81.0697 78.0726 81.4023 77.8311C81.7396 77.5895 81.988 77.2477 82.1475 76.8057C82.307 76.3636 82.3867 75.8418 82.3867 75.2402C82.3867 74.6432 82.307 74.1283 82.1475 73.6953C81.988 73.2578 81.7419 72.9206 81.4092 72.6836C81.0765 72.4466 80.6458 72.3281 80.1172 72.3281C79.3379 72.3281 78.766 72.5856 78.4014 73.1006C78.0413 73.6156 77.8613 74.3288 77.8613 75.2402ZM87.3086 75.165L84.7178 71.5078H86.0166L87.9922 74.3926L89.9609 71.5078H91.2461L88.6553 75.165L91.3896 79H90.0908L87.9922 75.9443L85.8799 79H84.5947L87.3086 75.165ZM99.4902 79.1367C98.8158 79.1367 98.221 78.9977 97.7061 78.7197C97.1911 78.4417 96.79 78.0179 96.5029 77.4482C96.2158 76.8786 96.0723 76.1608 96.0723 75.2949C96.0723 74.388 96.2227 73.6475 96.5234 73.0732C96.8288 72.4945 97.248 72.0661 97.7812 71.7881C98.3145 71.5101 98.9206 71.3711 99.5996 71.3711C99.9733 71.3711 100.333 71.4098 100.68 71.4873C101.031 71.5602 101.318 71.6536 101.541 71.7676L101.199 72.7178C100.971 72.6266 100.707 72.5446 100.406 72.4717C100.11 72.3988 99.832 72.3623 99.5723 72.3623C99.0527 72.3623 98.6198 72.474 98.2734 72.6973C97.9316 72.9206 97.6742 73.2487 97.501 73.6816C97.3324 74.1146 97.248 74.6478 97.248 75.2812C97.248 75.8874 97.3301 76.4046 97.4941 76.833C97.6628 77.2614 97.9111 77.5895 98.2393 77.8174C98.5719 78.0407 98.9867 78.1523 99.4834 78.1523C99.8799 78.1523 100.238 78.1113 100.557 78.0293C100.876 77.9427 101.165 77.8424 101.425 77.7285V78.7402C101.174 78.8678 100.894 78.9658 100.584 79.0342C100.279 79.1025 99.9141 79.1367 99.4902 79.1367ZM104.337 68.3633V71.542C104.337 71.7243 104.332 71.9089 104.323 72.0957C104.314 72.278 104.298 72.4466 104.275 72.6016H104.351C104.506 72.3372 104.701 72.1162 104.938 71.9385C105.18 71.7562 105.453 71.6195 105.759 71.5283C106.064 71.4326 106.388 71.3848 106.729 71.3848C107.331 71.3848 107.832 71.4805 108.233 71.6719C108.639 71.8633 108.942 72.1595 109.143 72.5605C109.348 72.9616 109.45 73.4811 109.45 74.1191V79H108.329V74.1943C108.329 73.57 108.186 73.1029 107.898 72.793C107.616 72.4831 107.181 72.3281 106.593 72.3281C106.037 72.3281 105.592 72.4352 105.26 72.6494C104.932 72.859 104.695 73.1689 104.549 73.5791C104.408 73.9893 104.337 74.4906 104.337 75.083V79H103.202V68.3633H104.337ZM114.673 71.3711C115.311 71.3711 115.858 71.5124 116.313 71.7949C116.769 72.0775 117.118 72.474 117.359 72.9844C117.601 73.4902 117.722 74.0827 117.722 74.7617V75.4658H112.547C112.561 76.3454 112.779 77.0153 113.203 77.4756C113.627 77.9359 114.224 78.166 114.994 78.166C115.468 78.166 115.887 78.1227 116.252 78.0361C116.617 77.9495 116.995 77.8219 117.387 77.6533V78.6514C117.008 78.82 116.632 78.943 116.259 79.0205C115.89 79.098 115.452 79.1367 114.946 79.1367C114.226 79.1367 113.597 78.9909 113.06 78.6992C112.526 78.403 112.112 77.9701 111.815 77.4004C111.519 76.8307 111.371 76.1335 111.371 75.3086C111.371 74.502 111.506 73.8047 111.774 73.2168C112.048 72.6243 112.431 72.1686 112.923 71.8496C113.42 71.5306 114.003 71.3711 114.673 71.3711ZM114.659 72.3008C114.053 72.3008 113.57 72.499 113.21 72.8955C112.85 73.292 112.636 73.8457 112.567 74.5566H116.532C116.528 74.11 116.457 73.7181 116.32 73.3809C116.188 73.0391 115.985 72.7747 115.712 72.5879C115.438 72.3965 115.088 72.3008 114.659 72.3008ZM122.65 79.1367C121.976 79.1367 121.381 78.9977 120.866 78.7197C120.351 78.4417 119.95 78.0179 119.663 77.4482C119.376 76.8786 119.232 76.1608 119.232 75.2949C119.232 74.388 119.383 73.6475 119.684 73.0732C119.989 72.4945 120.408 72.0661 120.941 71.7881C121.475 71.5101 122.081 71.3711 122.76 71.3711C123.133 71.3711 123.493 71.4098 123.84 71.4873C124.191 71.5602 124.478 71.6536 124.701 71.7676L124.359 72.7178C124.132 72.6266 123.867 72.5446 123.566 72.4717C123.27 72.3988 122.992 72.3623 122.732 72.3623C122.213 72.3623 121.78 72.474 121.434 72.6973C121.092 72.9206 120.834 73.2487 120.661 73.6816C120.493 74.1146 120.408 74.6478 120.408 75.2812C120.408 75.8874 120.49 76.4046 120.654 76.833C120.823 77.2614 121.071 77.5895 121.399 77.8174C121.732 78.0407 122.147 78.1523 122.644 78.1523C123.04 78.1523 123.398 78.1113 123.717 78.0293C124.036 77.9427 124.325 77.8424 124.585 77.7285V78.7402C124.334 78.8678 124.054 78.9658 123.744 79.0342C123.439 79.1025 123.074 79.1367 122.65 79.1367ZM127.49 68.3633V73.8867C127.49 74.069 127.483 74.2923 127.47 74.5566C127.456 74.8164 127.445 75.0465 127.436 75.2471H127.483C127.579 75.1286 127.718 74.9531 127.9 74.7207C128.087 74.4883 128.244 74.3014 128.372 74.1602L130.86 71.5078H132.193L129.179 74.707L132.412 79H131.045L128.399 75.4521L127.49 76.2861V79H126.362V68.3633H127.49ZM136.603 71.3711C137.241 71.3711 137.787 71.5124 138.243 71.7949C138.699 72.0775 139.048 72.474 139.289 72.9844C139.531 73.4902 139.651 74.0827 139.651 74.7617V75.4658H134.477C134.49 76.3454 134.709 77.0153 135.133 77.4756C135.557 77.9359 136.154 78.166 136.924 78.166C137.398 78.166 137.817 78.1227 138.182 78.0361C138.546 77.9495 138.924 77.8219 139.316 77.6533V78.6514C138.938 78.82 138.562 78.943 138.188 79.0205C137.819 79.098 137.382 79.1367 136.876 79.1367C136.156 79.1367 135.527 78.9909 134.989 78.6992C134.456 78.403 134.041 77.9701 133.745 77.4004C133.449 76.8307 133.301 76.1335 133.301 75.3086C133.301 74.502 133.435 73.8047 133.704 73.2168C133.978 72.6243 134.36 72.1686 134.853 71.8496C135.349 71.5306 135.933 71.3711 136.603 71.3711ZM136.589 72.3008C135.983 72.3008 135.5 72.499 135.14 72.8955C134.78 73.292 134.565 73.8457 134.497 74.5566H138.462C138.457 74.11 138.387 73.7181 138.25 73.3809C138.118 73.0391 137.915 72.7747 137.642 72.5879C137.368 72.3965 137.017 72.3008 136.589 72.3008ZM144.245 79.1367C143.297 79.1367 142.545 78.8132 141.989 78.166C141.438 77.5189 141.162 76.5573 141.162 75.2812C141.162 73.9915 141.445 73.0186 142.01 72.3623C142.575 71.7015 143.327 71.3711 144.266 71.3711C144.662 71.3711 145.008 71.4235 145.305 71.5283C145.601 71.6331 145.856 71.7744 146.07 71.9521C146.285 72.1253 146.465 72.3236 146.61 72.5469H146.692C146.674 72.4056 146.656 72.2119 146.638 71.9658C146.619 71.7197 146.61 71.5192 146.61 71.3643V68.3633H147.745V79H146.829L146.658 77.9336H146.61C146.469 78.1569 146.289 78.3597 146.07 78.542C145.856 78.7243 145.599 78.8701 145.298 78.9795C145.002 79.0843 144.651 79.1367 144.245 79.1367ZM144.423 78.1934C145.225 78.1934 145.792 77.9655 146.125 77.5098C146.458 77.054 146.624 76.3773 146.624 75.4795V75.2744C146.624 74.3219 146.465 73.5905 146.146 73.0801C145.831 72.5697 145.257 72.3145 144.423 72.3145C143.726 72.3145 143.204 72.5833 142.857 73.1211C142.511 73.6543 142.338 74.3835 142.338 75.3086C142.338 76.2292 142.509 76.9401 142.851 77.4414C143.197 77.9427 143.721 78.1934 144.423 78.1934Z" fill="#474D66"/>
<rect x="0.5" y="2.5" width="15" height="15" rx="3.5" fill="white" stroke="#D8DAE5"/>
<path d="M33.6396 5.8877C33.0882 5.8877 32.5915 5.9834 32.1494 6.1748C31.7119 6.36165 31.3382 6.63509 31.0283 6.99512C30.723 7.35059 30.4883 7.78125 30.3242 8.28711C30.1602 8.79297 30.0781 9.36263 30.0781 9.99609C30.0781 10.8346 30.208 11.5638 30.4678 12.1836C30.7321 12.7988 31.124 13.2751 31.6436 13.6123C32.1676 13.9495 32.8216 14.1182 33.6055 14.1182C34.0521 14.1182 34.4714 14.0817 34.8633 14.0088C35.2598 13.9313 35.6449 13.8356 36.0186 13.7217V14.7334C35.654 14.8701 35.2712 14.9704 34.8701 15.0342C34.4691 15.1025 33.9928 15.1367 33.4414 15.1367C32.4251 15.1367 31.5752 14.9271 30.8916 14.5078C30.2126 14.084 29.7021 13.487 29.3604 12.7168C29.0231 11.9466 28.8545 11.0374 28.8545 9.98926C28.8545 9.23275 28.9593 8.54232 29.1689 7.91797C29.3831 7.28906 29.693 6.74674 30.0986 6.29102C30.5088 5.83529 31.0101 5.48438 31.6025 5.23828C32.1995 4.98763 32.8831 4.8623 33.6533 4.8623C34.1592 4.8623 34.6468 4.91243 35.1162 5.0127C35.5856 5.11296 36.0094 5.25651 36.3877 5.44336L35.9229 6.42773C35.6038 6.2819 35.2529 6.15658 34.8701 6.05176C34.4919 5.94238 34.0817 5.8877 33.6396 5.8877ZM39.1494 4.36328V7.54199C39.1494 7.72428 39.1449 7.90885 39.1357 8.0957C39.1266 8.27799 39.1107 8.44661 39.0879 8.60156H39.1631C39.318 8.33724 39.514 8.11621 39.751 7.93848C39.9925 7.75618 40.266 7.61947 40.5713 7.52832C40.8766 7.43262 41.2002 7.38477 41.542 7.38477C42.1436 7.38477 42.6449 7.48047 43.0459 7.67188C43.4515 7.86328 43.7546 8.15951 43.9551 8.56055C44.1602 8.96159 44.2627 9.48112 44.2627 10.1191V15H43.1416V10.1943C43.1416 9.56999 42.998 9.10286 42.7109 8.79297C42.4284 8.48307 41.9932 8.32812 41.4053 8.32812C40.8493 8.32812 40.4049 8.43522 40.0723 8.64941C39.7441 8.85905 39.5072 9.16895 39.3613 9.5791C39.2201 9.98926 39.1494 10.4906 39.1494 11.083V15H38.0146V4.36328H39.1494ZM49.4854 7.37109C50.1234 7.37109 50.6702 7.51237 51.126 7.79492C51.5817 8.07747 51.9303 8.47396 52.1719 8.98438C52.4134 9.49023 52.5342 10.0827 52.5342 10.7617V11.4658H47.3594C47.373 12.3454 47.5918 13.0153 48.0156 13.4756C48.4395 13.9359 49.0365 14.166 49.8066 14.166C50.2806 14.166 50.6999 14.1227 51.0645 14.0361C51.429 13.9495 51.8073 13.8219 52.1992 13.6533V14.6514C51.821 14.82 51.445 14.943 51.0713 15.0205C50.7021 15.098 50.2646 15.1367 49.7588 15.1367C49.0387 15.1367 48.4098 14.9909 47.8721 14.6992C47.3389 14.403 46.9242 13.9701 46.6279 13.4004C46.3317 12.8307 46.1836 12.1335 46.1836 11.3086C46.1836 10.502 46.318 9.80469 46.5869 9.2168C46.8604 8.62435 47.2432 8.16862 47.7354 7.84961C48.2321 7.5306 48.8154 7.37109 49.4854 7.37109ZM49.4717 8.30078C48.8656 8.30078 48.3825 8.49902 48.0225 8.89551C47.6624 9.29199 47.4482 9.8457 47.3799 10.5566H51.3447C51.3402 10.11 51.2695 9.7181 51.1328 9.38086C51.0007 9.03906 50.7979 8.77474 50.5244 8.58789C50.251 8.39648 49.9001 8.30078 49.4717 8.30078ZM57.4629 15.1367C56.7884 15.1367 56.1937 14.9977 55.6787 14.7197C55.1637 14.4417 54.7627 14.0179 54.4756 13.4482C54.1885 12.8786 54.0449 12.1608 54.0449 11.2949C54.0449 10.388 54.1953 9.64746 54.4961 9.07324C54.8014 8.49447 55.2207 8.06608 55.7539 7.78809C56.2871 7.51009 56.8932 7.37109 57.5723 7.37109C57.946 7.37109 58.306 7.40983 58.6523 7.4873C59.0033 7.56022 59.2904 7.65365 59.5137 7.76758L59.1719 8.71777C58.944 8.62663 58.6797 8.5446 58.3789 8.47168C58.0827 8.39876 57.8047 8.3623 57.5449 8.3623C57.0254 8.3623 56.5924 8.47396 56.2461 8.69727C55.9043 8.92057 55.6468 9.2487 55.4736 9.68164C55.305 10.1146 55.2207 10.6478 55.2207 11.2812C55.2207 11.8874 55.3027 12.4046 55.4668 12.833C55.6354 13.2614 55.8838 13.5895 56.2119 13.8174C56.5446 14.0407 56.9593 14.1523 57.4561 14.1523C57.8525 14.1523 58.2103 14.1113 58.5293 14.0293C58.8483 13.9427 59.1377 13.8424 59.3975 13.7285V14.7402C59.1468 14.8678 58.8665 14.9658 58.5566 15.0342C58.2513 15.1025 57.8867 15.1367 57.4629 15.1367ZM62.3027 4.36328V9.88672C62.3027 10.069 62.2959 10.2923 62.2822 10.5566C62.2686 10.8164 62.2572 11.0465 62.248 11.2471H62.2959C62.3916 11.1286 62.5306 10.9531 62.7129 10.7207C62.8997 10.4883 63.057 10.3014 63.1846 10.1602L65.6729 7.50781H67.0059L63.9912 10.707L67.2246 15H65.8574L63.2119 11.4521L62.3027 12.2861V15H61.1748V4.36328H62.3027ZM69.665 4.36328V7.02246C69.665 7.3278 69.6559 7.62402 69.6377 7.91113C69.624 8.19824 69.6126 8.42155 69.6035 8.58105H69.665C69.8701 8.24382 70.1663 7.95898 70.5537 7.72656C70.9411 7.49414 71.4355 7.37793 72.0371 7.37793C72.9759 7.37793 73.7233 7.70378 74.2793 8.35547C74.8398 9.0026 75.1201 9.96647 75.1201 11.2471C75.1201 12.0902 74.9925 12.8011 74.7373 13.3799C74.4821 13.9587 74.1221 14.3962 73.6572 14.6924C73.1924 14.9886 72.6432 15.1367 72.0098 15.1367C71.4173 15.1367 70.9297 15.0273 70.5469 14.8086C70.1686 14.5853 69.877 14.3141 69.6719 13.9951H69.583L69.3506 15H68.5303V4.36328H69.665ZM71.8525 8.32812C71.3102 8.32812 70.8796 8.43522 70.5605 8.64941C70.2415 8.85905 70.0114 9.17806 69.8701 9.60645C69.7334 10.0303 69.665 10.568 69.665 11.2197V11.2812C69.665 12.2246 69.8223 12.9469 70.1367 13.4482C70.4512 13.945 71.0231 14.1934 71.8525 14.1934C72.5498 14.1934 73.0716 13.9382 73.418 13.4277C73.7689 12.9173 73.9443 12.1882 73.9443 11.2402C73.9443 10.2741 73.7712 9.5472 73.4248 9.05957C73.083 8.57194 72.5589 8.32812 71.8525 8.32812ZM83.5625 11.2402C83.5625 11.8555 83.4827 12.4046 83.3232 12.8877C83.1637 13.3708 82.9336 13.7786 82.6328 14.1113C82.332 14.444 81.9674 14.6992 81.5391 14.877C81.1152 15.0501 80.6344 15.1367 80.0967 15.1367C79.5954 15.1367 79.1351 15.0501 78.7158 14.877C78.3011 14.6992 77.9411 14.444 77.6357 14.1113C77.335 13.7786 77.1003 13.3708 76.9316 12.8877C76.7676 12.4046 76.6855 11.8555 76.6855 11.2402C76.6855 10.4199 76.8245 9.72266 77.1025 9.14844C77.3805 8.56966 77.777 8.12988 78.292 7.8291C78.8115 7.52376 79.429 7.37109 80.1445 7.37109C80.8281 7.37109 81.4251 7.52376 81.9355 7.8291C82.4505 8.13444 82.8493 8.5765 83.1318 9.15527C83.4189 9.72949 83.5625 10.4245 83.5625 11.2402ZM77.8613 11.2402C77.8613 11.8418 77.9411 12.3636 78.1006 12.8057C78.2601 13.2477 78.5062 13.5895 78.8389 13.8311C79.1715 14.0726 79.5999 14.1934 80.124 14.1934C80.6436 14.1934 81.0697 14.0726 81.4023 13.8311C81.7396 13.5895 81.988 13.2477 82.1475 12.8057C82.307 12.3636 82.3867 11.8418 82.3867 11.2402C82.3867 10.6432 82.307 10.1283 82.1475 9.69531C81.988 9.25781 81.7419 8.92057 81.4092 8.68359C81.0765 8.44661 80.6458 8.32812 80.1172 8.32812C79.3379 8.32812 78.766 8.58561 78.4014 9.10059C78.0413 9.61556 77.8613 10.3288 77.8613 11.2402ZM87.3086 11.165L84.7178 7.50781H86.0166L87.9922 10.3926L89.9609 7.50781H91.2461L88.6553 11.165L91.3896 15H90.0908L87.9922 11.9443L85.8799 15H84.5947L87.3086 11.165ZM99.1553 15.1367C98.2074 15.1367 97.4554 14.8132 96.8994 14.166C96.348 13.5189 96.0723 12.5573 96.0723 11.2812C96.0723 9.99154 96.3548 9.01855 96.9199 8.3623C97.485 7.7015 98.237 7.37109 99.1758 7.37109C99.5723 7.37109 99.9186 7.4235 100.215 7.52832C100.511 7.63314 100.766 7.77441 100.98 7.95215C101.195 8.12533 101.375 8.32357 101.521 8.54688H101.603C101.584 8.4056 101.566 8.21191 101.548 7.96582C101.53 7.71973 101.521 7.51921 101.521 7.36426V4.36328H102.655V15H101.739L101.568 13.9336H101.521C101.379 14.1569 101.199 14.3597 100.98 14.542C100.766 14.7243 100.509 14.8701 100.208 14.9795C99.9118 15.0843 99.5609 15.1367 99.1553 15.1367ZM99.333 14.1934C100.135 14.1934 100.702 13.9655 101.035 13.5098C101.368 13.054 101.534 12.3773 101.534 11.4795V11.2744C101.534 10.3219 101.375 9.59049 101.056 9.08008C100.741 8.56966 100.167 8.31445 99.333 8.31445C98.6357 8.31445 98.1139 8.58333 97.7676 9.12109C97.4212 9.6543 97.248 10.3835 97.248 11.3086C97.248 12.2292 97.4189 12.9401 97.7607 13.4414C98.1071 13.9427 98.6312 14.1934 99.333 14.1934ZM107.946 7.37109C108.584 7.37109 109.131 7.51237 109.587 7.79492C110.043 8.07747 110.391 8.47396 110.633 8.98438C110.874 9.49023 110.995 10.0827 110.995 10.7617V11.4658H105.82C105.834 12.3454 106.053 13.0153 106.477 13.4756C106.9 13.9359 107.497 14.166 108.268 14.166C108.742 14.166 109.161 14.1227 109.525 14.0361C109.89 13.9495 110.268 13.8219 110.66 13.6533V14.6514C110.282 14.82 109.906 14.943 109.532 15.0205C109.163 15.098 108.726 15.1367 108.22 15.1367C107.5 15.1367 106.871 14.9909 106.333 14.6992C105.8 14.403 105.385 13.9701 105.089 13.4004C104.793 12.8307 104.645 12.1335 104.645 11.3086C104.645 10.502 104.779 9.80469 105.048 9.2168C105.321 8.62435 105.704 8.16862 106.196 7.84961C106.693 7.5306 107.276 7.37109 107.946 7.37109ZM107.933 8.30078C107.326 8.30078 106.843 8.49902 106.483 8.89551C106.123 9.29199 105.909 9.8457 105.841 10.5566H109.806C109.801 10.11 109.73 9.7181 109.594 9.38086C109.462 9.03906 109.259 8.77474 108.985 8.58789C108.712 8.39648 108.361 8.30078 107.933 8.30078ZM116.259 8.39648H114.393V15H113.258V8.39648H111.932V7.84961L113.258 7.47363V6.97461C113.258 6.3457 113.351 5.83529 113.538 5.44336C113.725 5.04688 113.996 4.75521 114.352 4.56836C114.707 4.38151 115.14 4.28809 115.65 4.28809C115.938 4.28809 116.2 4.31315 116.437 4.36328C116.678 4.41341 116.89 4.47038 117.072 4.53418L116.778 5.42969C116.623 5.37956 116.448 5.33398 116.252 5.29297C116.061 5.2474 115.865 5.22461 115.664 5.22461C115.231 5.22461 114.91 5.36589 114.7 5.64844C114.495 5.92643 114.393 6.36393 114.393 6.96094V7.50781H116.259V8.39648ZM120.442 7.38477C121.336 7.38477 121.999 7.58529 122.432 7.98633C122.865 8.38737 123.081 9.02767 123.081 9.90723V15H122.254L122.035 13.8926H121.98C121.771 14.166 121.552 14.3962 121.324 14.583C121.096 14.7653 120.832 14.9043 120.531 15C120.235 15.0911 119.87 15.1367 119.438 15.1367C118.982 15.1367 118.576 15.057 118.221 14.8975C117.87 14.738 117.592 14.4964 117.387 14.1729C117.186 13.8493 117.086 13.4391 117.086 12.9424C117.086 12.195 117.382 11.6208 117.975 11.2197C118.567 10.8187 119.469 10.5999 120.682 10.5635L121.974 10.5088V10.0508C121.974 9.40365 121.835 8.9502 121.557 8.69043C121.279 8.43066 120.887 8.30078 120.381 8.30078C119.989 8.30078 119.615 8.35775 119.26 8.47168C118.904 8.58561 118.567 8.72005 118.248 8.875L117.899 8.01367C118.237 7.84049 118.624 7.69238 119.062 7.56934C119.499 7.44629 119.959 7.38477 120.442 7.38477ZM121.96 11.3086L120.818 11.3564C119.884 11.3929 119.226 11.5456 118.843 11.8145C118.46 12.0833 118.269 12.4639 118.269 12.9561C118.269 13.3844 118.398 13.7012 118.658 13.9062C118.918 14.1113 119.262 14.2139 119.69 14.2139C120.356 14.2139 120.9 14.0293 121.324 13.6602C121.748 13.291 121.96 12.7373 121.96 11.999V11.3086ZM131.605 7.50781V15H130.676L130.512 13.9473H130.45C130.295 14.207 130.095 14.4258 129.849 14.6035C129.603 14.7812 129.325 14.9134 129.015 15C128.709 15.0911 128.383 15.1367 128.037 15.1367C127.445 15.1367 126.948 15.041 126.547 14.8496C126.146 14.6582 125.843 14.362 125.638 13.9609C125.437 13.5599 125.337 13.0449 125.337 12.416V7.50781H126.485V12.334C126.485 12.9583 126.627 13.4255 126.909 13.7354C127.192 14.0407 127.622 14.1934 128.201 14.1934C128.757 14.1934 129.199 14.0885 129.527 13.8789C129.86 13.6693 130.099 13.3617 130.245 12.9561C130.391 12.5459 130.464 12.0446 130.464 11.4521V7.50781H131.605ZM135.146 15H134.005V4.36328H135.146V15ZM139.966 14.207C140.153 14.207 140.344 14.1911 140.54 14.1592C140.736 14.1273 140.896 14.0885 141.019 14.043V14.9248C140.886 14.984 140.702 15.0342 140.465 15.0752C140.232 15.1162 140.005 15.1367 139.781 15.1367C139.385 15.1367 139.025 15.0684 138.701 14.9316C138.378 14.7904 138.118 14.5534 137.922 14.2207C137.73 13.888 137.635 13.4277 137.635 12.8398V8.39648H136.568V7.84277L137.642 7.39844L138.093 5.77148H138.776V7.50781H140.971V8.39648H138.776V12.8057C138.776 13.2751 138.883 13.626 139.098 13.8584C139.316 14.0908 139.606 14.207 139.966 14.207Z" fill="#474D66"/>
</svg>
