<svg width="803" height="266" viewBox="0 0 803 266" fill="none" xmlns="http://www.w3.org/2000/svg">
<path d="M61.8464 56.393C61.8464 52.9324 64.6518 50.127 68.1125 50.127H795.759C799.22 50.127 802.025 52.9324 802.025 56.393V209.128C802.025 212.589 799.22 215.394 795.759 215.394H68.1125C64.6518 215.394 61.8464 212.589 61.8464 209.128V56.393Z" fill="white"/>
<path d="M61.8464 56.393C61.8464 52.9324 64.6518 50.127 68.1125 50.127H212.232V215.394H68.1125C64.6518 215.394 61.8464 212.589 61.8464 209.128V56.393Z" fill="#3366FF"/>
<path d="M61.7832 73.2661C61.7832 69.8054 64.5886 67 68.0493 67H212.176V146.125H68.0493C64.5886 146.125 61.7832 143.32 61.7832 139.859V73.2661Z" fill="#3366FF"/>
<path d="M115.579 113.039L113.003 105.568H112.948C112.96 105.735 112.975 105.963 112.991 106.253C113.007 106.543 113.021 106.853 113.034 107.183C113.046 107.513 113.052 107.83 113.052 108.131V113.039H111.718V104.093H113.78L116.258 111.234H116.295L118.859 104.093H120.915V113.039H119.514V108.058C119.514 107.785 119.518 107.489 119.526 107.171C119.538 106.853 119.551 106.551 119.563 106.265C119.579 105.98 119.591 105.751 119.6 105.58H119.551L116.877 113.039H115.579ZM129.121 109.637C129.121 110.2 129.048 110.699 128.901 111.136C128.754 111.572 128.54 111.942 128.258 112.244C127.977 112.541 127.638 112.77 127.242 112.929C126.847 113.084 126.4 113.161 125.902 113.161C125.437 113.161 125.011 113.084 124.623 112.929C124.236 112.77 123.899 112.541 123.614 112.244C123.332 111.942 123.114 111.572 122.959 111.136C122.804 110.699 122.726 110.2 122.726 109.637C122.726 108.89 122.855 108.258 123.112 107.74C123.373 107.218 123.744 106.82 124.226 106.547C124.707 106.273 125.28 106.137 125.945 106.137C126.569 106.137 127.12 106.273 127.597 106.547C128.075 106.82 128.448 107.218 128.717 107.74C128.986 108.262 129.121 108.894 129.121 109.637ZM124.207 109.637C124.207 110.13 124.266 110.553 124.385 110.903C124.507 111.254 124.695 111.524 124.948 111.711C125.201 111.895 125.527 111.987 125.927 111.987C126.327 111.987 126.653 111.895 126.906 111.711C127.159 111.524 127.344 111.254 127.463 110.903C127.581 110.553 127.64 110.13 127.64 109.637C127.64 109.143 127.581 108.725 127.463 108.382C127.344 108.036 127.159 107.772 126.906 107.593C126.653 107.409 126.325 107.318 125.921 107.318C125.325 107.318 124.891 107.518 124.617 107.917C124.344 108.317 124.207 108.89 124.207 109.637ZM134.304 106.137C135.067 106.137 135.66 106.334 136.085 106.73C136.513 107.122 136.727 107.752 136.727 108.621V113.039H135.289V108.89C135.289 108.364 135.181 107.97 134.965 107.709C134.749 107.444 134.414 107.311 133.961 107.311C133.305 107.311 132.848 107.513 132.591 107.917C132.338 108.321 132.211 108.907 132.211 109.674V113.039H130.773V106.265H131.893L132.095 107.183H132.175C132.321 106.946 132.503 106.753 132.719 106.602C132.939 106.447 133.184 106.33 133.453 106.253C133.727 106.175 134.01 106.137 134.304 106.137ZM141.017 113.161C140.209 113.161 139.56 112.868 139.071 112.28C138.585 111.689 138.343 110.818 138.343 109.667C138.343 108.505 138.589 107.626 139.083 107.03C139.581 106.434 140.236 106.137 141.047 106.137C141.39 106.137 141.69 106.184 141.947 106.277C142.204 106.367 142.424 106.489 142.608 106.644C142.795 106.8 142.955 106.973 143.085 107.165H143.152C143.132 107.038 143.108 106.857 143.079 106.62C143.054 106.379 143.042 106.157 143.042 105.953V103.518H144.486V113.039H143.36L143.103 112.115H143.042C142.92 112.311 142.765 112.488 142.577 112.647C142.394 112.802 142.173 112.927 141.916 113.021C141.663 113.115 141.364 113.161 141.017 113.161ZM141.421 111.993C142.037 111.993 142.471 111.815 142.724 111.46C142.977 111.105 143.108 110.573 143.116 109.863V109.674C143.116 108.915 142.993 108.333 142.749 107.93C142.504 107.522 142.057 107.318 141.408 107.318C140.89 107.318 140.495 107.528 140.221 107.948C139.952 108.364 139.817 108.945 139.817 109.692C139.817 110.438 139.952 111.01 140.221 111.405C140.495 111.797 140.894 111.993 141.421 111.993ZM149.204 106.137C150.061 106.137 150.708 106.326 151.144 106.706C151.585 107.085 151.805 107.677 151.805 108.48V113.039H150.783L150.508 112.078H150.459C150.267 112.323 150.069 112.525 149.865 112.684C149.661 112.843 149.425 112.962 149.155 113.039C148.89 113.121 148.566 113.161 148.182 113.161C147.778 113.161 147.417 113.088 147.099 112.941C146.781 112.79 146.53 112.562 146.347 112.256C146.163 111.95 146.071 111.562 146.071 111.093C146.071 110.396 146.33 109.871 146.848 109.521C147.371 109.17 148.158 108.976 149.21 108.939L150.385 108.896V108.541C150.385 108.072 150.275 107.738 150.055 107.538C149.839 107.338 149.533 107.238 149.137 107.238C148.798 107.238 148.47 107.287 148.152 107.385C147.834 107.483 147.524 107.603 147.222 107.746L146.757 106.73C147.087 106.555 147.462 106.412 147.883 106.302C148.307 106.192 148.747 106.137 149.204 106.137ZM150.379 109.802L149.504 109.833C148.786 109.857 148.282 109.979 147.993 110.2C147.703 110.42 147.558 110.722 147.558 111.105C147.558 111.44 147.658 111.685 147.858 111.84C148.058 111.991 148.321 112.066 148.647 112.066C149.145 112.066 149.557 111.925 149.883 111.644C150.214 111.358 150.379 110.94 150.379 110.389V109.802ZM152.796 106.265H154.363L155.752 110.132C155.813 110.308 155.868 110.481 155.917 110.653C155.97 110.82 156.015 110.985 156.052 111.148C156.092 111.311 156.125 111.475 156.15 111.638H156.186C156.227 111.426 156.284 111.189 156.358 110.928C156.435 110.663 156.521 110.398 156.615 110.132L157.949 106.265H159.497L156.59 113.969C156.423 114.41 156.217 114.785 155.972 115.095C155.731 115.409 155.446 115.646 155.115 115.805C154.785 115.968 154.408 116.05 153.983 116.05C153.779 116.05 153.602 116.037 153.451 116.013C153.3 115.993 153.172 115.97 153.065 115.946V114.795C153.151 114.816 153.259 114.834 153.39 114.85C153.52 114.867 153.655 114.875 153.794 114.875C154.051 114.875 154.273 114.824 154.461 114.722C154.648 114.62 154.807 114.475 154.938 114.287C155.069 114.104 155.177 113.894 155.262 113.657L155.501 113.021L152.796 106.265ZM106.963 130.32C106.963 131.403 106.878 132.373 106.706 133.23C106.541 134.08 106.278 134.802 105.917 135.396C105.556 135.99 105.085 136.442 104.503 136.755C103.922 137.067 103.218 137.223 102.392 137.223C101.358 137.223 100.505 136.95 99.8315 136.406C99.1584 135.855 98.6597 135.066 98.3353 134.038C98.011 133.003 97.8489 131.764 97.8489 130.32C97.8489 128.876 97.9957 127.64 98.2894 126.612C98.5893 125.578 99.0727 124.785 99.7397 124.235C100.407 123.684 101.291 123.409 102.392 123.409C103.433 123.409 104.289 123.684 104.962 124.235C105.642 124.779 106.143 125.569 106.468 126.603C106.798 127.631 106.963 128.87 106.963 130.32ZM100.024 130.32C100.024 131.452 100.098 132.398 100.245 133.156C100.398 133.915 100.648 134.484 100.997 134.864C101.346 135.237 101.811 135.424 102.392 135.424C102.974 135.424 103.439 135.237 103.788 134.864C104.136 134.49 104.387 133.924 104.54 133.166C104.699 132.407 104.779 131.458 104.779 130.32C104.779 129.194 104.702 128.252 104.549 127.493C104.396 126.734 104.146 126.165 103.797 125.786C103.448 125.4 102.98 125.208 102.392 125.208C101.805 125.208 101.337 125.4 100.988 125.786C100.645 126.165 100.398 126.734 100.245 127.493C100.098 128.252 100.024 129.194 100.024 130.32ZM117.721 130.32C117.721 131.403 117.635 132.373 117.464 133.23C117.299 134.08 117.036 134.802 116.675 135.396C116.314 135.99 115.842 136.442 115.261 136.755C114.68 137.067 113.976 137.223 113.15 137.223C112.116 137.223 111.262 136.95 110.589 136.406C109.916 135.855 109.417 135.066 109.093 134.038C108.769 133.003 108.606 131.764 108.606 130.32C108.606 128.876 108.753 127.64 109.047 126.612C109.347 125.578 109.83 124.785 110.497 124.235C111.164 123.684 112.048 123.409 113.15 123.409C114.19 123.409 115.047 123.684 115.72 124.235C116.399 124.779 116.901 125.569 117.225 126.603C117.556 127.631 117.721 128.87 117.721 130.32ZM110.782 130.32C110.782 131.452 110.855 132.398 111.002 133.156C111.155 133.915 111.406 134.484 111.755 134.864C112.104 135.237 112.569 135.424 113.15 135.424C113.731 135.424 114.196 135.237 114.545 134.864C114.894 134.49 115.145 133.924 115.298 133.166C115.457 132.407 115.536 131.458 115.536 130.32C115.536 129.194 115.46 128.252 115.307 127.493C115.154 126.734 114.903 126.165 114.554 125.786C114.205 125.4 113.737 125.208 113.15 125.208C112.562 125.208 112.094 125.4 111.746 125.786C111.403 126.165 111.155 126.734 111.002 127.493C110.855 128.252 110.782 129.194 110.782 130.32ZM125.734 123.62L120.732 137.039H118.712L123.715 123.62H125.734ZM135.822 130.32C135.822 131.403 135.736 132.373 135.565 133.23C135.399 134.08 135.136 134.802 134.775 135.396C134.414 135.99 133.943 136.442 133.362 136.755C132.78 137.067 132.077 137.223 131.251 137.223C130.216 137.223 129.363 136.95 128.69 136.406C128.017 135.855 127.518 135.066 127.194 134.038C126.869 133.003 126.707 131.764 126.707 130.32C126.707 128.876 126.854 127.64 127.148 126.612C127.447 125.578 127.931 124.785 128.598 124.235C129.265 123.684 130.149 123.409 131.251 123.409C132.291 123.409 133.147 123.684 133.821 124.235C134.5 124.779 135.002 125.569 135.326 126.603C135.656 127.631 135.822 128.87 135.822 130.32ZM128.882 130.32C128.882 131.452 128.956 132.398 129.103 133.156C129.256 133.915 129.507 134.484 129.855 134.864C130.204 135.237 130.669 135.424 131.251 135.424C131.832 135.424 132.297 135.237 132.646 134.864C132.995 134.49 133.245 133.924 133.398 133.166C133.557 132.407 133.637 131.458 133.637 130.32C133.637 129.194 133.561 128.252 133.408 127.493C133.255 126.734 133.004 126.165 132.655 125.786C132.306 125.4 131.838 125.208 131.251 125.208C130.663 125.208 130.195 125.4 129.846 125.786C129.503 126.165 129.256 126.734 129.103 127.493C128.956 128.252 128.882 129.194 128.882 130.32ZM146.579 130.32C146.579 131.403 146.493 132.373 146.322 133.23C146.157 134.08 145.894 134.802 145.533 135.396C145.172 135.99 144.701 136.442 144.119 136.755C143.538 137.067 142.834 137.223 142.008 137.223C140.974 137.223 140.12 136.95 139.447 136.406C138.774 135.855 138.275 135.066 137.951 134.038C137.627 133.003 137.465 131.764 137.465 130.32C137.465 128.876 137.611 127.64 137.905 126.612C138.205 125.578 138.688 124.785 139.355 124.235C140.022 123.684 140.907 123.409 142.008 123.409C143.048 123.409 143.905 123.684 144.578 124.235C145.257 124.779 145.759 125.569 146.083 126.603C146.414 127.631 146.579 128.87 146.579 130.32ZM139.64 130.32C139.64 131.452 139.713 132.398 139.86 133.156C140.013 133.915 140.264 134.484 140.613 134.864C140.962 135.237 141.427 135.424 142.008 135.424C142.589 135.424 143.054 135.237 143.403 134.864C143.752 134.49 144.003 133.924 144.156 133.166C144.315 132.407 144.395 131.458 144.395 130.32C144.395 129.194 144.318 128.252 144.165 127.493C144.012 126.734 143.761 126.165 143.412 125.786C143.064 125.4 142.596 125.208 142.008 125.208C141.421 125.208 140.953 125.4 140.604 125.786C140.261 126.165 140.013 126.734 139.86 127.493C139.713 128.252 139.64 129.194 139.64 130.32ZM154.592 123.62L149.59 137.039H147.57L152.573 123.62H154.592ZM164.68 130.32C164.68 131.403 164.594 132.373 164.423 133.23C164.258 134.08 163.994 134.802 163.633 135.396C163.272 135.99 162.801 136.442 162.22 136.755C161.638 137.067 160.935 137.223 160.109 137.223C159.075 137.223 158.221 136.95 157.548 136.406C156.875 135.855 156.376 135.066 156.052 134.038C155.727 133.003 155.565 131.764 155.565 130.32C155.565 128.876 155.712 127.64 156.006 126.612C156.306 125.578 156.789 124.785 157.456 124.235C158.123 123.684 159.007 123.409 160.109 123.409C161.149 123.409 162.006 123.684 162.679 124.235C163.358 124.779 163.86 125.569 164.184 126.603C164.515 127.631 164.68 128.87 164.68 130.32ZM157.741 130.32C157.741 131.452 157.814 132.398 157.961 133.156C158.114 133.915 158.365 134.484 158.714 134.864C159.062 135.237 159.527 135.424 160.109 135.424C160.69 135.424 161.155 135.237 161.504 134.864C161.853 134.49 162.104 133.924 162.257 133.166C162.416 132.407 162.495 131.458 162.495 130.32C162.495 129.194 162.419 128.252 162.266 127.493C162.113 126.734 161.862 126.165 161.513 125.786C161.164 125.4 160.696 125.208 160.109 125.208C159.521 125.208 159.053 125.4 158.704 125.786C158.362 126.165 158.114 126.734 157.961 127.493C157.814 128.252 157.741 129.194 157.741 130.32ZM175.437 130.32C175.437 131.403 175.352 132.373 175.18 133.23C175.015 134.08 174.752 134.802 174.391 135.396C174.03 135.99 173.559 136.442 172.977 136.755C172.396 137.067 171.692 137.223 170.866 137.223C169.832 137.223 168.978 136.95 168.305 136.406C167.632 135.855 167.134 135.066 166.809 134.038C166.485 133.003 166.323 131.764 166.323 130.32C166.323 128.876 166.47 127.64 166.763 126.612C167.063 125.578 167.547 124.785 168.214 124.235C168.881 123.684 169.765 123.409 170.866 123.409C171.907 123.409 172.763 123.684 173.436 124.235C174.116 124.779 174.617 125.569 174.942 126.603C175.272 127.631 175.437 128.87 175.437 130.32ZM168.498 130.32C168.498 131.452 168.572 132.398 168.718 133.156C168.871 133.915 169.122 134.484 169.471 134.864C169.82 135.237 170.285 135.424 170.866 135.424C171.448 135.424 171.913 135.237 172.261 134.864C172.61 134.49 172.861 133.924 173.014 133.166C173.173 132.407 173.253 131.458 173.253 130.32C173.253 129.194 173.176 128.252 173.023 127.493C172.87 126.734 172.619 126.165 172.271 125.786C171.922 125.4 171.454 125.208 170.866 125.208C170.279 125.208 169.811 125.4 169.462 125.786C169.119 126.165 168.871 126.734 168.718 127.493C168.572 128.252 168.498 129.194 168.498 130.32Z" fill="white"/>
<path d="M97.3471 190.705C97.3471 191.365 97.2631 191.967 97.0952 192.51C96.9311 193.049 96.6831 193.514 96.351 193.904C96.019 194.291 95.603 194.59 95.103 194.801C94.603 195.012 94.0171 195.117 93.3452 195.117C92.6616 195.117 92.0678 195.012 91.5639 194.801C91.0639 194.59 90.6479 194.289 90.3159 193.898C89.9878 193.508 89.7417 193.041 89.5776 192.498C89.4135 191.955 89.3315 191.354 89.3315 190.693C89.3315 189.811 89.476 189.041 89.7651 188.385C90.0581 187.725 90.5014 187.213 91.0952 186.85C91.6928 186.482 92.4467 186.299 93.3569 186.299C94.2475 186.299 94.9878 186.48 95.5776 186.844C96.1674 187.207 96.6088 187.719 96.9018 188.379C97.1987 189.035 97.3471 189.811 97.3471 190.705ZM90.8081 190.705C90.8081 191.365 90.8979 191.938 91.0776 192.422C91.2573 192.902 91.5327 193.273 91.9038 193.535C92.2788 193.793 92.7592 193.922 93.3452 193.922C93.935 193.922 94.4155 193.793 94.7866 193.535C95.1577 193.273 95.4311 192.902 95.6069 192.422C95.7827 191.938 95.8706 191.365 95.8706 190.705C95.8706 189.701 95.6694 188.916 95.2671 188.35C94.8686 187.779 94.2319 187.494 93.3569 187.494C92.771 187.494 92.2885 187.623 91.9096 187.881C91.5346 188.139 91.2573 188.508 91.0776 188.988C90.8979 189.465 90.8081 190.037 90.8081 190.705ZM101.677 186.434C102.783 186.434 103.589 186.66 104.097 187.113C104.605 187.566 104.859 188.201 104.859 189.018C104.859 189.389 104.8 189.742 104.683 190.078C104.57 190.41 104.382 190.705 104.121 190.963C103.859 191.217 103.513 191.418 103.083 191.566C102.658 191.715 102.132 191.789 101.507 191.789H100.593V195H99.187V186.434H101.677ZM101.583 187.6H100.593V190.617H101.361C101.802 190.617 102.177 190.566 102.486 190.465C102.794 190.359 103.029 190.193 103.189 189.967C103.349 189.74 103.429 189.441 103.429 189.07C103.429 188.574 103.279 188.205 102.978 187.963C102.681 187.721 102.216 187.6 101.583 187.6ZM109.54 195H108.128V187.629H105.621V186.434H112.042V187.629H109.54V195ZM113.355 195V186.434H114.761V195H113.355ZM124.628 190.705C124.628 191.365 124.544 191.967 124.376 192.51C124.212 193.049 123.964 193.514 123.632 193.904C123.3 194.291 122.884 194.59 122.384 194.801C121.884 195.012 121.298 195.117 120.626 195.117C119.943 195.117 119.349 195.012 118.845 194.801C118.345 194.59 117.929 194.289 117.597 193.898C117.269 193.508 117.023 193.041 116.859 192.498C116.695 191.955 116.613 191.354 116.613 190.693C116.613 189.811 116.757 189.041 117.046 188.385C117.339 187.725 117.783 187.213 118.376 186.85C118.974 186.482 119.728 186.299 120.638 186.299C121.529 186.299 122.269 186.48 122.859 186.844C123.449 187.207 123.89 187.719 124.183 188.379C124.48 189.035 124.628 189.811 124.628 190.705ZM118.089 190.705C118.089 191.365 118.179 191.938 118.359 192.422C118.539 192.902 118.814 193.273 119.185 193.535C119.56 193.793 120.04 193.922 120.626 193.922C121.216 193.922 121.697 193.793 122.068 193.535C122.439 193.273 122.712 192.902 122.888 192.422C123.064 191.938 123.152 191.365 123.152 190.705C123.152 189.701 122.951 188.916 122.548 188.35C122.15 187.779 121.513 187.494 120.638 187.494C120.052 187.494 119.57 187.623 119.191 187.881C118.816 188.139 118.539 188.508 118.359 188.988C118.179 189.465 118.089 190.037 118.089 190.705ZM133.617 195H131.888L127.693 188.162H127.64C127.656 188.393 127.669 188.637 127.681 188.895C127.697 189.152 127.708 189.418 127.716 189.691C127.728 189.965 127.738 190.242 127.746 190.523V195H126.468V186.434H128.185L132.374 193.225H132.415C132.408 193.025 132.398 192.797 132.386 192.539C132.374 192.281 132.363 192.016 132.351 191.742C132.343 191.465 132.337 191.197 132.333 190.939V186.434H133.617V195ZM141.175 195L140.337 192.621H137.062L136.224 195H134.742L137.929 186.398H139.488L142.669 195H141.175ZM139.974 191.414L139.16 189.07C139.128 188.969 139.083 188.826 139.025 188.643C138.966 188.455 138.908 188.266 138.849 188.074C138.79 187.879 138.742 187.715 138.703 187.582C138.664 187.742 138.615 187.922 138.556 188.121C138.501 188.316 138.447 188.5 138.392 188.672C138.341 188.844 138.302 188.977 138.275 189.07L137.455 191.414H139.974ZM143.8 195V186.434H145.207V193.805H148.845V195H143.8ZM153.445 195V186.434H154.851V193.805H158.49V195H153.445ZM165.281 195L164.443 192.621H161.167L160.33 195H158.847L162.035 186.398H163.593L166.775 195H165.281ZM164.08 191.414L163.265 189.07C163.234 188.969 163.189 188.826 163.13 188.643C163.072 188.455 163.013 188.266 162.955 188.074C162.896 187.879 162.847 187.715 162.808 187.582C162.769 187.742 162.72 187.922 162.662 188.121C162.607 188.316 162.552 188.5 162.498 188.672C162.447 188.844 162.408 188.977 162.38 189.07L161.56 191.414H164.08ZM167.906 186.434H170.455C171.56 186.434 172.394 186.594 172.957 186.914C173.519 187.234 173.8 187.787 173.8 188.572C173.8 188.9 173.742 189.197 173.624 189.463C173.511 189.725 173.345 189.941 173.126 190.113C172.908 190.281 172.638 190.395 172.318 190.453V190.512C172.65 190.57 172.945 190.674 173.203 190.822C173.464 190.971 173.669 191.184 173.818 191.461C173.97 191.738 174.046 192.098 174.046 192.539C174.046 193.062 173.921 193.508 173.671 193.875C173.425 194.242 173.072 194.521 172.611 194.713C172.154 194.904 171.611 195 170.982 195H167.906V186.434ZM169.312 189.967H170.66C171.296 189.967 171.738 189.863 171.984 189.656C172.23 189.449 172.353 189.146 172.353 188.748C172.353 188.342 172.207 188.049 171.914 187.869C171.624 187.689 171.164 187.6 170.531 187.6H169.312V189.967ZM169.312 191.104V193.822H170.794C171.451 193.822 171.912 193.695 172.177 193.441C172.443 193.188 172.576 192.844 172.576 192.41C172.576 192.145 172.515 191.914 172.394 191.719C172.277 191.523 172.083 191.373 171.814 191.268C171.544 191.158 171.181 191.104 170.724 191.104H169.312ZM180.667 195H175.816V186.434H180.667V187.617H177.222V189.943H180.451V191.121H177.222V193.811H180.667V195ZM182.519 195V186.434H183.925V193.805H187.564V195H182.519Z" fill="white"/>
<rect x="106.392" y="70.3916" width="60.2167" height="19.2167" rx="2.7414" stroke="white" stroke-width="0.783258"/>
<path d="M124.079 82.1734C124.079 82.5712 123.981 82.9138 123.785 83.2014C123.592 83.489 123.314 83.7093 122.95 83.8623C122.589 84.0153 122.157 84.0918 121.656 84.0918C121.411 84.0918 121.177 84.078 120.953 84.0505C120.73 84.0229 120.519 83.9832 120.32 83.9312C120.124 83.8761 119.945 83.8103 119.783 83.7338V82.6966C120.055 82.8159 120.36 82.9246 120.696 83.0225C121.033 83.1173 121.376 83.1647 121.725 83.1647C122.009 83.1647 122.245 83.128 122.431 83.0546C122.621 82.9781 122.762 82.871 122.854 82.7333C122.945 82.5926 122.991 82.4289 122.991 82.2423C122.991 82.0434 122.938 81.8751 122.831 81.7374C122.723 81.5997 122.561 81.4743 122.344 81.3611C122.13 81.2448 121.861 81.1209 121.536 80.9894C121.316 80.9006 121.105 80.7997 120.903 80.6865C120.704 80.5732 120.527 80.4402 120.371 80.2872C120.215 80.1342 120.091 79.9537 119.999 79.7456C119.91 79.5345 119.866 79.2867 119.866 79.0021C119.866 78.6228 119.956 78.2984 120.137 78.0292C120.32 77.7599 120.577 77.5534 120.908 77.4096C121.241 77.2658 121.63 77.1939 122.073 77.1939C122.425 77.1939 122.756 77.2306 123.065 77.3041C123.377 77.3775 123.683 77.4815 123.982 77.6161L123.634 78.5019C123.358 78.3887 123.091 78.2984 122.831 78.2311C122.574 78.1638 122.31 78.1302 122.041 78.1302C121.809 78.1302 121.611 78.1653 121.449 78.2357C121.287 78.3061 121.163 78.4055 121.077 78.534C120.995 78.6595 120.953 78.8094 120.953 78.9838C120.953 79.1796 121.001 79.3448 121.096 79.4794C121.194 79.611 121.344 79.7319 121.546 79.842C121.751 79.9521 122.014 80.0745 122.335 80.2092C122.705 80.3621 123.019 80.5228 123.276 80.691C123.536 80.8593 123.735 81.0613 123.872 81.2968C124.01 81.5294 124.079 81.8216 124.079 82.1734ZM127.738 84H126.631V78.2265H124.667V77.2903H129.697V78.2265H127.738V84ZM134.921 84L134.265 82.1367H131.699L131.043 84H129.882L132.378 77.2628H133.599L136.091 84H134.921ZM133.98 81.1913L133.342 79.3555C133.318 79.276 133.282 79.1643 133.236 79.0205C133.191 78.8736 133.145 78.7252 133.099 78.5753C133.053 78.4223 133.015 78.2938 132.984 78.1898C132.953 78.3153 132.915 78.456 132.869 78.612C132.827 78.765 132.784 78.9088 132.741 79.0434C132.701 79.1781 132.67 79.2821 132.649 79.3555L132.007 81.1913H133.98ZM139.341 84H138.235V78.2265H136.271V77.2903H141.301V78.2265H139.341V84ZM147.635 77.2903V81.6319C147.635 82.1 147.536 82.5192 147.337 82.8894C147.141 83.2596 146.844 83.5533 146.447 83.7705C146.049 83.9847 145.549 84.0918 144.946 84.0918C144.086 84.0918 143.431 83.8669 142.982 83.4171C142.535 82.9643 142.312 82.3631 142.312 81.6135V77.2903H143.413V81.5171C143.413 82.077 143.545 82.4901 143.808 82.7563C144.071 83.0225 144.464 83.1556 144.987 83.1556C145.348 83.1556 145.642 83.0928 145.868 82.9674C146.098 82.8389 146.266 82.6522 146.373 82.4075C146.483 82.1596 146.538 81.8613 146.538 81.5125V77.2903H147.635ZM153.263 82.1734C153.263 82.5712 153.165 82.9138 152.969 83.2014C152.776 83.489 152.498 83.7093 152.134 83.8623C151.773 84.0153 151.341 84.0918 150.839 84.0918C150.595 84.0918 150.361 84.078 150.137 84.0505C149.914 84.0229 149.703 83.9832 149.504 83.9312C149.308 83.8761 149.129 83.8103 148.967 83.7338V82.6966C149.239 82.8159 149.544 82.9246 149.88 83.0225C150.217 83.1173 150.56 83.1647 150.908 83.1647C151.193 83.1647 151.428 83.128 151.615 83.0546C151.805 82.9781 151.946 82.871 152.037 82.7333C152.129 82.5926 152.175 82.4289 152.175 82.2423C152.175 82.0434 152.121 81.8751 152.014 81.7374C151.907 81.5997 151.745 81.4743 151.528 81.3611C151.314 81.2448 151.044 81.1209 150.72 80.9894C150.5 80.9006 150.289 80.7997 150.087 80.6865C149.888 80.5732 149.711 80.4402 149.554 80.2872C149.398 80.1342 149.275 79.9537 149.183 79.7456C149.094 79.5345 149.05 79.2867 149.05 79.0021C149.05 78.6228 149.14 78.2984 149.32 78.0292C149.504 77.7599 149.761 77.5534 150.091 77.4096C150.425 77.2658 150.813 77.1939 151.257 77.1939C151.609 77.1939 151.939 77.2306 152.248 77.3041C152.561 77.3775 152.866 77.4815 153.166 77.6161L152.818 78.5019C152.542 78.3887 152.274 78.2984 152.014 78.2311C151.757 78.1638 151.494 78.1302 151.225 78.1302C150.992 78.1302 150.795 78.1653 150.633 78.2357C150.471 78.3061 150.347 78.4055 150.261 78.534C150.179 78.6595 150.137 78.8094 150.137 78.9838C150.137 79.1796 150.185 79.3448 150.28 79.4794C150.377 79.611 150.527 79.7319 150.729 79.842C150.934 79.9521 151.197 80.0745 151.519 80.2092C151.889 80.3621 152.203 80.5228 152.46 80.691C152.72 80.8593 152.918 81.0613 153.056 81.2968C153.194 81.5294 153.263 81.8216 153.263 82.1734Z" fill="white"/>
<path d="M94.4233 156.671C94.4233 158.214 94.3063 159.592 94.0722 160.806C93.8382 162.019 93.4697 163.047 92.9669 163.888C92.4641 164.728 91.814 165.37 91.0164 165.812C90.2189 166.245 89.261 166.462 88.1427 166.462C86.7297 166.462 85.5594 166.076 84.6318 165.305C83.7129 164.533 83.0237 163.419 82.5643 161.963C82.1135 160.498 81.8881 158.734 81.8881 156.671C81.8881 154.642 82.0918 152.9 82.4993 151.443C82.9154 149.978 83.5829 148.856 84.5018 148.076C85.4207 147.287 86.6343 146.892 88.1427 146.892C89.5731 146.892 90.752 147.282 91.6796 148.063C92.6072 148.834 93.2963 149.952 93.7471 151.417C94.1979 152.874 94.4233 154.625 94.4233 156.671ZM84.0597 156.671C84.0597 158.439 84.194 159.913 84.4628 161.092C84.7315 162.271 85.1649 163.155 85.7631 163.745C86.3699 164.325 87.1631 164.616 88.1427 164.616C89.1223 164.616 89.9112 164.325 90.5093 163.745C91.1161 163.164 91.5539 162.284 91.8226 161.105C92.1 159.926 92.2387 158.448 92.2387 156.671C92.2387 154.928 92.1044 153.472 91.8356 152.302C91.5669 151.123 91.1335 150.238 90.5353 149.649C89.9372 149.051 89.1396 148.752 88.1427 148.752C87.1458 148.752 86.3482 149.051 85.7501 149.649C85.1519 150.238 84.7185 151.123 84.4498 152.302C84.1897 153.472 84.0597 154.928 84.0597 156.671ZM109.397 156.671C109.397 158.214 109.28 159.592 109.046 160.806C108.812 162.019 108.443 163.047 107.94 163.888C107.438 164.728 106.788 165.37 105.99 165.812C105.192 166.245 104.235 166.462 103.116 166.462C101.703 166.462 100.533 166.076 99.6054 165.305C98.6865 164.533 97.9973 163.419 97.5379 161.963C97.0871 160.498 96.8617 158.734 96.8617 156.671C96.8617 154.642 97.0654 152.9 97.4728 151.443C97.8889 149.978 98.5564 148.856 99.4753 148.076C100.394 147.287 101.608 146.892 103.116 146.892C104.547 146.892 105.726 147.282 106.653 148.063C107.581 148.834 108.27 149.952 108.721 151.417C109.171 152.874 109.397 154.625 109.397 156.671ZM99.0332 156.671C99.0332 158.439 99.1676 159.913 99.4363 161.092C99.7051 162.271 100.139 163.155 100.737 163.745C101.343 164.325 102.137 164.616 103.116 164.616C104.096 164.616 104.885 164.325 105.483 163.745C106.09 163.164 106.527 162.284 106.796 161.105C107.074 159.926 107.212 158.448 107.212 156.671C107.212 154.928 107.078 153.472 106.809 152.302C106.54 151.123 106.107 150.238 105.509 149.649C104.911 149.051 104.113 148.752 103.116 148.752C102.119 148.752 101.322 149.051 100.724 149.649C100.126 150.238 99.6921 151.123 99.4233 152.302C99.1633 153.472 99.0332 154.928 99.0332 156.671ZM112.446 164.85C112.446 164.243 112.594 163.814 112.889 163.562C113.183 163.302 113.543 163.172 113.968 163.172C114.41 163.172 114.783 163.302 115.086 163.562C115.389 163.814 115.541 164.243 115.541 164.85C115.541 165.448 115.389 165.886 115.086 166.163C114.783 166.432 114.41 166.566 113.968 166.566C113.543 166.566 113.183 166.432 112.889 166.163C112.594 165.886 112.446 165.448 112.446 164.85ZM112.446 153.316C112.446 152.692 112.594 152.254 112.889 152.003C113.183 151.742 113.543 151.612 113.968 151.612C114.41 151.612 114.783 151.742 115.086 152.003C115.389 152.254 115.541 152.692 115.541 153.316C115.541 153.905 115.389 154.334 115.086 154.603C114.783 154.872 114.41 155.006 113.968 155.006C113.543 155.006 113.183 154.872 112.889 154.603C112.594 154.334 112.446 153.905 112.446 153.316ZM131.1 156.671C131.1 158.214 130.983 159.592 130.749 160.806C130.515 162.019 130.146 163.047 129.644 163.888C129.141 164.728 128.491 165.37 127.693 165.812C126.896 166.245 125.938 166.462 124.819 166.462C123.406 166.462 122.236 166.076 121.308 165.305C120.39 164.533 119.7 163.419 119.241 161.963C118.79 160.498 118.565 158.734 118.565 156.671C118.565 154.642 118.768 152.9 119.176 151.443C119.592 149.978 120.259 148.856 121.178 148.076C122.097 147.287 123.311 146.892 124.819 146.892C126.25 146.892 127.429 147.282 128.356 148.063C129.284 148.834 129.973 149.952 130.424 151.417C130.875 152.874 131.1 154.625 131.1 156.671ZM120.736 156.671C120.736 158.439 120.871 159.913 121.139 161.092C121.408 162.271 121.842 163.155 122.44 163.745C123.047 164.325 123.84 164.616 124.819 164.616C125.799 164.616 126.588 164.325 127.186 163.745C127.793 163.164 128.231 162.284 128.499 161.105C128.777 159.926 128.915 158.448 128.915 156.671C128.915 154.928 128.781 153.472 128.512 152.302C128.244 151.123 127.81 150.238 127.212 149.649C126.614 149.051 125.816 148.752 124.819 148.752C123.822 148.752 123.025 149.051 122.427 149.649C121.829 150.238 121.395 151.123 121.126 152.302C120.866 153.472 120.736 154.928 120.736 156.671ZM146.073 156.671C146.073 158.214 145.956 159.592 145.722 160.806C145.488 162.019 145.12 163.047 144.617 163.888C144.114 164.728 143.464 165.37 142.667 165.812C141.869 166.245 140.911 166.462 139.793 166.462C138.38 166.462 137.21 166.076 136.282 165.305C135.363 164.533 134.674 163.419 134.214 161.963C133.764 160.498 133.538 158.734 133.538 156.671C133.538 154.642 133.742 152.9 134.149 151.443C134.566 149.978 135.233 148.856 136.152 148.076C137.071 147.287 138.284 146.892 139.793 146.892C141.223 146.892 142.402 147.282 143.33 148.063C144.257 148.834 144.947 149.952 145.397 151.417C145.848 152.874 146.073 154.625 146.073 156.671ZM135.71 156.671C135.71 158.439 135.844 159.913 136.113 161.092C136.382 162.271 136.815 163.155 137.413 163.745C138.02 164.325 138.813 164.616 139.793 164.616C140.772 164.616 141.561 164.325 142.159 163.745C142.766 163.164 143.204 162.284 143.473 161.105C143.75 159.926 143.889 158.448 143.889 156.671C143.889 154.928 143.755 153.472 143.486 152.302C143.217 151.123 142.784 150.238 142.185 149.649C141.587 149.051 140.79 148.752 139.793 148.752C138.796 148.752 137.998 149.051 137.4 149.649C136.802 150.238 136.369 151.123 136.1 152.302C135.84 153.472 135.71 154.928 135.71 156.671ZM161.392 147.191C163.845 147.191 165.635 147.672 166.762 148.635C167.898 149.588 168.466 150.958 168.466 152.744C168.466 153.55 168.331 154.317 168.063 155.045C167.803 155.765 167.378 156.402 166.788 156.957C166.199 157.503 165.423 157.936 164.461 158.257C163.507 158.569 162.337 158.725 160.95 158.725H158.635V166.202H156.425V147.191H161.392ZM161.184 149.077H158.635V156.827H160.703C161.916 156.827 162.926 156.697 163.732 156.437C164.547 156.177 165.159 155.756 165.566 155.175C165.973 154.586 166.177 153.806 166.177 152.835C166.177 151.569 165.774 150.629 164.968 150.013C164.162 149.389 162.9 149.077 161.184 149.077ZM180.54 166.202L174.155 149.376H174.051C174.086 149.731 174.116 150.165 174.142 150.676C174.168 151.188 174.19 151.747 174.207 152.354C174.224 152.952 174.233 153.563 174.233 154.187V166.202H172.178V147.191H175.455L181.476 163.003H181.567L187.678 147.191H190.929V166.202H188.745V154.031C188.745 153.468 188.753 152.904 188.771 152.341C188.788 151.768 188.81 151.231 188.836 150.728C188.862 150.217 188.888 149.775 188.914 149.402H188.81L182.347 166.202H180.54Z" fill="white"/>
<rect x="243.562" y="122.187" width="518.517" height="0.783258" fill="#DDE2E5"/>
<path d="M274.214 188.032C274.214 188.54 274.089 188.978 273.839 189.345C273.593 189.712 273.238 189.993 272.773 190.188C272.312 190.384 271.761 190.481 271.121 190.481C270.808 190.481 270.509 190.464 270.224 190.429C269.939 190.394 269.669 190.343 269.416 190.276C269.166 190.206 268.937 190.122 268.73 190.024V188.7C269.078 188.853 269.466 188.991 269.896 189.116C270.326 189.237 270.763 189.298 271.208 189.298C271.572 189.298 271.873 189.251 272.111 189.157C272.353 189.06 272.533 188.923 272.65 188.747C272.767 188.567 272.826 188.358 272.826 188.12C272.826 187.866 272.757 187.651 272.621 187.476C272.484 187.3 272.277 187.14 272 186.995C271.726 186.847 271.382 186.688 270.968 186.521C270.687 186.407 270.417 186.278 270.16 186.134C269.906 185.989 269.679 185.819 269.48 185.624C269.281 185.429 269.123 185.198 269.005 184.933C268.892 184.663 268.835 184.347 268.835 183.983C268.835 183.499 268.951 183.085 269.181 182.741C269.416 182.397 269.744 182.134 270.166 181.95C270.591 181.767 271.087 181.675 271.654 181.675C272.103 181.675 272.525 181.722 272.919 181.815C273.318 181.909 273.708 182.042 274.091 182.214L273.646 183.345C273.294 183.2 272.953 183.085 272.621 182.999C272.292 182.913 271.957 182.87 271.613 182.87C271.316 182.87 271.064 182.915 270.857 183.005C270.65 183.095 270.492 183.222 270.382 183.386C270.277 183.546 270.224 183.737 270.224 183.96C270.224 184.21 270.285 184.421 270.406 184.593C270.531 184.761 270.722 184.915 270.98 185.056C271.242 185.196 271.578 185.353 271.988 185.524C272.46 185.72 272.861 185.925 273.189 186.14C273.521 186.354 273.775 186.612 273.951 186.913C274.126 187.21 274.214 187.583 274.214 188.032ZM278.358 183.755C278.936 183.755 279.432 183.874 279.846 184.112C280.26 184.351 280.579 184.688 280.801 185.126C281.024 185.563 281.135 186.087 281.135 186.696V187.435H276.805C276.821 188.063 276.989 188.548 277.309 188.888C277.633 189.228 278.087 189.397 278.669 189.397C279.083 189.397 279.454 189.358 279.782 189.28C280.114 189.198 280.456 189.079 280.807 188.923V190.042C280.483 190.194 280.153 190.306 279.817 190.376C279.481 190.446 279.079 190.481 278.61 190.481C277.973 190.481 277.413 190.358 276.928 190.112C276.448 189.862 276.071 189.491 275.798 188.999C275.528 188.507 275.393 187.896 275.393 187.165C275.393 186.438 275.516 185.821 275.762 185.313C276.008 184.806 276.354 184.419 276.799 184.153C277.245 183.888 277.764 183.755 278.358 183.755ZM278.358 184.792C277.924 184.792 277.573 184.933 277.303 185.214C277.038 185.495 276.881 185.907 276.835 186.45H279.788C279.784 186.126 279.729 185.839 279.624 185.589C279.522 185.339 279.366 185.144 279.155 185.003C278.948 184.862 278.682 184.792 278.358 184.792ZM285.32 183.755C285.898 183.755 286.394 183.874 286.808 184.112C287.222 184.351 287.541 184.688 287.763 185.126C287.986 185.563 288.097 186.087 288.097 186.696V187.435H283.767C283.783 188.063 283.951 188.548 284.271 188.888C284.596 189.228 285.049 189.397 285.631 189.397C286.045 189.397 286.416 189.358 286.744 189.28C287.076 189.198 287.418 189.079 287.769 188.923V190.042C287.445 190.194 287.115 190.306 286.779 190.376C286.443 190.446 286.041 190.481 285.572 190.481C284.935 190.481 284.375 190.358 283.89 190.112C283.41 189.862 283.033 189.491 282.76 188.999C282.49 188.507 282.355 187.896 282.355 187.165C282.355 186.438 282.478 185.821 282.724 185.313C282.971 184.806 283.316 184.419 283.762 184.153C284.207 183.888 284.726 183.755 285.32 183.755ZM285.32 184.792C284.887 184.792 284.535 184.933 284.265 185.214C284 185.495 283.844 185.907 283.797 186.45H286.75C286.746 186.126 286.691 185.839 286.586 185.589C286.484 185.339 286.328 185.144 286.117 185.003C285.91 184.862 285.644 184.792 285.32 184.792ZM300.193 183.755C300.92 183.755 301.467 183.942 301.834 184.317C302.205 184.692 302.391 185.294 302.391 186.122V190.364H301.014V186.368C301.014 185.876 300.918 185.505 300.727 185.255C300.535 185.005 300.244 184.88 299.854 184.88C299.307 184.88 298.912 185.056 298.67 185.407C298.432 185.755 298.313 186.261 298.313 186.925V190.364H296.936V186.368C296.936 186.04 296.893 185.767 296.807 185.548C296.725 185.325 296.598 185.159 296.426 185.05C296.254 184.937 296.037 184.88 295.775 184.88C295.397 184.88 295.094 184.966 294.867 185.138C294.645 185.31 294.484 185.563 294.387 185.899C294.289 186.231 294.24 186.64 294.24 187.124V190.364H292.863V183.878H293.936L294.129 184.751H294.205C294.338 184.524 294.502 184.339 294.697 184.194C294.897 184.046 295.117 183.937 295.359 183.866C295.602 183.792 295.854 183.755 296.115 183.755C296.6 183.755 297.008 183.841 297.34 184.013C297.672 184.181 297.92 184.438 298.084 184.786H298.19C298.393 184.435 298.676 184.175 299.039 184.007C299.402 183.839 299.787 183.755 300.193 183.755ZM310.103 187.106C310.103 187.646 310.032 188.124 309.892 188.542C309.751 188.96 309.546 189.313 309.277 189.603C309.007 189.888 308.683 190.106 308.304 190.259C307.925 190.407 307.497 190.481 307.021 190.481C306.575 190.481 306.167 190.407 305.796 190.259C305.425 190.106 305.103 189.888 304.829 189.603C304.56 189.313 304.351 188.96 304.202 188.542C304.054 188.124 303.98 187.646 303.98 187.106C303.98 186.392 304.103 185.786 304.349 185.29C304.599 184.79 304.954 184.409 305.415 184.147C305.876 183.886 306.425 183.755 307.062 183.755C307.659 183.755 308.187 183.886 308.644 184.147C309.101 184.409 309.458 184.79 309.716 185.29C309.974 185.79 310.103 186.396 310.103 187.106ZM305.398 187.106C305.398 187.579 305.454 187.983 305.568 188.319C305.685 188.655 305.865 188.913 306.107 189.093C306.349 189.269 306.661 189.356 307.044 189.356C307.427 189.356 307.74 189.269 307.982 189.093C308.224 188.913 308.402 188.655 308.515 188.319C308.628 187.983 308.685 187.579 308.685 187.106C308.685 186.634 308.628 186.233 308.515 185.905C308.402 185.573 308.224 185.321 307.982 185.149C307.74 184.974 307.425 184.886 307.038 184.886C306.468 184.886 306.052 185.077 305.79 185.46C305.529 185.843 305.398 186.392 305.398 187.106ZM315.02 183.755C315.129 183.755 315.248 183.761 315.377 183.772C315.506 183.784 315.618 183.8 315.711 183.819L315.582 185.108C315.5 185.085 315.399 185.067 315.278 185.056C315.161 185.044 315.055 185.038 314.961 185.038C314.715 185.038 314.481 185.079 314.258 185.161C314.036 185.239 313.838 185.36 313.666 185.524C313.495 185.685 313.36 185.886 313.262 186.128C313.164 186.37 313.116 186.651 313.116 186.972V190.364H311.733V183.878H312.811L312.998 185.021H313.063C313.192 184.79 313.352 184.579 313.543 184.388C313.735 184.196 313.954 184.044 314.2 183.931C314.45 183.813 314.723 183.755 315.02 183.755ZM319.544 183.755C320.123 183.755 320.619 183.874 321.033 184.112C321.447 184.351 321.765 184.688 321.988 185.126C322.211 185.563 322.322 186.087 322.322 186.696V187.435H317.992C318.007 188.063 318.175 188.548 318.496 188.888C318.82 189.228 319.273 189.397 319.855 189.397C320.269 189.397 320.64 189.358 320.968 189.28C321.3 189.198 321.642 189.079 321.994 188.923V190.042C321.669 190.194 321.339 190.306 321.003 190.376C320.668 190.446 320.265 190.481 319.796 190.481C319.16 190.481 318.599 190.358 318.115 190.112C317.634 189.862 317.257 189.491 316.984 188.999C316.714 188.507 316.58 187.896 316.58 187.165C316.58 186.438 316.703 185.821 316.949 185.313C317.195 184.806 317.541 184.419 317.986 184.153C318.431 183.888 318.951 183.755 319.544 183.755ZM319.544 184.792C319.111 184.792 318.759 184.933 318.49 185.214C318.224 185.495 318.068 185.907 318.021 186.45H320.974C320.97 186.126 320.916 185.839 320.81 185.589C320.709 185.339 320.552 185.144 320.341 185.003C320.134 184.862 319.869 184.792 319.544 184.792Z" fill="#3366FF"/>
<g clip-path="url(#clip0_1441_6324)">
<path d="M251.346 182.698C253.872 182.698 256.126 184.118 257.226 186.364C256.126 188.611 253.879 190.031 251.346 190.031C248.812 190.031 246.566 188.611 245.466 186.364C246.566 184.118 248.819 182.698 251.346 182.698ZM251.346 181.364C248.012 181.364 245.166 183.438 244.012 186.364C245.166 189.291 248.012 191.364 251.346 191.364C254.679 191.364 257.526 189.291 258.679 186.364C257.526 183.438 254.679 181.364 251.346 181.364ZM251.346 184.698C252.266 184.698 253.012 185.444 253.012 186.364C253.012 187.284 252.266 188.031 251.346 188.031C250.426 188.031 249.679 187.284 249.679 186.364C249.679 185.444 250.426 184.698 251.346 184.698ZM251.346 183.364C249.692 183.364 248.346 184.711 248.346 186.364C248.346 188.018 249.692 189.364 251.346 189.364C252.999 189.364 254.346 188.018 254.346 186.364C254.346 184.711 252.999 183.364 251.346 183.364Z" fill="#3366FF"/>
</g>
<path d="M296.25 85H294.787V80.9613H290.663V85H289.194V76.0537H290.663V79.713H294.787V76.0537H296.25V85ZM301.17 78.0975C301.773 78.0975 302.292 78.222 302.724 78.4708C303.156 78.7197 303.489 79.0725 303.721 79.5294C303.954 79.9863 304.07 80.533 304.07 81.1694V81.9404H299.548C299.564 82.5972 299.74 83.103 300.074 83.458C300.413 83.8129 300.886 83.9903 301.494 83.9903C301.926 83.9903 302.314 83.9495 302.657 83.8679C303.003 83.7823 303.36 83.6579 303.728 83.4947V84.6634C303.389 84.8225 303.044 84.9388 302.693 85.0122C302.343 85.0857 301.922 85.1224 301.433 85.1224C300.768 85.1224 300.182 84.9939 299.677 84.7369C299.175 84.4758 298.781 84.0882 298.496 83.5742C298.214 83.0602 298.073 82.4218 298.073 81.6589C298.073 80.9001 298.202 80.2556 298.459 79.7252C298.716 79.1949 299.077 78.791 299.542 78.5136C300.007 78.2362 300.55 78.0975 301.17 78.0975ZM301.17 79.1806C300.717 79.1806 300.35 79.3275 300.068 79.6212C299.791 79.9149 299.628 80.3453 299.579 80.9124H302.663C302.659 80.5738 302.602 80.2739 302.491 80.0129C302.385 79.7518 302.222 79.5478 302.002 79.4009C301.786 79.2541 301.508 79.1806 301.17 79.1806ZM309.125 78.0975C309.239 78.0975 309.363 78.1037 309.498 78.1159C309.633 78.1281 309.749 78.1445 309.847 78.1649L309.712 79.5111C309.626 79.4866 309.52 79.4682 309.394 79.456C309.272 79.4438 309.161 79.4376 309.063 79.4376C308.806 79.4376 308.562 79.4805 308.329 79.5661C308.097 79.6477 307.891 79.7742 307.711 79.9455C307.532 80.1128 307.391 80.3229 307.289 80.5758C307.187 80.8287 307.136 81.1225 307.136 81.457V85H305.692V78.226H306.818L307.014 79.4193H307.081C307.215 79.1786 307.383 78.9583 307.583 78.7584C307.783 78.5585 308.011 78.3994 308.268 78.2811C308.529 78.1587 308.815 78.0975 309.125 78.0975ZM313.8 78.0975C314.403 78.0975 314.922 78.222 315.354 78.4708C315.786 78.7197 316.119 79.0725 316.351 79.5294C316.584 79.9863 316.7 80.533 316.7 81.1694V81.9404H312.178C312.194 82.5972 312.37 83.103 312.704 83.458C313.043 83.8129 313.516 83.9903 314.124 83.9903C314.556 83.9903 314.944 83.9495 315.287 83.8679C315.633 83.7823 315.99 83.6579 316.358 83.4947V84.6634C316.019 84.8225 315.674 84.9388 315.323 85.0122C314.973 85.0857 314.552 85.1224 314.063 85.1224C313.398 85.1224 312.812 84.9939 312.307 84.7369C311.805 84.4758 311.411 84.0882 311.126 83.5742C310.844 83.0602 310.703 82.4218 310.703 81.6589C310.703 80.9001 310.832 80.2556 311.089 79.7252C311.346 79.1949 311.707 78.791 312.172 78.5136C312.637 78.2362 313.18 78.0975 313.8 78.0975ZM313.8 79.1806C313.347 79.1806 312.98 79.3275 312.698 79.6212C312.421 79.9149 312.258 80.3453 312.209 80.9124H315.293C315.289 80.5738 315.232 80.2739 315.121 80.0129C315.015 79.7518 314.852 79.5478 314.632 79.4009C314.416 79.2541 314.138 79.1806 313.8 79.1806ZM320.555 78.226H322.122L323.511 82.0934C323.572 82.2688 323.627 82.4422 323.676 82.6135C323.729 82.7808 323.774 82.946 323.811 83.1092C323.852 83.2723 323.884 83.4355 323.909 83.5987H323.945C323.986 83.3866 324.043 83.15 324.117 82.8889C324.194 82.6237 324.28 82.3585 324.374 82.0934L325.708 78.226H327.256L324.349 85.9301C324.182 86.3707 323.976 86.746 323.731 87.0561C323.491 87.3702 323.205 87.6068 322.875 87.7659C322.544 87.9291 322.167 88.0106 321.742 88.0106C321.538 88.0106 321.361 87.9984 321.21 87.9739C321.059 87.9535 320.931 87.9311 320.825 87.9066V86.7562C320.91 86.7766 321.018 86.795 321.149 86.8113C321.279 86.8276 321.414 86.8358 321.553 86.8358C321.81 86.8358 322.032 86.7848 322.22 86.6828C322.407 86.5808 322.567 86.436 322.697 86.2483C322.828 86.0647 322.936 85.8546 323.021 85.618L323.26 84.9816L320.555 78.226ZM334.281 81.5977C334.281 82.1607 334.207 82.6604 334.06 83.0969C333.914 83.5334 333.699 83.9026 333.418 84.2045C333.136 84.5023 332.798 84.7308 332.402 84.8899C332.006 85.0449 331.56 85.1224 331.062 85.1224C330.597 85.1224 330.171 85.0449 329.783 84.8899C329.396 84.7308 329.059 84.5023 328.773 84.2045C328.492 83.9026 328.274 83.5334 328.119 83.0969C327.964 82.6604 327.886 82.1607 327.886 81.5977C327.886 80.8512 328.015 80.2189 328.272 79.7008C328.533 79.1786 328.904 78.7809 329.385 78.5075C329.867 78.2342 330.44 78.0975 331.105 78.0975C331.729 78.0975 332.28 78.2342 332.757 78.5075C333.234 78.7809 333.608 79.1786 333.877 79.7008C334.146 80.2229 334.281 80.8553 334.281 81.5977ZM329.367 81.5977C329.367 82.0913 329.426 82.5136 329.544 82.8644C329.667 83.2152 329.854 83.4845 330.107 83.6721C330.36 83.8557 330.687 83.9475 331.086 83.9475C331.486 83.9475 331.813 83.8557 332.066 83.6721C332.318 83.4845 332.504 83.2152 332.622 82.8644C332.741 82.5136 332.8 82.0913 332.8 81.5977C332.8 81.1041 332.741 80.686 332.622 80.3433C332.504 79.9965 332.318 79.7334 332.066 79.5539C331.813 79.3703 331.484 79.2785 331.08 79.2785C330.485 79.2785 330.05 79.4784 329.777 79.8782C329.504 80.278 329.367 80.8512 329.367 81.5977ZM341.838 78.226V85H340.706L340.51 84.0882H340.431C340.288 84.3208 340.106 84.5145 339.886 84.6696C339.666 84.8205 339.421 84.9327 339.152 85.0061C338.882 85.0836 338.599 85.1224 338.301 85.1224C337.791 85.1224 337.355 85.0367 336.992 84.8654C336.633 84.69 336.357 84.4207 336.165 84.0576C335.974 83.6946 335.878 83.2254 335.878 82.6502V78.226H337.322V82.381C337.322 82.9072 337.428 83.3009 337.64 83.562C337.856 83.8231 338.191 83.9536 338.644 83.9536C339.08 83.9536 339.427 83.8639 339.684 83.6844C339.941 83.5049 340.123 83.2397 340.229 82.8889C340.339 82.538 340.394 82.1077 340.394 81.5977V78.226H341.838ZM352.693 84.9939L351.837 81.8425C351.796 81.6875 351.747 81.4998 351.69 81.2795C351.633 81.0592 351.576 80.8328 351.518 80.6003C351.461 80.3637 351.408 80.1454 351.359 79.9455C351.315 79.7456 351.28 79.5906 351.255 79.4805H351.206C351.186 79.5906 351.153 79.7456 351.109 79.9455C351.064 80.1454 351.013 80.3637 350.956 80.6003C350.898 80.8369 350.841 81.0674 350.784 81.2918C350.731 81.5161 350.682 81.7079 350.637 81.867L349.738 84.9939H348.159L346.262 78.2199H347.718L348.6 81.5855C348.657 81.8139 348.712 82.0607 348.765 82.3259C348.822 82.5911 348.871 82.844 348.912 83.0847C348.953 83.3254 348.983 83.5232 349.004 83.6783H349.052C349.069 83.5681 349.091 83.4294 349.12 83.2621C349.148 83.0908 349.181 82.9134 349.218 82.7298C349.254 82.5421 349.291 82.3667 349.328 82.2035C349.365 82.0363 349.399 81.9016 349.432 81.7997L350.472 78.2199H352.045L353.042 81.7997C353.087 81.9547 353.136 82.1505 353.189 82.3871C353.242 82.6196 353.289 82.8542 353.33 83.0908C353.375 83.3233 353.403 83.5171 353.415 83.6721H353.464C353.481 83.5334 353.509 83.3458 353.55 83.1092C353.595 82.8685 353.646 82.6135 353.703 82.3443C353.76 82.0709 353.819 81.818 353.881 81.5855L354.78 78.2199H356.212L354.303 84.9939H352.693ZM358.813 78.226V85H357.375V78.226H358.813ZM358.103 75.6315C358.323 75.6315 358.513 75.6907 358.672 75.809C358.835 75.9273 358.917 76.1312 358.917 76.4209C358.917 76.7064 358.835 76.9104 358.672 77.0328C358.513 77.1511 358.323 77.2103 358.103 77.2103C357.874 77.2103 357.681 77.1511 357.521 77.0328C357.366 76.9104 357.289 76.7064 357.289 76.4209C357.289 76.1312 357.366 75.9273 357.521 75.809C357.681 75.6907 357.874 75.6315 358.103 75.6315ZM362.319 85H360.875V75.4785H362.319V85ZM365.819 85H364.375V75.4785H365.819V85ZM373.786 78.0975C374.643 78.0975 375.29 78.2872 375.726 78.6666C376.167 79.046 376.387 79.6375 376.387 80.4412V85H375.365L375.09 84.0393H375.041C374.849 84.2841 374.651 84.486 374.447 84.6451C374.243 84.8042 374.007 84.9225 373.737 85C373.472 85.0816 373.148 85.1224 372.764 85.1224C372.36 85.1224 371.999 85.049 371.681 84.9021C371.363 84.7512 371.112 84.5227 370.929 84.2167C370.745 83.9108 370.653 83.5232 370.653 83.0541C370.653 82.3565 370.912 81.8323 371.43 81.4815C371.953 81.1306 372.74 80.9368 373.792 80.9001L374.967 80.8573V80.5024C374.967 80.0332 374.857 79.6987 374.637 79.4988C374.421 79.2989 374.115 79.199 373.719 79.199C373.38 79.199 373.052 79.2479 372.734 79.3459C372.416 79.4438 372.106 79.5641 371.804 79.7069L371.339 78.6911C371.669 78.5157 372.044 78.3729 372.465 78.2628C372.889 78.1526 373.329 78.0975 373.786 78.0975ZM374.961 81.7629L374.086 81.7935C373.368 81.818 372.864 81.9404 372.575 82.1607C372.285 82.381 372.14 82.6829 372.14 83.0663C372.14 83.4008 372.24 83.6456 372.44 83.8006C372.64 83.9516 372.903 84.027 373.229 84.027C373.727 84.027 374.139 83.8863 374.465 83.6048C374.796 83.3193 374.961 82.9011 374.961 82.3504V81.7629ZM380.676 85.1224C379.869 85.1224 379.22 84.8287 378.731 84.2412C378.245 83.6497 378.002 82.7787 378.002 81.6283C378.002 80.4657 378.249 79.5865 378.743 78.9909C379.241 78.3953 379.895 78.0975 380.707 78.0975C381.05 78.0975 381.35 78.1445 381.607 78.2383C381.864 78.328 382.084 78.4504 382.267 78.6054C382.455 78.7605 382.614 78.9338 382.745 79.1256H382.812C382.792 78.9991 382.767 78.8176 382.739 78.581C382.714 78.3403 382.702 78.1179 382.702 77.914V75.4785H384.146V85H383.02L382.763 84.076H382.702C382.58 84.2718 382.425 84.4493 382.237 84.6084C382.053 84.7634 381.833 84.8878 381.576 84.9816C381.323 85.0755 381.023 85.1224 380.676 85.1224ZM381.08 83.9536C381.696 83.9536 382.131 83.7762 382.384 83.4212C382.637 83.0663 382.767 82.534 382.775 81.8241V81.6344C382.775 80.8757 382.653 80.2943 382.408 79.8905C382.163 79.4825 381.717 79.2785 381.068 79.2785C380.55 79.2785 380.154 79.4886 379.881 79.9088C379.612 80.3249 379.477 80.9063 379.477 81.6528C379.477 82.3993 379.612 82.9705 379.881 83.3662C380.154 83.7578 380.554 83.9536 381.08 83.9536ZM388.485 85.1224C387.677 85.1224 387.028 84.8287 386.539 84.2412C386.053 83.6497 385.811 82.7787 385.811 81.6283C385.811 80.4657 386.057 79.5865 386.551 78.9909C387.049 78.3953 387.703 78.0975 388.515 78.0975C388.858 78.0975 389.158 78.1445 389.415 78.2383C389.672 78.328 389.892 78.4504 390.076 78.6054C390.263 78.7605 390.422 78.9338 390.553 79.1256H390.62C390.6 78.9991 390.575 78.8176 390.547 78.581C390.522 78.3403 390.51 78.1179 390.51 77.914V75.4785H391.954V85H390.828L390.571 84.076H390.51C390.388 84.2718 390.233 84.4493 390.045 84.6084C389.861 84.7634 389.641 84.8878 389.384 84.9816C389.131 85.0755 388.831 85.1224 388.485 85.1224ZM388.888 83.9536C389.504 83.9536 389.939 83.7762 390.192 83.4212C390.445 83.0663 390.575 82.534 390.583 81.8241V81.6344C390.583 80.8757 390.461 80.2943 390.216 79.8905C389.972 79.4825 389.525 79.2785 388.876 79.2785C388.358 79.2785 387.962 79.4886 387.689 79.9088C387.42 80.3249 387.285 80.9063 387.285 81.6528C387.285 82.3993 387.42 82.9705 387.689 83.3662C387.962 83.7578 388.362 83.9536 388.888 83.9536ZM399.928 78.0975C400.784 78.0975 401.431 78.2872 401.867 78.6666C402.308 79.046 402.528 79.6375 402.528 80.4412V85H401.506L401.231 84.0393H401.182C400.99 84.2841 400.792 84.486 400.588 84.6451C400.384 84.8042 400.148 84.9225 399.879 85C399.613 85.0816 399.289 85.1224 398.906 85.1224C398.502 85.1224 398.141 85.049 397.822 84.9021C397.504 84.7512 397.253 84.5227 397.07 84.2167C396.886 83.9108 396.794 83.5232 396.794 83.0541C396.794 82.3565 397.054 81.8323 397.572 81.4815C398.094 81.1306 398.881 80.9368 399.934 80.9001L401.109 80.8573V80.5024C401.109 80.0332 400.998 79.6987 400.778 79.4988C400.562 79.2989 400.256 79.199 399.86 79.199C399.522 79.199 399.193 79.2479 398.875 79.3459C398.557 79.4438 398.247 79.5641 397.945 79.7069L397.48 78.6911C397.81 78.5157 398.186 78.3729 398.606 78.2628C399.03 78.1526 399.471 78.0975 399.928 78.0975ZM401.102 81.7629L400.227 81.7935C399.509 81.818 399.006 81.9404 398.716 82.1607C398.426 82.381 398.281 82.6829 398.281 83.0663C398.281 83.4008 398.381 83.6456 398.581 83.8006C398.781 83.9516 399.044 84.027 399.371 84.027C399.868 84.027 400.28 83.8863 400.607 83.6048C400.937 83.3193 401.102 82.9011 401.102 82.3504V81.7629ZM412.349 83.0663C412.349 83.511 412.241 83.8863 412.025 84.1923C411.809 84.4982 411.493 84.7308 411.077 84.8899C410.665 85.0449 410.159 85.1224 409.559 85.1224C409.086 85.1224 408.678 85.0877 408.335 85.0184C407.997 84.9531 407.676 84.8511 407.375 84.7124V83.4702C407.697 83.6211 408.058 83.7517 408.458 83.8618C408.862 83.972 409.243 84.027 409.602 84.027C410.075 84.027 410.416 83.9536 410.624 83.8068C410.832 83.6558 410.936 83.4559 410.936 83.2071C410.936 83.0602 410.893 82.9297 410.807 82.8154C410.726 82.6971 410.571 82.5768 410.342 82.4544C410.118 82.3279 409.788 82.177 409.351 82.0016C408.923 81.8303 408.562 81.6589 408.268 81.4876C407.974 81.3162 407.752 81.1102 407.601 80.8695C407.45 80.6248 407.375 80.3127 407.375 79.9333C407.375 79.3336 407.611 78.8788 408.084 78.5687C408.562 78.2546 409.192 78.0975 409.975 78.0975C410.391 78.0975 410.783 78.1404 411.15 78.226C411.521 78.3076 411.884 78.428 412.239 78.5871L411.787 79.6702C411.481 79.5356 411.173 79.4254 410.863 79.3397C410.557 79.25 410.244 79.2051 409.926 79.2051C409.555 79.2051 409.272 79.2622 409.076 79.3765C408.884 79.4907 408.788 79.6539 408.788 79.866C408.788 80.0251 408.835 80.1597 408.929 80.2699C409.023 80.38 409.184 80.4901 409.412 80.6003C409.645 80.7104 409.967 80.8471 410.379 81.0103C410.783 81.1653 411.132 81.3285 411.425 81.4998C411.723 81.6671 411.952 81.8731 412.111 82.1179C412.27 82.3626 412.349 82.6788 412.349 83.0663ZM419.809 78.226V85H418.677L418.481 84.0882H418.401C418.259 84.3208 418.077 84.5145 417.857 84.6696C417.636 84.8205 417.392 84.9327 417.122 85.0061C416.853 85.0836 416.57 85.1224 416.272 85.1224C415.762 85.1224 415.325 85.0367 414.962 84.8654C414.603 84.69 414.328 84.4207 414.136 84.0576C413.945 83.6946 413.849 83.2254 413.849 82.6502V78.226H415.293V82.381C415.293 82.9072 415.399 83.3009 415.611 83.562C415.827 83.8231 416.162 83.9536 416.615 83.9536C417.051 83.9536 417.398 83.8639 417.655 83.6844C417.912 83.5049 418.093 83.2397 418.199 82.8889C418.31 82.538 418.365 82.1077 418.365 81.5977V78.226H419.809ZM423.309 75.4785V77.7732C423.309 78.0384 423.301 78.2995 423.285 78.5565C423.272 78.8094 423.26 79.0073 423.248 79.15H423.309C423.493 78.8563 423.748 78.6095 424.074 78.4096C424.404 78.2056 424.827 78.1037 425.341 78.1037C426.144 78.1037 426.791 78.3994 427.28 78.9909C427.77 79.5784 428.015 80.4494 428.015 81.6038C428.015 82.3708 427.902 83.0153 427.678 83.5375C427.454 84.0597 427.138 84.4554 426.73 84.7246C426.326 84.9898 425.85 85.1224 425.304 85.1224C424.79 85.1224 424.374 85.0286 424.056 84.8409C423.741 84.6492 423.495 84.4268 423.315 84.1739H423.211L422.948 85H421.871V75.4785H423.309ZM424.961 79.2724C424.553 79.2724 424.229 79.354 423.988 79.5172C423.752 79.6804 423.58 79.9251 423.474 80.2515C423.368 80.5738 423.313 80.9838 423.309 81.4815V81.61C423.309 82.3647 423.427 82.9419 423.664 83.3417C423.905 83.7415 424.341 83.9414 424.973 83.9414C425.475 83.9414 425.861 83.7394 426.13 83.3356C426.399 82.9276 426.534 82.3443 426.534 81.5855C426.534 80.8185 426.399 80.2413 426.13 79.8538C425.865 79.4662 425.475 79.2724 424.961 79.2724ZM429 88.0106C428.788 88.0106 428.586 87.9943 428.394 87.9617C428.202 87.9331 428.041 87.8985 427.911 87.8577V86.7073C428.049 86.7481 428.184 86.7786 428.314 86.799C428.445 86.8194 428.594 86.8296 428.761 86.8296C429.026 86.8296 429.245 86.7562 429.416 86.6094C429.591 86.4625 429.679 86.183 429.679 85.771V78.226H431.117V85.8995C431.117 86.3115 431.044 86.6767 430.897 86.9949C430.754 87.3131 430.526 87.5619 430.211 87.7414C429.901 87.9209 429.498 88.0106 429 88.0106ZM429.593 76.4209C429.593 76.1312 429.671 75.9273 429.826 75.809C429.985 75.6907 430.179 75.6315 430.407 75.6315C430.628 75.6315 430.817 75.6907 430.976 75.809C431.14 75.9273 431.221 76.1312 431.221 76.4209C431.221 76.7064 431.14 76.9104 430.976 77.0328C430.817 77.1511 430.628 77.2103 430.407 77.2103C430.179 77.2103 429.985 77.1511 429.826 77.0328C429.671 76.9104 429.593 76.7064 429.593 76.4209ZM435.878 78.0975C436.482 78.0975 437 78.222 437.432 78.4708C437.865 78.7197 438.197 79.0725 438.43 79.5294C438.662 79.9863 438.778 80.533 438.778 81.1694V81.9404H434.256C434.273 82.5972 434.448 83.103 434.782 83.458C435.121 83.8129 435.594 83.9903 436.202 83.9903C436.635 83.9903 437.022 83.9495 437.365 83.8679C437.712 83.7823 438.068 83.6579 438.436 83.4947V84.6634C438.097 84.8225 437.752 84.9388 437.402 85.0122C437.051 85.0857 436.63 85.1224 436.141 85.1224C435.476 85.1224 434.891 84.9939 434.385 84.7369C433.883 84.4758 433.489 84.0882 433.204 83.5742C432.922 83.0602 432.782 82.4218 432.782 81.6589C432.782 80.9001 432.91 80.2556 433.167 79.7252C433.424 79.1949 433.785 78.791 434.25 78.5136C434.715 78.2362 435.258 78.0975 435.878 78.0975ZM435.878 79.1806C435.425 79.1806 435.058 79.3275 434.776 79.6212C434.499 79.9149 434.336 80.3453 434.287 80.9124H437.371C437.367 80.5738 437.31 80.2739 437.2 80.0129C437.094 79.7518 436.93 79.5478 436.71 79.4009C436.494 79.2541 436.216 79.1806 435.878 79.1806ZM443.129 85.1224C442.489 85.1224 441.934 84.998 441.465 84.7491C440.996 84.5003 440.634 84.1188 440.382 83.6048C440.129 83.0908 440.002 82.4381 440.002 81.6467C440.002 80.8226 440.141 80.1495 440.418 79.6273C440.696 79.1052 441.079 78.7197 441.569 78.4708C442.062 78.222 442.627 78.0975 443.264 78.0975C443.668 78.0975 444.033 78.1383 444.359 78.2199C444.689 78.2974 444.969 78.3933 445.197 78.5075L444.769 79.6579C444.52 79.5559 444.265 79.4703 444.004 79.4009C443.743 79.3316 443.492 79.2969 443.251 79.2969C442.856 79.2969 442.525 79.3846 442.26 79.56C441.999 79.7354 441.803 79.9965 441.673 80.3433C441.546 80.69 441.483 81.1204 441.483 81.6344C441.483 82.1321 441.548 82.5523 441.679 82.895C441.809 83.2336 442.003 83.4906 442.26 83.666C442.517 83.8374 442.833 83.923 443.209 83.923C443.58 83.923 443.912 83.8781 444.206 83.7884C444.5 83.6986 444.777 83.5824 445.038 83.4396V84.6879C444.781 84.8348 444.506 84.9429 444.212 85.0122C443.918 85.0857 443.557 85.1224 443.129 85.1224ZM449.15 83.9597C449.338 83.9597 449.524 83.9434 449.707 83.9108C449.891 83.8741 450.058 83.8312 450.209 83.7823V84.8715C450.05 84.9408 449.844 85 449.591 85.049C449.338 85.0979 449.075 85.1224 448.802 85.1224C448.418 85.1224 448.073 85.0592 447.767 84.9327C447.461 84.8021 447.219 84.5798 447.039 84.2657C446.86 83.9516 446.77 83.5171 446.77 82.9623V79.3214H445.846V78.6789L446.837 78.171L447.308 76.7207H448.214V78.226H450.154V79.3214H448.214V82.9439C448.214 83.2866 448.3 83.5416 448.471 83.7088C448.642 83.8761 448.869 83.9597 449.15 83.9597ZM457.362 83.9597C457.55 83.9597 457.736 83.9434 457.919 83.9108C458.103 83.8741 458.27 83.8312 458.421 83.7823V84.8715C458.262 84.9408 458.056 85 457.803 85.049C457.55 85.0979 457.287 85.1224 457.014 85.1224C456.63 85.1224 456.285 85.0592 455.979 84.9327C455.673 84.8021 455.431 84.5798 455.251 84.2657C455.072 83.9516 454.982 83.5171 454.982 82.9623V79.3214H454.058V78.6789L455.049 78.171L455.52 76.7207H456.426V78.226H458.366V79.3214H456.426V82.9439C456.426 83.2866 456.512 83.5416 456.683 83.7088C456.854 83.8761 457.081 83.9597 457.362 83.9597ZM461.236 78.226V85H459.798V78.226H461.236ZM460.526 75.6315C460.746 75.6315 460.936 75.6907 461.095 75.809C461.258 75.9273 461.34 76.1312 461.34 76.4209C461.34 76.7064 461.258 76.9104 461.095 77.0328C460.936 77.1511 460.746 77.2103 460.526 77.2103C460.298 77.2103 460.104 77.1511 459.945 77.0328C459.79 76.9104 459.712 76.7064 459.712 76.4209C459.712 76.1312 459.79 75.9273 459.945 75.809C460.104 75.6907 460.298 75.6315 460.526 75.6315ZM465.819 83.9597C466.007 83.9597 466.192 83.9434 466.376 83.9108C466.56 83.8741 466.727 83.8312 466.878 83.7823V84.8715C466.719 84.9408 466.513 85 466.26 85.049C466.007 85.0979 465.744 85.1224 465.47 85.1224C465.087 85.1224 464.742 85.0592 464.436 84.9327C464.13 84.8021 463.887 84.5798 463.708 84.2657C463.528 83.9516 463.439 83.5171 463.439 82.9623V79.3214H462.515V78.6789L463.506 78.171L463.977 76.7207H464.883V78.226H466.823V79.3214H464.883V82.9439C464.883 83.2866 464.969 83.5416 465.14 83.7088C465.311 83.8761 465.538 83.9597 465.819 83.9597ZM469.699 85H468.255V75.4785H469.699V85ZM474.453 78.0975C475.057 78.0975 475.575 78.222 476.008 78.4708C476.44 78.7197 476.772 79.0725 477.005 79.5294C477.238 79.9863 477.354 80.533 477.354 81.1694V81.9404H472.832C472.848 82.5972 473.023 83.103 473.358 83.458C473.697 83.8129 474.17 83.9903 474.778 83.9903C475.21 83.9903 475.598 83.9495 475.94 83.8679C476.287 83.7823 476.644 83.6579 477.011 83.4947V84.6634C476.672 84.8225 476.328 84.9388 475.977 85.0122C475.626 85.0857 475.206 85.1224 474.716 85.1224C474.051 85.1224 473.466 84.9939 472.96 84.7369C472.458 84.4758 472.065 84.0882 471.779 83.5742C471.498 83.0602 471.357 82.4218 471.357 81.6589C471.357 80.9001 471.485 80.2556 471.742 79.7252C471.999 79.1949 472.36 78.791 472.826 78.5136C473.291 78.2362 473.833 78.0975 474.453 78.0975ZM474.453 79.1806C474 79.1806 473.633 79.3275 473.352 79.6212C473.074 79.9149 472.911 80.3453 472.862 80.9124H475.946C475.942 80.5738 475.885 80.2739 475.775 80.0129C475.669 79.7518 475.506 79.5478 475.285 79.4009C475.069 79.2541 474.792 79.1806 474.453 79.1806Z" fill="#333333"/>
<rect x="243.562" y="72.3848" width="37.2047" height="37.2047" rx="6.26606" fill="#D8EDFE"/>
<g clip-path="url(#clip1_1441_6324)">
<path d="M262.165 85.3141C263.244 85.3141 264.118 86.1884 264.118 87.2673C264.118 88.3463 263.244 89.2206 262.165 89.2206C261.086 89.2206 260.212 88.3463 260.212 87.2673C260.212 86.1884 261.086 85.3141 262.165 85.3141ZM262.165 93.6852C264.927 93.6852 267.839 95.0431 267.839 95.6384V96.6615H256.491V95.6384C256.491 95.0431 259.402 93.6852 262.165 93.6852ZM262.165 83.5469C260.109 83.5469 258.444 85.2118 258.444 87.2673C258.444 89.3229 260.109 90.9878 262.165 90.9878C264.22 90.9878 265.885 89.3229 265.885 87.2673C265.885 85.2118 264.22 83.5469 262.165 83.5469ZM262.165 91.9179C259.681 91.9179 254.724 93.1643 254.724 95.6384V98.4288H269.606V95.6384C269.606 93.1643 264.648 91.9179 262.165 91.9179Z" fill="#3366FF"/>
</g>
<path d="M315.708 106.751L314.882 104.621H312.193L311.371 106.751H310.582L313.207 100.014H313.909L316.516 106.751H315.708ZM314.648 103.928L313.863 101.813C313.845 101.758 313.815 101.667 313.772 101.542C313.732 101.417 313.691 101.287 313.648 101.152C313.605 101.017 313.57 100.909 313.542 100.826C313.512 100.952 313.478 101.077 313.441 101.202C313.408 101.325 313.374 101.44 313.34 101.547C313.307 101.651 313.278 101.739 313.253 101.813L312.455 103.928H314.648ZM319.146 106.843C318.51 106.843 318.005 106.626 317.632 106.191C317.262 105.757 317.077 105.111 317.077 104.254C317.077 103.388 317.266 102.735 317.646 102.295C318.025 101.851 318.53 101.629 319.16 101.629C319.426 101.629 319.659 101.664 319.858 101.735C320.057 101.805 320.228 101.9 320.372 102.019C320.516 102.136 320.636 102.269 320.734 102.419H320.789C320.777 102.324 320.765 102.194 320.753 102.028C320.74 101.863 320.734 101.729 320.734 101.625V99.6099H321.496V106.751H320.881L320.766 106.035H320.734C320.639 106.185 320.519 106.321 320.372 106.443C320.228 106.566 320.055 106.664 319.853 106.737C319.654 106.808 319.419 106.843 319.146 106.843ZM319.266 106.209C319.804 106.209 320.185 106.056 320.408 105.75C320.632 105.445 320.744 104.99 320.744 104.387V104.25C320.744 103.61 320.636 103.119 320.422 102.777C320.211 102.434 319.826 102.263 319.266 102.263C318.798 102.263 318.447 102.443 318.215 102.804C317.982 103.162 317.866 103.652 317.866 104.273C317.866 104.891 317.981 105.368 318.21 105.705C318.443 106.041 318.795 106.209 319.266 106.209ZM324.925 106.843C324.289 106.843 323.784 106.626 323.411 106.191C323.04 105.757 322.855 105.111 322.855 104.254C322.855 103.388 323.045 102.735 323.424 102.295C323.804 101.851 324.309 101.629 324.939 101.629C325.205 101.629 325.437 101.664 325.636 101.735C325.835 101.805 326.007 101.9 326.15 102.019C326.294 102.136 326.415 102.269 326.513 102.419H326.568C326.556 102.324 326.544 102.194 326.531 102.028C326.519 101.863 326.513 101.729 326.513 101.625V99.6099H327.275V106.751H326.66L326.545 106.035H326.513C326.418 106.185 326.297 106.321 326.15 106.443C326.007 106.566 325.834 106.664 325.632 106.737C325.433 106.808 325.197 106.843 324.925 106.843ZM325.044 106.209C325.583 106.209 325.964 106.056 326.187 105.75C326.41 105.445 326.522 104.99 326.522 104.387V104.25C326.522 103.61 326.415 103.119 326.201 102.777C325.99 102.434 325.604 102.263 325.044 102.263C324.576 102.263 324.226 102.443 323.993 102.804C323.761 103.162 323.645 103.652 323.645 104.273C323.645 104.891 323.759 105.368 323.989 105.705C324.221 106.041 324.573 106.209 325.044 106.209ZM333.003 106.219C333.129 106.219 333.257 106.208 333.389 106.186C333.521 106.165 333.628 106.139 333.71 106.108V106.7C333.622 106.74 333.498 106.774 333.338 106.801C333.182 106.829 333.029 106.843 332.88 106.843C332.613 106.843 332.372 106.797 332.154 106.705C331.937 106.61 331.763 106.451 331.631 106.228C331.503 106.004 331.438 105.695 331.438 105.301V102.318H330.723V101.946L331.443 101.648L331.746 100.555H332.205V101.721H333.678V102.318H332.205V105.278C332.205 105.593 332.277 105.829 332.421 105.985C332.567 106.141 332.762 106.219 333.003 106.219ZM339.09 104.227C339.09 104.64 339.036 105.009 338.929 105.333C338.822 105.657 338.667 105.931 338.465 106.154C338.263 106.378 338.019 106.549 337.731 106.668C337.447 106.785 337.124 106.843 336.763 106.843C336.426 106.843 336.117 106.785 335.836 106.668C335.557 106.549 335.316 106.378 335.111 106.154C334.909 105.931 334.751 105.657 334.638 105.333C334.528 105.009 334.473 104.64 334.473 104.227C334.473 103.676 334.566 103.208 334.753 102.822C334.939 102.434 335.205 102.139 335.551 101.937C335.9 101.732 336.315 101.629 336.795 101.629C337.254 101.629 337.655 101.732 337.997 101.937C338.343 102.142 338.611 102.438 338.8 102.827C338.993 103.213 339.09 103.679 339.09 104.227ZM335.262 104.227C335.262 104.631 335.316 104.981 335.423 105.278C335.53 105.575 335.695 105.804 335.918 105.966C336.142 106.128 336.429 106.209 336.781 106.209C337.13 106.209 337.416 106.128 337.639 105.966C337.866 105.804 338.032 105.575 338.14 105.278C338.247 104.981 338.3 104.631 338.3 104.227C338.3 103.826 338.247 103.48 338.14 103.19C338.032 102.896 337.867 102.669 337.644 102.51C337.421 102.351 337.131 102.272 336.777 102.272C336.253 102.272 335.869 102.445 335.625 102.79C335.383 103.136 335.262 103.615 335.262 104.227ZM345.135 102.318H343.882V106.751H343.12V102.318H342.23V101.95L343.12 101.698V101.363C343.12 100.941 343.183 100.598 343.308 100.335C343.434 100.069 343.616 99.873 343.854 99.7475C344.093 99.6221 344.384 99.5594 344.726 99.5594C344.919 99.5594 345.095 99.5762 345.254 99.6099C345.416 99.6435 345.559 99.6818 345.681 99.7246L345.484 100.326C345.38 100.292 345.262 100.262 345.13 100.234C345.002 100.203 344.87 100.188 344.736 100.188C344.445 100.188 344.229 100.283 344.089 100.473C343.951 100.659 343.882 100.953 343.882 101.354V101.721H345.135V102.318ZM347.967 101.638C348.567 101.638 349.012 101.773 349.303 102.042C349.593 102.311 349.739 102.741 349.739 103.332V106.751H349.183L349.036 106.007H349C348.859 106.191 348.712 106.346 348.559 106.471C348.406 106.593 348.229 106.687 348.027 106.751C347.828 106.812 347.583 106.843 347.292 106.843C346.987 106.843 346.714 106.789 346.476 106.682C346.24 106.575 346.053 106.413 345.916 106.196C345.781 105.978 345.714 105.703 345.714 105.37C345.714 104.868 345.913 104.482 346.31 104.213C346.708 103.944 347.314 103.797 348.128 103.772L348.995 103.736V103.428C348.995 102.994 348.902 102.689 348.715 102.515C348.529 102.341 348.265 102.253 347.926 102.253C347.663 102.253 347.412 102.292 347.173 102.368C346.935 102.445 346.708 102.535 346.494 102.639L346.26 102.061C346.486 101.944 346.746 101.845 347.04 101.762C347.334 101.68 347.643 101.638 347.967 101.638ZM348.986 104.273L348.22 104.305C347.592 104.329 347.15 104.432 346.893 104.612C346.636 104.793 346.508 105.048 346.508 105.379C346.508 105.666 346.595 105.879 346.769 106.017C346.944 106.154 347.175 106.223 347.462 106.223C347.909 106.223 348.275 106.099 348.559 105.851C348.844 105.604 348.986 105.232 348.986 104.736V104.273ZM352.438 106.751L350.529 101.721H351.345L352.452 104.764C352.528 104.972 352.606 105.201 352.686 105.452C352.765 105.703 352.82 105.905 352.851 106.058H352.883C352.92 105.905 352.981 105.703 353.066 105.452C353.152 105.198 353.23 104.969 353.301 104.764L354.407 101.721H355.224L353.31 106.751H352.438ZM360.392 104.227C360.392 104.64 360.338 105.009 360.231 105.333C360.124 105.657 359.97 105.931 359.768 106.154C359.566 106.378 359.321 106.549 359.033 106.668C358.749 106.785 358.426 106.843 358.065 106.843C357.728 106.843 357.419 106.785 357.138 106.668C356.859 106.549 356.618 106.378 356.413 106.154C356.211 105.931 356.053 105.657 355.94 105.333C355.83 105.009 355.775 104.64 355.775 104.227C355.775 103.676 355.868 103.208 356.055 102.822C356.241 102.434 356.508 102.139 356.853 101.937C357.202 101.732 357.617 101.629 358.097 101.629C358.556 101.629 358.957 101.732 359.299 101.937C359.645 102.142 359.913 102.438 360.103 102.827C360.295 103.213 360.392 103.679 360.392 104.227ZM356.564 104.227C356.564 104.631 356.618 104.981 356.725 105.278C356.832 105.575 356.997 105.804 357.22 105.966C357.444 106.128 357.731 106.209 358.083 106.209C358.432 106.209 358.718 106.128 358.941 105.966C359.168 105.804 359.335 105.575 359.442 105.278C359.549 104.981 359.602 104.631 359.602 104.227C359.602 103.826 359.549 103.48 359.442 103.19C359.335 102.896 359.169 102.669 358.946 102.51C358.723 102.351 358.434 102.272 358.079 102.272C357.555 102.272 357.171 102.445 356.927 102.79C356.685 103.136 356.564 103.615 356.564 104.227ZM364.018 101.629C364.119 101.629 364.224 101.635 364.335 101.648C364.445 101.657 364.543 101.671 364.628 101.689L364.532 102.396C364.449 102.374 364.358 102.357 364.257 102.345C364.156 102.333 364.061 102.327 363.972 102.327C363.77 102.327 363.579 102.368 363.398 102.451C363.221 102.53 363.065 102.647 362.93 102.8C362.796 102.949 362.69 103.131 362.614 103.346C362.537 103.557 362.499 103.792 362.499 104.052V106.751H361.732V101.721H362.366L362.448 102.648H362.48C362.584 102.461 362.71 102.292 362.857 102.139C363.004 101.983 363.173 101.859 363.366 101.767C363.562 101.675 363.779 101.629 364.018 101.629ZM366.364 101.721V106.751H365.602V101.721H366.364ZM365.992 99.8393C366.117 99.8393 366.224 99.8806 366.313 99.9633C366.405 100.043 366.451 100.168 366.451 100.34C366.451 100.508 366.405 100.633 366.313 100.716C366.224 100.799 366.117 100.84 365.992 100.84C365.86 100.84 365.75 100.799 365.661 100.716C365.576 100.633 365.533 100.508 365.533 100.34C365.533 100.168 365.576 100.043 365.661 99.9633C365.75 99.8806 365.86 99.8393 365.992 99.8393ZM369.627 106.219C369.753 106.219 369.881 106.208 370.013 106.186C370.144 106.165 370.251 106.139 370.334 106.108V106.7C370.245 106.74 370.121 106.774 369.962 106.801C369.806 106.829 369.653 106.843 369.503 106.843C369.237 106.843 368.995 106.797 368.778 106.705C368.561 106.61 368.387 106.451 368.255 106.228C368.127 106.004 368.062 105.695 368.062 105.301V102.318H367.346V101.946L368.067 101.648L368.37 100.555H368.829V101.721H370.302V102.318H368.829V105.278C368.829 105.593 368.901 105.829 369.044 105.985C369.191 106.141 369.386 106.219 369.627 106.219ZM373.313 101.629C373.741 101.629 374.109 101.724 374.415 101.914C374.721 102.103 374.955 102.37 375.117 102.712C375.279 103.052 375.36 103.45 375.36 103.906V104.378H371.886C371.895 104.969 372.042 105.419 372.326 105.728C372.611 106.037 373.012 106.191 373.529 106.191C373.847 106.191 374.128 106.162 374.373 106.104C374.618 106.046 374.872 105.96 375.135 105.847V106.517C374.881 106.63 374.629 106.713 374.378 106.765C374.13 106.817 373.836 106.843 373.497 106.843C373.013 106.843 372.591 106.745 372.23 106.549C371.872 106.35 371.594 106.06 371.395 105.677C371.196 105.295 371.096 104.826 371.096 104.273C371.096 103.731 371.187 103.263 371.367 102.868C371.551 102.471 371.808 102.165 372.138 101.95C372.472 101.736 372.863 101.629 373.313 101.629ZM373.304 102.253C372.897 102.253 372.573 102.386 372.331 102.653C372.089 102.919 371.945 103.291 371.9 103.768H374.561C374.558 103.468 374.511 103.205 374.419 102.978C374.33 102.749 374.194 102.572 374.011 102.446C373.827 102.318 373.592 102.253 373.304 102.253Z" fill="#333333"/>
<g clip-path="url(#clip2_1441_6324)">
<path d="M295.649 107.946L294.75 107.127C291.557 104.232 289.448 102.322 289.448 99.9778C289.448 98.068 290.949 96.5674 292.859 96.5674C293.938 96.5674 294.973 97.0696 295.649 97.8633C296.325 97.0696 297.361 96.5674 298.44 96.5674C300.349 96.5674 301.85 98.068 301.85 99.9778C301.85 102.322 299.742 104.232 296.548 107.134L295.649 107.946Z" fill="#3366FF"/>
</g>
<path d="M271.163 168.433H270.161V160.745H267.466V159.866H273.847V160.745H271.163V168.433ZM275.998 162.011V168.433H275.025V162.011H275.998ZM275.523 159.608C275.684 159.608 275.82 159.661 275.934 159.767C276.051 159.868 276.109 160.028 276.109 160.247C276.109 160.462 276.051 160.622 275.934 160.728C275.82 160.833 275.684 160.886 275.523 160.886C275.355 160.886 275.215 160.833 275.102 160.728C274.992 160.622 274.937 160.462 274.937 160.247C274.937 160.028 274.992 159.868 275.102 159.767C275.215 159.661 275.355 159.608 275.523 159.608ZM285.063 161.894C285.77 161.894 286.303 162.079 286.663 162.45C287.022 162.817 287.202 163.409 287.202 164.226V168.433H286.241V164.272C286.241 163.753 286.128 163.364 285.901 163.106C285.678 162.845 285.346 162.714 284.905 162.714C284.284 162.714 283.833 162.894 283.551 163.253C283.27 163.612 283.13 164.142 283.13 164.841V168.433H282.163V164.272C282.163 163.925 282.112 163.636 282.01 163.405C281.913 163.175 281.764 163.003 281.565 162.89C281.37 162.772 281.122 162.714 280.821 162.714C280.395 162.714 280.053 162.802 279.796 162.978C279.538 163.153 279.35 163.415 279.233 163.763C279.12 164.106 279.063 164.53 279.063 165.034V168.433H278.091V162.011H278.876L279.022 162.919H279.075C279.204 162.696 279.366 162.509 279.561 162.356C279.757 162.204 279.975 162.089 280.217 162.011C280.46 161.933 280.717 161.894 280.991 161.894C281.479 161.894 281.887 161.985 282.216 162.169C282.548 162.349 282.788 162.624 282.936 162.995H282.989C283.2 162.624 283.489 162.349 283.856 162.169C284.223 161.985 284.626 161.894 285.063 161.894ZM291.703 161.894C292.249 161.894 292.718 162.015 293.109 162.257C293.499 162.499 293.798 162.839 294.005 163.276C294.212 163.71 294.316 164.218 294.316 164.8V165.403H289.88C289.892 166.157 290.08 166.731 290.443 167.126C290.806 167.521 291.318 167.718 291.978 167.718C292.384 167.718 292.744 167.681 293.056 167.606C293.369 167.532 293.693 167.423 294.029 167.278V168.134C293.705 168.278 293.382 168.384 293.062 168.45C292.746 168.517 292.371 168.55 291.937 168.55C291.32 168.55 290.781 168.425 290.32 168.175C289.863 167.921 289.507 167.55 289.253 167.062C288.999 166.573 288.872 165.976 288.872 165.269C288.872 164.577 288.988 163.979 289.218 163.476C289.453 162.968 289.781 162.577 290.203 162.304C290.628 162.03 291.128 161.894 291.703 161.894ZM291.691 162.69C291.171 162.69 290.757 162.86 290.449 163.2C290.14 163.54 289.956 164.015 289.898 164.624H293.296C293.292 164.241 293.232 163.905 293.115 163.616C293.001 163.323 292.828 163.097 292.593 162.937C292.359 162.772 292.058 162.69 291.691 162.69Z" fill="#333333"/>
<g clip-path="url(#clip3_1441_6324)">
<path d="M250.556 157.766C246.876 157.766 243.896 160.752 243.896 164.432C243.896 168.112 246.876 171.099 250.556 171.099C254.242 171.099 257.229 168.112 257.229 164.432C257.229 160.752 254.242 157.766 250.556 157.766ZM250.562 169.766C247.616 169.766 245.229 167.379 245.229 164.432C245.229 161.486 247.616 159.099 250.562 159.099C253.509 159.099 255.896 161.486 255.896 164.432C255.896 167.379 253.509 169.766 250.562 169.766ZM250.896 161.099H249.896V165.099L253.396 167.199L253.896 166.379L250.896 164.599V161.099Z" fill="#3366FF"/>
</g>
<path d="M268.532 146.501V137.935H269.529V146.501H268.532ZM274.809 139.962C275.57 139.962 276.146 140.149 276.537 140.524C276.928 140.896 277.123 141.493 277.123 142.317V146.501H276.162V142.382C276.162 141.847 276.039 141.446 275.793 141.181C275.551 140.915 275.178 140.782 274.674 140.782C273.963 140.782 273.463 140.983 273.174 141.386C272.885 141.788 272.74 142.372 272.74 143.138V146.501H271.768V140.079H272.553L272.699 141.005H272.752C272.889 140.778 273.062 140.589 273.273 140.437C273.484 140.28 273.721 140.163 273.982 140.085C274.244 140.003 274.52 139.962 274.809 139.962ZM282.016 140.841H280.417V146.501H279.444V140.841H278.307V140.372L279.444 140.05V139.622C279.444 139.083 279.524 138.646 279.684 138.31C279.844 137.97 280.077 137.72 280.382 137.56C280.686 137.399 281.057 137.319 281.495 137.319C281.741 137.319 281.966 137.341 282.169 137.384C282.376 137.427 282.557 137.476 282.714 137.53L282.462 138.298C282.329 138.255 282.178 138.216 282.01 138.181C281.846 138.142 281.678 138.122 281.507 138.122C281.135 138.122 280.86 138.243 280.68 138.485C280.505 138.724 280.417 139.099 280.417 139.61V140.079H282.016V140.841ZM288.767 143.278C288.767 143.806 288.699 144.276 288.562 144.69C288.425 145.104 288.228 145.454 287.97 145.739C287.712 146.024 287.4 146.243 287.033 146.396C286.669 146.544 286.257 146.618 285.796 146.618C285.367 146.618 284.972 146.544 284.613 146.396C284.257 146.243 283.949 146.024 283.687 145.739C283.429 145.454 283.228 145.104 283.083 144.69C282.943 144.276 282.872 143.806 282.872 143.278C282.872 142.575 282.992 141.978 283.23 141.485C283.468 140.989 283.808 140.612 284.249 140.354C284.695 140.093 285.224 139.962 285.837 139.962C286.423 139.962 286.935 140.093 287.372 140.354C287.814 140.616 288.156 140.995 288.398 141.491C288.644 141.983 288.767 142.579 288.767 143.278ZM283.88 143.278C283.88 143.794 283.949 144.241 284.085 144.62C284.222 144.999 284.433 145.292 284.718 145.499C285.003 145.706 285.371 145.81 285.82 145.81C286.265 145.81 286.63 145.706 286.915 145.499C287.205 145.292 287.417 144.999 287.554 144.62C287.691 144.241 287.759 143.794 287.759 143.278C287.759 142.767 287.691 142.325 287.554 141.954C287.417 141.579 287.206 141.29 286.921 141.087C286.636 140.884 286.267 140.782 285.814 140.782C285.146 140.782 284.656 141.003 284.343 141.444C284.035 141.886 283.88 142.497 283.88 143.278ZM293.397 139.962C293.526 139.962 293.66 139.97 293.801 139.985C293.942 139.997 294.067 140.015 294.176 140.038L294.053 140.94C293.947 140.913 293.83 140.892 293.701 140.876C293.572 140.86 293.451 140.853 293.338 140.853C293.08 140.853 292.836 140.905 292.606 141.011C292.379 141.112 292.18 141.261 292.008 141.456C291.836 141.647 291.701 141.88 291.604 142.153C291.506 142.423 291.457 142.724 291.457 143.056V146.501H290.479V140.079H291.287L291.393 141.263H291.434C291.567 141.024 291.727 140.808 291.914 140.612C292.102 140.413 292.318 140.255 292.565 140.138C292.815 140.021 293.092 139.962 293.397 139.962ZM302.391 139.962C303.098 139.962 303.632 140.147 303.991 140.519C304.35 140.886 304.53 141.478 304.53 142.294V146.501H303.569V142.341C303.569 141.821 303.456 141.433 303.229 141.175C303.007 140.913 302.675 140.782 302.233 140.782C301.612 140.782 301.161 140.962 300.88 141.321C300.598 141.681 300.458 142.21 300.458 142.909V146.501H299.491V142.341C299.491 141.993 299.44 141.704 299.339 141.474C299.241 141.243 299.093 141.071 298.893 140.958C298.698 140.841 298.45 140.782 298.149 140.782C297.723 140.782 297.382 140.87 297.124 141.046C296.866 141.222 296.679 141.483 296.561 141.831C296.448 142.175 296.391 142.599 296.391 143.103V146.501H295.419V140.079H296.204L296.35 140.987H296.403C296.532 140.765 296.694 140.577 296.89 140.425C297.085 140.272 297.304 140.157 297.546 140.079C297.788 140.001 298.046 139.962 298.319 139.962C298.807 139.962 299.216 140.054 299.544 140.237C299.876 140.417 300.116 140.692 300.265 141.063H300.317C300.528 140.692 300.817 140.417 301.184 140.237C301.552 140.054 301.954 139.962 302.391 139.962ZM308.961 139.974C309.726 139.974 310.295 140.146 310.666 140.489C311.037 140.833 311.222 141.382 311.222 142.136V146.501H310.513L310.326 145.552H310.279C310.099 145.786 309.912 145.983 309.716 146.144C309.521 146.3 309.295 146.419 309.037 146.501C308.783 146.579 308.47 146.618 308.099 146.618C307.709 146.618 307.361 146.55 307.056 146.413C306.755 146.276 306.517 146.069 306.341 145.792C306.17 145.515 306.084 145.163 306.084 144.737C306.084 144.097 306.337 143.604 306.845 143.261C307.353 142.917 308.127 142.729 309.166 142.698L310.273 142.651V142.259C310.273 141.704 310.154 141.315 309.916 141.093C309.677 140.87 309.341 140.759 308.908 140.759C308.572 140.759 308.252 140.808 307.947 140.905C307.642 141.003 307.353 141.118 307.08 141.251L306.781 140.513C307.07 140.364 307.402 140.237 307.777 140.132C308.152 140.026 308.546 139.974 308.961 139.974ZM310.261 143.337L309.283 143.378C308.482 143.409 307.918 143.54 307.589 143.771C307.261 144.001 307.097 144.327 307.097 144.749C307.097 145.116 307.209 145.388 307.431 145.563C307.654 145.739 307.949 145.827 308.316 145.827C308.886 145.827 309.353 145.669 309.716 145.353C310.08 145.036 310.261 144.562 310.261 143.929V143.337ZM315.33 145.821C315.491 145.821 315.655 145.808 315.823 145.78C315.991 145.753 316.127 145.72 316.233 145.681V146.437C316.119 146.487 315.961 146.53 315.758 146.565C315.559 146.601 315.364 146.618 315.172 146.618C314.832 146.618 314.524 146.56 314.246 146.442C313.969 146.321 313.746 146.118 313.578 145.833C313.414 145.548 313.332 145.153 313.332 144.649V140.841H312.418V140.366L313.338 139.985L313.725 138.591H314.311V140.079H316.192V140.841H314.311V144.62C314.311 145.022 314.403 145.323 314.586 145.522C314.774 145.722 315.022 145.821 315.33 145.821ZM318.536 140.079V146.501H317.563V140.079H318.536ZM318.062 137.677C318.222 137.677 318.358 137.729 318.472 137.835C318.589 137.937 318.647 138.097 318.647 138.315C318.647 138.53 318.589 138.69 318.472 138.796C318.358 138.901 318.222 138.954 318.062 138.954C317.894 138.954 317.753 138.901 317.64 138.796C317.53 138.69 317.476 138.53 317.476 138.315C317.476 138.097 317.53 137.937 317.64 137.835C317.753 137.729 317.894 137.677 318.062 137.677ZM326.166 143.278C326.166 143.806 326.097 144.276 325.961 144.69C325.824 145.104 325.627 145.454 325.369 145.739C325.111 146.024 324.799 146.243 324.431 146.396C324.068 146.544 323.656 146.618 323.195 146.618C322.765 146.618 322.371 146.544 322.011 146.396C321.656 146.243 321.347 146.024 321.086 145.739C320.828 145.454 320.627 145.104 320.482 144.69C320.342 144.276 320.271 143.806 320.271 143.278C320.271 142.575 320.39 141.978 320.629 141.485C320.867 140.989 321.207 140.612 321.648 140.354C322.093 140.093 322.623 139.962 323.236 139.962C323.822 139.962 324.334 140.093 324.771 140.354C325.213 140.616 325.554 140.995 325.797 141.491C326.043 141.983 326.166 142.579 326.166 143.278ZM321.279 143.278C321.279 143.794 321.347 144.241 321.484 144.62C321.621 144.999 321.832 145.292 322.117 145.499C322.402 145.706 322.769 145.81 323.218 145.81C323.664 145.81 324.029 145.706 324.314 145.499C324.603 145.292 324.816 144.999 324.953 144.62C325.09 144.241 325.158 143.794 325.158 143.278C325.158 142.767 325.09 142.325 324.953 141.954C324.816 141.579 324.605 141.29 324.32 141.087C324.035 140.884 323.666 140.782 323.213 140.782C322.545 140.782 322.054 141.003 321.742 141.444C321.433 141.886 321.279 142.497 321.279 143.278ZM330.918 139.962C331.68 139.962 332.256 140.149 332.647 140.524C333.038 140.896 333.233 141.493 333.233 142.317V146.501H332.272V142.382C332.272 141.847 332.149 141.446 331.903 141.181C331.661 140.915 331.288 140.782 330.784 140.782C330.073 140.782 329.573 140.983 329.284 141.386C328.995 141.788 328.85 142.372 328.85 143.138V146.501H327.877V140.079H328.663L328.809 141.005H328.862C328.998 140.778 329.172 140.589 329.383 140.437C329.594 140.28 329.831 140.163 330.092 140.085C330.354 140.003 330.629 139.962 330.918 139.962Z" fill="#333333"/>
<path d="M801.634 56.393C801.634 53.1487 799.004 50.5186 795.759 50.5186H768.737V215.003H795.759C799.004 215.003 801.634 212.373 801.634 209.128V56.393Z" stroke="#F2F2F5" stroke-width="0.783258"/>
<g clip-path="url(#clip4_1441_6324)">
<path d="M785.5 110.332C782.05 110.332 779.25 113.319 779.25 116.999C779.25 120.679 782.05 123.665 785.5 123.665C788.95 123.665 791.75 120.679 791.75 116.999C791.75 113.319 788.95 110.332 785.5 110.332ZM785.5 122.332C782.744 122.332 780.5 119.939 780.5 116.999C780.5 114.059 782.744 111.665 785.5 111.665C788.256 111.665 790.5 114.059 790.5 116.999C790.5 119.939 788.256 122.332 785.5 122.332ZM788.369 114.052L784.25 118.445L782.631 116.725L781.75 117.665L784.25 120.332L789.25 114.999L788.369 114.052Z" fill="#3366FF"/>
</g>
<g clip-path="url(#clip5_1441_6324)">
<path d="M787.375 169.573L789.269 171L787.375 172.427V169.573ZM781.75 169.573L783.644 171L781.75 172.427V169.573ZM786.125 167V175L791.437 171L786.125 167ZM780.5 167V175L785.812 171L780.5 167Z" fill="#3366FF"/>
</g>
<g clip-path="url(#clip6_1441_6324)">
<path d="M786.125 138C783.019 138 780.5 140.687 780.5 144H778.625L781.056 146.593L781.1 146.687L783.625 144H781.75C781.75 141.42 783.706 139.333 786.125 139.333C788.544 139.333 790.5 141.42 790.5 144C790.5 146.58 788.544 148.667 786.125 148.667C784.919 148.667 783.825 148.14 783.038 147.293L782.15 148.24C783.169 149.327 784.569 150 786.125 150C789.231 150 791.75 147.313 791.75 144C791.75 140.687 789.231 138 786.125 138ZM785.5 141.333V144.667L788.156 146.347L788.638 145.493L786.438 144.1V141.333H785.5Z" fill="#3366FF"/>
</g>
<g clip-path="url(#clip7_1441_6324)">
<path d="M787.119 87.333L785.5 89.0597L783.881 87.333L783 88.273L784.619 89.9997L783 91.7263L783.881 92.6663L785.5 90.9397L787.119 92.6663L788 91.7263L786.381 89.9997L788 88.273L787.119 87.333ZM785.5 83.333C782.044 83.333 779.25 86.313 779.25 89.9997C779.25 93.6863 782.044 96.6663 785.5 96.6663C788.956 96.6663 791.75 93.6863 791.75 89.9997C791.75 86.313 788.956 83.333 785.5 83.333ZM785.5 95.333C782.744 95.333 780.5 92.9397 780.5 89.9997C780.5 87.0597 782.744 84.6663 785.5 84.6663C788.256 84.6663 790.5 87.0597 790.5 89.9997C790.5 92.9397 788.256 95.333 785.5 95.333Z" fill="#3366FF"/>
</g>
<circle cx="440.203" cy="13.6709" r="13.2152" fill="#101840" stroke="#101840" stroke-width="0.911392"/>
<path d="M442.148 11.4955C442.148 11.8551 442.074 12.1666 441.924 12.4301C441.774 12.6935 441.572 12.9089 441.315 13.0762C441.062 13.2435 440.778 13.3664 440.461 13.4447V13.4767C441.087 13.5551 441.563 13.7473 441.887 14.0535C442.214 14.3596 442.378 14.7691 442.378 15.2817C442.378 15.7374 442.266 16.1451 442.042 16.5046C441.821 16.8642 441.479 17.1472 441.016 17.3537C440.553 17.5602 439.957 17.6634 439.227 17.6634C438.796 17.6634 438.394 17.6278 438.02 17.5566C437.65 17.489 437.301 17.384 436.974 17.2416V15.8371C437.308 16.008 437.659 16.1379 438.026 16.2269C438.392 16.3124 438.734 16.3551 439.051 16.3551C439.642 16.3551 440.055 16.2536 440.29 16.0507C440.528 15.8442 440.648 15.5558 440.648 15.1856C440.648 14.9684 440.593 14.7851 440.482 14.6356C440.372 14.486 440.18 14.3721 439.905 14.2938C439.635 14.2155 439.256 14.1763 438.768 14.1763H438.175V12.9107H438.779C439.259 12.9107 439.624 12.8662 439.873 12.7772C440.126 12.6846 440.297 12.56 440.386 12.4034C440.479 12.2432 440.525 12.0616 440.525 11.8587C440.525 11.581 440.439 11.3638 440.269 11.2072C440.098 11.0505 439.813 10.9722 439.414 10.9722C439.165 10.9722 438.937 11.0042 438.731 11.0683C438.528 11.1288 438.344 11.2036 438.181 11.2926C438.017 11.378 437.873 11.4617 437.748 11.5436L436.984 10.4061C437.291 10.1854 437.648 10.0021 438.058 9.85609C438.471 9.71012 438.962 9.63714 439.532 9.63714C440.336 9.63714 440.973 9.79913 441.443 10.1231C441.913 10.4471 442.148 10.9045 442.148 11.4955Z" fill="white"/>
<path d="M440.203 27.3418V60.1519" stroke="#101840" stroke-width="1.82278"/>
<circle cx="440.203" cy="58.3289" r="2.27848" fill="#101840" stroke="#101840" stroke-width="0.911392"/>
<circle cx="82.9368" cy="251.545" r="13.2152" transform="rotate(-180 82.9368 251.545)" fill="#101840" stroke="#101840" stroke-width="0.911392"/>
<path d="M85.6424 254.976H80.1847V253.827L82.1446 251.846C82.5397 251.44 82.8566 251.102 83.0951 250.832C83.3372 250.557 83.5117 250.308 83.6185 250.084C83.7288 249.86 83.784 249.619 83.784 249.363C83.784 249.053 83.6968 248.822 83.5223 248.669C83.3515 248.512 83.1218 248.434 82.8335 248.434C82.5308 248.434 82.2371 248.503 81.9523 248.642C81.6675 248.781 81.3702 248.979 81.0605 249.235L80.1634 248.172C80.3876 247.98 80.6244 247.798 80.8736 247.627C81.1264 247.457 81.4183 247.32 81.7494 247.216C82.084 247.109 82.4846 247.056 82.9509 247.056C83.4636 247.056 83.9033 247.149 84.27 247.334C84.6402 247.519 84.925 247.772 85.1244 248.092C85.3238 248.409 85.4234 248.769 85.4234 249.171C85.4234 249.602 85.338 249.995 85.1671 250.351C84.9962 250.707 84.747 251.059 84.4195 251.408C84.0955 251.757 83.7039 252.144 83.2447 252.567L82.2407 253.512V253.587H85.6424V254.976Z" fill="white"/>
<path d="M82.9368 237.874L82.9368 205.064" stroke="#101840" stroke-width="1.82278"/>
<circle cx="82.9367" cy="206.887" r="2.27848" transform="rotate(-180 82.9367 206.887)" fill="#101840" stroke="#101840" stroke-width="0.911392"/>
<circle cx="784.709" cy="251.545" r="13.2152" transform="rotate(-180 784.709 251.545)" fill="#101840" stroke="#101840" stroke-width="0.911392"/>
<path d="M784.798 249.988C785.275 249.988 785.699 250.079 786.069 250.26C786.443 250.442 786.736 250.709 786.95 251.061C787.164 251.414 787.27 251.848 787.27 252.364C787.27 252.927 787.153 253.413 786.918 253.822C786.687 254.228 786.339 254.539 785.877 254.757C785.417 254.974 784.844 255.082 784.157 255.082C783.748 255.082 783.361 255.047 782.998 254.976C782.639 254.908 782.324 254.803 782.053 254.661V253.235C782.324 253.377 782.648 253.498 783.025 253.598C783.406 253.694 783.764 253.742 784.098 253.742C784.426 253.742 784.702 253.699 784.926 253.614C785.15 253.525 785.319 253.39 785.433 253.208C785.551 253.023 785.61 252.788 785.61 252.503C785.61 252.122 785.481 251.83 785.225 251.627C784.969 251.424 784.575 251.323 784.045 251.323C783.842 251.323 783.63 251.342 783.409 251.382C783.192 251.421 783.011 251.46 782.865 251.499L782.208 251.147L782.502 247.168H786.736V248.567H783.949L783.805 250.1C783.926 250.075 784.057 250.05 784.2 250.025C784.342 250 784.542 249.988 784.798 249.988Z" fill="white"/>
<path d="M784.709 237.874L784.709 205.064" stroke="#101840" stroke-width="1.82278"/>
<circle cx="784.709" cy="206.887" r="2.27848" transform="rotate(-180 784.709 206.887)" fill="#101840" stroke="#101840" stroke-width="0.911392"/>
<circle cx="286.671" cy="251.545" r="13.2152" transform="rotate(-180 286.671 251.545)" fill="#101840" stroke="#101840" stroke-width="0.911392"/>
<path d="M289.553 253.358H288.613V254.976H287V253.358H283.668V252.209L287.091 247.168H288.613V252.076H289.553V253.358ZM287 252.076V250.751C287 250.627 287.002 250.479 287.005 250.308C287.013 250.137 287.02 249.966 287.027 249.796C287.034 249.625 287.041 249.473 287.048 249.342C287.059 249.206 287.066 249.112 287.07 249.059H287.027C286.959 249.205 286.888 249.347 286.813 249.486C286.738 249.621 286.651 249.764 286.552 249.913L285.12 252.076H287Z" fill="white"/>
<path d="M286.671 237.874L286.671 205.064" stroke="#101840" stroke-width="1.82278"/>
<circle cx="286.671" cy="206.887" r="2.27848" transform="rotate(-180 286.671 206.887)" fill="#101840" stroke="#101840" stroke-width="0.911392"/>
<circle cx="13.6709" cy="81.1143" r="13.2152" transform="rotate(-90 13.6709 81.1143)" fill="#101840" stroke="#101840" stroke-width="0.911392"/>
<path d="M14.9988 84.5449H13.3486V80.0271C13.3486 79.9025 13.3504 79.7494 13.354 79.5679C13.3575 79.3827 13.3629 79.1941 13.37 79.0018C13.3771 78.806 13.3842 78.6298 13.3914 78.4731C13.3522 78.5194 13.2721 78.5995 13.1511 78.7134C13.0336 78.8238 12.9232 78.9235 12.82 79.0125L11.9228 79.7334L11.1271 78.7401L13.6423 76.7376H14.9988V84.5449Z" fill="white"/>
<path d="M23.2405 80.6592L100.709 80.6592" stroke="#101840" stroke-width="1.82278"/>
<circle cx="98.886" cy="81.1145" r="2.27848" transform="rotate(-90 98.886 81.1145)" fill="#101840" stroke="#101840" stroke-width="0.911392"/>
<g clip-path="url(#clip8_1441_6324)">
<path d="M253.25 139V145H245.75V139H253.25ZM254 137.5H245C244.587 137.5 244.25 137.837 244.25 138.25V145.75C244.25 146.163 244.587 146.5 245 146.5H254C254.413 146.5 254.75 146.163 254.75 145.75V143.125L257.75 146.125V137.875L254.75 140.875V138.25C254.75 137.837 254.413 137.5 254 137.5Z" fill="#3366FF"/>
</g>
<defs>
<clipPath id="clip0_1441_6324">
<rect width="16" height="16" fill="white" transform="translate(243.346 178.364)"/>
</clipPath>
<clipPath id="clip1_1441_6324">
<rect width="22.3228" height="22.3228" fill="white" transform="translate(251.003 79.8252)"/>
</clipPath>
<clipPath id="clip2_1441_6324">
<rect width="14.8819" height="14.8819" fill="white" transform="translate(288.208 94.708)"/>
</clipPath>
<clipPath id="clip3_1441_6324">
<rect width="16" height="16" fill="white" transform="translate(242.562 156.433)"/>
</clipPath>
<clipPath id="clip4_1441_6324">
<rect width="15" height="16" fill="white" transform="translate(778 109)"/>
</clipPath>
<clipPath id="clip5_1441_6324">
<rect width="15" height="16" fill="white" transform="translate(778 163)"/>
</clipPath>
<clipPath id="clip6_1441_6324">
<rect width="15" height="16" fill="white" transform="translate(778 136)"/>
</clipPath>
<clipPath id="clip7_1441_6324">
<rect width="15" height="16" fill="white" transform="translate(778 82)"/>
</clipPath>
<clipPath id="clip8_1441_6324">
<rect width="18" height="18" fill="white" transform="translate(242 133)"/>
</clipPath>
</defs>
</svg>
