<svg width="642" height="116" viewBox="0 0 642 116" fill="none" xmlns="http://www.w3.org/2000/svg">
<rect x="341.5" y="58.5" width="15" height="15" rx="3.5" fill="white" stroke="#D8DAE5"/>
<path d="M379.035 65.9893C379.035 66.7594 378.937 67.4613 378.741 68.0947C378.545 68.7236 378.254 69.266 377.866 69.7217C377.483 70.1729 377.007 70.5215 376.438 70.7676C375.868 71.0137 375.207 71.1367 374.455 71.1367C373.68 71.1367 373.004 71.0137 372.425 70.7676C371.851 70.5215 371.372 70.1706 370.989 69.7148C370.611 69.2591 370.326 68.7145 370.135 68.0811C369.948 67.4476 369.854 66.7458 369.854 65.9756C369.854 64.9548 370.023 64.0592 370.36 63.2891C370.698 62.5189 371.208 61.9196 371.892 61.4912C372.58 61.0628 373.441 60.8486 374.476 60.8486C375.465 60.8486 376.296 61.0605 376.971 61.4844C377.65 61.9082 378.162 62.5052 378.509 63.2754C378.86 64.041 379.035 64.9456 379.035 65.9893ZM371.078 65.9893C371.078 66.8369 371.199 67.5706 371.44 68.1904C371.682 68.8102 372.051 69.2887 372.548 69.626C373.049 69.9632 373.685 70.1318 374.455 70.1318C375.23 70.1318 375.863 69.9632 376.355 69.626C376.852 69.2887 377.219 68.8102 377.456 68.1904C377.693 67.5706 377.812 66.8369 377.812 65.9893C377.812 64.6995 377.54 63.6924 376.998 62.9678C376.46 62.2386 375.619 61.874 374.476 61.874C373.701 61.874 373.063 62.0404 372.562 62.373C372.06 62.7057 371.687 63.1797 371.44 63.7949C371.199 64.4056 371.078 65.137 371.078 65.9893ZM384.613 63.3711C385.548 63.3711 386.293 63.6924 386.849 64.335C387.405 64.9775 387.683 65.9437 387.683 67.2334C387.683 68.0856 387.555 68.8011 387.3 69.3799C387.045 69.9587 386.685 70.3962 386.22 70.6924C385.759 70.9886 385.215 71.1367 384.586 71.1367C384.189 71.1367 383.841 71.0843 383.54 70.9795C383.239 70.8747 382.982 70.7334 382.768 70.5557C382.553 70.3779 382.376 70.1842 382.234 69.9746H382.152C382.166 70.1523 382.182 70.3665 382.2 70.6172C382.223 70.8678 382.234 71.0866 382.234 71.2734V74.3496H381.093V63.5078H382.029L382.18 64.6152H382.234C382.38 64.3874 382.558 64.18 382.768 63.9932C382.977 63.8018 383.232 63.6514 383.533 63.542C383.839 63.4281 384.199 63.3711 384.613 63.3711ZM384.415 64.3281C383.896 64.3281 383.476 64.4284 383.157 64.6289C382.843 64.8294 382.613 65.1302 382.467 65.5312C382.321 65.9277 382.243 66.4268 382.234 67.0283V67.2471C382.234 67.8805 382.303 68.416 382.439 68.8535C382.581 69.291 382.811 69.6237 383.13 69.8516C383.453 70.0794 383.886 70.1934 384.429 70.1934C384.894 70.1934 385.281 70.068 385.591 69.8174C385.901 69.5667 386.131 69.2181 386.281 68.7715C386.436 68.3203 386.514 67.8031 386.514 67.2197C386.514 66.3356 386.34 65.6338 385.994 65.1143C385.652 64.5902 385.126 64.3281 384.415 64.3281ZM392.085 70.207C392.272 70.207 392.463 70.1911 392.659 70.1592C392.855 70.1273 393.015 70.0885 393.138 70.043V70.9248C393.006 70.984 392.821 71.0342 392.584 71.0752C392.352 71.1162 392.124 71.1367 391.9 71.1367C391.504 71.1367 391.144 71.0684 390.82 70.9316C390.497 70.7904 390.237 70.5534 390.041 70.2207C389.85 69.888 389.754 69.4277 389.754 68.8398V64.3965H388.688V63.8428L389.761 63.3984L390.212 61.7715H390.896V63.5078H393.09V64.3965H390.896V68.8057C390.896 69.2751 391.003 69.626 391.217 69.8584C391.436 70.0908 391.725 70.207 392.085 70.207ZM395.79 63.5078V71H394.655V63.5078H395.79ZM395.236 60.7051C395.423 60.7051 395.583 60.7666 395.715 60.8896C395.852 61.0081 395.92 61.195 395.92 61.4502C395.92 61.7008 395.852 61.8877 395.715 62.0107C395.583 62.1338 395.423 62.1953 395.236 62.1953C395.04 62.1953 394.876 62.1338 394.744 62.0107C394.617 61.8877 394.553 61.7008 394.553 61.4502C394.553 61.195 394.617 61.0081 394.744 60.8896C394.876 60.7666 395.04 60.7051 395.236 60.7051ZM404.656 67.2402C404.656 67.8555 404.576 68.4046 404.417 68.8877C404.257 69.3708 404.027 69.7786 403.727 70.1113C403.426 70.444 403.061 70.6992 402.633 70.877C402.209 71.0501 401.728 71.1367 401.19 71.1367C400.689 71.1367 400.229 71.0501 399.81 70.877C399.395 70.6992 399.035 70.444 398.729 70.1113C398.429 69.7786 398.194 69.3708 398.025 68.8877C397.861 68.4046 397.779 67.8555 397.779 67.2402C397.779 66.4199 397.918 65.7227 398.196 65.1484C398.474 64.5697 398.871 64.1299 399.386 63.8291C399.905 63.5238 400.523 63.3711 401.238 63.3711C401.922 63.3711 402.519 63.5238 403.029 63.8291C403.544 64.1344 403.943 64.5765 404.226 65.1553C404.513 65.7295 404.656 66.4245 404.656 67.2402ZM398.955 67.2402C398.955 67.8418 399.035 68.3636 399.194 68.8057C399.354 69.2477 399.6 69.5895 399.933 69.8311C400.265 70.0726 400.694 70.1934 401.218 70.1934C401.737 70.1934 402.163 70.0726 402.496 69.8311C402.833 69.5895 403.082 69.2477 403.241 68.8057C403.401 68.3636 403.48 67.8418 403.48 67.2402C403.48 66.6432 403.401 66.1283 403.241 65.6953C403.082 65.2578 402.836 64.9206 402.503 64.6836C402.17 64.4466 401.74 64.3281 401.211 64.3281C400.432 64.3281 399.86 64.5856 399.495 65.1006C399.135 65.6156 398.955 66.3288 398.955 67.2402ZM410.166 63.3711C411.055 63.3711 411.727 63.5898 412.183 64.0273C412.638 64.4603 412.866 65.1576 412.866 66.1191V71H411.745V66.1943C411.745 65.57 411.602 65.1029 411.314 64.793C411.032 64.4831 410.597 64.3281 410.009 64.3281C409.179 64.3281 408.596 64.5628 408.259 65.0322C407.922 65.5016 407.753 66.1829 407.753 67.0762V71H406.618V63.5078H407.534L407.705 64.5879H407.767C407.926 64.3236 408.129 64.1025 408.375 63.9248C408.621 63.7425 408.897 63.6058 409.202 63.5146C409.507 63.4189 409.829 63.3711 410.166 63.3711ZM424.884 71H418.335V70.0498L421.008 67.3359C421.505 66.8346 421.922 66.388 422.259 65.9961C422.601 65.6042 422.86 65.2191 423.038 64.8408C423.216 64.458 423.305 64.0387 423.305 63.583C423.305 63.0179 423.136 62.5872 422.799 62.291C422.466 61.9902 422.026 61.8398 421.479 61.8398C421.001 61.8398 420.577 61.9219 420.208 62.0859C419.839 62.25 419.461 62.4824 419.073 62.7832L418.465 62.0176C418.729 61.7943 419.016 61.596 419.326 61.4229C419.641 61.2497 419.976 61.113 420.331 61.0127C420.691 60.9124 421.074 60.8623 421.479 60.8623C422.095 60.8623 422.626 60.9694 423.072 61.1836C423.519 61.3978 423.863 61.7031 424.104 62.0996C424.351 62.4961 424.474 62.9678 424.474 63.5146C424.474 64.0433 424.369 64.5355 424.159 64.9912C423.95 65.4424 423.656 65.8913 423.277 66.3379C422.899 66.7799 422.457 67.2493 421.951 67.7461L419.777 69.9131V69.9609H424.884V71Z" fill="#474D66"/>
<rect x="449.5" y="58.5" width="15" height="15" rx="3.5" fill="white" stroke="#D8DAE5"/>
<path d="M487.035 65.9893C487.035 66.7594 486.937 67.4613 486.741 68.0947C486.545 68.7236 486.254 69.266 485.866 69.7217C485.483 70.1729 485.007 70.5215 484.438 70.7676C483.868 71.0137 483.207 71.1367 482.455 71.1367C481.68 71.1367 481.004 71.0137 480.425 70.7676C479.851 70.5215 479.372 70.1706 478.989 69.7148C478.611 69.2591 478.326 68.7145 478.135 68.0811C477.948 67.4476 477.854 66.7458 477.854 65.9756C477.854 64.9548 478.023 64.0592 478.36 63.2891C478.698 62.5189 479.208 61.9196 479.892 61.4912C480.58 61.0628 481.441 60.8486 482.476 60.8486C483.465 60.8486 484.296 61.0605 484.971 61.4844C485.65 61.9082 486.162 62.5052 486.509 63.2754C486.86 64.041 487.035 64.9456 487.035 65.9893ZM479.078 65.9893C479.078 66.8369 479.199 67.5706 479.44 68.1904C479.682 68.8102 480.051 69.2887 480.548 69.626C481.049 69.9632 481.685 70.1318 482.455 70.1318C483.23 70.1318 483.863 69.9632 484.355 69.626C484.852 69.2887 485.219 68.8102 485.456 68.1904C485.693 67.5706 485.812 66.8369 485.812 65.9893C485.812 64.6995 485.54 63.6924 484.998 62.9678C484.46 62.2386 483.619 61.874 482.476 61.874C481.701 61.874 481.063 62.0404 480.562 62.373C480.06 62.7057 479.687 63.1797 479.44 63.7949C479.199 64.4056 479.078 65.137 479.078 65.9893ZM492.613 63.3711C493.548 63.3711 494.293 63.6924 494.849 64.335C495.405 64.9775 495.683 65.9437 495.683 67.2334C495.683 68.0856 495.555 68.8011 495.3 69.3799C495.045 69.9587 494.685 70.3962 494.22 70.6924C493.759 70.9886 493.215 71.1367 492.586 71.1367C492.189 71.1367 491.841 71.0843 491.54 70.9795C491.239 70.8747 490.982 70.7334 490.768 70.5557C490.553 70.3779 490.376 70.1842 490.234 69.9746H490.152C490.166 70.1523 490.182 70.3665 490.2 70.6172C490.223 70.8678 490.234 71.0866 490.234 71.2734V74.3496H489.093V63.5078H490.029L490.18 64.6152H490.234C490.38 64.3874 490.558 64.18 490.768 63.9932C490.977 63.8018 491.232 63.6514 491.533 63.542C491.839 63.4281 492.199 63.3711 492.613 63.3711ZM492.415 64.3281C491.896 64.3281 491.476 64.4284 491.157 64.6289C490.843 64.8294 490.613 65.1302 490.467 65.5312C490.321 65.9277 490.243 66.4268 490.234 67.0283V67.2471C490.234 67.8805 490.303 68.416 490.439 68.8535C490.581 69.291 490.811 69.6237 491.13 69.8516C491.453 70.0794 491.886 70.1934 492.429 70.1934C492.894 70.1934 493.281 70.068 493.591 69.8174C493.901 69.5667 494.131 69.2181 494.281 68.7715C494.436 68.3203 494.514 67.8031 494.514 67.2197C494.514 66.3356 494.34 65.6338 493.994 65.1143C493.652 64.5902 493.126 64.3281 492.415 64.3281ZM500.085 70.207C500.272 70.207 500.463 70.1911 500.659 70.1592C500.855 70.1273 501.015 70.0885 501.138 70.043V70.9248C501.006 70.984 500.821 71.0342 500.584 71.0752C500.352 71.1162 500.124 71.1367 499.9 71.1367C499.504 71.1367 499.144 71.0684 498.82 70.9316C498.497 70.7904 498.237 70.5534 498.041 70.2207C497.85 69.888 497.754 69.4277 497.754 68.8398V64.3965H496.688V63.8428L497.761 63.3984L498.212 61.7715H498.896V63.5078H501.09V64.3965H498.896V68.8057C498.896 69.2751 499.003 69.626 499.217 69.8584C499.436 70.0908 499.725 70.207 500.085 70.207ZM503.79 63.5078V71H502.655V63.5078H503.79ZM503.236 60.7051C503.423 60.7051 503.583 60.7666 503.715 60.8896C503.852 61.0081 503.92 61.195 503.92 61.4502C503.92 61.7008 503.852 61.8877 503.715 62.0107C503.583 62.1338 503.423 62.1953 503.236 62.1953C503.04 62.1953 502.876 62.1338 502.744 62.0107C502.617 61.8877 502.553 61.7008 502.553 61.4502C502.553 61.195 502.617 61.0081 502.744 60.8896C502.876 60.7666 503.04 60.7051 503.236 60.7051ZM512.656 67.2402C512.656 67.8555 512.576 68.4046 512.417 68.8877C512.257 69.3708 512.027 69.7786 511.727 70.1113C511.426 70.444 511.061 70.6992 510.633 70.877C510.209 71.0501 509.728 71.1367 509.19 71.1367C508.689 71.1367 508.229 71.0501 507.81 70.877C507.395 70.6992 507.035 70.444 506.729 70.1113C506.429 69.7786 506.194 69.3708 506.025 68.8877C505.861 68.4046 505.779 67.8555 505.779 67.2402C505.779 66.4199 505.918 65.7227 506.196 65.1484C506.474 64.5697 506.871 64.1299 507.386 63.8291C507.905 63.5238 508.523 63.3711 509.238 63.3711C509.922 63.3711 510.519 63.5238 511.029 63.8291C511.544 64.1344 511.943 64.5765 512.226 65.1553C512.513 65.7295 512.656 66.4245 512.656 67.2402ZM506.955 67.2402C506.955 67.8418 507.035 68.3636 507.194 68.8057C507.354 69.2477 507.6 69.5895 507.933 69.8311C508.265 70.0726 508.694 70.1934 509.218 70.1934C509.737 70.1934 510.163 70.0726 510.496 69.8311C510.833 69.5895 511.082 69.2477 511.241 68.8057C511.401 68.3636 511.48 67.8418 511.48 67.2402C511.48 66.6432 511.401 66.1283 511.241 65.6953C511.082 65.2578 510.836 64.9206 510.503 64.6836C510.17 64.4466 509.74 64.3281 509.211 64.3281C508.432 64.3281 507.86 64.5856 507.495 65.1006C507.135 65.6156 506.955 66.3288 506.955 67.2402ZM518.166 63.3711C519.055 63.3711 519.727 63.5898 520.183 64.0273C520.638 64.4603 520.866 65.1576 520.866 66.1191V71H519.745V66.1943C519.745 65.57 519.602 65.1029 519.314 64.793C519.032 64.4831 518.597 64.3281 518.009 64.3281C517.179 64.3281 516.596 64.5628 516.259 65.0322C515.922 65.5016 515.753 66.1829 515.753 67.0762V71H514.618V63.5078H515.534L515.705 64.5879H515.767C515.926 64.3236 516.129 64.1025 516.375 63.9248C516.621 63.7425 516.897 63.6058 517.202 63.5146C517.507 63.4189 517.829 63.3711 518.166 63.3711ZM532.515 63.3369C532.515 63.7835 532.428 64.1709 532.255 64.499C532.082 64.8271 531.84 65.096 531.53 65.3057C531.22 65.5107 530.856 65.6543 530.437 65.7363V65.791C531.229 65.8913 531.824 66.1465 532.221 66.5566C532.622 66.9668 532.822 67.5046 532.822 68.1699C532.822 68.7487 532.686 69.2614 532.412 69.708C532.143 70.1546 531.729 70.5055 531.168 70.7607C530.612 71.0114 529.899 71.1367 529.028 71.1367C528.5 71.1367 528.01 71.0934 527.559 71.0068C527.112 70.9248 526.684 70.7858 526.273 70.5898V69.5234C526.688 69.7285 527.139 69.8903 527.627 70.0088C528.115 70.1227 528.586 70.1797 529.042 70.1797C529.953 70.1797 530.612 69.9997 531.018 69.6396C531.423 69.2751 531.626 68.7783 531.626 68.1494C531.626 67.7165 531.512 67.3678 531.284 67.1035C531.061 66.8346 530.737 66.6387 530.313 66.5156C529.894 66.388 529.388 66.3242 528.796 66.3242H527.798V65.3535H528.803C529.345 65.3535 529.805 65.2738 530.184 65.1143C530.562 64.9548 530.849 64.7314 531.045 64.4443C531.245 64.1527 531.346 63.8086 531.346 63.4121C531.346 62.9062 531.177 62.5166 530.84 62.2432C530.503 61.9652 530.045 61.8262 529.466 61.8262C529.11 61.8262 528.787 61.8626 528.495 61.9355C528.203 62.0085 527.93 62.1087 527.675 62.2363C527.42 62.3639 527.164 62.512 526.909 62.6807L526.335 61.9014C526.7 61.6188 527.144 61.375 527.668 61.1699C528.192 60.9648 528.787 60.8623 529.452 60.8623C530.473 60.8623 531.239 61.0947 531.749 61.5596C532.259 62.0244 532.515 62.6169 532.515 63.3369Z" fill="#474D66"/>
<rect x="557.5" y="58.5" width="15" height="15" rx="3.5" fill="white" stroke="#D8DAE5"/>
<path d="M595.035 65.9893C595.035 66.7594 594.937 67.4613 594.741 68.0947C594.545 68.7236 594.254 69.266 593.866 69.7217C593.483 70.1729 593.007 70.5215 592.438 70.7676C591.868 71.0137 591.207 71.1367 590.455 71.1367C589.68 71.1367 589.004 71.0137 588.425 70.7676C587.851 70.5215 587.372 70.1706 586.989 69.7148C586.611 69.2591 586.326 68.7145 586.135 68.0811C585.948 67.4476 585.854 66.7458 585.854 65.9756C585.854 64.9548 586.023 64.0592 586.36 63.2891C586.698 62.5189 587.208 61.9196 587.892 61.4912C588.58 61.0628 589.441 60.8486 590.476 60.8486C591.465 60.8486 592.296 61.0605 592.971 61.4844C593.65 61.9082 594.162 62.5052 594.509 63.2754C594.86 64.041 595.035 64.9456 595.035 65.9893ZM587.078 65.9893C587.078 66.8369 587.199 67.5706 587.44 68.1904C587.682 68.8102 588.051 69.2887 588.548 69.626C589.049 69.9632 589.685 70.1318 590.455 70.1318C591.23 70.1318 591.863 69.9632 592.355 69.626C592.852 69.2887 593.219 68.8102 593.456 68.1904C593.693 67.5706 593.812 66.8369 593.812 65.9893C593.812 64.6995 593.54 63.6924 592.998 62.9678C592.46 62.2386 591.619 61.874 590.476 61.874C589.701 61.874 589.063 62.0404 588.562 62.373C588.06 62.7057 587.687 63.1797 587.44 63.7949C587.199 64.4056 587.078 65.137 587.078 65.9893ZM600.613 63.3711C601.548 63.3711 602.293 63.6924 602.849 64.335C603.405 64.9775 603.683 65.9437 603.683 67.2334C603.683 68.0856 603.555 68.8011 603.3 69.3799C603.045 69.9587 602.685 70.3962 602.22 70.6924C601.759 70.9886 601.215 71.1367 600.586 71.1367C600.189 71.1367 599.841 71.0843 599.54 70.9795C599.239 70.8747 598.982 70.7334 598.768 70.5557C598.553 70.3779 598.376 70.1842 598.234 69.9746H598.152C598.166 70.1523 598.182 70.3665 598.2 70.6172C598.223 70.8678 598.234 71.0866 598.234 71.2734V74.3496H597.093V63.5078H598.029L598.18 64.6152H598.234C598.38 64.3874 598.558 64.18 598.768 63.9932C598.977 63.8018 599.232 63.6514 599.533 63.542C599.839 63.4281 600.199 63.3711 600.613 63.3711ZM600.415 64.3281C599.896 64.3281 599.476 64.4284 599.157 64.6289C598.843 64.8294 598.613 65.1302 598.467 65.5312C598.321 65.9277 598.243 66.4268 598.234 67.0283V67.2471C598.234 67.8805 598.303 68.416 598.439 68.8535C598.581 69.291 598.811 69.6237 599.13 69.8516C599.453 70.0794 599.886 70.1934 600.429 70.1934C600.894 70.1934 601.281 70.068 601.591 69.8174C601.901 69.5667 602.131 69.2181 602.281 68.7715C602.436 68.3203 602.514 67.8031 602.514 67.2197C602.514 66.3356 602.34 65.6338 601.994 65.1143C601.652 64.5902 601.126 64.3281 600.415 64.3281ZM608.085 70.207C608.272 70.207 608.463 70.1911 608.659 70.1592C608.855 70.1273 609.015 70.0885 609.138 70.043V70.9248C609.006 70.984 608.821 71.0342 608.584 71.0752C608.352 71.1162 608.124 71.1367 607.9 71.1367C607.504 71.1367 607.144 71.0684 606.82 70.9316C606.497 70.7904 606.237 70.5534 606.041 70.2207C605.85 69.888 605.754 69.4277 605.754 68.8398V64.3965H604.688V63.8428L605.761 63.3984L606.212 61.7715H606.896V63.5078H609.09V64.3965H606.896V68.8057C606.896 69.2751 607.003 69.626 607.217 69.8584C607.436 70.0908 607.725 70.207 608.085 70.207ZM611.79 63.5078V71H610.655V63.5078H611.79ZM611.236 60.7051C611.423 60.7051 611.583 60.7666 611.715 60.8896C611.852 61.0081 611.92 61.195 611.92 61.4502C611.92 61.7008 611.852 61.8877 611.715 62.0107C611.583 62.1338 611.423 62.1953 611.236 62.1953C611.04 62.1953 610.876 62.1338 610.744 62.0107C610.617 61.8877 610.553 61.7008 610.553 61.4502C610.553 61.195 610.617 61.0081 610.744 60.8896C610.876 60.7666 611.04 60.7051 611.236 60.7051ZM620.656 67.2402C620.656 67.8555 620.576 68.4046 620.417 68.8877C620.257 69.3708 620.027 69.7786 619.727 70.1113C619.426 70.444 619.061 70.6992 618.633 70.877C618.209 71.0501 617.728 71.1367 617.19 71.1367C616.689 71.1367 616.229 71.0501 615.81 70.877C615.395 70.6992 615.035 70.444 614.729 70.1113C614.429 69.7786 614.194 69.3708 614.025 68.8877C613.861 68.4046 613.779 67.8555 613.779 67.2402C613.779 66.4199 613.918 65.7227 614.196 65.1484C614.474 64.5697 614.871 64.1299 615.386 63.8291C615.905 63.5238 616.523 63.3711 617.238 63.3711C617.922 63.3711 618.519 63.5238 619.029 63.8291C619.544 64.1344 619.943 64.5765 620.226 65.1553C620.513 65.7295 620.656 66.4245 620.656 67.2402ZM614.955 67.2402C614.955 67.8418 615.035 68.3636 615.194 68.8057C615.354 69.2477 615.6 69.5895 615.933 69.8311C616.265 70.0726 616.694 70.1934 617.218 70.1934C617.737 70.1934 618.163 70.0726 618.496 69.8311C618.833 69.5895 619.082 69.2477 619.241 68.8057C619.401 68.3636 619.48 67.8418 619.48 67.2402C619.48 66.6432 619.401 66.1283 619.241 65.6953C619.082 65.2578 618.836 64.9206 618.503 64.6836C618.17 64.4466 617.74 64.3281 617.211 64.3281C616.432 64.3281 615.86 64.5856 615.495 65.1006C615.135 65.6156 614.955 66.3288 614.955 67.2402ZM626.166 63.3711C627.055 63.3711 627.727 63.5898 628.183 64.0273C628.638 64.4603 628.866 65.1576 628.866 66.1191V71H627.745V66.1943C627.745 65.57 627.602 65.1029 627.314 64.793C627.032 64.4831 626.597 64.3281 626.009 64.3281C625.179 64.3281 624.596 64.5628 624.259 65.0322C623.922 65.5016 623.753 66.1829 623.753 67.0762V71H622.618V63.5078H623.534L623.705 64.5879H623.767C623.926 64.3236 624.129 64.1025 624.375 63.9248C624.621 63.7425 624.897 63.6058 625.202 63.5146C625.507 63.4189 625.829 63.3711 626.166 63.3711ZM641.383 68.6826H639.886V71H638.778V68.6826H633.945V67.7256L638.703 60.9512H639.886V67.6572H641.383V68.6826ZM638.778 67.6572V64.3896C638.778 64.139 638.781 63.9134 638.785 63.7129C638.79 63.5078 638.797 63.3187 638.806 63.1455C638.815 62.9678 638.822 62.7992 638.826 62.6396C638.835 62.4801 638.842 62.3229 638.847 62.168H638.792C638.705 62.3503 638.605 62.5439 638.491 62.749C638.382 62.9495 638.27 63.1296 638.156 63.2891L635.073 67.6572H638.778Z" fill="#474D66"/>
<rect x="0.5" y="34.5" width="15" height="15" rx="3.5" fill="white" stroke="#D8DAE5"/>
<path d="M38.0352 41.9893C38.0352 42.7594 37.9372 43.4613 37.7412 44.0947C37.5452 44.7236 37.2536 45.266 36.8662 45.7217C36.4834 46.1729 36.0072 46.5215 35.4375 46.7676C34.8678 47.0137 34.207 47.1367 33.4551 47.1367C32.6803 47.1367 32.0036 47.0137 31.4248 46.7676C30.8506 46.5215 30.3721 46.1706 29.9893 45.7148C29.611 45.2591 29.3262 44.7145 29.1348 44.0811C28.9479 43.4476 28.8545 42.7458 28.8545 41.9756C28.8545 40.9548 29.0231 40.0592 29.3604 39.2891C29.6976 38.5189 30.208 37.9196 30.8916 37.4912C31.5798 37.0628 32.4411 36.8486 33.4756 36.8486C34.4645 36.8486 35.2962 37.0605 35.9707 37.4844C36.6497 37.9082 37.1624 38.5052 37.5088 39.2754C37.8597 40.041 38.0352 40.9456 38.0352 41.9893ZM30.0781 41.9893C30.0781 42.8369 30.1989 43.5706 30.4404 44.1904C30.682 44.8102 31.0511 45.2887 31.5479 45.626C32.0492 45.9632 32.6849 46.1318 33.4551 46.1318C34.2298 46.1318 34.8633 45.9632 35.3555 45.626C35.8522 45.2887 36.2191 44.8102 36.4561 44.1904C36.693 43.5706 36.8115 42.8369 36.8115 41.9893C36.8115 40.6995 36.5404 39.6924 35.998 38.9678C35.4603 38.2386 34.6195 37.874 33.4756 37.874C32.7008 37.874 32.0628 38.0404 31.5615 38.373C31.0602 38.7057 30.6865 39.1797 30.4404 39.7949C30.1989 40.4056 30.0781 41.137 30.0781 41.9893ZM43.6133 39.3711C44.5475 39.3711 45.2926 39.6924 45.8486 40.335C46.4046 40.9775 46.6826 41.9437 46.6826 43.2334C46.6826 44.0856 46.555 44.8011 46.2998 45.3799C46.0446 45.9587 45.6846 46.3962 45.2197 46.6924C44.7594 46.9886 44.2148 47.1367 43.5859 47.1367C43.1895 47.1367 42.8408 47.0843 42.54 46.9795C42.2393 46.8747 41.9818 46.7334 41.7676 46.5557C41.5534 46.3779 41.3757 46.1842 41.2344 45.9746H41.1523C41.166 46.1523 41.182 46.3665 41.2002 46.6172C41.223 46.8678 41.2344 47.0866 41.2344 47.2734V50.3496H40.0928V39.5078H41.0293L41.1797 40.6152H41.2344C41.3802 40.3874 41.5579 40.18 41.7676 39.9932C41.9772 39.8018 42.2324 39.6514 42.5332 39.542C42.8385 39.4281 43.1986 39.3711 43.6133 39.3711ZM43.415 40.3281C42.8955 40.3281 42.4762 40.4284 42.1572 40.6289C41.8428 40.8294 41.6126 41.1302 41.4668 41.5312C41.321 41.9277 41.2435 42.4268 41.2344 43.0283V43.2471C41.2344 43.8805 41.3027 44.416 41.4395 44.8535C41.5807 45.291 41.8109 45.6237 42.1299 45.8516C42.4535 46.0794 42.8864 46.1934 43.4287 46.1934C43.8936 46.1934 44.2809 46.068 44.5908 45.8174C44.9007 45.5667 45.1309 45.2181 45.2812 44.7715C45.4362 44.3203 45.5137 43.8031 45.5137 43.2197C45.5137 42.3356 45.3405 41.6338 44.9941 41.1143C44.6523 40.5902 44.126 40.3281 43.415 40.3281ZM51.085 46.207C51.2718 46.207 51.4632 46.1911 51.6592 46.1592C51.8551 46.1273 52.0146 46.0885 52.1377 46.043V46.9248C52.0055 46.984 51.821 47.0342 51.584 47.0752C51.3516 47.1162 51.1237 47.1367 50.9004 47.1367C50.5039 47.1367 50.1439 47.0684 49.8203 46.9316C49.4967 46.7904 49.237 46.5534 49.041 46.2207C48.8496 45.888 48.7539 45.4277 48.7539 44.8398V40.3965H47.6875V39.8428L48.7607 39.3984L49.2119 37.7715H49.8955V39.5078H52.0898V40.3965H49.8955V44.8057C49.8955 45.2751 50.0026 45.626 50.2168 45.8584C50.4355 46.0908 50.7249 46.207 51.085 46.207ZM54.79 39.5078V47H53.6553V39.5078H54.79ZM54.2363 36.7051C54.4232 36.7051 54.5827 36.7666 54.7148 36.8896C54.8516 37.0081 54.9199 37.195 54.9199 37.4502C54.9199 37.7008 54.8516 37.8877 54.7148 38.0107C54.5827 38.1338 54.4232 38.1953 54.2363 38.1953C54.0404 38.1953 53.8763 38.1338 53.7441 38.0107C53.6165 37.8877 53.5527 37.7008 53.5527 37.4502C53.5527 37.195 53.6165 37.0081 53.7441 36.8896C53.8763 36.7666 54.0404 36.7051 54.2363 36.7051ZM63.6562 43.2402C63.6562 43.8555 63.5765 44.4046 63.417 44.8877C63.2575 45.3708 63.0273 45.7786 62.7266 46.1113C62.4258 46.444 62.0612 46.6992 61.6328 46.877C61.209 47.0501 60.7282 47.1367 60.1904 47.1367C59.6891 47.1367 59.2288 47.0501 58.8096 46.877C58.3949 46.6992 58.0348 46.444 57.7295 46.1113C57.4287 45.7786 57.194 45.3708 57.0254 44.8877C56.8613 44.4046 56.7793 43.8555 56.7793 43.2402C56.7793 42.4199 56.9183 41.7227 57.1963 41.1484C57.4743 40.5697 57.8708 40.1299 58.3857 39.8291C58.9053 39.5238 59.5228 39.3711 60.2383 39.3711C60.9219 39.3711 61.5189 39.5238 62.0293 39.8291C62.5443 40.1344 62.943 40.5765 63.2256 41.1553C63.5127 41.7295 63.6562 42.4245 63.6562 43.2402ZM57.9551 43.2402C57.9551 43.8418 58.0348 44.3636 58.1943 44.8057C58.3538 45.2477 58.5999 45.5895 58.9326 45.8311C59.2653 46.0726 59.6937 46.1934 60.2178 46.1934C60.7373 46.1934 61.1634 46.0726 61.4961 45.8311C61.8333 45.5895 62.0817 45.2477 62.2412 44.8057C62.4007 44.3636 62.4805 43.8418 62.4805 43.2402C62.4805 42.6432 62.4007 42.1283 62.2412 41.6953C62.0817 41.2578 61.8356 40.9206 61.5029 40.6836C61.1702 40.4466 60.7396 40.3281 60.2109 40.3281C59.4316 40.3281 58.8597 40.5856 58.4951 41.1006C58.1351 41.6156 57.9551 42.3288 57.9551 43.2402ZM69.166 39.3711C70.0547 39.3711 70.7269 39.5898 71.1826 40.0273C71.6383 40.4603 71.8662 41.1576 71.8662 42.1191V47H70.7451V42.1943C70.7451 41.57 70.6016 41.1029 70.3145 40.793C70.0319 40.4831 69.5967 40.3281 69.0088 40.3281C68.1794 40.3281 67.596 40.5628 67.2588 41.0322C66.9215 41.5016 66.7529 42.1829 66.7529 43.0762V47H65.6182V39.5078H66.5342L66.7051 40.5879H66.7666C66.9261 40.3236 67.1289 40.1025 67.375 39.9248C67.6211 39.7425 67.8968 39.6058 68.2021 39.5146C68.5075 39.4189 68.8288 39.3711 69.166 39.3711ZM83.8838 47H77.335V46.0498L80.0078 43.3359C80.5046 42.8346 80.9215 42.388 81.2588 41.9961C81.6006 41.6042 81.8604 41.2191 82.0381 40.8408C82.2158 40.458 82.3047 40.0387 82.3047 39.583C82.3047 39.0179 82.1361 38.5872 81.7988 38.291C81.4661 37.9902 81.0264 37.8398 80.4795 37.8398C80.001 37.8398 79.5771 37.9219 79.208 38.0859C78.8389 38.25 78.4606 38.4824 78.0732 38.7832L77.4648 38.0176C77.7292 37.7943 78.0163 37.596 78.3262 37.4229C78.6406 37.2497 78.9756 37.113 79.3311 37.0127C79.6911 36.9124 80.0739 36.8623 80.4795 36.8623C81.0947 36.8623 81.6257 36.9694 82.0723 37.1836C82.5189 37.3978 82.863 37.7031 83.1045 38.0996C83.3506 38.4961 83.4736 38.9678 83.4736 39.5146C83.4736 40.0433 83.3688 40.5355 83.1592 40.9912C82.9495 41.4424 82.6556 41.8913 82.2773 42.3379C81.8991 42.7799 81.457 43.2493 80.9512 43.7461L78.7773 45.9131V45.9609H83.8838V47Z" fill="#474D66"/>
<rect x="0.5" y="66.5" width="15" height="15" rx="3.5" fill="white" stroke="#D8DAE5"/>
<path d="M38.0352 73.9893C38.0352 74.7594 37.9372 75.4613 37.7412 76.0947C37.5452 76.7236 37.2536 77.266 36.8662 77.7217C36.4834 78.1729 36.0072 78.5215 35.4375 78.7676C34.8678 79.0137 34.207 79.1367 33.4551 79.1367C32.6803 79.1367 32.0036 79.0137 31.4248 78.7676C30.8506 78.5215 30.3721 78.1706 29.9893 77.7148C29.611 77.2591 29.3262 76.7145 29.1348 76.0811C28.9479 75.4476 28.8545 74.7458 28.8545 73.9756C28.8545 72.9548 29.0231 72.0592 29.3604 71.2891C29.6976 70.5189 30.208 69.9196 30.8916 69.4912C31.5798 69.0628 32.4411 68.8486 33.4756 68.8486C34.4645 68.8486 35.2962 69.0605 35.9707 69.4844C36.6497 69.9082 37.1624 70.5052 37.5088 71.2754C37.8597 72.041 38.0352 72.9456 38.0352 73.9893ZM30.0781 73.9893C30.0781 74.8369 30.1989 75.5706 30.4404 76.1904C30.682 76.8102 31.0511 77.2887 31.5479 77.626C32.0492 77.9632 32.6849 78.1318 33.4551 78.1318C34.2298 78.1318 34.8633 77.9632 35.3555 77.626C35.8522 77.2887 36.2191 76.8102 36.4561 76.1904C36.693 75.5706 36.8115 74.8369 36.8115 73.9893C36.8115 72.6995 36.5404 71.6924 35.998 70.9678C35.4603 70.2386 34.6195 69.874 33.4756 69.874C32.7008 69.874 32.0628 70.0404 31.5615 70.373C31.0602 70.7057 30.6865 71.1797 30.4404 71.7949C30.1989 72.4056 30.0781 73.137 30.0781 73.9893ZM43.6133 71.3711C44.5475 71.3711 45.2926 71.6924 45.8486 72.335C46.4046 72.9775 46.6826 73.9437 46.6826 75.2334C46.6826 76.0856 46.555 76.8011 46.2998 77.3799C46.0446 77.9587 45.6846 78.3962 45.2197 78.6924C44.7594 78.9886 44.2148 79.1367 43.5859 79.1367C43.1895 79.1367 42.8408 79.0843 42.54 78.9795C42.2393 78.8747 41.9818 78.7334 41.7676 78.5557C41.5534 78.3779 41.3757 78.1842 41.2344 77.9746H41.1523C41.166 78.1523 41.182 78.3665 41.2002 78.6172C41.223 78.8678 41.2344 79.0866 41.2344 79.2734V82.3496H40.0928V71.5078H41.0293L41.1797 72.6152H41.2344C41.3802 72.3874 41.5579 72.18 41.7676 71.9932C41.9772 71.8018 42.2324 71.6514 42.5332 71.542C42.8385 71.4281 43.1986 71.3711 43.6133 71.3711ZM43.415 72.3281C42.8955 72.3281 42.4762 72.4284 42.1572 72.6289C41.8428 72.8294 41.6126 73.1302 41.4668 73.5312C41.321 73.9277 41.2435 74.4268 41.2344 75.0283V75.2471C41.2344 75.8805 41.3027 76.416 41.4395 76.8535C41.5807 77.291 41.8109 77.6237 42.1299 77.8516C42.4535 78.0794 42.8864 78.1934 43.4287 78.1934C43.8936 78.1934 44.2809 78.068 44.5908 77.8174C44.9007 77.5667 45.1309 77.2181 45.2812 76.7715C45.4362 76.3203 45.5137 75.8031 45.5137 75.2197C45.5137 74.3356 45.3405 73.6338 44.9941 73.1143C44.6523 72.5902 44.126 72.3281 43.415 72.3281ZM51.085 78.207C51.2718 78.207 51.4632 78.1911 51.6592 78.1592C51.8551 78.1273 52.0146 78.0885 52.1377 78.043V78.9248C52.0055 78.984 51.821 79.0342 51.584 79.0752C51.3516 79.1162 51.1237 79.1367 50.9004 79.1367C50.5039 79.1367 50.1439 79.0684 49.8203 78.9316C49.4967 78.7904 49.237 78.5534 49.041 78.2207C48.8496 77.888 48.7539 77.4277 48.7539 76.8398V72.3965H47.6875V71.8428L48.7607 71.3984L49.2119 69.7715H49.8955V71.5078H52.0898V72.3965H49.8955V76.8057C49.8955 77.2751 50.0026 77.626 50.2168 77.8584C50.4355 78.0908 50.7249 78.207 51.085 78.207ZM54.79 71.5078V79H53.6553V71.5078H54.79ZM54.2363 68.7051C54.4232 68.7051 54.5827 68.7666 54.7148 68.8896C54.8516 69.0081 54.9199 69.195 54.9199 69.4502C54.9199 69.7008 54.8516 69.8877 54.7148 70.0107C54.5827 70.1338 54.4232 70.1953 54.2363 70.1953C54.0404 70.1953 53.8763 70.1338 53.7441 70.0107C53.6165 69.8877 53.5527 69.7008 53.5527 69.4502C53.5527 69.195 53.6165 69.0081 53.7441 68.8896C53.8763 68.7666 54.0404 68.7051 54.2363 68.7051ZM63.6562 75.2402C63.6562 75.8555 63.5765 76.4046 63.417 76.8877C63.2575 77.3708 63.0273 77.7786 62.7266 78.1113C62.4258 78.444 62.0612 78.6992 61.6328 78.877C61.209 79.0501 60.7282 79.1367 60.1904 79.1367C59.6891 79.1367 59.2288 79.0501 58.8096 78.877C58.3949 78.6992 58.0348 78.444 57.7295 78.1113C57.4287 77.7786 57.194 77.3708 57.0254 76.8877C56.8613 76.4046 56.7793 75.8555 56.7793 75.2402C56.7793 74.4199 56.9183 73.7227 57.1963 73.1484C57.4743 72.5697 57.8708 72.1299 58.3857 71.8291C58.9053 71.5238 59.5228 71.3711 60.2383 71.3711C60.9219 71.3711 61.5189 71.5238 62.0293 71.8291C62.5443 72.1344 62.943 72.5765 63.2256 73.1553C63.5127 73.7295 63.6562 74.4245 63.6562 75.2402ZM57.9551 75.2402C57.9551 75.8418 58.0348 76.3636 58.1943 76.8057C58.3538 77.2477 58.5999 77.5895 58.9326 77.8311C59.2653 78.0726 59.6937 78.1934 60.2178 78.1934C60.7373 78.1934 61.1634 78.0726 61.4961 77.8311C61.8333 77.5895 62.0817 77.2477 62.2412 76.8057C62.4007 76.3636 62.4805 75.8418 62.4805 75.2402C62.4805 74.6432 62.4007 74.1283 62.2412 73.6953C62.0817 73.2578 61.8356 72.9206 61.5029 72.6836C61.1702 72.4466 60.7396 72.3281 60.2109 72.3281C59.4316 72.3281 58.8597 72.5856 58.4951 73.1006C58.1351 73.6156 57.9551 74.3288 57.9551 75.2402ZM69.166 71.3711C70.0547 71.3711 70.7269 71.5898 71.1826 72.0273C71.6383 72.4603 71.8662 73.1576 71.8662 74.1191V79H70.7451V74.1943C70.7451 73.57 70.6016 73.1029 70.3145 72.793C70.0319 72.4831 69.5967 72.3281 69.0088 72.3281C68.1794 72.3281 67.596 72.5628 67.2588 73.0322C66.9215 73.5016 66.7529 74.1829 66.7529 75.0762V79H65.6182V71.5078H66.5342L66.7051 72.5879H66.7666C66.9261 72.3236 67.1289 72.1025 67.375 71.9248C67.6211 71.7425 67.8968 71.6058 68.2021 71.5146C68.5075 71.4189 68.8288 71.3711 69.166 71.3711ZM83.5146 71.3369C83.5146 71.7835 83.4281 72.1709 83.2549 72.499C83.0817 72.8271 82.8402 73.096 82.5303 73.3057C82.2204 73.5107 81.8558 73.6543 81.4365 73.7363V73.791C82.2295 73.8913 82.8242 74.1465 83.2207 74.5566C83.6217 74.9668 83.8223 75.5046 83.8223 76.1699C83.8223 76.7487 83.6855 77.2614 83.4121 77.708C83.1432 78.1546 82.7285 78.5055 82.168 78.7607C81.612 79.0114 80.8988 79.1367 80.0283 79.1367C79.4997 79.1367 79.0098 79.0934 78.5586 79.0068C78.112 78.9248 77.6836 78.7858 77.2734 78.5898V77.5234C77.6882 77.7285 78.1393 77.8903 78.627 78.0088C79.1146 78.1227 79.5863 78.1797 80.042 78.1797C80.9535 78.1797 81.612 77.9997 82.0176 77.6396C82.4232 77.2751 82.626 76.7783 82.626 76.1494C82.626 75.7165 82.512 75.3678 82.2842 75.1035C82.0609 74.8346 81.7373 74.6387 81.3135 74.5156C80.8942 74.388 80.3883 74.3242 79.7959 74.3242H78.7979V73.3535H79.8027C80.3451 73.3535 80.8053 73.2738 81.1836 73.1143C81.5618 72.9548 81.849 72.7314 82.0449 72.4443C82.2454 72.1527 82.3457 71.8086 82.3457 71.4121C82.3457 70.9062 82.1771 70.5166 81.8398 70.2432C81.5026 69.9652 81.0446 69.8262 80.4658 69.8262C80.1104 69.8262 79.7868 69.8626 79.4951 69.9355C79.2035 70.0085 78.93 70.1087 78.6748 70.2363C78.4196 70.3639 78.1644 70.512 77.9092 70.6807L77.335 69.9014C77.6995 69.6188 78.1439 69.375 78.668 69.1699C79.1921 68.9648 79.7868 68.8623 80.4521 68.8623C81.473 68.8623 82.2386 69.0947 82.749 69.5596C83.2594 70.0244 83.5146 70.6169 83.5146 71.3369Z" fill="#474D66"/>
<rect x="0.5" y="98.5" width="15" height="15" rx="3.5" fill="white" stroke="#D8DAE5"/>
<path d="M38.0352 105.989C38.0352 106.759 37.9372 107.461 37.7412 108.095C37.5452 108.724 37.2536 109.266 36.8662 109.722C36.4834 110.173 36.0072 110.521 35.4375 110.768C34.8678 111.014 34.207 111.137 33.4551 111.137C32.6803 111.137 32.0036 111.014 31.4248 110.768C30.8506 110.521 30.3721 110.171 29.9893 109.715C29.611 109.259 29.3262 108.715 29.1348 108.081C28.9479 107.448 28.8545 106.746 28.8545 105.976C28.8545 104.955 29.0231 104.059 29.3604 103.289C29.6976 102.519 30.208 101.92 30.8916 101.491C31.5798 101.063 32.4411 100.849 33.4756 100.849C34.4645 100.849 35.2962 101.061 35.9707 101.484C36.6497 101.908 37.1624 102.505 37.5088 103.275C37.8597 104.041 38.0352 104.946 38.0352 105.989ZM30.0781 105.989C30.0781 106.837 30.1989 107.571 30.4404 108.19C30.682 108.81 31.0511 109.289 31.5479 109.626C32.0492 109.963 32.6849 110.132 33.4551 110.132C34.2298 110.132 34.8633 109.963 35.3555 109.626C35.8522 109.289 36.2191 108.81 36.4561 108.19C36.693 107.571 36.8115 106.837 36.8115 105.989C36.8115 104.7 36.5404 103.692 35.998 102.968C35.4603 102.239 34.6195 101.874 33.4756 101.874C32.7008 101.874 32.0628 102.04 31.5615 102.373C31.0602 102.706 30.6865 103.18 30.4404 103.795C30.1989 104.406 30.0781 105.137 30.0781 105.989ZM43.6133 103.371C44.5475 103.371 45.2926 103.692 45.8486 104.335C46.4046 104.978 46.6826 105.944 46.6826 107.233C46.6826 108.086 46.555 108.801 46.2998 109.38C46.0446 109.959 45.6846 110.396 45.2197 110.692C44.7594 110.989 44.2148 111.137 43.5859 111.137C43.1895 111.137 42.8408 111.084 42.54 110.979C42.2393 110.875 41.9818 110.733 41.7676 110.556C41.5534 110.378 41.3757 110.184 41.2344 109.975H41.1523C41.166 110.152 41.182 110.367 41.2002 110.617C41.223 110.868 41.2344 111.087 41.2344 111.273V114.35H40.0928V103.508H41.0293L41.1797 104.615H41.2344C41.3802 104.387 41.5579 104.18 41.7676 103.993C41.9772 103.802 42.2324 103.651 42.5332 103.542C42.8385 103.428 43.1986 103.371 43.6133 103.371ZM43.415 104.328C42.8955 104.328 42.4762 104.428 42.1572 104.629C41.8428 104.829 41.6126 105.13 41.4668 105.531C41.321 105.928 41.2435 106.427 41.2344 107.028V107.247C41.2344 107.881 41.3027 108.416 41.4395 108.854C41.5807 109.291 41.8109 109.624 42.1299 109.852C42.4535 110.079 42.8864 110.193 43.4287 110.193C43.8936 110.193 44.2809 110.068 44.5908 109.817C44.9007 109.567 45.1309 109.218 45.2812 108.771C45.4362 108.32 45.5137 107.803 45.5137 107.22C45.5137 106.336 45.3405 105.634 44.9941 105.114C44.6523 104.59 44.126 104.328 43.415 104.328ZM51.085 110.207C51.2718 110.207 51.4632 110.191 51.6592 110.159C51.8551 110.127 52.0146 110.089 52.1377 110.043V110.925C52.0055 110.984 51.821 111.034 51.584 111.075C51.3516 111.116 51.1237 111.137 50.9004 111.137C50.5039 111.137 50.1439 111.068 49.8203 110.932C49.4967 110.79 49.237 110.553 49.041 110.221C48.8496 109.888 48.7539 109.428 48.7539 108.84V104.396H47.6875V103.843L48.7607 103.398L49.2119 101.771H49.8955V103.508H52.0898V104.396H49.8955V108.806C49.8955 109.275 50.0026 109.626 50.2168 109.858C50.4355 110.091 50.7249 110.207 51.085 110.207ZM54.79 103.508V111H53.6553V103.508H54.79ZM54.2363 100.705C54.4232 100.705 54.5827 100.767 54.7148 100.89C54.8516 101.008 54.9199 101.195 54.9199 101.45C54.9199 101.701 54.8516 101.888 54.7148 102.011C54.5827 102.134 54.4232 102.195 54.2363 102.195C54.0404 102.195 53.8763 102.134 53.7441 102.011C53.6165 101.888 53.5527 101.701 53.5527 101.45C53.5527 101.195 53.6165 101.008 53.7441 100.89C53.8763 100.767 54.0404 100.705 54.2363 100.705ZM63.6562 107.24C63.6562 107.855 63.5765 108.405 63.417 108.888C63.2575 109.371 63.0273 109.779 62.7266 110.111C62.4258 110.444 62.0612 110.699 61.6328 110.877C61.209 111.05 60.7282 111.137 60.1904 111.137C59.6891 111.137 59.2288 111.05 58.8096 110.877C58.3949 110.699 58.0348 110.444 57.7295 110.111C57.4287 109.779 57.194 109.371 57.0254 108.888C56.8613 108.405 56.7793 107.855 56.7793 107.24C56.7793 106.42 56.9183 105.723 57.1963 105.148C57.4743 104.57 57.8708 104.13 58.3857 103.829C58.9053 103.524 59.5228 103.371 60.2383 103.371C60.9219 103.371 61.5189 103.524 62.0293 103.829C62.5443 104.134 62.943 104.576 63.2256 105.155C63.5127 105.729 63.6562 106.424 63.6562 107.24ZM57.9551 107.24C57.9551 107.842 58.0348 108.364 58.1943 108.806C58.3538 109.248 58.5999 109.59 58.9326 109.831C59.2653 110.073 59.6937 110.193 60.2178 110.193C60.7373 110.193 61.1634 110.073 61.4961 109.831C61.8333 109.59 62.0817 109.248 62.2412 108.806C62.4007 108.364 62.4805 107.842 62.4805 107.24C62.4805 106.643 62.4007 106.128 62.2412 105.695C62.0817 105.258 61.8356 104.921 61.5029 104.684C61.1702 104.447 60.7396 104.328 60.2109 104.328C59.4316 104.328 58.8597 104.586 58.4951 105.101C58.1351 105.616 57.9551 106.329 57.9551 107.24ZM69.166 103.371C70.0547 103.371 70.7269 103.59 71.1826 104.027C71.6383 104.46 71.8662 105.158 71.8662 106.119V111H70.7451V106.194C70.7451 105.57 70.6016 105.103 70.3145 104.793C70.0319 104.483 69.5967 104.328 69.0088 104.328C68.1794 104.328 67.596 104.563 67.2588 105.032C66.9215 105.502 66.7529 106.183 66.7529 107.076V111H65.6182V103.508H66.5342L66.7051 104.588H66.7666C66.9261 104.324 67.1289 104.103 67.375 103.925C67.6211 103.743 67.8968 103.606 68.2021 103.515C68.5075 103.419 68.8288 103.371 69.166 103.371ZM84.3828 108.683H82.8857V111H81.7783V108.683H76.9453V107.726L81.7031 100.951H82.8857V107.657H84.3828V108.683ZM81.7783 107.657V104.39C81.7783 104.139 81.7806 103.913 81.7852 103.713C81.7897 103.508 81.7965 103.319 81.8057 103.146C81.8148 102.968 81.8216 102.799 81.8262 102.64C81.8353 102.48 81.8421 102.323 81.8467 102.168H81.792C81.7054 102.35 81.6051 102.544 81.4912 102.749C81.3818 102.95 81.2702 103.13 81.1562 103.289L78.0732 107.657H81.7783Z" fill="#474D66"/>
<rect y="2" width="16" height="16" rx="4" fill="#3366FF"/>
<path d="M12 6.5C11.72 6.5 11.47 6.61 11.29 6.79L7 11.09L4.71 8.79C4.53 8.61 4.28 8.5 4 8.5C3.45 8.5 3 8.95 3 9.5C3 9.78 3.11 10.03 3.29 10.21L6.29 13.21C6.47 13.39 6.72 13.5 7 13.5C7.28 13.5 7.53 13.39 7.71 13.21L12.71 8.21C12.89 8.03 13 7.78 13 7.5C13 6.95 12.55 6.5 12 6.5Z" fill="white"/>
<path d="M38.0352 9.98926C38.0352 10.7594 37.9372 11.4613 37.7412 12.0947C37.5452 12.7236 37.2536 13.266 36.8662 13.7217C36.4834 14.1729 36.0072 14.5215 35.4375 14.7676C34.8678 15.0137 34.207 15.1367 33.4551 15.1367C32.6803 15.1367 32.0036 15.0137 31.4248 14.7676C30.8506 14.5215 30.3721 14.1706 29.9893 13.7148C29.611 13.2591 29.3262 12.7145 29.1348 12.0811C28.9479 11.4476 28.8545 10.7458 28.8545 9.97559C28.8545 8.95475 29.0231 8.05924 29.3604 7.28906C29.6976 6.51888 30.208 5.9196 30.8916 5.49121C31.5798 5.06283 32.4411 4.84863 33.4756 4.84863C34.4645 4.84863 35.2962 5.06055 35.9707 5.48438C36.6497 5.9082 37.1624 6.50521 37.5088 7.27539C37.8597 8.04102 38.0352 8.94564 38.0352 9.98926ZM30.0781 9.98926C30.0781 10.8369 30.1989 11.5706 30.4404 12.1904C30.682 12.8102 31.0511 13.2887 31.5479 13.626C32.0492 13.9632 32.6849 14.1318 33.4551 14.1318C34.2298 14.1318 34.8633 13.9632 35.3555 13.626C35.8522 13.2887 36.2191 12.8102 36.4561 12.1904C36.693 11.5706 36.8115 10.8369 36.8115 9.98926C36.8115 8.69954 36.5404 7.69238 35.998 6.96777C35.4603 6.23861 34.6195 5.87402 33.4756 5.87402C32.7008 5.87402 32.0628 6.04036 31.5615 6.37305C31.0602 6.70573 30.6865 7.17969 30.4404 7.79492C30.1989 8.4056 30.0781 9.13704 30.0781 9.98926ZM43.6133 7.37109C44.5475 7.37109 45.2926 7.69238 45.8486 8.33496C46.4046 8.97754 46.6826 9.94368 46.6826 11.2334C46.6826 12.0856 46.555 12.8011 46.2998 13.3799C46.0446 13.9587 45.6846 14.3962 45.2197 14.6924C44.7594 14.9886 44.2148 15.1367 43.5859 15.1367C43.1895 15.1367 42.8408 15.0843 42.54 14.9795C42.2393 14.8747 41.9818 14.7334 41.7676 14.5557C41.5534 14.3779 41.3757 14.1842 41.2344 13.9746H41.1523C41.166 14.1523 41.182 14.3665 41.2002 14.6172C41.223 14.8678 41.2344 15.0866 41.2344 15.2734V18.3496H40.0928V7.50781H41.0293L41.1797 8.61523H41.2344C41.3802 8.38737 41.5579 8.18001 41.7676 7.99316C41.9772 7.80176 42.2324 7.65137 42.5332 7.54199C42.8385 7.42806 43.1986 7.37109 43.6133 7.37109ZM43.415 8.32812C42.8955 8.32812 42.4762 8.42839 42.1572 8.62891C41.8428 8.82943 41.6126 9.13021 41.4668 9.53125C41.321 9.92773 41.2435 10.4268 41.2344 11.0283V11.2471C41.2344 11.8805 41.3027 12.416 41.4395 12.8535C41.5807 13.291 41.8109 13.6237 42.1299 13.8516C42.4535 14.0794 42.8864 14.1934 43.4287 14.1934C43.8936 14.1934 44.2809 14.068 44.5908 13.8174C44.9007 13.5667 45.1309 13.2181 45.2812 12.7715C45.4362 12.3203 45.5137 11.8031 45.5137 11.2197C45.5137 10.3356 45.3405 9.63379 44.9941 9.11426C44.6523 8.59017 44.126 8.32812 43.415 8.32812ZM51.085 14.207C51.2718 14.207 51.4632 14.1911 51.6592 14.1592C51.8551 14.1273 52.0146 14.0885 52.1377 14.043V14.9248C52.0055 14.984 51.821 15.0342 51.584 15.0752C51.3516 15.1162 51.1237 15.1367 50.9004 15.1367C50.5039 15.1367 50.1439 15.0684 49.8203 14.9316C49.4967 14.7904 49.237 14.5534 49.041 14.2207C48.8496 13.888 48.7539 13.4277 48.7539 12.8398V8.39648H47.6875V7.84277L48.7607 7.39844L49.2119 5.77148H49.8955V7.50781H52.0898V8.39648H49.8955V12.8057C49.8955 13.2751 50.0026 13.626 50.2168 13.8584C50.4355 14.0908 50.7249 14.207 51.085 14.207ZM54.79 7.50781V15H53.6553V7.50781H54.79ZM54.2363 4.70508C54.4232 4.70508 54.5827 4.7666 54.7148 4.88965C54.8516 5.00814 54.9199 5.19499 54.9199 5.4502C54.9199 5.70085 54.8516 5.8877 54.7148 6.01074C54.5827 6.13379 54.4232 6.19531 54.2363 6.19531C54.0404 6.19531 53.8763 6.13379 53.7441 6.01074C53.6165 5.8877 53.5527 5.70085 53.5527 5.4502C53.5527 5.19499 53.6165 5.00814 53.7441 4.88965C53.8763 4.7666 54.0404 4.70508 54.2363 4.70508ZM63.6562 11.2402C63.6562 11.8555 63.5765 12.4046 63.417 12.8877C63.2575 13.3708 63.0273 13.7786 62.7266 14.1113C62.4258 14.444 62.0612 14.6992 61.6328 14.877C61.209 15.0501 60.7282 15.1367 60.1904 15.1367C59.6891 15.1367 59.2288 15.0501 58.8096 14.877C58.3949 14.6992 58.0348 14.444 57.7295 14.1113C57.4287 13.7786 57.194 13.3708 57.0254 12.8877C56.8613 12.4046 56.7793 11.8555 56.7793 11.2402C56.7793 10.4199 56.9183 9.72266 57.1963 9.14844C57.4743 8.56966 57.8708 8.12988 58.3857 7.8291C58.9053 7.52376 59.5228 7.37109 60.2383 7.37109C60.9219 7.37109 61.5189 7.52376 62.0293 7.8291C62.5443 8.13444 62.943 8.5765 63.2256 9.15527C63.5127 9.72949 63.6562 10.4245 63.6562 11.2402ZM57.9551 11.2402C57.9551 11.8418 58.0348 12.3636 58.1943 12.8057C58.3538 13.2477 58.5999 13.5895 58.9326 13.8311C59.2653 14.0726 59.6937 14.1934 60.2178 14.1934C60.7373 14.1934 61.1634 14.0726 61.4961 13.8311C61.8333 13.5895 62.0817 13.2477 62.2412 12.8057C62.4007 12.3636 62.4805 11.8418 62.4805 11.2402C62.4805 10.6432 62.4007 10.1283 62.2412 9.69531C62.0817 9.25781 61.8356 8.92057 61.5029 8.68359C61.1702 8.44661 60.7396 8.32812 60.2109 8.32812C59.4316 8.32812 58.8597 8.58561 58.4951 9.10059C58.1351 9.61556 57.9551 10.3288 57.9551 11.2402ZM69.166 7.37109C70.0547 7.37109 70.7269 7.58984 71.1826 8.02734C71.6383 8.46029 71.8662 9.15755 71.8662 10.1191V15H70.7451V10.1943C70.7451 9.56999 70.6016 9.10286 70.3145 8.79297C70.0319 8.48307 69.5967 8.32812 69.0088 8.32812C68.1794 8.32812 67.596 8.56283 67.2588 9.03223C66.9215 9.50163 66.7529 10.1829 66.7529 11.0762V15H65.6182V7.50781H66.5342L66.7051 8.58789H66.7666C66.9261 8.32357 67.1289 8.10254 67.375 7.9248C67.6211 7.74251 67.8968 7.60579 68.2021 7.51465C68.5075 7.41895 68.8288 7.37109 69.166 7.37109ZM81.5596 15H80.4521V7.91797C80.4521 7.64909 80.4521 7.41895 80.4521 7.22754C80.4567 7.03158 80.4613 6.85384 80.4658 6.69434C80.4749 6.53027 80.4863 6.36393 80.5 6.19531C80.3587 6.34115 80.2266 6.46647 80.1035 6.57129C79.9805 6.67155 79.8278 6.79688 79.6455 6.94727L78.5039 7.86328L77.9092 7.09082L80.6162 5.00586H81.5596V15Z" fill="#474D66"/>
<rect x="233" y="58" width="16" height="16" rx="4" fill="#3366FF"/>
<path d="M245 62.5C244.72 62.5 244.47 62.61 244.29 62.79L240 67.09L237.71 64.79C237.53 64.61 237.28 64.5 237 64.5C236.45 64.5 236 64.95 236 65.5C236 65.78 236.11 66.03 236.29 66.21L239.29 69.21C239.47 69.39 239.72 69.5 240 69.5C240.28 69.5 240.53 69.39 240.71 69.21L245.71 64.21C245.89 64.03 246 63.78 246 63.5C246 62.95 245.55 62.5 245 62.5Z" fill="white"/>
<path d="M271.035 65.9893C271.035 66.7594 270.937 67.4613 270.741 68.0947C270.545 68.7236 270.254 69.266 269.866 69.7217C269.483 70.1729 269.007 70.5215 268.438 70.7676C267.868 71.0137 267.207 71.1367 266.455 71.1367C265.68 71.1367 265.004 71.0137 264.425 70.7676C263.851 70.5215 263.372 70.1706 262.989 69.7148C262.611 69.2591 262.326 68.7145 262.135 68.0811C261.948 67.4476 261.854 66.7458 261.854 65.9756C261.854 64.9548 262.023 64.0592 262.36 63.2891C262.698 62.5189 263.208 61.9196 263.892 61.4912C264.58 61.0628 265.441 60.8486 266.476 60.8486C267.465 60.8486 268.296 61.0605 268.971 61.4844C269.65 61.9082 270.162 62.5052 270.509 63.2754C270.86 64.041 271.035 64.9456 271.035 65.9893ZM263.078 65.9893C263.078 66.8369 263.199 67.5706 263.44 68.1904C263.682 68.8102 264.051 69.2887 264.548 69.626C265.049 69.9632 265.685 70.1318 266.455 70.1318C267.23 70.1318 267.863 69.9632 268.355 69.626C268.852 69.2887 269.219 68.8102 269.456 68.1904C269.693 67.5706 269.812 66.8369 269.812 65.9893C269.812 64.6995 269.54 63.6924 268.998 62.9678C268.46 62.2386 267.619 61.874 266.476 61.874C265.701 61.874 265.063 62.0404 264.562 62.373C264.06 62.7057 263.687 63.1797 263.44 63.7949C263.199 64.4056 263.078 65.137 263.078 65.9893ZM276.613 63.3711C277.548 63.3711 278.293 63.6924 278.849 64.335C279.405 64.9775 279.683 65.9437 279.683 67.2334C279.683 68.0856 279.555 68.8011 279.3 69.3799C279.045 69.9587 278.685 70.3962 278.22 70.6924C277.759 70.9886 277.215 71.1367 276.586 71.1367C276.189 71.1367 275.841 71.0843 275.54 70.9795C275.239 70.8747 274.982 70.7334 274.768 70.5557C274.553 70.3779 274.376 70.1842 274.234 69.9746H274.152C274.166 70.1523 274.182 70.3665 274.2 70.6172C274.223 70.8678 274.234 71.0866 274.234 71.2734V74.3496H273.093V63.5078H274.029L274.18 64.6152H274.234C274.38 64.3874 274.558 64.18 274.768 63.9932C274.977 63.8018 275.232 63.6514 275.533 63.542C275.839 63.4281 276.199 63.3711 276.613 63.3711ZM276.415 64.3281C275.896 64.3281 275.476 64.4284 275.157 64.6289C274.843 64.8294 274.613 65.1302 274.467 65.5312C274.321 65.9277 274.243 66.4268 274.234 67.0283V67.2471C274.234 67.8805 274.303 68.416 274.439 68.8535C274.581 69.291 274.811 69.6237 275.13 69.8516C275.453 70.0794 275.886 70.1934 276.429 70.1934C276.894 70.1934 277.281 70.068 277.591 69.8174C277.901 69.5667 278.131 69.2181 278.281 68.7715C278.436 68.3203 278.514 67.8031 278.514 67.2197C278.514 66.3356 278.34 65.6338 277.994 65.1143C277.652 64.5902 277.126 64.3281 276.415 64.3281ZM284.085 70.207C284.272 70.207 284.463 70.1911 284.659 70.1592C284.855 70.1273 285.015 70.0885 285.138 70.043V70.9248C285.006 70.984 284.821 71.0342 284.584 71.0752C284.352 71.1162 284.124 71.1367 283.9 71.1367C283.504 71.1367 283.144 71.0684 282.82 70.9316C282.497 70.7904 282.237 70.5534 282.041 70.2207C281.85 69.888 281.754 69.4277 281.754 68.8398V64.3965H280.688V63.8428L281.761 63.3984L282.212 61.7715H282.896V63.5078H285.09V64.3965H282.896V68.8057C282.896 69.2751 283.003 69.626 283.217 69.8584C283.436 70.0908 283.725 70.207 284.085 70.207ZM287.79 63.5078V71H286.655V63.5078H287.79ZM287.236 60.7051C287.423 60.7051 287.583 60.7666 287.715 60.8896C287.852 61.0081 287.92 61.195 287.92 61.4502C287.92 61.7008 287.852 61.8877 287.715 62.0107C287.583 62.1338 287.423 62.1953 287.236 62.1953C287.04 62.1953 286.876 62.1338 286.744 62.0107C286.617 61.8877 286.553 61.7008 286.553 61.4502C286.553 61.195 286.617 61.0081 286.744 60.8896C286.876 60.7666 287.04 60.7051 287.236 60.7051ZM296.656 67.2402C296.656 67.8555 296.576 68.4046 296.417 68.8877C296.257 69.3708 296.027 69.7786 295.727 70.1113C295.426 70.444 295.061 70.6992 294.633 70.877C294.209 71.0501 293.728 71.1367 293.19 71.1367C292.689 71.1367 292.229 71.0501 291.81 70.877C291.395 70.6992 291.035 70.444 290.729 70.1113C290.429 69.7786 290.194 69.3708 290.025 68.8877C289.861 68.4046 289.779 67.8555 289.779 67.2402C289.779 66.4199 289.918 65.7227 290.196 65.1484C290.474 64.5697 290.871 64.1299 291.386 63.8291C291.905 63.5238 292.523 63.3711 293.238 63.3711C293.922 63.3711 294.519 63.5238 295.029 63.8291C295.544 64.1344 295.943 64.5765 296.226 65.1553C296.513 65.7295 296.656 66.4245 296.656 67.2402ZM290.955 67.2402C290.955 67.8418 291.035 68.3636 291.194 68.8057C291.354 69.2477 291.6 69.5895 291.933 69.8311C292.265 70.0726 292.694 70.1934 293.218 70.1934C293.737 70.1934 294.163 70.0726 294.496 69.8311C294.833 69.5895 295.082 69.2477 295.241 68.8057C295.401 68.3636 295.48 67.8418 295.48 67.2402C295.48 66.6432 295.401 66.1283 295.241 65.6953C295.082 65.2578 294.836 64.9206 294.503 64.6836C294.17 64.4466 293.74 64.3281 293.211 64.3281C292.432 64.3281 291.86 64.5856 291.495 65.1006C291.135 65.6156 290.955 66.3288 290.955 67.2402ZM302.166 63.3711C303.055 63.3711 303.727 63.5898 304.183 64.0273C304.638 64.4603 304.866 65.1576 304.866 66.1191V71H303.745V66.1943C303.745 65.57 303.602 65.1029 303.314 64.793C303.032 64.4831 302.597 64.3281 302.009 64.3281C301.179 64.3281 300.596 64.5628 300.259 65.0322C299.922 65.5016 299.753 66.1829 299.753 67.0762V71H298.618V63.5078H299.534L299.705 64.5879H299.767C299.926 64.3236 300.129 64.1025 300.375 63.9248C300.621 63.7425 300.897 63.6058 301.202 63.5146C301.507 63.4189 301.829 63.3711 302.166 63.3711ZM314.56 71H313.452V63.918C313.452 63.6491 313.452 63.4189 313.452 63.2275C313.457 63.0316 313.461 62.8538 313.466 62.6943C313.475 62.5303 313.486 62.3639 313.5 62.1953C313.359 62.3411 313.227 62.4665 313.104 62.5713C312.98 62.6715 312.828 62.7969 312.646 62.9473L311.504 63.8633L310.909 63.0908L313.616 61.0059H314.56V71Z" fill="#474D66"/>
</svg>
