<svg width="585" height="394" viewBox="0 0 585 394" fill="none" xmlns="http://www.w3.org/2000/svg">
<circle cx="15" cy="347" r="14.5" transform="rotate(-90 15 347)" fill="#101840" stroke="#101840"/>
<path d="M18.1621 350.725H17.1309V352.5H15.3613V350.725H11.7051V349.465L15.4609 343.934H17.1309L17.1309 349.318H18.1621V350.725ZM15.3613 349.318V347.865C15.3613 347.623 15.3711 347.271 15.3906 346.811C15.4102 346.35 15.4258 346.082 15.4375 346.008H15.3906C15.2461 346.328 15.0723 346.641 14.8691 346.945L13.2988 349.318H15.3613Z" fill="white"/>
<path d="M30 347H66" stroke="#101840" stroke-width="2"/>
<circle cx="64" cy="347" r="2.5" transform="rotate(-90 64 347)" fill="#101840" stroke="#101840"/>
<circle cx="15" cy="161" r="14.5" transform="rotate(-90 15 161)" fill="#101840" stroke="#101840"/>
<path d="M17.9687 166.5H11.9805V165.24L14.1309 163.066C14.7676 162.414 15.1836 161.963 15.3789 161.713C15.5742 161.459 15.7148 161.225 15.8008 161.01C15.8867 160.795 15.9297 160.572 15.9297 160.342C15.9297 159.998 15.834 159.742 15.6426 159.574C15.4551 159.406 15.2031 159.322 14.8867 159.322C14.5547 159.322 14.2324 159.398 13.9199 159.551C13.6074 159.703 13.2812 159.92 12.9414 160.201L11.957 159.035C12.3789 158.676 12.7285 158.422 13.0059 158.273C13.2832 158.125 13.5859 158.012 13.9141 157.934C14.2422 157.852 14.6094 157.811 15.0156 157.811C15.5508 157.811 16.0234 157.908 16.4336 158.104C16.8438 158.299 17.1621 158.572 17.3887 158.924C17.6152 159.275 17.7285 159.678 17.7285 160.131C17.7285 160.525 17.6582 160.896 17.5176 161.244C17.3809 161.588 17.166 161.941 16.873 162.305C16.584 162.668 16.0723 163.186 15.3379 163.857L14.2363 164.895V164.977H17.9687V166.5Z" fill="white"/>
<path d="M30 161H66" stroke="#101840" stroke-width="2"/>
<circle cx="64" cy="161" r="2.5" transform="rotate(-90 64 161)" fill="#101840" stroke="#101840"/>
<circle cx="15" cy="49" r="14.5" transform="rotate(-90 15 49)" fill="#101840" stroke="#101840"/>
<path d="M16.457 54.5H14.6465L14.6465 49.543L14.6641 48.7285L14.6934 47.8379C14.3926 48.1387 14.1836 48.3359 14.0664 48.4297L13.082 49.2207L12.209 48.1309L14.9687 45.9336H16.457L16.457 54.5Z" fill="white"/>
<path d="M30 49H66" stroke="#101840" stroke-width="2"/>
<circle cx="64" cy="49" r="2.5" transform="rotate(-90 64 49)" fill="#101840" stroke="#101840"/>
<circle cx="15" cy="267" r="14.5" transform="rotate(-90 15 267)" fill="#101840" stroke="#101840"/>
<path d="M17.6348 265.85C17.6348 266.385 17.4727 266.84 17.1484 267.215C16.8242 267.59 16.3691 267.848 15.7832 267.988V268.023C16.4746 268.109 16.998 268.32 17.3535 268.656C17.709 268.988 17.8867 269.438 17.8867 270.004C17.8867 270.828 17.5879 271.471 16.9902 271.932C16.3926 272.389 15.5391 272.617 14.4297 272.617C13.5 272.617 12.6758 272.463 11.957 272.154L11.957 270.613C12.2891 270.781 12.6543 270.918 13.0527 271.023C13.4512 271.129 13.8457 271.182 14.2363 271.182C14.834 271.182 15.2754 271.08 15.5605 270.877C15.8457 270.674 15.9883 270.348 15.9883 269.898C15.9883 269.496 15.8242 269.211 15.4961 269.043C15.168 268.875 14.6445 268.791 13.9258 268.791H13.2754V267.402H13.9375C14.6016 267.402 15.0859 267.316 15.3906 267.145C15.6992 266.969 15.8535 266.67 15.8535 266.248C15.8535 265.6 15.4473 265.275 14.6348 265.275C14.3535 265.275 14.0664 265.322 13.7734 265.416C13.4844 265.51 13.1621 265.672 12.8066 265.902L11.9687 264.654C12.75 264.092 13.6816 263.811 14.7637 263.811C15.6504 263.811 16.3496 263.99 16.8613 264.35C17.377 264.709 17.6348 265.209 17.6348 265.85Z" fill="white"/>
<path d="M30 267H66" stroke="#101840" stroke-width="2"/>
<circle cx="64" cy="267" r="2.5" transform="rotate(-90 64 267)" fill="#101840" stroke="#101840"/>
<path d="M81.5 18V6.57812H83.375V16.4062H88.2266V18H81.5ZM93.4062 9.1875C94.5 9.1875 95.3255 9.42969 95.8828 9.91406C96.4453 10.3984 96.7266 11.1536 96.7266 12.1797V18H95.4219L95.0703 16.7734H95.0078C94.763 17.0859 94.5104 17.3438 94.25 17.5469C93.9896 17.75 93.6875 17.901 93.3438 18C93.0052 18.1042 92.5911 18.1562 92.1016 18.1562C91.5859 18.1562 91.125 18.0625 90.7188 17.875C90.3125 17.6823 89.9922 17.3906 89.7578 17C89.5234 16.6094 89.4062 16.1146 89.4062 15.5156C89.4062 14.625 89.737 13.9557 90.3984 13.5078C91.0651 13.0599 92.0703 12.8125 93.4141 12.7656L94.9141 12.7109V12.2578C94.9141 11.6589 94.7734 11.2318 94.4922 10.9766C94.2161 10.7214 93.8255 10.5938 93.3203 10.5938C92.888 10.5938 92.4688 10.6562 92.0625 10.7812C91.6562 10.9062 91.2604 11.0599 90.875 11.2422L90.2812 9.94531C90.7031 9.72135 91.1823 9.53906 91.7188 9.39844C92.2604 9.25781 92.8229 9.1875 93.4062 9.1875ZM94.9062 13.8672L93.7891 13.9062C92.8724 13.9375 92.2292 14.0938 91.8594 14.375C91.4896 14.6562 91.3047 15.0417 91.3047 15.5312C91.3047 15.9583 91.4323 16.2708 91.6875 16.4688C91.9427 16.6615 92.2786 16.7578 92.6953 16.7578C93.3307 16.7578 93.8568 16.5781 94.2734 16.2188C94.6953 15.8542 94.9062 15.3203 94.9062 14.6172V13.8672ZM101.133 5.84375V8.77344C101.133 9.11198 101.122 9.44531 101.102 9.77344C101.086 10.0964 101.07 10.349 101.055 10.5312H101.133C101.367 10.1562 101.693 9.84115 102.109 9.58594C102.531 9.32552 103.07 9.19531 103.727 9.19531C104.753 9.19531 105.578 9.57292 106.203 10.3281C106.828 11.0781 107.141 12.1901 107.141 13.6641C107.141 14.6432 106.997 15.4661 106.711 16.1328C106.424 16.7995 106.021 17.3047 105.5 17.6484C104.984 17.987 104.378 18.1562 103.68 18.1562C103.023 18.1562 102.492 18.0365 102.086 17.7969C101.685 17.5521 101.37 17.2682 101.141 16.9453H101.008L100.672 18H99.2969V5.84375H101.133ZM103.242 10.6875C102.721 10.6875 102.307 10.7917 102 11C101.698 11.2083 101.479 11.5208 101.344 11.9375C101.208 12.349 101.138 12.8724 101.133 13.5078V13.6719C101.133 14.6354 101.284 15.3724 101.586 15.8828C101.893 16.3932 102.451 16.6484 103.258 16.6484C103.898 16.6484 104.391 16.3906 104.734 15.875C105.078 15.3542 105.25 14.6094 105.25 13.6406C105.25 12.6615 105.078 11.9245 104.734 11.4297C104.396 10.9349 103.898 10.6875 103.242 10.6875ZM112.711 9.1875C113.482 9.1875 114.143 9.34635 114.695 9.66406C115.247 9.98177 115.672 10.4323 115.969 11.0156C116.266 11.599 116.414 12.2969 116.414 13.1094V14.0938H110.641C110.661 14.9323 110.885 15.5781 111.312 16.0312C111.745 16.4844 112.349 16.7109 113.125 16.7109C113.677 16.7109 114.172 16.6589 114.609 16.5547C115.052 16.4453 115.508 16.2865 115.977 16.0781V17.5703C115.544 17.7734 115.104 17.9219 114.656 18.0156C114.208 18.1094 113.672 18.1562 113.047 18.1562C112.198 18.1562 111.451 17.9922 110.805 17.6641C110.164 17.3307 109.661 16.8359 109.297 16.1797C108.938 15.5234 108.758 14.7083 108.758 13.7344C108.758 12.7656 108.922 11.9427 109.25 11.2656C109.578 10.5885 110.039 10.0729 110.633 9.71875C111.227 9.36458 111.919 9.1875 112.711 9.1875ZM112.711 10.5703C112.133 10.5703 111.664 10.7578 111.305 11.1328C110.951 11.5078 110.742 12.0573 110.68 12.7812H114.617C114.612 12.349 114.539 11.9661 114.398 11.6328C114.263 11.2995 114.055 11.0391 113.773 10.8516C113.497 10.6641 113.143 10.5703 112.711 10.5703ZM120.328 18H118.484V5.84375H120.328V18Z" fill="#474D66"/>
<rect x="80.5" y="32.5" width="249" height="31" rx="3.5" fill="white"/>
<path d="M93.4102 44.4336C94.5156 44.4336 95.3223 44.6504 95.8301 45.084C96.3418 45.5137 96.5977 46.1309 96.5977 46.9355C96.5977 47.2988 96.5371 47.6445 96.416 47.9727C96.2988 48.2969 96.1074 48.584 95.8418 48.834C95.5762 49.0801 95.2266 49.2754 94.793 49.4199C94.3633 49.5605 93.8359 49.6309 93.2109 49.6309H92.168V53H91.1719V44.4336H93.4102ZM93.3164 45.2832H92.168V48.7754H93.0996C93.6465 48.7754 94.1016 48.7168 94.4648 48.5996C94.832 48.4824 95.1074 48.293 95.291 48.0312C95.4746 47.7656 95.5664 47.4141 95.5664 46.9766C95.5664 46.4062 95.3848 45.9824 95.0215 45.7051C94.6582 45.4238 94.0898 45.2832 93.3164 45.2832ZM99.2107 53H98.2321V43.8828H99.2107V53ZM103.658 46.4727C104.423 46.4727 104.992 46.6445 105.363 46.9883C105.734 47.332 105.919 47.8809 105.919 48.6348V53H105.21L105.023 52.0508H104.976C104.796 52.2852 104.609 52.4824 104.413 52.6426C104.218 52.7988 103.992 52.918 103.734 53C103.48 53.0781 103.167 53.1172 102.796 53.1172C102.406 53.1172 102.058 53.0488 101.753 52.9121C101.453 52.7754 101.214 52.5684 101.038 52.291C100.867 52.0137 100.781 51.6621 100.781 51.2363C100.781 50.5957 101.035 50.1035 101.542 49.7598C102.05 49.416 102.824 49.2285 103.863 49.1973L104.97 49.1504V48.7578C104.97 48.2031 104.851 47.8145 104.613 47.5918C104.374 47.3691 104.038 47.2578 103.605 47.2578C103.269 47.2578 102.949 47.3066 102.644 47.4043C102.339 47.502 102.05 47.6172 101.777 47.75L101.478 47.0117C101.767 46.8633 102.099 46.7363 102.474 46.6309C102.849 46.5254 103.244 46.4727 103.658 46.4727ZM104.958 49.8359L103.98 49.877C103.179 49.9082 102.615 50.0391 102.287 50.2695C101.958 50.5 101.794 50.8262 101.794 51.248C101.794 51.6152 101.906 51.8867 102.128 52.0625C102.351 52.2383 102.646 52.3262 103.013 52.3262C103.583 52.3262 104.05 52.168 104.413 51.8516C104.777 51.5352 104.958 51.0605 104.958 50.4277V49.8359ZM110.484 53.1172C109.905 53.1172 109.396 52.998 108.954 52.7598C108.513 52.5215 108.169 52.1582 107.923 51.6699C107.677 51.1816 107.554 50.5664 107.554 49.8242C107.554 49.0469 107.683 48.4121 107.941 47.9199C108.202 47.4238 108.562 47.0566 109.019 46.8184C109.476 46.5801 109.995 46.4609 110.577 46.4609C110.898 46.4609 111.206 46.4941 111.503 46.5605C111.804 46.623 112.05 46.7031 112.241 46.8008L111.948 47.6152C111.753 47.5371 111.527 47.4668 111.269 47.4043C111.015 47.3418 110.777 47.3105 110.554 47.3105C110.109 47.3105 109.737 47.4062 109.441 47.5977C109.148 47.7891 108.927 48.0703 108.778 48.4414C108.634 48.8125 108.562 49.2695 108.562 49.8125C108.562 50.332 108.632 50.7754 108.773 51.1426C108.917 51.5098 109.13 51.791 109.411 51.9863C109.696 52.1777 110.052 52.2734 110.478 52.2734C110.818 52.2734 111.124 52.2383 111.398 52.168C111.671 52.0938 111.919 52.0078 112.142 51.9102V52.7773C111.927 52.8867 111.687 52.9707 111.421 53.0293C111.159 53.0879 110.847 53.1172 110.484 53.1172ZM116.126 46.4609C116.673 46.4609 117.141 46.582 117.532 46.8242C117.923 47.0664 118.222 47.4062 118.429 47.8438C118.636 48.2773 118.739 48.7852 118.739 49.3672V49.9707H114.304C114.315 50.7246 114.503 51.2988 114.866 51.6934C115.229 52.0879 115.741 52.2852 116.401 52.2852C116.807 52.2852 117.167 52.248 117.479 52.1738C117.792 52.0996 118.116 51.9902 118.452 51.8457V52.7012C118.128 52.8457 117.806 52.9512 117.485 53.0176C117.169 53.084 116.794 53.1172 116.36 53.1172C115.743 53.1172 115.204 52.9922 114.743 52.7422C114.286 52.4883 113.931 52.1172 113.677 51.6289C113.423 51.1406 113.296 50.543 113.296 49.8359C113.296 49.1445 113.411 48.5469 113.641 48.043C113.876 47.5352 114.204 47.1445 114.626 46.8711C115.052 46.5977 115.552 46.4609 116.126 46.4609ZM116.114 47.2578C115.595 47.2578 115.181 47.4277 114.872 47.7676C114.563 48.1074 114.38 48.582 114.321 49.1914H117.72C117.716 48.8086 117.655 48.4727 117.538 48.1836C117.425 47.8906 117.251 47.6641 117.016 47.5039C116.782 47.3398 116.481 47.2578 116.114 47.2578ZM121.352 43.8828V46.6074C121.352 46.7637 121.348 46.9219 121.34 47.082C121.333 47.2383 121.319 47.3828 121.299 47.5156H121.364C121.497 47.2891 121.665 47.0996 121.868 46.9473C122.075 46.791 122.309 46.6738 122.571 46.5957C122.833 46.5137 123.11 46.4727 123.403 46.4727C123.919 46.4727 124.348 46.5547 124.692 46.7188C125.04 46.8828 125.299 47.1367 125.471 47.4805C125.647 47.8242 125.735 48.2695 125.735 48.8164V53H124.774V48.8809C124.774 48.3457 124.651 47.9453 124.405 47.6797C124.163 47.4141 123.79 47.2812 123.286 47.2812C122.809 47.2812 122.428 47.373 122.143 47.5566C121.862 47.7363 121.659 48.002 121.534 48.3535C121.413 48.7051 121.352 49.1348 121.352 49.6426V53H120.379V43.8828H121.352ZM133.264 49.7773C133.264 50.3047 133.196 50.7754 133.059 51.1895C132.922 51.6035 132.725 51.9531 132.467 52.2383C132.209 52.5234 131.897 52.7422 131.53 52.8945C131.166 53.043 130.754 53.1172 130.293 53.1172C129.864 53.1172 129.469 53.043 129.11 52.8945C128.754 52.7422 128.446 52.5234 128.184 52.2383C127.926 51.9531 127.725 51.6035 127.58 51.1895C127.44 50.7754 127.369 50.3047 127.369 49.7773C127.369 49.0742 127.489 48.4766 127.727 47.9844C127.965 47.4883 128.305 47.1113 128.746 46.8535C129.192 46.5918 129.721 46.4609 130.334 46.4609C130.92 46.4609 131.432 46.5918 131.869 46.8535C132.311 47.1152 132.653 47.4941 132.895 47.9902C133.141 48.4824 133.264 49.0781 133.264 49.7773ZM128.377 49.7773C128.377 50.293 128.446 50.7402 128.582 51.1191C128.719 51.498 128.93 51.791 129.215 51.998C129.5 52.2051 129.867 52.3086 130.317 52.3086C130.762 52.3086 131.127 52.2051 131.412 51.998C131.701 51.791 131.914 51.498 132.051 51.1191C132.188 50.7402 132.256 50.293 132.256 49.7773C132.256 49.2656 132.188 48.8242 132.051 48.4531C131.914 48.0781 131.703 47.7891 131.418 47.5859C131.133 47.3828 130.764 47.2812 130.311 47.2812C129.643 47.2812 129.153 47.502 128.84 47.9434C128.532 48.3848 128.377 48.9961 128.377 49.7773ZM135.912 53H134.934V43.8828H135.912V53ZM140.242 53.1172C139.429 53.1172 138.785 52.8398 138.308 52.2852C137.836 51.7305 137.599 50.9062 137.599 49.8125C137.599 48.707 137.841 47.873 138.326 47.3105C138.81 46.7441 139.455 46.4609 140.259 46.4609C140.599 46.4609 140.896 46.5059 141.15 46.5957C141.404 46.6855 141.623 46.8066 141.806 46.959C141.99 47.1074 142.144 47.2773 142.269 47.4688H142.34C142.324 47.3477 142.308 47.1816 142.293 46.9707C142.277 46.7598 142.269 46.5879 142.269 46.4551V43.8828H143.242V53H142.457L142.31 52.0859H142.269C142.148 52.2773 141.994 52.4512 141.806 52.6074C141.623 52.7637 141.402 52.8887 141.144 52.9824C140.89 53.0723 140.59 53.1172 140.242 53.1172ZM140.394 52.3086C141.082 52.3086 141.568 52.1133 141.853 51.7227C142.138 51.332 142.281 50.752 142.281 49.9824V49.8066C142.281 48.9902 142.144 48.3633 141.871 47.9258C141.601 47.4883 141.109 47.2695 140.394 47.2695C139.797 47.2695 139.349 47.5 139.052 47.9609C138.756 48.418 138.607 49.043 138.607 49.8359C138.607 50.625 138.754 51.2344 139.047 51.6641C139.343 52.0938 139.793 52.3086 140.394 52.3086ZM147.765 46.4609C148.312 46.4609 148.781 46.582 149.171 46.8242C149.562 47.0664 149.861 47.4062 150.068 47.8438C150.275 48.2773 150.378 48.7852 150.378 49.3672V49.9707H145.943C145.954 50.7246 146.142 51.2988 146.505 51.6934C146.869 52.0879 147.38 52.2852 148.04 52.2852C148.447 52.2852 148.806 52.248 149.119 52.1738C149.431 52.0996 149.755 51.9902 150.091 51.8457V52.7012C149.767 52.8457 149.445 52.9512 149.124 53.0176C148.808 53.084 148.433 53.1172 147.999 53.1172C147.382 53.1172 146.843 52.9922 146.382 52.7422C145.925 52.4883 145.57 52.1172 145.316 51.6289C145.062 51.1406 144.935 50.543 144.935 49.8359C144.935 49.1445 145.05 48.5469 145.281 48.043C145.515 47.5352 145.843 47.1445 146.265 46.8711C146.691 46.5977 147.191 46.4609 147.765 46.4609ZM147.753 47.2578C147.234 47.2578 146.82 47.4277 146.511 47.7676C146.203 48.1074 146.019 48.582 145.96 49.1914H149.359C149.355 48.8086 149.294 48.4727 149.177 48.1836C149.064 47.8906 148.89 47.6641 148.656 47.5039C148.421 47.3398 148.121 47.2578 147.753 47.2578ZM154.937 46.4609C155.066 46.4609 155.2 46.4688 155.341 46.4844C155.482 46.4961 155.607 46.5137 155.716 46.5371L155.593 47.4395C155.487 47.4121 155.37 47.3906 155.241 47.375C155.112 47.3594 154.991 47.3516 154.878 47.3516C154.62 47.3516 154.376 47.4043 154.146 47.5098C153.919 47.6113 153.72 47.7598 153.548 47.9551C153.376 48.1465 153.241 48.3789 153.144 48.6523C153.046 48.9219 152.997 49.2227 152.997 49.5547V53H152.019V46.5781H152.827L152.933 47.7617H152.974C153.107 47.5234 153.267 47.3066 153.454 47.1113C153.642 46.9121 153.859 46.7539 154.105 46.6367C154.355 46.5195 154.632 46.4609 154.937 46.4609Z" fill="#8F95B2"/>
<rect x="80.5" y="32.5" width="249" height="31" rx="3.5" stroke="#D8DAE5"/>
<path d="M81.5 127V115.578H83.375V125.406H88.2266V127H81.5ZM93.4062 118.188C94.5 118.188 95.3255 118.43 95.8828 118.914C96.4453 119.398 96.7266 120.154 96.7266 121.18V127H95.4219L95.0703 125.773H95.0078C94.763 126.086 94.5104 126.344 94.25 126.547C93.9896 126.75 93.6875 126.901 93.3438 127C93.0052 127.104 92.5911 127.156 92.1016 127.156C91.5859 127.156 91.125 127.062 90.7188 126.875C90.3125 126.682 89.9922 126.391 89.7578 126C89.5234 125.609 89.4062 125.115 89.4062 124.516C89.4062 123.625 89.737 122.956 90.3984 122.508C91.0651 122.06 92.0703 121.812 93.4141 121.766L94.9141 121.711V121.258C94.9141 120.659 94.7734 120.232 94.4922 119.977C94.2161 119.721 93.8255 119.594 93.3203 119.594C92.888 119.594 92.4688 119.656 92.0625 119.781C91.6562 119.906 91.2604 120.06 90.875 120.242L90.2812 118.945C90.7031 118.721 91.1823 118.539 91.7188 118.398C92.2604 118.258 92.8229 118.188 93.4062 118.188ZM94.9062 122.867L93.7891 122.906C92.8724 122.938 92.2292 123.094 91.8594 123.375C91.4896 123.656 91.3047 124.042 91.3047 124.531C91.3047 124.958 91.4323 125.271 91.6875 125.469C91.9427 125.661 92.2786 125.758 92.6953 125.758C93.3307 125.758 93.8568 125.578 94.2734 125.219C94.6953 124.854 94.9062 124.32 94.9062 123.617V122.867ZM101.133 114.844V117.773C101.133 118.112 101.122 118.445 101.102 118.773C101.086 119.096 101.07 119.349 101.055 119.531H101.133C101.367 119.156 101.693 118.841 102.109 118.586C102.531 118.326 103.07 118.195 103.727 118.195C104.753 118.195 105.578 118.573 106.203 119.328C106.828 120.078 107.141 121.19 107.141 122.664C107.141 123.643 106.997 124.466 106.711 125.133C106.424 125.799 106.021 126.305 105.5 126.648C104.984 126.987 104.378 127.156 103.68 127.156C103.023 127.156 102.492 127.036 102.086 126.797C101.685 126.552 101.37 126.268 101.141 125.945H101.008L100.672 127H99.2969V114.844H101.133ZM103.242 119.688C102.721 119.688 102.307 119.792 102 120C101.698 120.208 101.479 120.521 101.344 120.938C101.208 121.349 101.138 121.872 101.133 122.508V122.672C101.133 123.635 101.284 124.372 101.586 124.883C101.893 125.393 102.451 125.648 103.258 125.648C103.898 125.648 104.391 125.391 104.734 124.875C105.078 124.354 105.25 123.609 105.25 122.641C105.25 121.661 105.078 120.924 104.734 120.43C104.396 119.935 103.898 119.688 103.242 119.688ZM112.711 118.188C113.482 118.188 114.143 118.346 114.695 118.664C115.247 118.982 115.672 119.432 115.969 120.016C116.266 120.599 116.414 121.297 116.414 122.109V123.094H110.641C110.661 123.932 110.885 124.578 111.312 125.031C111.745 125.484 112.349 125.711 113.125 125.711C113.677 125.711 114.172 125.659 114.609 125.555C115.052 125.445 115.508 125.286 115.977 125.078V126.57C115.544 126.773 115.104 126.922 114.656 127.016C114.208 127.109 113.672 127.156 113.047 127.156C112.198 127.156 111.451 126.992 110.805 126.664C110.164 126.331 109.661 125.836 109.297 125.18C108.938 124.523 108.758 123.708 108.758 122.734C108.758 121.766 108.922 120.943 109.25 120.266C109.578 119.589 110.039 119.073 110.633 118.719C111.227 118.365 111.919 118.188 112.711 118.188ZM112.711 119.57C112.133 119.57 111.664 119.758 111.305 120.133C110.951 120.508 110.742 121.057 110.68 121.781H114.617C114.612 121.349 114.539 120.966 114.398 120.633C114.263 120.299 114.055 120.039 113.773 119.852C113.497 119.664 113.143 119.57 112.711 119.57ZM120.328 127H118.484V114.844H120.328V127Z" fill="#474D66"/>
<path d="M126.875 114.844L126.562 117.828L129.562 116.977L129.797 118.641L126.992 118.891L128.812 121.32L127.297 122.141L125.977 119.523L124.797 122.133L123.219 121.32L125.023 118.891L122.234 118.633L122.5 116.977L125.445 117.828L125.133 114.844H126.875Z" fill="#BF2600"/>
<rect x="80.5" y="141.5" width="249" height="31" rx="3.5" fill="white"/>
<path d="M93.4102 153.434C94.5156 153.434 95.3223 153.65 95.8301 154.084C96.3418 154.514 96.5977 155.131 96.5977 155.936C96.5977 156.299 96.5371 156.645 96.416 156.973C96.2988 157.297 96.1074 157.584 95.8418 157.834C95.5762 158.08 95.2266 158.275 94.793 158.42C94.3633 158.561 93.8359 158.631 93.2109 158.631H92.168V162H91.1719V153.434H93.4102ZM93.3164 154.283H92.168V157.775H93.0996C93.6465 157.775 94.1016 157.717 94.4648 157.6C94.832 157.482 95.1074 157.293 95.291 157.031C95.4746 156.766 95.5664 156.414 95.5664 155.977C95.5664 155.406 95.3848 154.982 95.0215 154.705C94.6582 154.424 94.0898 154.283 93.3164 154.283ZM99.2107 162H98.2321V152.883H99.2107V162ZM103.658 155.473C104.423 155.473 104.992 155.645 105.363 155.988C105.734 156.332 105.919 156.881 105.919 157.635V162H105.21L105.023 161.051H104.976C104.796 161.285 104.609 161.482 104.413 161.643C104.218 161.799 103.992 161.918 103.734 162C103.48 162.078 103.167 162.117 102.796 162.117C102.406 162.117 102.058 162.049 101.753 161.912C101.453 161.775 101.214 161.568 101.038 161.291C100.867 161.014 100.781 160.662 100.781 160.236C100.781 159.596 101.035 159.104 101.542 158.76C102.05 158.416 102.824 158.229 103.863 158.197L104.97 158.15V157.758C104.97 157.203 104.851 156.814 104.613 156.592C104.374 156.369 104.038 156.258 103.605 156.258C103.269 156.258 102.949 156.307 102.644 156.404C102.339 156.502 102.05 156.617 101.777 156.75L101.478 156.012C101.767 155.863 102.099 155.736 102.474 155.631C102.849 155.525 103.244 155.473 103.658 155.473ZM104.958 158.836L103.98 158.877C103.179 158.908 102.615 159.039 102.287 159.27C101.958 159.5 101.794 159.826 101.794 160.248C101.794 160.615 101.906 160.887 102.128 161.062C102.351 161.238 102.646 161.326 103.013 161.326C103.583 161.326 104.05 161.168 104.413 160.852C104.777 160.535 104.958 160.061 104.958 159.428V158.836ZM110.484 162.117C109.905 162.117 109.396 161.998 108.954 161.76C108.513 161.521 108.169 161.158 107.923 160.67C107.677 160.182 107.554 159.566 107.554 158.824C107.554 158.047 107.683 157.412 107.941 156.92C108.202 156.424 108.562 156.057 109.019 155.818C109.476 155.58 109.995 155.461 110.577 155.461C110.898 155.461 111.206 155.494 111.503 155.561C111.804 155.623 112.05 155.703 112.241 155.801L111.948 156.615C111.753 156.537 111.527 156.467 111.269 156.404C111.015 156.342 110.777 156.311 110.554 156.311C110.109 156.311 109.737 156.406 109.441 156.598C109.148 156.789 108.927 157.07 108.778 157.441C108.634 157.812 108.562 158.27 108.562 158.812C108.562 159.332 108.632 159.775 108.773 160.143C108.917 160.51 109.13 160.791 109.411 160.986C109.696 161.178 110.052 161.273 110.478 161.273C110.818 161.273 111.124 161.238 111.398 161.168C111.671 161.094 111.919 161.008 112.142 160.91V161.777C111.927 161.887 111.687 161.971 111.421 162.029C111.159 162.088 110.847 162.117 110.484 162.117ZM116.126 155.461C116.673 155.461 117.141 155.582 117.532 155.824C117.923 156.066 118.222 156.406 118.429 156.844C118.636 157.277 118.739 157.785 118.739 158.367V158.971H114.304C114.315 159.725 114.503 160.299 114.866 160.693C115.229 161.088 115.741 161.285 116.401 161.285C116.807 161.285 117.167 161.248 117.479 161.174C117.792 161.1 118.116 160.99 118.452 160.846V161.701C118.128 161.846 117.806 161.951 117.485 162.018C117.169 162.084 116.794 162.117 116.36 162.117C115.743 162.117 115.204 161.992 114.743 161.742C114.286 161.488 113.931 161.117 113.677 160.629C113.423 160.141 113.296 159.543 113.296 158.836C113.296 158.145 113.411 157.547 113.641 157.043C113.876 156.535 114.204 156.145 114.626 155.871C115.052 155.598 115.552 155.461 116.126 155.461ZM116.114 156.258C115.595 156.258 115.181 156.428 114.872 156.768C114.563 157.107 114.38 157.582 114.321 158.191H117.72C117.716 157.809 117.655 157.473 117.538 157.184C117.425 156.891 117.251 156.664 117.016 156.504C116.782 156.34 116.481 156.258 116.114 156.258ZM121.352 152.883V155.607C121.352 155.764 121.348 155.922 121.34 156.082C121.333 156.238 121.319 156.383 121.299 156.516H121.364C121.497 156.289 121.665 156.1 121.868 155.947C122.075 155.791 122.309 155.674 122.571 155.596C122.833 155.514 123.11 155.473 123.403 155.473C123.919 155.473 124.348 155.555 124.692 155.719C125.04 155.883 125.299 156.137 125.471 156.48C125.647 156.824 125.735 157.27 125.735 157.816V162H124.774V157.881C124.774 157.346 124.651 156.945 124.405 156.68C124.163 156.414 123.79 156.281 123.286 156.281C122.809 156.281 122.428 156.373 122.143 156.557C121.862 156.736 121.659 157.002 121.534 157.354C121.413 157.705 121.352 158.135 121.352 158.643V162H120.379V152.883H121.352ZM133.264 158.777C133.264 159.305 133.196 159.775 133.059 160.189C132.922 160.604 132.725 160.953 132.467 161.238C132.209 161.523 131.897 161.742 131.53 161.895C131.166 162.043 130.754 162.117 130.293 162.117C129.864 162.117 129.469 162.043 129.11 161.895C128.754 161.742 128.446 161.523 128.184 161.238C127.926 160.953 127.725 160.604 127.58 160.189C127.44 159.775 127.369 159.305 127.369 158.777C127.369 158.074 127.489 157.477 127.727 156.984C127.965 156.488 128.305 156.111 128.746 155.854C129.192 155.592 129.721 155.461 130.334 155.461C130.92 155.461 131.432 155.592 131.869 155.854C132.311 156.115 132.653 156.494 132.895 156.99C133.141 157.482 133.264 158.078 133.264 158.777ZM128.377 158.777C128.377 159.293 128.446 159.74 128.582 160.119C128.719 160.498 128.93 160.791 129.215 160.998C129.5 161.205 129.867 161.309 130.317 161.309C130.762 161.309 131.127 161.205 131.412 160.998C131.701 160.791 131.914 160.498 132.051 160.119C132.188 159.74 132.256 159.293 132.256 158.777C132.256 158.266 132.188 157.824 132.051 157.453C131.914 157.078 131.703 156.789 131.418 156.586C131.133 156.383 130.764 156.281 130.311 156.281C129.643 156.281 129.153 156.502 128.84 156.943C128.532 157.385 128.377 157.996 128.377 158.777ZM135.912 162H134.934V152.883H135.912V162ZM140.242 162.117C139.429 162.117 138.785 161.84 138.308 161.285C137.836 160.73 137.599 159.906 137.599 158.812C137.599 157.707 137.841 156.873 138.326 156.311C138.81 155.744 139.455 155.461 140.259 155.461C140.599 155.461 140.896 155.506 141.15 155.596C141.404 155.686 141.623 155.807 141.806 155.959C141.99 156.107 142.144 156.277 142.269 156.469H142.34C142.324 156.348 142.308 156.182 142.293 155.971C142.277 155.76 142.269 155.588 142.269 155.455V152.883H143.242V162H142.457L142.31 161.086H142.269C142.148 161.277 141.994 161.451 141.806 161.607C141.623 161.764 141.402 161.889 141.144 161.982C140.89 162.072 140.59 162.117 140.242 162.117ZM140.394 161.309C141.082 161.309 141.568 161.113 141.853 160.723C142.138 160.332 142.281 159.752 142.281 158.982V158.807C142.281 157.99 142.144 157.363 141.871 156.926C141.601 156.488 141.109 156.27 140.394 156.27C139.797 156.27 139.349 156.5 139.052 156.961C138.756 157.418 138.607 158.043 138.607 158.836C138.607 159.625 138.754 160.234 139.047 160.664C139.343 161.094 139.793 161.309 140.394 161.309ZM147.765 155.461C148.312 155.461 148.781 155.582 149.171 155.824C149.562 156.066 149.861 156.406 150.068 156.844C150.275 157.277 150.378 157.785 150.378 158.367V158.971H145.943C145.954 159.725 146.142 160.299 146.505 160.693C146.869 161.088 147.38 161.285 148.04 161.285C148.447 161.285 148.806 161.248 149.119 161.174C149.431 161.1 149.755 160.99 150.091 160.846V161.701C149.767 161.846 149.445 161.951 149.124 162.018C148.808 162.084 148.433 162.117 147.999 162.117C147.382 162.117 146.843 161.992 146.382 161.742C145.925 161.488 145.57 161.117 145.316 160.629C145.062 160.141 144.935 159.543 144.935 158.836C144.935 158.145 145.05 157.547 145.281 157.043C145.515 156.535 145.843 156.145 146.265 155.871C146.691 155.598 147.191 155.461 147.765 155.461ZM147.753 156.258C147.234 156.258 146.82 156.428 146.511 156.768C146.203 157.107 146.019 157.582 145.96 158.191H149.359C149.355 157.809 149.294 157.473 149.177 157.184C149.064 156.891 148.89 156.664 148.656 156.504C148.421 156.34 148.121 156.258 147.753 156.258ZM154.937 155.461C155.066 155.461 155.2 155.469 155.341 155.484C155.482 155.496 155.607 155.514 155.716 155.537L155.593 156.439C155.487 156.412 155.37 156.391 155.241 156.375C155.112 156.359 154.991 156.352 154.878 156.352C154.62 156.352 154.376 156.404 154.146 156.51C153.919 156.611 153.72 156.76 153.548 156.955C153.376 157.146 153.241 157.379 153.144 157.652C153.046 157.922 152.997 158.223 152.997 158.555V162H152.019V155.578H152.827L152.933 156.762H152.974C153.107 156.523 153.267 156.307 153.454 156.111C153.642 155.912 153.859 155.754 154.105 155.637C154.355 155.52 154.632 155.461 154.937 155.461Z" fill="#8F95B2"/>
<rect x="80.5" y="141.5" width="249" height="31" rx="3.5" stroke="#D8DAE5"/>
<path d="M81.5 236V224.578H83.375V234.406H88.2266V236H81.5ZM93.4062 227.188C94.5 227.188 95.3255 227.43 95.8828 227.914C96.4453 228.398 96.7266 229.154 96.7266 230.18V236H95.4219L95.0703 234.773H95.0078C94.763 235.086 94.5104 235.344 94.25 235.547C93.9896 235.75 93.6875 235.901 93.3438 236C93.0052 236.104 92.5911 236.156 92.1016 236.156C91.5859 236.156 91.125 236.062 90.7188 235.875C90.3125 235.682 89.9922 235.391 89.7578 235C89.5234 234.609 89.4062 234.115 89.4062 233.516C89.4062 232.625 89.737 231.956 90.3984 231.508C91.0651 231.06 92.0703 230.812 93.4141 230.766L94.9141 230.711V230.258C94.9141 229.659 94.7734 229.232 94.4922 228.977C94.2161 228.721 93.8255 228.594 93.3203 228.594C92.888 228.594 92.4688 228.656 92.0625 228.781C91.6562 228.906 91.2604 229.06 90.875 229.242L90.2812 227.945C90.7031 227.721 91.1823 227.539 91.7188 227.398C92.2604 227.258 92.8229 227.188 93.4062 227.188ZM94.9062 231.867L93.7891 231.906C92.8724 231.938 92.2292 232.094 91.8594 232.375C91.4896 232.656 91.3047 233.042 91.3047 233.531C91.3047 233.958 91.4323 234.271 91.6875 234.469C91.9427 234.661 92.2786 234.758 92.6953 234.758C93.3307 234.758 93.8568 234.578 94.2734 234.219C94.6953 233.854 94.9062 233.32 94.9062 232.617V231.867ZM101.133 223.844V226.773C101.133 227.112 101.122 227.445 101.102 227.773C101.086 228.096 101.07 228.349 101.055 228.531H101.133C101.367 228.156 101.693 227.841 102.109 227.586C102.531 227.326 103.07 227.195 103.727 227.195C104.753 227.195 105.578 227.573 106.203 228.328C106.828 229.078 107.141 230.19 107.141 231.664C107.141 232.643 106.997 233.466 106.711 234.133C106.424 234.799 106.021 235.305 105.5 235.648C104.984 235.987 104.378 236.156 103.68 236.156C103.023 236.156 102.492 236.036 102.086 235.797C101.685 235.552 101.37 235.268 101.141 234.945H101.008L100.672 236H99.2969V223.844H101.133ZM103.242 228.688C102.721 228.688 102.307 228.792 102 229C101.698 229.208 101.479 229.521 101.344 229.938C101.208 230.349 101.138 230.872 101.133 231.508V231.672C101.133 232.635 101.284 233.372 101.586 233.883C101.893 234.393 102.451 234.648 103.258 234.648C103.898 234.648 104.391 234.391 104.734 233.875C105.078 233.354 105.25 232.609 105.25 231.641C105.25 230.661 105.078 229.924 104.734 229.43C104.396 228.935 103.898 228.688 103.242 228.688ZM112.711 227.188C113.482 227.188 114.143 227.346 114.695 227.664C115.247 227.982 115.672 228.432 115.969 229.016C116.266 229.599 116.414 230.297 116.414 231.109V232.094H110.641C110.661 232.932 110.885 233.578 111.312 234.031C111.745 234.484 112.349 234.711 113.125 234.711C113.677 234.711 114.172 234.659 114.609 234.555C115.052 234.445 115.508 234.286 115.977 234.078V235.57C115.544 235.773 115.104 235.922 114.656 236.016C114.208 236.109 113.672 236.156 113.047 236.156C112.198 236.156 111.451 235.992 110.805 235.664C110.164 235.331 109.661 234.836 109.297 234.18C108.938 233.523 108.758 232.708 108.758 231.734C108.758 230.766 108.922 229.943 109.25 229.266C109.578 228.589 110.039 228.073 110.633 227.719C111.227 227.365 111.919 227.188 112.711 227.188ZM112.711 228.57C112.133 228.57 111.664 228.758 111.305 229.133C110.951 229.508 110.742 230.057 110.68 230.781H114.617C114.612 230.349 114.539 229.966 114.398 229.633C114.263 229.299 114.055 229.039 113.773 228.852C113.497 228.664 113.143 228.57 112.711 228.57ZM120.328 236H118.484V223.844H120.328V236Z" fill="#474D66"/>
<rect x="80.5" y="250.5" width="249" height="31" rx="3.5" fill="#F4F6FA"/>
<path d="M91.4102 262.434C92.5156 262.434 93.3223 262.65 93.8301 263.084C94.3418 263.514 94.5977 264.131 94.5977 264.936C94.5977 265.299 94.5371 265.645 94.416 265.973C94.2988 266.297 94.1074 266.584 93.8418 266.834C93.5762 267.08 93.2266 267.275 92.793 267.42C92.3633 267.561 91.8359 267.631 91.2109 267.631H90.168V271H89.1719V262.434H91.4102ZM91.3164 263.283H90.168V266.775H91.0996C91.6465 266.775 92.1016 266.717 92.4648 266.6C92.832 266.482 93.1074 266.293 93.291 266.031C93.4746 265.766 93.5664 265.414 93.5664 264.977C93.5664 264.406 93.3848 263.982 93.0215 263.705C92.6582 263.424 92.0898 263.283 91.3164 263.283ZM97.2227 271H96.2441V261.883H97.2227V271ZM101.682 264.473C102.447 264.473 103.016 264.645 103.387 264.988C103.758 265.332 103.943 265.881 103.943 266.635V271H103.234L103.047 270.051H103C102.82 270.285 102.633 270.482 102.438 270.643C102.242 270.799 102.016 270.918 101.758 271C101.504 271.078 101.191 271.117 100.82 271.117C100.43 271.117 100.082 271.049 99.7773 270.912C99.4766 270.775 99.2383 270.568 99.0625 270.291C98.8906 270.014 98.8047 269.662 98.8047 269.236C98.8047 268.596 99.0586 268.104 99.5664 267.76C100.074 267.416 100.848 267.229 101.887 267.197L102.994 267.15V266.758C102.994 266.203 102.875 265.814 102.637 265.592C102.398 265.369 102.062 265.258 101.629 265.258C101.293 265.258 100.973 265.307 100.668 265.404C100.363 265.502 100.074 265.617 99.8008 265.75L99.502 265.012C99.791 264.863 100.123 264.736 100.498 264.631C100.873 264.525 101.268 264.473 101.682 264.473ZM102.982 267.836L102.004 267.877C101.203 267.908 100.639 268.039 100.311 268.27C99.9824 268.5 99.8184 268.826 99.8184 269.248C99.8184 269.615 99.9297 269.887 100.152 270.062C100.375 270.238 100.67 270.326 101.037 270.326C101.607 270.326 102.074 270.168 102.438 269.852C102.801 269.535 102.982 269.061 102.982 268.428V267.836ZM108.52 271.117C107.941 271.117 107.432 270.998 106.99 270.76C106.549 270.521 106.205 270.158 105.959 269.67C105.713 269.182 105.59 268.566 105.59 267.824C105.59 267.047 105.719 266.412 105.977 265.92C106.238 265.424 106.598 265.057 107.055 264.818C107.512 264.58 108.031 264.461 108.613 264.461C108.934 264.461 109.242 264.494 109.539 264.561C109.84 264.623 110.086 264.703 110.277 264.801L109.984 265.615C109.789 265.537 109.562 265.467 109.305 265.404C109.051 265.342 108.812 265.311 108.59 265.311C108.145 265.311 107.773 265.406 107.477 265.598C107.184 265.789 106.963 266.07 106.814 266.441C106.67 266.812 106.598 267.27 106.598 267.812C106.598 268.332 106.668 268.775 106.809 269.143C106.953 269.51 107.166 269.791 107.447 269.986C107.732 270.178 108.088 270.273 108.514 270.273C108.854 270.273 109.16 270.238 109.434 270.168C109.707 270.094 109.955 270.008 110.178 269.91V270.777C109.963 270.887 109.723 270.971 109.457 271.029C109.195 271.088 108.883 271.117 108.52 271.117ZM114.174 264.461C114.721 264.461 115.189 264.582 115.58 264.824C115.971 265.066 116.27 265.406 116.477 265.844C116.684 266.277 116.787 266.785 116.787 267.367V267.971H112.352C112.363 268.725 112.551 269.299 112.914 269.693C113.277 270.088 113.789 270.285 114.449 270.285C114.855 270.285 115.215 270.248 115.527 270.174C115.84 270.1 116.164 269.99 116.5 269.846V270.701C116.176 270.846 115.854 270.951 115.533 271.018C115.217 271.084 114.842 271.117 114.408 271.117C113.791 271.117 113.252 270.992 112.791 270.742C112.334 270.488 111.979 270.117 111.725 269.629C111.471 269.141 111.344 268.543 111.344 267.836C111.344 267.145 111.459 266.547 111.689 266.043C111.924 265.535 112.252 265.145 112.674 264.871C113.1 264.598 113.6 264.461 114.174 264.461ZM114.162 265.258C113.643 265.258 113.229 265.428 112.92 265.768C112.611 266.107 112.428 266.582 112.369 267.191H115.768C115.764 266.809 115.703 266.473 115.586 266.184C115.473 265.891 115.299 265.664 115.064 265.504C114.83 265.34 114.529 265.258 114.162 265.258ZM119.412 261.883V264.607C119.412 264.764 119.408 264.922 119.4 265.082C119.393 265.238 119.379 265.383 119.359 265.516H119.424C119.557 265.289 119.725 265.1 119.928 264.947C120.135 264.791 120.369 264.674 120.631 264.596C120.893 264.514 121.17 264.473 121.463 264.473C121.979 264.473 122.408 264.555 122.752 264.719C123.1 264.883 123.359 265.137 123.531 265.48C123.707 265.824 123.795 266.27 123.795 266.816V271H122.834V266.881C122.834 266.346 122.711 265.945 122.465 265.68C122.223 265.414 121.85 265.281 121.346 265.281C120.869 265.281 120.488 265.373 120.203 265.557C119.922 265.736 119.719 266.002 119.594 266.354C119.473 266.705 119.412 267.135 119.412 267.643V271H118.439V261.883H119.412ZM131.336 267.777C131.336 268.305 131.268 268.775 131.131 269.189C130.994 269.604 130.797 269.953 130.539 270.238C130.281 270.523 129.969 270.742 129.602 270.895C129.238 271.043 128.826 271.117 128.365 271.117C127.936 271.117 127.541 271.043 127.182 270.895C126.826 270.742 126.518 270.523 126.256 270.238C125.998 269.953 125.797 269.604 125.652 269.189C125.512 268.775 125.441 268.305 125.441 267.777C125.441 267.074 125.561 266.477 125.799 265.984C126.037 265.488 126.377 265.111 126.818 264.854C127.264 264.592 127.793 264.461 128.406 264.461C128.992 264.461 129.504 264.592 129.941 264.854C130.383 265.115 130.725 265.494 130.967 265.99C131.213 266.482 131.336 267.078 131.336 267.777ZM126.449 267.777C126.449 268.293 126.518 268.74 126.654 269.119C126.791 269.498 127.002 269.791 127.287 269.998C127.572 270.205 127.939 270.309 128.389 270.309C128.834 270.309 129.199 270.205 129.484 269.998C129.773 269.791 129.986 269.498 130.123 269.119C130.26 268.74 130.328 268.293 130.328 267.777C130.328 267.266 130.26 266.824 130.123 266.453C129.986 266.078 129.775 265.789 129.49 265.586C129.205 265.383 128.836 265.281 128.383 265.281C127.715 265.281 127.225 265.502 126.912 265.943C126.604 266.385 126.449 266.996 126.449 267.777ZM133.996 271H133.018V261.883H133.996V271ZM138.338 271.117C137.525 271.117 136.881 270.84 136.404 270.285C135.932 269.73 135.695 268.906 135.695 267.812C135.695 266.707 135.938 265.873 136.422 265.311C136.906 264.744 137.551 264.461 138.355 264.461C138.695 264.461 138.992 264.506 139.246 264.596C139.5 264.686 139.719 264.807 139.902 264.959C140.086 265.107 140.24 265.277 140.365 265.469H140.436C140.42 265.348 140.404 265.182 140.389 264.971C140.373 264.76 140.365 264.588 140.365 264.455V261.883H141.338V271H140.553L140.406 270.086H140.365C140.244 270.277 140.09 270.451 139.902 270.607C139.719 270.764 139.498 270.889 139.24 270.982C138.986 271.072 138.686 271.117 138.338 271.117ZM138.49 270.309C139.178 270.309 139.664 270.113 139.949 269.723C140.234 269.332 140.377 268.752 140.377 267.982V267.807C140.377 266.99 140.24 266.363 139.967 265.926C139.697 265.488 139.205 265.27 138.49 265.27C137.893 265.27 137.445 265.5 137.148 265.961C136.852 266.418 136.703 267.043 136.703 267.836C136.703 268.625 136.85 269.234 137.143 269.664C137.439 270.094 137.889 270.309 138.49 270.309ZM145.873 264.461C146.42 264.461 146.889 264.582 147.279 264.824C147.67 265.066 147.969 265.406 148.176 265.844C148.383 266.277 148.486 266.785 148.486 267.367V267.971H144.051C144.062 268.725 144.25 269.299 144.613 269.693C144.977 270.088 145.488 270.285 146.148 270.285C146.555 270.285 146.914 270.248 147.227 270.174C147.539 270.1 147.863 269.99 148.199 269.846V270.701C147.875 270.846 147.553 270.951 147.232 271.018C146.916 271.084 146.541 271.117 146.107 271.117C145.49 271.117 144.951 270.992 144.49 270.742C144.033 270.488 143.678 270.117 143.424 269.629C143.17 269.141 143.043 268.543 143.043 267.836C143.043 267.145 143.158 266.547 143.389 266.043C143.623 265.535 143.951 265.145 144.373 264.871C144.799 264.598 145.299 264.461 145.873 264.461ZM145.861 265.258C145.342 265.258 144.928 265.428 144.619 265.768C144.311 266.107 144.127 266.582 144.068 267.191H147.467C147.463 266.809 147.402 266.473 147.285 266.184C147.172 265.891 146.998 265.664 146.764 265.504C146.529 265.34 146.229 265.258 145.861 265.258ZM153.057 264.461C153.186 264.461 153.32 264.469 153.461 264.484C153.602 264.496 153.727 264.514 153.836 264.537L153.713 265.439C153.607 265.412 153.49 265.391 153.361 265.375C153.232 265.359 153.111 265.352 152.998 265.352C152.74 265.352 152.496 265.404 152.266 265.51C152.039 265.611 151.84 265.76 151.668 265.955C151.496 266.146 151.361 266.379 151.264 266.652C151.166 266.922 151.117 267.223 151.117 267.555V271H150.139V264.578H150.947L151.053 265.762H151.094C151.227 265.523 151.387 265.307 151.574 265.111C151.762 264.912 151.979 264.754 152.225 264.637C152.475 264.52 152.752 264.461 153.057 264.461Z" fill="#8F95B2"/>
<rect x="80.5" y="250.5" width="249" height="31" rx="3.5" stroke="#E6E8F0"/>
<rect x="77.5" y="327.5" width="499" height="31" rx="3.5" fill="#F4F6FA"/>
<path d="M151 358V327.5" stroke="#E6E8F0" stroke-dasharray="2 2"/>
<path d="M227 358.5V328" stroke="#E6E8F0" stroke-dasharray="2 2"/>
<path d="M326 358.5V328" stroke="#E6E8F0" stroke-dasharray="2 2"/>
<path d="M426 358.5V328" stroke="#E6E8F0" stroke-dasharray="2 2"/>
<rect x="77.5" y="327.5" width="499" height="31" rx="3.5" stroke="#E6E8F0"/>
<path d="M139.25 374L142.072 367.882H138.361V366.871H143.298V367.672L140.49 374H139.25ZM146.574 369.542C147.294 369.542 147.863 369.732 148.283 370.113C148.703 370.494 148.913 371.013 148.913 371.671C148.913 372.433 148.674 373.028 148.195 373.458C147.72 373.884 147.043 374.098 146.164 374.098C145.367 374.098 144.74 373.969 144.284 373.712V372.672C144.548 372.822 144.851 372.937 145.192 373.019C145.534 373.1 145.852 373.141 146.145 373.141C146.662 373.141 147.056 373.025 147.326 372.794C147.596 372.563 147.731 372.224 147.731 371.778C147.731 370.925 147.188 370.499 146.101 370.499C145.948 370.499 145.759 370.515 145.534 370.548C145.31 370.577 145.113 370.611 144.943 370.65L144.431 370.348L144.704 366.861H148.415V367.882H145.715L145.554 369.649C145.668 369.63 145.806 369.607 145.969 369.581C146.135 369.555 146.337 369.542 146.574 369.542ZM152.985 374.098C152.302 374.098 151.771 373.852 151.394 373.36H151.325C151.371 373.816 151.394 374.093 151.394 374.19V376.402H150.246V368.6H151.174C151.2 368.701 151.254 368.941 151.335 369.322H151.394C151.752 368.775 152.289 368.502 153.005 368.502C153.679 368.502 154.203 368.746 154.577 369.234C154.955 369.723 155.144 370.408 155.144 371.29C155.144 372.172 154.951 372.861 154.567 373.355C154.187 373.85 153.659 374.098 152.985 374.098ZM152.707 369.439C152.251 369.439 151.918 369.573 151.706 369.84C151.498 370.107 151.394 370.533 151.394 371.119V371.29C151.394 371.948 151.498 372.424 151.706 372.721C151.914 373.014 152.255 373.16 152.727 373.16C153.124 373.16 153.43 372.997 153.645 372.672C153.859 372.346 153.967 371.882 153.967 371.28C153.967 370.675 153.859 370.217 153.645 369.908C153.433 369.596 153.12 369.439 152.707 369.439ZM157.678 371.241L155.866 368.6H157.175L158.405 370.489L159.646 368.6H160.944L159.128 371.241L161.037 374H159.738L158.405 371.979L157.077 374H155.778L157.678 371.241ZM138.4 387.261C138.4 386.398 138.526 385.591 138.776 384.839C139.03 384.087 139.395 383.428 139.87 382.861H140.871C140.419 383.473 140.072 384.16 139.831 384.922C139.59 385.68 139.47 386.457 139.47 387.251C139.47 388.045 139.59 388.815 139.831 389.561C140.072 390.306 140.415 390.98 140.861 391.582H139.87C139.392 391.029 139.027 390.382 138.776 389.644C138.526 388.905 138.4 388.11 138.4 387.261ZM146.545 390H145.393V386.67C145.393 386.257 145.314 385.949 145.158 385.747C145.002 385.542 144.758 385.439 144.426 385.439C143.983 385.439 143.658 385.584 143.449 385.874C143.244 386.16 143.142 386.639 143.142 387.31V390H141.994V384.6H142.893L143.054 385.308H143.112C143.262 385.05 143.479 384.852 143.762 384.712C144.048 384.572 144.362 384.502 144.704 384.502C145.534 384.502 146.084 384.785 146.354 385.352H146.433C146.592 385.085 146.817 384.876 147.106 384.727C147.396 384.577 147.728 384.502 148.103 384.502C148.747 384.502 149.216 384.665 149.509 384.99C149.805 385.316 149.953 385.812 149.953 386.479V390H148.806V386.67C148.806 386.257 148.726 385.949 148.566 385.747C148.41 385.542 148.166 385.439 147.834 385.439C147.388 385.439 147.061 385.579 146.853 385.859C146.647 386.136 146.545 386.562 146.545 387.139V390ZM152.702 390H151.555V384.6H152.702V390ZM151.486 383.169C151.486 382.964 151.542 382.806 151.652 382.695C151.766 382.585 151.927 382.529 152.136 382.529C152.338 382.529 152.494 382.585 152.604 382.695C152.718 382.806 152.775 382.964 152.775 383.169C152.775 383.364 152.718 383.519 152.604 383.633C152.494 383.743 152.338 383.799 152.136 383.799C151.927 383.799 151.766 383.743 151.652 383.633C151.542 383.519 151.486 383.364 151.486 383.169ZM159.099 390H157.946V386.68C157.946 386.263 157.862 385.952 157.692 385.747C157.526 385.542 157.261 385.439 156.896 385.439C156.411 385.439 156.057 385.583 155.832 385.869C155.607 386.156 155.495 386.636 155.495 387.31V390H154.348V384.6H155.246L155.407 385.308H155.466C155.629 385.05 155.86 384.852 156.159 384.712C156.459 384.572 156.791 384.502 157.155 384.502C158.451 384.502 159.099 385.161 159.099 386.479V390ZM162.644 387.261C162.644 388.117 162.517 388.914 162.263 389.653C162.012 390.392 161.649 391.035 161.174 391.582H160.183C160.632 390.973 160.975 390.298 161.213 389.556C161.454 388.813 161.574 388.045 161.574 387.251C161.574 386.453 161.454 385.677 161.213 384.922C160.972 384.163 160.625 383.477 160.173 382.861H161.174C161.652 383.431 162.017 384.093 162.268 384.849C162.518 385.601 162.644 386.405 162.644 387.261Z" fill="#8F95B2"/>
<path d="M217.809 374H216.661V369.391C216.661 368.84 216.674 368.404 216.7 368.082C216.625 368.16 216.533 368.246 216.422 368.341C216.314 368.435 215.95 368.735 215.328 369.239L214.752 368.512L216.852 366.861H217.809V374ZM222.574 369.542C223.294 369.542 223.863 369.732 224.283 370.113C224.703 370.494 224.913 371.013 224.913 371.671C224.913 372.433 224.674 373.028 224.195 373.458C223.72 373.884 223.043 374.098 222.164 374.098C221.367 374.098 220.74 373.969 220.284 373.712V372.672C220.548 372.822 220.851 372.937 221.192 373.019C221.534 373.1 221.852 373.141 222.145 373.141C222.662 373.141 223.056 373.025 223.326 372.794C223.596 372.563 223.731 372.224 223.731 371.778C223.731 370.925 223.188 370.499 222.101 370.499C221.948 370.499 221.759 370.515 221.534 370.548C221.31 370.577 221.113 370.611 220.943 370.65L220.431 370.348L220.704 366.861H224.415V367.882H221.715L221.554 369.649C221.668 369.63 221.806 369.607 221.969 369.581C222.135 369.555 222.337 369.542 222.574 369.542ZM230.704 370.431C230.704 371.671 230.504 372.592 230.104 373.194C229.706 373.797 229.098 374.098 228.277 374.098C227.483 374.098 226.881 373.787 226.471 373.165C226.061 372.543 225.855 371.632 225.855 370.431C225.855 369.171 226.054 368.243 226.451 367.647C226.852 367.049 227.46 366.749 228.277 366.749C229.075 366.749 229.679 367.062 230.089 367.687C230.499 368.312 230.704 369.226 230.704 370.431ZM227.018 370.431C227.018 371.404 227.117 372.099 227.315 372.516C227.517 372.932 227.838 373.141 228.277 373.141C228.717 373.141 229.037 372.929 229.239 372.506C229.444 372.083 229.547 371.391 229.547 370.431C229.547 369.474 229.444 368.782 229.239 368.355C229.037 367.926 228.717 367.711 228.277 367.711C227.838 367.711 227.517 367.921 227.315 368.341C227.117 368.761 227.018 369.457 227.018 370.431ZM234.698 374.098C234.015 374.098 233.484 373.852 233.106 373.36H233.038C233.084 373.816 233.106 374.093 233.106 374.19V376.402H231.959V368.6H232.887C232.913 368.701 232.966 368.941 233.048 369.322H233.106C233.465 368.775 234.002 368.502 234.718 368.502C235.392 368.502 235.916 368.746 236.29 369.234C236.668 369.723 236.856 370.408 236.856 371.29C236.856 372.172 236.664 372.861 236.28 373.355C235.899 373.85 235.372 374.098 234.698 374.098ZM234.42 369.439C233.964 369.439 233.631 369.573 233.419 369.84C233.211 370.107 233.106 370.533 233.106 371.119V371.29C233.106 371.948 233.211 372.424 233.419 372.721C233.627 373.014 233.967 373.16 234.439 373.16C234.837 373.16 235.143 372.997 235.357 372.672C235.572 372.346 235.68 371.882 235.68 371.28C235.68 370.675 235.572 370.217 235.357 369.908C235.146 369.596 234.833 369.439 234.42 369.439ZM239.391 371.241L237.579 368.6H238.888L240.118 370.489L241.358 368.6H242.657L240.841 371.241L242.75 374H241.451L240.118 371.979L238.79 374H237.491L239.391 371.241Z" fill="#8F95B2"/>
<path d="M315.278 374H310.439V373.131L312.28 371.28C312.824 370.724 313.184 370.33 313.359 370.099C313.538 369.864 313.669 369.645 313.75 369.439C313.831 369.234 313.872 369.015 313.872 368.78C313.872 368.458 313.774 368.204 313.579 368.019C313.387 367.833 313.12 367.74 312.778 367.74C312.505 367.74 312.24 367.791 311.982 367.892C311.729 367.993 311.434 368.175 311.099 368.438L310.479 367.682C310.876 367.346 311.261 367.109 311.636 366.969C312.01 366.829 312.409 366.759 312.832 366.759C313.496 366.759 314.028 366.933 314.429 367.281C314.829 367.626 315.029 368.092 315.029 368.678C315.029 369 314.971 369.306 314.854 369.596C314.74 369.885 314.562 370.185 314.321 370.494C314.084 370.8 313.687 371.215 313.13 371.739L311.89 372.94V372.989H315.278V374ZM318.574 369.542C319.294 369.542 319.863 369.732 320.283 370.113C320.703 370.494 320.913 371.013 320.913 371.671C320.913 372.433 320.674 373.028 320.195 373.458C319.72 373.884 319.043 374.098 318.164 374.098C317.367 374.098 316.74 373.969 316.284 373.712V372.672C316.548 372.822 316.851 372.937 317.192 373.019C317.534 373.1 317.852 373.141 318.145 373.141C318.662 373.141 319.056 373.025 319.326 372.794C319.596 372.563 319.731 372.224 319.731 371.778C319.731 370.925 319.188 370.499 318.101 370.499C317.948 370.499 317.759 370.515 317.534 370.548C317.31 370.577 317.113 370.611 316.943 370.65L316.431 370.348L316.704 366.861H320.415V367.882H317.715L317.554 369.649C317.668 369.63 317.806 369.607 317.969 369.581C318.135 369.555 318.337 369.542 318.574 369.542ZM326.704 370.431C326.704 371.671 326.504 372.592 326.104 373.194C325.706 373.797 325.098 374.098 324.277 374.098C323.483 374.098 322.881 373.787 322.471 373.165C322.061 372.543 321.855 371.632 321.855 370.431C321.855 369.171 322.054 368.243 322.451 367.647C322.852 367.049 323.46 366.749 324.277 366.749C325.075 366.749 325.679 367.062 326.089 367.687C326.499 368.312 326.704 369.226 326.704 370.431ZM323.018 370.431C323.018 371.404 323.117 372.099 323.315 372.516C323.517 372.932 323.838 373.141 324.277 373.141C324.717 373.141 325.037 372.929 325.239 372.506C325.444 372.083 325.547 371.391 325.547 370.431C325.547 369.474 325.444 368.782 325.239 368.355C325.037 367.926 324.717 367.711 324.277 367.711C323.838 367.711 323.517 367.921 323.315 368.341C323.117 368.761 323.018 369.457 323.018 370.431ZM330.698 374.098C330.015 374.098 329.484 373.852 329.106 373.36H329.038C329.084 373.816 329.106 374.093 329.106 374.19V376.402H327.959V368.6H328.887C328.913 368.701 328.966 368.941 329.048 369.322H329.106C329.465 368.775 330.002 368.502 330.718 368.502C331.392 368.502 331.916 368.746 332.29 369.234C332.668 369.723 332.856 370.408 332.856 371.29C332.856 372.172 332.664 372.861 332.28 373.355C331.899 373.85 331.372 374.098 330.698 374.098ZM330.42 369.439C329.964 369.439 329.631 369.573 329.419 369.84C329.211 370.107 329.106 370.533 329.106 371.119V371.29C329.106 371.948 329.211 372.424 329.419 372.721C329.627 373.014 329.967 373.16 330.439 373.16C330.837 373.16 331.143 372.997 331.357 372.672C331.572 372.346 331.68 371.882 331.68 371.28C331.68 370.675 331.572 370.217 331.357 369.908C331.146 369.596 330.833 369.439 330.42 369.439ZM335.391 371.241L333.579 368.6H334.888L336.118 370.489L337.358 368.6H338.657L336.841 371.241L338.75 374H337.451L336.118 371.979L334.79 374H333.491L335.391 371.241Z" fill="#8F95B2"/>
<path d="M415.01 368.502C415.01 368.954 414.878 369.332 414.614 369.635C414.351 369.934 413.979 370.136 413.501 370.24V370.279C414.074 370.351 414.504 370.53 414.79 370.816C415.076 371.1 415.22 371.477 415.22 371.949C415.22 372.636 414.977 373.167 414.492 373.541C414.007 373.912 413.317 374.098 412.422 374.098C411.631 374.098 410.964 373.969 410.42 373.712V372.691C410.723 372.841 411.043 372.957 411.382 373.038C411.72 373.119 412.046 373.16 412.358 373.16C412.912 373.16 413.325 373.058 413.599 372.853C413.872 372.647 414.009 372.33 414.009 371.9C414.009 371.52 413.857 371.24 413.555 371.061C413.252 370.882 412.777 370.792 412.129 370.792H411.509V369.859H412.139C413.278 369.859 413.848 369.465 413.848 368.678C413.848 368.372 413.748 368.136 413.55 367.97C413.351 367.804 413.058 367.721 412.671 367.721C412.401 367.721 412.14 367.76 411.89 367.838C411.639 367.913 411.343 368.061 411.001 368.282L410.439 367.481C411.094 367 411.854 366.759 412.72 366.759C413.439 366.759 414.001 366.913 414.404 367.223C414.808 367.532 415.01 367.958 415.01 368.502ZM418.574 369.542C419.294 369.542 419.863 369.732 420.283 370.113C420.703 370.494 420.913 371.013 420.913 371.671C420.913 372.433 420.674 373.028 420.195 373.458C419.72 373.884 419.043 374.098 418.164 374.098C417.367 374.098 416.74 373.969 416.284 373.712V372.672C416.548 372.822 416.851 372.937 417.192 373.019C417.534 373.1 417.852 373.141 418.145 373.141C418.662 373.141 419.056 373.025 419.326 372.794C419.596 372.563 419.731 372.224 419.731 371.778C419.731 370.925 419.188 370.499 418.101 370.499C417.948 370.499 417.759 370.515 417.534 370.548C417.31 370.577 417.113 370.611 416.943 370.65L416.431 370.348L416.704 366.861H420.415V367.882H417.715L417.554 369.649C417.668 369.63 417.806 369.607 417.969 369.581C418.135 369.555 418.337 369.542 418.574 369.542ZM426.704 370.431C426.704 371.671 426.504 372.592 426.104 373.194C425.706 373.797 425.098 374.098 424.277 374.098C423.483 374.098 422.881 373.787 422.471 373.165C422.061 372.543 421.855 371.632 421.855 370.431C421.855 369.171 422.054 368.243 422.451 367.647C422.852 367.049 423.46 366.749 424.277 366.749C425.075 366.749 425.679 367.062 426.089 367.687C426.499 368.312 426.704 369.226 426.704 370.431ZM423.018 370.431C423.018 371.404 423.117 372.099 423.315 372.516C423.517 372.932 423.838 373.141 424.277 373.141C424.717 373.141 425.037 372.929 425.239 372.506C425.444 372.083 425.547 371.391 425.547 370.431C425.547 369.474 425.444 368.782 425.239 368.355C425.037 367.926 424.717 367.711 424.277 367.711C423.838 367.711 423.517 367.921 423.315 368.341C423.117 368.761 423.018 369.457 423.018 370.431ZM430.698 374.098C430.015 374.098 429.484 373.852 429.106 373.36H429.038C429.084 373.816 429.106 374.093 429.106 374.19V376.402H427.959V368.6H428.887C428.913 368.701 428.966 368.941 429.048 369.322H429.106C429.465 368.775 430.002 368.502 430.718 368.502C431.392 368.502 431.916 368.746 432.29 369.234C432.668 369.723 432.856 370.408 432.856 371.29C432.856 372.172 432.664 372.861 432.28 373.355C431.899 373.85 431.372 374.098 430.698 374.098ZM430.42 369.439C429.964 369.439 429.631 369.573 429.419 369.84C429.211 370.107 429.106 370.533 429.106 371.119V371.29C429.106 371.948 429.211 372.424 429.419 372.721C429.627 373.014 429.967 373.16 430.439 373.16C430.837 373.16 431.143 372.997 431.357 372.672C431.572 372.346 431.68 371.882 431.68 371.28C431.68 370.675 431.572 370.217 431.357 369.908C431.146 369.596 430.833 369.439 430.42 369.439ZM435.391 371.241L433.579 368.6H434.888L436.118 370.489L437.358 368.6H438.657L436.841 371.241L438.75 374H437.451L436.118 371.979L434.79 374H433.491L435.391 371.241Z" fill="#8F95B2"/>
<path d="M558.861 366.542C559.581 366.542 560.15 366.732 560.57 367.113C560.99 367.494 561.2 368.013 561.2 368.671C561.2 369.433 560.961 370.028 560.482 370.458C560.007 370.884 559.33 371.098 558.451 371.098C557.654 371.098 557.027 370.969 556.571 370.712V369.672C556.835 369.822 557.138 369.937 557.479 370.019C557.821 370.1 558.139 370.141 558.432 370.141C558.949 370.141 559.343 370.025 559.613 369.794C559.883 369.563 560.019 369.224 560.019 368.778C560.019 367.925 559.475 367.499 558.388 367.499C558.235 367.499 558.046 367.515 557.821 367.548C557.597 367.577 557.4 367.611 557.23 367.65L556.718 367.348L556.991 363.861H560.702V364.882H558.002L557.841 366.649C557.955 366.63 558.093 366.607 558.256 366.581C558.422 366.555 558.624 366.542 558.861 366.542ZM566.991 367.431C566.991 368.671 566.791 369.592 566.391 370.194C565.993 370.797 565.385 371.098 564.564 371.098C563.77 371.098 563.168 370.787 562.758 370.165C562.348 369.543 562.143 368.632 562.143 367.431C562.143 366.171 562.341 365.243 562.738 364.647C563.139 364.049 563.747 363.749 564.564 363.749C565.362 363.749 565.966 364.062 566.376 364.687C566.786 365.312 566.991 366.226 566.991 367.431ZM563.305 367.431C563.305 368.404 563.404 369.099 563.603 369.516C563.804 369.932 564.125 370.141 564.564 370.141C565.004 370.141 565.325 369.929 565.526 369.506C565.731 369.083 565.834 368.391 565.834 367.431C565.834 366.474 565.731 365.782 565.526 365.355C565.325 364.926 565.004 364.711 564.564 364.711C564.125 364.711 563.804 364.921 563.603 365.341C563.404 365.761 563.305 366.457 563.305 367.431ZM572.704 367.431C572.704 368.671 572.504 369.592 572.104 370.194C571.706 370.797 571.098 371.098 570.277 371.098C569.483 371.098 568.881 370.787 568.471 370.165C568.061 369.543 567.855 368.632 567.855 367.431C567.855 366.171 568.054 365.243 568.451 364.647C568.852 364.049 569.46 363.749 570.277 363.749C571.075 363.749 571.679 364.062 572.089 364.687C572.499 365.312 572.704 366.226 572.704 367.431ZM569.018 367.431C569.018 368.404 569.117 369.099 569.315 369.516C569.517 369.932 569.838 370.141 570.277 370.141C570.717 370.141 571.037 369.929 571.239 369.506C571.444 369.083 571.547 368.391 571.547 367.431C571.547 366.474 571.444 365.782 571.239 365.355C571.037 364.926 570.717 364.711 570.277 364.711C569.838 364.711 569.517 364.921 569.315 365.341C569.117 365.761 569.018 366.457 569.018 367.431ZM576.698 371.098C576.015 371.098 575.484 370.852 575.106 370.36H575.038C575.084 370.816 575.106 371.093 575.106 371.19V373.402H573.959V365.6H574.887C574.913 365.701 574.966 365.941 575.048 366.322H575.106C575.465 365.775 576.002 365.502 576.718 365.502C577.392 365.502 577.916 365.746 578.29 366.234C578.668 366.723 578.856 367.408 578.856 368.29C578.856 369.172 578.664 369.861 578.28 370.355C577.899 370.85 577.372 371.098 576.698 371.098ZM576.42 366.439C575.964 366.439 575.631 366.573 575.419 366.84C575.211 367.107 575.106 367.533 575.106 368.119V368.29C575.106 368.948 575.211 369.424 575.419 369.721C575.627 370.014 575.967 370.16 576.439 370.16C576.837 370.16 577.143 369.997 577.357 369.672C577.572 369.346 577.68 368.882 577.68 368.28C577.68 367.675 577.572 367.217 577.357 366.908C577.146 366.596 576.833 366.439 576.42 366.439ZM581.391 368.241L579.579 365.6H580.888L582.118 367.489L583.358 365.6H584.657L582.841 368.241L584.75 371H583.451L582.118 368.979L580.79 371H579.491L581.391 368.241ZM556.4 384.261C556.4 383.398 556.526 382.591 556.776 381.839C557.03 381.087 557.395 380.428 557.87 379.861H558.871C558.419 380.473 558.072 381.16 557.831 381.922C557.59 382.68 557.47 383.457 557.47 384.251C557.47 385.045 557.59 385.815 557.831 386.561C558.072 387.306 558.415 387.98 558.861 388.582H557.87C557.392 388.029 557.027 387.382 556.776 386.644C556.526 385.905 556.4 385.11 556.4 384.261ZM564.545 387H563.393V383.67C563.393 383.257 563.314 382.949 563.158 382.747C563.002 382.542 562.758 382.439 562.426 382.439C561.983 382.439 561.658 382.584 561.449 382.874C561.244 383.16 561.142 383.639 561.142 384.31V387H559.994V381.6H560.893L561.054 382.308H561.112C561.262 382.05 561.479 381.852 561.762 381.712C562.048 381.572 562.362 381.502 562.704 381.502C563.534 381.502 564.084 381.785 564.354 382.352H564.433C564.592 382.085 564.817 381.876 565.106 381.727C565.396 381.577 565.728 381.502 566.103 381.502C566.747 381.502 567.216 381.665 567.509 381.99C567.805 382.316 567.953 382.812 567.953 383.479V387H566.806V383.67C566.806 383.257 566.726 382.949 566.566 382.747C566.41 382.542 566.166 382.439 565.834 382.439C565.388 382.439 565.061 382.579 564.853 382.859C564.647 383.136 564.545 383.562 564.545 384.139V387ZM572.934 387L572.704 386.248H572.665C572.405 386.577 572.143 386.801 571.879 386.922C571.615 387.039 571.277 387.098 570.863 387.098C570.333 387.098 569.918 386.954 569.618 386.668C569.322 386.382 569.174 385.976 569.174 385.452C569.174 384.896 569.381 384.476 569.794 384.192C570.207 383.909 570.837 383.755 571.684 383.729L572.616 383.699V383.411C572.616 383.066 572.535 382.809 572.372 382.64C572.213 382.467 571.964 382.381 571.625 382.381C571.348 382.381 571.083 382.422 570.829 382.503C570.575 382.584 570.331 382.68 570.097 382.791L569.726 381.971C570.019 381.818 570.339 381.702 570.688 381.624C571.036 381.543 571.365 381.502 571.674 381.502C572.361 381.502 572.878 381.652 573.227 381.951C573.578 382.251 573.754 382.721 573.754 383.362V387H572.934ZM571.225 386.219C571.641 386.219 571.975 386.103 572.226 385.872C572.479 385.638 572.606 385.311 572.606 384.891V384.422L571.913 384.451C571.373 384.471 570.979 384.562 570.731 384.725C570.487 384.884 570.365 385.13 570.365 385.462C570.365 385.703 570.437 385.89 570.58 386.023C570.723 386.154 570.938 386.219 571.225 386.219ZM576.557 384.241L574.745 381.6H576.054L577.284 383.489L578.524 381.6H579.823L578.007 384.241L579.916 387H578.617L577.284 384.979L575.956 387H574.657L576.557 384.241ZM582.812 384.261C582.812 385.117 582.685 385.914 582.431 386.653C582.18 387.392 581.817 388.035 581.342 388.582H580.351C580.8 387.973 581.143 387.298 581.381 386.556C581.622 385.813 581.742 385.045 581.742 384.251C581.742 383.453 581.622 382.677 581.381 381.922C581.14 381.163 580.793 380.477 580.341 379.861H581.342C581.82 380.431 582.185 381.093 582.436 381.849C582.686 382.601 582.812 383.405 582.812 384.261Z" fill="#8F95B2"/>
</svg>
