<svg width="585" height="397" viewBox="0 0 585 397" fill="none" xmlns="http://www.w3.org/2000/svg">
<circle cx="15.0001" cy="350" r="14.5" transform="rotate(-90 15.0001 350)" fill="#101840" stroke="#101840"/>
<path d="M18.1622 353.725H17.1309V355.5H15.3614V353.725H11.7051V352.465L15.461 346.934H17.1309L17.1309 352.318H18.1622V353.725ZM15.3614 352.318V350.865C15.3614 350.623 15.3712 350.271 15.3907 349.811C15.4102 349.35 15.4258 349.082 15.4376 349.008H15.3907C15.2462 349.328 15.0723 349.641 14.8692 349.945L13.2989 352.318H15.3614Z" fill="white"/>
<path d="M30.0001 350H66.0001" stroke="#101840" stroke-width="2"/>
<circle cx="64.0001" cy="350" r="2.5" transform="rotate(-90 64.0001 350)" fill="#101840" stroke="#101840"/>
<circle cx="191" cy="124" r="14.5" transform="rotate(90 191 124)" fill="#101840" stroke="#101840"/>
<path d="M193.969 128.5H187.98V127.24L190.131 125.066C190.768 124.414 191.184 123.963 191.379 123.713C191.574 123.459 191.715 123.225 191.801 123.01C191.887 122.795 191.93 122.572 191.93 122.342C191.93 121.998 191.834 121.742 191.643 121.574C191.455 121.406 191.203 121.322 190.887 121.322C190.555 121.322 190.232 121.398 189.92 121.551C189.607 121.703 189.281 121.92 188.941 122.201L187.957 121.035C188.379 120.676 188.729 120.422 189.006 120.273C189.283 120.125 189.586 120.012 189.914 119.934C190.242 119.852 190.609 119.811 191.016 119.811C191.551 119.811 192.023 119.908 192.434 120.104C192.844 120.299 193.162 120.572 193.389 120.924C193.615 121.275 193.729 121.678 193.729 122.131C193.729 122.525 193.658 122.896 193.518 123.244C193.381 123.588 193.166 123.941 192.873 124.305C192.584 124.668 192.072 125.186 191.338 125.857L190.236 126.895V126.977H193.969V128.5Z" fill="white"/>
<path d="M176 124L140 124" stroke="#101840" stroke-width="2"/>
<circle cx="142" cy="124" r="2.5" transform="rotate(90 142 124)" fill="#101840" stroke="#101840"/>
<circle cx="15.0001" cy="15" r="14.5" transform="rotate(-90 15.0001 15)" fill="#101840" stroke="#101840"/>
<path d="M16.4571 20.5H14.6465L14.6465 15.543L14.6641 14.7285L14.6934 13.8379C14.3926 14.1387 14.1837 14.3359 14.0665 14.4297L13.0821 15.2207L12.209 14.1309L14.9688 11.9336H16.4571L16.4571 20.5Z" fill="white"/>
<path d="M30.0001 15L66.0001 15" stroke="#101840" stroke-width="2"/>
<circle cx="64.0001" cy="15" r="2.5" transform="rotate(-90 64.0001 15)" fill="#101840" stroke="#101840"/>
<circle cx="15.0001" cy="270" r="14.5" transform="rotate(-90 15.0001 270)" fill="#101840" stroke="#101840"/>
<path d="M17.6348 268.85C17.6348 269.385 17.4727 269.84 17.1485 270.215C16.8243 270.59 16.3692 270.848 15.7833 270.988V271.023C16.4747 271.109 16.9981 271.32 17.3536 271.656C17.709 271.988 17.8868 272.438 17.8868 273.004C17.8868 273.828 17.588 274.471 16.9903 274.932C16.3926 275.389 15.5391 275.617 14.4297 275.617C13.5001 275.617 12.6758 275.463 11.9571 275.154L11.9571 273.613C12.2891 273.781 12.6544 273.918 13.0528 274.023C13.4512 274.129 13.8458 274.182 14.2364 274.182C14.834 274.182 15.2755 274.08 15.5606 273.877C15.8458 273.674 15.9883 273.348 15.9883 272.898C15.9883 272.496 15.8243 272.211 15.4962 272.043C15.168 271.875 14.6446 271.791 13.9258 271.791H13.2755V270.402H13.9376C14.6016 270.402 15.086 270.316 15.3907 270.145C15.6993 269.969 15.8536 269.67 15.8536 269.248C15.8536 268.6 15.4473 268.275 14.6348 268.275C14.3536 268.275 14.0665 268.322 13.7735 268.416C13.4844 268.51 13.1622 268.672 12.8067 268.902L11.9688 267.654C12.7501 267.092 13.6817 266.811 14.7637 266.811C15.6505 266.811 16.3497 266.99 16.8614 267.35C17.377 267.709 17.6348 268.209 17.6348 268.85Z" fill="white"/>
<path d="M30.0001 270H66.0001" stroke="#101840" stroke-width="2"/>
<circle cx="64.0001" cy="270" r="2.5" transform="rotate(-90 64.0001 270)" fill="#101840" stroke="#101840"/>
<path d="M81.5 21V9.57812H83.375V19.4062H88.2266V21H81.5ZM93.4062 12.1875C94.5 12.1875 95.3255 12.4297 95.8828 12.9141C96.4453 13.3984 96.7266 14.1536 96.7266 15.1797V21H95.4219L95.0703 19.7734H95.0078C94.763 20.0859 94.5104 20.3438 94.25 20.5469C93.9896 20.75 93.6875 20.901 93.3438 21C93.0052 21.1042 92.5911 21.1562 92.1016 21.1562C91.5859 21.1562 91.125 21.0625 90.7188 20.875C90.3125 20.6823 89.9922 20.3906 89.7578 20C89.5234 19.6094 89.4062 19.1146 89.4062 18.5156C89.4062 17.625 89.737 16.9557 90.3984 16.5078C91.0651 16.0599 92.0703 15.8125 93.4141 15.7656L94.9141 15.7109V15.2578C94.9141 14.6589 94.7734 14.2318 94.4922 13.9766C94.2161 13.7214 93.8255 13.5938 93.3203 13.5938C92.888 13.5938 92.4688 13.6562 92.0625 13.7812C91.6562 13.9062 91.2604 14.0599 90.875 14.2422L90.2812 12.9453C90.7031 12.7214 91.1823 12.5391 91.7188 12.3984C92.2604 12.2578 92.8229 12.1875 93.4062 12.1875ZM94.9062 16.8672L93.7891 16.9062C92.8724 16.9375 92.2292 17.0938 91.8594 17.375C91.4896 17.6562 91.3047 18.0417 91.3047 18.5312C91.3047 18.9583 91.4323 19.2708 91.6875 19.4688C91.9427 19.6615 92.2786 19.7578 92.6953 19.7578C93.3307 19.7578 93.8568 19.5781 94.2734 19.2188C94.6953 18.8542 94.9062 18.3203 94.9062 17.6172V16.8672ZM101.133 8.84375V11.7734C101.133 12.112 101.122 12.4453 101.102 12.7734C101.086 13.0964 101.07 13.349 101.055 13.5312H101.133C101.367 13.1562 101.693 12.8411 102.109 12.5859C102.531 12.3255 103.07 12.1953 103.727 12.1953C104.753 12.1953 105.578 12.5729 106.203 13.3281C106.828 14.0781 107.141 15.1901 107.141 16.6641C107.141 17.6432 106.997 18.4661 106.711 19.1328C106.424 19.7995 106.021 20.3047 105.5 20.6484C104.984 20.987 104.378 21.1562 103.68 21.1562C103.023 21.1562 102.492 21.0365 102.086 20.7969C101.685 20.5521 101.37 20.2682 101.141 19.9453H101.008L100.672 21H99.2969V8.84375H101.133ZM103.242 13.6875C102.721 13.6875 102.307 13.7917 102 14C101.698 14.2083 101.479 14.5208 101.344 14.9375C101.208 15.349 101.138 15.8724 101.133 16.5078V16.6719C101.133 17.6354 101.284 18.3724 101.586 18.8828C101.893 19.3932 102.451 19.6484 103.258 19.6484C103.898 19.6484 104.391 19.3906 104.734 18.875C105.078 18.3542 105.25 17.6094 105.25 16.6406C105.25 15.6615 105.078 14.9245 104.734 14.4297C104.396 13.9349 103.898 13.6875 103.242 13.6875ZM112.711 12.1875C113.482 12.1875 114.143 12.3464 114.695 12.6641C115.247 12.9818 115.672 13.4323 115.969 14.0156C116.266 14.599 116.414 15.2969 116.414 16.1094V17.0938H110.641C110.661 17.9323 110.885 18.5781 111.312 19.0312C111.745 19.4844 112.349 19.7109 113.125 19.7109C113.677 19.7109 114.172 19.6589 114.609 19.5547C115.052 19.4453 115.508 19.2865 115.977 19.0781V20.5703C115.544 20.7734 115.104 20.9219 114.656 21.0156C114.208 21.1094 113.672 21.1562 113.047 21.1562C112.198 21.1562 111.451 20.9922 110.805 20.6641C110.164 20.3307 109.661 19.8359 109.297 19.1797C108.938 18.5234 108.758 17.7083 108.758 16.7344C108.758 15.7656 108.922 14.9427 109.25 14.2656C109.578 13.5885 110.039 13.0729 110.633 12.7188C111.227 12.3646 111.919 12.1875 112.711 12.1875ZM112.711 13.5703C112.133 13.5703 111.664 13.7578 111.305 14.1328C110.951 14.5078 110.742 15.0573 110.68 15.7812H114.617C114.612 15.349 114.539 14.9661 114.398 14.6328C114.263 14.2995 114.055 14.0391 113.773 13.8516C113.497 13.6641 113.143 13.5703 112.711 13.5703ZM120.328 21H118.484V8.84375H120.328V21Z" fill="#474D66"/>
<rect x="80.5" y="35.5" width="249" height="31" rx="3.5" fill="white"/>
<path d="M93.4102 47.4336C94.5156 47.4336 95.3223 47.6504 95.8301 48.084C96.3418 48.5137 96.5977 49.1309 96.5977 49.9355C96.5977 50.2988 96.5371 50.6445 96.416 50.9727C96.2988 51.2969 96.1074 51.584 95.8418 51.834C95.5762 52.0801 95.2266 52.2754 94.793 52.4199C94.3633 52.5605 93.8359 52.6309 93.2109 52.6309H92.168V56H91.1719V47.4336H93.4102ZM93.3164 48.2832H92.168V51.7754H93.0996C93.6465 51.7754 94.1016 51.7168 94.4648 51.5996C94.832 51.4824 95.1074 51.293 95.291 51.0312C95.4746 50.7656 95.5664 50.4141 95.5664 49.9766C95.5664 49.4062 95.3848 48.9824 95.0215 48.7051C94.6582 48.4238 94.0898 48.2832 93.3164 48.2832ZM99.2107 56H98.2321V46.8828H99.2107V56ZM103.658 49.4727C104.423 49.4727 104.992 49.6445 105.363 49.9883C105.734 50.332 105.919 50.8809 105.919 51.6348V56H105.21L105.023 55.0508H104.976C104.796 55.2852 104.609 55.4824 104.413 55.6426C104.218 55.7988 103.992 55.918 103.734 56C103.48 56.0781 103.167 56.1172 102.796 56.1172C102.406 56.1172 102.058 56.0488 101.753 55.9121C101.453 55.7754 101.214 55.5684 101.038 55.291C100.867 55.0137 100.781 54.6621 100.781 54.2363C100.781 53.5957 101.035 53.1035 101.542 52.7598C102.05 52.416 102.824 52.2285 103.863 52.1973L104.97 52.1504V51.7578C104.97 51.2031 104.851 50.8145 104.613 50.5918C104.374 50.3691 104.038 50.2578 103.605 50.2578C103.269 50.2578 102.949 50.3066 102.644 50.4043C102.339 50.502 102.05 50.6172 101.777 50.75L101.478 50.0117C101.767 49.8633 102.099 49.7363 102.474 49.6309C102.849 49.5254 103.244 49.4727 103.658 49.4727ZM104.958 52.8359L103.98 52.877C103.179 52.9082 102.615 53.0391 102.287 53.2695C101.958 53.5 101.794 53.8262 101.794 54.248C101.794 54.6152 101.906 54.8867 102.128 55.0625C102.351 55.2383 102.646 55.3262 103.013 55.3262C103.583 55.3262 104.05 55.168 104.413 54.8516C104.777 54.5352 104.958 54.0605 104.958 53.4277V52.8359ZM110.484 56.1172C109.905 56.1172 109.396 55.998 108.954 55.7598C108.513 55.5215 108.169 55.1582 107.923 54.6699C107.677 54.1816 107.554 53.5664 107.554 52.8242C107.554 52.0469 107.683 51.4121 107.941 50.9199C108.202 50.4238 108.562 50.0566 109.019 49.8184C109.476 49.5801 109.995 49.4609 110.577 49.4609C110.898 49.4609 111.206 49.4941 111.503 49.5605C111.804 49.623 112.05 49.7031 112.241 49.8008L111.948 50.6152C111.753 50.5371 111.527 50.4668 111.269 50.4043C111.015 50.3418 110.777 50.3105 110.554 50.3105C110.109 50.3105 109.737 50.4062 109.441 50.5977C109.148 50.7891 108.927 51.0703 108.778 51.4414C108.634 51.8125 108.562 52.2695 108.562 52.8125C108.562 53.332 108.632 53.7754 108.773 54.1426C108.917 54.5098 109.13 54.791 109.411 54.9863C109.696 55.1777 110.052 55.2734 110.478 55.2734C110.818 55.2734 111.124 55.2383 111.398 55.168C111.671 55.0938 111.919 55.0078 112.142 54.9102V55.7773C111.927 55.8867 111.687 55.9707 111.421 56.0293C111.159 56.0879 110.847 56.1172 110.484 56.1172ZM116.126 49.4609C116.673 49.4609 117.141 49.582 117.532 49.8242C117.923 50.0664 118.222 50.4062 118.429 50.8438C118.636 51.2773 118.739 51.7852 118.739 52.3672V52.9707H114.304C114.315 53.7246 114.503 54.2988 114.866 54.6934C115.229 55.0879 115.741 55.2852 116.401 55.2852C116.807 55.2852 117.167 55.248 117.479 55.1738C117.792 55.0996 118.116 54.9902 118.452 54.8457V55.7012C118.128 55.8457 117.806 55.9512 117.485 56.0176C117.169 56.084 116.794 56.1172 116.36 56.1172C115.743 56.1172 115.204 55.9922 114.743 55.7422C114.286 55.4883 113.931 55.1172 113.677 54.6289C113.423 54.1406 113.296 53.543 113.296 52.8359C113.296 52.1445 113.411 51.5469 113.641 51.043C113.876 50.5352 114.204 50.1445 114.626 49.8711C115.052 49.5977 115.552 49.4609 116.126 49.4609ZM116.114 50.2578C115.595 50.2578 115.181 50.4277 114.872 50.7676C114.563 51.1074 114.38 51.582 114.321 52.1914H117.72C117.716 51.8086 117.655 51.4727 117.538 51.1836C117.425 50.8906 117.251 50.6641 117.016 50.5039C116.782 50.3398 116.481 50.2578 116.114 50.2578ZM121.352 46.8828V49.6074C121.352 49.7637 121.348 49.9219 121.34 50.082C121.333 50.2383 121.319 50.3828 121.299 50.5156H121.364C121.497 50.2891 121.665 50.0996 121.868 49.9473C122.075 49.791 122.309 49.6738 122.571 49.5957C122.833 49.5137 123.11 49.4727 123.403 49.4727C123.919 49.4727 124.348 49.5547 124.692 49.7188C125.04 49.8828 125.299 50.1367 125.471 50.4805C125.647 50.8242 125.735 51.2695 125.735 51.8164V56H124.774V51.8809C124.774 51.3457 124.651 50.9453 124.405 50.6797C124.163 50.4141 123.79 50.2812 123.286 50.2812C122.809 50.2812 122.428 50.373 122.143 50.5566C121.862 50.7363 121.659 51.002 121.534 51.3535C121.413 51.7051 121.352 52.1348 121.352 52.6426V56H120.379V46.8828H121.352ZM133.264 52.7773C133.264 53.3047 133.196 53.7754 133.059 54.1895C132.922 54.6035 132.725 54.9531 132.467 55.2383C132.209 55.5234 131.897 55.7422 131.53 55.8945C131.166 56.043 130.754 56.1172 130.293 56.1172C129.864 56.1172 129.469 56.043 129.11 55.8945C128.754 55.7422 128.446 55.5234 128.184 55.2383C127.926 54.9531 127.725 54.6035 127.58 54.1895C127.44 53.7754 127.369 53.3047 127.369 52.7773C127.369 52.0742 127.489 51.4766 127.727 50.9844C127.965 50.4883 128.305 50.1113 128.746 49.8535C129.192 49.5918 129.721 49.4609 130.334 49.4609C130.92 49.4609 131.432 49.5918 131.869 49.8535C132.311 50.1152 132.653 50.4941 132.895 50.9902C133.141 51.4824 133.264 52.0781 133.264 52.7773ZM128.377 52.7773C128.377 53.293 128.446 53.7402 128.582 54.1191C128.719 54.498 128.93 54.791 129.215 54.998C129.5 55.2051 129.867 55.3086 130.317 55.3086C130.762 55.3086 131.127 55.2051 131.412 54.998C131.701 54.791 131.914 54.498 132.051 54.1191C132.188 53.7402 132.256 53.293 132.256 52.7773C132.256 52.2656 132.188 51.8242 132.051 51.4531C131.914 51.0781 131.703 50.7891 131.418 50.5859C131.133 50.3828 130.764 50.2812 130.311 50.2812C129.643 50.2812 129.153 50.502 128.84 50.9434C128.532 51.3848 128.377 51.9961 128.377 52.7773ZM135.912 56H134.934V46.8828H135.912V56ZM140.242 56.1172C139.429 56.1172 138.785 55.8398 138.308 55.2852C137.836 54.7305 137.599 53.9062 137.599 52.8125C137.599 51.707 137.841 50.873 138.326 50.3105C138.81 49.7441 139.455 49.4609 140.259 49.4609C140.599 49.4609 140.896 49.5059 141.15 49.5957C141.404 49.6855 141.623 49.8066 141.806 49.959C141.99 50.1074 142.144 50.2773 142.269 50.4688H142.34C142.324 50.3477 142.308 50.1816 142.293 49.9707C142.277 49.7598 142.269 49.5879 142.269 49.4551V46.8828H143.242V56H142.457L142.31 55.0859H142.269C142.148 55.2773 141.994 55.4512 141.806 55.6074C141.623 55.7637 141.402 55.8887 141.144 55.9824C140.89 56.0723 140.59 56.1172 140.242 56.1172ZM140.394 55.3086C141.082 55.3086 141.568 55.1133 141.853 54.7227C142.138 54.332 142.281 53.752 142.281 52.9824V52.8066C142.281 51.9902 142.144 51.3633 141.871 50.9258C141.601 50.4883 141.109 50.2695 140.394 50.2695C139.797 50.2695 139.349 50.5 139.052 50.9609C138.756 51.418 138.607 52.043 138.607 52.8359C138.607 53.625 138.754 54.2344 139.047 54.6641C139.343 55.0938 139.793 55.3086 140.394 55.3086ZM147.765 49.4609C148.312 49.4609 148.781 49.582 149.171 49.8242C149.562 50.0664 149.861 50.4062 150.068 50.8438C150.275 51.2773 150.378 51.7852 150.378 52.3672V52.9707H145.943C145.954 53.7246 146.142 54.2988 146.505 54.6934C146.869 55.0879 147.38 55.2852 148.04 55.2852C148.447 55.2852 148.806 55.248 149.119 55.1738C149.431 55.0996 149.755 54.9902 150.091 54.8457V55.7012C149.767 55.8457 149.445 55.9512 149.124 56.0176C148.808 56.084 148.433 56.1172 147.999 56.1172C147.382 56.1172 146.843 55.9922 146.382 55.7422C145.925 55.4883 145.57 55.1172 145.316 54.6289C145.062 54.1406 144.935 53.543 144.935 52.8359C144.935 52.1445 145.05 51.5469 145.281 51.043C145.515 50.5352 145.843 50.1445 146.265 49.8711C146.691 49.5977 147.191 49.4609 147.765 49.4609ZM147.753 50.2578C147.234 50.2578 146.82 50.4277 146.511 50.7676C146.203 51.1074 146.019 51.582 145.96 52.1914H149.359C149.355 51.8086 149.294 51.4727 149.177 51.1836C149.064 50.8906 148.89 50.6641 148.656 50.5039C148.421 50.3398 148.121 50.2578 147.753 50.2578ZM154.937 49.4609C155.066 49.4609 155.2 49.4688 155.341 49.4844C155.482 49.4961 155.607 49.5137 155.716 49.5371L155.593 50.4395C155.487 50.4121 155.37 50.3906 155.241 50.375C155.112 50.3594 154.991 50.3516 154.878 50.3516C154.62 50.3516 154.376 50.4043 154.146 50.5098C153.919 50.6113 153.72 50.7598 153.548 50.9551C153.376 51.1465 153.241 51.3789 153.144 51.6523C153.046 51.9219 152.997 52.2227 152.997 52.5547V56H152.019V49.5781H152.827L152.933 50.7617H152.974C153.107 50.5234 153.267 50.3066 153.454 50.1113C153.642 49.9121 153.859 49.7539 154.105 49.6367C154.355 49.5195 154.632 49.4609 154.937 49.4609Z" fill="#8F95B2"/>
<rect x="80.5" y="35.5" width="249" height="31" rx="3.5" stroke="#D8DAE5"/>
<path d="M81.5 130V118.578H83.375V128.406H88.2266V130H81.5ZM93.4062 121.188C94.5 121.188 95.3255 121.43 95.8828 121.914C96.4453 122.398 96.7266 123.154 96.7266 124.18V130H95.4219L95.0703 128.773H95.0078C94.763 129.086 94.5104 129.344 94.25 129.547C93.9896 129.75 93.6875 129.901 93.3438 130C93.0052 130.104 92.5911 130.156 92.1016 130.156C91.5859 130.156 91.125 130.062 90.7188 129.875C90.3125 129.682 89.9922 129.391 89.7578 129C89.5234 128.609 89.4062 128.115 89.4062 127.516C89.4062 126.625 89.737 125.956 90.3984 125.508C91.0651 125.06 92.0703 124.812 93.4141 124.766L94.9141 124.711V124.258C94.9141 123.659 94.7734 123.232 94.4922 122.977C94.2161 122.721 93.8255 122.594 93.3203 122.594C92.888 122.594 92.4688 122.656 92.0625 122.781C91.6562 122.906 91.2604 123.06 90.875 123.242L90.2812 121.945C90.7031 121.721 91.1823 121.539 91.7188 121.398C92.2604 121.258 92.8229 121.188 93.4062 121.188ZM94.9062 125.867L93.7891 125.906C92.8724 125.938 92.2292 126.094 91.8594 126.375C91.4896 126.656 91.3047 127.042 91.3047 127.531C91.3047 127.958 91.4323 128.271 91.6875 128.469C91.9427 128.661 92.2786 128.758 92.6953 128.758C93.3307 128.758 93.8568 128.578 94.2734 128.219C94.6953 127.854 94.9062 127.32 94.9062 126.617V125.867ZM101.133 117.844V120.773C101.133 121.112 101.122 121.445 101.102 121.773C101.086 122.096 101.07 122.349 101.055 122.531H101.133C101.367 122.156 101.693 121.841 102.109 121.586C102.531 121.326 103.07 121.195 103.727 121.195C104.753 121.195 105.578 121.573 106.203 122.328C106.828 123.078 107.141 124.19 107.141 125.664C107.141 126.643 106.997 127.466 106.711 128.133C106.424 128.799 106.021 129.305 105.5 129.648C104.984 129.987 104.378 130.156 103.68 130.156C103.023 130.156 102.492 130.036 102.086 129.797C101.685 129.552 101.37 129.268 101.141 128.945H101.008L100.672 130H99.2969V117.844H101.133ZM103.242 122.688C102.721 122.688 102.307 122.792 102 123C101.698 123.208 101.479 123.521 101.344 123.938C101.208 124.349 101.138 124.872 101.133 125.508V125.672C101.133 126.635 101.284 127.372 101.586 127.883C101.893 128.393 102.451 128.648 103.258 128.648C103.898 128.648 104.391 128.391 104.734 127.875C105.078 127.354 105.25 126.609 105.25 125.641C105.25 124.661 105.078 123.924 104.734 123.43C104.396 122.935 103.898 122.688 103.242 122.688ZM112.711 121.188C113.482 121.188 114.143 121.346 114.695 121.664C115.247 121.982 115.672 122.432 115.969 123.016C116.266 123.599 116.414 124.297 116.414 125.109V126.094H110.641C110.661 126.932 110.885 127.578 111.312 128.031C111.745 128.484 112.349 128.711 113.125 128.711C113.677 128.711 114.172 128.659 114.609 128.555C115.052 128.445 115.508 128.286 115.977 128.078V129.57C115.544 129.773 115.104 129.922 114.656 130.016C114.208 130.109 113.672 130.156 113.047 130.156C112.198 130.156 111.451 129.992 110.805 129.664C110.164 129.331 109.661 128.836 109.297 128.18C108.938 127.523 108.758 126.708 108.758 125.734C108.758 124.766 108.922 123.943 109.25 123.266C109.578 122.589 110.039 122.073 110.633 121.719C111.227 121.365 111.919 121.188 112.711 121.188ZM112.711 122.57C112.133 122.57 111.664 122.758 111.305 123.133C110.951 123.508 110.742 124.057 110.68 124.781H114.617C114.612 124.349 114.539 123.966 114.398 123.633C114.263 123.299 114.055 123.039 113.773 122.852C113.497 122.664 113.143 122.57 112.711 122.57ZM120.328 130H118.484V117.844H120.328V130Z" fill="#474D66"/>
<path d="M126.875 117.844L126.562 120.828L129.562 119.977L129.797 121.641L126.992 121.891L128.812 124.32L127.297 125.141L125.977 122.523L124.797 125.133L123.219 124.32L125.023 121.891L122.234 121.633L122.5 119.977L125.445 120.828L125.133 117.844H126.875Z" fill="#BF2600"/>
<rect x="80.5" y="144.5" width="249" height="31" rx="3.5" fill="white"/>
<path d="M93.4102 156.434C94.5156 156.434 95.3223 156.65 95.8301 157.084C96.3418 157.514 96.5977 158.131 96.5977 158.936C96.5977 159.299 96.5371 159.645 96.416 159.973C96.2988 160.297 96.1074 160.584 95.8418 160.834C95.5762 161.08 95.2266 161.275 94.793 161.42C94.3633 161.561 93.8359 161.631 93.2109 161.631H92.168V165H91.1719V156.434H93.4102ZM93.3164 157.283H92.168V160.775H93.0996C93.6465 160.775 94.1016 160.717 94.4648 160.6C94.832 160.482 95.1074 160.293 95.291 160.031C95.4746 159.766 95.5664 159.414 95.5664 158.977C95.5664 158.406 95.3848 157.982 95.0215 157.705C94.6582 157.424 94.0898 157.283 93.3164 157.283ZM99.2107 165H98.2321V155.883H99.2107V165ZM103.658 158.473C104.423 158.473 104.992 158.645 105.363 158.988C105.734 159.332 105.919 159.881 105.919 160.635V165H105.21L105.023 164.051H104.976C104.796 164.285 104.609 164.482 104.413 164.643C104.218 164.799 103.992 164.918 103.734 165C103.48 165.078 103.167 165.117 102.796 165.117C102.406 165.117 102.058 165.049 101.753 164.912C101.453 164.775 101.214 164.568 101.038 164.291C100.867 164.014 100.781 163.662 100.781 163.236C100.781 162.596 101.035 162.104 101.542 161.76C102.05 161.416 102.824 161.229 103.863 161.197L104.97 161.15V160.758C104.97 160.203 104.851 159.814 104.613 159.592C104.374 159.369 104.038 159.258 103.605 159.258C103.269 159.258 102.949 159.307 102.644 159.404C102.339 159.502 102.05 159.617 101.777 159.75L101.478 159.012C101.767 158.863 102.099 158.736 102.474 158.631C102.849 158.525 103.244 158.473 103.658 158.473ZM104.958 161.836L103.98 161.877C103.179 161.908 102.615 162.039 102.287 162.27C101.958 162.5 101.794 162.826 101.794 163.248C101.794 163.615 101.906 163.887 102.128 164.062C102.351 164.238 102.646 164.326 103.013 164.326C103.583 164.326 104.05 164.168 104.413 163.852C104.777 163.535 104.958 163.061 104.958 162.428V161.836ZM110.484 165.117C109.905 165.117 109.396 164.998 108.954 164.76C108.513 164.521 108.169 164.158 107.923 163.67C107.677 163.182 107.554 162.566 107.554 161.824C107.554 161.047 107.683 160.412 107.941 159.92C108.202 159.424 108.562 159.057 109.019 158.818C109.476 158.58 109.995 158.461 110.577 158.461C110.898 158.461 111.206 158.494 111.503 158.561C111.804 158.623 112.05 158.703 112.241 158.801L111.948 159.615C111.753 159.537 111.527 159.467 111.269 159.404C111.015 159.342 110.777 159.311 110.554 159.311C110.109 159.311 109.737 159.406 109.441 159.598C109.148 159.789 108.927 160.07 108.778 160.441C108.634 160.812 108.562 161.27 108.562 161.812C108.562 162.332 108.632 162.775 108.773 163.143C108.917 163.51 109.13 163.791 109.411 163.986C109.696 164.178 110.052 164.273 110.478 164.273C110.818 164.273 111.124 164.238 111.398 164.168C111.671 164.094 111.919 164.008 112.142 163.91V164.777C111.927 164.887 111.687 164.971 111.421 165.029C111.159 165.088 110.847 165.117 110.484 165.117ZM116.126 158.461C116.673 158.461 117.141 158.582 117.532 158.824C117.923 159.066 118.222 159.406 118.429 159.844C118.636 160.277 118.739 160.785 118.739 161.367V161.971H114.304C114.315 162.725 114.503 163.299 114.866 163.693C115.229 164.088 115.741 164.285 116.401 164.285C116.807 164.285 117.167 164.248 117.479 164.174C117.792 164.1 118.116 163.99 118.452 163.846V164.701C118.128 164.846 117.806 164.951 117.485 165.018C117.169 165.084 116.794 165.117 116.36 165.117C115.743 165.117 115.204 164.992 114.743 164.742C114.286 164.488 113.931 164.117 113.677 163.629C113.423 163.141 113.296 162.543 113.296 161.836C113.296 161.145 113.411 160.547 113.641 160.043C113.876 159.535 114.204 159.145 114.626 158.871C115.052 158.598 115.552 158.461 116.126 158.461ZM116.114 159.258C115.595 159.258 115.181 159.428 114.872 159.768C114.563 160.107 114.38 160.582 114.321 161.191H117.72C117.716 160.809 117.655 160.473 117.538 160.184C117.425 159.891 117.251 159.664 117.016 159.504C116.782 159.34 116.481 159.258 116.114 159.258ZM121.352 155.883V158.607C121.352 158.764 121.348 158.922 121.34 159.082C121.333 159.238 121.319 159.383 121.299 159.516H121.364C121.497 159.289 121.665 159.1 121.868 158.947C122.075 158.791 122.309 158.674 122.571 158.596C122.833 158.514 123.11 158.473 123.403 158.473C123.919 158.473 124.348 158.555 124.692 158.719C125.04 158.883 125.299 159.137 125.471 159.48C125.647 159.824 125.735 160.27 125.735 160.816V165H124.774V160.881C124.774 160.346 124.651 159.945 124.405 159.68C124.163 159.414 123.79 159.281 123.286 159.281C122.809 159.281 122.428 159.373 122.143 159.557C121.862 159.736 121.659 160.002 121.534 160.354C121.413 160.705 121.352 161.135 121.352 161.643V165H120.379V155.883H121.352ZM133.264 161.777C133.264 162.305 133.196 162.775 133.059 163.189C132.922 163.604 132.725 163.953 132.467 164.238C132.209 164.523 131.897 164.742 131.53 164.895C131.166 165.043 130.754 165.117 130.293 165.117C129.864 165.117 129.469 165.043 129.11 164.895C128.754 164.742 128.446 164.523 128.184 164.238C127.926 163.953 127.725 163.604 127.58 163.189C127.44 162.775 127.369 162.305 127.369 161.777C127.369 161.074 127.489 160.477 127.727 159.984C127.965 159.488 128.305 159.111 128.746 158.854C129.192 158.592 129.721 158.461 130.334 158.461C130.92 158.461 131.432 158.592 131.869 158.854C132.311 159.115 132.653 159.494 132.895 159.99C133.141 160.482 133.264 161.078 133.264 161.777ZM128.377 161.777C128.377 162.293 128.446 162.74 128.582 163.119C128.719 163.498 128.93 163.791 129.215 163.998C129.5 164.205 129.867 164.309 130.317 164.309C130.762 164.309 131.127 164.205 131.412 163.998C131.701 163.791 131.914 163.498 132.051 163.119C132.188 162.74 132.256 162.293 132.256 161.777C132.256 161.266 132.188 160.824 132.051 160.453C131.914 160.078 131.703 159.789 131.418 159.586C131.133 159.383 130.764 159.281 130.311 159.281C129.643 159.281 129.153 159.502 128.84 159.943C128.532 160.385 128.377 160.996 128.377 161.777ZM135.912 165H134.934V155.883H135.912V165ZM140.242 165.117C139.429 165.117 138.785 164.84 138.308 164.285C137.836 163.73 137.599 162.906 137.599 161.812C137.599 160.707 137.841 159.873 138.326 159.311C138.81 158.744 139.455 158.461 140.259 158.461C140.599 158.461 140.896 158.506 141.15 158.596C141.404 158.686 141.623 158.807 141.806 158.959C141.99 159.107 142.144 159.277 142.269 159.469H142.34C142.324 159.348 142.308 159.182 142.293 158.971C142.277 158.76 142.269 158.588 142.269 158.455V155.883H143.242V165H142.457L142.31 164.086H142.269C142.148 164.277 141.994 164.451 141.806 164.607C141.623 164.764 141.402 164.889 141.144 164.982C140.89 165.072 140.59 165.117 140.242 165.117ZM140.394 164.309C141.082 164.309 141.568 164.113 141.853 163.723C142.138 163.332 142.281 162.752 142.281 161.982V161.807C142.281 160.99 142.144 160.363 141.871 159.926C141.601 159.488 141.109 159.27 140.394 159.27C139.797 159.27 139.349 159.5 139.052 159.961C138.756 160.418 138.607 161.043 138.607 161.836C138.607 162.625 138.754 163.234 139.047 163.664C139.343 164.094 139.793 164.309 140.394 164.309ZM147.765 158.461C148.312 158.461 148.781 158.582 149.171 158.824C149.562 159.066 149.861 159.406 150.068 159.844C150.275 160.277 150.378 160.785 150.378 161.367V161.971H145.943C145.954 162.725 146.142 163.299 146.505 163.693C146.869 164.088 147.38 164.285 148.04 164.285C148.447 164.285 148.806 164.248 149.119 164.174C149.431 164.1 149.755 163.99 150.091 163.846V164.701C149.767 164.846 149.445 164.951 149.124 165.018C148.808 165.084 148.433 165.117 147.999 165.117C147.382 165.117 146.843 164.992 146.382 164.742C145.925 164.488 145.57 164.117 145.316 163.629C145.062 163.141 144.935 162.543 144.935 161.836C144.935 161.145 145.05 160.547 145.281 160.043C145.515 159.535 145.843 159.145 146.265 158.871C146.691 158.598 147.191 158.461 147.765 158.461ZM147.753 159.258C147.234 159.258 146.82 159.428 146.511 159.768C146.203 160.107 146.019 160.582 145.96 161.191H149.359C149.355 160.809 149.294 160.473 149.177 160.184C149.064 159.891 148.89 159.664 148.656 159.504C148.421 159.34 148.121 159.258 147.753 159.258ZM154.937 158.461C155.066 158.461 155.2 158.469 155.341 158.484C155.482 158.496 155.607 158.514 155.716 158.537L155.593 159.439C155.487 159.412 155.37 159.391 155.241 159.375C155.112 159.359 154.991 159.352 154.878 159.352C154.62 159.352 154.376 159.404 154.146 159.51C153.919 159.611 153.72 159.76 153.548 159.955C153.376 160.146 153.241 160.379 153.144 160.652C153.046 160.922 152.997 161.223 152.997 161.555V165H152.019V158.578H152.827L152.933 159.762H152.974C153.107 159.523 153.267 159.307 153.454 159.111C153.642 158.912 153.859 158.754 154.105 158.637C154.355 158.52 154.632 158.461 154.937 158.461Z" fill="#8F95B2"/>
<rect x="80.5" y="144.5" width="249" height="31" rx="3.5" stroke="#D8DAE5"/>
<path d="M81.5 239V227.578H83.375V237.406H88.2266V239H81.5ZM93.4062 230.188C94.5 230.188 95.3255 230.43 95.8828 230.914C96.4453 231.398 96.7266 232.154 96.7266 233.18V239H95.4219L95.0703 237.773H95.0078C94.763 238.086 94.5104 238.344 94.25 238.547C93.9896 238.75 93.6875 238.901 93.3438 239C93.0052 239.104 92.5911 239.156 92.1016 239.156C91.5859 239.156 91.125 239.062 90.7188 238.875C90.3125 238.682 89.9922 238.391 89.7578 238C89.5234 237.609 89.4062 237.115 89.4062 236.516C89.4062 235.625 89.737 234.956 90.3984 234.508C91.0651 234.06 92.0703 233.812 93.4141 233.766L94.9141 233.711V233.258C94.9141 232.659 94.7734 232.232 94.4922 231.977C94.2161 231.721 93.8255 231.594 93.3203 231.594C92.888 231.594 92.4688 231.656 92.0625 231.781C91.6562 231.906 91.2604 232.06 90.875 232.242L90.2812 230.945C90.7031 230.721 91.1823 230.539 91.7188 230.398C92.2604 230.258 92.8229 230.188 93.4062 230.188ZM94.9062 234.867L93.7891 234.906C92.8724 234.938 92.2292 235.094 91.8594 235.375C91.4896 235.656 91.3047 236.042 91.3047 236.531C91.3047 236.958 91.4323 237.271 91.6875 237.469C91.9427 237.661 92.2786 237.758 92.6953 237.758C93.3307 237.758 93.8568 237.578 94.2734 237.219C94.6953 236.854 94.9062 236.32 94.9062 235.617V234.867ZM101.133 226.844V229.773C101.133 230.112 101.122 230.445 101.102 230.773C101.086 231.096 101.07 231.349 101.055 231.531H101.133C101.367 231.156 101.693 230.841 102.109 230.586C102.531 230.326 103.07 230.195 103.727 230.195C104.753 230.195 105.578 230.573 106.203 231.328C106.828 232.078 107.141 233.19 107.141 234.664C107.141 235.643 106.997 236.466 106.711 237.133C106.424 237.799 106.021 238.305 105.5 238.648C104.984 238.987 104.378 239.156 103.68 239.156C103.023 239.156 102.492 239.036 102.086 238.797C101.685 238.552 101.37 238.268 101.141 237.945H101.008L100.672 239H99.2969V226.844H101.133ZM103.242 231.688C102.721 231.688 102.307 231.792 102 232C101.698 232.208 101.479 232.521 101.344 232.938C101.208 233.349 101.138 233.872 101.133 234.508V234.672C101.133 235.635 101.284 236.372 101.586 236.883C101.893 237.393 102.451 237.648 103.258 237.648C103.898 237.648 104.391 237.391 104.734 236.875C105.078 236.354 105.25 235.609 105.25 234.641C105.25 233.661 105.078 232.924 104.734 232.43C104.396 231.935 103.898 231.688 103.242 231.688ZM112.711 230.188C113.482 230.188 114.143 230.346 114.695 230.664C115.247 230.982 115.672 231.432 115.969 232.016C116.266 232.599 116.414 233.297 116.414 234.109V235.094H110.641C110.661 235.932 110.885 236.578 111.312 237.031C111.745 237.484 112.349 237.711 113.125 237.711C113.677 237.711 114.172 237.659 114.609 237.555C115.052 237.445 115.508 237.286 115.977 237.078V238.57C115.544 238.773 115.104 238.922 114.656 239.016C114.208 239.109 113.672 239.156 113.047 239.156C112.198 239.156 111.451 238.992 110.805 238.664C110.164 238.331 109.661 237.836 109.297 237.18C108.938 236.523 108.758 235.708 108.758 234.734C108.758 233.766 108.922 232.943 109.25 232.266C109.578 231.589 110.039 231.073 110.633 230.719C111.227 230.365 111.919 230.188 112.711 230.188ZM112.711 231.57C112.133 231.57 111.664 231.758 111.305 232.133C110.951 232.508 110.742 233.057 110.68 233.781H114.617C114.612 233.349 114.539 232.966 114.398 232.633C114.263 232.299 114.055 232.039 113.773 231.852C113.497 231.664 113.143 231.57 112.711 231.57ZM120.328 239H118.484V226.844H120.328V239Z" fill="#474D66"/>
<rect x="80.5" y="253.5" width="249" height="31" rx="3.5" fill="#F4F6FA"/>
<path d="M91.4102 265.434C92.5156 265.434 93.3223 265.65 93.8301 266.084C94.3418 266.514 94.5977 267.131 94.5977 267.936C94.5977 268.299 94.5371 268.645 94.416 268.973C94.2988 269.297 94.1074 269.584 93.8418 269.834C93.5762 270.08 93.2266 270.275 92.793 270.42C92.3633 270.561 91.8359 270.631 91.2109 270.631H90.168V274H89.1719V265.434H91.4102ZM91.3164 266.283H90.168V269.775H91.0996C91.6465 269.775 92.1016 269.717 92.4648 269.6C92.832 269.482 93.1074 269.293 93.291 269.031C93.4746 268.766 93.5664 268.414 93.5664 267.977C93.5664 267.406 93.3848 266.982 93.0215 266.705C92.6582 266.424 92.0898 266.283 91.3164 266.283ZM97.2227 274H96.2441V264.883H97.2227V274ZM101.682 267.473C102.447 267.473 103.016 267.645 103.387 267.988C103.758 268.332 103.943 268.881 103.943 269.635V274H103.234L103.047 273.051H103C102.82 273.285 102.633 273.482 102.438 273.643C102.242 273.799 102.016 273.918 101.758 274C101.504 274.078 101.191 274.117 100.82 274.117C100.43 274.117 100.082 274.049 99.7773 273.912C99.4766 273.775 99.2383 273.568 99.0625 273.291C98.8906 273.014 98.8047 272.662 98.8047 272.236C98.8047 271.596 99.0586 271.104 99.5664 270.76C100.074 270.416 100.848 270.229 101.887 270.197L102.994 270.15V269.758C102.994 269.203 102.875 268.814 102.637 268.592C102.398 268.369 102.062 268.258 101.629 268.258C101.293 268.258 100.973 268.307 100.668 268.404C100.363 268.502 100.074 268.617 99.8008 268.75L99.502 268.012C99.791 267.863 100.123 267.736 100.498 267.631C100.873 267.525 101.268 267.473 101.682 267.473ZM102.982 270.836L102.004 270.877C101.203 270.908 100.639 271.039 100.311 271.27C99.9824 271.5 99.8184 271.826 99.8184 272.248C99.8184 272.615 99.9297 272.887 100.152 273.062C100.375 273.238 100.67 273.326 101.037 273.326C101.607 273.326 102.074 273.168 102.438 272.852C102.801 272.535 102.982 272.061 102.982 271.428V270.836ZM108.52 274.117C107.941 274.117 107.432 273.998 106.99 273.76C106.549 273.521 106.205 273.158 105.959 272.67C105.713 272.182 105.59 271.566 105.59 270.824C105.59 270.047 105.719 269.412 105.977 268.92C106.238 268.424 106.598 268.057 107.055 267.818C107.512 267.58 108.031 267.461 108.613 267.461C108.934 267.461 109.242 267.494 109.539 267.561C109.84 267.623 110.086 267.703 110.277 267.801L109.984 268.615C109.789 268.537 109.562 268.467 109.305 268.404C109.051 268.342 108.812 268.311 108.59 268.311C108.145 268.311 107.773 268.406 107.477 268.598C107.184 268.789 106.963 269.07 106.814 269.441C106.67 269.812 106.598 270.27 106.598 270.812C106.598 271.332 106.668 271.775 106.809 272.143C106.953 272.51 107.166 272.791 107.447 272.986C107.732 273.178 108.088 273.273 108.514 273.273C108.854 273.273 109.16 273.238 109.434 273.168C109.707 273.094 109.955 273.008 110.178 272.91V273.777C109.963 273.887 109.723 273.971 109.457 274.029C109.195 274.088 108.883 274.117 108.52 274.117ZM114.174 267.461C114.721 267.461 115.189 267.582 115.58 267.824C115.971 268.066 116.27 268.406 116.477 268.844C116.684 269.277 116.787 269.785 116.787 270.367V270.971H112.352C112.363 271.725 112.551 272.299 112.914 272.693C113.277 273.088 113.789 273.285 114.449 273.285C114.855 273.285 115.215 273.248 115.527 273.174C115.84 273.1 116.164 272.99 116.5 272.846V273.701C116.176 273.846 115.854 273.951 115.533 274.018C115.217 274.084 114.842 274.117 114.408 274.117C113.791 274.117 113.252 273.992 112.791 273.742C112.334 273.488 111.979 273.117 111.725 272.629C111.471 272.141 111.344 271.543 111.344 270.836C111.344 270.145 111.459 269.547 111.689 269.043C111.924 268.535 112.252 268.145 112.674 267.871C113.1 267.598 113.6 267.461 114.174 267.461ZM114.162 268.258C113.643 268.258 113.229 268.428 112.92 268.768C112.611 269.107 112.428 269.582 112.369 270.191H115.768C115.764 269.809 115.703 269.473 115.586 269.184C115.473 268.891 115.299 268.664 115.064 268.504C114.83 268.34 114.529 268.258 114.162 268.258ZM119.412 264.883V267.607C119.412 267.764 119.408 267.922 119.4 268.082C119.393 268.238 119.379 268.383 119.359 268.516H119.424C119.557 268.289 119.725 268.1 119.928 267.947C120.135 267.791 120.369 267.674 120.631 267.596C120.893 267.514 121.17 267.473 121.463 267.473C121.979 267.473 122.408 267.555 122.752 267.719C123.1 267.883 123.359 268.137 123.531 268.48C123.707 268.824 123.795 269.27 123.795 269.816V274H122.834V269.881C122.834 269.346 122.711 268.945 122.465 268.68C122.223 268.414 121.85 268.281 121.346 268.281C120.869 268.281 120.488 268.373 120.203 268.557C119.922 268.736 119.719 269.002 119.594 269.354C119.473 269.705 119.412 270.135 119.412 270.643V274H118.439V264.883H119.412ZM131.336 270.777C131.336 271.305 131.268 271.775 131.131 272.189C130.994 272.604 130.797 272.953 130.539 273.238C130.281 273.523 129.969 273.742 129.602 273.895C129.238 274.043 128.826 274.117 128.365 274.117C127.936 274.117 127.541 274.043 127.182 273.895C126.826 273.742 126.518 273.523 126.256 273.238C125.998 272.953 125.797 272.604 125.652 272.189C125.512 271.775 125.441 271.305 125.441 270.777C125.441 270.074 125.561 269.477 125.799 268.984C126.037 268.488 126.377 268.111 126.818 267.854C127.264 267.592 127.793 267.461 128.406 267.461C128.992 267.461 129.504 267.592 129.941 267.854C130.383 268.115 130.725 268.494 130.967 268.99C131.213 269.482 131.336 270.078 131.336 270.777ZM126.449 270.777C126.449 271.293 126.518 271.74 126.654 272.119C126.791 272.498 127.002 272.791 127.287 272.998C127.572 273.205 127.939 273.309 128.389 273.309C128.834 273.309 129.199 273.205 129.484 272.998C129.773 272.791 129.986 272.498 130.123 272.119C130.26 271.74 130.328 271.293 130.328 270.777C130.328 270.266 130.26 269.824 130.123 269.453C129.986 269.078 129.775 268.789 129.49 268.586C129.205 268.383 128.836 268.281 128.383 268.281C127.715 268.281 127.225 268.502 126.912 268.943C126.604 269.385 126.449 269.996 126.449 270.777ZM133.996 274H133.018V264.883H133.996V274ZM138.338 274.117C137.525 274.117 136.881 273.84 136.404 273.285C135.932 272.73 135.695 271.906 135.695 270.812C135.695 269.707 135.938 268.873 136.422 268.311C136.906 267.744 137.551 267.461 138.355 267.461C138.695 267.461 138.992 267.506 139.246 267.596C139.5 267.686 139.719 267.807 139.902 267.959C140.086 268.107 140.24 268.277 140.365 268.469H140.436C140.42 268.348 140.404 268.182 140.389 267.971C140.373 267.76 140.365 267.588 140.365 267.455V264.883H141.338V274H140.553L140.406 273.086H140.365C140.244 273.277 140.09 273.451 139.902 273.607C139.719 273.764 139.498 273.889 139.24 273.982C138.986 274.072 138.686 274.117 138.338 274.117ZM138.49 273.309C139.178 273.309 139.664 273.113 139.949 272.723C140.234 272.332 140.377 271.752 140.377 270.982V270.807C140.377 269.99 140.24 269.363 139.967 268.926C139.697 268.488 139.205 268.27 138.49 268.27C137.893 268.27 137.445 268.5 137.148 268.961C136.852 269.418 136.703 270.043 136.703 270.836C136.703 271.625 136.85 272.234 137.143 272.664C137.439 273.094 137.889 273.309 138.49 273.309ZM145.873 267.461C146.42 267.461 146.889 267.582 147.279 267.824C147.67 268.066 147.969 268.406 148.176 268.844C148.383 269.277 148.486 269.785 148.486 270.367V270.971H144.051C144.062 271.725 144.25 272.299 144.613 272.693C144.977 273.088 145.488 273.285 146.148 273.285C146.555 273.285 146.914 273.248 147.227 273.174C147.539 273.1 147.863 272.99 148.199 272.846V273.701C147.875 273.846 147.553 273.951 147.232 274.018C146.916 274.084 146.541 274.117 146.107 274.117C145.49 274.117 144.951 273.992 144.49 273.742C144.033 273.488 143.678 273.117 143.424 272.629C143.17 272.141 143.043 271.543 143.043 270.836C143.043 270.145 143.158 269.547 143.389 269.043C143.623 268.535 143.951 268.145 144.373 267.871C144.799 267.598 145.299 267.461 145.873 267.461ZM145.861 268.258C145.342 268.258 144.928 268.428 144.619 268.768C144.311 269.107 144.127 269.582 144.068 270.191H147.467C147.463 269.809 147.402 269.473 147.285 269.184C147.172 268.891 146.998 268.664 146.764 268.504C146.529 268.34 146.229 268.258 145.861 268.258ZM153.057 267.461C153.186 267.461 153.32 267.469 153.461 267.484C153.602 267.496 153.727 267.514 153.836 267.537L153.713 268.439C153.607 268.412 153.49 268.391 153.361 268.375C153.232 268.359 153.111 268.352 152.998 268.352C152.74 268.352 152.496 268.404 152.266 268.51C152.039 268.611 151.84 268.76 151.668 268.955C151.496 269.146 151.361 269.379 151.264 269.652C151.166 269.922 151.117 270.223 151.117 270.555V274H150.139V267.578H150.947L151.053 268.762H151.094C151.227 268.523 151.387 268.307 151.574 268.111C151.762 267.912 151.979 267.754 152.225 267.637C152.475 267.52 152.752 267.461 153.057 267.461Z" fill="#8F95B2"/>
<rect x="80.5" y="253.5" width="249" height="31" rx="3.5" stroke="#E6E8F0"/>
<rect x="77.5" y="330.5" width="499" height="31" rx="3.5" fill="#F4F6FA"/>
<path d="M151 361V330.5" stroke="#E6E8F0" stroke-dasharray="2 2"/>
<path d="M227 361.5V331" stroke="#E6E8F0" stroke-dasharray="2 2"/>
<path d="M326 361.5V331" stroke="#E6E8F0" stroke-dasharray="2 2"/>
<path d="M426 361.5V331" stroke="#E6E8F0" stroke-dasharray="2 2"/>
<rect x="77.5" y="330.5" width="499" height="31" rx="3.5" stroke="#E6E8F0"/>
<path d="M139.25 377L142.072 370.882H138.361V369.871H143.298V370.672L140.49 377H139.25ZM146.574 372.542C147.294 372.542 147.863 372.732 148.283 373.113C148.703 373.494 148.913 374.013 148.913 374.671C148.913 375.433 148.674 376.028 148.195 376.458C147.72 376.884 147.043 377.098 146.164 377.098C145.367 377.098 144.74 376.969 144.284 376.712V375.672C144.548 375.822 144.851 375.937 145.192 376.019C145.534 376.1 145.852 376.141 146.145 376.141C146.662 376.141 147.056 376.025 147.326 375.794C147.596 375.563 147.731 375.224 147.731 374.778C147.731 373.925 147.188 373.499 146.101 373.499C145.948 373.499 145.759 373.515 145.534 373.548C145.31 373.577 145.113 373.611 144.943 373.65L144.431 373.348L144.704 369.861H148.415V370.882H145.715L145.554 372.649C145.668 372.63 145.806 372.607 145.969 372.581C146.135 372.555 146.337 372.542 146.574 372.542ZM152.985 377.098C152.302 377.098 151.771 376.852 151.394 376.36H151.325C151.371 376.816 151.394 377.093 151.394 377.19V379.402H150.246V371.6H151.174C151.2 371.701 151.254 371.941 151.335 372.322H151.394C151.752 371.775 152.289 371.502 153.005 371.502C153.679 371.502 154.203 371.746 154.577 372.234C154.955 372.723 155.144 373.408 155.144 374.29C155.144 375.172 154.951 375.861 154.567 376.355C154.187 376.85 153.659 377.098 152.985 377.098ZM152.707 372.439C152.251 372.439 151.918 372.573 151.706 372.84C151.498 373.107 151.394 373.533 151.394 374.119V374.29C151.394 374.948 151.498 375.424 151.706 375.721C151.914 376.014 152.255 376.16 152.727 376.16C153.124 376.16 153.43 375.997 153.645 375.672C153.859 375.346 153.967 374.882 153.967 374.28C153.967 373.675 153.859 373.217 153.645 372.908C153.433 372.596 153.12 372.439 152.707 372.439ZM157.678 374.241L155.866 371.6H157.175L158.405 373.489L159.646 371.6H160.944L159.128 374.241L161.037 377H159.738L158.405 374.979L157.077 377H155.778L157.678 374.241ZM138.4 390.261C138.4 389.398 138.526 388.591 138.776 387.839C139.03 387.087 139.395 386.428 139.87 385.861H140.871C140.419 386.473 140.072 387.16 139.831 387.922C139.59 388.68 139.47 389.457 139.47 390.251C139.47 391.045 139.59 391.815 139.831 392.561C140.072 393.306 140.415 393.98 140.861 394.582H139.87C139.392 394.029 139.027 393.382 138.776 392.644C138.526 391.905 138.4 391.11 138.4 390.261ZM146.545 393H145.393V389.67C145.393 389.257 145.314 388.949 145.158 388.747C145.002 388.542 144.758 388.439 144.426 388.439C143.983 388.439 143.658 388.584 143.449 388.874C143.244 389.16 143.142 389.639 143.142 390.31V393H141.994V387.6H142.893L143.054 388.308H143.112C143.262 388.05 143.479 387.852 143.762 387.712C144.048 387.572 144.362 387.502 144.704 387.502C145.534 387.502 146.084 387.785 146.354 388.352H146.433C146.592 388.085 146.817 387.876 147.106 387.727C147.396 387.577 147.728 387.502 148.103 387.502C148.747 387.502 149.216 387.665 149.509 387.99C149.805 388.316 149.953 388.812 149.953 389.479V393H148.806V389.67C148.806 389.257 148.726 388.949 148.566 388.747C148.41 388.542 148.166 388.439 147.834 388.439C147.388 388.439 147.061 388.579 146.853 388.859C146.647 389.136 146.545 389.562 146.545 390.139V393ZM152.702 393H151.555V387.6H152.702V393ZM151.486 386.169C151.486 385.964 151.542 385.806 151.652 385.695C151.766 385.585 151.927 385.529 152.136 385.529C152.338 385.529 152.494 385.585 152.604 385.695C152.718 385.806 152.775 385.964 152.775 386.169C152.775 386.364 152.718 386.519 152.604 386.633C152.494 386.743 152.338 386.799 152.136 386.799C151.927 386.799 151.766 386.743 151.652 386.633C151.542 386.519 151.486 386.364 151.486 386.169ZM159.099 393H157.946V389.68C157.946 389.263 157.862 388.952 157.692 388.747C157.526 388.542 157.261 388.439 156.896 388.439C156.411 388.439 156.057 388.583 155.832 388.869C155.607 389.156 155.495 389.636 155.495 390.31V393H154.348V387.6H155.246L155.407 388.308H155.466C155.629 388.05 155.86 387.852 156.159 387.712C156.459 387.572 156.791 387.502 157.155 387.502C158.451 387.502 159.099 388.161 159.099 389.479V393ZM162.644 390.261C162.644 391.117 162.517 391.914 162.263 392.653C162.012 393.392 161.649 394.035 161.174 394.582H160.183C160.632 393.973 160.975 393.298 161.213 392.556C161.454 391.813 161.574 391.045 161.574 390.251C161.574 389.453 161.454 388.677 161.213 387.922C160.972 387.163 160.625 386.477 160.173 385.861H161.174C161.652 386.431 162.017 387.093 162.268 387.849C162.518 388.601 162.644 389.405 162.644 390.261Z" fill="#8F95B2"/>
<path d="M217.809 377H216.661V372.391C216.661 371.84 216.674 371.404 216.7 371.082C216.625 371.16 216.533 371.246 216.422 371.341C216.314 371.435 215.95 371.735 215.328 372.239L214.752 371.512L216.852 369.861H217.809V377ZM222.574 372.542C223.294 372.542 223.863 372.732 224.283 373.113C224.703 373.494 224.913 374.013 224.913 374.671C224.913 375.433 224.674 376.028 224.195 376.458C223.72 376.884 223.043 377.098 222.164 377.098C221.367 377.098 220.74 376.969 220.284 376.712V375.672C220.548 375.822 220.851 375.937 221.192 376.019C221.534 376.1 221.852 376.141 222.145 376.141C222.662 376.141 223.056 376.025 223.326 375.794C223.596 375.563 223.731 375.224 223.731 374.778C223.731 373.925 223.188 373.499 222.101 373.499C221.948 373.499 221.759 373.515 221.534 373.548C221.31 373.577 221.113 373.611 220.943 373.65L220.431 373.348L220.704 369.861H224.415V370.882H221.715L221.554 372.649C221.668 372.63 221.806 372.607 221.969 372.581C222.135 372.555 222.337 372.542 222.574 372.542ZM230.704 373.431C230.704 374.671 230.504 375.592 230.104 376.194C229.706 376.797 229.098 377.098 228.277 377.098C227.483 377.098 226.881 376.787 226.471 376.165C226.061 375.543 225.855 374.632 225.855 373.431C225.855 372.171 226.054 371.243 226.451 370.647C226.852 370.049 227.46 369.749 228.277 369.749C229.075 369.749 229.679 370.062 230.089 370.687C230.499 371.312 230.704 372.226 230.704 373.431ZM227.018 373.431C227.018 374.404 227.117 375.099 227.315 375.516C227.517 375.932 227.838 376.141 228.277 376.141C228.717 376.141 229.037 375.929 229.239 375.506C229.444 375.083 229.547 374.391 229.547 373.431C229.547 372.474 229.444 371.782 229.239 371.355C229.037 370.926 228.717 370.711 228.277 370.711C227.838 370.711 227.517 370.921 227.315 371.341C227.117 371.761 227.018 372.457 227.018 373.431ZM234.698 377.098C234.015 377.098 233.484 376.852 233.106 376.36H233.038C233.084 376.816 233.106 377.093 233.106 377.19V379.402H231.959V371.6H232.887C232.913 371.701 232.966 371.941 233.048 372.322H233.106C233.465 371.775 234.002 371.502 234.718 371.502C235.392 371.502 235.916 371.746 236.29 372.234C236.668 372.723 236.856 373.408 236.856 374.29C236.856 375.172 236.664 375.861 236.28 376.355C235.899 376.85 235.372 377.098 234.698 377.098ZM234.42 372.439C233.964 372.439 233.631 372.573 233.419 372.84C233.211 373.107 233.106 373.533 233.106 374.119V374.29C233.106 374.948 233.211 375.424 233.419 375.721C233.627 376.014 233.967 376.16 234.439 376.16C234.837 376.16 235.143 375.997 235.357 375.672C235.572 375.346 235.68 374.882 235.68 374.28C235.68 373.675 235.572 373.217 235.357 372.908C235.146 372.596 234.833 372.439 234.42 372.439ZM239.391 374.241L237.579 371.6H238.888L240.118 373.489L241.358 371.6H242.657L240.841 374.241L242.75 377H241.451L240.118 374.979L238.79 377H237.491L239.391 374.241Z" fill="#8F95B2"/>
<path d="M315.278 377H310.439V376.131L312.28 374.28C312.824 373.724 313.184 373.33 313.359 373.099C313.538 372.864 313.669 372.645 313.75 372.439C313.831 372.234 313.872 372.015 313.872 371.78C313.872 371.458 313.774 371.204 313.579 371.019C313.387 370.833 313.12 370.74 312.778 370.74C312.505 370.74 312.24 370.791 311.982 370.892C311.729 370.993 311.434 371.175 311.099 371.438L310.479 370.682C310.876 370.346 311.261 370.109 311.636 369.969C312.01 369.829 312.409 369.759 312.832 369.759C313.496 369.759 314.028 369.933 314.429 370.281C314.829 370.626 315.029 371.092 315.029 371.678C315.029 372 314.971 372.306 314.854 372.596C314.74 372.885 314.562 373.185 314.321 373.494C314.084 373.8 313.687 374.215 313.13 374.739L311.89 375.94V375.989H315.278V377ZM318.574 372.542C319.294 372.542 319.863 372.732 320.283 373.113C320.703 373.494 320.913 374.013 320.913 374.671C320.913 375.433 320.674 376.028 320.195 376.458C319.72 376.884 319.043 377.098 318.164 377.098C317.367 377.098 316.74 376.969 316.284 376.712V375.672C316.548 375.822 316.851 375.937 317.192 376.019C317.534 376.1 317.852 376.141 318.145 376.141C318.662 376.141 319.056 376.025 319.326 375.794C319.596 375.563 319.731 375.224 319.731 374.778C319.731 373.925 319.188 373.499 318.101 373.499C317.948 373.499 317.759 373.515 317.534 373.548C317.31 373.577 317.113 373.611 316.943 373.65L316.431 373.348L316.704 369.861H320.415V370.882H317.715L317.554 372.649C317.668 372.63 317.806 372.607 317.969 372.581C318.135 372.555 318.337 372.542 318.574 372.542ZM326.704 373.431C326.704 374.671 326.504 375.592 326.104 376.194C325.706 376.797 325.098 377.098 324.277 377.098C323.483 377.098 322.881 376.787 322.471 376.165C322.061 375.543 321.855 374.632 321.855 373.431C321.855 372.171 322.054 371.243 322.451 370.647C322.852 370.049 323.46 369.749 324.277 369.749C325.075 369.749 325.679 370.062 326.089 370.687C326.499 371.312 326.704 372.226 326.704 373.431ZM323.018 373.431C323.018 374.404 323.117 375.099 323.315 375.516C323.517 375.932 323.838 376.141 324.277 376.141C324.717 376.141 325.037 375.929 325.239 375.506C325.444 375.083 325.547 374.391 325.547 373.431C325.547 372.474 325.444 371.782 325.239 371.355C325.037 370.926 324.717 370.711 324.277 370.711C323.838 370.711 323.517 370.921 323.315 371.341C323.117 371.761 323.018 372.457 323.018 373.431ZM330.698 377.098C330.015 377.098 329.484 376.852 329.106 376.36H329.038C329.084 376.816 329.106 377.093 329.106 377.19V379.402H327.959V371.6H328.887C328.913 371.701 328.966 371.941 329.048 372.322H329.106C329.465 371.775 330.002 371.502 330.718 371.502C331.392 371.502 331.916 371.746 332.29 372.234C332.668 372.723 332.856 373.408 332.856 374.29C332.856 375.172 332.664 375.861 332.28 376.355C331.899 376.85 331.372 377.098 330.698 377.098ZM330.42 372.439C329.964 372.439 329.631 372.573 329.419 372.84C329.211 373.107 329.106 373.533 329.106 374.119V374.29C329.106 374.948 329.211 375.424 329.419 375.721C329.627 376.014 329.967 376.16 330.439 376.16C330.837 376.16 331.143 375.997 331.357 375.672C331.572 375.346 331.68 374.882 331.68 374.28C331.68 373.675 331.572 373.217 331.357 372.908C331.146 372.596 330.833 372.439 330.42 372.439ZM335.391 374.241L333.579 371.6H334.888L336.118 373.489L337.358 371.6H338.657L336.841 374.241L338.75 377H337.451L336.118 374.979L334.79 377H333.491L335.391 374.241Z" fill="#8F95B2"/>
<path d="M415.01 371.502C415.01 371.954 414.878 372.332 414.614 372.635C414.351 372.934 413.979 373.136 413.501 373.24V373.279C414.074 373.351 414.504 373.53 414.79 373.816C415.076 374.1 415.22 374.477 415.22 374.949C415.22 375.636 414.977 376.167 414.492 376.541C414.007 376.912 413.317 377.098 412.422 377.098C411.631 377.098 410.964 376.969 410.42 376.712V375.691C410.723 375.841 411.043 375.957 411.382 376.038C411.72 376.119 412.046 376.16 412.358 376.16C412.912 376.16 413.325 376.058 413.599 375.853C413.872 375.647 414.009 375.33 414.009 374.9C414.009 374.52 413.857 374.24 413.555 374.061C413.252 373.882 412.777 373.792 412.129 373.792H411.509V372.859H412.139C413.278 372.859 413.848 372.465 413.848 371.678C413.848 371.372 413.748 371.136 413.55 370.97C413.351 370.804 413.058 370.721 412.671 370.721C412.401 370.721 412.14 370.76 411.89 370.838C411.639 370.913 411.343 371.061 411.001 371.282L410.439 370.481C411.094 370 411.854 369.759 412.72 369.759C413.439 369.759 414.001 369.913 414.404 370.223C414.808 370.532 415.01 370.958 415.01 371.502ZM418.574 372.542C419.294 372.542 419.863 372.732 420.283 373.113C420.703 373.494 420.913 374.013 420.913 374.671C420.913 375.433 420.674 376.028 420.195 376.458C419.72 376.884 419.043 377.098 418.164 377.098C417.367 377.098 416.74 376.969 416.284 376.712V375.672C416.548 375.822 416.851 375.937 417.192 376.019C417.534 376.1 417.852 376.141 418.145 376.141C418.662 376.141 419.056 376.025 419.326 375.794C419.596 375.563 419.731 375.224 419.731 374.778C419.731 373.925 419.188 373.499 418.101 373.499C417.948 373.499 417.759 373.515 417.534 373.548C417.31 373.577 417.113 373.611 416.943 373.65L416.431 373.348L416.704 369.861H420.415V370.882H417.715L417.554 372.649C417.668 372.63 417.806 372.607 417.969 372.581C418.135 372.555 418.337 372.542 418.574 372.542ZM426.704 373.431C426.704 374.671 426.504 375.592 426.104 376.194C425.706 376.797 425.098 377.098 424.277 377.098C423.483 377.098 422.881 376.787 422.471 376.165C422.061 375.543 421.855 374.632 421.855 373.431C421.855 372.171 422.054 371.243 422.451 370.647C422.852 370.049 423.46 369.749 424.277 369.749C425.075 369.749 425.679 370.062 426.089 370.687C426.499 371.312 426.704 372.226 426.704 373.431ZM423.018 373.431C423.018 374.404 423.117 375.099 423.315 375.516C423.517 375.932 423.838 376.141 424.277 376.141C424.717 376.141 425.037 375.929 425.239 375.506C425.444 375.083 425.547 374.391 425.547 373.431C425.547 372.474 425.444 371.782 425.239 371.355C425.037 370.926 424.717 370.711 424.277 370.711C423.838 370.711 423.517 370.921 423.315 371.341C423.117 371.761 423.018 372.457 423.018 373.431ZM430.698 377.098C430.015 377.098 429.484 376.852 429.106 376.36H429.038C429.084 376.816 429.106 377.093 429.106 377.19V379.402H427.959V371.6H428.887C428.913 371.701 428.966 371.941 429.048 372.322H429.106C429.465 371.775 430.002 371.502 430.718 371.502C431.392 371.502 431.916 371.746 432.29 372.234C432.668 372.723 432.856 373.408 432.856 374.29C432.856 375.172 432.664 375.861 432.28 376.355C431.899 376.85 431.372 377.098 430.698 377.098ZM430.42 372.439C429.964 372.439 429.631 372.573 429.419 372.84C429.211 373.107 429.106 373.533 429.106 374.119V374.29C429.106 374.948 429.211 375.424 429.419 375.721C429.627 376.014 429.967 376.16 430.439 376.16C430.837 376.16 431.143 375.997 431.357 375.672C431.572 375.346 431.68 374.882 431.68 374.28C431.68 373.675 431.572 373.217 431.357 372.908C431.146 372.596 430.833 372.439 430.42 372.439ZM435.391 374.241L433.579 371.6H434.888L436.118 373.489L437.358 371.6H438.657L436.841 374.241L438.75 377H437.451L436.118 374.979L434.79 377H433.491L435.391 374.241Z" fill="#8F95B2"/>
<path d="M558.861 369.542C559.581 369.542 560.15 369.732 560.57 370.113C560.99 370.494 561.2 371.013 561.2 371.671C561.2 372.433 560.961 373.028 560.482 373.458C560.007 373.884 559.33 374.098 558.451 374.098C557.654 374.098 557.027 373.969 556.571 373.712V372.672C556.835 372.822 557.138 372.937 557.479 373.019C557.821 373.1 558.139 373.141 558.432 373.141C558.949 373.141 559.343 373.025 559.613 372.794C559.883 372.563 560.019 372.224 560.019 371.778C560.019 370.925 559.475 370.499 558.388 370.499C558.235 370.499 558.046 370.515 557.821 370.548C557.597 370.577 557.4 370.611 557.23 370.65L556.718 370.348L556.991 366.861H560.702V367.882H558.002L557.841 369.649C557.955 369.63 558.093 369.607 558.256 369.581C558.422 369.555 558.624 369.542 558.861 369.542ZM566.991 370.431C566.991 371.671 566.791 372.592 566.391 373.194C565.993 373.797 565.385 374.098 564.564 374.098C563.77 374.098 563.168 373.787 562.758 373.165C562.348 372.543 562.143 371.632 562.143 370.431C562.143 369.171 562.341 368.243 562.738 367.647C563.139 367.049 563.747 366.749 564.564 366.749C565.362 366.749 565.966 367.062 566.376 367.687C566.786 368.312 566.991 369.226 566.991 370.431ZM563.305 370.431C563.305 371.404 563.404 372.099 563.603 372.516C563.804 372.932 564.125 373.141 564.564 373.141C565.004 373.141 565.325 372.929 565.526 372.506C565.731 372.083 565.834 371.391 565.834 370.431C565.834 369.474 565.731 368.782 565.526 368.355C565.325 367.926 565.004 367.711 564.564 367.711C564.125 367.711 563.804 367.921 563.603 368.341C563.404 368.761 563.305 369.457 563.305 370.431ZM572.704 370.431C572.704 371.671 572.504 372.592 572.104 373.194C571.706 373.797 571.098 374.098 570.277 374.098C569.483 374.098 568.881 373.787 568.471 373.165C568.061 372.543 567.855 371.632 567.855 370.431C567.855 369.171 568.054 368.243 568.451 367.647C568.852 367.049 569.46 366.749 570.277 366.749C571.075 366.749 571.679 367.062 572.089 367.687C572.499 368.312 572.704 369.226 572.704 370.431ZM569.018 370.431C569.018 371.404 569.117 372.099 569.315 372.516C569.517 372.932 569.838 373.141 570.277 373.141C570.717 373.141 571.037 372.929 571.239 372.506C571.444 372.083 571.547 371.391 571.547 370.431C571.547 369.474 571.444 368.782 571.239 368.355C571.037 367.926 570.717 367.711 570.277 367.711C569.838 367.711 569.517 367.921 569.315 368.341C569.117 368.761 569.018 369.457 569.018 370.431ZM576.698 374.098C576.015 374.098 575.484 373.852 575.106 373.36H575.038C575.084 373.816 575.106 374.093 575.106 374.19V376.402H573.959V368.6H574.887C574.913 368.701 574.966 368.941 575.048 369.322H575.106C575.465 368.775 576.002 368.502 576.718 368.502C577.392 368.502 577.916 368.746 578.29 369.234C578.668 369.723 578.856 370.408 578.856 371.29C578.856 372.172 578.664 372.861 578.28 373.355C577.899 373.85 577.372 374.098 576.698 374.098ZM576.42 369.439C575.964 369.439 575.631 369.573 575.419 369.84C575.211 370.107 575.106 370.533 575.106 371.119V371.29C575.106 371.948 575.211 372.424 575.419 372.721C575.627 373.014 575.967 373.16 576.439 373.16C576.837 373.16 577.143 372.997 577.357 372.672C577.572 372.346 577.68 371.882 577.68 371.28C577.68 370.675 577.572 370.217 577.357 369.908C577.146 369.596 576.833 369.439 576.42 369.439ZM581.391 371.241L579.579 368.6H580.888L582.118 370.489L583.358 368.6H584.657L582.841 371.241L584.75 374H583.451L582.118 371.979L580.79 374H579.491L581.391 371.241ZM556.4 387.261C556.4 386.398 556.526 385.591 556.776 384.839C557.03 384.087 557.395 383.428 557.87 382.861H558.871C558.419 383.473 558.072 384.16 557.831 384.922C557.59 385.68 557.47 386.457 557.47 387.251C557.47 388.045 557.59 388.815 557.831 389.561C558.072 390.306 558.415 390.98 558.861 391.582H557.87C557.392 391.029 557.027 390.382 556.776 389.644C556.526 388.905 556.4 388.11 556.4 387.261ZM564.545 390H563.393V386.67C563.393 386.257 563.314 385.949 563.158 385.747C563.002 385.542 562.758 385.439 562.426 385.439C561.983 385.439 561.658 385.584 561.449 385.874C561.244 386.16 561.142 386.639 561.142 387.31V390H559.994V384.6H560.893L561.054 385.308H561.112C561.262 385.05 561.479 384.852 561.762 384.712C562.048 384.572 562.362 384.502 562.704 384.502C563.534 384.502 564.084 384.785 564.354 385.352H564.433C564.592 385.085 564.817 384.876 565.106 384.727C565.396 384.577 565.728 384.502 566.103 384.502C566.747 384.502 567.216 384.665 567.509 384.99C567.805 385.316 567.953 385.812 567.953 386.479V390H566.806V386.67C566.806 386.257 566.726 385.949 566.566 385.747C566.41 385.542 566.166 385.439 565.834 385.439C565.388 385.439 565.061 385.579 564.853 385.859C564.647 386.136 564.545 386.562 564.545 387.139V390ZM572.934 390L572.704 389.248H572.665C572.405 389.577 572.143 389.801 571.879 389.922C571.615 390.039 571.277 390.098 570.863 390.098C570.333 390.098 569.918 389.954 569.618 389.668C569.322 389.382 569.174 388.976 569.174 388.452C569.174 387.896 569.381 387.476 569.794 387.192C570.207 386.909 570.837 386.755 571.684 386.729L572.616 386.699V386.411C572.616 386.066 572.535 385.809 572.372 385.64C572.213 385.467 571.964 385.381 571.625 385.381C571.348 385.381 571.083 385.422 570.829 385.503C570.575 385.584 570.331 385.68 570.097 385.791L569.726 384.971C570.019 384.818 570.339 384.702 570.688 384.624C571.036 384.543 571.365 384.502 571.674 384.502C572.361 384.502 572.878 384.652 573.227 384.951C573.578 385.251 573.754 385.721 573.754 386.362V390H572.934ZM571.225 389.219C571.641 389.219 571.975 389.103 572.226 388.872C572.479 388.638 572.606 388.311 572.606 387.891V387.422L571.913 387.451C571.373 387.471 570.979 387.562 570.731 387.725C570.487 387.884 570.365 388.13 570.365 388.462C570.365 388.703 570.437 388.89 570.58 389.023C570.723 389.154 570.938 389.219 571.225 389.219ZM576.557 387.241L574.745 384.6H576.054L577.284 386.489L578.524 384.6H579.823L578.007 387.241L579.916 390H578.617L577.284 387.979L575.956 390H574.657L576.557 387.241ZM582.812 387.261C582.812 388.117 582.685 388.914 582.431 389.653C582.18 390.392 581.817 391.035 581.342 391.582H580.351C580.8 390.973 581.143 390.298 581.381 389.556C581.622 388.813 581.742 388.045 581.742 387.251C581.742 386.453 581.622 385.677 581.381 384.922C581.14 384.163 580.793 383.477 580.341 382.861H581.342C581.82 383.431 582.185 384.093 582.436 384.849C582.686 385.601 582.812 386.405 582.812 387.261Z" fill="#8F95B2"/>
</svg>
