<svg width="896" height="110" viewBox="0 0 896 110" fill="none" xmlns="http://www.w3.org/2000/svg">
<g filter="url(#filter0_d_866_8919)">
<rect width="885.517" height="44.2759" transform="translate(5 32.3735)" fill="white"/>
<path d="M29.7322 56.757V57.5112H26.2347V56.757H29.7322ZM26.4173 50.5163V57.5112H25.4901V50.5163H26.4173ZM33.7245 56.6224V53.9465C33.7245 53.7415 33.6829 53.5637 33.5996 53.4132C33.5196 53.2595 33.3979 53.141 33.2345 53.0577C33.0712 52.9744 32.8694 52.9328 32.6292 52.9328C32.405 52.9328 32.208 52.9712 32.0383 53.0481C31.8717 53.125 31.7404 53.2258 31.6443 53.3508C31.5514 53.4757 31.505 53.6102 31.505 53.7543H30.6162C30.6162 53.5686 30.6642 53.3844 30.7603 53.2018C30.8564 53.0193 30.9941 52.8543 31.1735 52.707C31.3561 52.5565 31.5738 52.438 31.8269 52.3515C32.0831 52.2618 32.3681 52.217 32.682 52.217C33.06 52.217 33.3931 52.281 33.6813 52.4091C33.9728 52.5372 34.2002 52.731 34.3635 52.9904C34.5301 53.2467 34.6133 53.5686 34.6133 53.9561V56.3774C34.6133 56.5504 34.6277 56.7345 34.6566 56.9299C34.6886 57.1253 34.735 57.2934 34.7959 57.4344V57.5112H33.8687C33.8238 57.4087 33.7886 57.2726 33.763 57.1029C33.7374 56.9299 33.7245 56.7698 33.7245 56.6224ZM33.8783 54.3596L33.8879 54.9842H32.9895C32.7365 54.9842 32.5107 55.005 32.3121 55.0467C32.1135 55.0851 31.947 55.1443 31.8125 55.2244C31.6779 55.3045 31.5754 55.4054 31.505 55.5271C31.4345 55.6456 31.3993 55.7849 31.3993 55.945C31.3993 56.1084 31.4361 56.2573 31.5098 56.3918C31.5835 56.5264 31.694 56.6337 31.8413 56.7137C31.9918 56.7906 32.176 56.829 32.3938 56.829C32.666 56.829 32.9062 56.7714 33.1144 56.6561C33.3226 56.5408 33.4875 56.3998 33.6092 56.2333C33.7342 56.0668 33.8014 55.905 33.811 55.7481L34.1906 56.1757C34.1681 56.3102 34.1073 56.4591 34.008 56.6224C33.9087 56.7858 33.7758 56.9427 33.6092 57.0933C33.4459 57.2406 33.2505 57.3639 33.0231 57.4632C32.7989 57.5593 32.5459 57.6073 32.2641 57.6073C31.9117 57.6073 31.6027 57.5385 31.3368 57.4007C31.0742 57.263 30.8692 57.0788 30.7219 56.8482C30.5778 56.6144 30.5057 56.3534 30.5057 56.0652C30.5057 55.7865 30.5602 55.5415 30.669 55.3301C30.7779 55.1155 30.9349 54.9378 31.1399 54.7968C31.3448 54.6527 31.5915 54.5438 31.8797 54.4701C32.168 54.3965 32.4899 54.3596 32.8454 54.3596H33.8783ZM36.0066 50.1319H36.9001V56.5023L36.8233 57.5112H36.0066V50.1319ZM40.412 54.8689V54.9698C40.412 55.3477 40.3672 55.6984 40.2775 56.0219C40.1878 56.3422 40.0565 56.6208 39.8836 56.8579C39.7106 57.0949 39.4992 57.279 39.2494 57.4103C38.9996 57.5417 38.7129 57.6073 38.3895 57.6073C38.0596 57.6073 37.7697 57.5513 37.5199 57.4392C37.2733 57.3239 37.0651 57.1589 36.8953 56.9443C36.7256 56.7297 36.5895 56.4703 36.487 56.166C36.3877 55.8618 36.3188 55.5191 36.2804 55.1379V54.6959C36.3188 54.3116 36.3877 53.9673 36.487 53.663C36.5895 53.3588 36.7256 53.0993 36.8953 52.8847C37.0651 52.667 37.2733 52.502 37.5199 52.3899C37.7665 52.2746 38.0532 52.217 38.3799 52.217C38.7065 52.217 38.9964 52.281 39.2494 52.4091C39.5024 52.534 39.7138 52.7134 39.8836 52.9472C40.0565 53.181 40.1878 53.4613 40.2775 53.7879C40.3672 54.1114 40.412 54.4717 40.412 54.8689ZM39.5185 54.9698V54.8689C39.5185 54.6095 39.4944 54.3661 39.4464 54.1387C39.3983 53.9081 39.3215 53.7063 39.2158 53.5333C39.1101 53.3572 38.9708 53.2194 38.7978 53.1202C38.6249 53.0177 38.4119 52.9664 38.1589 52.9664C37.9347 52.9664 37.7393 53.0049 37.5727 53.0817C37.4094 53.1586 37.2701 53.2627 37.1548 53.394C37.0395 53.5221 36.945 53.6694 36.8713 53.836C36.8009 53.9993 36.748 54.1691 36.7128 54.3452V55.5031C36.764 55.7273 36.8473 55.9434 36.9626 56.1516C37.0811 56.3566 37.238 56.5248 37.4334 56.6561C37.632 56.7874 37.877 56.853 38.1685 56.853C38.4087 56.853 38.6137 56.805 38.7834 56.7089C38.9564 56.6096 39.0957 56.4735 39.2014 56.3006C39.3103 56.1276 39.3903 55.9274 39.4416 55.7C39.4928 55.4726 39.5185 55.2292 39.5185 54.9698ZM43.6933 57.6073C43.3314 57.6073 43.0031 57.5465 42.7085 57.4248C42.417 57.2998 42.1656 57.1253 41.9542 56.9011C41.746 56.6769 41.5859 56.4111 41.4738 56.1036C41.3617 55.7961 41.3056 55.4598 41.3056 55.0947V54.8929C41.3056 54.4701 41.3681 54.0938 41.493 53.7639C41.6179 53.4308 41.7877 53.149 42.0022 52.9184C42.2168 52.6878 42.4603 52.5132 42.7325 52.3947C43.0047 52.2762 43.2866 52.217 43.578 52.217C43.9496 52.217 44.2698 52.281 44.5389 52.4091C44.8111 52.5372 45.0337 52.7166 45.2067 52.9472C45.3796 53.1746 45.5077 53.4436 45.591 53.7543C45.6743 54.0618 45.7159 54.3981 45.7159 54.7632V55.162H41.8341V54.4365H44.8271V54.3693C44.8143 54.1387 44.7663 53.9145 44.683 53.6967C44.6029 53.4789 44.4748 53.2995 44.2987 53.1586C44.1225 53.0177 43.8823 52.9472 43.578 52.9472C43.3763 52.9472 43.1905 52.9904 43.0207 53.0769C42.851 53.1602 42.7053 53.2851 42.5836 53.4516C42.4619 53.6182 42.3674 53.8216 42.3001 54.0618C42.2328 54.302 42.1992 54.579 42.1992 54.8929V55.0947C42.1992 55.3413 42.2328 55.5735 42.3001 55.7913C42.3706 56.0059 42.4715 56.1949 42.6028 56.3582C42.7373 56.5216 42.899 56.6497 43.088 56.7426C43.2802 56.8354 43.498 56.8819 43.7414 56.8819C44.0553 56.8819 44.3211 56.8178 44.5389 56.6897C44.7567 56.5616 44.9472 56.3902 45.1106 56.1757L45.6487 56.6032C45.5366 56.773 45.394 56.9347 45.2211 57.0885C45.0481 57.2422 44.8351 57.3671 44.5821 57.4632C44.3323 57.5593 44.036 57.6073 43.6933 57.6073ZM47.7193 50.1319V57.5112H46.8257V50.1319H47.7193Z" fill="#474D66"/>
<path d="M63.5713 56.757V57.5112H60.0738V56.757H63.5713ZM60.2564 50.5163V57.5112H59.3292V50.5163H60.2564ZM67.5636 56.6224V53.9465C67.5636 53.7415 67.522 53.5637 67.4387 53.4132C67.3586 53.2595 67.2369 53.141 67.0736 53.0577C66.9102 52.9744 66.7085 52.9328 66.4683 52.9328C66.2441 52.9328 66.0471 52.9712 65.8773 53.0481C65.7108 53.125 65.5795 53.2258 65.4834 53.3508C65.3905 53.4757 65.3441 53.6102 65.3441 53.7543H64.4553C64.4553 53.5686 64.5033 53.3844 64.5994 53.2018C64.6955 53.0193 64.8332 52.8543 65.0126 52.707C65.1951 52.5565 65.4129 52.438 65.6659 52.3515C65.9222 52.2618 66.2072 52.217 66.5211 52.217C66.899 52.217 67.2321 52.281 67.5204 52.4091C67.8118 52.5372 68.0392 52.731 68.2026 52.9904C68.3691 53.2467 68.4524 53.5686 68.4524 53.9561V56.3774C68.4524 56.5504 68.4668 56.7345 68.4956 56.9299C68.5277 57.1253 68.5741 57.2934 68.635 57.4344V57.5112H67.7078C67.6629 57.4087 67.6277 57.2726 67.6021 57.1029C67.5764 56.9299 67.5636 56.7698 67.5636 56.6224ZM67.7174 54.3596L67.727 54.9842H66.8286C66.5756 54.9842 66.3498 55.005 66.1512 55.0467C65.9526 55.0851 65.7861 55.1443 65.6515 55.2244C65.517 55.3045 65.4145 55.4054 65.3441 55.5271C65.2736 55.6456 65.2384 55.7849 65.2384 55.945C65.2384 56.1084 65.2752 56.2573 65.3489 56.3918C65.4225 56.5264 65.533 56.6337 65.6804 56.7137C65.8309 56.7906 66.0151 56.829 66.2328 56.829C66.5051 56.829 66.7453 56.7714 66.9535 56.6561C67.1617 56.5408 67.3266 56.3998 67.4483 56.2333C67.5732 56.0668 67.6405 55.905 67.6501 55.7481L68.0296 56.1757C68.0072 56.3102 67.9464 56.4591 67.8471 56.6224C67.7478 56.7858 67.6149 56.9427 67.4483 57.0933C67.285 57.2406 67.0896 57.3639 66.8622 57.4632C66.638 57.5593 66.385 57.6073 66.1031 57.6073C65.7508 57.6073 65.4418 57.5385 65.1759 57.4007C64.9133 57.263 64.7083 57.0788 64.561 56.8482C64.4168 56.6144 64.3448 56.3534 64.3448 56.0652C64.3448 55.7865 64.3992 55.5415 64.5081 55.3301C64.617 55.1155 64.774 54.9378 64.9789 54.7968C65.1839 54.6527 65.4305 54.5438 65.7188 54.4701C66.0071 54.3965 66.3289 54.3596 66.6844 54.3596H67.7174ZM69.8456 50.1319H70.7392V56.5023L70.6624 57.5112H69.8456V50.1319ZM74.2511 54.8689V54.9698C74.2511 55.3477 74.2063 55.6984 74.1166 56.0219C74.0269 56.3422 73.8956 56.6208 73.7227 56.8579C73.5497 57.0949 73.3383 57.279 73.0885 57.4103C72.8387 57.5417 72.552 57.6073 72.2285 57.6073C71.8986 57.6073 71.6088 57.5513 71.359 57.4392C71.1124 57.3239 70.9042 57.1589 70.7344 56.9443C70.5647 56.7297 70.4286 56.4703 70.3261 56.166C70.2268 55.8618 70.1579 55.5191 70.1195 55.1379V54.6959C70.1579 54.3116 70.2268 53.9673 70.3261 53.663C70.4286 53.3588 70.5647 53.0993 70.7344 52.8847C70.9042 52.667 71.1124 52.502 71.359 52.3899C71.6056 52.2746 71.8922 52.217 72.2189 52.217C72.5456 52.217 72.8355 52.281 73.0885 52.4091C73.3415 52.534 73.5529 52.7134 73.7227 52.9472C73.8956 53.181 74.0269 53.4613 74.1166 53.7879C74.2063 54.1114 74.2511 54.4717 74.2511 54.8689ZM73.3575 54.9698V54.8689C73.3575 54.6095 73.3335 54.3661 73.2855 54.1387C73.2374 53.9081 73.1606 53.7063 73.0549 53.5333C72.9492 53.3572 72.8099 53.2194 72.6369 53.1202C72.4639 53.0177 72.251 52.9664 71.9979 52.9664C71.7737 52.9664 71.5784 53.0049 71.4118 53.0817C71.2485 53.1586 71.1092 53.2627 70.9939 53.394C70.8785 53.5221 70.7841 53.6694 70.7104 53.836C70.6399 53.9993 70.5871 54.1691 70.5519 54.3452V55.5031C70.6031 55.7273 70.6864 55.9434 70.8017 56.1516C70.9202 56.3566 71.0771 56.5248 71.2725 56.6561C71.4711 56.7874 71.7161 56.853 72.0075 56.853C72.2478 56.853 72.4527 56.805 72.6225 56.7089C72.7954 56.6096 72.9348 56.4735 73.0405 56.3006C73.1494 56.1276 73.2294 55.9274 73.2807 55.7C73.3319 55.4726 73.3575 55.2292 73.3575 54.9698ZM77.5324 57.6073C77.1705 57.6073 76.8422 57.5465 76.5475 57.4248C76.2561 57.2998 76.0047 57.1253 75.7933 56.9011C75.5851 56.6769 75.425 56.4111 75.3129 56.1036C75.2008 55.7961 75.1447 55.4598 75.1447 55.0947V54.8929C75.1447 54.4701 75.2072 54.0938 75.3321 53.7639C75.457 53.4308 75.6267 53.149 75.8413 52.9184C76.0559 52.6878 76.2993 52.5132 76.5716 52.3947C76.8438 52.2762 77.1257 52.217 77.4171 52.217C77.7886 52.217 78.1089 52.281 78.378 52.4091C78.6502 52.5372 78.8728 52.7166 79.0458 52.9472C79.2187 53.1746 79.3468 53.4436 79.4301 53.7543C79.5134 54.0618 79.555 54.3981 79.555 54.7632V55.162H75.6732V54.4365H78.6662V54.3693C78.6534 54.1387 78.6054 53.9145 78.5221 53.6967C78.442 53.4789 78.3139 53.2995 78.1378 53.1586C77.9616 53.0177 77.7214 52.9472 77.4171 52.9472C77.2153 52.9472 77.0296 52.9904 76.8598 53.0769C76.6901 53.1602 76.5443 53.2851 76.4226 53.4516C76.3009 53.6182 76.2064 53.8216 76.1392 54.0618C76.0719 54.302 76.0383 54.579 76.0383 54.8929V55.0947C76.0383 55.3413 76.0719 55.5735 76.1392 55.7913C76.2097 56.0059 76.3105 56.1949 76.4419 56.3582C76.5764 56.5216 76.7381 56.6497 76.9271 56.7426C77.1193 56.8354 77.337 56.8819 77.5805 56.8819C77.8943 56.8819 78.1602 56.8178 78.378 56.6897C78.5958 56.5616 78.7863 56.3902 78.9497 56.1757L79.4877 56.6032C79.3756 56.773 79.2331 56.9347 79.0602 57.0885C78.8872 57.2422 78.6742 57.3671 78.4212 57.4632C78.1714 57.5593 77.8751 57.6073 77.5324 57.6073ZM81.5584 50.1319V57.5112H80.6648V50.1319H81.5584Z" fill="#474D66"/>
<path d="M97.4104 56.757V57.5112H93.9129V56.757H97.4104ZM94.0955 50.5163V57.5112H93.1682V50.5163H94.0955ZM101.403 56.6224V53.9465C101.403 53.7415 101.361 53.5637 101.278 53.4132C101.198 53.2595 101.076 53.141 100.913 53.0577C100.749 52.9744 100.548 52.9328 100.307 52.9328C100.083 52.9328 99.8862 52.9712 99.7164 53.0481C99.5499 53.125 99.4186 53.2258 99.3225 53.3508C99.2296 53.4757 99.1831 53.6102 99.1831 53.7543H98.2944C98.2944 53.5686 98.3424 53.3844 98.4385 53.2018C98.5346 53.0193 98.6723 52.8543 98.8517 52.707C99.0342 52.5565 99.252 52.438 99.505 52.3515C99.7613 52.2618 100.046 52.217 100.36 52.217C100.738 52.217 101.071 52.281 101.359 52.4091C101.651 52.5372 101.878 52.731 102.042 52.9904C102.208 53.2467 102.291 53.5686 102.291 53.9561V56.3774C102.291 56.5504 102.306 56.7345 102.335 56.9299C102.367 57.1253 102.413 57.2934 102.474 57.4344V57.5112H101.547C101.502 57.4087 101.467 57.2726 101.441 57.1029C101.416 56.9299 101.403 56.7698 101.403 56.6224ZM101.556 54.3596L101.566 54.9842H100.668C100.415 54.9842 100.189 55.005 99.9903 55.0467C99.7917 55.0851 99.6251 55.1443 99.4906 55.2244C99.3561 55.3045 99.2536 55.4054 99.1831 55.5271C99.1127 55.6456 99.0775 55.7849 99.0775 55.945C99.0775 56.1084 99.1143 56.2573 99.188 56.3918C99.2616 56.5264 99.3721 56.6337 99.5194 56.7137C99.67 56.7906 99.8541 56.829 100.072 56.829C100.344 56.829 100.584 56.7714 100.793 56.6561C101.001 56.5408 101.166 56.3998 101.287 56.2333C101.412 56.0668 101.48 55.905 101.489 55.7481L101.869 56.1757C101.846 56.3102 101.785 56.4591 101.686 56.6224C101.587 56.7858 101.454 56.9427 101.287 57.0933C101.124 57.2406 100.929 57.3639 100.701 57.4632C100.477 57.5593 100.224 57.6073 99.9422 57.6073C99.5899 57.6073 99.2808 57.5385 99.015 57.4007C98.7524 57.263 98.5474 57.0788 98.4001 56.8482C98.2559 56.6144 98.1839 56.3534 98.1839 56.0652C98.1839 55.7865 98.2383 55.5415 98.3472 55.3301C98.4561 55.1155 98.613 54.9378 98.818 54.7968C99.023 54.6527 99.2696 54.5438 99.5579 54.4701C99.8461 54.3965 100.168 54.3596 100.524 54.3596H101.556ZM103.685 50.1319H104.578V56.5023L104.501 57.5112H103.685V50.1319ZM108.09 54.8689V54.9698C108.09 55.3477 108.045 55.6984 107.956 56.0219C107.866 56.3422 107.735 56.6208 107.562 56.8579C107.389 57.0949 107.177 57.279 106.928 57.4103C106.678 57.5417 106.391 57.6073 106.068 57.6073C105.738 57.6073 105.448 57.5513 105.198 57.4392C104.951 57.3239 104.743 57.1589 104.574 56.9443C104.404 56.7297 104.268 56.4703 104.165 56.166C104.066 55.8618 103.997 55.5191 103.959 55.1379V54.6959C103.997 54.3116 104.066 53.9673 104.165 53.663C104.268 53.3588 104.404 53.0993 104.574 52.8847C104.743 52.667 104.951 52.502 105.198 52.3899C105.445 52.2746 105.731 52.217 106.058 52.217C106.385 52.217 106.675 52.281 106.928 52.4091C107.181 52.534 107.392 52.7134 107.562 52.9472C107.735 53.181 107.866 53.4613 107.956 53.7879C108.045 54.1114 108.09 54.4717 108.09 54.8689ZM107.197 54.9698V54.8689C107.197 54.6095 107.173 54.3661 107.125 54.1387C107.077 53.9081 107 53.7063 106.894 53.5333C106.788 53.3572 106.649 53.2194 106.476 53.1202C106.303 53.0177 106.09 52.9664 105.837 52.9664C105.613 52.9664 105.417 53.0049 105.251 53.0817C105.088 53.1586 104.948 53.2627 104.833 53.394C104.718 53.5221 104.623 53.6694 104.549 53.836C104.479 53.9993 104.426 54.1691 104.391 54.3452V55.5031C104.442 55.7273 104.525 55.9434 104.641 56.1516C104.759 56.3566 104.916 56.5248 105.112 56.6561C105.31 56.7874 105.555 56.853 105.847 56.853C106.087 56.853 106.292 56.805 106.462 56.7089C106.635 56.6096 106.774 56.4735 106.88 56.3006C106.988 56.1276 107.069 55.9274 107.12 55.7C107.171 55.4726 107.197 55.2292 107.197 54.9698ZM111.371 57.6073C111.01 57.6073 110.681 57.5465 110.387 57.4248C110.095 57.2998 109.844 57.1253 109.632 56.9011C109.424 56.6769 109.264 56.4111 109.152 56.1036C109.04 55.7961 108.984 55.4598 108.984 55.0947V54.8929C108.984 54.4701 109.046 54.0938 109.171 53.7639C109.296 53.4308 109.466 53.149 109.68 52.9184C109.895 52.6878 110.138 52.5132 110.411 52.3947C110.683 52.2762 110.965 52.217 111.256 52.217C111.628 52.217 111.948 52.281 112.217 52.4091C112.489 52.5372 112.712 52.7166 112.885 52.9472C113.058 53.1746 113.186 53.4436 113.269 53.7543C113.352 54.0618 113.394 54.3981 113.394 54.7632V55.162H109.512V54.4365H112.505V54.3693C112.492 54.1387 112.444 53.9145 112.361 53.6967C112.281 53.4789 112.153 53.2995 111.977 53.1586C111.801 53.0177 111.56 52.9472 111.256 52.9472C111.054 52.9472 110.869 52.9904 110.699 53.0769C110.529 53.1602 110.383 53.2851 110.262 53.4516C110.14 53.6182 110.046 53.8216 109.978 54.0618C109.911 54.302 109.877 54.579 109.877 54.8929V55.0947C109.877 55.3413 109.911 55.5735 109.978 55.7913C110.049 56.0059 110.15 56.1949 110.281 56.3582C110.415 56.5216 110.577 56.6497 110.766 56.7426C110.958 56.8354 111.176 56.8819 111.42 56.8819C111.733 56.8819 111.999 56.8178 112.217 56.6897C112.435 56.5616 112.625 56.3902 112.789 56.1757L113.327 56.6032C113.215 56.773 113.072 56.9347 112.899 57.0885C112.726 57.2422 112.513 57.3671 112.26 57.4632C112.01 57.5593 111.714 57.6073 111.371 57.6073ZM115.397 50.1319V57.5112H114.504V50.1319H115.397Z" fill="#474D66"/>
<path d="M131.249 56.757V57.5112H127.752V56.757H131.249ZM127.935 50.5163V57.5112H127.007V50.5163H127.935ZM135.242 56.6224V53.9465C135.242 53.7415 135.2 53.5637 135.117 53.4132C135.037 53.2595 134.915 53.141 134.752 53.0577C134.588 52.9744 134.387 52.9328 134.146 52.9328C133.922 52.9328 133.725 52.9712 133.556 53.0481C133.389 53.125 133.258 53.2258 133.162 53.3508C133.069 53.4757 133.022 53.6102 133.022 53.7543H132.133C132.133 53.5686 132.182 53.3844 132.278 53.2018C132.374 53.0193 132.511 52.8543 132.691 52.707C132.873 52.5565 133.091 52.438 133.344 52.3515C133.6 52.2618 133.885 52.217 134.199 52.217C134.577 52.217 134.91 52.281 135.199 52.4091C135.49 52.5372 135.717 52.731 135.881 52.9904C136.047 53.2467 136.131 53.5686 136.131 53.9561V56.3774C136.131 56.5504 136.145 56.7345 136.174 56.9299C136.206 57.1253 136.252 57.2934 136.313 57.4344V57.5112H135.386C135.341 57.4087 135.306 57.2726 135.28 57.1029C135.255 56.9299 135.242 56.7698 135.242 56.6224ZM135.396 54.3596L135.405 54.9842H134.507C134.254 54.9842 134.028 55.005 133.829 55.0467C133.631 55.0851 133.464 55.1443 133.33 55.2244C133.195 55.3045 133.093 55.4054 133.022 55.5271C132.952 55.6456 132.917 55.7849 132.917 55.945C132.917 56.1084 132.953 56.2573 133.027 56.3918C133.101 56.5264 133.211 56.6337 133.359 56.7137C133.509 56.7906 133.693 56.829 133.911 56.829C134.183 56.829 134.423 56.7714 134.632 56.6561C134.84 56.5408 135.005 56.3998 135.127 56.2333C135.251 56.0668 135.319 55.905 135.328 55.7481L135.708 56.1757C135.685 56.3102 135.625 56.4591 135.525 56.6224C135.426 56.7858 135.293 56.9427 135.127 57.0933C134.963 57.2406 134.768 57.3639 134.54 57.4632C134.316 57.5593 134.063 57.6073 133.781 57.6073C133.429 57.6073 133.12 57.5385 132.854 57.4007C132.591 57.263 132.386 57.0788 132.239 56.8482C132.095 56.6144 132.023 56.3534 132.023 56.0652C132.023 55.7865 132.077 55.5415 132.186 55.3301C132.295 55.1155 132.452 54.9378 132.657 54.7968C132.862 54.6527 133.109 54.5438 133.397 54.4701C133.685 54.3965 134.007 54.3596 134.363 54.3596H135.396ZM137.524 50.1319H138.417V56.5023L138.341 57.5112H137.524V50.1319ZM141.929 54.8689V54.9698C141.929 55.3477 141.884 55.6984 141.795 56.0219C141.705 56.3422 141.574 56.6208 141.401 56.8579C141.228 57.0949 141.017 57.279 140.767 57.4103C140.517 57.5417 140.23 57.6073 139.907 57.6073C139.577 57.6073 139.287 57.5513 139.037 57.4392C138.791 57.3239 138.582 57.1589 138.413 56.9443C138.243 56.7297 138.107 56.4703 138.004 56.166C137.905 55.8618 137.836 55.5191 137.798 55.1379V54.6959C137.836 54.3116 137.905 53.9673 138.004 53.663C138.107 53.3588 138.243 53.0993 138.413 52.8847C138.582 52.667 138.791 52.502 139.037 52.3899C139.284 52.2746 139.57 52.217 139.897 52.217C140.224 52.217 140.514 52.281 140.767 52.4091C141.02 52.534 141.231 52.7134 141.401 52.9472C141.574 53.181 141.705 53.4613 141.795 53.7879C141.884 54.1114 141.929 54.4717 141.929 54.8689ZM141.036 54.9698V54.8689C141.036 54.6095 141.012 54.3661 140.964 54.1387C140.916 53.9081 140.839 53.7063 140.733 53.5333C140.627 53.3572 140.488 53.2194 140.315 53.1202C140.142 53.0177 139.929 52.9664 139.676 52.9664C139.452 52.9664 139.257 53.0049 139.09 53.0817C138.927 53.1586 138.787 53.2627 138.672 53.394C138.557 53.5221 138.462 53.6694 138.389 53.836C138.318 53.9993 138.265 54.1691 138.23 54.3452V55.5031C138.281 55.7273 138.365 55.9434 138.48 56.1516C138.598 56.3566 138.755 56.5248 138.951 56.6561C139.149 56.7874 139.394 56.853 139.686 56.853C139.926 56.853 140.131 56.805 140.301 56.7089C140.474 56.6096 140.613 56.4735 140.719 56.3006C140.828 56.1276 140.908 55.9274 140.959 55.7C141.01 55.4726 141.036 55.2292 141.036 54.9698ZM145.211 57.6073C144.849 57.6073 144.52 57.5465 144.226 57.4248C143.934 57.2998 143.683 57.1253 143.471 56.9011C143.263 56.6769 143.103 56.4111 142.991 56.1036C142.879 55.7961 142.823 55.4598 142.823 55.0947V54.8929C142.823 54.4701 142.885 54.0938 143.01 53.7639C143.135 53.4308 143.305 53.149 143.52 52.9184C143.734 52.6878 143.978 52.5132 144.25 52.3947C144.522 52.2762 144.804 52.217 145.095 52.217C145.467 52.217 145.787 52.281 146.056 52.4091C146.328 52.5372 146.551 52.7166 146.724 52.9472C146.897 53.1746 147.025 53.4436 147.108 53.7543C147.192 54.0618 147.233 54.3981 147.233 54.7632V55.162H143.351V54.4365H146.344V54.3693C146.332 54.1387 146.284 53.9145 146.2 53.6967C146.12 53.4789 145.992 53.2995 145.816 53.1586C145.64 53.0177 145.4 52.9472 145.095 52.9472C144.894 52.9472 144.708 52.9904 144.538 53.0769C144.368 53.1602 144.223 53.2851 144.101 53.4516C143.979 53.6182 143.885 53.8216 143.817 54.0618C143.75 54.302 143.716 54.579 143.716 54.8929V55.0947C143.716 55.3413 143.75 55.5735 143.817 55.7913C143.888 56.0059 143.989 56.1949 144.12 56.3582C144.255 56.5216 144.416 56.6497 144.605 56.7426C144.797 56.8354 145.015 56.8819 145.259 56.8819C145.573 56.8819 145.838 56.8178 146.056 56.6897C146.274 56.5616 146.465 56.3902 146.628 56.1757L147.166 56.6032C147.054 56.773 146.911 56.9347 146.738 57.0885C146.565 57.2422 146.352 57.3671 146.099 57.4632C145.85 57.5593 145.553 57.6073 145.211 57.6073ZM149.237 50.1319V57.5112H148.343V50.1319H149.237Z" fill="#474D66"/>
<path d="M165.089 56.757V57.5112H161.591V56.757H165.089ZM161.774 50.5163V57.5112H160.846V50.5163H161.774ZM169.081 56.6224V53.9465C169.081 53.7415 169.039 53.5637 168.956 53.4132C168.876 53.2595 168.754 53.141 168.591 53.0577C168.427 52.9744 168.226 52.9328 167.986 52.9328C167.761 52.9328 167.564 52.9712 167.395 53.0481C167.228 53.125 167.097 53.2258 167.001 53.3508C166.908 53.4757 166.861 53.6102 166.861 53.7543H165.973C165.973 53.5686 166.021 53.3844 166.117 53.2018C166.213 53.0193 166.35 52.8543 166.53 52.707C166.712 52.5565 166.93 52.438 167.183 52.3515C167.439 52.2618 167.724 52.217 168.038 52.217C168.416 52.217 168.749 52.281 169.038 52.4091C169.329 52.5372 169.556 52.731 169.72 52.9904C169.886 53.2467 169.97 53.5686 169.97 53.9561V56.3774C169.97 56.5504 169.984 56.7345 170.013 56.9299C170.045 57.1253 170.091 57.2934 170.152 57.4344V57.5112H169.225C169.18 57.4087 169.145 57.2726 169.119 57.1029C169.094 56.9299 169.081 56.7698 169.081 56.6224ZM169.235 54.3596L169.244 54.9842H168.346C168.093 54.9842 167.867 55.005 167.668 55.0467C167.47 55.0851 167.303 55.1443 167.169 55.2244C167.034 55.3045 166.932 55.4054 166.861 55.5271C166.791 55.6456 166.756 55.7849 166.756 55.945C166.756 56.1084 166.792 56.2573 166.866 56.3918C166.94 56.5264 167.05 56.6337 167.198 56.7137C167.348 56.7906 167.532 56.829 167.75 56.829C168.022 56.829 168.263 56.7714 168.471 56.6561C168.679 56.5408 168.844 56.3998 168.966 56.2333C169.09 56.0668 169.158 55.905 169.167 55.7481L169.547 56.1757C169.524 56.3102 169.464 56.4591 169.364 56.6224C169.265 56.7858 169.132 56.9427 168.966 57.0933C168.802 57.2406 168.607 57.3639 168.379 57.4632C168.155 57.5593 167.902 57.6073 167.62 57.6073C167.268 57.6073 166.959 57.5385 166.693 57.4007C166.431 57.263 166.226 57.0788 166.078 56.8482C165.934 56.6144 165.862 56.3534 165.862 56.0652C165.862 55.7865 165.916 55.5415 166.025 55.3301C166.134 55.1155 166.291 54.9378 166.496 54.7968C166.701 54.6527 166.948 54.5438 167.236 54.4701C167.524 54.3965 167.846 54.3596 168.202 54.3596H169.235ZM171.363 50.1319H172.256V56.5023L172.18 57.5112H171.363V50.1319ZM175.768 54.8689V54.9698C175.768 55.3477 175.724 55.6984 175.634 56.0219C175.544 56.3422 175.413 56.6208 175.24 56.8579C175.067 57.0949 174.856 57.279 174.606 57.4103C174.356 57.5417 174.069 57.6073 173.746 57.6073C173.416 57.6073 173.126 57.5513 172.876 57.4392C172.63 57.3239 172.421 57.1589 172.252 56.9443C172.082 56.7297 171.946 56.4703 171.843 56.166C171.744 55.8618 171.675 55.5191 171.637 55.1379V54.6959C171.675 54.3116 171.744 53.9673 171.843 53.663C171.946 53.3588 172.082 53.0993 172.252 52.8847C172.421 52.667 172.63 52.502 172.876 52.3899C173.123 52.2746 173.409 52.217 173.736 52.217C174.063 52.217 174.353 52.281 174.606 52.4091C174.859 52.534 175.07 52.7134 175.24 52.9472C175.413 53.181 175.544 53.4613 175.634 53.7879C175.724 54.1114 175.768 54.4717 175.768 54.8689ZM174.875 54.9698V54.8689C174.875 54.6095 174.851 54.3661 174.803 54.1387C174.755 53.9081 174.678 53.7063 174.572 53.5333C174.466 53.3572 174.327 53.2194 174.154 53.1202C173.981 53.0177 173.768 52.9664 173.515 52.9664C173.291 52.9664 173.096 53.0049 172.929 53.0817C172.766 53.1586 172.626 53.2627 172.511 53.394C172.396 53.5221 172.301 53.6694 172.228 53.836C172.157 53.9993 172.104 54.1691 172.069 54.3452V55.5031C172.12 55.7273 172.204 55.9434 172.319 56.1516C172.437 56.3566 172.594 56.5248 172.79 56.6561C172.988 56.7874 173.233 56.853 173.525 56.853C173.765 56.853 173.97 56.805 174.14 56.7089C174.313 56.6096 174.452 56.4735 174.558 56.3006C174.667 56.1276 174.747 55.9274 174.798 55.7C174.849 55.4726 174.875 55.2292 174.875 54.9698ZM179.05 57.6073C178.688 57.6073 178.359 57.5465 178.065 57.4248C177.773 57.2998 177.522 57.1253 177.311 56.9011C177.102 56.6769 176.942 56.4111 176.83 56.1036C176.718 55.7961 176.662 55.4598 176.662 55.0947V54.8929C176.662 54.4701 176.724 54.0938 176.849 53.7639C176.974 53.4308 177.144 53.149 177.359 52.9184C177.573 52.6878 177.817 52.5132 178.089 52.3947C178.361 52.2762 178.643 52.217 178.934 52.217C179.306 52.217 179.626 52.281 179.895 52.4091C180.167 52.5372 180.39 52.7166 180.563 52.9472C180.736 53.1746 180.864 53.4436 180.947 53.7543C181.031 54.0618 181.072 54.3981 181.072 54.7632V55.162H177.19V54.4365H180.183V54.3693C180.171 54.1387 180.123 53.9145 180.039 53.6967C179.959 53.4789 179.831 53.2995 179.655 53.1586C179.479 53.0177 179.239 52.9472 178.934 52.9472C178.733 52.9472 178.547 52.9904 178.377 53.0769C178.207 53.1602 178.062 53.2851 177.94 53.4516C177.818 53.6182 177.724 53.8216 177.656 54.0618C177.589 54.302 177.556 54.579 177.556 54.8929V55.0947C177.556 55.3413 177.589 55.5735 177.656 55.7913C177.727 56.0059 177.828 56.1949 177.959 56.3582C178.094 56.5216 178.255 56.6497 178.444 56.7426C178.636 56.8354 178.854 56.8819 179.098 56.8819C179.412 56.8819 179.677 56.8178 179.895 56.6897C180.113 56.5616 180.304 56.3902 180.467 56.1757L181.005 56.6032C180.893 56.773 180.75 56.9347 180.577 57.0885C180.404 57.2422 180.191 57.3671 179.938 57.4632C179.689 57.5593 179.392 57.6073 179.05 57.6073ZM183.076 50.1319V57.5112H182.182V50.1319H183.076Z" fill="#3366FF"/>
<path d="M198.928 56.757V57.5112H195.43V56.757H198.928ZM195.613 50.5163V57.5112H194.685V50.5163H195.613ZM202.92 56.6224V53.9465C202.92 53.7415 202.878 53.5637 202.795 53.4132C202.715 53.2595 202.593 53.141 202.43 53.0577C202.267 52.9744 202.065 52.9328 201.825 52.9328C201.6 52.9328 201.403 52.9712 201.234 53.0481C201.067 53.125 200.936 53.2258 200.84 53.3508C200.747 53.4757 200.7 53.6102 200.7 53.7543H199.812C199.812 53.5686 199.86 53.3844 199.956 53.2018C200.052 53.0193 200.19 52.8543 200.369 52.707C200.551 52.5565 200.769 52.438 201.022 52.3515C201.278 52.2618 201.564 52.217 201.877 52.217C202.255 52.217 202.588 52.281 202.877 52.4091C203.168 52.5372 203.396 52.731 203.559 52.9904C203.725 53.2467 203.809 53.5686 203.809 53.9561V56.3774C203.809 56.5504 203.823 56.7345 203.852 56.9299C203.884 57.1253 203.93 57.2934 203.991 57.4344V57.5112H203.064C203.019 57.4087 202.984 57.2726 202.958 57.1029C202.933 56.9299 202.92 56.7698 202.92 56.6224ZM203.074 54.3596L203.083 54.9842H202.185C201.932 54.9842 201.706 55.005 201.507 55.0467C201.309 55.0851 201.142 55.1443 201.008 55.2244C200.873 55.3045 200.771 55.4054 200.7 55.5271C200.63 55.6456 200.595 55.7849 200.595 55.945C200.595 56.1084 200.631 56.2573 200.705 56.3918C200.779 56.5264 200.889 56.6337 201.037 56.7137C201.187 56.7906 201.371 56.829 201.589 56.829C201.861 56.829 202.102 56.7714 202.31 56.6561C202.518 56.5408 202.683 56.3998 202.805 56.2333C202.93 56.0668 202.997 55.905 203.006 55.7481L203.386 56.1757C203.364 56.3102 203.303 56.4591 203.203 56.6224C203.104 56.7858 202.971 56.9427 202.805 57.0933C202.641 57.2406 202.446 57.3639 202.218 57.4632C201.994 57.5593 201.741 57.6073 201.459 57.6073C201.107 57.6073 200.798 57.5385 200.532 57.4007C200.27 57.263 200.065 57.0788 199.917 56.8482C199.773 56.6144 199.701 56.3534 199.701 56.0652C199.701 55.7865 199.756 55.5415 199.864 55.3301C199.973 55.1155 200.13 54.9378 200.335 54.7968C200.54 54.6527 200.787 54.5438 201.075 54.4701C201.363 54.3965 201.685 54.3596 202.041 54.3596H203.074ZM205.202 50.1319H206.096V56.5023L206.019 57.5112H205.202V50.1319ZM209.607 54.8689V54.9698C209.607 55.3477 209.563 55.6984 209.473 56.0219C209.383 56.3422 209.252 56.6208 209.079 56.8579C208.906 57.0949 208.695 57.279 208.445 57.4103C208.195 57.5417 207.908 57.6073 207.585 57.6073C207.255 57.6073 206.965 57.5513 206.715 57.4392C206.469 57.3239 206.26 57.1589 206.091 56.9443C205.921 56.7297 205.785 56.4703 205.682 56.166C205.583 55.8618 205.514 55.5191 205.476 55.1379V54.6959C205.514 54.3116 205.583 53.9673 205.682 53.663C205.785 53.3588 205.921 53.0993 206.091 52.8847C206.26 52.667 206.469 52.502 206.715 52.3899C206.962 52.2746 207.249 52.217 207.575 52.217C207.902 52.217 208.192 52.281 208.445 52.4091C208.698 52.534 208.909 52.7134 209.079 52.9472C209.252 53.181 209.383 53.4613 209.473 53.7879C209.563 54.1114 209.607 54.4717 209.607 54.8689ZM208.714 54.9698V54.8689C208.714 54.6095 208.69 54.3661 208.642 54.1387C208.594 53.9081 208.517 53.7063 208.411 53.5333C208.305 53.3572 208.166 53.2194 207.993 53.1202C207.82 53.0177 207.607 52.9664 207.354 52.9664C207.13 52.9664 206.935 53.0049 206.768 53.0817C206.605 53.1586 206.465 53.2627 206.35 53.394C206.235 53.5221 206.14 53.6694 206.067 53.836C205.996 53.9993 205.943 54.1691 205.908 54.3452V55.5031C205.959 55.7273 206.043 55.9434 206.158 56.1516C206.276 56.3566 206.433 56.5248 206.629 56.6561C206.827 56.7874 207.072 56.853 207.364 56.853C207.604 56.853 207.809 56.805 207.979 56.7089C208.152 56.6096 208.291 56.4735 208.397 56.3006C208.506 56.1276 208.586 55.9274 208.637 55.7C208.688 55.4726 208.714 55.2292 208.714 54.9698ZM212.889 57.6073C212.527 57.6073 212.199 57.5465 211.904 57.4248C211.612 57.2998 211.361 57.1253 211.15 56.9011C210.941 56.6769 210.781 56.4111 210.669 56.1036C210.557 55.7961 210.501 55.4598 210.501 55.0947V54.8929C210.501 54.4701 210.563 54.0938 210.688 53.7639C210.813 53.4308 210.983 53.149 211.198 52.9184C211.412 52.6878 211.656 52.5132 211.928 52.3947C212.2 52.2762 212.482 52.217 212.773 52.217C213.145 52.217 213.465 52.281 213.734 52.4091C214.006 52.5372 214.229 52.7166 214.402 52.9472C214.575 53.1746 214.703 53.4436 214.786 53.7543C214.87 54.0618 214.911 54.3981 214.911 54.7632V55.162H211.029V54.4365H214.023V54.3693C214.01 54.1387 213.962 53.9145 213.878 53.6967C213.798 53.4789 213.67 53.2995 213.494 53.1586C213.318 53.0177 213.078 52.9472 212.773 52.9472C212.572 52.9472 212.386 52.9904 212.216 53.0769C212.046 53.1602 211.901 53.2851 211.779 53.4516C211.657 53.6182 211.563 53.8216 211.495 54.0618C211.428 54.302 211.395 54.579 211.395 54.8929V55.0947C211.395 55.3413 211.428 55.5735 211.495 55.7913C211.566 56.0059 211.667 56.1949 211.798 56.3582C211.933 56.5216 212.094 56.6497 212.283 56.7426C212.476 56.8354 212.693 56.8819 212.937 56.8819C213.251 56.8819 213.516 56.8178 213.734 56.6897C213.952 56.5616 214.143 56.3902 214.306 56.1757L214.844 56.6032C214.732 56.773 214.589 56.9347 214.416 57.0885C214.244 57.2422 214.031 57.3671 213.777 57.4632C213.528 57.5593 213.231 57.6073 212.889 57.6073ZM216.915 50.1319V57.5112H216.021V50.1319H216.915Z" fill="#474D66"/>
<path d="M232.767 56.757V57.5112H229.269V56.757H232.767ZM229.452 50.5163V57.5112H228.525V50.5163H229.452ZM236.759 56.6224V53.9465C236.759 53.7415 236.717 53.5637 236.634 53.4132C236.554 53.2595 236.432 53.141 236.269 53.0577C236.106 52.9744 235.904 52.9328 235.664 52.9328C235.439 52.9328 235.242 52.9712 235.073 53.0481C234.906 53.125 234.775 53.2258 234.679 53.3508C234.586 53.4757 234.539 53.6102 234.539 53.7543H233.651C233.651 53.5686 233.699 53.3844 233.795 53.2018C233.891 53.0193 234.029 52.8543 234.208 52.707C234.391 52.5565 234.608 52.438 234.861 52.3515C235.118 52.2618 235.403 52.217 235.717 52.217C236.094 52.217 236.428 52.281 236.716 52.4091C237.007 52.5372 237.235 52.731 237.398 52.9904C237.565 53.2467 237.648 53.5686 237.648 53.9561V56.3774C237.648 56.5504 237.662 56.7345 237.691 56.9299C237.723 57.1253 237.77 57.2934 237.83 57.4344V57.5112H236.903C236.858 57.4087 236.823 57.2726 236.797 57.1029C236.772 56.9299 236.759 56.7698 236.759 56.6224ZM236.913 54.3596L236.922 54.9842H236.024C235.771 54.9842 235.545 55.005 235.347 55.0467C235.148 55.0851 234.981 55.1443 234.847 55.2244C234.712 55.3045 234.61 55.4054 234.539 55.5271C234.469 55.6456 234.434 55.7849 234.434 55.945C234.434 56.1084 234.471 56.2573 234.544 56.3918C234.618 56.5264 234.728 56.6337 234.876 56.7137C235.026 56.7906 235.21 56.829 235.428 56.829C235.7 56.829 235.941 56.7714 236.149 56.6561C236.357 56.5408 236.522 56.3998 236.644 56.2333C236.769 56.0668 236.836 55.905 236.846 55.7481L237.225 56.1757C237.203 56.3102 237.142 56.4591 237.042 56.6224C236.943 56.7858 236.81 56.9427 236.644 57.0933C236.48 57.2406 236.285 57.3639 236.058 57.4632C235.833 57.5593 235.58 57.6073 235.299 57.6073C234.946 57.6073 234.637 57.5385 234.371 57.4007C234.109 57.263 233.904 57.0788 233.756 56.8482C233.612 56.6144 233.54 56.3534 233.54 56.0652C233.54 55.7865 233.595 55.5415 233.704 55.3301C233.812 55.1155 233.969 54.9378 234.174 54.7968C234.379 54.6527 234.626 54.5438 234.914 54.4701C235.202 54.3965 235.524 54.3596 235.88 54.3596H236.913ZM239.041 50.1319H239.935V56.5023L239.858 57.5112H239.041V50.1319ZM243.447 54.8689V54.9698C243.447 55.3477 243.402 55.6984 243.312 56.0219C243.222 56.3422 243.091 56.6208 242.918 56.8579C242.745 57.0949 242.534 57.279 242.284 57.4103C242.034 57.5417 241.747 57.6073 241.424 57.6073C241.094 57.6073 240.804 57.5513 240.554 57.4392C240.308 57.3239 240.1 57.1589 239.93 56.9443C239.76 56.7297 239.624 56.4703 239.521 56.166C239.422 55.8618 239.353 55.5191 239.315 55.1379V54.6959C239.353 54.3116 239.422 53.9673 239.521 53.663C239.624 53.3588 239.76 53.0993 239.93 52.8847C240.1 52.667 240.308 52.502 240.554 52.3899C240.801 52.2746 241.088 52.217 241.414 52.217C241.741 52.217 242.031 52.281 242.284 52.4091C242.537 52.534 242.748 52.7134 242.918 52.9472C243.091 53.181 243.222 53.4613 243.312 53.7879C243.402 54.1114 243.447 54.4717 243.447 54.8689ZM242.553 54.9698V54.8689C242.553 54.6095 242.529 54.3661 242.481 54.1387C242.433 53.9081 242.356 53.7063 242.25 53.5333C242.145 53.3572 242.005 53.2194 241.832 53.1202C241.659 53.0177 241.446 52.9664 241.193 52.9664C240.969 52.9664 240.774 53.0049 240.607 53.0817C240.444 53.1586 240.305 53.2627 240.189 53.394C240.074 53.5221 239.979 53.6694 239.906 53.836C239.835 53.9993 239.782 54.1691 239.747 54.3452V55.5031C239.799 55.7273 239.882 55.9434 239.997 56.1516C240.116 56.3566 240.273 56.5248 240.468 56.6561C240.666 56.7874 240.911 56.853 241.203 56.853C241.443 56.853 241.648 56.805 241.818 56.7089C241.991 56.6096 242.13 56.4735 242.236 56.3006C242.345 56.1276 242.425 55.9274 242.476 55.7C242.527 55.4726 242.553 55.2292 242.553 54.9698ZM246.728 57.6073C246.366 57.6073 246.038 57.5465 245.743 57.4248C245.451 57.2998 245.2 57.1253 244.989 56.9011C244.781 56.6769 244.62 56.4111 244.508 56.1036C244.396 55.7961 244.34 55.4598 244.34 55.0947V54.8929C244.34 54.4701 244.403 54.0938 244.527 53.7639C244.652 53.4308 244.822 53.149 245.037 52.9184C245.251 52.6878 245.495 52.5132 245.767 52.3947C246.039 52.2762 246.321 52.217 246.613 52.217C246.984 52.217 247.304 52.281 247.573 52.4091C247.846 52.5372 248.068 52.7166 248.241 52.9472C248.414 53.1746 248.542 53.4436 248.625 53.7543C248.709 54.0618 248.75 54.3981 248.75 54.7632V55.162H244.869V54.4365H247.862V54.3693C247.849 54.1387 247.801 53.9145 247.717 53.6967C247.637 53.4789 247.509 53.2995 247.333 53.1586C247.157 53.0177 246.917 52.9472 246.613 52.9472C246.411 52.9472 246.225 52.9904 246.055 53.0769C245.885 53.1602 245.74 53.2851 245.618 53.4516C245.496 53.6182 245.402 53.8216 245.335 54.0618C245.267 54.302 245.234 54.579 245.234 54.8929V55.0947C245.234 55.3413 245.267 55.5735 245.335 55.7913C245.405 56.0059 245.506 56.1949 245.637 56.3582C245.772 56.5216 245.934 56.6497 246.122 56.7426C246.315 56.8354 246.532 56.8819 246.776 56.8819C247.09 56.8819 247.356 56.8178 247.573 56.6897C247.791 56.5616 247.982 56.3902 248.145 56.1757L248.683 56.6032C248.571 56.773 248.429 56.9347 248.256 57.0885C248.083 57.2422 247.87 57.3671 247.617 57.4632C247.367 57.5593 247.071 57.6073 246.728 57.6073ZM250.754 50.1319V57.5112H249.86V50.1319H250.754Z" fill="#474D66"/>
<rect x="733.496" y="44.6724" width="36.7586" height="19.6782" rx="2.45977" fill="#3366FF"/>
<path d="M741.934 57.0112V50.8654H742.648V56.3723H745.377V57.0112H741.934ZM748.05 52.3283C748.599 52.3283 749.007 52.4516 749.273 52.6982C749.54 52.9448 749.673 53.3386 749.673 53.8795V57.0112H749.164L749.03 56.3302H748.996C748.867 56.4984 748.733 56.6399 748.592 56.7548C748.452 56.8669 748.29 56.9524 748.105 57.0112C747.923 57.0673 747.698 57.0953 747.432 57.0953C747.152 57.0953 746.903 57.0463 746.684 56.9482C746.468 56.8501 746.297 56.7016 746.171 56.5026C746.048 56.3036 745.986 56.0514 745.986 55.7459C745.986 55.2863 746.168 54.9332 746.533 54.6866C746.897 54.44 747.452 54.3054 748.197 54.283L748.992 54.2494V53.9677C748.992 53.5698 748.906 53.2909 748.735 53.1312C748.564 52.9715 748.323 52.8916 748.012 52.8916C747.771 52.8916 747.541 52.9266 747.323 52.9967C747.104 53.0668 746.897 53.1494 746.701 53.2447L746.486 52.715C746.694 52.6085 746.932 52.5175 747.201 52.4418C747.47 52.3661 747.753 52.3283 748.05 52.3283ZM748.983 54.7412L748.281 54.7707C747.707 54.7931 747.302 54.887 747.066 55.0523C746.831 55.2176 746.713 55.4517 746.713 55.7543C746.713 56.0178 746.793 56.2125 746.953 56.3386C747.113 56.4647 747.324 56.5278 747.588 56.5278C747.997 56.5278 748.332 56.4143 748.592 56.1873C748.853 55.9603 748.983 55.6198 748.983 55.1658V54.7412ZM751.808 50.4703V52.1055C751.808 52.2933 751.803 52.4754 751.791 52.652C751.783 52.8285 751.776 52.9659 751.77 53.0639H751.808C751.934 52.8566 752.117 52.6814 752.355 52.5385C752.593 52.3956 752.897 52.3241 753.267 52.3241C753.844 52.3241 754.304 52.5245 754.646 52.9252C754.99 53.3232 755.163 53.9159 755.163 54.7034C755.163 55.2219 755.084 55.659 754.927 56.015C754.77 56.3709 754.549 56.6399 754.263 56.8221C753.977 57.0042 753.64 57.0953 753.25 57.0953C752.886 57.0953 752.586 57.028 752.351 56.8935C752.118 56.7562 751.939 56.5895 751.812 56.3933H751.758L751.615 57.0112H751.11V50.4703H751.808ZM753.153 52.9084C752.82 52.9084 752.555 52.9743 752.359 53.106C752.163 53.2349 752.021 53.4311 751.934 53.6945C751.85 53.9551 751.808 54.2858 751.808 54.6866V54.7244C751.808 55.3045 751.905 55.7487 752.098 56.057C752.292 56.3625 752.643 56.5152 753.153 56.5152C753.582 56.5152 753.903 56.3583 754.116 56.0444C754.332 55.7305 754.44 55.2821 754.44 54.6992C754.44 54.1051 754.333 53.6581 754.12 53.3582C753.91 53.0583 753.588 52.9084 753.153 52.9084ZM758.156 52.3199C758.548 52.3199 758.884 52.4068 759.165 52.5805C759.445 52.7543 759.659 52.9981 759.808 53.312C759.956 53.623 760.031 53.9874 760.031 54.4049V54.8379H756.848C756.857 55.3788 756.991 55.7908 757.252 56.0738C757.513 56.3569 757.88 56.4984 758.353 56.4984C758.645 56.4984 758.903 56.4718 759.127 56.4185C759.351 56.3653 759.584 56.2868 759.825 56.1831V56.7968C759.592 56.9005 759.361 56.9762 759.131 57.0238C758.904 57.0715 758.635 57.0953 758.324 57.0953C757.881 57.0953 757.494 57.0056 757.164 56.8263C756.836 56.6441 756.581 56.3779 756.399 56.0276C756.217 55.6773 756.125 55.2485 756.125 54.7412C756.125 54.2452 756.208 53.8164 756.373 53.4549C756.542 53.0906 756.777 52.8103 757.08 52.6142C757.385 52.418 757.744 52.3199 758.156 52.3199ZM758.147 52.8916C757.775 52.8916 757.478 53.0135 757.256 53.2573C757.035 53.5011 756.903 53.8416 756.861 54.2788H759.299C759.296 54.0042 759.253 53.7632 759.169 53.5558C759.088 53.3456 758.963 53.1831 758.795 53.0682C758.627 52.9504 758.411 52.8916 758.147 52.8916ZM761.918 57.0112H761.216V50.4703H761.918V57.0112Z" fill="white"/>
<rect x="780.401" y="44.8993" width="41.0632" height="19.2241" rx="2.1523" fill="white"/>
<path d="M791.008 57.5112V51.3654H791.723V56.8723H794.451V57.5112H791.008ZM797.116 52.8283C797.666 52.8283 798.073 52.9516 798.339 53.1982C798.606 53.4448 798.739 53.8386 798.739 54.3795V57.5112H798.23L798.096 56.8302H798.062C797.933 56.9984 797.799 57.1399 797.658 57.2548C797.518 57.3669 797.356 57.4524 797.171 57.5112C796.989 57.5673 796.765 57.5953 796.498 57.5953C796.218 57.5953 795.969 57.5463 795.75 57.4482C795.534 57.3501 795.363 57.2016 795.237 57.0026C795.114 56.8036 795.052 56.5514 795.052 56.2459C795.052 55.7863 795.234 55.4332 795.599 55.1866C795.963 54.94 796.518 54.8054 797.263 54.783L798.058 54.7494V54.4677C798.058 54.0698 797.972 53.7909 797.801 53.6312C797.63 53.4715 797.389 53.3916 797.078 53.3916C796.837 53.3916 796.608 53.4266 796.389 53.4967C796.17 53.5668 795.963 53.6494 795.767 53.7447L795.552 53.215C795.76 53.1085 795.998 53.0175 796.267 52.9418C796.536 52.8661 796.819 52.8283 797.116 52.8283ZM798.049 55.2412L797.347 55.2707C796.773 55.2931 796.368 55.387 796.133 55.5523C795.897 55.7176 795.779 55.9517 795.779 56.2543C795.779 56.5178 795.859 56.7125 796.019 56.8386C796.179 56.9647 796.39 57.0278 796.654 57.0278C797.063 57.0278 797.398 56.9143 797.658 56.6873C797.919 56.4603 798.049 56.1198 798.049 55.6658V55.2412ZM800.866 50.9703V52.6055C800.866 52.7933 800.86 52.9754 800.849 53.152C800.841 53.3285 800.833 53.4659 800.828 53.5639H800.866C800.992 53.3566 801.174 53.1814 801.412 53.0385C801.65 52.8956 801.954 52.8241 802.324 52.8241C802.902 52.8241 803.361 53.0245 803.703 53.4252C804.048 53.8232 804.22 54.4159 804.22 55.2034C804.22 55.7219 804.142 56.159 803.985 56.515C803.828 56.8709 803.607 57.1399 803.321 57.3221C803.035 57.5042 802.697 57.5953 802.308 57.5953C801.943 57.5953 801.643 57.528 801.408 57.3935C801.175 57.2562 800.996 57.0895 800.87 56.8933H800.815L800.672 57.5112H800.168V50.9703H800.866ZM802.211 53.4084C801.877 53.4084 801.613 53.4743 801.416 53.606C801.22 53.7349 801.079 53.9311 800.992 54.1945C800.908 54.4551 800.866 54.7858 800.866 55.1866V55.2244C800.866 55.8045 800.962 56.2487 801.156 56.557C801.349 56.8625 801.701 57.0152 802.211 57.0152C802.64 57.0152 802.961 56.8583 803.174 56.5444C803.389 56.2305 803.497 55.7821 803.497 55.1992C803.497 54.6051 803.391 54.1581 803.178 53.8582C802.968 53.5583 802.645 53.4084 802.211 53.4084ZM807.205 52.8199C807.597 52.8199 807.933 52.9068 808.214 53.0805C808.494 53.2543 808.708 53.4981 808.857 53.812C809.005 54.123 809.08 54.4874 809.08 54.9049V55.3379H805.897C805.906 55.8788 806.04 56.2908 806.301 56.5738C806.562 56.8569 806.929 56.9984 807.402 56.9984C807.694 56.9984 807.952 56.9718 808.176 56.9185C808.4 56.8653 808.633 56.7868 808.874 56.6831V57.2968C808.641 57.4005 808.41 57.4762 808.18 57.5238C807.953 57.5715 807.684 57.5953 807.373 57.5953C806.93 57.5953 806.543 57.5056 806.213 57.3263C805.885 57.1441 805.63 56.8779 805.448 56.5276C805.265 56.1773 805.174 55.7485 805.174 55.2412C805.174 54.7452 805.257 54.3164 805.422 53.9549C805.59 53.5906 805.826 53.3103 806.129 53.1142C806.434 52.918 806.793 52.8199 807.205 52.8199ZM807.196 53.3916C806.824 53.3916 806.527 53.5135 806.305 53.7573C806.084 54.0011 805.952 54.3416 805.91 54.7788H808.348C808.345 54.5042 808.302 54.2632 808.218 54.0558C808.137 53.8456 808.012 53.6831 807.844 53.5682C807.676 53.4504 807.46 53.3916 807.196 53.3916ZM810.958 57.5112H810.256V50.9703H810.958V57.5112Z" fill="#696F8C"/>
<rect x="780.401" y="44.8993" width="41.0632" height="19.2241" rx="2.1523" stroke="#D8DAE5" stroke-width="0.614943"/>
<path d="M838.99 48.3618C835.596 48.3618 832.841 51.1168 832.841 54.5112C832.841 57.9057 835.596 60.6607 838.99 60.6607C842.385 60.6607 845.14 57.9057 845.14 54.5112C845.14 51.1168 842.385 48.3618 838.99 48.3618ZM835.959 58.3731C836.223 57.8196 837.834 57.2785 838.99 57.2785C840.147 57.2785 841.764 57.8196 842.022 58.3731C841.186 59.0372 840.134 59.4308 838.99 59.4308C837.847 59.4308 836.795 59.0372 835.959 58.3731ZM842.902 57.4814C842.022 56.4114 839.888 56.0486 838.99 56.0486C838.093 56.0486 835.959 56.4114 835.079 57.4814C834.452 56.6574 834.071 55.6304 834.071 54.5112C834.071 51.7993 836.279 49.5917 838.99 49.5917C841.702 49.5917 843.91 51.7993 843.91 54.5112C843.91 55.6304 843.529 56.6574 842.902 57.4814V57.4814ZM838.99 50.8216C837.798 50.8216 836.838 51.7809 836.838 52.9739C836.838 54.1669 837.798 55.1262 838.99 55.1262C840.183 55.1262 841.143 54.1669 841.143 52.9739C841.143 51.7809 840.183 50.8216 838.99 50.8216ZM838.99 53.8963C838.48 53.8963 838.068 53.4843 838.068 52.9739C838.068 52.4635 838.48 52.0515 838.99 52.0515C839.501 52.0515 839.913 52.4635 839.913 52.9739C839.913 53.4843 839.501 53.8963 838.99 53.8963Z" fill="#474D66"/>
<g clip-path="url(#clip0_866_8919)">
<path d="M862.914 51.4363L862.061 52.2973L863.646 53.8961H857.428V55.126H863.646L862.061 56.7248L862.914 57.5858L865.962 54.511L862.914 51.4363ZM868.401 58.8156H863.524V60.0455H868.401C869.071 60.0455 869.62 59.4921 869.62 58.8156V50.2064C869.62 49.53 869.071 48.9766 868.401 48.9766H863.524V50.2064H868.401V58.8156Z" fill="#474D66"/>
</g>
</g>
<circle cx="171.224" cy="9.22414" r="8.91667" fill="#101840" stroke="#101840" stroke-width="0.614943"/>
<path d="M171.813 12.0747H170.699V9.02642C170.699 8.94234 170.701 8.83905 170.703 8.71654C170.705 8.59163 170.709 8.46432 170.714 8.33461C170.719 8.20249 170.723 8.08359 170.728 7.97789C170.702 8.00912 170.648 8.06317 170.566 8.14004C170.487 8.2145 170.412 8.28176 170.343 8.34181L169.737 8.82824L169.2 8.15805L170.897 6.80686H171.813V12.0747Z" fill="white"/>
<path d="M171.224 18.4482V40.5862" stroke="#101840" stroke-width="1.22989"/>
<circle cx="171.224" cy="39.3565" r="1.53736" fill="#101840" stroke="#101840" stroke-width="0.614943"/>
<circle cx="751.224" cy="9.22414" r="8.91667" fill="#101840" stroke="#101840" stroke-width="0.614943"/>
<path d="M752.742 12.0747H749.06V11.3L750.382 9.96324C750.649 9.6894 750.863 9.4612 751.024 9.27864C751.187 9.09368 751.305 8.92553 751.377 8.7742C751.451 8.62286 751.488 8.46072 751.488 8.28777C751.488 8.07878 751.43 7.92264 751.312 7.81935C751.197 7.71366 751.042 7.66081 750.847 7.66081C750.643 7.66081 750.445 7.70765 750.253 7.80134C750.06 7.89502 749.86 8.02834 749.651 8.20129L749.045 7.48426C749.197 7.35454 749.357 7.23203 749.525 7.11673C749.695 7.00143 749.892 6.90895 750.116 6.83929C750.341 6.76722 750.612 6.73119 750.926 6.73119C751.272 6.73119 751.569 6.79365 751.816 6.91856C752.066 7.04347 752.258 7.21402 752.393 7.43021C752.527 7.644 752.595 7.88661 752.595 8.15805C752.595 8.44871 752.537 8.71414 752.422 8.95435C752.306 9.19457 752.138 9.43238 751.917 9.66778C751.699 9.90319 751.434 10.1638 751.124 10.4497L750.447 11.0874V11.1379H752.742V12.0747Z" fill="white"/>
<path d="M751.224 18.4482V40.5862" stroke="#101840" stroke-width="1.22989"/>
<circle cx="751.224" cy="39.3561" r="1.53736" fill="#101840" stroke="#101840" stroke-width="0.614943"/>
<circle cx="802.224" cy="99.977" r="8.91667" transform="rotate(-180 802.224 99.977)" fill="#101840" stroke="#101840" stroke-width="0.614943"/>
<path d="M804.152 98.738C804.152 98.9806 804.101 99.1908 804 99.3686C803.9 99.5463 803.763 99.6917 803.59 99.8046C803.419 99.9175 803.227 100 803.013 100.053V100.075C803.436 100.128 803.757 100.257 803.975 100.464C804.196 100.671 804.307 100.947 804.307 101.293C804.307 101.6 804.231 101.875 804.08 102.118C803.931 102.36 803.7 102.551 803.388 102.691C803.076 102.83 802.673 102.9 802.181 102.9C801.89 102.9 801.619 102.876 801.367 102.828C801.117 102.782 800.881 102.711 800.66 102.615V101.667C800.886 101.783 801.123 101.87 801.37 101.93C801.618 101.988 801.848 102.017 802.062 102.017C802.461 102.017 802.739 101.948 802.898 101.812C803.059 101.672 803.139 101.478 803.139 101.228C803.139 101.081 803.102 100.958 803.028 100.857C802.953 100.756 802.823 100.679 802.638 100.626C802.456 100.573 802.2 100.547 801.871 100.547H801.471V99.6929H801.878C802.202 99.6929 802.449 99.6628 802.617 99.6028C802.787 99.5403 802.903 99.4563 802.963 99.3506C803.025 99.2425 803.056 99.12 803.056 98.983C803.056 98.7957 802.999 98.6492 802.883 98.5435C802.768 98.4378 802.576 98.3849 802.307 98.3849C802.139 98.3849 801.985 98.4065 801.846 98.4498C801.709 98.4906 801.585 98.5411 801.475 98.6011C801.364 98.6588 801.267 98.7152 801.183 98.7705L800.668 98.003C800.874 97.854 801.116 97.7303 801.392 97.6319C801.67 97.5334 802.002 97.4841 802.386 97.4841C802.929 97.4841 803.359 97.5934 803.676 97.812C803.993 98.0306 804.152 98.3393 804.152 98.738Z" fill="white"/>
<path d="M802.224 90.7529V68.615" stroke="#101840" stroke-width="1.22989"/>
<circle cx="802.224" cy="69.8446" r="1.53736" transform="rotate(-180 802.224 69.8446)" fill="#101840" stroke="#101840" stroke-width="0.614943"/>
<circle cx="838.862" cy="9.22414" r="8.91667" fill="#101840" stroke="#101840" stroke-width="0.614943"/>
<path d="M840.499 10.9829H839.865V12.0747H838.777V10.9829H836.528V10.2083L838.838 6.80686H839.865V10.1182H840.499V10.9829ZM838.777 10.1182V9.22459C838.777 9.14052 838.778 9.04083 838.78 8.92553C838.785 8.81023 838.79 8.69493 838.795 8.57962C838.8 8.46432 838.804 8.36223 838.809 8.27335C838.816 8.18207 838.821 8.11842 838.824 8.08238H838.795C838.749 8.18087 838.701 8.27696 838.651 8.37064C838.6 8.46192 838.541 8.558 838.474 8.65889L837.509 10.1182H838.777Z" fill="white"/>
<path d="M838.862 18.4482V40.5862" stroke="#101840" stroke-width="1.22989"/>
<circle cx="838.862" cy="39.3565" r="1.53736" fill="#101840" stroke="#101840" stroke-width="0.614943"/>
<defs>
<filter id="filter0_d_866_8919" x="0.0804596" y="28.437" width="895.356" height="56.5749" filterUnits="userSpaceOnUse" color-interpolation-filters="sRGB">
<feFlood flood-opacity="0" result="BackgroundImageFix"/>
<feColorMatrix in="SourceAlpha" type="matrix" values="0 0 0 0 0 0 0 0 0 0 0 0 0 0 0 0 0 0 127 0" result="hardAlpha"/>
<feOffset dy="1.84483"/>
<feGaussianBlur stdDeviation="2.45977"/>
<feComposite in2="hardAlpha" operator="out"/>
<feColorMatrix type="matrix" values="0 0 0 0 0 0 0 0 0 0 0 0 0 0 0 0 0 0 0.04 0"/>
<feBlend mode="normal" in2="BackgroundImageFix" result="effect1_dropShadow_866_8919"/>
<feBlend mode="normal" in="SourceGraphic" in2="effect1_dropShadow_866_8919" result="shape"/>
</filter>
<clipPath id="clip0_866_8919">
<rect width="14.6303" height="14.7586" fill="white" transform="translate(856.209 47.1318)"/>
</clipPath>
</defs>
</svg>
