<svg width="488" height="203" viewBox="0 0 488 203" fill="none" xmlns="http://www.w3.org/2000/svg">
<path d="M0 55C0 52.7909 1.79086 51 4 51H484C486.209 51 488 52.7909 488 55V153C488 155.209 486.209 157 484 157H4C1.79086 157 0 155.209 0 153V55Z" fill="#F5FBF8"/>
<path d="M28 69C22.48 69 18 73.48 18 79C18 84.52 22.48 89 28 89C33.52 89 38 84.52 38 79C38 73.48 33.52 69 28 69ZM28 87C23.59 87 20 83.41 20 79C20 74.59 23.59 71 28 71C32.41 71 36 74.59 36 79C36 83.41 32.41 87 28 87ZM32.59 74.58L26 81.17L23.41 78.59L22 80L26 84L34 76L32.59 74.58Z" fill="#52BD94"/>
<path d="M56.0938 81.8906C56.0938 82.5677 55.9271 83.151 55.5938 83.6406C55.2656 84.1302 54.7917 84.5052 54.1719 84.7656C53.5573 85.026 52.8229 85.1562 51.9688 85.1562C51.5521 85.1562 51.1536 85.1328 50.7734 85.0859C50.3932 85.0391 50.0339 84.9714 49.6953 84.8828C49.362 84.7891 49.0573 84.6771 48.7812 84.5469V82.7812C49.2448 82.9844 49.763 83.1693 50.3359 83.3359C50.9089 83.4974 51.4922 83.5781 52.0859 83.5781C52.5703 83.5781 52.9714 83.5156 53.2891 83.3906C53.612 83.2604 53.8516 83.0781 54.0078 82.8438C54.1641 82.6042 54.2422 82.3255 54.2422 82.0078C54.2422 81.6693 54.151 81.3828 53.9688 81.1484C53.7865 80.9141 53.5104 80.7005 53.1406 80.5078C52.776 80.3099 52.3177 80.099 51.7656 79.875C51.3906 79.724 51.0312 79.5521 50.6875 79.3594C50.349 79.1667 50.0469 78.9401 49.7812 78.6797C49.5156 78.4193 49.3047 78.112 49.1484 77.7578C48.9974 77.3984 48.9219 76.9766 48.9219 76.4922C48.9219 75.8464 49.0755 75.2943 49.3828 74.8359C49.6953 74.3776 50.1328 74.026 50.6953 73.7812C51.263 73.5365 51.9245 73.4141 52.6797 73.4141C53.2786 73.4141 53.8411 73.4766 54.3672 73.6016C54.8984 73.7266 55.4193 73.9036 55.9297 74.1328L55.3359 75.6406C54.8672 75.4479 54.4115 75.2943 53.9688 75.1797C53.5312 75.0651 53.0833 75.0078 52.625 75.0078C52.2292 75.0078 51.8932 75.0677 51.6172 75.1875C51.3411 75.3073 51.1302 75.4766 50.9844 75.6953C50.8438 75.9089 50.7734 76.1641 50.7734 76.4609C50.7734 76.7943 50.8542 77.0755 51.0156 77.3047C51.1823 77.5286 51.4375 77.7344 51.7812 77.9219C52.1302 78.1094 52.5781 78.3177 53.125 78.5469C53.7552 78.8073 54.2891 79.0807 54.7266 79.3672C55.1693 79.6536 55.5078 79.9974 55.7422 80.3984C55.9766 80.7943 56.0938 81.2917 56.0938 81.8906ZM65.6324 76.3516V85H64.1871L63.9371 83.8359H63.8356C63.6533 84.1328 63.4215 84.3802 63.1403 84.5781C62.859 84.7708 62.5465 84.9141 62.2028 85.0078C61.859 85.1068 61.497 85.1562 61.1168 85.1562C60.4658 85.1562 59.9085 85.0469 59.4449 84.8281C58.9866 84.6042 58.635 84.2604 58.3903 83.7969C58.1455 83.3333 58.0231 82.7344 58.0231 82V76.3516H59.8668V81.6562C59.8668 82.3281 60.0022 82.8307 60.2731 83.1641C60.5491 83.4974 60.9762 83.6641 61.5543 83.6641C62.1116 83.6641 62.5543 83.5495 62.8824 83.3203C63.2106 83.0911 63.4423 82.7526 63.5778 82.3047C63.7184 81.8568 63.7887 81.3073 63.7887 80.6562V76.3516H65.6324ZM71.7336 85.1562C70.9159 85.1562 70.2076 84.9974 69.6086 84.6797C69.0097 84.362 68.5487 83.875 68.2258 83.2188C67.9029 82.5625 67.7414 81.7292 67.7414 80.7188C67.7414 79.6667 67.9185 78.8073 68.2727 78.1406C68.6269 77.474 69.1164 76.9818 69.7414 76.6641C70.3716 76.3464 71.093 76.1875 71.9055 76.1875C72.4211 76.1875 72.8873 76.2396 73.3039 76.3438C73.7258 76.4427 74.0826 76.5651 74.3743 76.7109L73.8274 78.1797C73.5097 78.0495 73.1841 77.9401 72.8508 77.8516C72.5175 77.763 72.1972 77.7188 71.8899 77.7188C71.3847 77.7188 70.9628 77.8307 70.6243 78.0547C70.2909 78.2786 70.0409 78.612 69.8743 79.0547C69.7128 79.4974 69.6321 80.0469 69.6321 80.7031C69.6321 81.3385 69.7154 81.875 69.8821 82.3125C70.0487 82.7448 70.2961 83.0729 70.6243 83.2969C70.9524 83.5156 71.356 83.625 71.8352 83.625C72.3091 83.625 72.7336 83.5677 73.1086 83.4531C73.4836 83.3385 73.8378 83.1901 74.1711 83.0078V84.6016C73.843 84.7891 73.4914 84.9271 73.1164 85.0156C72.7414 85.1094 72.2805 85.1562 71.7336 85.1562ZM79.6707 85.1562C78.853 85.1562 78.1447 84.9974 77.5457 84.6797C76.9468 84.362 76.4859 83.875 76.1629 83.2188C75.84 82.5625 75.6786 81.7292 75.6786 80.7188C75.6786 79.6667 75.8556 78.8073 76.2098 78.1406C76.564 77.474 77.0536 76.9818 77.6786 76.6641C78.3088 76.3464 79.0301 76.1875 79.8426 76.1875C80.3582 76.1875 80.8244 76.2396 81.2411 76.3438C81.6629 76.4427 82.0197 76.5651 82.3114 76.7109L81.7645 78.1797C81.4468 78.0495 81.1213 77.9401 80.7879 77.8516C80.4546 77.763 80.1343 77.7188 79.827 77.7188C79.3218 77.7188 78.8999 77.8307 78.5614 78.0547C78.228 78.2786 77.978 78.612 77.8114 79.0547C77.6499 79.4974 77.5692 80.0469 77.5692 80.7031C77.5692 81.3385 77.6525 81.875 77.8192 82.3125C77.9859 82.7448 78.2332 83.0729 78.5614 83.2969C78.8895 83.5156 79.2931 83.625 79.7723 83.625C80.2463 83.625 80.6707 83.5677 81.0457 83.4531C81.4207 83.3385 81.7749 83.1901 82.1082 83.0078V84.6016C81.7801 84.7891 81.4286 84.9271 81.0536 85.0156C80.6786 85.1094 80.2176 85.1562 79.6707 85.1562ZM87.5688 76.1875C88.3396 76.1875 89.0011 76.3464 89.5532 76.6641C90.1053 76.9818 90.5298 77.4323 90.8266 78.0156C91.1235 78.599 91.2719 79.2969 91.2719 80.1094V81.0938H85.4985C85.5193 81.9323 85.7433 82.5781 86.1704 83.0312C86.6027 83.4844 87.2068 83.7109 87.9829 83.7109C88.535 83.7109 89.0298 83.6589 89.4673 83.5547C89.91 83.4453 90.3657 83.2865 90.8344 83.0781V84.5703C90.4021 84.7734 89.962 84.9219 89.5141 85.0156C89.0662 85.1094 88.5298 85.1562 87.9048 85.1562C87.0558 85.1562 86.3084 84.9922 85.6626 84.6641C85.0219 84.3307 84.5193 83.8359 84.1548 83.1797C83.7954 82.5234 83.6157 81.7083 83.6157 80.7344C83.6157 79.7656 83.7798 78.9427 84.1079 78.2656C84.436 77.5885 84.8969 77.0729 85.4907 76.7188C86.0844 76.3646 86.7771 76.1875 87.5688 76.1875ZM87.5688 77.5703C86.9907 77.5703 86.5219 77.7578 86.1626 78.1328C85.8084 78.5078 85.6001 79.0573 85.5376 79.7812H89.4751C89.4699 79.349 89.3969 78.9661 89.2563 78.6328C89.1209 78.2995 88.9126 78.0391 88.6313 77.8516C88.3553 77.6641 88.0011 77.5703 87.5688 77.5703ZM99.1387 82.5312C99.1387 83.099 99.0007 83.5781 98.7247 83.9688C98.4486 84.3594 98.045 84.6562 97.5137 84.8594C96.9877 85.0573 96.3419 85.1562 95.5762 85.1562C94.9721 85.1562 94.4512 85.112 94.0137 85.0234C93.5815 84.9401 93.1726 84.8099 92.7872 84.6328V83.0469C93.1986 83.2396 93.6596 83.4062 94.17 83.5469C94.6856 83.6875 95.1726 83.7578 95.6309 83.7578C96.2351 83.7578 96.67 83.6641 96.9356 83.4766C97.2012 83.2839 97.3341 83.0286 97.3341 82.7109C97.3341 82.5234 97.2794 82.3568 97.17 82.2109C97.0658 82.0599 96.8679 81.9062 96.5762 81.75C96.2898 81.5885 95.8679 81.3958 95.3106 81.1719C94.7637 80.9531 94.3028 80.7344 93.9278 80.5156C93.5528 80.2969 93.269 80.0339 93.0762 79.7266C92.8835 79.4141 92.7872 79.0156 92.7872 78.5312C92.7872 77.7656 93.0893 77.1849 93.6934 76.7891C94.3028 76.388 95.1075 76.1875 96.1075 76.1875C96.6387 76.1875 97.1387 76.2422 97.6075 76.3516C98.0815 76.4557 98.545 76.6094 98.9981 76.8125L98.42 78.1953C98.0294 78.0234 97.6361 77.8828 97.2403 77.7734C96.8497 77.6589 96.4512 77.6016 96.045 77.6016C95.571 77.6016 95.2091 77.6745 94.9591 77.8203C94.7143 77.9661 94.5919 78.1745 94.5919 78.4453C94.5919 78.6484 94.6518 78.8203 94.7716 78.9609C94.8914 79.1016 95.0971 79.2422 95.3887 79.3828C95.6856 79.5234 96.0971 79.6979 96.6231 79.9062C97.1387 80.1042 97.5841 80.3125 97.9591 80.5312C98.3393 80.7448 98.6309 81.0078 98.8341 81.3203C99.0372 81.6328 99.1387 82.0365 99.1387 82.5312ZM106.92 82.5312C106.92 83.099 106.782 83.5781 106.506 83.9688C106.23 84.3594 105.826 84.6562 105.295 84.8594C104.769 85.0573 104.123 85.1562 103.357 85.1562C102.753 85.1562 102.232 85.112 101.795 85.0234C101.362 84.9401 100.953 84.8099 100.568 84.6328V83.0469C100.98 83.2396 101.44 83.4062 101.951 83.5469C102.466 83.6875 102.953 83.7578 103.412 83.7578C104.016 83.7578 104.451 83.6641 104.716 83.4766C104.982 83.2839 105.115 83.0286 105.115 82.7109C105.115 82.5234 105.06 82.3568 104.951 82.2109C104.847 82.0599 104.649 81.9062 104.357 81.75C104.071 81.5885 103.649 81.3958 103.091 81.1719C102.545 80.9531 102.084 80.7344 101.709 80.5156C101.334 80.2969 101.05 80.0339 100.857 79.7266C100.664 79.4141 100.568 79.0156 100.568 78.5312C100.568 77.7656 100.87 77.1849 101.474 76.7891C102.084 76.388 102.888 76.1875 103.888 76.1875C104.42 76.1875 104.92 76.2422 105.388 76.3516C105.862 76.4557 106.326 76.6094 106.779 76.8125L106.201 78.1953C105.81 78.0234 105.417 77.8828 105.021 77.7734C104.631 77.6589 104.232 77.6016 103.826 77.6016C103.352 77.6016 102.99 77.6745 102.74 77.8203C102.495 77.9661 102.373 78.1745 102.373 78.4453C102.373 78.6484 102.433 78.8203 102.552 78.9609C102.672 79.1016 102.878 79.2422 103.17 79.3828C103.466 79.5234 103.878 79.6979 104.404 79.9062C104.92 80.1042 105.365 80.3125 105.74 80.5312C106.12 80.7448 106.412 81.0078 106.615 81.3203C106.818 81.6328 106.92 82.0365 106.92 82.5312ZM122.802 76.1875C123.77 76.1875 124.5 76.4375 124.989 76.9375C125.484 77.4375 125.731 78.2396 125.731 79.3438V85H123.895V79.6719C123.895 79.0156 123.768 78.5208 123.513 78.1875C123.257 77.8542 122.869 77.6875 122.349 77.6875C121.619 77.6875 121.093 77.9219 120.77 78.3906C120.453 78.8542 120.294 79.5286 120.294 80.4141V85H118.458V79.6719C118.458 79.2344 118.401 78.8698 118.286 78.5781C118.177 78.2812 118.007 78.0599 117.778 77.9141C117.549 77.763 117.26 77.6875 116.911 77.6875C116.406 77.6875 116.002 77.8021 115.7 78.0312C115.403 78.2604 115.19 78.599 115.06 79.0469C114.929 79.4896 114.864 80.0339 114.864 80.6797V85H113.028V76.3516H114.458L114.716 77.5156H114.817C114.994 77.2135 115.213 76.9661 115.474 76.7734C115.739 76.5755 116.033 76.4297 116.356 76.3359C116.679 76.237 117.015 76.1875 117.364 76.1875C118.01 76.1875 118.554 76.3021 118.997 76.5312C119.44 76.7552 119.77 77.099 119.989 77.5625H120.13C120.401 77.0938 120.778 76.7474 121.263 76.5234C121.747 76.2995 122.26 76.1875 122.802 76.1875ZM131.723 76.1875C132.494 76.1875 133.155 76.3464 133.708 76.6641C134.26 76.9818 134.684 77.4323 134.981 78.0156C135.278 78.599 135.426 79.2969 135.426 80.1094V81.0938H129.653C129.674 81.9323 129.898 82.5781 130.325 83.0312C130.757 83.4844 131.361 83.7109 132.137 83.7109C132.689 83.7109 133.184 83.6589 133.622 83.5547C134.064 83.4453 134.52 83.2865 134.989 83.0781V84.5703C134.557 84.7734 134.116 84.9219 133.669 85.0156C133.221 85.1094 132.684 85.1562 132.059 85.1562C131.21 85.1562 130.463 84.9922 129.817 84.6641C129.176 84.3307 128.674 83.8359 128.309 83.1797C127.95 82.5234 127.77 81.7083 127.77 80.7344C127.77 79.7656 127.934 78.9427 128.262 78.2656C128.59 77.5885 129.051 77.0729 129.645 76.7188C130.239 76.3646 130.932 76.1875 131.723 76.1875ZM131.723 77.5703C131.145 77.5703 130.676 77.7578 130.317 78.1328C129.963 78.5078 129.754 79.0573 129.692 79.7812H133.629C133.624 79.349 133.551 78.9661 133.411 78.6328C133.275 78.2995 133.067 78.0391 132.786 77.8516C132.51 77.6641 132.155 77.5703 131.723 77.5703ZM143.293 82.5312C143.293 83.099 143.155 83.5781 142.879 83.9688C142.603 84.3594 142.199 84.6562 141.668 84.8594C141.142 85.0573 140.496 85.1562 139.731 85.1562C139.126 85.1562 138.606 85.112 138.168 85.0234C137.736 84.9401 137.327 84.8099 136.942 84.6328V83.0469C137.353 83.2396 137.814 83.4062 138.324 83.5469C138.84 83.6875 139.327 83.7578 139.785 83.7578C140.389 83.7578 140.824 83.6641 141.09 83.4766C141.356 83.2839 141.488 83.0286 141.488 82.7109C141.488 82.5234 141.434 82.3568 141.324 82.2109C141.22 82.0599 141.022 81.9062 140.731 81.75C140.444 81.5885 140.022 81.3958 139.465 81.1719C138.918 80.9531 138.457 80.7344 138.082 80.5156C137.707 80.2969 137.423 80.0339 137.231 79.7266C137.038 79.4141 136.942 79.0156 136.942 78.5312C136.942 77.7656 137.244 77.1849 137.848 76.7891C138.457 76.388 139.262 76.1875 140.262 76.1875C140.793 76.1875 141.293 76.2422 141.762 76.3516C142.236 76.4557 142.699 76.6094 143.152 76.8125L142.574 78.1953C142.184 78.0234 141.791 77.8828 141.395 77.7734C141.004 77.6589 140.606 77.6016 140.199 77.6016C139.725 77.6016 139.363 77.6745 139.113 77.8203C138.869 77.9661 138.746 78.1745 138.746 78.4453C138.746 78.6484 138.806 78.8203 138.926 78.9609C139.046 79.1016 139.251 79.2422 139.543 79.3828C139.84 79.5234 140.251 79.6979 140.777 79.9062C141.293 80.1042 141.738 80.3125 142.113 80.5312C142.494 80.7448 142.785 81.0078 142.988 81.3203C143.192 81.6328 143.293 82.0365 143.293 82.5312ZM151.074 82.5312C151.074 83.099 150.936 83.5781 150.66 83.9688C150.384 84.3594 149.98 84.6562 149.449 84.8594C148.923 85.0573 148.277 85.1562 147.511 85.1562C146.907 85.1562 146.386 85.112 145.949 85.0234C145.517 84.9401 145.108 84.8099 144.722 84.6328V83.0469C145.134 83.2396 145.595 83.4062 146.105 83.5469C146.621 83.6875 147.108 83.7578 147.566 83.7578C148.17 83.7578 148.605 83.6641 148.871 83.4766C149.136 83.2839 149.269 83.0286 149.269 82.7109C149.269 82.5234 149.215 82.3568 149.105 82.2109C149.001 82.0599 148.803 81.9062 148.511 81.75C148.225 81.5885 147.803 81.3958 147.246 81.1719C146.699 80.9531 146.238 80.7344 145.863 80.5156C145.488 80.2969 145.204 80.0339 145.011 79.7266C144.819 79.4141 144.722 79.0156 144.722 78.5312C144.722 77.7656 145.025 77.1849 145.629 76.7891C146.238 76.388 147.043 76.1875 148.043 76.1875C148.574 76.1875 149.074 76.2422 149.543 76.3516C150.017 76.4557 150.48 76.6094 150.933 76.8125L150.355 78.1953C149.965 78.0234 149.571 77.8828 149.176 77.7734C148.785 77.6589 148.386 77.6016 147.98 77.6016C147.506 77.6016 147.144 77.6745 146.894 77.8203C146.65 77.9661 146.527 78.1745 146.527 78.4453C146.527 78.6484 146.587 78.8203 146.707 78.9609C146.827 79.1016 147.032 79.2422 147.324 79.3828C147.621 79.5234 148.032 79.6979 148.558 79.9062C149.074 80.1042 149.519 80.3125 149.894 80.5312C150.275 80.7448 150.566 81.0078 150.769 81.3203C150.972 81.6328 151.074 82.0365 151.074 82.5312ZM156.433 76.1875C157.527 76.1875 158.352 76.4297 158.91 76.9141C159.472 77.3984 159.753 78.1536 159.753 79.1797V85H158.449L158.097 83.7734H158.035C157.79 84.0859 157.537 84.3438 157.277 84.5469C157.016 84.75 156.714 84.901 156.37 85C156.032 85.1042 155.618 85.1562 155.128 85.1562C154.613 85.1562 154.152 85.0625 153.745 84.875C153.339 84.6823 153.019 84.3906 152.785 84C152.55 83.6094 152.433 83.1146 152.433 82.5156C152.433 81.625 152.764 80.9557 153.425 80.5078C154.092 80.0599 155.097 79.8125 156.441 79.7656L157.941 79.7109V79.2578C157.941 78.6589 157.8 78.2318 157.519 77.9766C157.243 77.7214 156.852 77.5938 156.347 77.5938C155.915 77.5938 155.495 77.6562 155.089 77.7812C154.683 77.9062 154.287 78.0599 153.902 78.2422L153.308 76.9453C153.73 76.7214 154.209 76.5391 154.745 76.3984C155.287 76.2578 155.85 76.1875 156.433 76.1875ZM157.933 80.8672L156.816 80.9062C155.899 80.9375 155.256 81.0938 154.886 81.375C154.516 81.6562 154.331 82.0417 154.331 82.5312C154.331 82.9583 154.459 83.2708 154.714 83.4688C154.969 83.6615 155.305 83.7578 155.722 83.7578C156.357 83.7578 156.884 83.5781 157.3 83.2188C157.722 82.8542 157.933 82.3203 157.933 81.6172V80.8672ZM164.776 88.8438C163.604 88.8438 162.706 88.6328 162.081 88.2109C161.456 87.7891 161.144 87.1979 161.144 86.4375C161.144 85.9062 161.31 85.4557 161.644 85.0859C161.977 84.7214 162.453 84.4688 163.073 84.3281C162.839 84.224 162.636 84.0625 162.464 83.8438C162.297 83.6198 162.214 83.3724 162.214 83.1016C162.214 82.7786 162.305 82.5026 162.487 82.2734C162.67 82.0443 162.943 81.8229 163.308 81.6094C162.854 81.4167 162.49 81.1042 162.214 80.6719C161.943 80.2344 161.808 79.7214 161.808 79.1328C161.808 78.5078 161.94 77.9766 162.206 77.5391C162.472 77.0964 162.86 76.7604 163.37 76.5312C163.881 76.2969 164.498 76.1797 165.222 76.1797C165.378 76.1797 165.547 76.1901 165.729 76.2109C165.917 76.2266 166.089 76.2474 166.245 76.2734C166.407 76.2943 166.529 76.3177 166.612 76.3438H169.604V77.3672L168.136 77.6406C168.276 77.8385 168.388 78.0651 168.472 78.3203C168.555 78.5703 168.597 78.8438 168.597 79.1406C168.597 80.0365 168.287 80.7422 167.667 81.2578C167.052 81.7682 166.203 82.0234 165.12 82.0234C164.86 82.013 164.607 81.9922 164.362 81.9609C164.175 82.0755 164.032 82.2031 163.933 82.3438C163.834 82.4792 163.784 82.6328 163.784 82.8047C163.784 82.9453 163.834 83.0599 163.933 83.1484C164.032 83.2318 164.177 83.2943 164.37 83.3359C164.568 83.3776 164.808 83.3984 165.089 83.3984H166.581C167.529 83.3984 168.253 83.599 168.753 84C169.253 84.401 169.503 84.9896 169.503 85.7656C169.503 86.75 169.097 87.5078 168.284 88.0391C167.472 88.5755 166.302 88.8438 164.776 88.8438ZM164.847 87.5547C165.487 87.5547 166.026 87.4922 166.464 87.3672C166.901 87.2422 167.232 87.0625 167.456 86.8281C167.68 86.599 167.792 86.3255 167.792 86.0078C167.792 85.7266 167.722 85.5104 167.581 85.3594C167.44 85.2083 167.229 85.1042 166.948 85.0469C166.667 84.9896 166.318 84.9609 165.901 84.9609H164.542C164.203 84.9609 163.904 85.013 163.644 85.1172C163.383 85.2266 163.18 85.3828 163.034 85.5859C162.894 85.7891 162.823 86.0339 162.823 86.3203C162.823 86.7161 162.998 87.0208 163.347 87.2344C163.701 87.4479 164.201 87.5547 164.847 87.5547ZM165.206 80.8203C165.743 80.8203 166.141 80.6745 166.401 80.3828C166.662 80.0859 166.792 79.6693 166.792 79.1328C166.792 78.5495 166.657 78.112 166.386 77.8203C166.12 77.5286 165.724 77.3828 165.198 77.3828C164.683 77.3828 164.289 77.5312 164.019 77.8281C163.753 78.125 163.62 78.5651 163.62 79.1484C163.62 79.6745 163.753 80.0859 164.019 80.3828C164.289 80.6745 164.685 80.8203 165.206 80.8203ZM174.612 76.1875C175.383 76.1875 176.044 76.3464 176.596 76.6641C177.148 76.9818 177.573 77.4323 177.87 78.0156C178.167 78.599 178.315 79.2969 178.315 80.1094V81.0938H172.542C172.562 81.9323 172.786 82.5781 173.214 83.0312C173.646 83.4844 174.25 83.7109 175.026 83.7109C175.578 83.7109 176.073 83.6589 176.51 83.5547C176.953 83.4453 177.409 83.2865 177.878 83.0781V84.5703C177.445 84.7734 177.005 84.9219 176.557 85.0156C176.109 85.1094 175.573 85.1562 174.948 85.1562C174.099 85.1562 173.352 84.9922 172.706 84.6641C172.065 84.3307 171.562 83.8359 171.198 83.1797C170.839 82.5234 170.659 81.7083 170.659 80.7344C170.659 79.7656 170.823 78.9427 171.151 78.2656C171.479 77.5885 171.94 77.0729 172.534 76.7188C173.128 76.3646 173.82 76.1875 174.612 76.1875ZM174.612 77.5703C174.034 77.5703 173.565 77.7578 173.206 78.1328C172.852 78.5078 172.643 79.0573 172.581 79.7812H176.518C176.513 79.349 176.44 78.9661 176.299 78.6328C176.164 78.2995 175.956 78.0391 175.674 77.8516C175.398 77.6641 175.044 77.5703 174.612 77.5703ZM180.104 84.0312C180.104 83.6042 180.213 83.3047 180.432 83.1328C180.656 82.9557 180.927 82.8672 181.244 82.8672C181.562 82.8672 181.833 82.9557 182.057 83.1328C182.286 83.3047 182.401 83.6042 182.401 84.0312C182.401 84.4479 182.286 84.75 182.057 84.9375C181.833 85.1198 181.562 85.2109 181.244 85.2109C180.927 85.2109 180.656 85.1198 180.432 84.9375C180.213 84.75 180.104 84.4479 180.104 84.0312Z" fill="#317159"/>
<path d="M464.667 71.2735L463.727 70.3335L460 74.0602L456.273 70.3335L455.333 71.2735L459.06 75.0002L455.333 78.7268L456.273 79.6668L460 75.9402L463.727 79.6668L464.667 78.7268L460.94 75.0002L464.667 71.2735Z" fill="#474D66"/>
<path d="M52.4365 110H51.2676V101.031H48.123V100.006H55.5674V101.031H52.4365V110ZM58.042 99.3633V102.542C58.042 102.724 58.0374 102.909 58.0283 103.096C58.0192 103.278 58.0033 103.447 57.9805 103.602H58.0557C58.2106 103.337 58.4066 103.116 58.6436 102.938C58.8851 102.756 59.1585 102.619 59.4639 102.528C59.7692 102.433 60.0928 102.385 60.4346 102.385C61.0361 102.385 61.5374 102.48 61.9385 102.672C62.3441 102.863 62.6471 103.16 62.8477 103.561C63.0527 103.962 63.1553 104.481 63.1553 105.119V110H62.0342V105.194C62.0342 104.57 61.8906 104.103 61.6035 103.793C61.321 103.483 60.8857 103.328 60.2979 103.328C59.7419 103.328 59.2975 103.435 58.9648 103.649C58.6367 103.859 58.3997 104.169 58.2539 104.579C58.1126 104.989 58.042 105.491 58.042 106.083V110H56.9072V99.3633H58.042ZM66.6279 102.508V110H65.4932V102.508H66.6279ZM66.0742 99.7051C66.2611 99.7051 66.4206 99.7666 66.5527 99.8896C66.6895 100.008 66.7578 100.195 66.7578 100.45C66.7578 100.701 66.6895 100.888 66.5527 101.011C66.4206 101.134 66.2611 101.195 66.0742 101.195C65.8783 101.195 65.7142 101.134 65.582 101.011C65.4544 100.888 65.3906 100.701 65.3906 100.45C65.3906 100.195 65.4544 100.008 65.582 99.8896C65.7142 99.7666 65.8783 99.7051 66.0742 99.7051ZM73.8809 107.949C73.8809 108.428 73.7601 108.831 73.5186 109.159C73.2816 109.483 72.9398 109.727 72.4932 109.891C72.0511 110.055 71.5225 110.137 70.9072 110.137C70.3831 110.137 69.9297 110.096 69.5469 110.014C69.1641 109.932 68.8291 109.815 68.542 109.665V108.619C68.8473 108.77 69.2119 108.906 69.6357 109.029C70.0596 109.152 70.4925 109.214 70.9346 109.214C71.5817 109.214 72.0511 109.109 72.3428 108.899C72.6344 108.69 72.7803 108.405 72.7803 108.045C72.7803 107.84 72.721 107.66 72.6025 107.505C72.4886 107.345 72.2949 107.193 72.0215 107.047C71.748 106.896 71.3698 106.732 70.8867 106.555C70.4082 106.372 69.9935 106.192 69.6426 106.015C69.2962 105.832 69.0273 105.611 68.8359 105.352C68.6491 105.092 68.5557 104.755 68.5557 104.34C68.5557 103.706 68.8109 103.221 69.3213 102.884C69.8363 102.542 70.5107 102.371 71.3447 102.371C71.7959 102.371 72.2174 102.417 72.6094 102.508C73.0059 102.594 73.375 102.713 73.7168 102.863L73.334 103.772C73.0241 103.64 72.6937 103.529 72.3428 103.438C71.9919 103.346 71.6341 103.301 71.2695 103.301C70.7454 103.301 70.3421 103.387 70.0596 103.561C69.7816 103.734 69.6426 103.971 69.6426 104.271C69.6426 104.504 69.7064 104.695 69.834 104.846C69.9661 104.996 70.1758 105.137 70.4629 105.27C70.75 105.402 71.1283 105.557 71.5977 105.734C72.0671 105.908 72.4727 106.088 72.8145 106.274C73.1562 106.457 73.4183 106.68 73.6006 106.944C73.7874 107.204 73.8809 107.539 73.8809 107.949ZM87.4775 102.371C88.3024 102.371 88.9245 102.588 89.3438 103.021C89.763 103.449 89.9727 104.139 89.9727 105.092V110H88.8516V105.146C88.8516 104.54 88.7194 104.087 88.4551 103.786C88.1953 103.481 87.8079 103.328 87.293 103.328C86.5684 103.328 86.042 103.538 85.7139 103.957C85.3857 104.376 85.2217 104.994 85.2217 105.81V110H84.0938V105.146C84.0938 104.741 84.0345 104.404 83.916 104.135C83.8021 103.866 83.6289 103.665 83.3965 103.533C83.1686 103.396 82.8792 103.328 82.5283 103.328C82.0316 103.328 81.6328 103.431 81.332 103.636C81.0312 103.841 80.8125 104.146 80.6758 104.552C80.5436 104.953 80.4775 105.447 80.4775 106.035V110H79.3428V102.508H80.2588L80.4297 103.567H80.4912C80.6416 103.308 80.8307 103.089 81.0586 102.911C81.2865 102.733 81.5417 102.599 81.8242 102.508C82.1068 102.417 82.4076 102.371 82.7266 102.371C83.2962 102.371 83.7725 102.478 84.1553 102.692C84.5426 102.902 84.8229 103.223 84.9961 103.656H85.0576C85.3037 103.223 85.641 102.902 86.0693 102.692C86.4977 102.478 86.9671 102.371 87.4775 102.371ZM95.1885 102.371C95.8265 102.371 96.3734 102.512 96.8291 102.795C97.2848 103.077 97.6335 103.474 97.875 103.984C98.1165 104.49 98.2373 105.083 98.2373 105.762V106.466H93.0625C93.0762 107.345 93.2949 108.015 93.7188 108.476C94.1426 108.936 94.7396 109.166 95.5098 109.166C95.9837 109.166 96.403 109.123 96.7676 109.036C97.1322 108.95 97.5104 108.822 97.9023 108.653V109.651C97.5241 109.82 97.1481 109.943 96.7744 110.021C96.4053 110.098 95.9678 110.137 95.4619 110.137C94.7419 110.137 94.113 109.991 93.5752 109.699C93.042 109.403 92.6273 108.97 92.3311 108.4C92.0348 107.831 91.8867 107.133 91.8867 106.309C91.8867 105.502 92.0212 104.805 92.29 104.217C92.5635 103.624 92.9463 103.169 93.4385 102.85C93.9352 102.531 94.5186 102.371 95.1885 102.371ZM95.1748 103.301C94.5687 103.301 94.0856 103.499 93.7256 103.896C93.3656 104.292 93.1514 104.846 93.083 105.557H97.0479C97.0433 105.11 96.9727 104.718 96.8359 104.381C96.7038 104.039 96.501 103.775 96.2275 103.588C95.9541 103.396 95.6032 103.301 95.1748 103.301ZM105.012 107.949C105.012 108.428 104.891 108.831 104.649 109.159C104.412 109.483 104.071 109.727 103.624 109.891C103.182 110.055 102.653 110.137 102.038 110.137C101.514 110.137 101.061 110.096 100.678 110.014C100.295 109.932 99.96 109.815 99.6729 109.665V108.619C99.9782 108.77 100.343 108.906 100.767 109.029C101.19 109.152 101.623 109.214 102.065 109.214C102.713 109.214 103.182 109.109 103.474 108.899C103.765 108.69 103.911 108.405 103.911 108.045C103.911 107.84 103.852 107.66 103.733 107.505C103.619 107.345 103.426 107.193 103.152 107.047C102.879 106.896 102.501 106.732 102.018 106.555C101.539 106.372 101.124 106.192 100.773 106.015C100.427 105.832 100.158 105.611 99.9668 105.352C99.7799 105.092 99.6865 104.755 99.6865 104.34C99.6865 103.706 99.9417 103.221 100.452 102.884C100.967 102.542 101.642 102.371 102.476 102.371C102.927 102.371 103.348 102.417 103.74 102.508C104.137 102.594 104.506 102.713 104.848 102.863L104.465 103.772C104.155 103.64 103.825 103.529 103.474 103.438C103.123 103.346 102.765 103.301 102.4 103.301C101.876 103.301 101.473 103.387 101.19 103.561C100.912 103.734 100.773 103.971 100.773 104.271C100.773 104.504 100.837 104.695 100.965 104.846C101.097 104.996 101.307 105.137 101.594 105.27C101.881 105.402 102.259 105.557 102.729 105.734C103.198 105.908 103.604 106.088 103.945 106.274C104.287 106.457 104.549 106.68 104.731 106.944C104.918 107.204 105.012 107.539 105.012 107.949ZM111.684 107.949C111.684 108.428 111.563 108.831 111.321 109.159C111.084 109.483 110.743 109.727 110.296 109.891C109.854 110.055 109.325 110.137 108.71 110.137C108.186 110.137 107.732 110.096 107.35 110.014C106.967 109.932 106.632 109.815 106.345 109.665V108.619C106.65 108.77 107.015 108.906 107.438 109.029C107.862 109.152 108.295 109.214 108.737 109.214C109.384 109.214 109.854 109.109 110.146 108.899C110.437 108.69 110.583 108.405 110.583 108.045C110.583 107.84 110.524 107.66 110.405 107.505C110.291 107.345 110.098 107.193 109.824 107.047C109.551 106.896 109.173 106.732 108.689 106.555C108.211 106.372 107.796 106.192 107.445 106.015C107.099 105.832 106.83 105.611 106.639 105.352C106.452 105.092 106.358 104.755 106.358 104.34C106.358 103.706 106.614 103.221 107.124 102.884C107.639 102.542 108.313 102.371 109.147 102.371C109.599 102.371 110.02 102.417 110.412 102.508C110.809 102.594 111.178 102.713 111.52 102.863L111.137 103.772C110.827 103.64 110.496 103.529 110.146 103.438C109.795 103.346 109.437 103.301 109.072 103.301C108.548 103.301 108.145 103.387 107.862 103.561C107.584 103.734 107.445 103.971 107.445 104.271C107.445 104.504 107.509 104.695 107.637 104.846C107.769 104.996 107.979 105.137 108.266 105.27C108.553 105.402 108.931 105.557 109.4 105.734C109.87 105.908 110.275 106.088 110.617 106.274C110.959 106.457 111.221 106.68 111.403 106.944C111.59 107.204 111.684 107.539 111.684 107.949ZM116.312 102.385C117.205 102.385 117.868 102.585 118.301 102.986C118.734 103.387 118.95 104.028 118.95 104.907V110H118.123L117.904 108.893H117.85C117.64 109.166 117.421 109.396 117.193 109.583C116.965 109.765 116.701 109.904 116.4 110C116.104 110.091 115.74 110.137 115.307 110.137C114.851 110.137 114.445 110.057 114.09 109.897C113.739 109.738 113.461 109.496 113.256 109.173C113.055 108.849 112.955 108.439 112.955 107.942C112.955 107.195 113.251 106.621 113.844 106.22C114.436 105.819 115.339 105.6 116.551 105.563L117.843 105.509V105.051C117.843 104.404 117.704 103.95 117.426 103.69C117.148 103.431 116.756 103.301 116.25 103.301C115.858 103.301 115.484 103.358 115.129 103.472C114.773 103.586 114.436 103.72 114.117 103.875L113.769 103.014C114.106 102.84 114.493 102.692 114.931 102.569C115.368 102.446 115.828 102.385 116.312 102.385ZM117.829 106.309L116.688 106.356C115.753 106.393 115.095 106.546 114.712 106.814C114.329 107.083 114.138 107.464 114.138 107.956C114.138 108.384 114.268 108.701 114.527 108.906C114.787 109.111 115.131 109.214 115.56 109.214C116.225 109.214 116.77 109.029 117.193 108.66C117.617 108.291 117.829 107.737 117.829 106.999V106.309ZM123.38 113.363C122.396 113.363 121.637 113.179 121.104 112.81C120.57 112.445 120.304 111.932 120.304 111.271C120.304 110.802 120.452 110.401 120.748 110.068C121.049 109.736 121.464 109.515 121.992 109.405C121.796 109.314 121.628 109.177 121.486 108.995C121.35 108.813 121.281 108.603 121.281 108.366C121.281 108.093 121.356 107.854 121.507 107.648C121.662 107.439 121.896 107.238 122.211 107.047C121.819 106.887 121.5 106.618 121.254 106.24C121.012 105.857 120.892 105.413 120.892 104.907C120.892 104.369 121.003 103.911 121.227 103.533C121.45 103.15 121.773 102.859 122.197 102.658C122.621 102.458 123.134 102.357 123.735 102.357C123.868 102.357 124 102.364 124.132 102.378C124.269 102.387 124.398 102.403 124.521 102.426C124.645 102.444 124.752 102.467 124.843 102.494H127.413V103.226L126.032 103.396C126.169 103.574 126.283 103.788 126.374 104.039C126.465 104.29 126.511 104.568 126.511 104.873C126.511 105.62 126.258 106.215 125.752 106.657C125.246 107.095 124.551 107.313 123.667 107.313C123.457 107.313 123.243 107.295 123.024 107.259C122.801 107.382 122.63 107.519 122.512 107.669C122.398 107.819 122.341 107.993 122.341 108.188C122.341 108.334 122.384 108.451 122.471 108.537C122.562 108.624 122.692 108.688 122.86 108.729C123.029 108.765 123.232 108.783 123.469 108.783H124.788C125.604 108.783 126.228 108.954 126.661 109.296C127.099 109.638 127.317 110.137 127.317 110.793C127.317 111.622 126.98 112.258 126.306 112.7C125.631 113.142 124.656 113.363 123.38 113.363ZM123.414 112.475C124.034 112.475 124.547 112.411 124.952 112.283C125.362 112.16 125.668 111.98 125.868 111.743C126.073 111.511 126.176 111.233 126.176 110.909C126.176 110.608 126.107 110.381 125.971 110.226C125.834 110.075 125.633 109.975 125.369 109.925C125.105 109.87 124.781 109.843 124.398 109.843H123.1C122.762 109.843 122.468 109.895 122.218 110C121.967 110.105 121.773 110.26 121.637 110.465C121.505 110.67 121.438 110.925 121.438 111.23C121.438 111.636 121.609 111.944 121.951 112.153C122.293 112.368 122.781 112.475 123.414 112.475ZM123.708 106.486C124.25 106.486 124.658 106.35 124.932 106.076C125.205 105.803 125.342 105.404 125.342 104.88C125.342 104.319 125.203 103.9 124.925 103.622C124.647 103.34 124.237 103.198 123.694 103.198C123.175 103.198 122.774 103.344 122.491 103.636C122.213 103.923 122.074 104.344 122.074 104.9C122.074 105.411 122.215 105.803 122.498 106.076C122.781 106.35 123.184 106.486 123.708 106.486ZM131.774 102.371C132.412 102.371 132.959 102.512 133.415 102.795C133.871 103.077 134.219 103.474 134.461 103.984C134.702 104.49 134.823 105.083 134.823 105.762V106.466H129.648C129.662 107.345 129.881 108.015 130.305 108.476C130.729 108.936 131.326 109.166 132.096 109.166C132.57 109.166 132.989 109.123 133.354 109.036C133.718 108.95 134.096 108.822 134.488 108.653V109.651C134.11 109.82 133.734 109.943 133.36 110.021C132.991 110.098 132.554 110.137 132.048 110.137C131.328 110.137 130.699 109.991 130.161 109.699C129.628 109.403 129.213 108.97 128.917 108.4C128.621 107.831 128.473 107.133 128.473 106.309C128.473 105.502 128.607 104.805 128.876 104.217C129.149 103.624 129.532 103.169 130.024 102.85C130.521 102.531 131.104 102.371 131.774 102.371ZM131.761 103.301C131.155 103.301 130.672 103.499 130.312 103.896C129.951 104.292 129.737 104.846 129.669 105.557H133.634C133.629 105.11 133.559 104.718 133.422 104.381C133.29 104.039 133.087 103.775 132.813 103.588C132.54 103.396 132.189 103.301 131.761 103.301ZM143.19 102.385C144.084 102.385 144.747 102.585 145.18 102.986C145.613 103.387 145.829 104.028 145.829 104.907V110H145.002L144.783 108.893H144.729C144.519 109.166 144.3 109.396 144.072 109.583C143.844 109.765 143.58 109.904 143.279 110C142.983 110.091 142.618 110.137 142.186 110.137C141.73 110.137 141.324 110.057 140.969 109.897C140.618 109.738 140.34 109.496 140.135 109.173C139.934 108.849 139.834 108.439 139.834 107.942C139.834 107.195 140.13 106.621 140.723 106.22C141.315 105.819 142.217 105.6 143.43 105.563L144.722 105.509V105.051C144.722 104.404 144.583 103.95 144.305 103.69C144.027 103.431 143.635 103.301 143.129 103.301C142.737 103.301 142.363 103.358 142.008 103.472C141.652 103.586 141.315 103.72 140.996 103.875L140.647 103.014C140.985 102.84 141.372 102.692 141.81 102.569C142.247 102.446 142.707 102.385 143.19 102.385ZM144.708 106.309L143.566 106.356C142.632 106.393 141.974 106.546 141.591 106.814C141.208 107.083 141.017 107.464 141.017 107.956C141.017 108.384 141.146 108.701 141.406 108.906C141.666 109.111 142.01 109.214 142.438 109.214C143.104 109.214 143.648 109.029 144.072 108.66C144.496 108.291 144.708 107.737 144.708 106.999V106.309ZM151.688 102.371C152.622 102.371 153.367 102.692 153.923 103.335C154.479 103.978 154.757 104.944 154.757 106.233C154.757 107.086 154.629 107.801 154.374 108.38C154.119 108.959 153.759 109.396 153.294 109.692C152.834 109.989 152.289 110.137 151.66 110.137C151.264 110.137 150.915 110.084 150.614 109.979C150.313 109.875 150.056 109.733 149.842 109.556C149.628 109.378 149.45 109.184 149.309 108.975H149.227C149.24 109.152 149.256 109.367 149.274 109.617C149.297 109.868 149.309 110.087 149.309 110.273V113.35H148.167V102.508H149.104L149.254 103.615H149.309C149.454 103.387 149.632 103.18 149.842 102.993C150.051 102.802 150.307 102.651 150.607 102.542C150.913 102.428 151.273 102.371 151.688 102.371ZM151.489 103.328C150.97 103.328 150.55 103.428 150.231 103.629C149.917 103.829 149.687 104.13 149.541 104.531C149.395 104.928 149.318 105.427 149.309 106.028V106.247C149.309 106.881 149.377 107.416 149.514 107.854C149.655 108.291 149.885 108.624 150.204 108.852C150.528 109.079 150.961 109.193 151.503 109.193C151.968 109.193 152.355 109.068 152.665 108.817C152.975 108.567 153.205 108.218 153.355 107.771C153.51 107.32 153.588 106.803 153.588 106.22C153.588 105.336 153.415 104.634 153.068 104.114C152.727 103.59 152.2 103.328 151.489 103.328ZM160.26 102.371C161.194 102.371 161.939 102.692 162.495 103.335C163.051 103.978 163.329 104.944 163.329 106.233C163.329 107.086 163.201 107.801 162.946 108.38C162.691 108.959 162.331 109.396 161.866 109.692C161.406 109.989 160.861 110.137 160.232 110.137C159.836 110.137 159.487 110.084 159.187 109.979C158.886 109.875 158.628 109.733 158.414 109.556C158.2 109.378 158.022 109.184 157.881 108.975H157.799C157.812 109.152 157.828 109.367 157.847 109.617C157.869 109.868 157.881 110.087 157.881 110.273V113.35H156.739V102.508H157.676L157.826 103.615H157.881C158.027 103.387 158.204 103.18 158.414 102.993C158.624 102.802 158.879 102.651 159.18 102.542C159.485 102.428 159.845 102.371 160.26 102.371ZM160.062 103.328C159.542 103.328 159.123 103.428 158.804 103.629C158.489 103.829 158.259 104.13 158.113 104.531C157.967 104.928 157.89 105.427 157.881 106.028V106.247C157.881 106.881 157.949 107.416 158.086 107.854C158.227 108.291 158.457 108.624 158.776 108.852C159.1 109.079 159.533 109.193 160.075 109.193C160.54 109.193 160.927 109.068 161.237 108.817C161.547 108.567 161.777 108.218 161.928 107.771C162.083 107.32 162.16 106.803 162.16 106.22C162.16 105.336 161.987 104.634 161.641 104.114C161.299 103.59 160.772 103.328 160.062 103.328ZM168.196 102.371C168.834 102.371 169.381 102.512 169.837 102.795C170.293 103.077 170.641 103.474 170.883 103.984C171.124 104.49 171.245 105.083 171.245 105.762V106.466H166.07C166.084 107.345 166.303 108.015 166.727 108.476C167.15 108.936 167.747 109.166 168.518 109.166C168.992 109.166 169.411 109.123 169.775 109.036C170.14 108.95 170.518 108.822 170.91 108.653V109.651C170.532 109.82 170.156 109.943 169.782 110.021C169.413 110.098 168.976 110.137 168.47 110.137C167.75 110.137 167.121 109.991 166.583 109.699C166.05 109.403 165.635 108.97 165.339 108.4C165.043 107.831 164.895 107.133 164.895 106.309C164.895 105.502 165.029 104.805 165.298 104.217C165.571 103.624 165.954 103.169 166.446 102.85C166.943 102.531 167.526 102.371 168.196 102.371ZM168.183 103.301C167.576 103.301 167.093 103.499 166.733 103.896C166.373 104.292 166.159 104.846 166.091 105.557H170.056C170.051 105.11 169.98 104.718 169.844 104.381C169.712 104.039 169.509 103.775 169.235 103.588C168.962 103.396 168.611 103.301 168.183 103.301ZM175.976 102.385C176.869 102.385 177.532 102.585 177.965 102.986C178.398 103.387 178.614 104.028 178.614 104.907V110H177.787L177.568 108.893H177.514C177.304 109.166 177.085 109.396 176.857 109.583C176.63 109.765 176.365 109.904 176.064 110C175.768 110.091 175.404 110.137 174.971 110.137C174.515 110.137 174.109 110.057 173.754 109.897C173.403 109.738 173.125 109.496 172.92 109.173C172.719 108.849 172.619 108.439 172.619 107.942C172.619 107.195 172.915 106.621 173.508 106.22C174.1 105.819 175.003 105.6 176.215 105.563L177.507 105.509V105.051C177.507 104.404 177.368 103.95 177.09 103.69C176.812 103.431 176.42 103.301 175.914 103.301C175.522 103.301 175.148 103.358 174.793 103.472C174.438 103.586 174.1 103.72 173.781 103.875L173.433 103.014C173.77 102.84 174.157 102.692 174.595 102.569C175.032 102.446 175.493 102.385 175.976 102.385ZM177.493 106.309L176.352 106.356C175.417 106.393 174.759 106.546 174.376 106.814C173.993 107.083 173.802 107.464 173.802 107.956C173.802 108.384 173.932 108.701 174.191 108.906C174.451 109.111 174.795 109.214 175.224 109.214C175.889 109.214 176.434 109.029 176.857 108.66C177.281 108.291 177.493 107.737 177.493 106.999V106.309ZM184.356 102.371C184.507 102.371 184.664 102.38 184.828 102.398C184.992 102.412 185.138 102.433 185.266 102.46L185.122 103.513C184.999 103.481 184.862 103.456 184.712 103.438C184.562 103.419 184.42 103.41 184.288 103.41C183.987 103.41 183.702 103.472 183.434 103.595C183.169 103.713 182.937 103.886 182.736 104.114C182.536 104.338 182.379 104.609 182.265 104.928C182.151 105.242 182.094 105.593 182.094 105.98V110H180.952V102.508H181.896L182.019 103.889H182.066C182.221 103.611 182.408 103.358 182.627 103.13C182.846 102.897 183.099 102.713 183.386 102.576C183.677 102.439 184.001 102.371 184.356 102.371ZM191.527 107.949C191.527 108.428 191.407 108.831 191.165 109.159C190.928 109.483 190.586 109.727 190.14 109.891C189.698 110.055 189.169 110.137 188.554 110.137C188.03 110.137 187.576 110.096 187.193 110.014C186.811 109.932 186.476 109.815 186.188 109.665V108.619C186.494 108.77 186.858 108.906 187.282 109.029C187.706 109.152 188.139 109.214 188.581 109.214C189.228 109.214 189.698 109.109 189.989 108.899C190.281 108.69 190.427 108.405 190.427 108.045C190.427 107.84 190.368 107.66 190.249 107.505C190.135 107.345 189.941 107.193 189.668 107.047C189.395 106.896 189.016 106.732 188.533 106.555C188.055 106.372 187.64 106.192 187.289 106.015C186.943 105.832 186.674 105.611 186.482 105.352C186.296 105.092 186.202 104.755 186.202 104.34C186.202 103.706 186.457 103.221 186.968 102.884C187.483 102.542 188.157 102.371 188.991 102.371C189.442 102.371 189.864 102.417 190.256 102.508C190.652 102.594 191.021 102.713 191.363 102.863L190.98 103.772C190.671 103.64 190.34 103.529 189.989 103.438C189.638 103.346 189.281 103.301 188.916 103.301C188.392 103.301 187.989 103.387 187.706 103.561C187.428 103.734 187.289 103.971 187.289 104.271C187.289 104.504 187.353 104.695 187.48 104.846C187.613 104.996 187.822 105.137 188.109 105.27C188.396 105.402 188.775 105.557 189.244 105.734C189.714 105.908 190.119 106.088 190.461 106.274C190.803 106.457 191.065 106.68 191.247 106.944C191.434 107.204 191.527 107.539 191.527 107.949ZM199.792 102.385C200.685 102.385 201.348 102.585 201.781 102.986C202.214 103.387 202.431 104.028 202.431 104.907V110H201.604L201.385 108.893H201.33C201.12 109.166 200.902 109.396 200.674 109.583C200.446 109.765 200.182 109.904 199.881 110C199.585 110.091 199.22 110.137 198.787 110.137C198.331 110.137 197.926 110.057 197.57 109.897C197.219 109.738 196.941 109.496 196.736 109.173C196.536 108.849 196.436 108.439 196.436 107.942C196.436 107.195 196.732 106.621 197.324 106.22C197.917 105.819 198.819 105.6 200.031 105.563L201.323 105.509V105.051C201.323 104.404 201.184 103.95 200.906 103.69C200.628 103.431 200.236 103.301 199.73 103.301C199.339 103.301 198.965 103.358 198.609 103.472C198.254 103.586 197.917 103.72 197.598 103.875L197.249 103.014C197.586 102.84 197.974 102.692 198.411 102.569C198.849 102.446 199.309 102.385 199.792 102.385ZM201.31 106.309L200.168 106.356C199.234 106.393 198.575 106.546 198.192 106.814C197.81 107.083 197.618 107.464 197.618 107.956C197.618 108.384 197.748 108.701 198.008 108.906C198.268 109.111 198.612 109.214 199.04 109.214C199.705 109.214 200.25 109.029 200.674 108.66C201.098 108.291 201.31 107.737 201.31 106.999V106.309ZM209.615 107.949C209.615 108.428 209.494 108.831 209.253 109.159C209.016 109.483 208.674 109.727 208.228 109.891C207.785 110.055 207.257 110.137 206.642 110.137C206.118 110.137 205.664 110.096 205.281 110.014C204.898 109.932 204.563 109.815 204.276 109.665V108.619C204.582 108.77 204.946 108.906 205.37 109.029C205.794 109.152 206.227 109.214 206.669 109.214C207.316 109.214 207.785 109.109 208.077 108.899C208.369 108.69 208.515 108.405 208.515 108.045C208.515 107.84 208.455 107.66 208.337 107.505C208.223 107.345 208.029 107.193 207.756 107.047C207.482 106.896 207.104 106.732 206.621 106.555C206.143 106.372 205.728 106.192 205.377 106.015C205.031 105.832 204.762 105.611 204.57 105.352C204.383 105.092 204.29 104.755 204.29 104.34C204.29 103.706 204.545 103.221 205.056 102.884C205.571 102.542 206.245 102.371 207.079 102.371C207.53 102.371 207.952 102.417 208.344 102.508C208.74 102.594 209.109 102.713 209.451 102.863L209.068 103.772C208.758 103.64 208.428 103.529 208.077 103.438C207.726 103.346 207.368 103.301 207.004 103.301C206.48 103.301 206.076 103.387 205.794 103.561C205.516 103.734 205.377 103.971 205.377 104.271C205.377 104.504 205.441 104.695 205.568 104.846C205.701 104.996 205.91 105.137 206.197 105.27C206.484 105.402 206.863 105.557 207.332 105.734C207.801 105.908 208.207 106.088 208.549 106.274C208.891 106.457 209.153 106.68 209.335 106.944C209.522 107.204 209.615 107.539 209.615 107.949ZM217.88 102.385C218.773 102.385 219.436 102.585 219.869 102.986C220.302 103.387 220.519 104.028 220.519 104.907V110H219.691L219.473 108.893H219.418C219.208 109.166 218.99 109.396 218.762 109.583C218.534 109.765 218.27 109.904 217.969 110C217.673 110.091 217.308 110.137 216.875 110.137C216.419 110.137 216.014 110.057 215.658 109.897C215.307 109.738 215.029 109.496 214.824 109.173C214.624 108.849 214.523 108.439 214.523 107.942C214.523 107.195 214.82 106.621 215.412 106.22C216.005 105.819 216.907 105.6 218.119 105.563L219.411 105.509V105.051C219.411 104.404 219.272 103.95 218.994 103.69C218.716 103.431 218.324 103.301 217.818 103.301C217.426 103.301 217.053 103.358 216.697 103.472C216.342 103.586 216.005 103.72 215.686 103.875L215.337 103.014C215.674 102.84 216.062 102.692 216.499 102.569C216.937 102.446 217.397 102.385 217.88 102.385ZM219.397 106.309L218.256 106.356C217.322 106.393 216.663 106.546 216.28 106.814C215.897 107.083 215.706 107.464 215.706 107.956C215.706 108.384 215.836 108.701 216.096 108.906C216.355 109.111 216.7 109.214 217.128 109.214C217.793 109.214 218.338 109.029 218.762 108.66C219.186 108.291 219.397 107.737 219.397 106.999V106.309ZM231.34 107.949C231.34 108.428 231.219 108.831 230.978 109.159C230.741 109.483 230.399 109.727 229.952 109.891C229.51 110.055 228.981 110.137 228.366 110.137C227.842 110.137 227.389 110.096 227.006 110.014C226.623 109.932 226.288 109.815 226.001 109.665V108.619C226.306 108.77 226.671 108.906 227.095 109.029C227.519 109.152 227.951 109.214 228.394 109.214C229.041 109.214 229.51 109.109 229.802 108.899C230.093 108.69 230.239 108.405 230.239 108.045C230.239 107.84 230.18 107.66 230.062 107.505C229.948 107.345 229.754 107.193 229.48 107.047C229.207 106.896 228.829 106.732 228.346 106.555C227.867 106.372 227.452 106.192 227.102 106.015C226.755 105.832 226.486 105.611 226.295 105.352C226.108 105.092 226.015 104.755 226.015 104.34C226.015 103.706 226.27 103.221 226.78 102.884C227.295 102.542 227.97 102.371 228.804 102.371C229.255 102.371 229.676 102.417 230.068 102.508C230.465 102.594 230.834 102.713 231.176 102.863L230.793 103.772C230.483 103.64 230.153 103.529 229.802 103.438C229.451 103.346 229.093 103.301 228.729 103.301C228.204 103.301 227.801 103.387 227.519 103.561C227.241 103.734 227.102 103.971 227.102 104.271C227.102 104.504 227.165 104.695 227.293 104.846C227.425 104.996 227.635 105.137 227.922 105.27C228.209 105.402 228.587 105.557 229.057 105.734C229.526 105.908 229.932 106.088 230.273 106.274C230.615 106.457 230.877 106.68 231.06 106.944C231.246 107.204 231.34 107.539 231.34 107.949ZM239.352 102.508V110H238.422L238.258 108.947H238.196C238.041 109.207 237.841 109.426 237.595 109.604C237.349 109.781 237.071 109.913 236.761 110C236.455 110.091 236.13 110.137 235.783 110.137C235.191 110.137 234.694 110.041 234.293 109.85C233.892 109.658 233.589 109.362 233.384 108.961C233.183 108.56 233.083 108.045 233.083 107.416V102.508H234.231V107.334C234.231 107.958 234.373 108.425 234.655 108.735C234.938 109.041 235.368 109.193 235.947 109.193C236.503 109.193 236.945 109.089 237.273 108.879C237.606 108.669 237.845 108.362 237.991 107.956C238.137 107.546 238.21 107.045 238.21 106.452V102.508H239.352ZM244.752 110.137C244.077 110.137 243.483 109.998 242.968 109.72C242.453 109.442 242.052 109.018 241.765 108.448C241.478 107.879 241.334 107.161 241.334 106.295C241.334 105.388 241.484 104.647 241.785 104.073C242.09 103.494 242.51 103.066 243.043 102.788C243.576 102.51 244.182 102.371 244.861 102.371C245.235 102.371 245.595 102.41 245.941 102.487C246.292 102.56 246.579 102.654 246.803 102.768L246.461 103.718C246.233 103.627 245.969 103.545 245.668 103.472C245.372 103.399 245.094 103.362 244.834 103.362C244.314 103.362 243.882 103.474 243.535 103.697C243.193 103.921 242.936 104.249 242.763 104.682C242.594 105.115 242.51 105.648 242.51 106.281C242.51 106.887 242.592 107.405 242.756 107.833C242.924 108.261 243.173 108.59 243.501 108.817C243.834 109.041 244.248 109.152 244.745 109.152C245.142 109.152 245.499 109.111 245.818 109.029C246.137 108.943 246.427 108.842 246.687 108.729V109.74C246.436 109.868 246.156 109.966 245.846 110.034C245.54 110.103 245.176 110.137 244.752 110.137ZM251.465 110.137C250.79 110.137 250.196 109.998 249.681 109.72C249.166 109.442 248.765 109.018 248.478 108.448C248.19 107.879 248.047 107.161 248.047 106.295C248.047 105.388 248.197 104.647 248.498 104.073C248.803 103.494 249.223 103.066 249.756 102.788C250.289 102.51 250.895 102.371 251.574 102.371C251.948 102.371 252.308 102.41 252.654 102.487C253.005 102.56 253.292 102.654 253.516 102.768L253.174 103.718C252.946 103.627 252.682 103.545 252.381 103.472C252.085 103.399 251.807 103.362 251.547 103.362C251.027 103.362 250.594 103.474 250.248 103.697C249.906 103.921 249.649 104.249 249.476 104.682C249.307 105.115 249.223 105.648 249.223 106.281C249.223 106.887 249.305 107.405 249.469 107.833C249.637 108.261 249.886 108.59 250.214 108.817C250.547 109.041 250.961 109.152 251.458 109.152C251.854 109.152 252.212 109.111 252.531 109.029C252.85 108.943 253.14 108.842 253.399 108.729V109.74C253.149 109.868 252.868 109.966 252.559 110.034C252.253 110.103 251.889 110.137 251.465 110.137ZM258.062 102.371C258.7 102.371 259.246 102.512 259.702 102.795C260.158 103.077 260.507 103.474 260.748 103.984C260.99 104.49 261.11 105.083 261.11 105.762V106.466H255.936C255.949 107.345 256.168 108.015 256.592 108.476C257.016 108.936 257.613 109.166 258.383 109.166C258.857 109.166 259.276 109.123 259.641 109.036C260.005 108.95 260.383 108.822 260.775 108.653V109.651C260.397 109.82 260.021 109.943 259.647 110.021C259.278 110.098 258.841 110.137 258.335 110.137C257.615 110.137 256.986 109.991 256.448 109.699C255.915 109.403 255.5 108.97 255.204 108.4C254.908 107.831 254.76 107.133 254.76 106.309C254.76 105.502 254.894 104.805 255.163 104.217C255.437 103.624 255.819 103.169 256.312 102.85C256.808 102.531 257.392 102.371 258.062 102.371ZM258.048 103.301C257.442 103.301 256.959 103.499 256.599 103.896C256.239 104.292 256.024 104.846 255.956 105.557H259.921C259.916 105.11 259.846 104.718 259.709 104.381C259.577 104.039 259.374 103.775 259.101 103.588C258.827 103.396 258.476 103.301 258.048 103.301ZM267.885 107.949C267.885 108.428 267.764 108.831 267.522 109.159C267.285 109.483 266.944 109.727 266.497 109.891C266.055 110.055 265.526 110.137 264.911 110.137C264.387 110.137 263.934 110.096 263.551 110.014C263.168 109.932 262.833 109.815 262.546 109.665V108.619C262.851 108.77 263.216 108.906 263.64 109.029C264.063 109.152 264.496 109.214 264.938 109.214C265.586 109.214 266.055 109.109 266.347 108.899C266.638 108.69 266.784 108.405 266.784 108.045C266.784 107.84 266.725 107.66 266.606 107.505C266.493 107.345 266.299 107.193 266.025 107.047C265.752 106.896 265.374 106.732 264.891 106.555C264.412 106.372 263.997 106.192 263.646 106.015C263.3 105.832 263.031 105.611 262.84 105.352C262.653 105.092 262.56 104.755 262.56 104.34C262.56 103.706 262.815 103.221 263.325 102.884C263.84 102.542 264.515 102.371 265.349 102.371C265.8 102.371 266.221 102.417 266.613 102.508C267.01 102.594 267.379 102.713 267.721 102.863L267.338 103.772C267.028 103.64 266.698 103.529 266.347 103.438C265.996 103.346 265.638 103.301 265.273 103.301C264.749 103.301 264.346 103.387 264.063 103.561C263.785 103.734 263.646 103.971 263.646 104.271C263.646 104.504 263.71 104.695 263.838 104.846C263.97 104.996 264.18 105.137 264.467 105.27C264.754 105.402 265.132 105.557 265.602 105.734C266.071 105.908 266.477 106.088 266.818 106.274C267.16 106.457 267.422 106.68 267.604 106.944C267.791 107.204 267.885 107.539 267.885 107.949ZM274.557 107.949C274.557 108.428 274.436 108.831 274.194 109.159C273.957 109.483 273.616 109.727 273.169 109.891C272.727 110.055 272.198 110.137 271.583 110.137C271.059 110.137 270.605 110.096 270.223 110.014C269.84 109.932 269.505 109.815 269.218 109.665V108.619C269.523 108.77 269.888 108.906 270.312 109.029C270.735 109.152 271.168 109.214 271.61 109.214C272.257 109.214 272.727 109.109 273.019 108.899C273.31 108.69 273.456 108.405 273.456 108.045C273.456 107.84 273.397 107.66 273.278 107.505C273.164 107.345 272.971 107.193 272.697 107.047C272.424 106.896 272.046 106.732 271.562 106.555C271.084 106.372 270.669 106.192 270.318 106.015C269.972 105.832 269.703 105.611 269.512 105.352C269.325 105.092 269.231 104.755 269.231 104.34C269.231 103.706 269.487 103.221 269.997 102.884C270.512 102.542 271.187 102.371 272.021 102.371C272.472 102.371 272.893 102.417 273.285 102.508C273.682 102.594 274.051 102.713 274.393 102.863L274.01 103.772C273.7 103.64 273.369 103.529 273.019 103.438C272.668 103.346 272.31 103.301 271.945 103.301C271.421 103.301 271.018 103.387 270.735 103.561C270.457 103.734 270.318 103.971 270.318 104.271C270.318 104.504 270.382 104.695 270.51 104.846C270.642 104.996 270.852 105.137 271.139 105.27C271.426 105.402 271.804 105.557 272.273 105.734C272.743 105.908 273.148 106.088 273.49 106.274C273.832 106.457 274.094 106.68 274.276 106.944C274.463 107.204 274.557 107.539 274.557 107.949ZM279.718 103.396H277.852V110H276.717V103.396H275.391V102.85L276.717 102.474V101.975C276.717 101.346 276.81 100.835 276.997 100.443C277.184 100.047 277.455 99.7552 277.811 99.5684C278.166 99.3815 278.599 99.2881 279.109 99.2881C279.396 99.2881 279.659 99.3132 279.896 99.3633C280.137 99.4134 280.349 99.4704 280.531 99.5342L280.237 100.43C280.082 100.38 279.907 100.334 279.711 100.293C279.52 100.247 279.324 100.225 279.123 100.225C278.69 100.225 278.369 100.366 278.159 100.648C277.954 100.926 277.852 101.364 277.852 101.961V102.508H279.718V103.396ZM287.285 102.508V110H286.355L286.191 108.947H286.13C285.975 109.207 285.774 109.426 285.528 109.604C285.282 109.781 285.004 109.913 284.694 110C284.389 110.091 284.063 110.137 283.717 110.137C283.124 110.137 282.628 110.041 282.227 109.85C281.826 109.658 281.522 109.362 281.317 108.961C281.117 108.56 281.017 108.045 281.017 107.416V102.508H282.165V107.334C282.165 107.958 282.306 108.425 282.589 108.735C282.871 109.041 283.302 109.193 283.881 109.193C284.437 109.193 284.879 109.089 285.207 108.879C285.54 108.669 285.779 108.362 285.925 107.956C286.071 107.546 286.144 107.045 286.144 106.452V102.508H287.285ZM290.826 110H289.685V99.3633H290.826V110ZM304.997 102.371C305.822 102.371 306.444 102.588 306.863 103.021C307.283 103.449 307.492 104.139 307.492 105.092V110H306.371V105.146C306.371 104.54 306.239 104.087 305.975 103.786C305.715 103.481 305.327 103.328 304.812 103.328C304.088 103.328 303.562 103.538 303.233 103.957C302.905 104.376 302.741 104.994 302.741 105.81V110H301.613V105.146C301.613 104.741 301.554 104.404 301.436 104.135C301.322 103.866 301.148 103.665 300.916 103.533C300.688 103.396 300.399 103.328 300.048 103.328C299.551 103.328 299.152 103.431 298.852 103.636C298.551 103.841 298.332 104.146 298.195 104.552C298.063 104.953 297.997 105.447 297.997 106.035V110H296.862V102.508H297.778L297.949 103.567H298.011C298.161 103.308 298.35 103.089 298.578 102.911C298.806 102.733 299.061 102.599 299.344 102.508C299.626 102.417 299.927 102.371 300.246 102.371C300.816 102.371 301.292 102.478 301.675 102.692C302.062 102.902 302.342 103.223 302.516 103.656H302.577C302.823 103.223 303.16 102.902 303.589 102.692C304.017 102.478 304.487 102.371 304.997 102.371ZM312.708 102.371C313.346 102.371 313.893 102.512 314.349 102.795C314.804 103.077 315.153 103.474 315.395 103.984C315.636 104.49 315.757 105.083 315.757 105.762V106.466H310.582C310.596 107.345 310.814 108.015 311.238 108.476C311.662 108.936 312.259 109.166 313.029 109.166C313.503 109.166 313.923 109.123 314.287 109.036C314.652 108.95 315.03 108.822 315.422 108.653V109.651C315.044 109.82 314.668 109.943 314.294 110.021C313.925 110.098 313.487 110.137 312.981 110.137C312.261 110.137 311.632 109.991 311.095 109.699C310.562 109.403 310.147 108.97 309.851 108.4C309.554 107.831 309.406 107.133 309.406 106.309C309.406 105.502 309.541 104.805 309.81 104.217C310.083 103.624 310.466 103.169 310.958 102.85C311.455 102.531 312.038 102.371 312.708 102.371ZM312.694 103.301C312.088 103.301 311.605 103.499 311.245 103.896C310.885 104.292 310.671 104.846 310.603 105.557H314.567C314.563 105.11 314.492 104.718 314.355 104.381C314.223 104.039 314.021 103.775 313.747 103.588C313.474 103.396 313.123 103.301 312.694 103.301ZM322.531 107.949C322.531 108.428 322.41 108.831 322.169 109.159C321.932 109.483 321.59 109.727 321.144 109.891C320.701 110.055 320.173 110.137 319.558 110.137C319.034 110.137 318.58 110.096 318.197 110.014C317.814 109.932 317.479 109.815 317.192 109.665V108.619C317.498 108.77 317.862 108.906 318.286 109.029C318.71 109.152 319.143 109.214 319.585 109.214C320.232 109.214 320.701 109.109 320.993 108.899C321.285 108.69 321.431 108.405 321.431 108.045C321.431 107.84 321.371 107.66 321.253 107.505C321.139 107.345 320.945 107.193 320.672 107.047C320.398 106.896 320.02 106.732 319.537 106.555C319.059 106.372 318.644 106.192 318.293 106.015C317.947 105.832 317.678 105.611 317.486 105.352C317.299 105.092 317.206 104.755 317.206 104.34C317.206 103.706 317.461 103.221 317.972 102.884C318.487 102.542 319.161 102.371 319.995 102.371C320.446 102.371 320.868 102.417 321.26 102.508C321.656 102.594 322.025 102.713 322.367 102.863L321.984 103.772C321.674 103.64 321.344 103.529 320.993 103.438C320.642 103.346 320.285 103.301 319.92 103.301C319.396 103.301 318.993 103.387 318.71 103.561C318.432 103.734 318.293 103.971 318.293 104.271C318.293 104.504 318.357 104.695 318.484 104.846C318.617 104.996 318.826 105.137 319.113 105.27C319.4 105.402 319.779 105.557 320.248 105.734C320.717 105.908 321.123 106.088 321.465 106.274C321.807 106.457 322.069 106.68 322.251 106.944C322.438 107.204 322.531 107.539 322.531 107.949ZM329.203 107.949C329.203 108.428 329.082 108.831 328.841 109.159C328.604 109.483 328.262 109.727 327.815 109.891C327.373 110.055 326.845 110.137 326.229 110.137C325.705 110.137 325.252 110.096 324.869 110.014C324.486 109.932 324.151 109.815 323.864 109.665V108.619C324.17 108.77 324.534 108.906 324.958 109.029C325.382 109.152 325.815 109.214 326.257 109.214C326.904 109.214 327.373 109.109 327.665 108.899C327.957 108.69 328.103 108.405 328.103 108.045C328.103 107.84 328.043 107.66 327.925 107.505C327.811 107.345 327.617 107.193 327.344 107.047C327.07 106.896 326.692 106.732 326.209 106.555C325.73 106.372 325.316 106.192 324.965 106.015C324.618 105.832 324.35 105.611 324.158 105.352C323.971 105.092 323.878 104.755 323.878 104.34C323.878 103.706 324.133 103.221 324.644 102.884C325.159 102.542 325.833 102.371 326.667 102.371C327.118 102.371 327.54 102.417 327.932 102.508C328.328 102.594 328.697 102.713 329.039 102.863L328.656 103.772C328.346 103.64 328.016 103.529 327.665 103.438C327.314 103.346 326.956 103.301 326.592 103.301C326.068 103.301 325.664 103.387 325.382 103.561C325.104 103.734 324.965 103.971 324.965 104.271C324.965 104.504 325.029 104.695 325.156 104.846C325.288 104.996 325.498 105.137 325.785 105.27C326.072 105.402 326.451 105.557 326.92 105.734C327.389 105.908 327.795 106.088 328.137 106.274C328.479 106.457 328.741 106.68 328.923 106.944C329.11 107.204 329.203 107.539 329.203 107.949ZM333.831 102.385C334.724 102.385 335.387 102.585 335.82 102.986C336.253 103.387 336.47 104.028 336.47 104.907V110H335.643L335.424 108.893H335.369C335.16 109.166 334.941 109.396 334.713 109.583C334.485 109.765 334.221 109.904 333.92 110C333.624 110.091 333.259 110.137 332.826 110.137C332.37 110.137 331.965 110.057 331.609 109.897C331.258 109.738 330.98 109.496 330.775 109.173C330.575 108.849 330.475 108.439 330.475 107.942C330.475 107.195 330.771 106.621 331.363 106.22C331.956 105.819 332.858 105.6 334.07 105.563L335.362 105.509V105.051C335.362 104.404 335.223 103.95 334.945 103.69C334.667 103.431 334.275 103.301 333.77 103.301C333.378 103.301 333.004 103.358 332.648 103.472C332.293 103.586 331.956 103.72 331.637 103.875L331.288 103.014C331.625 102.84 332.013 102.692 332.45 102.569C332.888 102.446 333.348 102.385 333.831 102.385ZM335.349 106.309L334.207 106.356C333.273 106.393 332.614 106.546 332.231 106.814C331.849 107.083 331.657 107.464 331.657 107.956C331.657 108.384 331.787 108.701 332.047 108.906C332.307 109.111 332.651 109.214 333.079 109.214C333.744 109.214 334.289 109.029 334.713 108.66C335.137 108.291 335.349 107.737 335.349 106.999V106.309ZM340.899 113.363C339.915 113.363 339.156 113.179 338.623 112.81C338.09 112.445 337.823 111.932 337.823 111.271C337.823 110.802 337.971 110.401 338.268 110.068C338.568 109.736 338.983 109.515 339.512 109.405C339.316 109.314 339.147 109.177 339.006 108.995C338.869 108.813 338.801 108.603 338.801 108.366C338.801 108.093 338.876 107.854 339.026 107.648C339.181 107.439 339.416 107.238 339.73 107.047C339.339 106.887 339.02 106.618 338.773 106.24C338.532 105.857 338.411 105.413 338.411 104.907C338.411 104.369 338.523 103.911 338.746 103.533C338.969 103.15 339.293 102.859 339.717 102.658C340.141 102.458 340.653 102.357 341.255 102.357C341.387 102.357 341.519 102.364 341.651 102.378C341.788 102.387 341.918 102.403 342.041 102.426C342.164 102.444 342.271 102.467 342.362 102.494H344.933V103.226L343.552 103.396C343.688 103.574 343.802 103.788 343.894 104.039C343.985 104.29 344.03 104.568 344.03 104.873C344.03 105.62 343.777 106.215 343.271 106.657C342.766 107.095 342.071 107.313 341.187 107.313C340.977 107.313 340.763 107.295 340.544 107.259C340.321 107.382 340.15 107.519 340.031 107.669C339.917 107.819 339.86 107.993 339.86 108.188C339.86 108.334 339.904 108.451 339.99 108.537C340.081 108.624 340.211 108.688 340.38 108.729C340.549 108.765 340.751 108.783 340.988 108.783H342.308C343.123 108.783 343.748 108.954 344.181 109.296C344.618 109.638 344.837 110.137 344.837 110.793C344.837 111.622 344.5 112.258 343.825 112.7C343.151 113.142 342.175 113.363 340.899 113.363ZM340.934 112.475C341.553 112.475 342.066 112.411 342.472 112.283C342.882 112.16 343.187 111.98 343.388 111.743C343.593 111.511 343.695 111.233 343.695 110.909C343.695 110.608 343.627 110.381 343.49 110.226C343.354 110.075 343.153 109.975 342.889 109.925C342.624 109.87 342.301 109.843 341.918 109.843H340.619C340.282 109.843 339.988 109.895 339.737 110C339.487 110.105 339.293 110.26 339.156 110.465C339.024 110.67 338.958 110.925 338.958 111.23C338.958 111.636 339.129 111.944 339.471 112.153C339.812 112.368 340.3 112.475 340.934 112.475ZM341.228 106.486C341.77 106.486 342.178 106.35 342.451 106.076C342.725 105.803 342.861 105.404 342.861 104.88C342.861 104.319 342.722 103.9 342.444 103.622C342.166 103.34 341.756 103.198 341.214 103.198C340.694 103.198 340.293 103.344 340.011 103.636C339.733 103.923 339.594 104.344 339.594 104.9C339.594 105.411 339.735 105.803 340.018 106.076C340.3 106.35 340.703 106.486 341.228 106.486ZM349.294 102.371C349.932 102.371 350.479 102.512 350.935 102.795C351.39 103.077 351.739 103.474 351.98 103.984C352.222 104.49 352.343 105.083 352.343 105.762V106.466H347.168C347.182 107.345 347.4 108.015 347.824 108.476C348.248 108.936 348.845 109.166 349.615 109.166C350.089 109.166 350.508 109.123 350.873 109.036C351.238 108.95 351.616 108.822 352.008 108.653V109.651C351.63 109.82 351.254 109.943 350.88 110.021C350.511 110.098 350.073 110.137 349.567 110.137C348.847 110.137 348.218 109.991 347.681 109.699C347.147 109.403 346.733 108.97 346.437 108.4C346.14 107.831 345.992 107.133 345.992 106.309C345.992 105.502 346.127 104.805 346.396 104.217C346.669 103.624 347.052 103.169 347.544 102.85C348.041 102.531 348.624 102.371 349.294 102.371ZM349.28 103.301C348.674 103.301 348.191 103.499 347.831 103.896C347.471 104.292 347.257 104.846 347.188 105.557H351.153C351.149 105.11 351.078 104.718 350.941 104.381C350.809 104.039 350.606 103.775 350.333 103.588C350.06 103.396 349.709 103.301 349.28 103.301ZM361.243 103.396H359.377V110H358.242V103.396H356.916V102.85L358.242 102.474V101.975C358.242 101.346 358.336 100.835 358.522 100.443C358.709 100.047 358.98 99.7552 359.336 99.5684C359.691 99.3815 360.124 99.2881 360.635 99.2881C360.922 99.2881 361.184 99.3132 361.421 99.3633C361.662 99.4134 361.874 99.4704 362.057 99.5342L361.763 100.43C361.608 100.38 361.432 100.334 361.236 100.293C361.045 100.247 360.849 100.225 360.648 100.225C360.215 100.225 359.894 100.366 359.685 100.648C359.479 100.926 359.377 101.364 359.377 101.961V102.508H361.243V103.396ZM369.084 106.24C369.084 106.855 369.004 107.405 368.845 107.888C368.685 108.371 368.455 108.779 368.154 109.111C367.854 109.444 367.489 109.699 367.061 109.877C366.637 110.05 366.156 110.137 365.618 110.137C365.117 110.137 364.657 110.05 364.237 109.877C363.823 109.699 363.463 109.444 363.157 109.111C362.856 108.779 362.622 108.371 362.453 107.888C362.289 107.405 362.207 106.855 362.207 106.24C362.207 105.42 362.346 104.723 362.624 104.148C362.902 103.57 363.299 103.13 363.813 102.829C364.333 102.524 364.951 102.371 365.666 102.371C366.35 102.371 366.947 102.524 367.457 102.829C367.972 103.134 368.371 103.576 368.653 104.155C368.94 104.729 369.084 105.424 369.084 106.24ZM363.383 106.24C363.383 106.842 363.463 107.364 363.622 107.806C363.782 108.248 364.028 108.59 364.36 108.831C364.693 109.073 365.121 109.193 365.646 109.193C366.165 109.193 366.591 109.073 366.924 108.831C367.261 108.59 367.509 108.248 367.669 107.806C367.828 107.364 367.908 106.842 367.908 106.24C367.908 105.643 367.828 105.128 367.669 104.695C367.509 104.258 367.263 103.921 366.931 103.684C366.598 103.447 366.167 103.328 365.639 103.328C364.859 103.328 364.287 103.586 363.923 104.101C363.563 104.616 363.383 105.329 363.383 106.24ZM374.45 102.371C374.601 102.371 374.758 102.38 374.922 102.398C375.086 102.412 375.232 102.433 375.359 102.46L375.216 103.513C375.093 103.481 374.956 103.456 374.806 103.438C374.655 103.419 374.514 103.41 374.382 103.41C374.081 103.41 373.796 103.472 373.527 103.595C373.263 103.713 373.031 103.886 372.83 104.114C372.63 104.338 372.472 104.609 372.358 104.928C372.244 105.242 372.188 105.593 372.188 105.98V110H371.046V102.508H371.989L372.112 103.889H372.16C372.315 103.611 372.502 103.358 372.721 103.13C372.939 102.897 373.192 102.713 373.479 102.576C373.771 102.439 374.095 102.371 374.45 102.371ZM382.831 109.207C383.018 109.207 383.209 109.191 383.405 109.159C383.601 109.127 383.761 109.089 383.884 109.043V109.925C383.752 109.984 383.567 110.034 383.33 110.075C383.098 110.116 382.87 110.137 382.646 110.137C382.25 110.137 381.89 110.068 381.566 109.932C381.243 109.79 380.983 109.553 380.787 109.221C380.596 108.888 380.5 108.428 380.5 107.84V103.396H379.434V102.843L380.507 102.398L380.958 100.771H381.642V102.508H383.836V103.396H381.642V107.806C381.642 108.275 381.749 108.626 381.963 108.858C382.182 109.091 382.471 109.207 382.831 109.207ZM386.536 99.3633V102.542C386.536 102.724 386.532 102.909 386.522 103.096C386.513 103.278 386.497 103.447 386.475 103.602H386.55C386.705 103.337 386.901 103.116 387.138 102.938C387.379 102.756 387.653 102.619 387.958 102.528C388.263 102.433 388.587 102.385 388.929 102.385C389.53 102.385 390.032 102.48 390.433 102.672C390.838 102.863 391.141 103.16 391.342 103.561C391.547 103.962 391.649 104.481 391.649 105.119V110H390.528V105.194C390.528 104.57 390.385 104.103 390.098 103.793C389.815 103.483 389.38 103.328 388.792 103.328C388.236 103.328 387.792 103.435 387.459 103.649C387.131 103.859 386.894 104.169 386.748 104.579C386.607 104.989 386.536 105.491 386.536 106.083V110H385.401V99.3633H386.536ZM396.872 102.371C397.51 102.371 398.057 102.512 398.513 102.795C398.968 103.077 399.317 103.474 399.559 103.984C399.8 104.49 399.921 105.083 399.921 105.762V106.466H394.746C394.76 107.345 394.979 108.015 395.402 108.476C395.826 108.936 396.423 109.166 397.193 109.166C397.667 109.166 398.087 109.123 398.451 109.036C398.816 108.95 399.194 108.822 399.586 108.653V109.651C399.208 109.82 398.832 109.943 398.458 110.021C398.089 110.098 397.651 110.137 397.146 110.137C396.425 110.137 395.797 109.991 395.259 109.699C394.726 109.403 394.311 108.97 394.015 108.4C393.718 107.831 393.57 107.133 393.57 106.309C393.57 105.502 393.705 104.805 393.974 104.217C394.247 103.624 394.63 103.169 395.122 102.85C395.619 102.531 396.202 102.371 396.872 102.371ZM396.858 103.301C396.252 103.301 395.769 103.499 395.409 103.896C395.049 104.292 394.835 104.846 394.767 105.557H398.731C398.727 105.11 398.656 104.718 398.52 104.381C398.387 104.039 398.185 103.775 397.911 103.588C397.638 103.396 397.287 103.301 396.858 103.301ZM51.999 122.385C52.8923 122.385 53.5553 122.585 53.9883 122.986C54.4212 123.387 54.6377 124.028 54.6377 124.907V130H53.8105L53.5918 128.893H53.5371C53.3275 129.166 53.1087 129.396 52.8809 129.583C52.653 129.765 52.3887 129.904 52.0879 130C51.7917 130.091 51.4271 130.137 50.9941 130.137C50.5384 130.137 50.1328 130.057 49.7773 129.897C49.4264 129.738 49.1484 129.496 48.9434 129.173C48.7428 128.849 48.6426 128.439 48.6426 127.942C48.6426 127.195 48.9388 126.621 49.5312 126.22C50.1237 125.819 51.026 125.6 52.2383 125.563L53.5303 125.509V125.051C53.5303 124.404 53.3913 123.95 53.1133 123.69C52.8353 123.431 52.4434 123.301 51.9375 123.301C51.5456 123.301 51.1719 123.358 50.8164 123.472C50.4609 123.586 50.1237 123.72 49.8047 123.875L49.4561 123.014C49.7933 122.84 50.1807 122.692 50.6182 122.569C51.0557 122.446 51.516 122.385 51.999 122.385ZM53.5166 126.309L52.375 126.356C51.4408 126.393 50.7822 126.546 50.3994 126.814C50.0166 127.083 49.8252 127.464 49.8252 127.956C49.8252 128.384 49.9551 128.701 50.2148 128.906C50.4746 129.111 50.8187 129.214 51.2471 129.214C51.9124 129.214 52.457 129.029 52.8809 128.66C53.3047 128.291 53.5166 127.737 53.5166 126.999V126.309ZM59.9766 130.137C59.3021 130.137 58.7074 129.998 58.1924 129.72C57.6774 129.442 57.2764 129.018 56.9893 128.448C56.7021 127.879 56.5586 127.161 56.5586 126.295C56.5586 125.388 56.709 124.647 57.0098 124.073C57.3151 123.494 57.7344 123.066 58.2676 122.788C58.8008 122.51 59.4069 122.371 60.0859 122.371C60.4596 122.371 60.8197 122.41 61.166 122.487C61.5169 122.56 61.804 122.654 62.0273 122.768L61.6855 123.718C61.4577 123.627 61.1934 123.545 60.8926 123.472C60.5964 123.399 60.3184 123.362 60.0586 123.362C59.5391 123.362 59.1061 123.474 58.7598 123.697C58.418 123.921 58.1605 124.249 57.9873 124.682C57.8187 125.115 57.7344 125.648 57.7344 126.281C57.7344 126.887 57.8164 127.405 57.9805 127.833C58.1491 128.261 58.3975 128.59 58.7256 128.817C59.0583 129.041 59.473 129.152 59.9697 129.152C60.3662 129.152 60.724 129.111 61.043 129.029C61.362 128.943 61.6514 128.842 61.9111 128.729V129.74C61.6605 129.868 61.3802 129.966 61.0703 130.034C60.765 130.103 60.4004 130.137 59.9766 130.137ZM66.1084 129.207C66.2952 129.207 66.4867 129.191 66.6826 129.159C66.8786 129.127 67.0381 129.089 67.1611 129.043V129.925C67.029 129.984 66.8444 130.034 66.6074 130.075C66.375 130.116 66.1471 130.137 65.9238 130.137C65.5273 130.137 65.1673 130.068 64.8438 129.932C64.5202 129.79 64.2604 129.553 64.0645 129.221C63.873 128.888 63.7773 128.428 63.7773 127.84V123.396H62.7109V122.843L63.7842 122.398L64.2354 120.771H64.9189V122.508H67.1133V123.396H64.9189V127.806C64.9189 128.275 65.026 128.626 65.2402 128.858C65.459 129.091 65.7484 129.207 66.1084 129.207ZM69.8135 122.508V130H68.6787V122.508H69.8135ZM69.2598 119.705C69.4466 119.705 69.6061 119.767 69.7383 119.89C69.875 120.008 69.9434 120.195 69.9434 120.45C69.9434 120.701 69.875 120.888 69.7383 121.011C69.6061 121.134 69.4466 121.195 69.2598 121.195C69.0638 121.195 68.8997 121.134 68.7676 121.011C68.64 120.888 68.5762 120.701 68.5762 120.45C68.5762 120.195 68.64 120.008 68.7676 119.89C68.8997 119.767 69.0638 119.705 69.2598 119.705ZM78.6797 126.24C78.6797 126.855 78.5999 127.405 78.4404 127.888C78.2809 128.371 78.0508 128.779 77.75 129.111C77.4492 129.444 77.0846 129.699 76.6562 129.877C76.2324 130.05 75.7516 130.137 75.2139 130.137C74.7126 130.137 74.2523 130.05 73.833 129.877C73.4183 129.699 73.0583 129.444 72.7529 129.111C72.4521 128.779 72.2174 128.371 72.0488 127.888C71.8848 127.405 71.8027 126.855 71.8027 126.24C71.8027 125.42 71.9417 124.723 72.2197 124.148C72.4977 123.57 72.8942 123.13 73.4092 122.829C73.9287 122.524 74.5462 122.371 75.2617 122.371C75.9453 122.371 76.5423 122.524 77.0527 122.829C77.5677 123.134 77.9665 123.576 78.249 124.155C78.5361 124.729 78.6797 125.424 78.6797 126.24ZM72.9785 126.24C72.9785 126.842 73.0583 127.364 73.2178 127.806C73.3773 128.248 73.6234 128.59 73.9561 128.831C74.2887 129.073 74.7171 129.193 75.2412 129.193C75.7607 129.193 76.1868 129.073 76.5195 128.831C76.8568 128.59 77.1051 128.248 77.2646 127.806C77.4242 127.364 77.5039 126.842 77.5039 126.24C77.5039 125.643 77.4242 125.128 77.2646 124.695C77.1051 124.258 76.859 123.921 76.5264 123.684C76.1937 123.447 75.763 123.328 75.2344 123.328C74.4551 123.328 73.8831 123.586 73.5186 124.101C73.1585 124.616 72.9785 125.329 72.9785 126.24ZM84.1895 122.371C85.0781 122.371 85.7503 122.59 86.2061 123.027C86.6618 123.46 86.8896 124.158 86.8896 125.119V130H85.7686V125.194C85.7686 124.57 85.625 124.103 85.3379 123.793C85.0553 123.483 84.6201 123.328 84.0322 123.328C83.2028 123.328 82.6195 123.563 82.2822 124.032C81.945 124.502 81.7764 125.183 81.7764 126.076V130H80.6416V122.508H81.5576L81.7285 123.588H81.79C81.9495 123.324 82.1523 123.103 82.3984 122.925C82.6445 122.743 82.9202 122.606 83.2256 122.515C83.5309 122.419 83.8522 122.371 84.1895 122.371ZM91.6816 122.508H92.8984L94.5527 126.855C94.6484 127.111 94.7373 127.357 94.8193 127.594C94.9014 127.826 94.9743 128.049 95.0381 128.264C95.1019 128.478 95.152 128.685 95.1885 128.886H95.2363C95.3001 128.658 95.3913 128.359 95.5098 127.99C95.6283 127.617 95.7559 127.236 95.8926 126.849L97.458 122.508H98.6816L95.4209 131.101C95.2477 131.561 95.0449 131.962 94.8125 132.304C94.5846 132.646 94.3066 132.908 93.9785 133.09C93.6504 133.277 93.2539 133.37 92.7891 133.37C92.5749 133.37 92.3857 133.356 92.2217 133.329C92.0576 133.306 91.9163 133.279 91.7979 133.247V132.338C91.8981 132.361 92.0189 132.381 92.1602 132.399C92.306 132.418 92.4564 132.427 92.6113 132.427C92.8939 132.427 93.1377 132.372 93.3428 132.263C93.5524 132.158 93.7324 132.003 93.8828 131.798C94.0332 131.593 94.1631 131.349 94.2725 131.066L94.6826 130.014L91.6816 122.508ZM106.338 126.24C106.338 126.855 106.258 127.405 106.099 127.888C105.939 128.371 105.709 128.779 105.408 129.111C105.107 129.444 104.743 129.699 104.314 129.877C103.891 130.05 103.41 130.137 102.872 130.137C102.371 130.137 101.91 130.05 101.491 129.877C101.076 129.699 100.716 129.444 100.411 129.111C100.11 128.779 99.8757 128.371 99.707 127.888C99.543 127.405 99.4609 126.855 99.4609 126.24C99.4609 125.42 99.5999 124.723 99.8779 124.148C100.156 123.57 100.552 123.13 101.067 122.829C101.587 122.524 102.204 122.371 102.92 122.371C103.604 122.371 104.201 122.524 104.711 122.829C105.226 123.134 105.625 123.576 105.907 124.155C106.194 124.729 106.338 125.424 106.338 126.24ZM100.637 126.24C100.637 126.842 100.716 127.364 100.876 127.806C101.035 128.248 101.282 128.59 101.614 128.831C101.947 129.073 102.375 129.193 102.899 129.193C103.419 129.193 103.845 129.073 104.178 128.831C104.515 128.59 104.763 128.248 104.923 127.806C105.082 127.364 105.162 126.842 105.162 126.24C105.162 125.643 105.082 125.128 104.923 124.695C104.763 124.258 104.517 123.921 104.185 123.684C103.852 123.447 103.421 123.328 102.893 123.328C102.113 123.328 101.541 123.586 101.177 124.101C100.817 124.616 100.637 125.329 100.637 126.24ZM114.486 122.508V130H113.557L113.393 128.947H113.331C113.176 129.207 112.976 129.426 112.729 129.604C112.483 129.781 112.205 129.913 111.896 130C111.59 130.091 111.264 130.137 110.918 130.137C110.326 130.137 109.829 130.041 109.428 129.85C109.027 129.658 108.724 129.362 108.519 128.961C108.318 128.56 108.218 128.045 108.218 127.416V122.508H109.366V127.334C109.366 127.958 109.507 128.425 109.79 128.735C110.073 129.041 110.503 129.193 111.082 129.193C111.638 129.193 112.08 129.089 112.408 128.879C112.741 128.669 112.98 128.362 113.126 127.956C113.272 127.546 113.345 127.045 113.345 126.452V122.508H114.486ZM123.188 130.137C122.241 130.137 121.489 129.813 120.933 129.166C120.381 128.519 120.105 127.557 120.105 126.281C120.105 124.992 120.388 124.019 120.953 123.362C121.518 122.701 122.27 122.371 123.209 122.371C123.605 122.371 123.952 122.424 124.248 122.528C124.544 122.633 124.799 122.774 125.014 122.952C125.228 123.125 125.408 123.324 125.554 123.547H125.636C125.618 123.406 125.599 123.212 125.581 122.966C125.563 122.72 125.554 122.519 125.554 122.364V119.363H126.688V130H125.772L125.602 128.934H125.554C125.412 129.157 125.232 129.36 125.014 129.542C124.799 129.724 124.542 129.87 124.241 129.979C123.945 130.084 123.594 130.137 123.188 130.137ZM123.366 129.193C124.168 129.193 124.736 128.965 125.068 128.51C125.401 128.054 125.567 127.377 125.567 126.479V126.274C125.567 125.322 125.408 124.59 125.089 124.08C124.774 123.57 124.2 123.314 123.366 123.314C122.669 123.314 122.147 123.583 121.801 124.121C121.454 124.654 121.281 125.383 121.281 126.309C121.281 127.229 121.452 127.94 121.794 128.441C122.14 128.943 122.664 129.193 123.366 129.193ZM130.229 122.508V130H129.095V122.508H130.229ZM129.676 119.705C129.863 119.705 130.022 119.767 130.154 119.89C130.291 120.008 130.359 120.195 130.359 120.45C130.359 120.701 130.291 120.888 130.154 121.011C130.022 121.134 129.863 121.195 129.676 121.195C129.48 121.195 129.316 121.134 129.184 121.011C129.056 120.888 128.992 120.701 128.992 120.45C128.992 120.195 129.056 120.008 129.184 119.89C129.316 119.767 129.48 119.705 129.676 119.705ZM135.302 130.137C134.354 130.137 133.602 129.813 133.046 129.166C132.494 128.519 132.219 127.557 132.219 126.281C132.219 124.992 132.501 124.019 133.066 123.362C133.632 122.701 134.383 122.371 135.322 122.371C135.719 122.371 136.065 122.424 136.361 122.528C136.658 122.633 136.913 122.774 137.127 122.952C137.341 123.125 137.521 123.324 137.667 123.547H137.749C137.731 123.406 137.713 123.212 137.694 122.966C137.676 122.72 137.667 122.519 137.667 122.364V119.363H138.802V130H137.886L137.715 128.934H137.667C137.526 129.157 137.346 129.36 137.127 129.542C136.913 129.724 136.655 129.87 136.354 129.979C136.058 130.084 135.707 130.137 135.302 130.137ZM135.479 129.193C136.282 129.193 136.849 128.965 137.182 128.51C137.514 128.054 137.681 127.377 137.681 126.479V126.274C137.681 125.322 137.521 124.59 137.202 124.08C136.888 123.57 136.313 123.314 135.479 123.314C134.782 123.314 134.26 123.583 133.914 124.121C133.568 124.654 133.395 125.383 133.395 126.309C133.395 127.229 133.565 127.94 133.907 128.441C134.254 128.943 134.778 129.193 135.479 129.193ZM141.037 129.289C141.037 128.97 141.115 128.744 141.27 128.612C141.424 128.476 141.614 128.407 141.837 128.407C142.069 128.407 142.265 128.476 142.425 128.612C142.584 128.744 142.664 128.97 142.664 129.289C142.664 129.604 142.584 129.834 142.425 129.979C142.265 130.121 142.069 130.191 141.837 130.191C141.614 130.191 141.424 130.121 141.27 129.979C141.115 129.834 141.037 129.604 141.037 129.289Z" fill="#696F8C"/>
<circle cx="28" cy="19" r="14.5" fill="#101840" stroke="#101840"/>
<path d="M28.957 24H27.1465V19.043C27.1465 18.9062 27.1484 18.7383 27.1523 18.5391C27.1562 18.3359 27.1621 18.1289 27.1699 17.918C27.1777 17.7031 27.1855 17.5098 27.1934 17.3379C27.1504 17.3887 27.0625 17.4766 26.9297 17.6016C26.8008 17.7227 26.6797 17.832 26.5664 17.9297L25.582 18.7207L24.709 17.6309L27.4688 15.4336H28.957V24Z" fill="white"/>
<path d="M28 34V70" stroke="#101840" stroke-width="2"/>
<circle cx="28" cy="68" r="2.5" fill="#101840" stroke="#101840"/>
<circle cx="63" cy="18" r="14.5" fill="#101840" stroke="#101840"/>
<path d="M65.4688 23H59.4805V21.7402L61.6309 19.5664C62.0645 19.1211 62.4121 18.75 62.6738 18.4531C62.9395 18.1523 63.1309 17.8789 63.248 17.6328C63.3691 17.3867 63.4297 17.123 63.4297 16.8418C63.4297 16.502 63.334 16.248 63.1426 16.0801C62.9551 15.9082 62.7031 15.8223 62.3867 15.8223C62.0547 15.8223 61.7324 15.8984 61.4199 16.0508C61.1074 16.2031 60.7812 16.4199 60.4414 16.7012L59.457 15.5352C59.7031 15.3242 59.9629 15.125 60.2363 14.9375C60.5137 14.75 60.834 14.5996 61.1973 14.4863C61.5645 14.3691 62.0039 14.3105 62.5156 14.3105C63.0781 14.3105 63.5605 14.4121 63.9629 14.6152C64.3691 14.8184 64.6816 15.0957 64.9004 15.4473C65.1191 15.7949 65.2285 16.1895 65.2285 16.6309C65.2285 17.1035 65.1348 17.5352 64.9473 17.9258C64.7598 18.3164 64.4863 18.7031 64.127 19.0859C63.7715 19.4688 63.3418 19.8926 62.8379 20.3574L61.7363 21.3945V21.4766H65.4688V23Z" fill="white"/>
<path d="M63 33V69" stroke="#101840" stroke-width="2"/>
<circle cx="63" cy="67" r="2.5" fill="#101840" stroke="#101840"/>
<circle cx="53" cy="188" r="14.5" transform="rotate(-180 53 188)" fill="#101840" stroke="#101840"/>
<path d="M56.1348 186.35C56.1348 186.744 56.0527 187.086 55.8887 187.375C55.7246 187.664 55.502 187.9 55.2207 188.084C54.9434 188.268 54.6309 188.402 54.2832 188.488V188.523C54.9707 188.609 55.4922 188.82 55.8477 189.156C56.207 189.492 56.3867 189.941 56.3867 190.504C56.3867 191.004 56.2637 191.451 56.0176 191.846C55.7754 192.24 55.4004 192.551 54.8926 192.777C54.3848 193.004 53.7305 193.117 52.9297 193.117C52.457 193.117 52.0156 193.078 51.6055 193C51.1992 192.926 50.8164 192.811 50.457 192.654V191.113C50.8242 191.301 51.209 191.443 51.6113 191.541C52.0137 191.635 52.3887 191.682 52.7363 191.682C53.3848 191.682 53.8379 191.57 54.0957 191.348C54.3574 191.121 54.4883 190.805 54.4883 190.398C54.4883 190.16 54.4277 189.959 54.3066 189.795C54.1855 189.631 53.9746 189.506 53.6738 189.42C53.377 189.334 52.9609 189.291 52.4258 189.291H51.7754V187.902H52.4375C52.9648 187.902 53.3652 187.854 53.6387 187.756C53.916 187.654 54.1035 187.518 54.2012 187.346C54.3027 187.17 54.3535 186.971 54.3535 186.748C54.3535 186.443 54.2598 186.205 54.0723 186.033C53.8848 185.861 53.5723 185.775 53.1348 185.775C52.8613 185.775 52.6113 185.811 52.3848 185.881C52.1621 185.947 51.9609 186.029 51.7812 186.127C51.6016 186.221 51.4434 186.312 51.3066 186.402L50.4688 185.154C50.8047 184.912 51.1973 184.711 51.6465 184.551C52.0996 184.391 52.6387 184.311 53.2637 184.311C54.1465 184.311 54.8457 184.488 55.3613 184.844C55.877 185.199 56.1348 185.701 56.1348 186.35Z" fill="white"/>
<path d="M53 173L53 137" stroke="#101840" stroke-width="2"/>
<circle cx="53" cy="139" r="2.5" transform="rotate(-180 53 139)" fill="#101840" stroke="#101840"/>
<circle cx="460" cy="15" r="14.5" fill="#101840" stroke="#101840"/>
<path d="M462.662 18.2246H461.631V20H459.861V18.2246H456.205V16.9648L459.961 11.4336H461.631V16.8184H462.662V18.2246ZM459.861 16.8184V15.3652C459.861 15.2285 459.863 15.0664 459.867 14.8789C459.875 14.6914 459.883 14.5039 459.891 14.3164C459.898 14.1289 459.906 13.9629 459.914 13.8184C459.926 13.6699 459.934 13.5664 459.938 13.5078H459.891C459.816 13.668 459.738 13.8242 459.656 13.9766C459.574 14.125 459.479 14.2812 459.369 14.4453L457.799 16.8184H459.861Z" fill="white"/>
<path d="M460 30V66" stroke="#101840" stroke-width="2"/>
<circle cx="460" cy="64" r="2.5" fill="#101840" stroke="#101840"/>
</svg>
