<svg width="446" height="102" viewBox="0 0 446 102" fill="none" xmlns="http://www.w3.org/2000/svg">
<circle cx="15" cy="16" r="14.5" transform="rotate(-90 15 16)" fill="#101840" stroke="#101840"/>
<path d="M16.457 20.5H14.6465L14.6465 15.543C14.6465 15.4062 14.6484 15.2383 14.6523 15.0391C14.6562 14.8359 14.6621 14.6289 14.6699 14.418C14.6777 14.2031 14.6855 14.0098 14.6934 13.8379C14.6504 13.8887 14.5625 13.9766 14.4297 14.1016C14.3008 14.2227 14.1797 14.332 14.0664 14.4297L13.082 15.2207L12.209 14.1309L14.9687 11.9336H16.457L16.457 20.5Z" fill="white"/>
<path d="M30 16L66 16" stroke="#101840" stroke-width="2"/>
<circle cx="64" cy="16" r="2.5" transform="rotate(-90 64 16)" fill="#101840" stroke="#101840"/>
<circle cx="431" cy="16" r="14.5" transform="rotate(90 431 16)" fill="#101840" stroke="#101840"/>
<path d="M432.457 20.5H430.646V15.543C430.646 15.4062 430.648 15.2383 430.652 15.0391C430.656 14.8359 430.662 14.6289 430.67 14.418C430.678 14.2031 430.686 14.0098 430.693 13.8379C430.65 13.8887 430.562 13.9766 430.43 14.1016C430.301 14.2227 430.18 14.332 430.066 14.4297L429.082 15.2207L428.209 14.1309L430.969 11.9336H432.457V20.5Z" fill="white"/>
<path d="M416 16L380 16" stroke="#101840" stroke-width="2"/>
<circle cx="382" cy="16" r="2.5" transform="rotate(90 382 16)" fill="#101840" stroke="#101840"/>
<g clip-path="url(#clip0_332_7883)">
<path d="M79.705 13.705L79 13L76 16L79 19L79.705 18.295L77.415 16L79.705 13.705Z" fill="#474D66"/>
</g>
<rect x="98" width="31" height="32" rx="3" fill="#EBF0FF"/>
<path d="M114.279 21H113.33V14.9297C113.33 14.6992 113.33 14.502 113.33 14.3379C113.334 14.1699 113.338 14.0176 113.342 13.8809C113.35 13.7402 113.359 13.5977 113.371 13.4531C113.25 13.5781 113.137 13.6855 113.031 13.7754C112.926 13.8613 112.795 13.9688 112.639 14.0977L111.66 14.8828L111.15 14.2207L113.471 12.4336H114.279V21Z" fill="#3366FF"/>
<path d="M151.271 21H145.658V20.1855L147.949 17.8594C148.375 17.4297 148.732 17.0469 149.021 16.7109C149.314 16.375 149.537 16.0449 149.689 15.7207C149.842 15.3926 149.918 15.0332 149.918 14.6426C149.918 14.1582 149.773 13.7891 149.484 13.5352C149.199 13.2773 148.822 13.1484 148.354 13.1484C147.943 13.1484 147.58 13.2188 147.264 13.3594C146.947 13.5 146.623 13.6992 146.291 13.957L145.77 13.3008C145.996 13.1094 146.242 12.9395 146.508 12.791C146.777 12.6426 147.064 12.5254 147.369 12.4395C147.678 12.3535 148.006 12.3105 148.354 12.3105C148.881 12.3105 149.336 12.4023 149.719 12.5859C150.102 12.7695 150.396 13.0312 150.604 13.3711C150.814 13.7109 150.92 14.1152 150.92 14.584C150.92 15.0371 150.83 15.459 150.65 15.8496C150.471 16.2363 150.219 16.6211 149.895 17.0039C149.57 17.3828 149.191 17.7852 148.758 18.2109L146.895 20.0684V20.1094H151.271V21Z" fill="#696F8C"/>
<path d="M185.955 14.4316C185.955 14.8145 185.881 15.1465 185.732 15.4277C185.584 15.709 185.377 15.9395 185.111 16.1191C184.846 16.2949 184.533 16.418 184.174 16.4883V16.5352C184.854 16.6211 185.363 16.8398 185.703 17.1914C186.047 17.543 186.219 18.0039 186.219 18.5742C186.219 19.0703 186.102 19.5098 185.867 19.8926C185.637 20.2754 185.281 20.5762 184.801 20.7949C184.324 21.0098 183.713 21.1172 182.967 21.1172C182.514 21.1172 182.094 21.0801 181.707 21.0059C181.324 20.9355 180.957 20.8164 180.605 20.6484V19.7344C180.961 19.9102 181.348 20.0488 181.766 20.1504C182.184 20.248 182.588 20.2969 182.979 20.2969C183.76 20.2969 184.324 20.1426 184.672 19.834C185.02 19.5215 185.193 19.0957 185.193 18.5566C185.193 18.1855 185.096 17.8867 184.9 17.6602C184.709 17.4297 184.432 17.2617 184.068 17.1562C183.709 17.0469 183.275 16.9922 182.768 16.9922H181.912V16.1602H182.773C183.238 16.1602 183.633 16.0918 183.957 15.9551C184.281 15.8184 184.527 15.627 184.695 15.3809C184.867 15.1309 184.953 14.8359 184.953 14.4961C184.953 14.0625 184.809 13.7285 184.52 13.4941C184.23 13.2559 183.838 13.1367 183.342 13.1367C183.037 13.1367 182.76 13.168 182.51 13.2305C182.26 13.293 182.025 13.3789 181.807 13.4883C181.588 13.5977 181.369 13.7246 181.15 13.8691L180.658 13.2012C180.971 12.959 181.352 12.75 181.801 12.5742C182.25 12.3984 182.76 12.3105 183.33 12.3105C184.205 12.3105 184.861 12.5098 185.299 12.9082C185.736 13.3066 185.955 13.8145 185.955 14.4316Z" fill="#696F8C"/>
<path d="M221.699 19.0137H220.416V21H219.467V19.0137H215.324V18.1934L219.402 12.3867H220.416V18.1348H221.699V19.0137ZM219.467 18.1348V15.334C219.467 15.1191 219.469 14.9258 219.473 14.7539C219.477 14.5781 219.482 14.416 219.49 14.2676C219.498 14.1152 219.504 13.9707 219.508 13.834C219.516 13.6973 219.521 13.5625 219.525 13.4297H219.479C219.404 13.5859 219.318 13.752 219.221 13.9277C219.127 14.0996 219.031 14.2539 218.934 14.3906L216.291 18.1348H219.467Z" fill="#696F8C"/>
<path d="M253.365 15.7617C253.947 15.7617 254.453 15.8613 254.883 16.0605C255.312 16.2559 255.645 16.541 255.879 16.916C256.117 17.291 256.236 17.7461 256.236 18.2812C256.236 18.8672 256.109 19.373 255.855 19.7988C255.602 20.2207 255.236 20.5469 254.76 20.7773C254.283 21.0039 253.713 21.1172 253.049 21.1172C252.604 21.1172 252.189 21.0781 251.807 21C251.424 20.9219 251.102 20.8047 250.84 20.6484V19.7227C251.125 19.8945 251.471 20.0312 251.877 20.1328C252.283 20.2344 252.678 20.2852 253.061 20.2852C253.494 20.2852 253.873 20.2168 254.197 20.0801C254.525 19.9395 254.779 19.7285 254.959 19.4473C255.143 19.1621 255.234 18.8047 255.234 18.375C255.234 17.8047 255.059 17.3652 254.707 17.0566C254.359 16.7441 253.809 16.5879 253.055 16.5879C252.812 16.5879 252.547 16.6074 252.258 16.6465C251.969 16.6855 251.73 16.7285 251.543 16.7754L251.051 16.4531L251.379 12.4336H255.639V13.3242H252.211L251.994 15.9082C252.143 15.877 252.334 15.8457 252.568 15.8145C252.803 15.7793 253.068 15.7617 253.365 15.7617Z" fill="#696F8C"/>
<path d="M286.172 20.584C286.172 20.4121 286.211 20.2812 286.289 20.1914C286.367 20.0977 286.482 20.0508 286.635 20.0508C286.803 20.0508 286.926 20.0977 287.004 20.1914C287.082 20.2812 287.121 20.4121 287.121 20.584C287.121 20.7559 287.082 20.8887 287.004 20.9824C286.926 21.0762 286.803 21.123 286.635 21.123C286.482 21.123 286.367 21.0762 286.289 20.9824C286.211 20.8887 286.172 20.7559 286.172 20.584ZM289.031 20.584C289.031 20.4121 289.07 20.2812 289.148 20.1914C289.227 20.0977 289.342 20.0508 289.494 20.0508C289.662 20.0508 289.785 20.0977 289.863 20.1914C289.941 20.2812 289.98 20.4121 289.98 20.584C289.98 20.7559 289.941 20.8887 289.863 20.9824C289.785 21.0762 289.662 21.123 289.494 21.123C289.342 21.123 289.227 21.0762 289.148 20.9824C289.07 20.8887 289.031 20.7559 289.031 20.584ZM291.891 20.584C291.891 20.4121 291.93 20.2812 292.008 20.1914C292.086 20.0977 292.201 20.0508 292.354 20.0508C292.521 20.0508 292.645 20.0977 292.723 20.1914C292.801 20.2812 292.84 20.4121 292.84 20.584C292.84 20.7559 292.801 20.8887 292.723 20.9824C292.645 21.0762 292.521 21.123 292.354 21.123C292.201 21.123 292.086 21.0762 292.008 20.9824C291.93 20.8887 291.891 20.7559 291.891 20.584Z" fill="#696F8C"/>
<path d="M328.338 21H322.725V20.1855L325.016 17.8594C325.441 17.4297 325.799 17.0469 326.088 16.7109C326.381 16.375 326.604 16.0449 326.756 15.7207C326.908 15.3926 326.984 15.0332 326.984 14.6426C326.984 14.1582 326.84 13.7891 326.551 13.5352C326.266 13.2773 325.889 13.1484 325.42 13.1484C325.01 13.1484 324.646 13.2188 324.33 13.3594C324.014 13.5 323.689 13.6992 323.357 13.957L322.836 13.3008C323.062 13.1094 323.309 12.9395 323.574 12.791C323.844 12.6426 324.131 12.5254 324.436 12.4395C324.744 12.3535 325.072 12.3105 325.42 12.3105C325.947 12.3105 326.402 12.4023 326.785 12.5859C327.168 12.7695 327.463 13.0312 327.67 13.3711C327.881 13.7109 327.986 14.1152 327.986 14.584C327.986 15.0371 327.896 15.459 327.717 15.8496C327.537 16.2363 327.285 16.6211 326.961 17.0039C326.637 17.3828 326.258 17.7852 325.824 18.2109L323.961 20.0684V20.1094H328.338V21ZM332.422 12.3105C332.918 12.3105 333.357 12.3887 333.74 12.5449C334.123 12.7012 334.422 12.9316 334.637 13.2363C334.855 13.5371 334.965 13.9082 334.965 14.3496C334.965 14.6973 334.889 15.002 334.736 15.2637C334.588 15.5215 334.387 15.748 334.133 15.9434C333.879 16.1348 333.598 16.3066 333.289 16.459C333.656 16.627 333.986 16.8164 334.279 17.0273C334.576 17.2383 334.811 17.4863 334.982 17.7715C335.154 18.0566 335.24 18.3945 335.24 18.7852C335.24 19.2656 335.123 19.6816 334.889 20.0332C334.658 20.3809 334.334 20.6484 333.916 20.8359C333.498 21.0234 333.008 21.1172 332.445 21.1172C331.84 21.1172 331.324 21.0273 330.898 20.8477C330.477 20.6641 330.154 20.4023 329.932 20.0625C329.713 19.7188 329.604 19.3066 329.604 18.8262C329.604 18.4316 329.688 18.0898 329.855 17.8008C330.023 17.5078 330.246 17.2559 330.523 17.0449C330.801 16.834 331.104 16.6562 331.432 16.5117C331.146 16.3555 330.885 16.1777 330.646 15.9785C330.412 15.7793 330.225 15.5469 330.084 15.2812C329.947 15.0117 329.879 14.6992 329.879 14.3438C329.879 13.9102 329.988 13.543 330.207 13.2422C330.43 12.9375 330.732 12.707 331.115 12.5508C331.502 12.3906 331.938 12.3105 332.422 12.3105ZM330.559 18.832C330.559 19.2695 330.713 19.6309 331.021 19.916C331.33 20.1973 331.797 20.3379 332.422 20.3379C333.016 20.3379 333.475 20.1973 333.799 19.916C334.123 19.6309 334.285 19.2578 334.285 18.7969C334.285 18.5117 334.211 18.2617 334.062 18.0469C333.914 17.8281 333.703 17.6328 333.43 17.4609C333.156 17.2891 332.834 17.1328 332.463 16.9922L332.252 16.916C331.893 17.0645 331.586 17.2305 331.332 17.4141C331.082 17.5938 330.891 17.7988 330.758 18.0293C330.625 18.2598 330.559 18.5273 330.559 18.832ZM332.41 13.1074C331.949 13.1074 331.572 13.2188 331.279 13.4414C330.986 13.6602 330.84 13.9766 330.84 14.3906C330.84 14.6875 330.91 14.9395 331.051 15.1465C331.195 15.3496 331.391 15.5254 331.637 15.6738C331.883 15.8184 332.158 15.9531 332.463 16.0781C332.76 15.9531 333.023 15.8164 333.254 15.668C333.484 15.5156 333.666 15.3359 333.799 15.1289C333.932 14.9219 333.998 14.6738 333.998 14.3848C333.998 13.9707 333.852 13.6543 333.559 13.4355C333.27 13.2168 332.887 13.1074 332.41 13.1074Z" fill="#696F8C"/>
<g clip-path="url(#clip1_332_7883)">
<path d="M367 13L366.295 13.705L368.585 16L366.295 18.295L367 19L370 16L367 13Z" fill="#474D66"/>
</g>
<circle cx="113" cy="87" r="14.5" transform="rotate(-180 113 87)" fill="#101840" stroke="#101840"/>
<path d="M116.469 92H110.48V90.7402L112.631 88.5664C113.064 88.1211 113.412 87.75 113.674 87.4531C113.939 87.1523 114.131 86.8789 114.248 86.6328C114.369 86.3867 114.43 86.123 114.43 85.8418C114.43 85.502 114.334 85.248 114.143 85.0801C113.955 84.9082 113.703 84.8223 113.387 84.8223C113.055 84.8223 112.732 84.8984 112.42 85.0508C112.107 85.2031 111.781 85.4199 111.441 85.7012L110.457 84.5352C110.703 84.3242 110.963 84.125 111.236 83.9375C111.514 83.75 111.834 83.5996 112.197 83.4863C112.564 83.3691 113.004 83.3105 113.516 83.3105C114.078 83.3105 114.561 83.4121 114.963 83.6152C115.369 83.8184 115.682 84.0957 115.9 84.4473C116.119 84.7949 116.229 85.1895 116.229 85.6309C116.229 86.1035 116.135 86.5352 115.947 86.9258C115.76 87.3164 115.486 87.7031 115.127 88.0859C114.771 88.4688 114.342 88.8926 113.838 89.3574L112.736 90.3945V90.4766H116.469V92Z" fill="white"/>
<path d="M113 72V36" stroke="#101840" stroke-width="2"/>
<circle cx="113" cy="38" r="2.5" transform="rotate(-180 113 38)" fill="#101840" stroke="#101840"/>
<circle cx="290" cy="87" r="14.5" transform="rotate(-180 290 87)" fill="#101840" stroke="#101840"/>
<path d="M293.135 85.3496C293.135 85.7441 293.053 86.0859 292.889 86.375C292.725 86.6641 292.502 86.9004 292.221 87.084C291.943 87.2676 291.631 87.4023 291.283 87.4883V87.5234C291.971 87.6094 292.492 87.8203 292.848 88.1562C293.207 88.4922 293.387 88.9414 293.387 89.5039C293.387 90.0039 293.264 90.4512 293.018 90.8457C292.775 91.2402 292.4 91.5508 291.893 91.7773C291.385 92.0039 290.73 92.1172 289.93 92.1172C289.457 92.1172 289.016 92.0781 288.605 92C288.199 91.9258 287.816 91.8105 287.457 91.6543V90.1133C287.824 90.3008 288.209 90.4434 288.611 90.541C289.014 90.6348 289.389 90.6816 289.736 90.6816C290.385 90.6816 290.838 90.5703 291.096 90.3477C291.357 90.1211 291.488 89.8047 291.488 89.3984C291.488 89.1602 291.428 88.959 291.307 88.7949C291.186 88.6309 290.975 88.5059 290.674 88.4199C290.377 88.334 289.961 88.291 289.426 88.291H288.775V86.9023H289.438C289.965 86.9023 290.365 86.8535 290.639 86.7559C290.916 86.6543 291.104 86.5176 291.201 86.3457C291.303 86.1699 291.354 85.9707 291.354 85.748C291.354 85.4434 291.26 85.2051 291.072 85.0332C290.885 84.8613 290.572 84.7754 290.135 84.7754C289.861 84.7754 289.611 84.8105 289.385 84.8809C289.162 84.9473 288.961 85.0293 288.781 85.127C288.602 85.2207 288.443 85.3125 288.307 85.4023L287.469 84.1543C287.805 83.9121 288.197 83.7109 288.646 83.5508C289.1 83.3906 289.639 83.3105 290.264 83.3105C291.146 83.3105 291.846 83.4883 292.361 83.8438C292.877 84.1992 293.135 84.7012 293.135 85.3496Z" fill="white"/>
<path d="M290 72V36" stroke="#101840" stroke-width="2"/>
<circle cx="290" cy="38" r="2.5" transform="rotate(-180 290 38)" fill="#101840" stroke="#101840"/>
<defs>
<clipPath id="clip0_332_7883">
<rect width="12" height="12" fill="white" transform="translate(72 10)"/>
</clipPath>
<clipPath id="clip1_332_7883">
<rect width="12" height="12" fill="white" transform="translate(362 10)"/>
</clipPath>
</defs>
</svg>
