<svg width="446" height="102" viewBox="0 0 446 102" fill="none" xmlns="http://www.w3.org/2000/svg">
<circle cx="15" cy="17" r="14.5" transform="rotate(-90 15 17)" fill="#101840" stroke="#101840"/>
<path d="M16.457 22.5H14.6465L14.6465 17.543C14.6465 17.4062 14.6484 17.2383 14.6523 17.0391C14.6562 16.8359 14.6621 16.6289 14.6699 16.418C14.6777 16.2031 14.6855 16.0098 14.6934 15.8379C14.6504 15.8887 14.5625 15.9766 14.4297 16.1016C14.3008 16.2227 14.1797 16.332 14.0664 16.4297L13.082 17.2207L12.209 16.1309L14.9687 13.9336H16.457L16.457 22.5Z" fill="white"/>
<path d="M30 17L66 17" stroke="#101840" stroke-width="2"/>
<circle cx="64" cy="17" r="2.5" transform="rotate(-90 64 17)" fill="#101840" stroke="#101840"/>
<circle cx="431" cy="17" r="14.5" transform="rotate(90 431 17)" fill="#101840" stroke="#101840"/>
<path d="M432.457 21.5H430.646V16.543C430.646 16.4062 430.648 16.2383 430.652 16.0391C430.656 15.8359 430.662 15.6289 430.67 15.418C430.678 15.2031 430.686 15.0098 430.693 14.8379C430.65 14.8887 430.562 14.9766 430.43 15.1016C430.301 15.2227 430.18 15.332 430.066 15.4297L429.082 16.2207L428.209 15.1309L430.969 12.9336H432.457V21.5Z" fill="white"/>
<path d="M416 17L380 17" stroke="#101840" stroke-width="2"/>
<circle cx="382" cy="17" r="2.5" transform="rotate(90 382 17)" fill="#101840" stroke="#101840"/>
<path d="M74.705 13.705L74 13L71 16L74 19L74.705 18.295L72.415 16L74.705 13.705Z" fill="#474D66"/>
<path d="M93 3C93 1.34315 94.3431 0 96 0H121C122.657 0 124 1.34315 124 3V29C124 30.6569 122.657 32 121 32H96C94.3431 32 93 30.6569 93 29V3Z" fill="#EBF0FF"/>
<path d="M109.279 21H108.33V14.9297C108.33 14.6992 108.33 14.502 108.33 14.3379C108.334 14.1699 108.338 14.0176 108.342 13.8809C108.35 13.7402 108.359 13.5977 108.371 13.4531C108.25 13.5781 108.137 13.6855 108.031 13.7754C107.926 13.8613 107.795 13.9688 107.639 14.0977L106.66 14.8828L106.15 14.2207L108.471 12.4336H109.279V21Z" fill="#3366FF"/>
<path d="M146.271 21H140.658V20.1855L142.949 17.8594C143.375 17.4297 143.732 17.0469 144.021 16.7109C144.314 16.375 144.537 16.0449 144.689 15.7207C144.842 15.3926 144.918 15.0332 144.918 14.6426C144.918 14.1582 144.773 13.7891 144.484 13.5352C144.199 13.2773 143.822 13.1484 143.354 13.1484C142.943 13.1484 142.58 13.2188 142.264 13.3594C141.947 13.5 141.623 13.6992 141.291 13.957L140.77 13.3008C140.996 13.1094 141.242 12.9395 141.508 12.791C141.777 12.6426 142.064 12.5254 142.369 12.4395C142.678 12.3535 143.006 12.3105 143.354 12.3105C143.881 12.3105 144.336 12.4023 144.719 12.5859C145.102 12.7695 145.396 13.0312 145.604 13.3711C145.814 13.7109 145.92 14.1152 145.92 14.584C145.92 15.0371 145.83 15.459 145.65 15.8496C145.471 16.2363 145.219 16.6211 144.895 17.0039C144.57 17.3828 144.191 17.7852 143.758 18.2109L141.895 20.0684V20.1094H146.271V21Z" fill="#696F8C"/>
<path d="M180.955 14.4316C180.955 14.8145 180.881 15.1465 180.732 15.4277C180.584 15.709 180.377 15.9395 180.111 16.1191C179.846 16.2949 179.533 16.418 179.174 16.4883V16.5352C179.854 16.6211 180.363 16.8398 180.703 17.1914C181.047 17.543 181.219 18.0039 181.219 18.5742C181.219 19.0703 181.102 19.5098 180.867 19.8926C180.637 20.2754 180.281 20.5762 179.801 20.7949C179.324 21.0098 178.713 21.1172 177.967 21.1172C177.514 21.1172 177.094 21.0801 176.707 21.0059C176.324 20.9355 175.957 20.8164 175.605 20.6484V19.7344C175.961 19.9102 176.348 20.0488 176.766 20.1504C177.184 20.248 177.588 20.2969 177.979 20.2969C178.76 20.2969 179.324 20.1426 179.672 19.834C180.02 19.5215 180.193 19.0957 180.193 18.5566C180.193 18.1855 180.096 17.8867 179.9 17.6602C179.709 17.4297 179.432 17.2617 179.068 17.1562C178.709 17.0469 178.275 16.9922 177.768 16.9922H176.912V16.1602H177.773C178.238 16.1602 178.633 16.0918 178.957 15.9551C179.281 15.8184 179.527 15.627 179.695 15.3809C179.867 15.1309 179.953 14.8359 179.953 14.4961C179.953 14.0625 179.809 13.7285 179.52 13.4941C179.23 13.2559 178.838 13.1367 178.342 13.1367C178.037 13.1367 177.76 13.168 177.51 13.2305C177.26 13.293 177.025 13.3789 176.807 13.4883C176.588 13.5977 176.369 13.7246 176.15 13.8691L175.658 13.2012C175.971 12.959 176.352 12.75 176.801 12.5742C177.25 12.3984 177.76 12.3105 178.33 12.3105C179.205 12.3105 179.861 12.5098 180.299 12.9082C180.736 13.3066 180.955 13.8145 180.955 14.4316Z" fill="#696F8C"/>
<path d="M216.699 19.0137H215.416V21H214.467V19.0137H210.324V18.1934L214.402 12.3867H215.416V18.1348H216.699V19.0137ZM214.467 18.1348V15.334C214.467 15.1191 214.469 14.9258 214.473 14.7539C214.477 14.5781 214.482 14.416 214.49 14.2676C214.498 14.1152 214.504 13.9707 214.508 13.834C214.516 13.6973 214.521 13.5625 214.525 13.4297H214.479C214.404 13.5859 214.318 13.752 214.221 13.9277C214.127 14.0996 214.031 14.2539 213.934 14.3906L211.291 18.1348H214.467Z" fill="#696F8C"/>
<path d="M248.365 15.7617C248.947 15.7617 249.453 15.8613 249.883 16.0605C250.312 16.2559 250.645 16.541 250.879 16.916C251.117 17.291 251.236 17.7461 251.236 18.2812C251.236 18.8672 251.109 19.373 250.855 19.7988C250.602 20.2207 250.236 20.5469 249.76 20.7773C249.283 21.0039 248.713 21.1172 248.049 21.1172C247.604 21.1172 247.189 21.0781 246.807 21C246.424 20.9219 246.102 20.8047 245.84 20.6484V19.7227C246.125 19.8945 246.471 20.0312 246.877 20.1328C247.283 20.2344 247.678 20.2852 248.061 20.2852C248.494 20.2852 248.873 20.2168 249.197 20.0801C249.525 19.9395 249.779 19.7285 249.959 19.4473C250.143 19.1621 250.234 18.8047 250.234 18.375C250.234 17.8047 250.059 17.3652 249.707 17.0566C249.359 16.7441 248.809 16.5879 248.055 16.5879C247.812 16.5879 247.547 16.6074 247.258 16.6465C246.969 16.6855 246.73 16.7285 246.543 16.7754L246.051 16.4531L246.379 12.4336H250.639V13.3242H247.211L246.994 15.9082C247.143 15.877 247.334 15.8457 247.568 15.8145C247.803 15.7793 248.068 15.7617 248.365 15.7617Z" fill="#696F8C"/>
<path d="M281.172 20.584C281.172 20.4121 281.211 20.2812 281.289 20.1914C281.367 20.0977 281.482 20.0508 281.635 20.0508C281.803 20.0508 281.926 20.0977 282.004 20.1914C282.082 20.2812 282.121 20.4121 282.121 20.584C282.121 20.7559 282.082 20.8887 282.004 20.9824C281.926 21.0762 281.803 21.123 281.635 21.123C281.482 21.123 281.367 21.0762 281.289 20.9824C281.211 20.8887 281.172 20.7559 281.172 20.584ZM284.031 20.584C284.031 20.4121 284.07 20.2812 284.148 20.1914C284.227 20.0977 284.342 20.0508 284.494 20.0508C284.662 20.0508 284.785 20.0977 284.863 20.1914C284.941 20.2812 284.98 20.4121 284.98 20.584C284.98 20.7559 284.941 20.8887 284.863 20.9824C284.785 21.0762 284.662 21.123 284.494 21.123C284.342 21.123 284.227 21.0762 284.148 20.9824C284.07 20.8887 284.031 20.7559 284.031 20.584ZM286.891 20.584C286.891 20.4121 286.93 20.2812 287.008 20.1914C287.086 20.0977 287.201 20.0508 287.354 20.0508C287.521 20.0508 287.645 20.0977 287.723 20.1914C287.801 20.2812 287.84 20.4121 287.84 20.584C287.84 20.7559 287.801 20.8887 287.723 20.9824C287.645 21.0762 287.521 21.123 287.354 21.123C287.201 21.123 287.086 21.0762 287.008 20.9824C286.93 20.8887 286.891 20.7559 286.891 20.584Z" fill="#696F8C"/>
<path d="M323.338 21H317.725V20.1855L320.016 17.8594C320.441 17.4297 320.799 17.0469 321.088 16.7109C321.381 16.375 321.604 16.0449 321.756 15.7207C321.908 15.3926 321.984 15.0332 321.984 14.6426C321.984 14.1582 321.84 13.7891 321.551 13.5352C321.266 13.2773 320.889 13.1484 320.42 13.1484C320.01 13.1484 319.646 13.2188 319.33 13.3594C319.014 13.5 318.689 13.6992 318.357 13.957L317.836 13.3008C318.062 13.1094 318.309 12.9395 318.574 12.791C318.844 12.6426 319.131 12.5254 319.436 12.4395C319.744 12.3535 320.072 12.3105 320.42 12.3105C320.947 12.3105 321.402 12.4023 321.785 12.5859C322.168 12.7695 322.463 13.0312 322.67 13.3711C322.881 13.7109 322.986 14.1152 322.986 14.584C322.986 15.0371 322.896 15.459 322.717 15.8496C322.537 16.2363 322.285 16.6211 321.961 17.0039C321.637 17.3828 321.258 17.7852 320.824 18.2109L318.961 20.0684V20.1094H323.338V21ZM327.422 12.3105C327.918 12.3105 328.357 12.3887 328.74 12.5449C329.123 12.7012 329.422 12.9316 329.637 13.2363C329.855 13.5371 329.965 13.9082 329.965 14.3496C329.965 14.6973 329.889 15.002 329.736 15.2637C329.588 15.5215 329.387 15.748 329.133 15.9434C328.879 16.1348 328.598 16.3066 328.289 16.459C328.656 16.627 328.986 16.8164 329.279 17.0273C329.576 17.2383 329.811 17.4863 329.982 17.7715C330.154 18.0566 330.24 18.3945 330.24 18.7852C330.24 19.2656 330.123 19.6816 329.889 20.0332C329.658 20.3809 329.334 20.6484 328.916 20.8359C328.498 21.0234 328.008 21.1172 327.445 21.1172C326.84 21.1172 326.324 21.0273 325.898 20.8477C325.477 20.6641 325.154 20.4023 324.932 20.0625C324.713 19.7188 324.604 19.3066 324.604 18.8262C324.604 18.4316 324.688 18.0898 324.855 17.8008C325.023 17.5078 325.246 17.2559 325.523 17.0449C325.801 16.834 326.104 16.6562 326.432 16.5117C326.146 16.3555 325.885 16.1777 325.646 15.9785C325.412 15.7793 325.225 15.5469 325.084 15.2812C324.947 15.0117 324.879 14.6992 324.879 14.3438C324.879 13.9102 324.988 13.543 325.207 13.2422C325.43 12.9375 325.732 12.707 326.115 12.5508C326.502 12.3906 326.938 12.3105 327.422 12.3105ZM325.559 18.832C325.559 19.2695 325.713 19.6309 326.021 19.916C326.33 20.1973 326.797 20.3379 327.422 20.3379C328.016 20.3379 328.475 20.1973 328.799 19.916C329.123 19.6309 329.285 19.2578 329.285 18.7969C329.285 18.5117 329.211 18.2617 329.062 18.0469C328.914 17.8281 328.703 17.6328 328.43 17.4609C328.156 17.2891 327.834 17.1328 327.463 16.9922L327.252 16.916C326.893 17.0645 326.586 17.2305 326.332 17.4141C326.082 17.5938 325.891 17.7988 325.758 18.0293C325.625 18.2598 325.559 18.5273 325.559 18.832ZM327.41 13.1074C326.949 13.1074 326.572 13.2188 326.279 13.4414C325.986 13.6602 325.84 13.9766 325.84 14.3906C325.84 14.6875 325.91 14.9395 326.051 15.1465C326.195 15.3496 326.391 15.5254 326.637 15.6738C326.883 15.8184 327.158 15.9531 327.463 16.0781C327.76 15.9531 328.023 15.8164 328.254 15.668C328.484 15.5156 328.666 15.3359 328.799 15.1289C328.932 14.9219 328.998 14.6738 328.998 14.3848C328.998 13.9707 328.852 13.6543 328.559 13.4355C328.27 13.2168 327.887 13.1074 327.41 13.1074Z" fill="#696F8C"/>
<path d="M362 13L361.295 13.705L363.585 16L361.295 18.295L362 19L365 16L362 13Z" fill="#474D66"/>
<circle cx="108" cy="87" r="14.5" transform="rotate(-180 108 87)" fill="#101840" stroke="#101840"/>
<path d="M111.469 92H105.48V90.7402L107.631 88.5664C108.064 88.1211 108.412 87.75 108.674 87.4531C108.939 87.1523 109.131 86.8789 109.248 86.6328C109.369 86.3867 109.43 86.123 109.43 85.8418C109.43 85.502 109.334 85.248 109.143 85.0801C108.955 84.9082 108.703 84.8223 108.387 84.8223C108.055 84.8223 107.732 84.8984 107.42 85.0508C107.107 85.2031 106.781 85.4199 106.441 85.7012L105.457 84.5352C105.703 84.3242 105.963 84.125 106.236 83.9375C106.514 83.75 106.834 83.5996 107.197 83.4863C107.564 83.3691 108.004 83.3105 108.516 83.3105C109.078 83.3105 109.561 83.4121 109.963 83.6152C110.369 83.8184 110.682 84.0957 110.9 84.4473C111.119 84.7949 111.229 85.1895 111.229 85.6309C111.229 86.1035 111.135 86.5352 110.947 86.9258C110.76 87.3164 110.486 87.7031 110.127 88.0859C109.771 88.4688 109.342 88.8926 108.838 89.3574L107.736 90.3945V90.4766H111.469V92Z" fill="white"/>
<path d="M108 72V36" stroke="#101840" stroke-width="2"/>
<circle cx="108" cy="38" r="2.5" transform="rotate(-180 108 38)" fill="#101840" stroke="#101840"/>
<circle cx="286" cy="87" r="14.5" transform="rotate(-180 286 87)" fill="#101840" stroke="#101840"/>
<path d="M289.135 85.3496C289.135 85.7441 289.053 86.0859 288.889 86.375C288.725 86.6641 288.502 86.9004 288.221 87.084C287.943 87.2676 287.631 87.4023 287.283 87.4883V87.5234C287.971 87.6094 288.492 87.8203 288.848 88.1562C289.207 88.4922 289.387 88.9414 289.387 89.5039C289.387 90.0039 289.264 90.4512 289.018 90.8457C288.775 91.2402 288.4 91.5508 287.893 91.7773C287.385 92.0039 286.73 92.1172 285.93 92.1172C285.457 92.1172 285.016 92.0781 284.605 92C284.199 91.9258 283.816 91.8105 283.457 91.6543V90.1133C283.824 90.3008 284.209 90.4434 284.611 90.541C285.014 90.6348 285.389 90.6816 285.736 90.6816C286.385 90.6816 286.838 90.5703 287.096 90.3477C287.357 90.1211 287.488 89.8047 287.488 89.3984C287.488 89.1602 287.428 88.959 287.307 88.7949C287.186 88.6309 286.975 88.5059 286.674 88.4199C286.377 88.334 285.961 88.291 285.426 88.291H284.775V86.9023H285.438C285.965 86.9023 286.365 86.8535 286.639 86.7559C286.916 86.6543 287.104 86.5176 287.201 86.3457C287.303 86.1699 287.354 85.9707 287.354 85.748C287.354 85.4434 287.26 85.2051 287.072 85.0332C286.885 84.8613 286.572 84.7754 286.135 84.7754C285.861 84.7754 285.611 84.8105 285.385 84.8809C285.162 84.9473 284.961 85.0293 284.781 85.127C284.602 85.2207 284.443 85.3125 284.307 85.4023L283.469 84.1543C283.805 83.9121 284.197 83.7109 284.646 83.5508C285.1 83.3906 285.639 83.3105 286.264 83.3105C287.146 83.3105 287.846 83.4883 288.361 83.8438C288.877 84.1992 289.135 84.7012 289.135 85.3496Z" fill="white"/>
<path d="M286 72V36" stroke="#101840" stroke-width="2"/>
<circle cx="286" cy="38" r="2.5" transform="rotate(-180 286 38)" fill="#101840" stroke="#101840"/>
</svg>
