<svg width="280" height="136" viewBox="0 0 280 136" fill="none" xmlns="http://www.w3.org/2000/svg">
<g filter="url(#filter0_d_709_6528)">
<path d="M2 6C2 3.79086 3.79086 2 6 2H274C276.209 2 278 3.79086 278 6V130C278 132.209 276.209 134 274 134H6C3.79086 134 2 132.209 2 130V6Z" fill="white" shape-rendering="crispEdges"/>
<path d="M22.0059 125.721C22.0059 126.229 21.8789 126.662 21.625 127.021C21.375 127.377 21.0234 127.648 20.5703 127.836C20.1172 128.023 19.584 128.117 18.9707 128.117C18.6465 128.117 18.3398 128.102 18.0508 128.07C17.7617 128.039 17.4961 127.994 17.2539 127.936C17.0117 127.877 16.7988 127.805 16.6152 127.719V126.764C16.9082 126.885 17.2656 126.998 17.6875 127.104C18.1094 127.205 18.5508 127.256 19.0117 127.256C19.4414 127.256 19.8047 127.199 20.1016 127.086C20.3984 126.969 20.623 126.803 20.7754 126.588C20.9316 126.369 21.0098 126.107 21.0098 125.803C21.0098 125.51 20.9453 125.266 20.8164 125.07C20.6875 124.871 20.4727 124.691 20.1719 124.531C19.875 124.367 19.4688 124.193 18.9531 124.01C18.5898 123.881 18.2695 123.74 17.9922 123.588C17.7148 123.432 17.4824 123.256 17.2949 123.061C17.1074 122.865 16.9648 122.639 16.8672 122.381C16.7734 122.123 16.7266 121.828 16.7266 121.496C16.7266 121.039 16.8418 120.648 17.0723 120.324C17.3066 119.996 17.6289 119.746 18.0391 119.574C18.4531 119.398 18.9277 119.311 19.4629 119.311C19.9199 119.311 20.3418 119.354 20.7285 119.439C21.1191 119.525 21.4766 119.641 21.8008 119.785L21.4902 120.641C21.1816 120.512 20.8535 120.404 20.5059 120.318C20.1621 120.232 19.8066 120.189 19.4395 120.189C19.0723 120.189 18.7617 120.244 18.5078 120.354C18.2578 120.459 18.0664 120.609 17.9336 120.805C17.8008 121 17.7344 121.232 17.7344 121.502C17.7344 121.803 17.7969 122.053 17.9219 122.252C18.0508 122.451 18.2539 122.629 18.5312 122.785C18.8125 122.938 19.1836 123.098 19.6445 123.266C20.1484 123.449 20.5762 123.645 20.9277 123.852C21.2793 124.055 21.5469 124.305 21.7305 124.602C21.9141 124.895 22.0059 125.268 22.0059 125.721ZM25.6735 127.32C25.8337 127.32 25.9978 127.307 26.1657 127.279C26.3337 127.252 26.4704 127.219 26.5759 127.18V127.936C26.4626 127.986 26.3044 128.029 26.1013 128.064C25.9021 128.1 25.7067 128.117 25.5153 128.117C25.1755 128.117 24.8669 128.059 24.5896 127.941C24.3122 127.82 24.0896 127.617 23.9216 127.332C23.7575 127.047 23.6755 126.652 23.6755 126.148V122.34H22.7614V121.865L23.6814 121.484L24.0681 120.09H24.654V121.578H26.5349V122.34H24.654V126.119C24.654 126.521 24.7458 126.822 24.9294 127.021C25.1169 127.221 25.365 127.32 25.6735 127.32ZM26.851 121.578H27.894L29.3119 125.305C29.394 125.523 29.4701 125.734 29.5405 125.938C29.6108 126.137 29.6733 126.328 29.728 126.512C29.7826 126.695 29.8256 126.873 29.8569 127.045H29.8979C29.9526 126.85 30.0307 126.594 30.1322 126.277C30.2338 125.957 30.3432 125.631 30.4604 125.299L31.8022 121.578H32.851L30.0561 128.943C29.9076 129.338 29.7338 129.682 29.5346 129.975C29.3393 130.268 29.101 130.492 28.8197 130.648C28.5385 130.809 28.1987 130.889 27.8002 130.889C27.6166 130.889 27.4545 130.877 27.3139 130.854C27.1733 130.834 27.0522 130.811 26.9506 130.783V130.004C27.0365 130.023 27.1401 130.041 27.2612 130.057C27.3862 130.072 27.5151 130.08 27.6479 130.08C27.8901 130.08 28.099 130.033 28.2748 129.939C28.4545 129.85 28.6088 129.717 28.7377 129.541C28.8666 129.365 28.978 129.156 29.0717 128.914L29.4233 128.012L26.851 121.578ZM34.8429 128H33.8644V118.883H34.8429V128ZM39.3602 121.461C39.9071 121.461 40.3758 121.582 40.7665 121.824C41.1571 122.066 41.4559 122.406 41.6629 122.844C41.87 123.277 41.9735 123.785 41.9735 124.367V124.971H37.5379C37.5497 125.725 37.7372 126.299 38.1004 126.693C38.4637 127.088 38.9754 127.285 39.6356 127.285C40.0418 127.285 40.4012 127.248 40.7137 127.174C41.0262 127.1 41.3504 126.99 41.6864 126.846V127.701C41.3622 127.846 41.0399 127.951 40.7196 128.018C40.4032 128.084 40.0282 128.117 39.5946 128.117C38.9774 128.117 38.4383 127.992 37.9774 127.742C37.5204 127.488 37.1649 127.117 36.911 126.629C36.6571 126.141 36.5301 125.543 36.5301 124.836C36.5301 124.145 36.6454 123.547 36.8758 123.043C37.1102 122.535 37.4383 122.145 37.8602 121.871C38.286 121.598 38.786 121.461 39.3602 121.461ZM39.3485 122.258C38.829 122.258 38.4149 122.428 38.1063 122.768C37.7977 123.107 37.6141 123.582 37.5555 124.191H40.954C40.95 123.809 40.8895 123.473 40.7723 123.184C40.659 122.891 40.4852 122.664 40.2508 122.504C40.0165 122.34 39.7157 122.258 39.3485 122.258Z" fill="#3366FF"/>
<path d="M73.0059 125.721C73.0059 126.229 72.8789 126.662 72.625 127.021C72.375 127.377 72.0234 127.648 71.5703 127.836C71.1172 128.023 70.584 128.117 69.9707 128.117C69.6465 128.117 69.3398 128.102 69.0508 128.07C68.7617 128.039 68.4961 127.994 68.2539 127.936C68.0117 127.877 67.7988 127.805 67.6152 127.719V126.764C67.9082 126.885 68.2656 126.998 68.6875 127.104C69.1094 127.205 69.5508 127.256 70.0117 127.256C70.4414 127.256 70.8047 127.199 71.1016 127.086C71.3984 126.969 71.623 126.803 71.7754 126.588C71.9316 126.369 72.0098 126.107 72.0098 125.803C72.0098 125.51 71.9453 125.266 71.8164 125.07C71.6875 124.871 71.4727 124.691 71.1719 124.531C70.875 124.367 70.4688 124.193 69.9531 124.01C69.5898 123.881 69.2695 123.74 68.9922 123.588C68.7148 123.432 68.4824 123.256 68.2949 123.061C68.1074 122.865 67.9648 122.639 67.8672 122.381C67.7734 122.123 67.7266 121.828 67.7266 121.496C67.7266 121.039 67.8418 120.648 68.0723 120.324C68.3066 119.996 68.6289 119.746 69.0391 119.574C69.4531 119.398 69.9277 119.311 70.4629 119.311C70.9199 119.311 71.3418 119.354 71.7285 119.439C72.1191 119.525 72.4766 119.641 72.8008 119.785L72.4902 120.641C72.1816 120.512 71.8535 120.404 71.5059 120.318C71.1621 120.232 70.8066 120.189 70.4395 120.189C70.0723 120.189 69.7617 120.244 69.5078 120.354C69.2578 120.459 69.0664 120.609 68.9336 120.805C68.8008 121 68.7344 121.232 68.7344 121.502C68.7344 121.803 68.7969 122.053 68.9219 122.252C69.0508 122.451 69.2539 122.629 69.5312 122.785C69.8125 122.938 70.1836 123.098 70.6445 123.266C71.1484 123.449 71.5762 123.645 71.9277 123.852C72.2793 124.055 72.5469 124.305 72.7305 124.602C72.9141 124.895 73.0059 125.268 73.0059 125.721ZM76.6735 127.32C76.8337 127.32 76.9978 127.307 77.1657 127.279C77.3337 127.252 77.4704 127.219 77.5759 127.18V127.936C77.4626 127.986 77.3044 128.029 77.1013 128.064C76.9021 128.1 76.7067 128.117 76.5153 128.117C76.1755 128.117 75.8669 128.059 75.5896 127.941C75.3122 127.82 75.0896 127.617 74.9216 127.332C74.7575 127.047 74.6755 126.652 74.6755 126.148V122.34H73.7614V121.865L74.6814 121.484L75.0681 120.09H75.654V121.578H77.5349V122.34H75.654V126.119C75.654 126.521 75.7458 126.822 75.9294 127.021C76.1169 127.221 76.365 127.32 76.6735 127.32ZM77.851 121.578H78.894L80.3119 125.305C80.394 125.523 80.4701 125.734 80.5405 125.938C80.6108 126.137 80.6733 126.328 80.728 126.512C80.7826 126.695 80.8256 126.873 80.8569 127.045H80.8979C80.9526 126.85 81.0307 126.594 81.1322 126.277C81.2338 125.957 81.3432 125.631 81.4604 125.299L82.8022 121.578H83.851L81.0561 128.943C80.9076 129.338 80.7338 129.682 80.5346 129.975C80.3393 130.268 80.101 130.492 79.8197 130.648C79.5385 130.809 79.1987 130.889 78.8002 130.889C78.6166 130.889 78.4545 130.877 78.3139 130.854C78.1733 130.834 78.0522 130.811 77.9506 130.783V130.004C78.0365 130.023 78.1401 130.041 78.2612 130.057C78.3862 130.072 78.5151 130.08 78.6479 130.08C78.8901 130.08 79.099 130.033 79.2748 129.939C79.4545 129.85 79.6088 129.717 79.7377 129.541C79.8666 129.365 79.978 129.156 80.0717 128.914L80.4233 128.012L77.851 121.578ZM85.8429 128H84.8644V118.883H85.8429V128ZM90.3602 121.461C90.9071 121.461 91.3758 121.582 91.7665 121.824C92.1571 122.066 92.4559 122.406 92.6629 122.844C92.87 123.277 92.9735 123.785 92.9735 124.367V124.971H88.5379C88.5497 125.725 88.7372 126.299 89.1004 126.693C89.4637 127.088 89.9754 127.285 90.6356 127.285C91.0418 127.285 91.4012 127.248 91.7137 127.174C92.0262 127.1 92.3504 126.99 92.6864 126.846V127.701C92.3622 127.846 92.0399 127.951 91.7196 128.018C91.4032 128.084 91.0282 128.117 90.5946 128.117C89.9774 128.117 89.4383 127.992 88.9774 127.742C88.5204 127.488 88.1649 127.117 87.911 126.629C87.6571 126.141 87.5301 125.543 87.5301 124.836C87.5301 124.145 87.6454 123.547 87.8758 123.043C88.1102 122.535 88.4383 122.145 88.8602 121.871C89.286 121.598 89.786 121.461 90.3602 121.461ZM90.3485 122.258C89.829 122.258 89.4149 122.428 89.1063 122.768C88.7977 123.107 88.6141 123.582 88.5555 124.191H91.954C91.95 123.809 91.8895 123.473 91.7723 123.184C91.659 122.891 91.4852 122.664 91.2508 122.504C91.0165 122.34 90.7157 122.258 90.3485 122.258Z" fill="#3366FF"/>
<path d="M124.006 125.721C124.006 126.229 123.879 126.662 123.625 127.021C123.375 127.377 123.023 127.648 122.57 127.836C122.117 128.023 121.584 128.117 120.971 128.117C120.646 128.117 120.34 128.102 120.051 128.07C119.762 128.039 119.496 127.994 119.254 127.936C119.012 127.877 118.799 127.805 118.615 127.719V126.764C118.908 126.885 119.266 126.998 119.688 127.104C120.109 127.205 120.551 127.256 121.012 127.256C121.441 127.256 121.805 127.199 122.102 127.086C122.398 126.969 122.623 126.803 122.775 126.588C122.932 126.369 123.01 126.107 123.01 125.803C123.01 125.51 122.945 125.266 122.816 125.07C122.688 124.871 122.473 124.691 122.172 124.531C121.875 124.367 121.469 124.193 120.953 124.01C120.59 123.881 120.27 123.74 119.992 123.588C119.715 123.432 119.482 123.256 119.295 123.061C119.107 122.865 118.965 122.639 118.867 122.381C118.773 122.123 118.727 121.828 118.727 121.496C118.727 121.039 118.842 120.648 119.072 120.324C119.307 119.996 119.629 119.746 120.039 119.574C120.453 119.398 120.928 119.311 121.463 119.311C121.92 119.311 122.342 119.354 122.729 119.439C123.119 119.525 123.477 119.641 123.801 119.785L123.49 120.641C123.182 120.512 122.854 120.404 122.506 120.318C122.162 120.232 121.807 120.189 121.439 120.189C121.072 120.189 120.762 120.244 120.508 120.354C120.258 120.459 120.066 120.609 119.934 120.805C119.801 121 119.734 121.232 119.734 121.502C119.734 121.803 119.797 122.053 119.922 122.252C120.051 122.451 120.254 122.629 120.531 122.785C120.812 122.938 121.184 123.098 121.645 123.266C122.148 123.449 122.576 123.645 122.928 123.852C123.279 124.055 123.547 124.305 123.73 124.602C123.914 124.895 124.006 125.268 124.006 125.721ZM127.674 127.32C127.834 127.32 127.998 127.307 128.166 127.279C128.334 127.252 128.47 127.219 128.576 127.18V127.936C128.463 127.986 128.304 128.029 128.101 128.064C127.902 128.1 127.707 128.117 127.515 128.117C127.175 128.117 126.867 128.059 126.59 127.941C126.312 127.82 126.09 127.617 125.922 127.332C125.758 127.047 125.675 126.652 125.675 126.148V122.34H124.761V121.865L125.681 121.484L126.068 120.09H126.654V121.578H128.535V122.34H126.654V126.119C126.654 126.521 126.746 126.822 126.929 127.021C127.117 127.221 127.365 127.32 127.674 127.32ZM128.851 121.578H129.894L131.312 125.305C131.394 125.523 131.47 125.734 131.54 125.938C131.611 126.137 131.673 126.328 131.728 126.512C131.783 126.695 131.826 126.873 131.857 127.045H131.898C131.953 126.85 132.031 126.594 132.132 126.277C132.234 125.957 132.343 125.631 132.46 125.299L133.802 121.578H134.851L132.056 128.943C131.908 129.338 131.734 129.682 131.535 129.975C131.339 130.268 131.101 130.492 130.82 130.648C130.538 130.809 130.199 130.889 129.8 130.889C129.617 130.889 129.455 130.877 129.314 130.854C129.173 130.834 129.052 130.811 128.951 130.783V130.004C129.037 130.023 129.14 130.041 129.261 130.057C129.386 130.072 129.515 130.08 129.648 130.08C129.89 130.08 130.099 130.033 130.275 129.939C130.455 129.85 130.609 129.717 130.738 129.541C130.867 129.365 130.978 129.156 131.072 128.914L131.423 128.012L128.851 121.578ZM136.843 128H135.864V118.883H136.843V128ZM141.36 121.461C141.907 121.461 142.376 121.582 142.766 121.824C143.157 122.066 143.456 122.406 143.663 122.844C143.87 123.277 143.973 123.785 143.973 124.367V124.971H139.538C139.55 125.725 139.737 126.299 140.1 126.693C140.464 127.088 140.975 127.285 141.636 127.285C142.042 127.285 142.401 127.248 142.714 127.174C143.026 127.1 143.35 126.99 143.686 126.846V127.701C143.362 127.846 143.04 127.951 142.72 128.018C142.403 128.084 142.028 128.117 141.595 128.117C140.977 128.117 140.438 127.992 139.977 127.742C139.52 127.488 139.165 127.117 138.911 126.629C138.657 126.141 138.53 125.543 138.53 124.836C138.53 124.145 138.645 123.547 138.876 123.043C139.11 122.535 139.438 122.145 139.86 121.871C140.286 121.598 140.786 121.461 141.36 121.461ZM141.348 122.258C140.829 122.258 140.415 122.428 140.106 122.768C139.798 123.107 139.614 123.582 139.556 124.191H142.954C142.95 123.809 142.889 123.473 142.772 123.184C142.659 122.891 142.485 122.664 142.251 122.504C142.016 122.34 141.716 122.258 141.348 122.258Z" fill="#D8DAE5"/>
<path d="M118 124.145H144.6V124.438H118V124.145Z" fill="#D8DAE5"/>
<path d="M177.006 125.721C177.006 126.229 176.879 126.662 176.625 127.021C176.375 127.377 176.023 127.648 175.57 127.836C175.117 128.023 174.584 128.117 173.971 128.117C173.646 128.117 173.34 128.102 173.051 128.07C172.762 128.039 172.496 127.994 172.254 127.936C172.012 127.877 171.799 127.805 171.615 127.719V126.764C171.908 126.885 172.266 126.998 172.688 127.104C173.109 127.205 173.551 127.256 174.012 127.256C174.441 127.256 174.805 127.199 175.102 127.086C175.398 126.969 175.623 126.803 175.775 126.588C175.932 126.369 176.01 126.107 176.01 125.803C176.01 125.51 175.945 125.266 175.816 125.07C175.688 124.871 175.473 124.691 175.172 124.531C174.875 124.367 174.469 124.193 173.953 124.01C173.59 123.881 173.27 123.74 172.992 123.588C172.715 123.432 172.482 123.256 172.295 123.061C172.107 122.865 171.965 122.639 171.867 122.381C171.773 122.123 171.727 121.828 171.727 121.496C171.727 121.039 171.842 120.648 172.072 120.324C172.307 119.996 172.629 119.746 173.039 119.574C173.453 119.398 173.928 119.311 174.463 119.311C174.92 119.311 175.342 119.354 175.729 119.439C176.119 119.525 176.477 119.641 176.801 119.785L176.49 120.641C176.182 120.512 175.854 120.404 175.506 120.318C175.162 120.232 174.807 120.189 174.439 120.189C174.072 120.189 173.762 120.244 173.508 120.354C173.258 120.459 173.066 120.609 172.934 120.805C172.801 121 172.734 121.232 172.734 121.502C172.734 121.803 172.797 122.053 172.922 122.252C173.051 122.451 173.254 122.629 173.531 122.785C173.812 122.938 174.184 123.098 174.645 123.266C175.148 123.449 175.576 123.645 175.928 123.852C176.279 124.055 176.547 124.305 176.73 124.602C176.914 124.895 177.006 125.268 177.006 125.721ZM180.674 127.32C180.834 127.32 180.998 127.307 181.166 127.279C181.334 127.252 181.47 127.219 181.576 127.18V127.936C181.463 127.986 181.304 128.029 181.101 128.064C180.902 128.1 180.707 128.117 180.515 128.117C180.175 128.117 179.867 128.059 179.59 127.941C179.312 127.82 179.09 127.617 178.922 127.332C178.758 127.047 178.675 126.652 178.675 126.148V122.34H177.761V121.865L178.681 121.484L179.068 120.09H179.654V121.578H181.535V122.34H179.654V126.119C179.654 126.521 179.746 126.822 179.929 127.021C180.117 127.221 180.365 127.32 180.674 127.32ZM181.851 121.578H182.894L184.312 125.305C184.394 125.523 184.47 125.734 184.54 125.938C184.611 126.137 184.673 126.328 184.728 126.512C184.783 126.695 184.826 126.873 184.857 127.045H184.898C184.953 126.85 185.031 126.594 185.132 126.277C185.234 125.957 185.343 125.631 185.46 125.299L186.802 121.578H187.851L185.056 128.943C184.908 129.338 184.734 129.682 184.535 129.975C184.339 130.268 184.101 130.492 183.82 130.648C183.538 130.809 183.199 130.889 182.8 130.889C182.617 130.889 182.455 130.877 182.314 130.854C182.173 130.834 182.052 130.811 181.951 130.783V130.004C182.037 130.023 182.14 130.041 182.261 130.057C182.386 130.072 182.515 130.08 182.648 130.08C182.89 130.08 183.099 130.033 183.275 129.939C183.455 129.85 183.609 129.717 183.738 129.541C183.867 129.365 183.978 129.156 184.072 128.914L184.423 128.012L181.851 121.578ZM189.843 128H188.864V118.883H189.843V128ZM194.36 121.461C194.907 121.461 195.376 121.582 195.766 121.824C196.157 122.066 196.456 122.406 196.663 122.844C196.87 123.277 196.973 123.785 196.973 124.367V124.971H192.538C192.55 125.725 192.737 126.299 193.1 126.693C193.464 127.088 193.975 127.285 194.636 127.285C195.042 127.285 195.401 127.248 195.714 127.174C196.026 127.1 196.35 126.99 196.686 126.846V127.701C196.362 127.846 196.04 127.951 195.72 128.018C195.403 128.084 195.028 128.117 194.595 128.117C193.977 128.117 193.438 127.992 192.977 127.742C192.52 127.488 192.165 127.117 191.911 126.629C191.657 126.141 191.53 125.543 191.53 124.836C191.53 124.145 191.645 123.547 191.876 123.043C192.11 122.535 192.438 122.145 192.86 121.871C193.286 121.598 193.786 121.461 194.36 121.461ZM194.348 122.258C193.829 122.258 193.415 122.428 193.106 122.768C192.798 123.107 192.614 123.582 192.556 124.191H195.954C195.95 123.809 195.889 123.473 195.772 123.184C195.659 122.891 195.485 122.664 195.251 122.504C195.016 122.34 194.716 122.258 194.348 122.258Z" fill="#D8DAE5"/>
<path d="M171 124.145H197.6V124.438H171V124.145Z" fill="#D8DAE5"/>
<path d="M228.006 125.721C228.006 126.229 227.879 126.662 227.625 127.021C227.375 127.377 227.023 127.648 226.57 127.836C226.117 128.023 225.584 128.117 224.971 128.117C224.646 128.117 224.34 128.102 224.051 128.07C223.762 128.039 223.496 127.994 223.254 127.936C223.012 127.877 222.799 127.805 222.615 127.719V126.764C222.908 126.885 223.266 126.998 223.688 127.104C224.109 127.205 224.551 127.256 225.012 127.256C225.441 127.256 225.805 127.199 226.102 127.086C226.398 126.969 226.623 126.803 226.775 126.588C226.932 126.369 227.01 126.107 227.01 125.803C227.01 125.51 226.945 125.266 226.816 125.07C226.688 124.871 226.473 124.691 226.172 124.531C225.875 124.367 225.469 124.193 224.953 124.01C224.59 123.881 224.27 123.74 223.992 123.588C223.715 123.432 223.482 123.256 223.295 123.061C223.107 122.865 222.965 122.639 222.867 122.381C222.773 122.123 222.727 121.828 222.727 121.496C222.727 121.039 222.842 120.648 223.072 120.324C223.307 119.996 223.629 119.746 224.039 119.574C224.453 119.398 224.928 119.311 225.463 119.311C225.92 119.311 226.342 119.354 226.729 119.439C227.119 119.525 227.477 119.641 227.801 119.785L227.49 120.641C227.182 120.512 226.854 120.404 226.506 120.318C226.162 120.232 225.807 120.189 225.439 120.189C225.072 120.189 224.762 120.244 224.508 120.354C224.258 120.459 224.066 120.609 223.934 120.805C223.801 121 223.734 121.232 223.734 121.502C223.734 121.803 223.797 122.053 223.922 122.252C224.051 122.451 224.254 122.629 224.531 122.785C224.812 122.938 225.184 123.098 225.645 123.266C226.148 123.449 226.576 123.645 226.928 123.852C227.279 124.055 227.547 124.305 227.73 124.602C227.914 124.895 228.006 125.268 228.006 125.721ZM231.674 127.32C231.834 127.32 231.998 127.307 232.166 127.279C232.334 127.252 232.47 127.219 232.576 127.18V127.936C232.463 127.986 232.304 128.029 232.101 128.064C231.902 128.1 231.707 128.117 231.515 128.117C231.175 128.117 230.867 128.059 230.59 127.941C230.312 127.82 230.09 127.617 229.922 127.332C229.758 127.047 229.675 126.652 229.675 126.148V122.34H228.761V121.865L229.681 121.484L230.068 120.09H230.654V121.578H232.535V122.34H230.654V126.119C230.654 126.521 230.746 126.822 230.929 127.021C231.117 127.221 231.365 127.32 231.674 127.32ZM232.851 121.578H233.894L235.312 125.305C235.394 125.523 235.47 125.734 235.54 125.938C235.611 126.137 235.673 126.328 235.728 126.512C235.783 126.695 235.826 126.873 235.857 127.045H235.898C235.953 126.85 236.031 126.594 236.132 126.277C236.234 125.957 236.343 125.631 236.46 125.299L237.802 121.578H238.851L236.056 128.943C235.908 129.338 235.734 129.682 235.535 129.975C235.339 130.268 235.101 130.492 234.82 130.648C234.538 130.809 234.199 130.889 233.8 130.889C233.617 130.889 233.455 130.877 233.314 130.854C233.173 130.834 233.052 130.811 232.951 130.783V130.004C233.037 130.023 233.14 130.041 233.261 130.057C233.386 130.072 233.515 130.08 233.648 130.08C233.89 130.08 234.099 130.033 234.275 129.939C234.455 129.85 234.609 129.717 234.738 129.541C234.867 129.365 234.978 129.156 235.072 128.914L235.423 128.012L232.851 121.578ZM240.843 128H239.864V118.883H240.843V128ZM245.36 121.461C245.907 121.461 246.376 121.582 246.766 121.824C247.157 122.066 247.456 122.406 247.663 122.844C247.87 123.277 247.973 123.785 247.973 124.367V124.971H243.538C243.55 125.725 243.737 126.299 244.1 126.693C244.464 127.088 244.975 127.285 245.636 127.285C246.042 127.285 246.401 127.248 246.714 127.174C247.026 127.1 247.35 126.99 247.686 126.846V127.701C247.362 127.846 247.04 127.951 246.72 128.018C246.403 128.084 246.028 128.117 245.595 128.117C244.977 128.117 244.438 127.992 243.977 127.742C243.52 127.488 243.165 127.117 242.911 126.629C242.657 126.141 242.53 125.543 242.53 124.836C242.53 124.145 242.645 123.547 242.876 123.043C243.11 122.535 243.438 122.145 243.86 121.871C244.286 121.598 244.786 121.461 245.36 121.461ZM245.348 122.258C244.829 122.258 244.415 122.428 244.106 122.768C243.798 123.107 243.614 123.582 243.556 124.191H246.954C246.95 123.809 246.889 123.473 246.772 123.184C246.659 122.891 246.485 122.664 246.251 122.504C246.016 122.34 245.716 122.258 245.348 122.258Z" fill="#3366FF"/>
<line x1="2" y1="113.875" x2="278" y2="113.875" stroke="#D8DAE5" stroke-width="0.25"/>
<path d="M21.9933 91.334C18.3133 91.334 15.3333 94.3207 15.3333 98.0007C15.3333 101.681 18.3133 104.667 21.9933 104.667C25.68 104.667 28.6666 101.681 28.6666 98.0007C28.6666 94.3207 25.68 91.334 21.9933 91.334ZM22 103.334C19.0533 103.334 16.6666 100.947 16.6666 98.0007C16.6666 95.054 19.0533 92.6673 22 92.6673C24.9466 92.6673 27.3333 95.054 27.3333 98.0007C27.3333 100.947 24.9466 103.334 22 103.334ZM22.3333 94.6673H21.3333V98.6673L24.8333 100.767L25.3333 99.9473L22.3333 98.1673V94.6673Z" fill="#696F8C"/>
<path d="M37.4219 94.3105C37.918 94.3105 38.3574 94.3887 38.7402 94.5449C39.123 94.7012 39.4219 94.9316 39.6367 95.2363C39.8555 95.5371 39.9648 95.9082 39.9648 96.3496C39.9648 96.6973 39.8887 97.002 39.7363 97.2637C39.5879 97.5215 39.3867 97.748 39.1328 97.9434C38.8789 98.1348 38.5977 98.3066 38.2891 98.459C38.6562 98.627 38.9863 98.8164 39.2793 99.0273C39.5762 99.2383 39.8105 99.4863 39.9824 99.7715C40.1543 100.057 40.2402 100.395 40.2402 100.785C40.2402 101.266 40.123 101.682 39.8887 102.033C39.6582 102.381 39.334 102.648 38.916 102.836C38.498 103.023 38.0078 103.117 37.4453 103.117C36.8398 103.117 36.3242 103.027 35.8984 102.848C35.4766 102.664 35.1543 102.402 34.9316 102.062C34.7129 101.719 34.6035 101.307 34.6035 100.826C34.6035 100.432 34.6875 100.09 34.8555 99.8008C35.0234 99.5078 35.2461 99.2559 35.5234 99.0449C35.8008 98.834 36.1035 98.6562 36.4316 98.5117C36.1465 98.3555 35.8848 98.1777 35.6465 97.9785C35.4121 97.7793 35.2246 97.5469 35.084 97.2812C34.9473 97.0117 34.8789 96.6992 34.8789 96.3438C34.8789 95.9102 34.9883 95.543 35.207 95.2422C35.4297 94.9375 35.7324 94.707 36.1152 94.5508C36.502 94.3906 36.9375 94.3105 37.4219 94.3105ZM35.5586 100.832C35.5586 101.27 35.7129 101.631 36.0215 101.916C36.3301 102.197 36.7969 102.338 37.4219 102.338C38.0156 102.338 38.4746 102.197 38.7988 101.916C39.123 101.631 39.2852 101.258 39.2852 100.797C39.2852 100.512 39.2109 100.262 39.0625 100.047C38.9141 99.8281 38.7031 99.6328 38.4297 99.4609C38.1562 99.2891 37.834 99.1328 37.4629 98.9922L37.252 98.916C36.8926 99.0645 36.5859 99.2305 36.332 99.4141C36.082 99.5938 35.8906 99.7988 35.7578 100.029C35.625 100.26 35.5586 100.527 35.5586 100.832ZM37.4102 95.1074C36.9492 95.1074 36.5723 95.2188 36.2793 95.4414C35.9863 95.6602 35.8398 95.9766 35.8398 96.3906C35.8398 96.6875 35.9102 96.9395 36.0508 97.1465C36.1953 97.3496 36.3906 97.5254 36.6367 97.6738C36.8828 97.8184 37.1582 97.9531 37.4629 98.0781C37.7598 97.9531 38.0234 97.8164 38.2539 97.668C38.4844 97.5156 38.666 97.3359 38.7988 97.1289C38.9316 96.9219 38.998 96.6738 38.998 96.3848C38.998 95.9707 38.8516 95.6543 38.5586 95.4355C38.2695 95.2168 37.8867 95.1074 37.4102 95.1074ZM50.5053 103L49.4506 100.281H46.017L44.9682 103H43.9604L47.3119 94.3984H48.2084L51.5365 103H50.5053ZM49.1518 99.3965L48.1498 96.6953C48.1264 96.625 48.0873 96.5098 48.0326 96.3496C47.9819 96.1895 47.9291 96.0234 47.8744 95.8516C47.8197 95.6797 47.7748 95.541 47.7397 95.4355C47.7006 95.5957 47.6576 95.7559 47.6108 95.916C47.5678 96.0723 47.5248 96.2188 47.4819 96.3555C47.4389 96.4883 47.4018 96.6016 47.3705 96.6953L46.351 99.3965H49.1518ZM56.4816 103L53.6046 95.418H53.5578C53.5734 95.5781 53.587 95.7734 53.5988 96.0039C53.6105 96.2344 53.6203 96.4863 53.6281 96.7598C53.6359 97.0293 53.6398 97.3047 53.6398 97.5859V103H52.714V94.4336H54.1906L56.9035 101.559H56.9445L59.6984 94.4336H61.1632V103H60.1788V97.5156C60.1788 97.2617 60.1828 97.0078 60.1906 96.7539C60.1984 96.4961 60.2081 96.2539 60.2199 96.0273C60.2316 95.7969 60.2433 95.5977 60.255 95.4297H60.2081L57.296 103H56.4816ZM65.9088 100.211V99.3438H68.815V100.211H65.9088ZM73.0683 99.3379C73.0683 98.8223 73.1035 98.3184 73.1738 97.8262C73.248 97.334 73.3711 96.877 73.543 96.4551C73.7148 96.0293 73.9492 95.6562 74.2461 95.3359C74.543 95.0156 74.9121 94.7656 75.3535 94.5859C75.7988 94.4023 76.332 94.3105 76.9531 94.3105C77.1289 94.3105 77.3183 94.3203 77.5215 94.3398C77.7246 94.3555 77.8926 94.3828 78.0254 94.4219V95.2598C77.8808 95.209 77.7148 95.1719 77.5273 95.1484C77.3437 95.125 77.1582 95.1133 76.9707 95.1133C76.2441 95.1133 75.6719 95.2715 75.2539 95.5879C74.8398 95.9043 74.541 96.334 74.3574 96.877C74.1738 97.416 74.0683 98.0234 74.041 98.6992H74.1055C74.2265 98.5039 74.3808 98.3281 74.5683 98.1719C74.7558 98.0117 74.9824 97.8848 75.248 97.791C75.5176 97.6973 75.8301 97.6504 76.1855 97.6504C76.6855 97.6504 77.1211 97.752 77.4922 97.9551C77.8672 98.1582 78.1562 98.4531 78.3594 98.8398C78.5664 99.2266 78.6699 99.6953 78.6699 100.246C78.6699 100.836 78.5605 101.346 78.3418 101.775C78.123 102.205 77.8105 102.537 77.4043 102.771C77.0019 103.002 76.5215 103.117 75.9629 103.117C75.5449 103.117 75.1601 103.037 74.8086 102.877C74.457 102.717 74.1504 102.479 73.8887 102.162C73.6308 101.846 73.4297 101.453 73.2851 100.984C73.1406 100.512 73.0683 99.9629 73.0683 99.3379ZM75.9512 102.297C76.4824 102.297 76.9082 102.127 77.2285 101.787C77.5488 101.447 77.709 100.934 77.709 100.246C77.709 99.6836 77.5664 99.2383 77.2812 98.9102C76.9961 98.582 76.5664 98.418 75.9922 98.418C75.6015 98.418 75.2617 98.5 74.9726 98.6641C74.6836 98.8242 74.459 99.0273 74.2988 99.2734C74.1387 99.5195 74.0586 99.7695 74.0586 100.023C74.0586 100.281 74.0957 100.543 74.1699 100.809C74.248 101.074 74.3652 101.32 74.5215 101.547C74.6777 101.773 74.875 101.955 75.1133 102.092C75.3515 102.229 75.6308 102.297 75.9512 102.297ZM85.7592 94.4336C86.8647 94.4336 87.6713 94.6504 88.1791 95.084C88.6908 95.5137 88.9467 96.1309 88.9467 96.9355C88.9467 97.2988 88.8861 97.6445 88.765 97.9727C88.6479 98.2969 88.4565 98.584 88.1908 98.834C87.9252 99.0801 87.5756 99.2754 87.142 99.4199C86.7123 99.5605 86.185 99.6309 85.56 99.6309H84.517V103H83.5209V94.4336H85.7592ZM85.6654 95.2832H84.517V98.7754H85.4486C85.9955 98.7754 86.4506 98.7168 86.8139 98.5996C87.1811 98.4824 87.4565 98.293 87.64 98.0312C87.8236 97.7656 87.9154 97.4141 87.9154 96.9766C87.9154 96.4062 87.7338 95.9824 87.3705 95.7051C87.0072 95.4238 86.4389 95.2832 85.6654 95.2832ZM94.4952 103L91.6183 95.418H91.5714C91.587 95.5781 91.6007 95.7734 91.6124 96.0039C91.6241 96.2344 91.6339 96.4863 91.6417 96.7598C91.6495 97.0293 91.6534 97.3047 91.6534 97.5859V103H90.7277V94.4336H92.2042L94.9171 101.559H94.9581L97.712 94.4336H99.1769V103H98.1925V97.5156C98.1925 97.2617 98.1964 97.0078 98.2042 96.7539C98.212 96.4961 98.2218 96.2539 98.2335 96.0273C98.2452 95.7969 98.257 95.5977 98.2687 95.4297H98.2218L95.3097 103H94.4952Z" fill="#696F8C"/>
<path d="M40.252 74.7051C40.252 75.4004 40.1992 76.0215 40.0938 76.5684C39.9883 77.1152 39.8223 77.5781 39.5957 77.957C39.3691 78.3359 39.0762 78.625 38.7168 78.8242C38.3574 79.0195 37.9258 79.1172 37.4219 79.1172C36.7852 79.1172 36.2578 78.9434 35.8398 78.5957C35.4258 78.248 35.1152 77.7461 34.9082 77.0898C34.7051 76.4297 34.6035 75.6348 34.6035 74.7051C34.6035 73.791 34.6953 73.0059 34.8789 72.3496C35.0664 71.6895 35.3672 71.1836 35.7812 70.832C36.1953 70.4766 36.7422 70.2988 37.4219 70.2988C38.0664 70.2988 38.5977 70.4746 39.0156 70.8262C39.4336 71.1738 39.7441 71.6777 39.9473 72.3379C40.1504 72.9941 40.252 73.7832 40.252 74.7051ZM35.582 74.7051C35.582 75.502 35.6426 76.166 35.7637 76.6973C35.8848 77.2285 36.0801 77.627 36.3496 77.8926C36.623 78.1543 36.9805 78.2852 37.4219 78.2852C37.8633 78.2852 38.2188 78.1543 38.4883 77.8926C38.7617 77.6309 38.959 77.2344 39.0801 76.7031C39.2051 76.1719 39.2676 75.5059 39.2676 74.7051C39.2676 73.9199 39.207 73.2637 39.0859 72.7363C38.9648 72.2051 38.7695 71.8066 38.5 71.541C38.2305 71.2715 37.8711 71.1367 37.4219 71.1367C36.9727 71.1367 36.6133 71.2715 36.3438 71.541C36.0742 71.8066 35.8789 72.2051 35.7578 72.7363C35.6406 73.2637 35.582 73.9199 35.582 74.7051ZM47.488 77.0137H46.2048V79H45.2556V77.0137H41.113V76.1934L45.1911 70.3867H46.2048V76.1348H47.488V77.0137ZM45.2556 76.1348V73.334C45.2556 73.1191 45.2575 72.9258 45.2614 72.7539C45.2653 72.5781 45.2712 72.416 45.279 72.2676C45.2868 72.1152 45.2927 71.9707 45.2966 71.834C45.3044 71.6973 45.3103 71.5625 45.3142 71.4297H45.2673C45.1931 71.5859 45.1071 71.752 45.0095 71.9277C44.9157 72.0996 44.82 72.2539 44.7224 72.3906L42.0798 76.1348H45.2556ZM51.9819 70.4336L48.7944 79H47.8334L51.0268 70.4336H51.9819ZM58.3566 74.7051C58.3566 75.4004 58.3038 76.0215 58.1984 76.5684C58.0929 77.1152 57.9269 77.5781 57.7003 77.957C57.4738 78.3359 57.1808 78.625 56.8214 78.8242C56.462 79.0195 56.0304 79.1172 55.5265 79.1172C54.8898 79.1172 54.3624 78.9434 53.9445 78.5957C53.5304 78.248 53.2199 77.7461 53.0128 77.0898C52.8097 76.4297 52.7081 75.6348 52.7081 74.7051C52.7081 73.791 52.7999 73.0059 52.9835 72.3496C53.171 71.6895 53.4718 71.1836 53.8859 70.832C54.2999 70.4766 54.8468 70.2988 55.5265 70.2988C56.171 70.2988 56.7023 70.4746 57.1203 70.8262C57.5382 71.1738 57.8488 71.6777 58.0519 72.3379C58.255 72.9941 58.3566 73.7832 58.3566 74.7051ZM53.6867 74.7051C53.6867 75.502 53.7472 76.166 53.8683 76.6973C53.9894 77.2285 54.1847 77.627 54.4542 77.8926C54.7277 78.1543 55.0851 78.2852 55.5265 78.2852C55.9679 78.2852 56.3234 78.1543 56.5929 77.8926C56.8663 77.6309 57.0636 77.2344 57.1847 76.7031C57.3097 76.1719 57.3722 75.5059 57.3722 74.7051C57.3722 73.9199 57.3117 73.2637 57.1906 72.7363C57.0695 72.2051 56.8742 71.8066 56.6046 71.541C56.3351 71.2715 55.9757 71.1367 55.5265 71.1367C55.0773 71.1367 54.7179 71.2715 54.4484 71.541C54.1788 71.8066 53.9835 72.2051 53.8624 72.7363C53.7453 73.2637 53.6867 73.9199 53.6867 74.7051ZM65.1649 79H59.5516V78.1855L61.8426 75.8594C62.2684 75.4297 62.6258 75.0469 62.9149 74.7109C63.2079 74.375 63.4305 74.0449 63.5829 73.7207C63.7352 73.3926 63.8114 73.0332 63.8114 72.6426C63.8114 72.1582 63.6668 71.7891 63.3778 71.5352C63.0926 71.2773 62.7157 71.1484 62.2469 71.1484C61.8368 71.1484 61.4735 71.2188 61.1571 71.3594C60.8407 71.5 60.5165 71.6992 60.1844 71.957L59.6629 71.3008C59.8895 71.1094 60.1356 70.9395 60.4012 70.791C60.6707 70.6426 60.9579 70.5254 61.2625 70.4395C61.5711 70.3535 61.8993 70.3105 62.2469 70.3105C62.7743 70.3105 63.2293 70.4023 63.6122 70.5859C63.995 70.7695 64.2899 71.0312 64.4969 71.3711C64.7079 71.7109 64.8133 72.1152 64.8133 72.584C64.8133 73.0371 64.7235 73.459 64.5438 73.8496C64.3641 74.2363 64.1122 74.6211 63.7879 75.0039C63.4637 75.3828 63.0848 75.7852 62.6512 76.2109L60.7879 78.0684V78.1094H65.1649V79ZM70.0865 70.4336L66.899 79H65.938L69.1314 70.4336H70.0865ZM76.4143 79H70.801V78.1855L73.0921 75.8594C73.5178 75.4297 73.8753 75.0469 74.1643 74.7109C74.4573 74.375 74.68 74.0449 74.8323 73.7207C74.9846 73.3926 75.0608 73.0332 75.0608 72.6426C75.0608 72.1582 74.9163 71.7891 74.6272 71.5352C74.3421 71.2773 73.9651 71.1484 73.4964 71.1484C73.0862 71.1484 72.7229 71.2188 72.4065 71.3594C72.0901 71.5 71.7659 71.6992 71.4339 71.957L70.9124 71.3008C71.1389 71.1094 71.385 70.9395 71.6507 70.791C71.9202 70.6426 72.2073 70.5254 72.512 70.4395C72.8206 70.3535 73.1487 70.3105 73.4964 70.3105C74.0237 70.3105 74.4788 70.4023 74.8616 70.5859C75.2444 70.7695 75.5393 71.0312 75.7464 71.3711C75.9573 71.7109 76.0628 72.1152 76.0628 72.584C76.0628 73.0371 75.9729 73.459 75.7932 73.8496C75.6135 74.2363 75.3616 74.6211 75.0374 75.0039C74.7132 75.3828 74.3343 75.7852 73.9007 76.2109L72.0374 78.0684V78.1094H76.4143V79ZM83.2695 79H77.6562V78.1855L79.9473 75.8594C80.373 75.4297 80.7305 75.0469 81.0195 74.7109C81.3125 74.375 81.5351 74.0449 81.6875 73.7207C81.8398 73.3926 81.916 73.0332 81.916 72.6426C81.916 72.1582 81.7715 71.7891 81.4824 71.5352C81.1973 71.2773 80.8203 71.1484 80.3515 71.1484C79.9414 71.1484 79.5781 71.2188 79.2617 71.3594C78.9453 71.5 78.6211 71.6992 78.289 71.957L77.7676 71.3008C77.9941 71.1094 78.2402 70.9395 78.5058 70.791C78.7754 70.6426 79.0625 70.5254 79.3672 70.4395C79.6758 70.3535 80.0039 70.3105 80.3515 70.3105C80.8789 70.3105 81.334 70.4023 81.7168 70.5859C82.0996 70.7695 82.3945 71.0312 82.6015 71.3711C82.8125 71.7109 82.918 72.1152 82.918 72.584C82.918 73.0371 82.8281 73.459 82.6484 73.8496C82.4687 74.2363 82.2168 74.6211 81.8926 75.0039C81.5683 75.3828 81.1894 75.7852 80.7558 76.2109L78.8926 78.0684V78.1094H83.2695V79ZM87.5053 76.2109V75.3438H90.4115V76.2109H87.5053ZM99.8739 72.4316C99.8739 72.8145 99.7996 73.1465 99.6512 73.4277C99.5028 73.709 99.2957 73.9395 99.0301 74.1191C98.7645 74.2949 98.452 74.418 98.0926 74.4883V74.5352C98.7723 74.6211 99.2821 74.8398 99.6219 75.1914C99.9657 75.543 100.138 76.0039 100.138 76.5742C100.138 77.0703 100.02 77.5098 99.786 77.8926C99.5555 78.2754 99.2 78.5762 98.7196 78.7949C98.243 79.0098 97.6317 79.1172 96.8856 79.1172C96.4325 79.1172 96.0125 79.0801 95.6258 79.0059C95.243 78.9355 94.8758 78.8164 94.5243 78.6484V77.7344C94.8797 77.9102 95.2664 78.0488 95.6844 78.1504C96.1024 78.248 96.5067 78.2969 96.8973 78.2969C97.6785 78.2969 98.243 78.1426 98.5907 77.834C98.9383 77.5215 99.1121 77.0957 99.1121 76.5566C99.1121 76.1855 99.0145 75.8867 98.8192 75.6602C98.6278 75.4297 98.3504 75.2617 97.9871 75.1562C97.6278 75.0469 97.1942 74.9922 96.6864 74.9922H95.8309V74.1602H96.6922C97.1571 74.1602 97.5516 74.0918 97.8758 73.9551C98.2 73.8184 98.4461 73.627 98.6141 73.3809C98.786 73.1309 98.8719 72.8359 98.8719 72.4961C98.8719 72.0625 98.7274 71.7285 98.4383 71.4941C98.1493 71.2559 97.7567 71.1367 97.2606 71.1367C96.9559 71.1367 96.6785 71.168 96.4285 71.2305C96.1785 71.293 95.9442 71.3789 95.7254 71.4883C95.5067 71.5977 95.2879 71.7246 95.0692 71.8691L94.577 71.2012C94.8895 70.959 95.2703 70.75 95.7196 70.5742C96.1688 70.3984 96.6785 70.3105 97.2489 70.3105C98.1239 70.3105 98.7801 70.5098 99.2176 70.9082C99.6551 71.3066 99.8739 71.8145 99.8739 72.4316ZM107.092 74.7051C107.092 75.4004 107.04 76.0215 106.934 76.5684C106.829 77.1152 106.663 77.5781 106.436 77.957C106.21 78.3359 105.917 78.625 105.557 78.8242C105.198 79.0195 104.766 79.1172 104.262 79.1172C103.626 79.1172 103.098 78.9434 102.68 78.5957C102.266 78.248 101.956 77.7461 101.749 77.0898C101.545 76.4297 101.444 75.6348 101.444 74.7051C101.444 73.791 101.536 73.0059 101.719 72.3496C101.907 71.6895 102.208 71.1836 102.622 70.832C103.036 70.4766 103.583 70.2988 104.262 70.2988C104.907 70.2988 105.438 70.4746 105.856 70.8262C106.274 71.1738 106.585 71.6777 106.788 72.3379C106.991 72.9941 107.092 73.7832 107.092 74.7051ZM102.422 74.7051C102.422 75.502 102.483 76.166 102.604 76.6973C102.725 77.2285 102.92 77.627 103.19 77.8926C103.463 78.1543 103.821 78.2852 104.262 78.2852C104.704 78.2852 105.059 78.1543 105.329 77.8926C105.602 77.6309 105.799 77.2344 105.92 76.7031C106.045 76.1719 106.108 75.5059 106.108 74.7051C106.108 73.9199 106.047 73.2637 105.926 72.7363C105.805 72.2051 105.61 71.8066 105.34 71.541C105.071 71.2715 104.711 71.1367 104.262 71.1367C103.813 71.1367 103.454 71.2715 103.184 71.541C102.915 71.8066 102.719 72.2051 102.598 72.7363C102.481 73.2637 102.422 73.9199 102.422 74.7051ZM111.967 70.4336L108.78 79H107.819L111.012 70.4336H111.967ZM116.303 79H115.353V72.9297C115.353 72.6992 115.353 72.502 115.353 72.3379C115.357 72.1699 115.361 72.0176 115.365 71.8809C115.373 71.7402 115.383 71.5977 115.395 71.4531C115.273 71.5781 115.16 71.6855 115.055 71.7754C114.949 71.8613 114.818 71.9688 114.662 72.0977L113.684 72.8828L113.174 72.2207L115.494 70.4336H116.303V79ZM125.15 79H119.537V78.1855L121.828 75.8594C122.254 75.4297 122.611 75.0469 122.9 74.7109C123.193 74.375 123.416 74.0449 123.568 73.7207C123.72 73.3926 123.797 73.0332 123.797 72.6426C123.797 72.1582 123.652 71.7891 123.363 71.5352C123.078 71.2773 122.701 71.1484 122.232 71.1484C121.822 71.1484 121.459 71.2188 121.142 71.3594C120.826 71.5 120.502 71.6992 120.17 71.957L119.648 71.3008C119.875 71.1094 120.121 70.9395 120.386 70.791C120.656 70.6426 120.943 70.5254 121.248 70.4395C121.556 70.3535 121.884 70.3105 122.232 70.3105C122.759 70.3105 123.215 70.4023 123.597 70.5859C123.98 70.7695 124.275 71.0312 124.482 71.3711C124.693 71.7109 124.799 72.1152 124.799 72.584C124.799 73.0371 124.709 73.459 124.529 73.8496C124.349 74.2363 124.097 74.6211 123.773 75.0039C123.449 75.3828 123.07 75.7852 122.636 76.2109L120.773 78.0684V78.1094H125.15V79ZM130.072 70.4336L126.884 79H125.923L129.117 70.4336H130.072ZM136.4 79H130.786V78.1855L133.077 75.8594C133.503 75.4297 133.86 75.0469 134.15 74.7109C134.442 74.375 134.665 74.0449 134.817 73.7207C134.97 73.3926 135.046 73.0332 135.046 72.6426C135.046 72.1582 134.901 71.7891 134.612 71.5352C134.327 71.2773 133.95 71.1484 133.482 71.1484C133.071 71.1484 132.708 71.2188 132.392 71.3594C132.075 71.5 131.751 71.6992 131.419 71.957L130.898 71.3008C131.124 71.1094 131.37 70.9395 131.636 70.791C131.905 70.6426 132.192 70.5254 132.497 70.4395C132.806 70.3535 133.134 70.3105 133.482 70.3105C134.009 70.3105 134.464 70.4023 134.847 70.5859C135.23 70.7695 135.525 71.0312 135.732 71.3711C135.942 71.7109 136.048 72.1152 136.048 72.584C136.048 73.0371 135.958 73.459 135.778 73.8496C135.599 74.2363 135.347 74.6211 135.023 75.0039C134.698 75.3828 134.319 75.7852 133.886 76.2109L132.023 78.0684V78.1094H136.4V79ZM143.255 79H137.641V78.1855L139.932 75.8594C140.358 75.4297 140.716 75.0469 141.005 74.7109C141.298 74.375 141.52 74.0449 141.673 73.7207C141.825 73.3926 141.901 73.0332 141.901 72.6426C141.901 72.1582 141.757 71.7891 141.468 71.5352C141.182 71.2773 140.805 71.1484 140.337 71.1484C139.927 71.1484 139.563 71.2188 139.247 71.3594C138.93 71.5 138.606 71.6992 138.274 71.957L137.753 71.3008C137.979 71.1094 138.225 70.9395 138.491 70.791C138.761 70.6426 139.048 70.5254 139.352 70.4395C139.661 70.3535 139.989 70.3105 140.337 70.3105C140.864 70.3105 141.319 70.4023 141.702 70.5859C142.085 70.7695 142.38 71.0312 142.587 71.3711C142.798 71.7109 142.903 72.1152 142.903 72.584C142.903 73.0371 142.813 73.459 142.634 73.8496C142.454 74.2363 142.202 74.6211 141.878 75.0039C141.554 75.3828 141.175 75.7852 140.741 76.2109L138.878 78.0684V78.1094H143.255V79Z" fill="#696F8C"/>
<path d="M26.6667 68.6673H26V67.334H24.6667V68.6673H19.3333V67.334H18V68.6673H17.3333C16.5933 68.6673 16.0067 69.2673 16.0067 70.0007L16 79.334C16 80.0673 16.5933 80.6673 17.3333 80.6673H26.6667C27.4 80.6673 28 80.0673 28 79.334V70.0007C28 69.2673 27.4 68.6673 26.6667 68.6673ZM26.6667 79.334H17.3333V72.6673H26.6667V79.334ZM26.6667 71.334H17.3333V70.0007H26.6667V71.334ZM22 74.6673H25.3333V78.0007H22V74.6673Z" fill="#696F8C"/>
<path d="M6 134C3.79086 134 2 132.209 2 130L1.99999 6C1.99999 3.79086 3.79085 2 5.99999 2L7 2L7.00001 134L6 134Z" fill="#3366FF"/>
<rect x="85" y="14" width="27" height="16" rx="8" fill="#3366FF"/>
<path d="M95.0664 22.1309H97.334V23.4141H95.0664V25.6699H93.7832V23.4141H91.5156V22.1309H93.7832V19.8457H95.0664V22.1309ZM102.812 27H101.002V22.043C101.002 21.9062 101.004 21.7383 101.008 21.5391C101.011 21.3359 101.017 21.1289 101.025 20.918C101.033 20.7031 101.041 20.5098 101.049 20.3379C101.006 20.3887 100.918 20.4766 100.785 20.6016C100.656 20.7227 100.535 20.832 100.422 20.9297L99.4372 21.7207L98.5642 20.6309L101.324 18.4336H102.812V27Z" fill="white"/>
<path d="M35.125 55V46.4336H36.5312V53.8047H40.1699V55H35.125ZM51.9468 55L49.48 47.8457H49.4273C49.439 48.0059 49.4527 48.2246 49.4683 48.502C49.4839 48.7793 49.4976 49.0762 49.5093 49.3926C49.521 49.709 49.5269 50.0117 49.5269 50.3008V55H48.2495V46.4336H50.2241L52.5972 53.2715H52.6323L55.0874 46.4336H57.0562V55H55.7144V50.2305C55.7144 49.9688 55.7183 49.6855 55.7261 49.3809C55.7378 49.0762 55.7495 48.7871 55.7612 48.5137C55.7769 48.2402 55.7886 48.0215 55.7964 47.8574H55.7495L53.189 55H51.9468ZM82.5025 57.3848C82.2877 57.3848 82.1002 57.3711 81.94 57.3438C81.7759 57.3203 81.6353 57.2871 81.5181 57.2441V56.0664C81.6431 56.0977 81.7779 56.125 81.9224 56.1484C82.067 56.1719 82.2212 56.1836 82.3853 56.1836C82.6002 56.1836 82.7955 56.1426 82.9712 56.0605C83.147 55.9785 83.2857 55.8301 83.3873 55.6152C83.4927 55.4004 83.5455 55.0977 83.5455 54.707V46.4336H84.9517V54.6602C84.9517 55.2969 84.8502 55.8145 84.647 56.2129C84.4439 56.6152 84.1587 56.9102 83.7916 57.0977C83.4244 57.2891 82.9947 57.3848 82.5025 57.3848ZM127.987 50.6348C127.987 51.5996 127.808 52.4062 127.448 53.0547C127.089 53.6992 126.567 54.1855 125.884 54.5137C125.2 54.8379 124.376 55 123.411 55H121.032V46.4336H123.669C124.556 46.4336 125.321 46.5938 125.966 46.9141C126.61 47.2305 127.109 47.7012 127.46 48.3262C127.812 48.9473 127.987 49.7168 127.987 50.6348ZM126.523 50.6758C126.523 49.9727 126.411 49.3945 126.189 48.9414C125.97 48.4883 125.646 48.1523 125.216 47.9336C124.79 47.7109 124.265 47.5996 123.64 47.5996H122.439V53.8223H123.435C124.47 53.8223 125.243 53.5586 125.755 53.0312C126.267 52.5039 126.523 51.7188 126.523 50.6758Z" fill="#D8DAE5"/>
<path d="M69.6065 55L67.1397 47.8457H67.087C67.0987 48.0059 67.1123 48.2246 67.128 48.502C67.1436 48.7793 67.1573 49.0762 67.169 49.3926C67.1807 49.709 67.1866 50.0117 67.1866 50.3008V55H65.9092V46.4336H67.8838L70.2569 53.2715H70.292L72.7471 46.4336H74.7159V55H73.3741V50.2305C73.3741 49.9688 73.378 49.6855 73.3858 49.3809C73.3975 49.0762 73.4092 48.7871 73.4209 48.5137C73.4366 48.2402 73.4483 48.0215 73.4561 47.8574H73.4092L70.8487 55H69.6065ZM100.115 46.4336L97.1212 55H95.6329L92.6387 46.4336H94.0802L95.8848 51.8008C95.9395 51.957 95.9981 52.1465 96.0606 52.3691C96.127 52.5918 96.1876 52.8164 96.2423 53.043C96.3009 53.2695 96.3458 53.4707 96.377 53.6465C96.4083 53.4707 96.4512 53.2695 96.5059 53.043C96.5645 52.8164 96.6251 52.5918 96.6876 52.3691C96.7501 52.1465 96.8087 51.9551 96.8634 51.7949L98.6739 46.4336H100.115ZM112.783 52.668C112.783 53.1758 112.658 53.6133 112.408 53.9805C112.162 54.3477 111.806 54.6289 111.341 54.8242C110.88 55.0195 110.33 55.1172 109.689 55.1172C109.377 55.1172 109.078 55.0996 108.793 55.0645C108.507 55.0293 108.238 54.9785 107.984 54.9121C107.734 54.8418 107.505 54.7578 107.298 54.6602V53.3359C107.646 53.4883 108.035 53.627 108.464 53.752C108.894 53.873 109.332 53.9336 109.777 53.9336C110.14 53.9336 110.441 53.8867 110.679 53.793C110.921 53.6953 111.101 53.5586 111.218 53.3828C111.336 53.2031 111.394 52.9941 111.394 52.7559C111.394 52.502 111.326 52.2871 111.189 52.1113C111.052 51.9355 110.845 51.7754 110.568 51.6309C110.295 51.4824 109.951 51.3242 109.537 51.1562C109.255 51.043 108.986 50.9141 108.728 50.7695C108.474 50.625 108.248 50.4551 108.048 50.2598C107.849 50.0645 107.691 49.834 107.574 49.5684C107.461 49.2988 107.404 48.9824 107.404 48.6191C107.404 48.1348 107.519 47.7207 107.75 47.377C107.984 47.0332 108.312 46.7695 108.734 46.5859C109.16 46.4023 109.656 46.3105 110.222 46.3105C110.671 46.3105 111.093 46.3574 111.488 46.4512C111.886 46.5449 112.277 46.6777 112.66 46.8496L112.214 47.9805C111.863 47.8359 111.521 47.7207 111.189 47.6348C110.861 47.5488 110.525 47.5059 110.181 47.5059C109.884 47.5059 109.632 47.5508 109.425 47.6406C109.218 47.7305 109.06 47.8574 108.951 48.0215C108.845 48.1816 108.793 48.373 108.793 48.5957C108.793 48.8457 108.853 49.0566 108.974 49.2285C109.099 49.3965 109.291 49.5508 109.548 49.6914C109.81 49.832 110.146 49.9883 110.556 50.1602C111.029 50.3555 111.429 50.5605 111.757 50.7754C112.089 50.9902 112.343 51.248 112.519 51.5488C112.695 51.8457 112.783 52.2188 112.783 52.668Z" fill="#3366FF"/>
<path d="M18.6667 50.0007H20V51.334H18.6667V50.0007ZM28 46.0007V55.334C28 55.6876 27.8595 56.0267 27.6095 56.2768C27.3594 56.5268 27.0203 56.6673 26.6667 56.6673H17.3333C16.5933 56.6673 16 56.0673 16 55.334V46.0007C16 45.647 16.1405 45.3079 16.3905 45.0578C16.6406 44.8078 16.9797 44.6673 17.3333 44.6673H18V43.334H19.3333V44.6673H24.6667V43.334H26V44.6673H26.6667C27.0203 44.6673 27.3594 44.8078 27.6095 45.0578C27.8595 45.3079 28 45.647 28 46.0007ZM17.3333 47.334H26.6667V46.0007H17.3333V47.334ZM26.6667 55.334V48.6673H17.3333V55.334H26.6667ZM24 51.334V50.0007H25.3333V51.334H24ZM21.3333 51.334V50.0007H22.6667V51.334H21.3333ZM18.6667 52.6673H20V54.0007H18.6667V52.6673ZM24 54.0007V52.6673H25.3333V54.0007H24ZM21.3333 54.0007V52.6673H22.6667V54.0007H21.3333Z" fill="#696F8C"/>
<path d="M15 14C15 11.7909 16.7909 10 19 10H58C60.2091 10 62 11.7909 62 14V30C62 32.2091 60.2091 34 58 34H19C16.7909 34 15 32.2091 15 30V14Z" fill="#D6E0FF"/>
<path d="M29.0703 24.668C29.0703 25.1758 28.9453 25.6133 28.6953 25.9805C28.4492 26.3477 28.0938 26.6289 27.6289 26.8242C27.168 27.0195 26.6172 27.1172 25.9766 27.1172C25.6641 27.1172 25.3652 27.0996 25.0801 27.0645C24.7949 27.0293 24.5254 26.9785 24.2715 26.9121C24.0215 26.8418 23.793 26.7578 23.5859 26.6602V25.3359C23.9336 25.4883 24.3223 25.627 24.752 25.752C25.1816 25.873 25.6191 25.9336 26.0645 25.9336C26.4277 25.9336 26.7285 25.8867 26.9668 25.793C27.209 25.6953 27.3887 25.5586 27.5059 25.3828C27.623 25.2031 27.6816 24.9941 27.6816 24.7559C27.6816 24.502 27.6133 24.2871 27.4766 24.1113C27.3398 23.9355 27.1328 23.7754 26.8555 23.6309C26.582 23.4824 26.2383 23.3242 25.8242 23.1562C25.543 23.043 25.2734 22.9141 25.0156 22.7695C24.7617 22.625 24.5352 22.4551 24.3359 22.2598C24.1367 22.0645 23.9785 21.834 23.8613 21.5684C23.748 21.2988 23.6914 20.9824 23.6914 20.6191C23.6914 20.1348 23.8066 19.7207 24.0371 19.377C24.2715 19.0332 24.5996 18.7695 25.0215 18.5859C25.4473 18.4023 25.9434 18.3105 26.5098 18.3105C26.959 18.3105 27.3809 18.3574 27.7754 18.4512C28.1738 18.5449 28.5645 18.6777 28.9473 18.8496L28.502 19.9805C28.1504 19.8359 27.8086 19.7207 27.4766 19.6348C27.1484 19.5488 26.8125 19.5059 26.4688 19.5059C26.1719 19.5059 25.9199 19.5508 25.7129 19.6406C25.5059 19.7305 25.3477 19.8574 25.2383 20.0215C25.1328 20.1816 25.0801 20.373 25.0801 20.5957C25.0801 20.8457 25.1406 21.0566 25.2617 21.2285C25.3867 21.3965 25.5781 21.5508 25.8359 21.6914C26.0977 21.832 26.4336 21.9883 26.8438 22.1602C27.3164 22.3555 27.7168 22.5605 28.0449 22.7754C28.377 22.9902 28.6309 23.248 28.8066 23.5488C28.9824 23.8457 29.0703 24.2188 29.0703 24.668ZM33.2361 26.0039C33.4158 26.0039 33.5935 25.9883 33.7693 25.957C33.9451 25.9219 34.1052 25.8809 34.2498 25.834V26.877C34.0974 26.9434 33.9002 27 33.658 27.0469C33.4158 27.0938 33.1638 27.1172 32.9021 27.1172C32.5349 27.1172 32.2048 27.0566 31.9119 26.9355C31.6189 26.8105 31.3865 26.5977 31.2146 26.2969C31.0427 25.9961 30.9568 25.5801 30.9568 25.0488V21.5625H30.072V20.9473L31.0212 20.4609L31.4724 19.0723H32.3396V20.5137H34.197V21.5625H32.3396V25.0312C32.3396 25.3594 32.4216 25.6035 32.5857 25.7637C32.7498 25.9238 32.9666 26.0039 33.2361 26.0039ZM38.3511 20.3906C39.1714 20.3906 39.7905 20.5723 40.2085 20.9355C40.6304 21.2988 40.8413 21.8652 40.8413 22.6348V27H39.8628L39.5991 26.0801H39.5523C39.3687 26.3145 39.1792 26.5078 38.9839 26.6602C38.7886 26.8125 38.562 26.9258 38.3042 27C38.0503 27.0781 37.7398 27.1172 37.3726 27.1172C36.9859 27.1172 36.6402 27.0469 36.3355 26.9062C36.0308 26.7617 35.7905 26.543 35.6148 26.25C35.439 25.957 35.3511 25.5859 35.3511 25.1367C35.3511 24.4688 35.5991 23.9668 36.0952 23.6309C36.5952 23.2949 37.3491 23.1094 38.357 23.0742L39.482 23.0332V22.6934C39.482 22.2441 39.3765 21.9238 39.1655 21.7324C38.9585 21.541 38.6655 21.4453 38.2866 21.4453C37.9624 21.4453 37.648 21.4922 37.3433 21.5859C37.0386 21.6797 36.7417 21.7949 36.4527 21.9316L36.0073 20.959C36.3237 20.791 36.6831 20.6543 37.0855 20.5488C37.4917 20.4434 37.9136 20.3906 38.3511 20.3906ZM39.4761 23.9004L38.6382 23.9297C37.9507 23.9531 37.4683 24.0703 37.1909 24.2812C36.9136 24.4922 36.7749 24.7812 36.7749 25.1484C36.7749 25.4688 36.8706 25.7031 37.062 25.8516C37.2534 25.9961 37.5054 26.0684 37.8179 26.0684C38.2945 26.0684 38.689 25.9336 39.0015 25.6641C39.3179 25.3906 39.4761 24.9902 39.4761 24.4629V23.9004ZM45.4231 26.0039C45.6028 26.0039 45.7805 25.9883 45.9563 25.957C46.1321 25.9219 46.2923 25.8809 46.4368 25.834V26.877C46.2845 26.9434 46.0872 27 45.845 27.0469C45.6028 27.0938 45.3509 27.1172 45.0891 27.1172C44.722 27.1172 44.3919 27.0566 44.0989 26.9355C43.8059 26.8105 43.5735 26.5977 43.4016 26.2969C43.2298 25.9961 43.1438 25.5801 43.1438 25.0488V21.5625H42.2591V20.9473L43.2083 20.4609L43.6595 19.0723H44.5266V20.5137H46.3841V21.5625H44.5266V25.0312C44.5266 25.3594 44.6087 25.6035 44.7727 25.7637C44.9368 25.9238 45.1536 26.0039 45.4231 26.0039ZM50.5791 20.3906C51.1573 20.3906 51.6534 20.5098 52.0674 20.748C52.4815 20.9863 52.7998 21.3242 53.0225 21.7617C53.2452 22.1992 53.3565 22.7227 53.3565 23.332V24.0703H49.0264C49.042 24.6992 49.21 25.1836 49.5303 25.5234C49.8545 25.8633 50.3077 26.0332 50.8897 26.0332C51.3037 26.0332 51.6748 25.9941 52.003 25.916C52.335 25.834 52.6768 25.7148 53.0284 25.5586V26.6777C52.7041 26.8301 52.3741 26.9414 52.0381 27.0117C51.7022 27.082 51.2998 27.1172 50.8311 27.1172C50.1944 27.1172 49.6338 26.9941 49.1495 26.748C48.669 26.498 48.292 26.127 48.0186 25.6348C47.7491 25.1426 47.6143 24.5312 47.6143 23.8008C47.6143 23.0742 47.7373 22.457 47.9834 21.9492C48.2295 21.4414 48.5752 21.0547 49.0205 20.7891C49.4659 20.5234 49.9854 20.3906 50.5791 20.3906ZM50.5791 21.4277C50.1455 21.4277 49.794 21.5684 49.5245 21.8496C49.2588 22.1309 49.1026 22.543 49.0557 23.0859H52.0088C52.0049 22.7617 51.9502 22.4746 51.8448 22.2246C51.7432 21.9746 51.587 21.7793 51.376 21.6387C51.169 21.498 50.9034 21.4277 50.5791 21.4277Z" fill="#2952CC"/>
</g>
<defs>
<filter id="filter0_d_709_6528" x="0" y="0" width="280" height="136" filterUnits="userSpaceOnUse" color-interpolation-filters="sRGB">
<feFlood flood-opacity="0" result="BackgroundImageFix"/>
<feColorMatrix in="SourceAlpha" type="matrix" values="0 0 0 0 0 0 0 0 0 0 0 0 0 0 0 0 0 0 127 0" result="hardAlpha"/>
<feOffset/>
<feGaussianBlur stdDeviation="1"/>
<feComposite in2="hardAlpha" operator="out"/>
<feColorMatrix type="matrix" values="0 0 0 0 0 0 0 0 0 0 0 0 0 0 0 0 0 0 0.15 0"/>
<feBlend mode="normal" in2="BackgroundImageFix" result="effect1_dropShadow_709_6528"/>
<feBlend mode="normal" in="SourceGraphic" in2="effect1_dropShadow_709_6528" result="shape"/>
</filter>
</defs>
</svg>
