<svg width="610" height="406" viewBox="0 0 610 406" fill="none" xmlns="http://www.w3.org/2000/svg">
<g clip-path="url(#clip0_866_8449)">
<g filter="url(#filter0_d_866_8449)">
<path d="M16 61C16 58.7909 17.7909 57 20 57H515C517.209 57 519 58.7909 519 61V161C519 163.209 517.209 165 515 165H20C17.7909 165 16 163.209 16 161V61Z" fill="white" shape-rendering="crispEdges"/>
<path d="M32 73C32 70.7909 33.7909 69 36 69H136C138.209 69 140 70.7909 140 73V89C140 91.2091 138.209 93 136 93H36C33.7909 93 32 91.2091 32 89V73Z" fill="#FFFAE6"/>
<path d="M47.8516 77.4336V82.9766C47.8516 83.5742 47.7246 84.1094 47.4707 84.582C47.2207 85.0547 46.8418 85.4297 46.334 85.707C45.8262 85.9805 45.1875 86.1172 44.418 86.1172C43.3203 86.1172 42.4844 85.8301 41.9102 85.2559C41.3398 84.6777 41.0547 83.9102 41.0547 82.9531V77.4336H42.4609V82.8301C42.4609 83.5449 42.6289 84.0723 42.9648 84.4121C43.3008 84.752 43.8027 84.9219 44.4707 84.9219C44.9316 84.9219 45.3066 84.8418 45.5957 84.6816C45.8887 84.5176 46.1035 84.2793 46.2402 83.9668C46.3809 83.6504 46.4512 83.2695 46.4512 82.8242V77.4336H47.8516ZM57.4314 86H55.7029L51.5076 79.1621H51.4548C51.4705 79.3926 51.4841 79.6367 51.4959 79.8945C51.5115 80.1523 51.5232 80.418 51.531 80.6914C51.5427 80.9648 51.5525 81.2422 51.5603 81.5234V86H50.283V77.4336H51.9998L56.1892 84.2246H56.2302C56.2224 84.0254 56.2127 83.7969 56.2009 83.5391C56.1892 83.2812 56.1775 83.0156 56.1658 82.7422C56.158 82.4648 56.1521 82.1973 56.1482 81.9395V77.4336H57.4314V86ZM63.5718 78.5059C63.1616 78.5059 62.7945 78.5801 62.4702 78.7285C62.1499 78.877 61.8784 79.0918 61.6558 79.373C61.4331 79.6504 61.2632 79.9883 61.146 80.3867C61.0288 80.7812 60.9702 81.2266 60.9702 81.7227C60.9702 82.3867 61.064 82.959 61.2515 83.4395C61.439 83.916 61.7241 84.2832 62.107 84.541C62.4898 84.7949 62.9741 84.9219 63.5601 84.9219C63.9234 84.9219 64.2769 84.8867 64.6206 84.8164C64.9644 84.7461 65.3198 84.6504 65.687 84.5293V85.7246C65.3394 85.8613 64.9878 85.9609 64.6323 86.0234C64.2769 86.0859 63.8667 86.1172 63.4019 86.1172C62.5269 86.1172 61.8003 85.9355 61.2222 85.5723C60.648 85.209 60.2183 84.6973 59.9331 84.0371C59.6519 83.377 59.5112 82.6035 59.5112 81.7168C59.5112 81.0684 59.6011 80.4746 59.7808 79.9355C59.9605 79.3965 60.2222 78.9316 60.5659 78.541C60.9097 78.1465 61.3335 77.8438 61.8374 77.6328C62.3452 77.418 62.9253 77.3105 63.5777 77.3105C64.0073 77.3105 64.4292 77.3594 64.8433 77.457C65.2612 77.5508 65.648 77.6855 66.0034 77.8613L65.5112 79.0215C65.2144 78.8809 64.9038 78.7598 64.5796 78.6582C64.2554 78.5566 63.9195 78.5059 63.5718 78.5059ZM75.3723 81.7051C75.3723 82.3652 75.2884 82.9668 75.1204 83.5098C74.9563 84.0488 74.7083 84.5137 74.3762 84.9043C74.0442 85.291 73.6282 85.5898 73.1282 85.8008C72.6282 86.0117 72.0423 86.1172 71.3704 86.1172C70.6868 86.1172 70.093 86.0117 69.5891 85.8008C69.0891 85.5898 68.6731 85.2891 68.3411 84.8984C68.013 84.5078 67.7669 84.041 67.6028 83.498C67.4387 82.9551 67.3567 82.3535 67.3567 81.6934C67.3567 80.8105 67.5012 80.041 67.7903 79.3848C68.0833 78.7246 68.5266 78.2129 69.1204 77.8496C69.718 77.4824 70.472 77.2988 71.3821 77.2988C72.2727 77.2988 73.013 77.4805 73.6028 77.8438C74.1927 78.207 74.6341 78.7188 74.927 79.3789C75.2239 80.0352 75.3723 80.8105 75.3723 81.7051ZM68.8333 81.7051C68.8333 82.3652 68.9231 82.9375 69.1028 83.4219C69.2825 83.9023 69.5579 84.2734 69.929 84.5352C70.304 84.793 70.7845 84.9219 71.3704 84.9219C71.9602 84.9219 72.4407 84.793 72.8118 84.5352C73.1829 84.2734 73.4563 83.9023 73.6321 83.4219C73.8079 82.9375 73.8958 82.3652 73.8958 81.7051C73.8958 80.7012 73.6946 79.916 73.2923 79.3496C72.8938 78.7793 72.2571 78.4941 71.3821 78.4941C70.7962 78.4941 70.3137 78.623 69.9348 78.8809C69.5598 79.1387 69.2825 79.5078 69.1028 79.9883C68.9231 80.4648 68.8333 81.0371 68.8333 81.7051ZM84.6006 86H82.8721L78.6768 79.1621H78.6241C78.6397 79.3926 78.6534 79.6367 78.6651 79.8945C78.6807 80.1523 78.6924 80.418 78.7002 80.6914C78.712 80.9648 78.7217 81.2422 78.7295 81.5234V86H77.4522V77.4336H79.169L83.3584 84.2246H83.3995C83.3916 84.0254 83.3819 83.7969 83.3702 83.5391C83.3584 83.2812 83.3467 83.0156 83.335 82.7422C83.3272 82.4648 83.3213 82.1973 83.3174 81.9395V77.4336H84.6006V86ZM88.4852 86H87.0906V77.4336H91.9305V78.6172H88.4852V81.2891H91.7078V82.4668H88.4852V86ZM93.7291 86V77.4336H95.1353V86H93.7291ZM100.045 77.4336C100.784 77.4336 101.393 77.5234 101.873 77.7031C102.358 77.8828 102.717 78.1562 102.951 78.5234C103.19 78.8906 103.309 79.3574 103.309 79.9238C103.309 80.3457 103.231 80.7051 103.075 81.002C102.918 81.2988 102.713 81.5449 102.459 81.7402C102.205 81.9355 101.934 82.0918 101.645 82.209L104.076 86H102.489L100.42 82.5664H99.0433V86H97.637V77.4336H100.045ZM99.9515 78.6055H99.0433V81.4062H100.016C100.668 81.4062 101.141 81.2852 101.434 81.043C101.731 80.8008 101.879 80.4434 101.879 79.9707C101.879 79.4746 101.721 79.123 101.405 78.916C101.092 78.709 100.608 78.6055 99.9515 78.6055ZM109.238 86L106.772 78.8457H106.719C106.731 79.0059 106.744 79.2246 106.76 79.502C106.775 79.7793 106.789 80.0762 106.801 80.3926C106.813 80.709 106.818 81.0117 106.818 81.3008V86H105.541V77.4336H107.516L109.889 84.2715H109.924L112.379 77.4336H114.348V86H113.006V81.2305C113.006 80.9688 113.01 80.6855 113.018 80.3809C113.029 80.0762 113.041 79.7871 113.053 79.5137C113.068 79.2402 113.08 79.0215 113.088 78.8574H113.041L110.481 86H109.238ZM121.695 86H116.844V77.4336H121.695V78.6172H118.25V80.9434H121.478V82.1211H118.25V84.8105H121.695V86ZM130.742 81.6348C130.742 82.5996 130.562 83.4062 130.203 84.0547C129.843 84.6992 129.322 85.1855 128.638 85.5137C127.955 85.8379 127.13 86 126.166 86H123.787V77.4336H126.423C127.31 77.4336 128.076 77.5938 128.72 77.9141C129.365 78.2305 129.863 78.7012 130.214 79.3262C130.566 79.9473 130.742 80.7168 130.742 81.6348ZM129.277 81.6758C129.277 80.9727 129.166 80.3945 128.943 79.9414C128.724 79.4883 128.4 79.1523 127.97 78.9336C127.545 78.7109 127.019 78.5996 126.394 78.5996H125.193V84.8223H126.189C127.224 84.8223 127.998 84.5586 128.509 84.0312C129.021 83.5039 129.277 82.7188 129.277 81.6758Z" fill="#FF991F"/>
<path d="M38.1094 112.797H42.375V118.531C41.776 118.729 41.1562 118.883 40.5156 118.992C39.875 119.102 39.1562 119.156 38.3594 119.156C37.1979 119.156 36.2135 118.927 35.4062 118.469C34.6042 118.005 33.9948 117.336 33.5781 116.461C33.1615 115.581 32.9531 114.521 32.9531 113.281C32.9531 112.089 33.1849 111.055 33.6484 110.18C34.112 109.299 34.7865 108.62 35.6719 108.141C36.5573 107.656 37.6302 107.414 38.8906 107.414C39.5104 107.414 40.1094 107.477 40.6875 107.602C41.2708 107.721 41.8047 107.888 42.2891 108.102L41.6328 109.648C41.2474 109.466 40.8151 109.312 40.3359 109.188C39.8568 109.062 39.3594 109 38.8438 109C38.026 109 37.3203 109.177 36.7266 109.531C36.138 109.885 35.6849 110.385 35.3672 111.031C35.0495 111.672 34.8906 112.43 34.8906 113.305C34.8906 114.154 35.0182 114.898 35.2734 115.539C35.5286 116.18 35.9271 116.68 36.4688 117.039C37.0156 117.393 37.7214 117.57 38.5859 117.57C39.0182 117.57 39.3854 117.547 39.6875 117.5C39.9896 117.453 40.2682 117.401 40.5234 117.344V114.398H38.1094V112.797ZM48.3512 110.188C49.122 110.188 49.7835 110.346 50.3356 110.664C50.8876 110.982 51.3121 111.432 51.609 112.016C51.9059 112.599 52.0543 113.297 52.0543 114.109V115.094H46.2809C46.3017 115.932 46.5257 116.578 46.9528 117.031C47.385 117.484 47.9892 117.711 48.7653 117.711C49.3173 117.711 49.8121 117.659 50.2496 117.555C50.6923 117.445 51.1481 117.286 51.6168 117.078V118.57C51.1845 118.773 50.7444 118.922 50.2965 119.016C49.8486 119.109 49.3121 119.156 48.6871 119.156C47.8382 119.156 47.0908 118.992 46.4449 118.664C45.8043 118.331 45.3017 117.836 44.9371 117.18C44.5778 116.523 44.3981 115.708 44.3981 114.734C44.3981 113.766 44.5621 112.943 44.8903 112.266C45.2184 111.589 45.6793 111.073 46.2731 110.719C46.8668 110.365 47.5595 110.188 48.3512 110.188ZM48.3512 111.57C47.7731 111.57 47.3043 111.758 46.9449 112.133C46.5908 112.508 46.3824 113.057 46.3199 113.781H50.2574C50.2522 113.349 50.1793 112.966 50.0387 112.633C49.9033 112.299 49.6949 112.039 49.4137 111.852C49.1376 111.664 48.7835 111.57 48.3512 111.57ZM58.6164 110.188C59.5904 110.188 60.3482 110.44 60.8899 110.945C61.4368 111.445 61.7102 112.25 61.7102 113.359V119H59.8743V113.703C59.8743 113.031 59.7362 112.529 59.4602 112.195C59.1841 111.857 58.7571 111.688 58.1789 111.688C57.3404 111.688 56.7571 111.945 56.4289 112.461C56.106 112.977 55.9446 113.724 55.9446 114.703V119H54.1086V110.352H55.5383L55.7961 111.523H55.8977C56.0852 111.221 56.317 110.974 56.593 110.781C56.8743 110.583 57.1868 110.435 57.5305 110.336C57.8795 110.237 58.2414 110.188 58.6164 110.188ZM67.7098 110.188C68.4806 110.188 69.1421 110.346 69.6942 110.664C70.2463 110.982 70.6707 111.432 70.9676 112.016C71.2645 112.599 71.4129 113.297 71.4129 114.109V115.094H65.6395C65.6603 115.932 65.8843 116.578 66.3114 117.031C66.7437 117.484 67.3478 117.711 68.1239 117.711C68.676 117.711 69.1707 117.659 69.6082 117.555C70.051 117.445 70.5067 117.286 70.9754 117.078V118.57C70.5431 118.773 70.103 118.922 69.6551 119.016C69.2072 119.109 68.6707 119.156 68.0457 119.156C67.1968 119.156 66.4494 118.992 65.8036 118.664C65.1629 118.331 64.6603 117.836 64.2957 117.18C63.9364 116.523 63.7567 115.708 63.7567 114.734C63.7567 113.766 63.9207 112.943 64.2489 112.266C64.577 111.589 65.0379 111.073 65.6317 110.719C66.2254 110.365 66.9181 110.188 67.7098 110.188ZM67.7098 111.57C67.1317 111.57 66.6629 111.758 66.3036 112.133C65.9494 112.508 65.7411 113.057 65.6786 113.781H69.6161C69.6109 113.349 69.5379 112.966 69.3973 112.633C69.2619 112.299 69.0536 112.039 68.7723 111.852C68.4963 111.664 68.1421 111.57 67.7098 111.57ZM77.8501 110.188C77.9959 110.188 78.1548 110.195 78.3266 110.211C78.4985 110.227 78.6469 110.247 78.7719 110.273L78.6001 111.992C78.4907 111.961 78.3553 111.938 78.1938 111.922C78.0376 111.906 77.8969 111.898 77.7719 111.898C77.4438 111.898 77.1313 111.953 76.8344 112.062C76.5376 112.167 76.2745 112.328 76.0454 112.547C75.8162 112.76 75.6365 113.029 75.5063 113.352C75.3761 113.674 75.311 114.049 75.311 114.477V119H73.4673V110.352H74.9048L75.1548 111.875H75.2407C75.4126 111.568 75.6261 111.286 75.8813 111.031C76.1365 110.776 76.4282 110.573 76.7563 110.422C77.0896 110.266 77.4542 110.188 77.8501 110.188ZM83.7481 110.188C84.8419 110.188 85.6674 110.43 86.2247 110.914C86.7872 111.398 87.0684 112.154 87.0684 113.18V119H85.7637L85.4122 117.773H85.3497C85.1049 118.086 84.8523 118.344 84.5919 118.547C84.3315 118.75 84.0294 118.901 83.6856 119C83.3471 119.104 82.933 119.156 82.4434 119.156C81.9278 119.156 81.4669 119.062 81.0606 118.875C80.6544 118.682 80.3341 118.391 80.0997 118C79.8653 117.609 79.7481 117.115 79.7481 116.516C79.7481 115.625 80.0789 114.956 80.7403 114.508C81.407 114.06 82.4122 113.812 83.7559 113.766L85.2559 113.711V113.258C85.2559 112.659 85.1153 112.232 84.8341 111.977C84.558 111.721 84.1674 111.594 83.6622 111.594C83.2299 111.594 82.8106 111.656 82.4044 111.781C81.9981 111.906 81.6023 112.06 81.2169 112.242L80.6231 110.945C81.045 110.721 81.5242 110.539 82.0606 110.398C82.6023 110.258 83.1648 110.188 83.7481 110.188ZM85.2481 114.867L84.1309 114.906C83.2143 114.938 82.571 115.094 82.2012 115.375C81.8315 115.656 81.6466 116.042 81.6466 116.531C81.6466 116.958 81.7742 117.271 82.0294 117.469C82.2846 117.661 82.6205 117.758 83.0372 117.758C83.6726 117.758 84.1986 117.578 84.6153 117.219C85.0372 116.854 85.2481 116.32 85.2481 115.617V114.867ZM91.4665 119H89.6227V106.844H91.4665V119ZM103.333 119L100.044 109.461H99.9736C99.9892 109.674 100.007 109.966 100.028 110.336C100.049 110.706 100.067 111.102 100.083 111.523C100.099 111.945 100.106 112.349 100.106 112.734V119H98.4033V107.578H101.036L104.2 116.695H104.247L107.52 107.578H110.145V119H108.356V112.641C108.356 112.292 108.362 111.914 108.372 111.508C108.388 111.102 108.403 110.716 108.419 110.352C108.44 109.987 108.455 109.695 108.466 109.477H108.403L104.989 119H103.333ZM116.395 110.188C117.166 110.188 117.827 110.346 118.379 110.664C118.932 110.982 119.356 111.432 119.653 112.016C119.95 112.599 120.098 113.297 120.098 114.109V115.094H114.325C114.346 115.932 114.57 116.578 114.997 117.031C115.429 117.484 116.033 117.711 116.809 117.711C117.361 117.711 117.856 117.659 118.294 117.555C118.736 117.445 119.192 117.286 119.661 117.078V118.57C119.228 118.773 118.788 118.922 118.34 119.016C117.892 119.109 117.356 119.156 116.731 119.156C115.882 119.156 115.135 118.992 114.489 118.664C113.848 118.331 113.346 117.836 112.981 117.18C112.622 116.523 112.442 115.708 112.442 114.734C112.442 113.766 112.606 112.943 112.934 112.266C113.262 111.589 113.723 111.073 114.317 110.719C114.911 110.365 115.603 110.188 116.395 110.188ZM116.395 111.57C115.817 111.57 115.348 111.758 114.989 112.133C114.635 112.508 114.426 113.057 114.364 113.781H118.301C118.296 113.349 118.223 112.966 118.083 112.633C117.947 112.299 117.739 112.039 117.458 111.852C117.182 111.664 116.827 111.57 116.395 111.57ZM125.059 119.156C124.027 119.156 123.199 118.781 122.574 118.031C121.955 117.276 121.645 116.164 121.645 114.695C121.645 113.211 121.96 112.089 122.59 111.328C123.225 110.568 124.061 110.188 125.098 110.188C125.535 110.188 125.918 110.247 126.246 110.367C126.574 110.482 126.856 110.638 127.09 110.836C127.33 111.034 127.533 111.255 127.699 111.5H127.785C127.759 111.339 127.728 111.107 127.692 110.805C127.66 110.497 127.645 110.214 127.645 109.953V106.844H129.488V119H128.051L127.723 117.82H127.645C127.488 118.07 127.291 118.297 127.051 118.5C126.817 118.698 126.535 118.857 126.207 118.977C125.884 119.096 125.501 119.156 125.059 119.156ZM125.574 117.664C126.361 117.664 126.916 117.438 127.238 116.984C127.561 116.531 127.728 115.852 127.738 114.945V114.703C127.738 113.734 127.582 112.992 127.27 112.477C126.957 111.956 126.387 111.695 125.559 111.695C124.897 111.695 124.392 111.964 124.043 112.5C123.699 113.031 123.527 113.773 123.527 114.727C123.527 115.68 123.699 116.409 124.043 116.914C124.392 117.414 124.902 117.664 125.574 117.664ZM133.941 110.352V119H132.105V110.352H133.941ZM133.035 107.039C133.316 107.039 133.558 107.115 133.761 107.266C133.97 107.417 134.074 107.677 134.074 108.047C134.074 108.411 133.97 108.672 133.761 108.828C133.558 108.979 133.316 109.055 133.035 109.055C132.743 109.055 132.496 108.979 132.293 108.828C132.095 108.672 131.996 108.411 131.996 108.047C131.996 107.677 132.095 107.417 132.293 107.266C132.496 107.115 132.743 107.039 133.035 107.039ZM140.042 119.156C139.225 119.156 138.516 118.997 137.917 118.68C137.318 118.362 136.857 117.875 136.535 117.219C136.212 116.562 136.05 115.729 136.05 114.719C136.05 113.667 136.227 112.807 136.581 112.141C136.936 111.474 137.425 110.982 138.05 110.664C138.68 110.346 139.402 110.188 140.214 110.188C140.73 110.188 141.196 110.24 141.613 110.344C142.035 110.443 142.391 110.565 142.683 110.711L142.136 112.18C141.818 112.049 141.493 111.94 141.16 111.852C140.826 111.763 140.506 111.719 140.199 111.719C139.693 111.719 139.272 111.831 138.933 112.055C138.6 112.279 138.35 112.612 138.183 113.055C138.022 113.497 137.941 114.047 137.941 114.703C137.941 115.339 138.024 115.875 138.191 116.312C138.357 116.745 138.605 117.073 138.933 117.297C139.261 117.516 139.665 117.625 140.144 117.625C140.618 117.625 141.042 117.568 141.417 117.453C141.792 117.339 142.147 117.19 142.48 117.008V118.602C142.152 118.789 141.8 118.927 141.425 119.016C141.05 119.109 140.589 119.156 140.042 119.156ZM146.331 110.352V119H144.495V110.352H146.331ZM145.425 107.039C145.706 107.039 145.948 107.115 146.151 107.266C146.36 107.417 146.464 107.677 146.464 108.047C146.464 108.411 146.36 108.672 146.151 108.828C145.948 108.979 145.706 109.055 145.425 109.055C145.133 109.055 144.886 108.979 144.683 108.828C144.485 108.672 144.386 108.411 144.386 108.047C144.386 107.677 144.485 107.417 144.683 107.266C144.886 107.115 145.133 107.039 145.425 107.039ZM153.456 110.188C154.43 110.188 155.187 110.44 155.729 110.945C156.276 111.445 156.549 112.25 156.549 113.359V119H154.714V113.703C154.714 113.031 154.575 112.529 154.299 112.195C154.023 111.857 153.596 111.688 153.018 111.688C152.18 111.688 151.596 111.945 151.268 112.461C150.945 112.977 150.784 113.724 150.784 114.703V119H148.948V110.352H150.378L150.635 111.523H150.737C150.924 111.221 151.156 110.974 151.432 110.781C151.714 110.583 152.026 110.435 152.37 110.336C152.719 110.237 153.081 110.188 153.456 110.188ZM162.549 110.188C163.32 110.188 163.981 110.346 164.533 110.664C165.086 110.982 165.51 111.432 165.807 112.016C166.104 112.599 166.252 113.297 166.252 114.109V115.094H160.479C160.5 115.932 160.724 116.578 161.151 117.031C161.583 117.484 162.187 117.711 162.963 117.711C163.515 117.711 164.01 117.659 164.448 117.555C164.89 117.445 165.346 117.286 165.815 117.078V118.57C165.382 118.773 164.942 118.922 164.494 119.016C164.046 119.109 163.51 119.156 162.885 119.156C162.036 119.156 161.289 118.992 160.643 118.664C160.002 118.331 159.5 117.836 159.135 117.18C158.776 116.523 158.596 115.708 158.596 114.734C158.596 113.766 158.76 112.943 159.088 112.266C159.416 111.589 159.877 111.073 160.471 110.719C161.065 110.365 161.757 110.188 162.549 110.188ZM162.549 111.57C161.971 111.57 161.502 111.758 161.143 112.133C160.789 112.508 160.58 113.057 160.518 113.781H164.455C164.45 113.349 164.377 112.966 164.237 112.633C164.101 112.299 163.893 112.039 163.612 111.852C163.336 111.664 162.981 111.57 162.549 111.57Z" fill="#474D66"/>
<path d="M478 119C478 120.1 477.1 121 476 121C474.9 121 474 120.1 474 119C474 117.9 474.9 117 476 117C477.1 117 478 117.9 478 119ZM476 111C474.9 111 474 111.9 474 113C474 114.1 474.9 115 476 115C477.1 115 478 114.1 478 113C478 111.9 477.1 111 476 111ZM476 105C474.9 105 474 105.9 474 107C474 108.1 474.9 109 476 109C477.1 109 478 108.1 478 107C478 105.9 477.1 105 476 105ZM482 109C483.1 109 484 108.1 484 107C484 105.9 483.1 105 482 105C480.9 105 480 105.9 480 107C480 108.1 480.9 109 482 109ZM482 111C480.9 111 480 111.9 480 113C480 114.1 480.9 115 482 115C483.1 115 484 114.1 484 113C484 111.9 483.1 111 482 111ZM482 117C480.9 117 480 117.9 480 119C480 120.1 480.9 121 482 121C483.1 121 484 120.1 484 119C484 117.9 483.1 117 482 117Z" fill="#474D66"/>
<path d="M39.2529 148H32.6836V147.022L35.3154 144.377C36.1175 143.566 36.6462 142.987 36.9014 142.641C37.1566 142.294 37.348 141.957 37.4756 141.629C37.6032 141.301 37.667 140.948 37.667 140.569C37.667 140.036 37.5052 139.615 37.1816 139.305C36.8581 138.99 36.4092 138.833 35.835 138.833C35.4202 138.833 35.026 138.901 34.6523 139.038C34.2832 139.175 33.8708 139.423 33.415 139.783L32.8135 139.011C33.734 138.245 34.7367 137.862 35.8213 137.862C36.7601 137.862 37.4961 138.104 38.0293 138.587C38.5625 139.065 38.8291 139.71 38.8291 140.521C38.8291 141.155 38.6514 141.782 38.2959 142.401C37.9404 143.021 37.2751 143.805 36.2998 144.753L34.1123 146.893V146.947H39.2529V148ZM40.7975 143.728C40.7975 141.763 41.1781 140.296 41.9391 139.325C42.7048 138.35 43.835 137.862 45.3298 137.862C45.8447 137.862 46.2503 137.906 46.5465 137.992V138.97C46.1956 138.856 45.7946 138.799 45.3434 138.799C44.2725 138.799 43.4544 139.134 42.8893 139.804C42.3242 140.469 42.0143 141.517 41.9596 142.948H42.0417C42.543 142.164 43.3359 141.772 44.4206 141.772C45.3184 141.772 46.0247 142.044 46.5397 142.586C47.0592 143.128 47.319 143.864 47.319 144.794C47.319 145.833 47.0342 146.651 46.4645 147.248C45.8994 147.84 45.1338 148.137 44.1676 148.137C43.1331 148.137 42.3128 147.749 41.7067 146.975C41.1006 146.195 40.7975 145.113 40.7975 143.728ZM44.154 147.173C44.8011 147.173 45.3024 146.97 45.6579 146.564C46.0179 146.154 46.1979 145.564 46.1979 144.794C46.1979 144.133 46.0316 143.614 45.6989 143.235C45.3662 142.857 44.8695 142.668 44.2087 142.668C43.7985 142.668 43.4225 142.752 43.0807 142.921C42.7389 143.09 42.4655 143.322 42.2604 143.618C42.0599 143.914 41.9596 144.222 41.9596 144.541C41.9596 145.01 42.0508 145.448 42.2331 145.854C42.4154 146.259 42.6728 146.58 43.0055 146.817C43.3428 147.054 43.7256 147.173 44.154 147.173ZM57.9209 146.995H57.8594C57.3353 147.756 56.5514 148.137 55.5078 148.137C54.528 148.137 53.7646 147.802 53.2178 147.132C52.6754 146.462 52.4043 145.509 52.4043 144.274C52.4043 143.039 52.6777 142.08 53.2246 141.396C53.7715 140.713 54.5325 140.371 55.5078 140.371C56.5241 140.371 57.3034 140.74 57.8457 141.479H57.9346L57.8867 140.938L57.8594 140.412V137.363H58.9941V148H58.0713L57.9209 146.995ZM55.6514 147.187C56.4261 147.187 56.9866 146.977 57.333 146.558C57.6839 146.134 57.8594 145.452 57.8594 144.514V144.274C57.8594 143.213 57.6816 142.456 57.3262 142.005C56.9753 141.549 56.4124 141.321 55.6377 141.321C54.9723 141.321 54.4619 141.581 54.1064 142.101C53.7555 142.616 53.5801 143.345 53.5801 144.288C53.5801 145.245 53.7555 145.967 54.1064 146.455C54.4573 146.943 54.9723 147.187 55.6514 147.187ZM64.5583 148.137C63.4508 148.137 62.5758 147.799 61.9333 147.125C61.2952 146.451 60.9762 145.514 60.9762 144.315C60.9762 143.108 61.2725 142.148 61.8649 141.438C62.4619 140.727 63.2617 140.371 64.2643 140.371C65.2031 140.371 65.946 140.681 66.4928 141.301C67.0397 141.916 67.3131 142.729 67.3131 143.741V144.459H62.152C62.1748 145.339 62.3958 146.006 62.8151 146.462C63.2389 146.918 63.8336 147.146 64.5993 147.146C65.4059 147.146 66.2034 146.977 66.9919 146.64V147.651C66.5908 147.825 66.2103 147.948 65.8503 148.021C65.4948 148.098 65.0641 148.137 64.5583 148.137ZM64.2506 141.321C63.6491 141.321 63.1683 141.517 62.8083 141.909C62.4528 142.301 62.2432 142.843 62.1794 143.536H66.0963C66.0963 142.821 65.9368 142.274 65.6178 141.896C65.2988 141.513 64.8431 141.321 64.2506 141.321ZM71.5781 150.632C71.1497 150.632 70.8125 150.57 70.5664 150.447V149.456C70.89 149.547 71.2272 149.593 71.5781 149.593C72.0293 149.593 72.3711 149.456 72.6035 149.183C72.8405 148.909 72.959 148.515 72.959 148V138.006H74.1211V147.904C74.1211 148.77 73.9023 149.44 73.4648 149.914C73.0273 150.393 72.3984 150.632 71.5781 150.632ZM77.6618 140.508V145.368C77.6618 145.979 77.8008 146.435 78.0788 146.735C78.3568 147.036 78.792 147.187 79.3844 147.187C80.1683 147.187 80.7402 146.972 81.1002 146.544C81.4648 146.116 81.6471 145.416 81.6471 144.445V140.508H82.7819V148H81.8454L81.6813 146.995H81.6198C81.3874 147.364 81.0638 147.647 80.6491 147.843C80.2389 148.039 79.7695 148.137 79.2409 148.137C78.3294 148.137 77.6458 147.92 77.1901 147.487C76.7389 147.054 76.5133 146.362 76.5133 145.409V140.508H77.6618ZM90.3079 148V143.153C90.3079 142.543 90.1689 142.087 89.8909 141.786C89.6129 141.485 89.1777 141.335 88.5853 141.335C87.8014 141.335 87.2272 141.547 86.8626 141.971C86.498 142.395 86.3157 143.094 86.3157 144.069V148H85.181V140.508H86.1038L86.2884 141.533H86.3431C86.5755 141.164 86.9013 140.879 87.3206 140.679C87.7399 140.474 88.207 140.371 88.722 140.371C89.6243 140.371 90.3034 140.59 90.7591 141.027C91.2148 141.46 91.4427 142.155 91.4427 143.112V148H90.3079ZM94.9013 148H93.7666V140.508H94.9013V148ZM93.6709 138.478C93.6709 138.218 93.7347 138.029 93.8623 137.91C93.9899 137.787 94.1494 137.726 94.3408 137.726C94.5231 137.726 94.6803 137.787 94.8125 137.91C94.9446 138.033 95.0107 138.222 95.0107 138.478C95.0107 138.733 94.9446 138.924 94.8125 139.052C94.6803 139.175 94.5231 139.236 94.3408 139.236C94.1494 139.236 93.9899 139.175 93.8623 139.052C93.7347 138.924 93.6709 138.733 93.6709 138.478ZM103.76 144.247C103.76 145.468 103.453 146.423 102.838 147.111C102.222 147.795 101.372 148.137 100.288 148.137C99.6178 148.137 99.0231 147.979 98.5036 147.665C97.984 147.351 97.583 146.899 97.3004 146.312C97.0179 145.724 96.8766 145.035 96.8766 144.247C96.8766 143.026 97.1819 142.076 97.7926 141.396C98.4033 140.713 99.251 140.371 100.336 140.371C101.384 140.371 102.215 140.72 102.831 141.417C103.45 142.114 103.76 143.058 103.76 144.247ZM98.0524 144.247C98.0524 145.204 98.2438 145.933 98.6266 146.435C99.0094 146.936 99.5722 147.187 100.315 147.187C101.058 147.187 101.621 146.938 102.004 146.441C102.391 145.94 102.585 145.209 102.585 144.247C102.585 143.295 102.391 142.572 102.004 142.08C101.621 141.583 101.053 141.335 100.301 141.335C99.5586 141.335 98.998 141.579 98.6198 142.066C98.2415 142.554 98.0524 143.281 98.0524 144.247ZM114.465 146.995H114.403C113.879 147.756 113.095 148.137 112.052 148.137C111.072 148.137 110.309 147.802 109.762 147.132C109.219 146.462 108.948 145.509 108.948 144.274C108.948 143.039 109.222 142.08 109.769 141.396C110.315 140.713 111.076 140.371 112.052 140.371C113.068 140.371 113.847 140.74 114.39 141.479H114.478L114.431 140.938L114.403 140.412V137.363H115.538V148H114.615L114.465 146.995ZM112.195 147.187C112.97 147.187 113.531 146.977 113.877 146.558C114.228 146.134 114.403 145.452 114.403 144.514V144.274C114.403 143.213 114.226 142.456 113.87 142.005C113.519 141.549 112.956 141.321 112.182 141.321C111.516 141.321 111.006 141.581 110.65 142.101C110.299 142.616 110.124 143.345 110.124 144.288C110.124 145.245 110.299 145.967 110.65 146.455C111.001 146.943 111.516 147.187 112.195 147.187ZM121.102 148.137C119.995 148.137 119.12 147.799 118.477 147.125C117.839 146.451 117.52 145.514 117.52 144.315C117.52 143.108 117.816 142.148 118.409 141.438C119.006 140.727 119.806 140.371 120.808 140.371C121.747 140.371 122.49 140.681 123.037 141.301C123.584 141.916 123.857 142.729 123.857 143.741V144.459H118.696C118.719 145.339 118.94 146.006 119.359 146.462C119.783 146.918 120.378 147.146 121.143 147.146C121.95 147.146 122.747 146.977 123.536 146.64V147.651C123.135 147.825 122.754 147.948 122.394 148.021C122.039 148.098 121.608 148.137 121.102 148.137ZM120.795 141.321C120.193 141.321 119.712 141.517 119.352 141.909C118.997 142.301 118.787 142.843 118.723 143.536H122.64C122.64 142.821 122.481 142.274 122.162 141.896C121.843 141.513 121.387 141.321 120.795 141.321ZM135.457 148H128.888V147.022L131.519 144.377C132.322 143.566 132.85 142.987 133.105 142.641C133.361 142.294 133.552 141.957 133.68 141.629C133.807 141.301 133.871 140.948 133.871 140.569C133.871 140.036 133.709 139.615 133.386 139.305C133.062 138.99 132.613 138.833 132.039 138.833C131.624 138.833 131.23 138.901 130.856 139.038C130.487 139.175 130.075 139.423 129.619 139.783L129.018 139.011C129.938 138.245 130.941 137.862 132.025 137.862C132.964 137.862 133.7 138.104 134.233 138.587C134.767 139.065 135.033 139.71 135.033 140.521C135.033 141.155 134.855 141.782 134.5 142.401C134.144 143.021 133.479 143.805 132.504 144.753L130.316 146.893V146.947H135.457V148ZM143.509 142.989C143.509 144.716 143.236 146.006 142.689 146.858C142.147 147.711 141.315 148.137 140.194 148.137C139.118 148.137 138.3 147.701 137.74 146.831C137.179 145.956 136.899 144.675 136.899 142.989C136.899 141.248 137.17 139.956 137.713 139.113C138.255 138.27 139.082 137.849 140.194 137.849C141.279 137.849 142.101 138.288 142.662 139.168C143.227 140.048 143.509 141.321 143.509 142.989ZM138.047 142.989C138.047 144.443 138.218 145.503 138.56 146.168C138.902 146.829 139.447 147.159 140.194 147.159C140.95 147.159 141.497 146.824 141.835 146.154C142.176 145.48 142.347 144.425 142.347 142.989C142.347 141.554 142.176 140.503 141.835 139.838C141.497 139.168 140.95 138.833 140.194 138.833C139.447 138.833 138.902 139.163 138.56 139.824C138.218 140.48 138.047 141.535 138.047 142.989ZM151.452 148H144.883V147.022L147.515 144.377C148.317 143.566 148.846 142.987 149.101 142.641C149.356 142.294 149.547 141.957 149.675 141.629C149.803 141.301 149.866 140.948 149.866 140.569C149.866 140.036 149.705 139.615 149.381 139.305C149.058 138.99 148.609 138.833 148.034 138.833C147.62 138.833 147.226 138.901 146.852 139.038C146.483 139.175 146.07 139.423 145.615 139.783L145.013 139.011C145.934 138.245 146.936 137.862 148.021 137.862C148.96 137.862 149.696 138.104 150.229 138.587C150.762 139.065 151.029 139.71 151.029 140.521C151.029 141.155 150.851 141.782 150.495 142.401C150.14 143.021 149.475 143.805 148.499 144.753L146.312 146.893V146.947H151.452V148ZM157.085 148H155.977V140.877C155.977 140.285 155.996 139.724 156.032 139.195C155.936 139.291 155.829 139.391 155.711 139.496C155.592 139.601 155.05 140.045 154.084 140.829L153.482 140.05L156.128 138.006H157.085V148ZM160.769 144.767V143.728H164.126V144.767H160.769Z" fill="#696F8C"/>
<path d="M188.993 136.333C185.313 136.333 182.333 139.32 182.333 143C182.333 146.68 185.313 149.667 188.993 149.667C192.68 149.667 195.667 146.68 195.667 143C195.667 139.32 192.68 136.333 188.993 136.333ZM189 148.333C186.053 148.333 183.667 145.947 183.667 143C183.667 140.053 186.053 137.667 189 137.667C191.947 137.667 194.333 140.053 194.333 143C194.333 145.947 191.947 148.333 189 148.333ZM189.333 139.667H188.333V143.667L191.833 145.767L192.333 144.947L189.333 143.167V139.667Z" fill="#696F8C"/>
<path d="M212.859 140.266C212.859 140.995 212.654 141.591 212.242 142.055C211.836 142.518 211.258 142.828 210.508 142.984V143.047C211.424 143.161 212.104 143.453 212.547 143.922C212.99 144.391 213.211 145.005 213.211 145.766C213.211 146.854 212.833 147.693 212.078 148.281C211.323 148.865 210.25 149.156 208.859 149.156C208.255 149.156 207.701 149.109 207.195 149.016C206.695 148.927 206.208 148.768 205.734 148.539V147.305C206.229 147.549 206.755 147.737 207.312 147.867C207.875 147.992 208.406 148.055 208.906 148.055C210.88 148.055 211.867 147.281 211.867 145.734C211.867 144.349 210.779 143.656 208.602 143.656H207.477V142.539H208.617C209.508 142.539 210.214 142.344 210.734 141.953C211.255 141.557 211.516 141.01 211.516 140.312C211.516 139.755 211.323 139.318 210.938 139C210.557 138.682 210.039 138.523 209.383 138.523C208.883 138.523 208.411 138.591 207.969 138.727C207.526 138.862 207.021 139.112 206.453 139.477L205.797 138.602C206.266 138.232 206.805 137.943 207.414 137.734C208.029 137.521 208.674 137.414 209.352 137.414C210.461 137.414 211.323 137.669 211.938 138.18C212.552 138.685 212.859 139.38 212.859 140.266ZM215.328 148.172C215.328 147.823 215.406 147.56 215.562 147.383C215.724 147.201 215.953 147.109 216.25 147.109C216.552 147.109 216.786 147.201 216.953 147.383C217.125 147.56 217.211 147.823 217.211 148.172C217.211 148.51 217.125 148.771 216.953 148.953C216.781 149.135 216.547 149.227 216.25 149.227C215.984 149.227 215.763 149.146 215.586 148.984C215.414 148.818 215.328 148.547 215.328 148.172ZM215.328 141.273C215.328 140.57 215.635 140.219 216.25 140.219C216.89 140.219 217.211 140.57 217.211 141.273C217.211 141.612 217.125 141.872 216.953 142.055C216.781 142.237 216.547 142.328 216.25 142.328C215.984 142.328 215.763 142.247 215.586 142.086C215.414 141.919 215.328 141.648 215.328 141.273ZM227.218 146.375H225.523V149H224.281V146.375H218.726V145.242L224.148 137.516H225.523V145.195H227.218V146.375ZM224.281 145.195V141.398C224.281 140.654 224.307 139.812 224.359 138.875H224.296C224.046 139.375 223.812 139.789 223.593 140.117L220.023 145.195H224.281ZM235.882 143.273C235.882 145.247 235.569 146.721 234.944 147.695C234.324 148.669 233.374 149.156 232.093 149.156C230.863 149.156 229.929 148.659 229.288 147.664C228.647 146.664 228.327 145.201 228.327 143.273C228.327 141.284 228.637 139.807 229.257 138.844C229.876 137.88 230.822 137.398 232.093 137.398C233.332 137.398 234.272 137.901 234.913 138.906C235.559 139.911 235.882 141.367 235.882 143.273ZM229.639 143.273C229.639 144.935 229.835 146.146 230.225 146.906C230.616 147.661 231.238 148.039 232.093 148.039C232.957 148.039 233.582 147.656 233.968 146.891C234.358 146.12 234.554 144.914 234.554 143.273C234.554 141.633 234.358 140.432 233.968 139.672C233.582 138.906 232.957 138.523 232.093 138.523C231.238 138.523 230.616 138.901 230.225 139.656C229.835 140.406 229.639 141.612 229.639 143.273ZM249.623 140.906C249.623 142.062 249.227 142.953 248.436 143.578C247.649 144.198 246.522 144.508 245.053 144.508H243.709V149H242.381V137.578H245.342C248.196 137.578 249.623 138.688 249.623 140.906ZM243.709 143.367H244.904C246.081 143.367 246.933 143.177 247.459 142.797C247.985 142.417 248.248 141.807 248.248 140.969C248.248 140.214 248.001 139.651 247.506 139.281C247.011 138.911 246.24 138.727 245.193 138.727H243.709V143.367ZM257.06 149L253.185 138.875H253.123C253.196 139.677 253.232 140.63 253.232 141.734V149H252.006V137.578H254.006L257.623 147H257.685L261.334 137.578H263.318V149H261.99V141.641C261.99 140.797 262.026 139.88 262.099 138.891H262.037L258.131 149H257.06Z" fill="#696F8C"/>
</g>
<path d="M16 193C16 190.791 17.7909 189 20 189H515C517.209 189 519 190.791 519 193V333C519 335.209 517.209 337 515 337H20C17.7909 337 16 335.209 16 333V193Z" fill="white"/>
<path d="M43.99 209C38.47 209 34 213.48 34 219C34 224.52 38.47 229 43.99 229C49.52 229 54 224.52 54 219C54 213.48 49.52 209 43.99 209ZM44 227C39.58 227 36 223.42 36 219C36 214.58 39.58 211 44 211C48.42 211 52 214.58 52 219C52 223.42 48.42 227 44 227ZM44.5 214H43V220L48.25 223.15L49 221.92L44.5 219.25V214Z" fill="#3366FF"/>
<path d="M76.0234 214.805C76.0234 215.891 75.707 216.797 75.0742 217.523C74.4414 218.242 73.5508 218.727 72.4023 218.977V219.07C73.7773 219.242 74.8086 219.672 75.4961 220.359C76.1836 221.039 76.5273 221.945 76.5273 223.078C76.5273 224.727 75.9453 226 74.7812 226.898C73.6172 227.789 71.9609 228.234 69.8125 228.234C67.9141 228.234 66.3125 227.926 65.0078 227.309V224.859C65.7344 225.219 66.5039 225.496 67.3164 225.691C68.1289 225.887 68.9102 225.984 69.6602 225.984C70.9883 225.984 71.9805 225.738 72.6367 225.246C73.293 224.754 73.6211 223.992 73.6211 222.961C73.6211 222.047 73.2578 221.375 72.5312 220.945C71.8047 220.516 70.6641 220.301 69.1094 220.301H67.6211V218.062H69.1328C71.8672 218.062 73.2344 217.117 73.2344 215.227C73.2344 214.492 72.9961 213.926 72.5195 213.527C72.043 213.129 71.3398 212.93 70.4102 212.93C69.7617 212.93 69.1367 213.023 68.5352 213.211C67.9336 213.391 67.2227 213.746 66.4023 214.277L65.0547 212.355C66.625 211.199 68.4492 210.621 70.5273 210.621C72.2539 210.621 73.6016 210.992 74.5703 211.734C75.5391 212.477 76.0234 213.5 76.0234 214.805ZM79.0695 226.535C79.0695 225.965 79.218 225.527 79.5148 225.223C79.8117 224.918 80.2414 224.766 80.8039 224.766C81.3742 224.766 81.8078 224.926 82.1047 225.246C82.4016 225.559 82.55 225.988 82.55 226.535C82.55 227.09 82.3977 227.531 82.093 227.859C81.7961 228.18 81.3664 228.34 80.8039 228.34C80.2414 228.34 79.8117 228.18 79.5148 227.859C79.218 227.539 79.0695 227.098 79.0695 226.535ZM79.0695 216.527C79.0695 215.348 79.6477 214.758 80.8039 214.758C81.3898 214.758 81.8273 214.914 82.1164 215.227C82.4055 215.539 82.55 215.973 82.55 216.527C82.55 217.082 82.3977 217.523 82.093 217.852C81.7961 218.172 81.3664 218.332 80.8039 218.332C80.2414 218.332 79.8117 218.172 79.5148 217.852C79.218 217.531 79.0695 217.09 79.0695 216.527ZM97.1977 224.262H94.8891V228H92.2055V224.262H84.3773V222.141L92.2055 210.82H94.8891V221.977H97.1977V224.262ZM92.2055 221.977V217.676C92.2055 216.145 92.2445 214.891 92.3227 213.914H92.2289C92.0102 214.43 91.6664 215.055 91.1977 215.789L86.9438 221.977H92.2055ZM110.099 219.434C110.099 222.41 109.619 224.621 108.658 226.066C107.705 227.512 106.244 228.234 104.275 228.234C102.369 228.234 100.923 227.488 99.9391 225.996C98.9547 224.504 98.4625 222.316 98.4625 219.434C98.4625 216.41 98.9391 214.184 99.8922 212.754C100.853 211.316 102.314 210.598 104.275 210.598C106.189 210.598 107.638 211.348 108.623 212.848C109.607 214.348 110.099 216.543 110.099 219.434ZM101.252 219.434C101.252 221.77 101.49 223.438 101.966 224.438C102.451 225.438 103.22 225.938 104.275 225.938C105.33 225.938 106.099 225.43 106.584 224.414C107.076 223.398 107.322 221.738 107.322 219.434C107.322 217.137 107.076 215.477 106.584 214.453C106.099 213.422 105.33 212.906 104.275 212.906C103.22 212.906 102.451 213.41 101.966 214.418C101.49 215.426 101.252 217.098 101.252 219.434ZM130.582 216.047C130.582 217.836 129.996 219.207 128.824 220.16C127.652 221.113 125.984 221.59 123.82 221.59H122.039V228H119.238V210.867H124.172C126.312 210.867 127.914 211.305 128.977 212.18C130.047 213.055 130.582 214.344 130.582 216.047ZM122.039 219.234H123.527C124.965 219.234 126.02 218.984 126.691 218.484C127.363 217.984 127.699 217.203 127.699 216.141C127.699 215.156 127.398 214.422 126.797 213.938C126.195 213.453 125.258 213.211 123.984 213.211H122.039V219.234ZM141.21 228L136.241 213.691H136.148C136.28 215.816 136.347 217.809 136.347 219.668V228H133.804V210.867H137.753L142.511 224.496H142.581L147.48 210.867H151.441V228H148.745V219.527C148.745 218.676 148.765 217.566 148.804 216.199C148.851 214.832 148.89 214.004 148.921 213.715H148.827L143.683 228H141.21Z" fill="#3366FF"/>
<path d="M464.445 219.289C464.445 221.273 464.125 222.747 463.484 223.711C462.849 224.674 461.875 225.156 460.562 225.156C459.292 225.156 458.328 224.659 457.672 223.664C457.016 222.669 456.688 221.211 456.688 219.289C456.688 217.273 457.005 215.789 457.641 214.836C458.281 213.878 459.255 213.398 460.562 213.398C461.839 213.398 462.805 213.898 463.461 214.898C464.117 215.898 464.445 217.362 464.445 219.289ZM458.547 219.289C458.547 220.846 458.706 221.958 459.023 222.625C459.346 223.292 459.859 223.625 460.562 223.625C461.266 223.625 461.779 223.286 462.102 222.609C462.43 221.932 462.594 220.826 462.594 219.289C462.594 217.758 462.43 216.651 462.102 215.969C461.779 215.281 461.266 214.938 460.562 214.938C459.859 214.938 459.346 215.273 459.023 215.945C458.706 216.617 458.547 217.732 458.547 219.289ZM477.859 225H476.015V219.672C476.015 219.01 475.89 218.518 475.64 218.195C475.39 217.867 474.999 217.703 474.468 217.703C473.76 217.703 473.239 217.935 472.906 218.398C472.577 218.857 472.413 219.622 472.413 220.695V225H470.577V216.359H472.015L472.273 217.492H472.366C472.606 217.081 472.952 216.763 473.406 216.539C473.864 216.315 474.366 216.203 474.913 216.203C476.241 216.203 477.122 216.656 477.554 217.562H477.679C477.934 217.135 478.294 216.802 478.757 216.562C479.221 216.323 479.752 216.203 480.351 216.203C481.382 216.203 482.132 216.464 482.601 216.984C483.075 217.505 483.312 218.299 483.312 219.367V225H481.476V219.672C481.476 219.01 481.348 218.518 481.093 218.195C480.843 217.867 480.452 217.703 479.921 217.703C479.208 217.703 478.684 217.927 478.351 218.375C478.023 218.818 477.859 219.5 477.859 220.422V225ZM487.694 225H485.858V216.359H487.694V225ZM485.749 214.07C485.749 213.742 485.837 213.49 486.014 213.312C486.197 213.135 486.455 213.047 486.788 213.047C487.111 213.047 487.361 213.135 487.538 213.312C487.72 213.49 487.811 213.742 487.811 214.07C487.811 214.383 487.72 214.63 487.538 214.812C487.361 214.99 487.111 215.078 486.788 215.078C486.455 215.078 486.197 214.99 486.014 214.812C485.837 214.63 485.749 214.383 485.749 214.07ZM497.913 225H496.069V219.688C496.069 219.021 495.933 218.523 495.663 218.195C495.397 217.867 494.972 217.703 494.389 217.703C493.613 217.703 493.045 217.932 492.686 218.391C492.327 218.849 492.147 219.617 492.147 220.695V225H490.311V216.359H491.749L492.006 217.492H492.1C492.36 217.081 492.73 216.763 493.209 216.539C493.689 216.315 494.22 216.203 494.803 216.203C496.876 216.203 497.913 217.258 497.913 219.367V225Z" fill="#1F3D99"/>
<path d="M40.0938 259.891C40.0938 260.568 39.9271 261.151 39.5938 261.641C39.2656 262.13 38.7917 262.505 38.1719 262.766C37.5573 263.026 36.8229 263.156 35.9688 263.156C35.5521 263.156 35.1536 263.133 34.7734 263.086C34.3932 263.039 34.0339 262.971 33.6953 262.883C33.362 262.789 33.0573 262.677 32.7812 262.547V260.781C33.2448 260.984 33.763 261.169 34.3359 261.336C34.9089 261.497 35.4922 261.578 36.0859 261.578C36.5703 261.578 36.9714 261.516 37.2891 261.391C37.612 261.26 37.8516 261.078 38.0078 260.844C38.1641 260.604 38.2422 260.326 38.2422 260.008C38.2422 259.669 38.151 259.383 37.9688 259.148C37.7865 258.914 37.5104 258.701 37.1406 258.508C36.776 258.31 36.3177 258.099 35.7656 257.875C35.3906 257.724 35.0312 257.552 34.6875 257.359C34.349 257.167 34.0469 256.94 33.7812 256.68C33.5156 256.419 33.3047 256.112 33.1484 255.758C32.9974 255.398 32.9219 254.977 32.9219 254.492C32.9219 253.846 33.0755 253.294 33.3828 252.836C33.6953 252.378 34.1328 252.026 34.6953 251.781C35.263 251.536 35.9245 251.414 36.6797 251.414C37.2786 251.414 37.8411 251.477 38.3672 251.602C38.8984 251.727 39.4193 251.904 39.9297 252.133L39.3359 253.641C38.8672 253.448 38.4115 253.294 37.9688 253.18C37.5312 253.065 37.0833 253.008 36.625 253.008C36.2292 253.008 35.8932 253.068 35.6172 253.188C35.3411 253.307 35.1302 253.477 34.9844 253.695C34.8438 253.909 34.7734 254.164 34.7734 254.461C34.7734 254.794 34.8542 255.076 35.0156 255.305C35.1823 255.529 35.4375 255.734 35.7812 255.922C36.1302 256.109 36.5781 256.318 37.125 256.547C37.7552 256.807 38.2891 257.081 38.7266 257.367C39.1693 257.654 39.5078 257.997 39.7422 258.398C39.9766 258.794 40.0938 259.292 40.0938 259.891ZM43.9293 250.844V256.719C43.9293 256.984 43.9189 257.276 43.8981 257.594C43.8772 257.906 43.8564 258.201 43.8356 258.477H43.8746C44.01 258.294 44.1715 258.081 44.359 257.836C44.5517 257.591 44.734 257.378 44.9059 257.195L47.5465 254.352H49.6559L46.1949 258.07L49.8824 263H47.7262L44.9606 259.203L43.9293 260.086V263H42.0934V250.844H43.9293ZM53.0852 254.352V263H51.2493V254.352H53.0852ZM52.1789 251.039C52.4602 251.039 52.7024 251.115 52.9055 251.266C53.1138 251.417 53.218 251.677 53.218 252.047C53.218 252.411 53.1138 252.672 52.9055 252.828C52.7024 252.979 52.4602 253.055 52.1789 253.055C51.8873 253.055 51.6399 252.979 51.4368 252.828C51.2388 252.672 51.1399 252.411 51.1399 252.047C51.1399 251.677 51.2388 251.417 51.4368 251.266C51.6399 251.115 51.8873 251.039 52.1789 251.039ZM60.2098 254.188C61.1838 254.188 61.9416 254.44 62.4832 254.945C63.0301 255.445 63.3036 256.25 63.3036 257.359V263H61.4676V257.703C61.4676 257.031 61.3296 256.529 61.0536 256.195C60.7775 255.857 60.3504 255.688 59.7723 255.688C58.9338 255.688 58.3504 255.945 58.0223 256.461C57.6994 256.977 57.5379 257.724 57.5379 258.703V263H55.702V254.352H57.1317L57.3895 255.523H57.4911C57.6786 255.221 57.9103 254.974 58.1864 254.781C58.4676 254.583 58.7801 254.435 59.1239 254.336C59.4728 254.237 59.8348 254.188 60.2098 254.188ZM71.6704 260.531C71.6704 261.099 71.5324 261.578 71.2563 261.969C70.9803 262.359 70.5766 262.656 70.0454 262.859C69.5193 263.057 68.8735 263.156 68.1079 263.156C67.5037 263.156 66.9829 263.112 66.5454 263.023C66.1131 262.94 65.7042 262.81 65.3188 262.633V261.047C65.7303 261.24 66.1912 261.406 66.7016 261.547C67.2173 261.688 67.7042 261.758 68.1626 261.758C68.7667 261.758 69.2016 261.664 69.4673 261.477C69.7329 261.284 69.8657 261.029 69.8657 260.711C69.8657 260.523 69.811 260.357 69.7016 260.211C69.5975 260.06 69.3995 259.906 69.1079 259.75C68.8214 259.589 68.3995 259.396 67.8423 259.172C67.2954 258.953 66.8344 258.734 66.4594 258.516C66.0844 258.297 65.8006 258.034 65.6079 257.727C65.4152 257.414 65.3188 257.016 65.3188 256.531C65.3188 255.766 65.6209 255.185 66.2251 254.789C66.8344 254.388 67.6391 254.188 68.6391 254.188C69.1704 254.188 69.6704 254.242 70.1391 254.352C70.6131 254.456 71.0766 254.609 71.5298 254.812L70.9516 256.195C70.561 256.023 70.1678 255.883 69.7719 255.773C69.3813 255.659 68.9829 255.602 68.5766 255.602C68.1027 255.602 67.7407 255.674 67.4907 255.82C67.2459 255.966 67.1235 256.174 67.1235 256.445C67.1235 256.648 67.1834 256.82 67.3032 256.961C67.423 257.102 67.6287 257.242 67.9204 257.383C68.2173 257.523 68.6287 257.698 69.1548 257.906C69.6704 258.104 70.1157 258.312 70.4907 258.531C70.8709 258.745 71.1626 259.008 71.3657 259.32C71.5688 259.633 71.6704 260.036 71.6704 260.531ZM82.8337 253.008C82.2868 253.008 81.7972 253.107 81.3649 253.305C80.9379 253.503 80.5759 253.789 80.279 254.164C79.9821 254.534 79.7556 254.984 79.5993 255.516C79.4431 256.042 79.3649 256.635 79.3649 257.297C79.3649 258.182 79.4899 258.945 79.7399 259.586C79.9899 260.221 80.3701 260.711 80.8806 261.055C81.391 261.393 82.0368 261.562 82.8181 261.562C83.3024 261.562 83.7738 261.516 84.2321 261.422C84.6905 261.328 85.1644 261.201 85.654 261.039V262.633C85.1905 262.815 84.7217 262.948 84.2477 263.031C83.7738 263.115 83.2269 263.156 82.6071 263.156C81.4405 263.156 80.4717 262.914 79.7009 262.43C78.9352 261.945 78.3623 261.263 77.9821 260.383C77.6071 259.503 77.4196 258.471 77.4196 257.289C77.4196 256.424 77.5394 255.633 77.779 254.914C78.0186 254.195 78.3675 253.576 78.8259 253.055C79.2842 252.529 79.8493 252.125 80.5212 251.844C81.1983 251.557 81.9717 251.414 82.8415 251.414C83.4144 251.414 83.9769 251.479 84.529 251.609C85.0863 251.734 85.6019 251.914 86.0759 252.148L85.4196 253.695C85.0238 253.508 84.6097 253.346 84.1774 253.211C83.7451 253.076 83.2972 253.008 82.8337 253.008ZM95.5599 258.656C95.5599 259.375 95.4661 260.013 95.2786 260.57C95.0911 261.128 94.8177 261.599 94.4583 261.984C94.0989 262.365 93.6666 262.656 93.1614 262.859C92.6562 263.057 92.0859 263.156 91.4505 263.156C90.8568 263.156 90.3125 263.057 89.8177 262.859C89.3229 262.656 88.8932 262.365 88.5286 261.984C88.1693 261.599 87.8906 261.128 87.6927 260.57C87.4948 260.013 87.3958 259.375 87.3958 258.656C87.3958 257.703 87.5599 256.896 87.888 256.234C88.2213 255.568 88.6953 255.06 89.3099 254.711C89.9245 254.362 90.6562 254.188 91.5052 254.188C92.3021 254.188 93.0052 254.362 93.6146 254.711C94.2239 255.06 94.7005 255.568 95.0443 256.234C95.388 256.901 95.5599 257.708 95.5599 258.656ZM89.2864 258.656C89.2864 259.286 89.362 259.826 89.513 260.273C89.6693 260.721 89.9088 261.065 90.2318 261.305C90.5547 261.539 90.9713 261.656 91.4818 261.656C91.9922 261.656 92.4088 261.539 92.7318 261.305C93.0547 261.065 93.2916 260.721 93.4427 260.273C93.5937 259.826 93.6693 259.286 93.6693 258.656C93.6693 258.026 93.5937 257.492 93.4427 257.055C93.2916 256.612 93.0547 256.276 92.7318 256.047C92.4088 255.812 91.9896 255.695 91.4739 255.695C90.7135 255.695 90.1588 255.951 89.8099 256.461C89.4609 256.971 89.2864 257.703 89.2864 258.656ZM102.161 254.188C103.135 254.188 103.893 254.44 104.435 254.945C104.981 255.445 105.255 256.25 105.255 257.359V263H103.419V257.703C103.419 257.031 103.281 256.529 103.005 256.195C102.729 255.857 102.302 255.688 101.724 255.688C100.885 255.688 100.302 255.945 99.9736 256.461C99.6506 256.977 99.4892 257.724 99.4892 258.703V263H97.6533V254.352H99.0829L99.3408 255.523H99.4423C99.6298 255.221 99.8616 254.974 100.138 254.781C100.419 254.583 100.731 254.435 101.075 254.336C101.424 254.237 101.786 254.188 102.161 254.188ZM110.715 263.156C109.684 263.156 108.856 262.781 108.231 262.031C107.611 261.276 107.301 260.164 107.301 258.695C107.301 257.211 107.616 256.089 108.247 255.328C108.882 254.568 109.718 254.188 110.754 254.188C111.192 254.188 111.575 254.247 111.903 254.367C112.231 254.482 112.512 254.638 112.747 254.836C112.986 255.034 113.189 255.255 113.356 255.5H113.442C113.416 255.339 113.385 255.107 113.348 254.805C113.317 254.497 113.301 254.214 113.301 253.953V250.844H115.145V263H113.708L113.379 261.82H113.301C113.145 262.07 112.947 262.297 112.708 262.5C112.473 262.698 112.192 262.857 111.864 262.977C111.541 263.096 111.158 263.156 110.715 263.156ZM111.231 261.664C112.017 261.664 112.572 261.438 112.895 260.984C113.218 260.531 113.385 259.852 113.395 258.945V258.703C113.395 257.734 113.239 256.992 112.926 256.477C112.614 255.956 112.044 255.695 111.215 255.695C110.554 255.695 110.049 255.964 109.7 256.5C109.356 257.031 109.184 257.773 109.184 258.727C109.184 259.68 109.356 260.409 109.7 260.914C110.049 261.414 110.559 261.664 111.231 261.664ZM119.598 254.352V263H117.762V254.352H119.598ZM118.692 251.039C118.973 251.039 119.215 251.115 119.418 251.266C119.626 251.417 119.731 251.677 119.731 252.047C119.731 252.411 119.626 252.672 119.418 252.828C119.215 252.979 118.973 253.055 118.692 253.055C118.4 253.055 118.152 252.979 117.949 252.828C117.751 252.672 117.652 252.411 117.652 252.047C117.652 251.677 117.751 251.417 117.949 251.266C118.152 251.115 118.4 251.039 118.692 251.039ZM125.433 261.672C125.673 261.672 125.91 261.651 126.144 261.609C126.379 261.562 126.592 261.508 126.785 261.445V262.836C126.582 262.924 126.319 263 125.996 263.062C125.673 263.125 125.337 263.156 124.988 263.156C124.498 263.156 124.058 263.076 123.668 262.914C123.277 262.747 122.967 262.464 122.738 262.062C122.509 261.661 122.394 261.107 122.394 260.398V255.75H121.215V254.93L122.48 254.281L123.082 252.43H124.238V254.352H126.715V255.75H124.238V260.375C124.238 260.812 124.347 261.138 124.566 261.352C124.785 261.565 125.074 261.672 125.433 261.672ZM130.363 254.352V263H128.527V254.352H130.363ZM129.456 251.039C129.738 251.039 129.98 251.115 130.183 251.266C130.391 251.417 130.495 251.677 130.495 252.047C130.495 252.411 130.391 252.672 130.183 252.828C129.98 252.979 129.738 253.055 129.456 253.055C129.165 253.055 128.917 252.979 128.714 252.828C128.516 252.672 128.417 252.411 128.417 252.047C128.417 251.677 128.516 251.417 128.714 251.266C128.917 251.115 129.165 251.039 129.456 251.039ZM140.636 258.656C140.636 259.375 140.542 260.013 140.354 260.57C140.167 261.128 139.894 261.599 139.534 261.984C139.175 262.365 138.743 262.656 138.237 262.859C137.732 263.057 137.162 263.156 136.526 263.156C135.933 263.156 135.388 263.057 134.894 262.859C134.399 262.656 133.969 262.365 133.604 261.984C133.245 261.599 132.966 261.128 132.769 260.57C132.571 260.013 132.472 259.375 132.472 258.656C132.472 257.703 132.636 256.896 132.964 256.234C133.297 255.568 133.771 255.06 134.386 254.711C135 254.362 135.732 254.188 136.581 254.188C137.378 254.188 138.081 254.362 138.69 254.711C139.3 255.06 139.776 255.568 140.12 256.234C140.464 256.901 140.636 257.708 140.636 258.656ZM134.362 258.656C134.362 259.286 134.438 259.826 134.589 260.273C134.745 260.721 134.985 261.065 135.308 261.305C135.631 261.539 136.047 261.656 136.558 261.656C137.068 261.656 137.485 261.539 137.808 261.305C138.131 261.065 138.368 260.721 138.519 260.273C138.67 259.826 138.745 259.286 138.745 258.656C138.745 258.026 138.67 257.492 138.519 257.055C138.368 256.612 138.131 256.276 137.808 256.047C137.485 255.812 137.065 255.695 136.55 255.695C135.789 255.695 135.235 255.951 134.886 256.461C134.537 256.971 134.362 257.703 134.362 258.656ZM147.237 254.188C148.211 254.188 148.969 254.44 149.51 254.945C150.057 255.445 150.331 256.25 150.331 257.359V263H148.495V257.703C148.495 257.031 148.357 256.529 148.081 256.195C147.805 255.857 147.378 255.688 146.799 255.688C145.961 255.688 145.378 255.945 145.049 256.461C144.727 256.977 144.565 257.724 144.565 258.703V263H142.729V254.352H144.159L144.417 255.523H144.518C144.706 255.221 144.937 254.974 145.214 254.781C145.495 254.583 145.807 254.435 146.151 254.336C146.5 254.237 146.862 254.188 147.237 254.188ZM158.698 260.531C158.698 261.099 158.559 261.578 158.283 261.969C158.007 262.359 157.604 262.656 157.073 262.859C156.546 263.057 155.901 263.156 155.135 263.156C154.531 263.156 154.01 263.112 153.573 263.023C153.14 262.94 152.731 262.81 152.346 262.633V261.047C152.757 261.24 153.218 261.406 153.729 261.547C154.244 261.688 154.731 261.758 155.19 261.758C155.794 261.758 156.229 261.664 156.494 261.477C156.76 261.284 156.893 261.029 156.893 260.711C156.893 260.523 156.838 260.357 156.729 260.211C156.625 260.06 156.427 259.906 156.135 259.75C155.849 259.589 155.427 259.396 154.869 259.172C154.323 258.953 153.862 258.734 153.487 258.516C153.112 258.297 152.828 258.034 152.635 257.727C152.442 257.414 152.346 257.016 152.346 256.531C152.346 255.766 152.648 255.185 153.252 254.789C153.862 254.388 154.666 254.188 155.666 254.188C156.198 254.188 156.698 254.242 157.166 254.352C157.64 254.456 158.104 254.609 158.557 254.812L157.979 256.195C157.588 256.023 157.195 255.883 156.799 255.773C156.408 255.659 156.01 255.602 155.604 255.602C155.13 255.602 154.768 255.674 154.518 255.82C154.273 255.966 154.151 256.174 154.151 256.445C154.151 256.648 154.211 256.82 154.33 256.961C154.45 257.102 154.656 257.242 154.948 257.383C155.244 257.523 155.656 257.698 156.182 257.906C156.698 258.104 157.143 258.312 157.518 258.531C157.898 258.745 158.19 259.008 158.393 259.32C158.596 259.633 158.698 260.036 158.698 260.531Z" fill="#474D66"/>
<path d="M42.7734 289.18C42.7734 290.466 42.5339 291.542 42.0547 292.406C41.5755 293.266 40.8802 293.914 39.9688 294.352C39.0573 294.784 37.9583 295 36.6719 295H33.5V283.578H37.0156C38.1979 283.578 39.2188 283.792 40.0781 284.219C40.9375 284.641 41.6016 285.268 42.0703 286.102C42.5391 286.93 42.7734 287.956 42.7734 289.18ZM40.8203 289.234C40.8203 288.297 40.6719 287.526 40.375 286.922C40.0833 286.318 39.651 285.87 39.0781 285.578C38.5104 285.281 37.8099 285.133 36.9766 285.133H35.375V293.43H36.7031C38.0833 293.43 39.1146 293.078 39.7969 292.375C40.4792 291.672 40.8203 290.625 40.8203 289.234ZM49.4137 286.188C49.5595 286.188 49.7184 286.195 49.8903 286.211C50.0621 286.227 50.2106 286.247 50.3356 286.273L50.1637 287.992C50.0543 287.961 49.9189 287.938 49.7574 287.922C49.6012 287.906 49.4606 287.898 49.3356 287.898C49.0074 287.898 48.6949 287.953 48.3981 288.062C48.1012 288.167 47.8382 288.328 47.609 288.547C47.3798 288.76 47.2001 289.029 47.0699 289.352C46.9397 289.674 46.8746 290.049 46.8746 290.477V295H45.0309V286.352H46.4684L46.7184 287.875H46.8043C46.9762 287.568 47.1897 287.286 47.4449 287.031C47.7001 286.776 47.9918 286.573 48.3199 286.422C48.6533 286.266 49.0179 286.188 49.4137 286.188ZM51.6555 294.031C51.6555 293.604 51.7649 293.305 51.9836 293.133C52.2076 292.956 52.4784 292.867 52.7961 292.867C53.1138 292.867 53.3847 292.956 53.6086 293.133C53.8378 293.305 53.9524 293.604 53.9524 294.031C53.9524 294.448 53.8378 294.75 53.6086 294.938C53.3847 295.12 53.1138 295.211 52.7961 295.211C52.4784 295.211 52.2076 295.12 51.9836 294.938C51.7649 294.75 51.6555 294.448 51.6555 294.031ZM63.9438 283.578C65.4178 283.578 66.4933 283.88 67.1704 284.484C67.8475 285.089 68.186 285.935 68.186 287.023C68.186 287.518 68.1079 287.99 67.9516 288.438C67.8006 288.88 67.5506 289.273 67.2016 289.617C66.8527 289.956 66.3917 290.224 65.8188 290.422C65.2511 290.62 64.5506 290.719 63.7173 290.719H62.4985V295H60.6235V283.578H63.9438ZM63.8188 285.133H62.4985V289.156H63.5219C64.1105 289.156 64.6105 289.089 65.0219 288.953C65.4334 288.812 65.7459 288.591 65.9594 288.289C66.173 287.987 66.2798 287.589 66.2798 287.094C66.2798 286.432 66.0792 285.94 65.6782 285.617C65.2824 285.294 64.6626 285.133 63.8188 285.133ZM73.6544 286.188C74.7481 286.188 75.5736 286.43 76.1309 286.914C76.6934 287.398 76.9747 288.154 76.9747 289.18V295H75.67L75.3184 293.773H75.2559C75.0111 294.086 74.7585 294.344 74.4981 294.547C74.2377 294.75 73.9356 294.901 73.5919 295C73.2533 295.104 72.8393 295.156 72.3497 295.156C71.8341 295.156 71.3731 295.062 70.9669 294.875C70.5606 294.682 70.2403 294.391 70.0059 294C69.7716 293.609 69.6544 293.115 69.6544 292.516C69.6544 291.625 69.9851 290.956 70.6466 290.508C71.3132 290.06 72.3184 289.812 73.6622 289.766L75.1622 289.711V289.258C75.1622 288.659 75.0216 288.232 74.7403 287.977C74.4643 287.721 74.0736 287.594 73.5684 287.594C73.1361 287.594 72.7169 287.656 72.3106 287.781C71.9044 287.906 71.5085 288.06 71.1231 288.242L70.5294 286.945C70.9512 286.721 71.4304 286.539 71.9669 286.398C72.5085 286.258 73.071 286.188 73.6544 286.188ZM75.1544 290.867L74.0372 290.906C73.1205 290.938 72.4773 291.094 72.1075 291.375C71.7377 291.656 71.5528 292.042 71.5528 292.531C71.5528 292.958 71.6804 293.271 71.9356 293.469C72.1908 293.661 72.5268 293.758 72.9434 293.758C73.5789 293.758 74.1049 293.578 74.5216 293.219C74.9434 292.854 75.1544 292.32 75.1544 291.617V290.867ZM83.9118 286.188C84.0576 286.188 84.2165 286.195 84.3884 286.211C84.5602 286.227 84.7087 286.247 84.8337 286.273L84.6618 287.992C84.5524 287.961 84.417 287.938 84.2556 287.922C84.0993 287.906 83.9587 287.898 83.8337 287.898C83.5056 287.898 83.1931 287.953 82.8962 288.062C82.5993 288.167 82.3363 288.328 82.1071 288.547C81.878 288.76 81.6983 289.029 81.5681 289.352C81.4379 289.674 81.3727 290.049 81.3727 290.477V295H79.529V286.352H80.9665L81.2165 287.875H81.3024C81.4743 287.568 81.6879 287.286 81.9431 287.031C82.1983 286.776 82.4899 286.573 82.8181 286.422C83.1514 286.266 83.516 286.188 83.9118 286.188ZM88.2552 282.844V288.719C88.2552 288.984 88.2448 289.276 88.2239 289.594C88.2031 289.906 88.1823 290.201 88.1614 290.477H88.2005C88.3359 290.294 88.4974 290.081 88.6849 289.836C88.8776 289.591 89.0599 289.378 89.2318 289.195L91.8724 286.352H93.9818L90.5208 290.07L94.2083 295H92.0521L89.2864 291.203L88.2552 292.086V295H86.4193V282.844H88.2552ZM99.0204 286.188C99.7913 286.188 100.453 286.346 101.005 286.664C101.557 286.982 101.981 287.432 102.278 288.016C102.575 288.599 102.724 289.297 102.724 290.109V291.094H96.9501C96.971 291.932 97.1949 292.578 97.622 293.031C98.0543 293.484 98.6585 293.711 99.4345 293.711C99.9866 293.711 100.481 293.659 100.919 293.555C101.362 293.445 101.817 293.286 102.286 293.078V294.57C101.854 294.773 101.414 294.922 100.966 295.016C100.518 295.109 99.9814 295.156 99.3564 295.156C98.5074 295.156 97.76 294.992 97.1142 294.664C96.4736 294.331 95.971 293.836 95.6064 293.18C95.247 292.523 95.0673 291.708 95.0673 290.734C95.0673 289.766 95.2314 288.943 95.5595 288.266C95.8876 287.589 96.3486 287.073 96.9423 286.719C97.5361 286.365 98.2288 286.188 99.0204 286.188ZM99.0204 287.57C98.4423 287.57 97.9736 287.758 97.6142 288.133C97.26 288.508 97.0517 289.057 96.9892 289.781H100.927C100.921 289.349 100.849 288.966 100.708 288.633C100.573 288.299 100.364 288.039 100.083 287.852C99.8069 287.664 99.4527 287.57 99.0204 287.57ZM109.161 286.188C109.307 286.188 109.465 286.195 109.637 286.211C109.809 286.227 109.958 286.247 110.083 286.273L109.911 287.992C109.801 287.961 109.666 287.938 109.504 287.922C109.348 287.906 109.208 287.898 109.083 287.898C108.754 287.898 108.442 287.953 108.145 288.062C107.848 288.167 107.585 288.328 107.356 288.547C107.127 288.76 106.947 289.029 106.817 289.352C106.687 289.674 106.622 290.049 106.622 290.477V295H104.778V286.352H106.215L106.465 287.875H106.551C106.723 287.568 106.937 287.286 107.192 287.031C107.447 286.776 107.739 286.573 108.067 286.422C108.4 286.266 108.765 286.188 109.161 286.188ZM123.074 295L121.957 291.828H117.59L116.472 295H114.496L118.746 283.531H120.824L125.066 295H123.074ZM121.472 290.219L120.386 287.094C120.345 286.958 120.285 286.768 120.207 286.523C120.129 286.273 120.051 286.021 119.972 285.766C119.894 285.505 119.829 285.286 119.777 285.109C119.725 285.323 119.66 285.562 119.582 285.828C119.509 286.089 119.436 286.333 119.363 286.562C119.295 286.792 119.243 286.969 119.207 287.094L118.113 290.219H121.472ZM130.878 286.188C131.852 286.188 132.61 286.44 133.152 286.945C133.699 287.445 133.972 288.25 133.972 289.359V295H132.136V289.703C132.136 289.031 131.998 288.529 131.722 288.195C131.446 287.857 131.019 287.688 130.441 287.688C129.602 287.688 129.019 287.945 128.691 288.461C128.368 288.977 128.206 289.724 128.206 290.703V295H126.37V286.352H127.8L128.058 287.523H128.16C128.347 287.221 128.579 286.974 128.855 286.781C129.136 286.583 129.449 286.435 129.792 286.336C130.141 286.237 130.503 286.188 130.878 286.188ZM139.433 295.156C138.401 295.156 137.573 294.781 136.948 294.031C136.328 293.276 136.019 292.164 136.019 290.695C136.019 289.211 136.334 288.089 136.964 287.328C137.599 286.568 138.435 286.188 139.472 286.188C139.909 286.188 140.292 286.247 140.62 286.367C140.948 286.482 141.229 286.638 141.464 286.836C141.703 287.034 141.907 287.255 142.073 287.5H142.159C142.133 287.339 142.102 287.107 142.065 286.805C142.034 286.497 142.019 286.214 142.019 285.953V282.844H143.862V295H142.425L142.097 293.82H142.019C141.862 294.07 141.664 294.297 141.425 294.5C141.19 294.698 140.909 294.857 140.581 294.977C140.258 295.096 139.875 295.156 139.433 295.156ZM139.948 293.664C140.735 293.664 141.289 293.438 141.612 292.984C141.935 292.531 142.102 291.852 142.112 290.945V290.703C142.112 289.734 141.956 288.992 141.644 288.477C141.331 287.956 140.761 287.695 139.933 287.695C139.271 287.695 138.766 287.964 138.417 288.5C138.073 289.031 137.901 289.773 137.901 290.727C137.901 291.68 138.073 292.409 138.417 292.914C138.766 293.414 139.276 293.664 139.948 293.664ZM150.862 286.188C151.008 286.188 151.167 286.195 151.339 286.211C151.51 286.227 151.659 286.247 151.784 286.273L151.612 287.992C151.503 287.961 151.367 287.938 151.206 287.922C151.049 287.906 150.909 287.898 150.784 287.898C150.456 287.898 150.143 287.953 149.846 288.062C149.549 288.167 149.286 288.328 149.057 288.547C148.828 288.76 148.648 289.029 148.518 289.352C148.388 289.674 148.323 290.049 148.323 290.477V295H146.479V286.352H147.917L148.167 287.875H148.253C148.424 287.568 148.638 287.286 148.893 287.031C149.148 286.776 149.44 286.573 149.768 286.422C150.102 286.266 150.466 286.188 150.862 286.188ZM156.815 286.188C157.586 286.188 158.247 286.346 158.799 286.664C159.351 286.982 159.776 287.432 160.073 288.016C160.369 288.599 160.518 289.297 160.518 290.109V291.094H154.744C154.765 291.932 154.989 292.578 155.416 293.031C155.849 293.484 156.453 293.711 157.229 293.711C157.781 293.711 158.276 293.659 158.713 293.555C159.156 293.445 159.612 293.286 160.08 293.078V294.57C159.648 294.773 159.208 294.922 158.76 295.016C158.312 295.109 157.776 295.156 157.151 295.156C156.302 295.156 155.554 294.992 154.908 294.664C154.268 294.331 153.765 293.836 153.401 293.18C153.041 292.523 152.862 291.708 152.862 290.734C152.862 289.766 153.026 288.943 153.354 288.266C153.682 287.589 154.143 287.073 154.737 286.719C155.33 286.365 156.023 286.188 156.815 286.188ZM156.815 287.57C156.237 287.57 155.768 287.758 155.408 288.133C155.054 288.508 154.846 289.057 154.783 289.781H158.721C158.716 289.349 158.643 288.966 158.502 288.633C158.367 288.299 158.158 288.039 157.877 287.852C157.601 287.664 157.247 287.57 156.815 287.57ZM165.963 286.188C167.057 286.188 167.882 286.43 168.439 286.914C169.002 287.398 169.283 288.154 169.283 289.18V295H167.978L167.627 293.773H167.564C167.32 294.086 167.067 294.344 166.807 294.547C166.546 294.75 166.244 294.901 165.9 295C165.562 295.104 165.148 295.156 164.658 295.156C164.142 295.156 163.682 295.062 163.275 294.875C162.869 294.682 162.549 294.391 162.314 294C162.08 293.609 161.963 293.115 161.963 292.516C161.963 291.625 162.293 290.956 162.955 290.508C163.622 290.06 164.627 289.812 165.971 289.766L167.471 289.711V289.258C167.471 288.659 167.33 288.232 167.049 287.977C166.773 287.721 166.382 287.594 165.877 287.594C165.445 287.594 165.025 287.656 164.619 287.781C164.213 287.906 163.817 288.06 163.432 288.242L162.838 286.945C163.26 286.721 163.739 286.539 164.275 286.398C164.817 286.258 165.379 286.188 165.963 286.188ZM167.463 290.867L166.346 290.906C165.429 290.938 164.786 291.094 164.416 291.375C164.046 291.656 163.861 292.042 163.861 292.531C163.861 292.958 163.989 293.271 164.244 293.469C164.499 293.661 164.835 293.758 165.252 293.758C165.887 293.758 166.413 293.578 166.83 293.219C167.252 292.854 167.463 292.32 167.463 291.617V290.867Z" fill="#474D66"/>
<path d="M40.9209 312.006V318.473C40.9209 319.612 40.5768 320.507 39.8887 321.159C39.2005 321.811 38.2549 322.137 37.0518 322.137C35.8486 322.137 34.9167 321.809 34.2559 321.152C33.5996 320.496 33.2715 319.594 33.2715 318.445V312.006H34.4336V318.527C34.4336 319.361 34.6615 320.002 35.1172 320.448C35.5729 320.895 36.2428 321.118 37.127 321.118C37.9701 321.118 38.6195 320.895 39.0752 320.448C39.5309 319.997 39.7588 319.352 39.7588 318.514V312.006H40.9209ZM46.8063 314.371C47.139 314.371 47.4375 314.398 47.7018 314.453L47.5446 315.506C47.2347 315.438 46.9613 315.403 46.7243 315.403C46.1182 315.403 45.5986 315.649 45.1657 316.142C44.7373 316.634 44.5231 317.247 44.5231 317.98V322H43.3883V314.508H44.3249L44.4548 315.896H44.5094C44.7874 315.408 45.1224 315.032 45.5143 314.768C45.9062 314.503 46.3369 314.371 46.8063 314.371ZM52.5755 314.385C53.5599 314.385 54.3232 314.722 54.8656 315.396C55.4124 316.066 55.6859 317.017 55.6859 318.247C55.6859 319.478 55.4102 320.435 54.8587 321.118C54.3118 321.797 53.5508 322.137 52.5755 322.137C52.0879 322.137 51.6413 322.048 51.2357 321.87C50.8346 321.688 50.4974 321.41 50.224 321.036H50.1419L49.9027 322H49.0892V311.363H50.224V313.947C50.224 314.526 50.2057 315.046 50.1693 315.506H50.224C50.7526 314.758 51.5365 314.385 52.5755 314.385ZM52.4115 315.335C51.6367 315.335 51.0784 315.558 50.7366 316.005C50.3949 316.447 50.224 317.194 50.224 318.247C50.224 319.3 50.3994 320.054 50.7503 320.51C51.1012 320.961 51.6641 321.187 52.4388 321.187C53.1361 321.187 53.6556 320.934 53.9974 320.428C54.3392 319.917 54.5101 319.186 54.5101 318.233C54.5101 317.258 54.3392 316.531 53.9974 316.053C53.6556 315.574 53.1269 315.335 52.4115 315.335ZM58.7959 322H57.6611V314.508H58.7959V322ZM57.5654 312.478C57.5654 312.218 57.6292 312.029 57.7568 311.91C57.8844 311.787 58.0439 311.726 58.2353 311.726C58.4176 311.726 58.5749 311.787 58.707 311.91C58.8392 312.033 58.9053 312.222 58.9053 312.478C58.9053 312.733 58.8392 312.924 58.707 313.052C58.5749 313.175 58.4176 313.236 58.2353 313.236C58.0439 313.236 57.8844 313.175 57.7568 313.052C57.6292 312.924 57.5654 312.733 57.5654 312.478ZM66.3151 322V317.153C66.3151 316.543 66.1761 316.087 65.8981 315.786C65.6201 315.485 65.1849 315.335 64.5924 315.335C63.8086 315.335 63.2344 315.547 62.8698 315.971C62.5052 316.395 62.3229 317.094 62.3229 318.069V322H61.1881V314.508H62.111L62.2956 315.533H62.3503C62.5827 315.164 62.9085 314.879 63.3278 314.679C63.7471 314.474 64.2142 314.371 64.7292 314.371C65.6315 314.371 66.3105 314.59 66.7663 315.027C67.222 315.46 67.4499 316.155 67.4499 317.112V322H66.3151ZM74.3812 322L74.1556 320.934H74.1009C73.7272 321.403 73.3535 321.722 72.9798 321.891C72.6107 322.055 72.1481 322.137 71.5921 322.137C70.8493 322.137 70.2659 321.945 69.8421 321.562C69.4228 321.18 69.2132 320.635 69.2132 319.929C69.2132 318.416 70.4232 317.623 72.8431 317.55L74.1146 317.509V317.044C74.1146 316.456 73.987 316.023 73.7318 315.745C73.4811 315.463 73.0778 315.321 72.5218 315.321C71.8974 315.321 71.1911 315.513 70.4027 315.896L70.054 315.027C70.4232 314.827 70.8265 314.67 71.264 314.556C71.706 314.442 72.1481 314.385 72.5902 314.385C73.4834 314.385 74.1442 314.583 74.5726 314.979C75.0055 315.376 75.222 316.012 75.222 316.887V322H74.3812ZM71.8177 321.2C72.5241 321.2 73.0778 321.007 73.4788 320.619C73.8844 320.232 74.0872 319.689 74.0872 318.992V318.315L72.9525 318.363C72.0501 318.395 71.3984 318.536 70.9974 318.787C70.6009 319.033 70.4027 319.418 70.4027 319.942C70.4027 320.353 70.5257 320.665 70.7718 320.879C71.0224 321.093 71.3711 321.2 71.8177 321.2ZM87.6286 322L86.3844 318.821H82.3786L81.1481 322H79.9723L83.9235 311.965H84.901L88.8317 322H87.6286ZM86.0221 317.775L84.86 314.679C84.7096 314.287 84.5547 313.806 84.3952 313.236C84.2949 313.674 84.1513 314.155 83.9645 314.679L82.7887 317.775H86.0221ZM93.4388 314.371C93.7715 314.371 94.07 314.398 94.3343 314.453L94.1771 315.506C93.8672 315.438 93.5937 315.403 93.3568 315.403C92.7506 315.403 92.2311 315.649 91.7982 316.142C91.3698 316.634 91.1556 317.247 91.1556 317.98V322H90.0208V314.508H90.9573L91.0872 315.896H91.1419C91.4199 315.408 91.7549 315.032 92.1468 314.768C92.5387 314.503 92.9694 314.371 93.4388 314.371ZM100.329 322L100.103 320.934H100.049C99.6751 321.403 99.3014 321.722 98.9277 321.891C98.5586 322.055 98.096 322.137 97.54 322.137C96.7972 322.137 96.2138 321.945 95.79 321.562C95.3707 321.18 95.1611 320.635 95.1611 319.929C95.1611 318.416 96.3711 317.623 98.791 317.55L100.062 317.509V317.044C100.062 316.456 99.9349 316.023 99.6797 315.745C99.429 315.463 99.0257 315.321 98.4697 315.321C97.8454 315.321 97.139 315.513 96.3506 315.896L96.0019 315.027C96.3711 314.827 96.7744 314.67 97.2119 314.556C97.6539 314.442 98.096 314.385 98.5381 314.385C99.4313 314.385 100.092 314.583 100.52 314.979C100.953 315.376 101.17 316.012 101.17 316.887V322H100.329ZM97.7656 321.2C98.472 321.2 99.0257 321.007 99.4267 320.619C99.8323 320.232 100.035 319.689 100.035 318.992V318.315L98.9004 318.363C97.998 318.395 97.3463 318.536 96.9453 318.787C96.5488 319.033 96.3506 319.418 96.3506 319.942C96.3506 320.353 96.4736 320.665 96.7197 320.879C96.9704 321.093 97.319 321.2 97.7656 321.2ZM108.628 322V317.153C108.628 316.543 108.489 316.087 108.211 315.786C107.933 315.485 107.497 315.335 106.905 315.335C106.121 315.335 105.547 315.547 105.182 315.971C104.818 316.395 104.635 317.094 104.635 318.069V322H103.501V314.508H104.423L104.608 315.533H104.663C104.895 315.164 105.221 314.879 105.64 314.679C106.06 314.474 106.527 314.371 107.042 314.371C107.944 314.371 108.623 314.59 109.079 315.027C109.534 315.46 109.762 316.155 109.762 317.112V322H108.628ZM118.218 314.508V315.226L116.83 315.39C116.958 315.549 117.072 315.759 117.172 316.019C117.272 316.274 117.323 316.563 117.323 316.887C117.323 317.62 117.072 318.206 116.571 318.644C116.069 319.081 115.381 319.3 114.506 319.3C114.283 319.3 114.073 319.282 113.877 319.245C113.394 319.5 113.153 319.822 113.153 320.209C113.153 320.414 113.237 320.567 113.406 320.667C113.574 320.763 113.864 320.811 114.274 320.811H115.6C116.411 320.811 117.033 320.981 117.466 321.323C117.904 321.665 118.122 322.162 118.122 322.813C118.122 323.643 117.79 324.274 117.124 324.707C116.459 325.145 115.488 325.363 114.212 325.363C113.232 325.363 112.476 325.181 111.943 324.816C111.414 324.452 111.15 323.937 111.15 323.271C111.15 322.816 111.296 322.422 111.587 322.089C111.879 321.756 112.289 321.531 112.818 321.412C112.626 321.326 112.464 321.191 112.332 321.009C112.205 320.826 112.141 320.615 112.141 320.373C112.141 320.1 112.214 319.86 112.36 319.655C112.506 319.45 112.736 319.252 113.05 319.061C112.663 318.901 112.346 318.63 112.1 318.247C111.858 317.864 111.738 317.427 111.738 316.935C111.738 316.114 111.984 315.483 112.476 315.041C112.968 314.594 113.665 314.371 114.568 314.371C114.96 314.371 115.313 314.417 115.627 314.508H118.218ZM112.243 323.258C112.243 323.663 112.414 323.971 112.756 324.181C113.098 324.39 113.588 324.495 114.226 324.495C115.178 324.495 115.882 324.352 116.338 324.064C116.798 323.782 117.029 323.397 117.029 322.909C117.029 322.504 116.903 322.221 116.653 322.062C116.402 321.907 115.93 321.829 115.238 321.829H113.877C113.362 321.829 112.961 321.952 112.674 322.198C112.387 322.444 112.243 322.798 112.243 323.258ZM112.859 316.907C112.859 317.431 113.007 317.828 113.303 318.097C113.599 318.366 114.012 318.5 114.54 318.5C115.648 318.5 116.201 317.962 116.201 316.887C116.201 315.761 115.641 315.198 114.52 315.198C113.987 315.198 113.576 315.342 113.289 315.629C113.002 315.916 112.859 316.342 112.859 316.907ZM126.209 318.247C126.209 319.468 125.901 320.423 125.286 321.111C124.671 321.795 123.821 322.137 122.736 322.137C122.066 322.137 121.472 321.979 120.952 321.665C120.433 321.351 120.032 320.899 119.749 320.312C119.466 319.724 119.325 319.035 119.325 318.247C119.325 317.026 119.631 316.076 120.241 315.396C120.852 314.713 121.7 314.371 122.784 314.371C123.832 314.371 124.664 314.72 125.279 315.417C125.899 316.114 126.209 317.058 126.209 318.247ZM120.501 318.247C120.501 319.204 120.692 319.933 121.075 320.435C121.458 320.936 122.021 321.187 122.764 321.187C123.506 321.187 124.069 320.938 124.452 320.441C124.839 319.94 125.033 319.209 125.033 318.247C125.033 317.295 124.839 316.572 124.452 316.08C124.069 315.583 123.502 315.335 122.75 315.335C122.007 315.335 121.447 315.579 121.068 316.066C120.69 316.554 120.501 317.281 120.501 318.247ZM129.381 320.373L129.483 320.53C129.365 320.986 129.194 321.515 128.97 322.116C128.747 322.722 128.515 323.285 128.273 323.805H127.419C127.542 323.331 127.676 322.745 127.822 322.048C127.972 321.351 128.077 320.792 128.136 320.373H129.381ZM139.682 312.901C138.583 312.901 137.715 313.268 137.077 314.002C136.444 314.731 136.127 315.731 136.127 317.003C136.127 318.311 136.432 319.323 137.043 320.038C137.658 320.749 138.533 321.104 139.668 321.104C140.365 321.104 141.16 320.979 142.054 320.729V321.747C141.361 322.007 140.506 322.137 139.49 322.137C138.018 322.137 136.881 321.69 136.079 320.797C135.282 319.904 134.883 318.634 134.883 316.989C134.883 315.959 135.074 315.057 135.457 314.282C135.844 313.507 136.4 312.91 137.125 312.491C137.854 312.072 138.711 311.862 139.695 311.862C140.743 311.862 141.659 312.054 142.443 312.437L141.951 313.435C141.195 313.079 140.438 312.901 139.682 312.901ZM150.516 318.247C150.516 319.468 150.209 320.423 149.593 321.111C148.978 321.795 148.128 322.137 147.044 322.137C146.374 322.137 145.779 321.979 145.259 321.665C144.74 321.351 144.339 320.899 144.056 320.312C143.774 319.724 143.632 319.035 143.632 318.247C143.632 317.026 143.938 316.076 144.548 315.396C145.159 314.713 146.007 314.371 147.091 314.371C148.14 314.371 148.971 314.72 149.587 315.417C150.206 316.114 150.516 317.058 150.516 318.247ZM144.808 318.247C144.808 319.204 145 319.933 145.382 320.435C145.765 320.936 146.328 321.187 147.071 321.187C147.814 321.187 148.377 320.938 148.759 320.441C149.147 319.94 149.34 319.209 149.34 318.247C149.34 317.295 149.147 316.572 148.759 316.08C148.377 315.583 147.809 315.335 147.057 315.335C146.314 315.335 145.754 315.579 145.376 316.066C144.997 316.554 144.808 317.281 144.808 318.247ZM157.625 322V317.153C157.625 316.543 157.486 316.087 157.208 315.786C156.93 315.485 156.495 315.335 155.903 315.335C155.119 315.335 154.545 315.547 154.18 315.971C153.815 316.395 153.633 317.094 153.633 318.069V322H152.498V314.508H153.421L153.606 315.533H153.66C153.893 315.164 154.219 314.879 154.638 314.679C155.057 314.474 155.524 314.371 156.039 314.371C156.942 314.371 157.621 314.59 158.076 315.027C158.532 315.46 158.76 316.155 158.76 317.112V322H157.625ZM166.211 322V317.153C166.211 316.543 166.072 316.087 165.794 315.786C165.516 315.485 165.081 315.335 164.488 315.335C163.704 315.335 163.13 315.547 162.766 315.971C162.401 316.395 162.219 317.094 162.219 318.069V322H161.084V314.508H162.007L162.191 315.533H162.246C162.478 315.164 162.804 314.879 163.224 314.679C163.643 314.474 164.11 314.371 164.625 314.371C165.527 314.371 166.206 314.59 166.662 315.027C167.118 315.46 167.346 316.155 167.346 317.112V322H166.211ZM168.48 314.508H169.697L171.338 318.78C171.698 319.756 171.921 320.46 172.007 320.893H172.062C172.121 320.66 172.244 320.264 172.431 319.703C172.623 319.138 173.242 317.406 174.291 314.508H175.507L172.288 323.039C171.969 323.882 171.595 324.479 171.167 324.83C170.743 325.186 170.221 325.363 169.601 325.363C169.255 325.363 168.913 325.325 168.576 325.247V324.338C168.826 324.393 169.107 324.42 169.417 324.42C170.196 324.42 170.752 323.982 171.085 323.107L171.502 322.041L168.48 314.508ZM180.504 322V312.006H181.666V320.947H186.075V322H180.504ZM188.727 322H187.592V314.508H188.727V322ZM187.497 312.478C187.497 312.218 187.56 312.029 187.688 311.91C187.816 311.787 187.975 311.726 188.167 311.726C188.349 311.726 188.506 311.787 188.638 311.91C188.77 312.033 188.837 312.222 188.837 312.478C188.837 312.733 188.77 312.924 188.638 313.052C188.506 313.175 188.349 313.236 188.167 313.236C187.975 313.236 187.816 313.175 187.688 313.052C187.56 312.924 187.497 312.733 187.497 312.478ZM192.254 322H191.119V311.363H192.254V322ZM195.781 322H194.646V314.508H195.781V322ZM194.551 312.478C194.551 312.218 194.615 312.029 194.742 311.91C194.87 311.787 195.029 311.726 195.221 311.726C195.403 311.726 195.56 311.787 195.692 311.91C195.824 312.033 195.891 312.222 195.891 312.478C195.891 312.733 195.824 312.924 195.692 313.052C195.56 313.175 195.403 313.236 195.221 313.236C195.029 313.236 194.87 313.175 194.742 313.052C194.615 312.924 194.551 312.733 194.551 312.478ZM202.781 322L202.555 320.934H202.501C202.127 321.403 201.753 321.722 201.379 321.891C201.01 322.055 200.548 322.137 199.992 322.137C199.249 322.137 198.666 321.945 198.242 321.562C197.823 321.18 197.613 320.635 197.613 319.929C197.613 318.416 198.823 317.623 201.243 317.55L202.514 317.509V317.044C202.514 316.456 202.387 316.023 202.131 315.745C201.881 315.463 201.477 315.321 200.921 315.321C200.297 315.321 199.591 315.513 198.802 315.896L198.454 315.027C198.823 314.827 199.226 314.67 199.664 314.556C200.106 314.442 200.548 314.385 200.99 314.385C201.883 314.385 202.544 314.583 202.972 314.979C203.405 315.376 203.622 316.012 203.622 316.887V322H202.781ZM200.217 321.2C200.924 321.2 201.477 321.007 201.879 320.619C202.284 320.232 202.487 319.689 202.487 318.992V318.315L201.352 318.363C200.45 318.395 199.798 318.536 199.397 318.787C199.001 319.033 198.802 319.418 198.802 319.942C198.802 320.353 198.925 320.665 199.171 320.879C199.422 321.093 199.771 321.2 200.217 321.2ZM211.079 322V317.153C211.079 316.543 210.94 316.087 210.662 315.786C210.384 315.485 209.949 315.335 209.357 315.335C208.573 315.335 207.999 315.547 207.634 315.971C207.269 316.395 207.087 317.094 207.087 318.069V322H205.952V314.508H206.875L207.06 315.533H207.115C207.347 315.164 207.673 314.879 208.092 314.679C208.511 314.474 208.978 314.371 209.493 314.371C210.396 314.371 211.075 314.59 211.531 315.027C211.986 315.46 212.214 316.155 212.214 317.112V322H211.079ZM219.145 322L218.92 320.934H218.865C218.491 321.403 218.118 321.722 217.744 321.891C217.375 322.055 216.912 322.137 216.356 322.137C215.614 322.137 215.03 321.945 214.606 321.562C214.187 321.18 213.977 320.635 213.977 319.929C213.977 318.416 215.187 317.623 217.607 317.55L218.879 317.509V317.044C218.879 316.456 218.751 316.023 218.496 315.745C218.245 315.463 217.842 315.321 217.286 315.321C216.662 315.321 215.955 315.513 215.167 315.896L214.818 315.027C215.187 314.827 215.591 314.67 216.028 314.556C216.47 314.442 216.912 314.385 217.354 314.385C218.248 314.385 218.908 314.583 219.337 314.979C219.77 315.376 219.986 316.012 219.986 316.887V322H219.145ZM216.582 321.2C217.288 321.2 217.842 321.007 218.243 320.619C218.649 320.232 218.851 319.689 218.851 318.992V318.315L217.717 318.363C216.814 318.395 216.163 318.536 215.762 318.787C215.365 319.033 215.167 319.418 215.167 319.942C215.167 320.353 215.29 320.665 215.536 320.879C215.787 321.093 216.135 321.2 216.582 321.2ZM229.734 312.006L226.008 322H224.873L228.599 312.006H229.734ZM239.139 312.901C238.041 312.901 237.173 313.268 236.535 314.002C235.901 314.731 235.585 315.731 235.585 317.003C235.585 318.311 235.89 319.323 236.501 320.038C237.116 320.749 237.991 321.104 239.126 321.104C239.823 321.104 240.618 320.979 241.511 320.729V321.747C240.819 322.007 239.964 322.137 238.948 322.137C237.476 322.137 236.339 321.69 235.537 320.797C234.739 319.904 234.34 318.634 234.34 316.989C234.34 315.959 234.532 315.057 234.915 314.282C235.302 313.507 235.858 312.91 236.583 312.491C237.312 312.072 238.169 311.862 239.153 311.862C240.201 311.862 241.117 312.054 241.901 312.437L241.409 313.435C240.652 313.079 239.896 312.901 239.139 312.901ZM246.112 315.896C247.164 315.896 247.991 316.158 248.593 316.682C249.199 317.201 249.502 317.914 249.502 318.821C249.502 319.856 249.172 320.667 248.511 321.255C247.855 321.843 246.948 322.137 245.79 322.137C244.665 322.137 243.806 321.957 243.213 321.597V320.503C243.532 320.708 243.929 320.87 244.403 320.988C244.877 321.102 245.344 321.159 245.804 321.159C246.606 321.159 247.228 320.97 247.67 320.592C248.117 320.214 248.34 319.667 248.34 318.951C248.34 317.557 247.486 316.859 245.777 316.859C245.344 316.859 244.765 316.925 244.04 317.058L243.452 316.682L243.828 312.006H248.798V313.052H244.799L244.546 316.053C245.07 315.948 245.592 315.896 246.112 315.896ZM257.555 322H250.985V321.022L253.617 318.377C254.419 317.566 254.948 316.987 255.203 316.641C255.458 316.294 255.65 315.957 255.777 315.629C255.905 315.301 255.969 314.948 255.969 314.569C255.969 314.036 255.807 313.615 255.483 313.305C255.16 312.99 254.711 312.833 254.137 312.833C253.722 312.833 253.328 312.901 252.954 313.038C252.585 313.175 252.172 313.423 251.717 313.783L251.115 313.011C252.036 312.245 253.038 311.862 254.123 311.862C255.062 311.862 255.798 312.104 256.331 312.587C256.864 313.065 257.131 313.71 257.131 314.521C257.131 315.155 256.953 315.782 256.598 316.401C256.242 317.021 255.577 317.805 254.601 318.753L252.414 320.893V320.947H257.555V322ZM265.607 316.989C265.607 318.716 265.334 320.006 264.787 320.858C264.244 321.711 263.413 322.137 262.292 322.137C261.216 322.137 260.398 321.701 259.837 320.831C259.277 319.956 258.997 318.675 258.997 316.989C258.997 315.248 259.268 313.956 259.81 313.113C260.352 312.27 261.18 311.849 262.292 311.849C263.376 311.849 264.199 312.288 264.759 313.168C265.324 314.048 265.607 315.321 265.607 316.989ZM260.145 316.989C260.145 318.443 260.316 319.503 260.658 320.168C261 320.829 261.544 321.159 262.292 321.159C263.048 321.159 263.595 320.824 263.932 320.154C264.274 319.48 264.445 318.425 264.445 316.989C264.445 315.554 264.274 314.503 263.932 313.838C263.595 313.168 263.048 312.833 262.292 312.833C261.544 312.833 261 313.163 260.658 313.824C260.316 314.48 260.145 315.535 260.145 316.989ZM273.55 322H266.981V321.022L269.613 318.377C270.415 317.566 270.943 316.987 271.198 316.641C271.454 316.294 271.645 315.957 271.773 315.629C271.9 315.301 271.964 314.948 271.964 314.569C271.964 314.036 271.802 313.615 271.479 313.305C271.155 312.99 270.706 312.833 270.132 312.833C269.717 312.833 269.323 312.901 268.949 313.038C268.58 313.175 268.168 313.423 267.712 313.783L267.111 313.011C268.031 312.245 269.034 311.862 270.118 311.862C271.057 311.862 271.793 312.104 272.326 312.587C272.86 313.065 273.126 313.71 273.126 314.521C273.126 315.155 272.948 315.782 272.593 316.401C272.238 317.021 271.572 317.805 270.597 318.753L268.409 320.893V320.947H273.55V322ZM281.602 316.989C281.602 318.716 281.329 320.006 280.782 320.858C280.24 321.711 279.408 322.137 278.287 322.137C277.211 322.137 276.393 321.701 275.833 320.831C275.272 319.956 274.992 318.675 274.992 316.989C274.992 315.248 275.263 313.956 275.806 313.113C276.348 312.27 277.175 311.849 278.287 311.849C279.372 311.849 280.194 312.288 280.755 313.168C281.32 314.048 281.602 315.321 281.602 316.989ZM276.141 316.989C276.141 318.443 276.311 319.503 276.653 320.168C276.995 320.829 277.54 321.159 278.287 321.159C279.044 321.159 279.59 320.824 279.928 320.154C280.269 319.48 280.44 318.425 280.44 316.989C280.44 315.554 280.269 314.503 279.928 313.838C279.59 313.168 279.044 312.833 278.287 312.833C277.54 312.833 276.995 313.163 276.653 313.824C276.311 314.48 276.141 315.535 276.141 316.989ZM283.092 317.728C283.092 315.763 283.473 314.296 284.234 313.325C285 312.35 286.13 311.862 287.625 311.862C288.14 311.862 288.545 311.906 288.841 311.992V312.97C288.49 312.856 288.089 312.799 287.638 312.799C286.567 312.799 285.749 313.134 285.184 313.804C284.619 314.469 284.309 315.517 284.254 316.948H284.336C284.838 316.164 285.631 315.772 286.715 315.772C287.613 315.772 288.32 316.044 288.835 316.586C289.354 317.128 289.614 317.864 289.614 318.794C289.614 319.833 289.329 320.651 288.759 321.248C288.194 321.84 287.429 322.137 286.462 322.137C285.428 322.137 284.608 321.749 284.002 320.975C283.395 320.195 283.092 319.113 283.092 317.728ZM286.449 321.173C287.096 321.173 287.597 320.97 287.953 320.564C288.313 320.154 288.493 319.564 288.493 318.794C288.493 318.133 288.326 317.614 287.994 317.235C287.661 316.857 287.164 316.668 286.503 316.668C286.093 316.668 285.717 316.752 285.376 316.921C285.034 317.09 284.76 317.322 284.555 317.618C284.355 317.914 284.254 318.222 284.254 318.541C284.254 319.01 284.346 319.448 284.528 319.854C284.71 320.259 284.968 320.58 285.3 320.817C285.638 321.054 286.02 321.173 286.449 321.173ZM297.167 314.357C297.167 314.995 296.987 315.517 296.627 315.923C296.272 316.328 295.766 316.6 295.11 316.736V316.791C295.912 316.891 296.506 317.146 296.894 317.557C297.281 317.967 297.475 318.505 297.475 319.17C297.475 320.122 297.144 320.856 296.484 321.371C295.823 321.882 294.884 322.137 293.667 322.137C293.139 322.137 292.653 322.096 292.211 322.014C291.774 321.936 291.348 321.797 290.933 321.597V320.517C291.366 320.731 291.826 320.895 292.314 321.009C292.806 321.118 293.271 321.173 293.708 321.173C295.435 321.173 296.299 320.496 296.299 319.143C296.299 317.93 295.347 317.324 293.442 317.324H292.457V316.347H293.455C294.235 316.347 294.852 316.176 295.308 315.834C295.764 315.488 295.991 315.009 295.991 314.398C295.991 313.911 295.823 313.528 295.486 313.25C295.153 312.972 294.699 312.833 294.125 312.833C293.688 312.833 293.275 312.892 292.888 313.011C292.501 313.129 292.058 313.348 291.562 313.667L290.988 312.901C291.398 312.578 291.869 312.325 292.403 312.143C292.94 311.956 293.505 311.862 294.098 311.862C295.069 311.862 295.823 312.086 296.361 312.532C296.898 312.974 297.167 313.583 297.167 314.357ZM306.013 319.703H304.529V322H303.442V319.703H298.582V318.712L303.326 311.951H304.529V318.671H306.013V319.703ZM303.442 318.671V315.349C303.442 314.697 303.465 313.961 303.511 313.141H303.456C303.237 313.578 303.032 313.94 302.841 314.228L299.717 318.671H303.442Z" fill="#696F8C"/>
</g>
<circle cx="103" cy="15" r="14.5" fill="#101840" stroke="#101840"/>
<path d="M103.957 20H102.146V15.043L102.164 14.2285L102.193 13.3379C101.893 13.6387 101.684 13.8359 101.566 13.9297L100.582 14.7207L99.709 13.6309L102.469 11.4336H103.957V20Z" fill="white"/>
<path d="M103 30V66" stroke="#101840" stroke-width="2"/>
<circle cx="103" cy="64" r="2.5" fill="#101840" stroke="#101840"/>
<circle cx="552" cy="111" r="14.5" transform="rotate(90 552 111)" fill="#101840" stroke="#101840"/>
<path d="M554.969 115.5H548.98V114.24L551.131 112.066C551.564 111.621 551.912 111.25 552.174 110.953C552.439 110.652 552.631 110.379 552.748 110.133C552.869 109.887 552.93 109.623 552.93 109.342C552.93 109.002 552.834 108.748 552.643 108.58C552.455 108.408 552.203 108.322 551.887 108.322C551.555 108.322 551.232 108.398 550.92 108.551C550.607 108.703 550.281 108.92 549.941 109.201L548.957 108.035C549.203 107.824 549.463 107.625 549.736 107.438C550.014 107.25 550.334 107.1 550.697 106.986C551.064 106.869 551.504 106.811 552.016 106.811C552.578 106.811 553.061 106.912 553.463 107.115C553.869 107.318 554.182 107.596 554.4 107.947C554.619 108.295 554.729 108.689 554.729 109.131C554.729 109.604 554.635 110.035 554.447 110.426C554.26 110.816 553.986 111.203 553.627 111.586C553.271 111.969 552.842 112.393 552.338 112.857L551.236 113.895V113.977H554.969V115.5Z" fill="white"/>
<path d="M537 111L501 111" stroke="#101840" stroke-width="2"/>
<circle cx="503" cy="111" r="2.5" transform="rotate(90 503 111)" fill="#101840" stroke="#101840"/>
<circle cx="595" cy="143" r="14.5" transform="rotate(90 595 143)" fill="#101840" stroke="#101840"/>
<path d="M597.635 140.85C597.635 141.244 597.553 141.586 597.389 141.875C597.225 142.164 597.002 142.4 596.721 142.584C596.443 142.768 596.131 142.902 595.783 142.988V143.023C596.471 143.109 596.992 143.32 597.348 143.656C597.707 143.992 597.887 144.441 597.887 145.004C597.887 145.504 597.764 145.951 597.518 146.346C597.275 146.74 596.9 147.051 596.393 147.277C595.885 147.504 595.23 147.617 594.43 147.617C593.957 147.617 593.516 147.578 593.105 147.5C592.699 147.426 592.316 147.311 591.957 147.154V145.613C592.324 145.801 592.709 145.943 593.111 146.041C593.514 146.135 593.889 146.182 594.236 146.182C594.885 146.182 595.338 146.07 595.596 145.848C595.857 145.621 595.988 145.305 595.988 144.898C595.988 144.66 595.928 144.459 595.807 144.295C595.686 144.131 595.475 144.006 595.174 143.92C594.877 143.834 594.461 143.791 593.926 143.791H593.275V142.402H593.938C594.465 142.402 594.865 142.354 595.139 142.256C595.416 142.154 595.604 142.018 595.701 141.846C595.803 141.67 595.854 141.471 595.854 141.248C595.854 140.943 595.76 140.705 595.572 140.533C595.385 140.361 595.072 140.275 594.635 140.275C594.361 140.275 594.111 140.311 593.885 140.381C593.662 140.447 593.461 140.529 593.281 140.627C593.102 140.721 592.943 140.812 592.807 140.902L591.969 139.654C592.305 139.412 592.697 139.211 593.146 139.051C593.6 138.891 594.139 138.811 594.764 138.811C595.646 138.811 596.346 138.988 596.861 139.344C597.377 139.699 597.635 140.201 597.635 140.85Z" fill="white"/>
<path d="M580 143L285 143" stroke="#101840" stroke-width="2"/>
<circle cx="284" cy="143" r="2.5" transform="rotate(90 284 143)" fill="#101840" stroke="#101840"/>
<circle cx="585" cy="203" r="14.5" transform="rotate(90 585 203)" fill="#101840" stroke="#101840"/>
<path d="M588.162 205.725H587.131V207.5H585.361V205.725H581.705V204.465L585.461 198.934H587.131V204.318H588.162V205.725ZM585.361 204.318V202.865C585.361 202.729 585.363 202.566 585.367 202.379C585.375 202.191 585.383 202.004 585.391 201.816C585.398 201.629 585.406 201.463 585.414 201.318C585.426 201.17 585.434 201.066 585.438 201.008H585.391C585.316 201.168 585.238 201.324 585.156 201.477C585.074 201.625 584.979 201.781 584.869 201.945L583.299 204.318H585.361Z" fill="white"/>
<path d="M574 203H511" stroke="#101840" stroke-width="2"/>
<circle cx="510" cy="203" r="2.5" transform="rotate(90 510 203)" fill="#101840" stroke="#101840"/>
<defs>
<filter id="filter0_d_866_8449" x="-14" y="43" width="563" height="168" filterUnits="userSpaceOnUse" color-interpolation-filters="sRGB">
<feFlood flood-opacity="0" result="BackgroundImageFix"/>
<feColorMatrix in="SourceAlpha" type="matrix" values="0 0 0 0 0 0 0 0 0 0 0 0 0 0 0 0 0 0 127 0" result="hardAlpha"/>
<feOffset dy="16"/>
<feGaussianBlur stdDeviation="15"/>
<feComposite in2="hardAlpha" operator="out"/>
<feColorMatrix type="matrix" values="0 0 0 0 0 0 0 0 0 0 0 0 0 0 0 0 0 0 0.08 0"/>
<feBlend mode="normal" in2="BackgroundImageFix" result="effect1_dropShadow_866_8449"/>
<feBlend mode="normal" in="SourceGraphic" in2="effect1_dropShadow_866_8449" result="shape"/>
</filter>
<clipPath id="clip0_866_8449">
<rect y="41" width="535" height="365" rx="5" fill="white"/>
</clipPath>
</defs>
</svg>
