<svg width="257" height="187" viewBox="0 0 257 187" fill="none" xmlns="http://www.w3.org/2000/svg">
<path d="M8.5625 82V70.5781H9.89062V80.8125H14.9609V82H8.5625ZM19.9297 73.2969C20.9505 73.2969 21.7083 73.526 22.2031 73.9844C22.6979 74.4427 22.9453 75.1745 22.9453 76.1797V82H22L21.75 80.7344H21.6875C21.4479 81.0469 21.1979 81.3099 20.9375 81.5234C20.6771 81.7318 20.375 81.8906 20.0312 82C19.6927 82.1042 19.276 82.1562 18.7812 82.1562C18.2604 82.1562 17.7969 82.0651 17.3906 81.8828C16.9896 81.7005 16.6719 81.4245 16.4375 81.0547C16.2083 80.6849 16.0938 80.2161 16.0938 79.6484C16.0938 78.7943 16.4323 78.138 17.1094 77.6797C17.7865 77.2214 18.8177 76.9714 20.2031 76.9297L21.6797 76.8672V76.3438C21.6797 75.6042 21.5208 75.0859 21.2031 74.7891C20.8854 74.4922 20.4375 74.3438 19.8594 74.3438C19.4115 74.3438 18.9844 74.4089 18.5781 74.5391C18.1719 74.6693 17.7865 74.8229 17.4219 75L17.0234 74.0156C17.4089 73.8177 17.8516 73.6484 18.3516 73.5078C18.8516 73.3672 19.3776 73.2969 19.9297 73.2969ZM21.6641 77.7812L20.3594 77.8359C19.2917 77.8776 18.5391 78.0521 18.1016 78.3594C17.6641 78.6667 17.4453 79.1016 17.4453 79.6641C17.4453 80.1536 17.5938 80.5156 17.8906 80.75C18.1875 80.9844 18.5807 81.1016 19.0703 81.1016C19.8307 81.1016 20.4531 80.8906 20.9375 80.4688C21.4219 80.0469 21.6641 79.4141 21.6641 78.5703V77.7812ZM26.9141 69.8438V72.8828C26.9141 73.2318 26.9036 73.5703 26.8828 73.8984C26.8672 74.2266 26.8542 74.4818 26.8438 74.6641H26.9141C27.1484 74.2786 27.487 73.9531 27.9297 73.6875C28.3724 73.4219 28.9375 73.2891 29.625 73.2891C30.6979 73.2891 31.5521 73.6615 32.1875 74.4062C32.8281 75.1458 33.1484 76.2474 33.1484 77.7109C33.1484 78.6745 33.0026 79.487 32.7109 80.1484C32.4193 80.8099 32.0078 81.3099 31.4766 81.6484C30.9453 81.987 30.3177 82.1562 29.5938 82.1562C28.9167 82.1562 28.3594 82.0312 27.9219 81.7812C27.4896 81.526 27.1562 81.2161 26.9219 80.8516H26.8203L26.5547 82H25.6172V69.8438H26.9141ZM29.4141 74.375C28.7943 74.375 28.3021 74.4974 27.9375 74.7422C27.5729 74.9818 27.3099 75.3464 27.1484 75.8359C26.9922 76.3203 26.9141 76.9349 26.9141 77.6797V77.75C26.9141 78.8281 27.0938 79.6536 27.4531 80.2266C27.8125 80.7943 28.4661 81.0781 29.4141 81.0781C30.2109 81.0781 30.8073 80.7865 31.2031 80.2031C31.6042 79.6198 31.8047 78.7865 31.8047 77.7031C31.8047 76.599 31.6068 75.7682 31.2109 75.2109C30.8203 74.6536 30.2214 74.375 29.4141 74.375ZM38.7109 73.2812C39.4401 73.2812 40.0651 73.4427 40.5859 73.7656C41.1068 74.0885 41.5052 74.5417 41.7812 75.125C42.0573 75.7031 42.1953 76.3802 42.1953 77.1562V77.9609H36.2812C36.2969 78.9661 36.5469 79.7318 37.0312 80.2578C37.5156 80.7839 38.1979 81.0469 39.0781 81.0469C39.6198 81.0469 40.099 80.9974 40.5156 80.8984C40.9323 80.7995 41.3646 80.6536 41.8125 80.4609V81.6016C41.3802 81.7943 40.9505 81.9349 40.5234 82.0234C40.1016 82.112 39.6016 82.1562 39.0234 82.1562C38.2005 82.1562 37.4818 81.9896 36.8672 81.6562C36.2578 81.3177 35.7839 80.8229 35.4453 80.1719C35.1068 79.5208 34.9375 78.724 34.9375 77.7812C34.9375 76.8594 35.0911 76.0625 35.3984 75.3906C35.7109 74.7135 36.1484 74.1927 36.7109 73.8281C37.2786 73.4635 37.9453 73.2812 38.7109 73.2812ZM38.6953 74.3438C38.0026 74.3438 37.4505 74.5703 37.0391 75.0234C36.6276 75.4766 36.3828 76.1094 36.3047 76.9219H40.8359C40.8307 76.4115 40.75 75.9635 40.5938 75.5781C40.4427 75.1875 40.2109 74.8854 39.8984 74.6719C39.5859 74.4531 39.1849 74.3438 38.6953 74.3438ZM45.7031 82H44.3984V69.8438H45.7031V82Z" fill="#474D66"/>
<rect x="7.5" y="96.5" width="249" height="31" rx="3.5" fill="white"/>
<path d="M18.4102 108.434C19.5156 108.434 20.3223 108.65 20.8301 109.084C21.3418 109.514 21.5977 110.131 21.5977 110.936C21.5977 111.299 21.5371 111.645 21.416 111.973C21.2988 112.297 21.1074 112.584 20.8418 112.834C20.5762 113.08 20.2266 113.275 19.793 113.42C19.3633 113.561 18.8359 113.631 18.2109 113.631H17.168V117H16.1719V108.434H18.4102ZM18.3164 109.283H17.168V112.775H18.0996C18.6465 112.775 19.1016 112.717 19.4648 112.6C19.832 112.482 20.1074 112.293 20.291 112.031C20.4746 111.766 20.5664 111.414 20.5664 110.977C20.5664 110.406 20.3848 109.982 20.0215 109.705C19.6582 109.424 19.0898 109.283 18.3164 109.283ZM24.2227 117H23.2441V107.883H24.2227V117ZM28.6816 110.473C29.4473 110.473 30.0156 110.645 30.3867 110.988C30.7578 111.332 30.9434 111.881 30.9434 112.635V117H30.2344L30.0469 116.051H30C29.8203 116.285 29.6328 116.482 29.4375 116.643C29.2422 116.799 29.0156 116.918 28.7578 117C28.5039 117.078 28.1914 117.117 27.8203 117.117C27.4297 117.117 27.082 117.049 26.7773 116.912C26.4766 116.775 26.2383 116.568 26.0625 116.291C25.8906 116.014 25.8047 115.662 25.8047 115.236C25.8047 114.596 26.0586 114.104 26.5664 113.76C27.0742 113.416 27.8477 113.229 28.8867 113.197L29.9941 113.15V112.758C29.9941 112.203 29.875 111.814 29.6367 111.592C29.3984 111.369 29.0625 111.258 28.6289 111.258C28.293 111.258 27.9727 111.307 27.668 111.404C27.3633 111.502 27.0742 111.617 26.8008 111.75L26.502 111.012C26.791 110.863 27.123 110.736 27.498 110.631C27.873 110.525 28.2676 110.473 28.6816 110.473ZM29.9824 113.836L29.0039 113.877C28.2031 113.908 27.6387 114.039 27.3105 114.27C26.9824 114.5 26.8184 114.826 26.8184 115.248C26.8184 115.615 26.9297 115.887 27.1523 116.062C27.375 116.238 27.6699 116.326 28.0371 116.326C28.6074 116.326 29.0742 116.168 29.4375 115.852C29.8008 115.535 29.9824 115.061 29.9824 114.428V113.836ZM35.5195 117.117C34.9414 117.117 34.4316 116.998 33.9902 116.76C33.5488 116.521 33.2051 116.158 32.959 115.67C32.7129 115.182 32.5898 114.566 32.5898 113.824C32.5898 113.047 32.7188 112.412 32.9766 111.92C33.2383 111.424 33.5977 111.057 34.0547 110.818C34.5117 110.58 35.0312 110.461 35.6133 110.461C35.9336 110.461 36.2422 110.494 36.5391 110.561C36.8398 110.623 37.0859 110.703 37.2773 110.801L36.9844 111.615C36.7891 111.537 36.5625 111.467 36.3047 111.404C36.0508 111.342 35.8125 111.311 35.5898 111.311C35.1445 111.311 34.7734 111.406 34.4766 111.598C34.1836 111.789 33.9629 112.07 33.8145 112.441C33.6699 112.812 33.5977 113.27 33.5977 113.812C33.5977 114.332 33.668 114.775 33.8086 115.143C33.9531 115.51 34.166 115.791 34.4473 115.986C34.7324 116.178 35.0879 116.273 35.5137 116.273C35.8535 116.273 36.1602 116.238 36.4336 116.168C36.707 116.094 36.9551 116.008 37.1777 115.91V116.777C36.9629 116.887 36.7227 116.971 36.457 117.029C36.1953 117.088 35.8828 117.117 35.5195 117.117ZM41.1738 110.461C41.7207 110.461 42.1895 110.582 42.5801 110.824C42.9707 111.066 43.2695 111.406 43.4766 111.844C43.6836 112.277 43.7871 112.785 43.7871 113.367V113.971H39.3516C39.3633 114.725 39.5508 115.299 39.9141 115.693C40.2773 116.088 40.7891 116.285 41.4492 116.285C41.8555 116.285 42.2148 116.248 42.5273 116.174C42.8398 116.1 43.1641 115.99 43.5 115.846V116.701C43.1758 116.846 42.8535 116.951 42.5332 117.018C42.2168 117.084 41.8418 117.117 41.4082 117.117C40.791 117.117 40.252 116.992 39.791 116.742C39.334 116.488 38.9785 116.117 38.7246 115.629C38.4707 115.141 38.3438 114.543 38.3438 113.836C38.3438 113.145 38.459 112.547 38.6895 112.043C38.9238 111.535 39.252 111.145 39.6738 110.871C40.0996 110.598 40.5996 110.461 41.1738 110.461ZM41.1621 111.258C40.6426 111.258 40.2285 111.428 39.9199 111.768C39.6113 112.107 39.4277 112.582 39.3691 113.191H42.7676C42.7637 112.809 42.7031 112.473 42.5859 112.184C42.4727 111.891 42.2988 111.664 42.0645 111.504C41.8301 111.34 41.5293 111.258 41.1621 111.258ZM46.4121 107.883V110.607C46.4121 110.764 46.4082 110.922 46.4004 111.082C46.3926 111.238 46.3789 111.383 46.3594 111.516H46.4238C46.5566 111.289 46.7246 111.1 46.9277 110.947C47.1348 110.791 47.3691 110.674 47.6309 110.596C47.8926 110.514 48.1699 110.473 48.4629 110.473C48.9785 110.473 49.4082 110.555 49.752 110.719C50.0996 110.883 50.3594 111.137 50.5312 111.48C50.707 111.824 50.7949 112.27 50.7949 112.816V117H49.834V112.881C49.834 112.346 49.7109 111.945 49.4648 111.68C49.2227 111.414 48.8496 111.281 48.3457 111.281C47.8691 111.281 47.4883 111.373 47.2031 111.557C46.9219 111.736 46.7188 112.002 46.5938 112.354C46.4727 112.705 46.4121 113.135 46.4121 113.643V117H45.4395V107.883H46.4121ZM58.3359 113.777C58.3359 114.305 58.2676 114.775 58.1309 115.189C57.9941 115.604 57.7969 115.953 57.5391 116.238C57.2812 116.523 56.9688 116.742 56.6016 116.895C56.2383 117.043 55.8262 117.117 55.3652 117.117C54.9355 117.117 54.541 117.043 54.1816 116.895C53.8262 116.742 53.5176 116.523 53.2559 116.238C52.998 115.953 52.7969 115.604 52.6523 115.189C52.5117 114.775 52.4414 114.305 52.4414 113.777C52.4414 113.074 52.5605 112.477 52.7988 111.984C53.0371 111.488 53.377 111.111 53.8184 110.854C54.2637 110.592 54.793 110.461 55.4062 110.461C55.9922 110.461 56.5039 110.592 56.9414 110.854C57.3828 111.115 57.7246 111.494 57.9668 111.99C58.2129 112.482 58.3359 113.078 58.3359 113.777ZM53.4492 113.777C53.4492 114.293 53.5176 114.74 53.6543 115.119C53.791 115.498 54.002 115.791 54.2871 115.998C54.5723 116.205 54.9395 116.309 55.3887 116.309C55.834 116.309 56.1992 116.205 56.4844 115.998C56.7734 115.791 56.9863 115.498 57.123 115.119C57.2598 114.74 57.3281 114.293 57.3281 113.777C57.3281 113.266 57.2598 112.824 57.123 112.453C56.9863 112.078 56.7754 111.789 56.4902 111.586C56.2051 111.383 55.8359 111.281 55.3828 111.281C54.7148 111.281 54.2246 111.502 53.9121 111.943C53.6035 112.385 53.4492 112.996 53.4492 113.777ZM60.9961 117H60.0176V107.883H60.9961V117ZM65.3379 117.117C64.5254 117.117 63.8809 116.84 63.4043 116.285C62.9316 115.73 62.6953 114.906 62.6953 113.812C62.6953 112.707 62.9375 111.873 63.4219 111.311C63.9062 110.744 64.5508 110.461 65.3555 110.461C65.6953 110.461 65.9922 110.506 66.2461 110.596C66.5 110.686 66.7188 110.807 66.9023 110.959C67.0859 111.107 67.2402 111.277 67.3652 111.469H67.4355C67.4199 111.348 67.4043 111.182 67.3887 110.971C67.373 110.76 67.3652 110.588 67.3652 110.455V107.883H68.3379V117H67.5527L67.4062 116.086H67.3652C67.2441 116.277 67.0898 116.451 66.9023 116.607C66.7188 116.764 66.498 116.889 66.2402 116.982C65.9863 117.072 65.6855 117.117 65.3379 117.117ZM65.4902 116.309C66.1777 116.309 66.6641 116.113 66.9492 115.723C67.2344 115.332 67.377 114.752 67.377 113.982V113.807C67.377 112.99 67.2402 112.363 66.9668 111.926C66.6973 111.488 66.2051 111.27 65.4902 111.27C64.8926 111.27 64.4453 111.5 64.1484 111.961C63.8516 112.418 63.7031 113.043 63.7031 113.836C63.7031 114.625 63.8496 115.234 64.1426 115.664C64.4395 116.094 64.8887 116.309 65.4902 116.309ZM72.873 110.461C73.4199 110.461 73.8887 110.582 74.2793 110.824C74.6699 111.066 74.9688 111.406 75.1758 111.844C75.3828 112.277 75.4863 112.785 75.4863 113.367V113.971H71.0508C71.0625 114.725 71.25 115.299 71.6133 115.693C71.9766 116.088 72.4883 116.285 73.1484 116.285C73.5547 116.285 73.9141 116.248 74.2266 116.174C74.5391 116.1 74.8633 115.99 75.1992 115.846V116.701C74.875 116.846 74.5527 116.951 74.2324 117.018C73.916 117.084 73.541 117.117 73.1074 117.117C72.4902 117.117 71.9512 116.992 71.4902 116.742C71.0332 116.488 70.6777 116.117 70.4238 115.629C70.1699 115.141 70.043 114.543 70.043 113.836C70.043 113.145 70.1582 112.547 70.3887 112.043C70.623 111.535 70.9512 111.145 71.373 110.871C71.7988 110.598 72.2988 110.461 72.873 110.461ZM72.8613 111.258C72.3418 111.258 71.9277 111.428 71.6191 111.768C71.3105 112.107 71.127 112.582 71.0684 113.191H74.4668C74.4629 112.809 74.4023 112.473 74.2852 112.184C74.1719 111.891 73.998 111.664 73.7637 111.504C73.5293 111.34 73.2285 111.258 72.8613 111.258ZM80.0566 110.461C80.1855 110.461 80.3203 110.469 80.4609 110.484C80.6016 110.496 80.7266 110.514 80.8359 110.537L80.7129 111.439C80.6074 111.412 80.4902 111.391 80.3613 111.375C80.2324 111.359 80.1113 111.352 79.998 111.352C79.7402 111.352 79.4961 111.404 79.2656 111.51C79.0391 111.611 78.8398 111.76 78.668 111.955C78.4961 112.146 78.3613 112.379 78.2637 112.652C78.166 112.922 78.1172 113.223 78.1172 113.555V117H77.1387V110.578H77.9473L78.0527 111.762H78.0938C78.2266 111.523 78.3867 111.307 78.5742 111.111C78.7617 110.912 78.9785 110.754 79.2246 110.637C79.4746 110.52 79.752 110.461 80.0566 110.461Z" fill="#474D66"/>
<path d="M244.06 109.727L241 112.78L237.94 109.727L237 110.667L241 114.667L245 110.667L244.06 109.727Z" fill="#474D66"/>
<rect x="7.5" y="96.5" width="249" height="31" rx="3.5" stroke="#696F8C"/>
<circle cx="15" cy="15" r="14.5" fill="#101840" stroke="#101840"/>
<path d="M15.957 20H14.1465V15.043L14.1641 14.2285L14.1934 13.3379C13.8926 13.6387 13.6836 13.8359 13.5664 13.9297L12.582 14.7207L11.709 13.6309L14.4688 11.4336H15.957V20Z" fill="white"/>
<path d="M15 30V66" stroke="#101840" stroke-width="2"/>
<circle cx="15" cy="64" r="2.5" fill="#101840" stroke="#101840"/>
<circle cx="27" cy="172" r="14.5" transform="rotate(-180 27 172)" fill="#101840" stroke="#101840"/>
<path d="M30.4688 177H24.4805V175.74L26.6309 173.566C27.2676 172.914 27.6836 172.463 27.8789 172.213C28.0742 171.959 28.2148 171.725 28.3008 171.51C28.3867 171.295 28.4297 171.072 28.4297 170.842C28.4297 170.498 28.334 170.242 28.1426 170.074C27.9551 169.906 27.7031 169.822 27.3867 169.822C27.0547 169.822 26.7324 169.898 26.4199 170.051C26.1074 170.203 25.7812 170.42 25.4414 170.701L24.457 169.535C24.8789 169.176 25.2285 168.922 25.5059 168.773C25.7832 168.625 26.0859 168.512 26.4141 168.434C26.7422 168.352 27.1094 168.311 27.5156 168.311C28.0508 168.311 28.5234 168.408 28.9336 168.604C29.3438 168.799 29.6621 169.072 29.8887 169.424C30.1152 169.775 30.2285 170.178 30.2285 170.631C30.2285 171.025 30.1582 171.396 30.0176 171.744C29.8809 172.088 29.666 172.441 29.373 172.805C29.084 173.168 28.5723 173.686 27.8379 174.357L26.7363 175.395V175.477H30.4688V177Z" fill="white"/>
<path d="M27 157L27 121" stroke="#101840" stroke-width="2"/>
<circle cx="27" cy="123" r="2.5" transform="rotate(-180 27 123)" fill="#101840" stroke="#101840"/>
<circle cx="242" cy="172" r="14.5" transform="rotate(-180 242 172)" fill="#101840" stroke="#101840"/>
<path d="M245.135 170.35C245.135 170.885 244.973 171.34 244.648 171.715C244.324 172.09 243.869 172.348 243.283 172.488V172.523C243.975 172.609 244.498 172.82 244.854 173.156C245.209 173.488 245.387 173.938 245.387 174.504C245.387 175.328 245.088 175.971 244.49 176.432C243.893 176.889 243.039 177.117 241.93 177.117C241 177.117 240.176 176.963 239.457 176.654V175.113C239.789 175.281 240.154 175.418 240.553 175.523C240.951 175.629 241.346 175.682 241.736 175.682C242.334 175.682 242.775 175.58 243.061 175.377C243.346 175.174 243.488 174.848 243.488 174.398C243.488 173.996 243.324 173.711 242.996 173.543C242.668 173.375 242.145 173.291 241.426 173.291H240.775V171.902H241.438C242.102 171.902 242.586 171.816 242.891 171.645C243.199 171.469 243.354 171.17 243.354 170.748C243.354 170.1 242.947 169.775 242.135 169.775C241.854 169.775 241.566 169.822 241.273 169.916C240.984 170.01 240.662 170.172 240.307 170.402L239.469 169.154C240.25 168.592 241.182 168.311 242.264 168.311C243.15 168.311 243.85 168.49 244.361 168.85C244.877 169.209 245.135 169.709 245.135 170.35Z" fill="white"/>
<path d="M242 157V121" stroke="#101840" stroke-width="2"/>
<circle cx="242" cy="123" r="2.5" transform="rotate(-180 242 123)" fill="#101840" stroke="#101840"/>
</svg>
