<svg width="358" height="636" viewBox="0 0 358 636" fill="none" xmlns="http://www.w3.org/2000/svg">
<g filter="url(#filter0_d_1534_6753)">
<rect width="67.7368" height="622.717" transform="translate(7 6)" fill="white"/>
<rect x="25.4736" y="92.2104" width="30.7895" height="30.7895" rx="3.07895" fill="#F3F6FF"/>
<g clip-path="url(#clip0_1534_6753)">
<path d="M47.0264 100.678H46.2567V99.1382H44.7172V100.678H37.0198V99.1382H35.4804V100.678H34.7106C33.8639 100.678 33.1711 101.37 33.1711 102.217V114.533C33.1711 115.38 33.8639 116.072 34.7106 116.072H47.0264C47.8731 116.072 48.5659 115.38 48.5659 114.533V102.217C48.5659 101.37 47.8731 100.678 47.0264 100.678ZM47.0264 114.533H34.7106V106.066H47.0264V114.533ZM47.0264 104.526H34.7106V102.217H47.0264V104.526Z" fill="#3366FF"/>
</g>
<g clip-path="url(#clip1_1534_6753)">
<path d="M37.0196 174.572H38.5591V176.112H37.0196V174.572ZM47.7959 170.723V181.5C47.7959 182.347 47.1032 183.039 46.2565 183.039H35.4801C34.6257 183.039 33.9407 182.347 33.9407 181.5L33.9484 170.723C33.9484 169.877 34.6257 169.184 35.4801 169.184H36.2499V167.645H37.7894V169.184H43.9473V167.645H45.4867V169.184H46.2565C47.1032 169.184 47.7959 169.877 47.7959 170.723ZM35.4801 172.263H46.2565V170.723H35.4801V172.263ZM46.2565 181.5V173.802H35.4801V181.5H46.2565ZM43.1775 176.112H44.717V174.572H43.1775V176.112ZM40.0986 176.112H41.638V174.572H40.0986V176.112Z" fill="#474D66"/>
</g>
<g clip-path="url(#clip2_1534_6753)">
<path d="M41.6382 236.151C37.8126 236.151 34.7106 239.253 34.7106 243.079H32.4014L35.3956 246.073L35.4495 246.181L38.5593 243.079H36.2501C36.2501 240.1 38.6593 237.691 41.6382 237.691C44.6171 237.691 47.0264 240.1 47.0264 243.079C47.0264 246.058 44.6171 248.467 41.6382 248.467C40.1526 248.467 38.8056 247.859 37.8357 246.881L36.7427 247.975C37.9974 249.229 39.7216 250.007 41.6382 250.007C45.4638 250.007 48.5658 246.905 48.5658 243.079C48.5658 239.253 45.4638 236.151 41.6382 236.151ZM40.8685 240V243.849L44.1399 245.788L44.7326 244.803L42.0231 243.194V240H40.8685Z" fill="#474D66"/>
</g>
<g clip-path="url(#clip3_1534_6753)">
<path d="M44.3323 303.888C42.993 303.888 41.7075 304.512 40.8685 305.497C40.0295 304.512 38.744 303.888 37.4047 303.888C35.0339 303.888 33.1711 305.751 33.1711 308.122C33.1711 311.031 35.7882 313.402 39.7524 317.004L40.8685 318.013L41.9846 316.997C45.9488 313.402 48.5659 311.031 48.5659 308.122C48.5659 305.751 46.7031 303.888 44.3323 303.888ZM40.9455 315.858L40.8685 315.935L40.7915 315.858C37.1276 312.54 34.7106 310.346 34.7106 308.122C34.7106 306.582 35.8652 305.428 37.4047 305.428C38.5901 305.428 39.7447 306.19 40.1527 307.244H41.5921C41.9923 306.19 43.1469 305.428 44.3323 305.428C45.8718 305.428 47.0264 306.582 47.0264 308.122C47.0264 310.346 44.6094 312.54 40.9455 315.858Z" fill="#474D66"/>
</g>
<g clip-path="url(#clip4_1534_6753)">
<path d="M45.4867 376.243L44.4014 375.15L39.3288 380.223L37.3352 378.237L36.2499 379.322L39.3288 382.401L45.4867 376.243ZM46.2565 371.625H43.039C42.7157 370.732 41.869 370.085 40.8683 370.085C39.8676 370.085 39.0209 370.732 38.6976 371.625H35.4801C35.3724 371.625 35.2723 371.633 35.1723 371.656C34.8721 371.717 34.6026 371.871 34.3948 372.079C34.2563 372.218 34.1408 372.387 34.0638 372.572C33.9869 372.749 33.9407 372.949 33.9407 373.164V383.941C33.9407 384.149 33.9869 384.356 34.0638 384.541C34.1408 384.726 34.2563 384.887 34.3948 385.034C34.6026 385.242 34.8721 385.396 35.1723 385.457C35.2723 385.472 35.3724 385.48 35.4801 385.48H46.2565C47.1032 385.48 47.7959 384.787 47.7959 383.941V373.164C47.7959 372.318 47.1032 371.625 46.2565 371.625ZM40.8683 371.432C41.1839 371.432 41.4456 371.694 41.4456 372.01C41.4456 372.325 41.1839 372.587 40.8683 372.587C40.5527 372.587 40.291 372.325 40.291 372.01C40.291 371.694 40.5527 371.432 40.8683 371.432ZM46.2565 383.941H35.4801V373.164H46.2565V383.941Z" fill="#474D66"/>
</g>
<g clip-path="url(#clip5_1534_6753)">
<path d="M40.8683 441.671C41.7151 441.671 42.4078 442.364 42.4078 443.21C42.4078 444.057 41.7151 444.75 40.8683 444.75C40.0216 444.75 39.3289 444.057 39.3289 443.21C39.3289 442.364 40.0216 441.671 40.8683 441.671ZM40.8683 448.598C42.9466 448.598 45.3328 449.591 45.4868 450.138V450.908H36.2499V450.146C36.4039 449.591 38.7901 448.598 40.8683 448.598V448.598ZM40.8683 440.131C39.1672 440.131 37.7894 441.509 37.7894 443.21C37.7894 444.911 39.1672 446.289 40.8683 446.289C42.5695 446.289 43.9473 444.911 43.9473 443.21C43.9473 441.509 42.5695 440.131 40.8683 440.131V440.131ZM40.8683 447.059C38.8131 447.059 34.7104 448.09 34.7104 450.138V452.447H47.0262V450.138C47.0262 448.09 42.9235 447.059 40.8683 447.059V447.059Z" fill="#474D66"/>
</g>
<g clip-path="url(#clip6_1534_6753)">
<path d="M36.7105 508.638L42.8684 508.638L42.8684 507.098L36.7105 507.098C35.8638 507.098 35.171 507.791 35.171 508.638L35.171 519.414C35.171 520.261 35.8638 520.954 36.7105 520.954L42.8684 520.954L42.8684 519.414L36.7105 519.414L36.7105 508.638Z" fill="#474D66"/>
<path d="M44.0864 511.255L45.164 510.177L49.0127 514.026L45.164 517.875L44.0864 516.797L46.0877 514.796L39.8435 514.796L39.8435 513.256L46.0877 513.256L44.0864 511.255Z" fill="#474D66"/>
</g>
</g>
<g clip-path="url(#clip7_1534_6753)">
<path d="M39.329 36.02L38.2437 37.1053L41.769 40.6384L38.2437 44.1715L39.329 45.2569L43.9474 40.6384L39.329 36.02Z" fill="#474D66"/>
</g>
<g filter="url(#filter1_d_1534_6753)">
<rect width="216.296" height="622.717" transform="translate(119.382 6)" fill="white"/>
<rect x="144.013" y="68.3486" width="157.026" height="36.9474" rx="3.07895" fill="#EBF0FF"/>
<g clip-path="url(#clip8_1534_6753)">
<path d="M177.882 79.8945H177.112V78.355H175.572V79.8945H167.875V78.355H166.336V79.8945H165.566C164.719 79.8945 164.026 80.5872 164.026 81.4339V93.7497C164.026 94.5964 164.719 95.2892 165.566 95.2892H177.882C178.728 95.2892 179.421 94.5964 179.421 93.7497V81.4339C179.421 80.5872 178.728 79.8945 177.882 79.8945ZM177.882 93.7497H165.566V85.2826H177.882V93.7497ZM177.882 83.7431H165.566V81.4339H177.882V83.7431Z" fill="#3366FF"/>
</g>
<path d="M199.506 88.9289C199.506 89.45 199.378 89.8991 199.122 90.2759C198.869 90.6528 198.504 90.9414 198.027 91.1419C197.554 91.3423 196.989 91.4425 196.331 91.4425C196.011 91.4425 195.704 91.4245 195.411 91.3884C195.119 91.3523 194.842 91.3002 194.581 91.2321C194.325 91.1599 194.09 91.0737 193.878 90.9735V89.6144C194.235 89.7708 194.633 89.9131 195.074 90.0414C195.515 90.1657 195.964 90.2278 196.421 90.2278C196.794 90.2278 197.103 90.1797 197.348 90.0835C197.596 89.9832 197.781 89.8429 197.901 89.6625C198.021 89.4781 198.081 89.2636 198.081 89.0191C198.081 88.7585 198.011 88.538 197.871 88.3576C197.73 88.1772 197.518 88.0128 197.233 87.8645C196.953 87.7121 196.6 87.5498 196.175 87.3774C195.886 87.2611 195.61 87.1288 195.345 86.9805C195.084 86.8321 194.852 86.6577 194.647 86.4573C194.443 86.2568 194.281 86.0203 194.16 85.7477C194.044 85.4711 193.986 85.1463 193.986 84.7735C193.986 84.2764 194.104 83.8514 194.341 83.4986C194.581 83.1458 194.918 82.8752 195.351 82.6868C195.788 82.4984 196.297 82.4041 196.878 82.4041C197.34 82.4041 197.773 82.4523 198.177 82.5485C198.586 82.6447 198.987 82.781 199.38 82.9574L198.923 84.118C198.562 83.9697 198.212 83.8514 197.871 83.7632C197.534 83.675 197.189 83.6309 196.836 83.6309C196.532 83.6309 196.273 83.677 196.061 83.7692C195.848 83.8614 195.686 83.9917 195.574 84.1601C195.465 84.3245 195.411 84.5209 195.411 84.7494C195.411 85.006 195.473 85.2225 195.598 85.3989C195.726 85.5713 195.922 85.7296 196.187 85.874C196.456 86.0183 196.8 86.1787 197.221 86.3551C197.706 86.5555 198.117 86.766 198.454 86.9865C198.795 87.207 199.055 87.4716 199.236 87.7803C199.416 88.085 199.506 88.4678 199.506 88.9289ZM203.74 91.4425C203.111 91.4425 202.565 91.3203 202.104 91.0757C201.643 90.8312 201.288 90.4563 201.04 89.9512C200.791 89.446 200.667 88.8046 200.667 88.0268C200.667 87.217 200.803 86.5555 201.076 86.0424C201.349 85.5292 201.725 85.1503 202.207 84.9058C202.692 84.6612 203.247 84.539 203.872 84.539C204.269 84.539 204.628 84.5791 204.949 84.6592C205.273 84.7354 205.548 84.8296 205.773 84.9419L205.352 86.0724C205.107 85.9722 204.856 85.888 204.6 85.8199C204.343 85.7517 204.097 85.7176 203.86 85.7176C203.471 85.7176 203.147 85.8038 202.886 85.9762C202.629 86.1486 202.437 86.4052 202.309 86.7459C202.184 87.0867 202.122 87.5097 202.122 88.0148C202.122 88.5039 202.186 88.9168 202.315 89.2536C202.443 89.5863 202.633 89.8389 202.886 90.0113C203.139 90.1797 203.449 90.2639 203.818 90.2639C204.183 90.2639 204.51 90.2198 204.798 90.1316C205.087 90.0434 205.36 89.9291 205.616 89.7888V91.0156C205.364 91.1599 205.093 91.2661 204.804 91.3343C204.516 91.4065 204.161 91.4425 203.74 91.4425ZM208.593 81.9652V84.3165C208.593 84.561 208.585 84.7995 208.569 85.0321C208.557 85.2646 208.543 85.445 208.527 85.5733H208.605C208.745 85.3408 208.918 85.1503 209.122 85.002C209.327 84.8497 209.555 84.7354 209.808 84.6592C210.064 84.5831 210.337 84.545 210.626 84.545C211.135 84.545 211.568 84.6312 211.924 84.8036C212.281 84.9719 212.554 85.2345 212.742 85.5913C212.935 85.9481 213.031 86.4112 213.031 86.9805V91.3223H211.618V87.2451C211.618 86.7279 211.512 86.341 211.299 86.0844C211.087 85.8239 210.758 85.6936 210.313 85.6936C209.884 85.6936 209.543 85.7838 209.291 85.9642C209.042 86.1406 208.864 86.4032 208.755 86.752C208.647 87.0967 208.593 87.5177 208.593 88.0148V91.3223H207.18V81.9652H208.593ZM217.661 84.539C218.255 84.539 218.764 84.6612 219.189 84.9058C219.614 85.1503 219.941 85.4971 220.169 85.9461C220.398 86.3951 220.512 86.9324 220.512 87.5578V88.3155H216.068C216.084 88.9609 216.256 89.4581 216.585 89.8068C216.918 90.1556 217.383 90.33 217.98 90.33C218.405 90.33 218.786 90.2899 219.123 90.2098C219.463 90.1256 219.814 90.0033 220.175 89.8429V90.9915C219.842 91.1479 219.504 91.2621 219.159 91.3343C218.814 91.4065 218.401 91.4425 217.92 91.4425C217.266 91.4425 216.691 91.3163 216.194 91.0637C215.701 90.8071 215.314 90.4262 215.033 89.9211C214.757 89.416 214.619 88.7885 214.619 88.0389C214.619 87.2932 214.745 86.6597 214.997 86.1386C215.25 85.6174 215.605 85.2205 216.062 84.9479C216.519 84.6753 217.052 84.539 217.661 84.539ZM217.661 85.6034C217.216 85.6034 216.856 85.7477 216.579 86.0363C216.306 86.325 216.146 86.7479 216.098 87.3052H219.129C219.125 86.9725 219.069 86.6778 218.96 86.4212C218.856 86.1646 218.696 85.9642 218.479 85.8199C218.267 85.6755 217.994 85.6034 217.661 85.6034ZM224.342 91.4425C223.549 91.4425 222.911 91.1539 222.43 90.5766C221.953 89.9953 221.715 89.1393 221.715 88.0088C221.715 86.8662 221.957 86.0023 222.442 85.4169C222.931 84.8316 223.575 84.539 224.373 84.539C224.709 84.539 225.004 84.5851 225.257 84.6773C225.509 84.7655 225.726 84.8857 225.906 85.0381C226.09 85.1904 226.247 85.3608 226.375 85.5492H226.441C226.421 85.425 226.397 85.2466 226.369 85.014C226.345 84.7775 226.333 84.559 226.333 84.3586V81.9652H227.752V91.3223H226.646L226.393 90.4142H226.333C226.213 90.6067 226.06 90.781 225.876 90.9374C225.696 91.0897 225.479 91.212 225.226 91.3042C224.978 91.3964 224.683 91.4425 224.342 91.4425ZM224.739 90.2939C225.345 90.2939 225.772 90.1196 226.02 89.7708C226.269 89.422 226.397 88.8988 226.405 88.2012V88.0148C226.405 87.2691 226.285 86.6978 226.044 86.3009C225.804 85.9 225.365 85.6996 224.727 85.6996C224.218 85.6996 223.829 85.906 223.561 86.319C223.296 86.7279 223.164 87.2992 223.164 88.0328C223.164 88.7665 223.296 89.3278 223.561 89.7166C223.829 90.1015 224.222 90.2939 224.739 90.2939ZM235.582 84.6652V91.3223H234.469L234.277 90.4262H234.199C234.058 90.6548 233.88 90.8452 233.663 90.9975C233.447 91.1459 233.206 91.2561 232.942 91.3283C232.677 91.4045 232.399 91.4425 232.106 91.4425C231.605 91.4425 231.176 91.3583 230.819 91.19C230.466 91.0176 230.196 90.753 230.007 90.3962C229.819 90.0394 229.725 89.5783 229.725 89.0131V84.6652H231.144V88.7485C231.144 89.2656 231.248 89.6525 231.457 89.9091C231.669 90.1657 231.998 90.2939 232.443 90.2939C232.872 90.2939 233.212 90.2057 233.465 90.0293C233.718 89.853 233.896 89.5924 234 89.2476C234.109 88.9028 234.163 88.4799 234.163 87.9787V84.6652H235.582ZM239.028 91.3223H237.608V81.9652H239.028V91.3223ZM243.7 84.539C244.293 84.539 244.803 84.6612 245.228 84.9058C245.653 85.1503 245.979 85.4971 246.208 85.9461C246.436 86.3951 246.551 86.9324 246.551 87.5578V88.3155H242.107C242.123 88.9609 242.295 89.4581 242.624 89.8068C242.956 90.1556 243.422 90.33 244.019 90.33C244.444 90.33 244.825 90.2899 245.161 90.2098C245.502 90.1256 245.853 90.0033 246.214 89.8429V90.9915C245.881 91.1479 245.542 91.2621 245.198 91.3343C244.853 91.4065 244.44 91.4425 243.959 91.4425C243.305 91.4425 242.73 91.3163 242.233 91.0637C241.74 90.8071 241.353 90.4262 241.072 89.9211C240.796 89.416 240.657 88.7885 240.657 88.0389C240.657 87.2932 240.784 86.6597 241.036 86.1386C241.289 85.6174 241.644 85.2205 242.101 84.9479C242.558 84.6753 243.091 84.539 243.7 84.539ZM243.7 85.6034C243.255 85.6034 242.894 85.7477 242.618 86.0363C242.345 86.325 242.185 86.7479 242.137 87.3052H245.167C245.163 86.9725 245.107 86.6778 244.999 86.4212C244.895 86.1646 244.734 85.9642 244.518 85.8199C244.306 85.6755 244.033 85.6034 243.7 85.6034ZM255.817 89.422C255.817 89.859 255.711 90.2278 255.499 90.5285C255.286 90.8292 254.976 91.0577 254.567 91.214C254.162 91.3664 253.665 91.4425 253.075 91.4425C252.61 91.4425 252.209 91.4085 251.873 91.3403C251.54 91.2762 251.225 91.1759 250.928 91.0396V89.8189C251.245 89.9672 251.6 90.0955 251.993 90.2037C252.39 90.312 252.765 90.3661 253.117 90.3661C253.582 90.3661 253.917 90.2939 254.122 90.1496C254.326 90.0013 254.428 89.8048 254.428 89.5603C254.428 89.416 254.386 89.2877 254.302 89.1754C254.222 89.0592 254.07 88.9409 253.845 88.8206C253.625 88.6963 253.3 88.548 252.871 88.3756C252.45 88.2072 252.095 88.0389 251.806 87.8705C251.518 87.7021 251.299 87.4996 251.151 87.2631C251.003 87.0226 250.928 86.7159 250.928 86.343C250.928 85.7537 251.161 85.3067 251.626 85.002C252.095 84.6933 252.714 84.539 253.484 84.539C253.893 84.539 254.278 84.5811 254.639 84.6652C255.004 84.7454 255.36 84.8637 255.709 85.02L255.264 86.0844C254.964 85.9521 254.661 85.8439 254.356 85.7597C254.056 85.6715 253.749 85.6274 253.436 85.6274C253.071 85.6274 252.793 85.6835 252.6 85.7958C252.412 85.908 252.318 86.0684 252.318 86.2769C252.318 86.4332 252.364 86.5655 252.456 86.6738C252.548 86.782 252.706 86.8903 252.931 86.9985C253.159 87.1068 253.476 87.2411 253.881 87.4014C254.278 87.5538 254.621 87.7141 254.909 87.8825C255.202 88.0469 255.427 88.2493 255.583 88.4899C255.739 88.7304 255.817 89.0411 255.817 89.422ZM258.758 81.9652V84.3165C258.758 84.561 258.75 84.7995 258.734 85.0321C258.722 85.2646 258.708 85.445 258.692 85.5733H258.77C258.91 85.3408 259.083 85.1503 259.287 85.002C259.492 84.8497 259.72 84.7354 259.973 84.6592C260.229 84.5831 260.502 84.545 260.791 84.545C261.3 84.545 261.733 84.6312 262.09 84.8036C262.446 84.9719 262.719 85.2345 262.907 85.5913C263.1 85.9481 263.196 86.4112 263.196 86.9805V91.3223H261.783V87.2451C261.783 86.7279 261.677 86.341 261.464 86.0844C261.252 85.8239 260.923 85.6936 260.478 85.6936C260.049 85.6936 259.708 85.7838 259.456 85.9642C259.207 86.1406 259.029 86.4032 258.92 86.752C258.812 87.0967 258.758 87.5177 258.758 88.0148V91.3223H257.345V81.9652H258.758ZM266.588 84.6652V91.3223H265.175V84.6652H266.588ZM265.89 82.1155C266.107 82.1155 266.293 82.1736 266.449 82.2899C266.61 82.4061 266.69 82.6066 266.69 82.8912C266.69 83.1719 266.61 83.3723 266.449 83.4926C266.293 83.6089 266.107 83.667 265.89 83.667C265.666 83.667 265.475 83.6089 265.319 83.4926C265.167 83.3723 265.09 83.1719 265.09 82.8912C265.09 82.6066 265.167 82.4061 265.319 82.2899C265.475 82.1736 265.666 82.1155 265.89 82.1155ZM271.94 85.7417H270.322V91.3223H268.909V85.7417H267.821V85.0621L268.909 84.6472V84.1842C268.909 83.6189 268.997 83.1699 269.174 82.8371C269.354 82.5044 269.611 82.2658 269.943 82.1215C270.28 81.9732 270.681 81.899 271.146 81.899C271.451 81.899 271.729 81.9251 271.982 81.9772C272.235 82.0253 272.447 82.0814 272.619 82.1456L272.253 83.216C272.116 83.1719 271.964 83.1318 271.796 83.0957C271.627 83.0556 271.447 83.0356 271.254 83.0356C270.934 83.0356 270.697 83.1358 270.545 83.3362C270.396 83.5367 270.322 83.8294 270.322 84.2142V84.6652H271.94V85.7417ZM275.554 90.3C275.738 90.3 275.921 90.2839 276.101 90.2519C276.282 90.2158 276.446 90.1737 276.594 90.1256V91.196C276.438 91.2641 276.236 91.3223 275.987 91.3704C275.738 91.4185 275.48 91.4425 275.211 91.4425C274.834 91.4425 274.496 91.3804 274.195 91.2561C273.894 91.1278 273.656 90.9093 273.479 90.6006C273.303 90.2919 273.215 89.865 273.215 89.3197V85.7417H272.307V85.1102L273.281 84.6111L273.744 83.1859H274.634V84.6652H276.54V85.7417H274.634V89.3017C274.634 89.6385 274.718 89.889 274.887 90.0534C275.055 90.2178 275.277 90.3 275.554 90.3Z" fill="#3366FF"/>
<g filter="url(#filter2_d_1534_6753)">
<g clip-path="url(#clip9_1534_6753)">
<path d="M155.559 147.632H157.099V149.171H155.559V147.632ZM166.336 143.783V154.559C166.336 155.406 165.643 156.099 164.796 156.099H154.02C153.166 156.099 152.48 155.406 152.48 154.559L152.488 143.783C152.488 142.936 153.166 142.244 154.02 142.244H154.79V140.704H156.329V142.244H162.487V140.704H164.027V142.244H164.796C165.643 142.244 166.336 142.936 166.336 143.783ZM154.02 145.323H164.796V143.783H154.02V145.323ZM164.796 154.559V146.862H154.02V154.559H164.796ZM161.717 149.171H163.257V147.632H161.717V149.171ZM158.638 149.171H160.178V147.632H158.638V149.171Z" fill="#474D66"/>
</g>
<path d="M181.406 152.901L180.546 150.46H177.184L176.324 152.901H174.803L178.074 144.073H179.674L182.939 152.901H181.406ZM180.173 149.221L179.337 146.816C179.305 146.711 179.259 146.565 179.199 146.377C179.139 146.184 179.078 145.99 179.018 145.793C178.958 145.593 178.908 145.424 178.868 145.288C178.828 145.453 178.778 145.637 178.718 145.841C178.661 146.042 178.605 146.23 178.549 146.407C178.497 146.583 178.457 146.719 178.429 146.816L177.587 149.221H180.173ZM185.856 155.86C184.954 155.86 184.262 155.698 183.781 155.373C183.3 155.048 183.059 154.593 183.059 154.008C183.059 153.599 183.188 153.252 183.444 152.968C183.701 152.687 184.068 152.492 184.545 152.384C184.364 152.304 184.208 152.18 184.076 152.011C183.947 151.839 183.883 151.649 183.883 151.44C183.883 151.192 183.953 150.979 184.094 150.803C184.234 150.626 184.444 150.456 184.725 150.291C184.376 150.143 184.096 149.903 183.883 149.57C183.675 149.233 183.571 148.838 183.571 148.385C183.571 147.904 183.673 147.495 183.877 147.158C184.082 146.818 184.38 146.559 184.773 146.383C185.166 146.202 185.641 146.112 186.198 146.112C186.319 146.112 186.449 146.12 186.589 146.136C186.734 146.148 186.866 146.164 186.986 146.184C187.111 146.2 187.205 146.218 187.269 146.238H189.572V147.026L188.442 147.237C188.55 147.389 188.636 147.563 188.7 147.76C188.764 147.952 188.796 148.163 188.796 148.391C188.796 149.081 188.558 149.624 188.081 150.021C187.608 150.414 186.954 150.61 186.12 150.61C185.92 150.602 185.725 150.586 185.537 150.562C185.393 150.65 185.282 150.749 185.206 150.857C185.13 150.961 185.092 151.079 185.092 151.212C185.092 151.32 185.13 151.408 185.206 151.476C185.282 151.54 185.395 151.588 185.543 151.62C185.695 151.653 185.88 151.669 186.096 151.669H187.245C187.974 151.669 188.532 151.823 188.917 152.132C189.301 152.44 189.494 152.893 189.494 153.491C189.494 154.248 189.181 154.832 188.556 155.241C187.93 155.654 187.03 155.86 185.856 155.86ZM185.91 154.868C186.403 154.868 186.818 154.82 187.155 154.723C187.491 154.627 187.746 154.489 187.918 154.309C188.091 154.132 188.177 153.922 188.177 153.677C188.177 153.461 188.123 153.294 188.015 153.178C187.906 153.062 187.744 152.982 187.527 152.937C187.311 152.893 187.042 152.871 186.722 152.871H185.675C185.415 152.871 185.184 152.911 184.984 152.992C184.783 153.076 184.627 153.196 184.515 153.352C184.406 153.509 184.352 153.697 184.352 153.918C184.352 154.222 184.487 154.457 184.755 154.621C185.028 154.786 185.413 154.868 185.91 154.868ZM186.186 149.684C186.599 149.684 186.906 149.572 187.106 149.347C187.307 149.119 187.407 148.798 187.407 148.385C187.407 147.936 187.303 147.599 187.094 147.375C186.89 147.15 186.585 147.038 186.18 147.038C185.784 147.038 185.481 147.152 185.272 147.381C185.068 147.609 184.966 147.948 184.966 148.397C184.966 148.802 185.068 149.119 185.272 149.347C185.481 149.572 185.786 149.684 186.186 149.684ZM193.439 146.118C194.032 146.118 194.541 146.24 194.966 146.485C195.391 146.729 195.718 147.076 195.946 147.525C196.175 147.974 196.289 148.511 196.289 149.137V149.895H191.845C191.861 150.54 192.034 151.037 192.362 151.386C192.695 151.735 193.16 151.909 193.758 151.909C194.182 151.909 194.563 151.869 194.9 151.789C195.241 151.705 195.592 151.582 195.952 151.422V152.571C195.62 152.727 195.281 152.841 194.936 152.913C194.591 152.986 194.178 153.022 193.697 153.022C193.044 153.022 192.469 152.895 191.971 152.643C191.478 152.386 191.091 152.005 190.811 151.5C190.534 150.995 190.396 150.368 190.396 149.618C190.396 148.872 190.522 148.239 190.775 147.718C191.027 147.196 191.382 146.8 191.839 146.527C192.296 146.254 192.829 146.118 193.439 146.118ZM193.439 147.182C192.994 147.182 192.633 147.327 192.356 147.615C192.084 147.904 191.923 148.327 191.875 148.884H194.906C194.902 148.552 194.846 148.257 194.738 148C194.633 147.744 194.473 147.543 194.257 147.399C194.044 147.255 193.772 147.182 193.439 147.182ZM201.353 146.118C202.102 146.118 202.686 146.313 203.103 146.701C203.524 147.086 203.734 147.706 203.734 148.56V152.901H202.321V148.824C202.321 148.307 202.215 147.92 202.002 147.664C201.79 147.403 201.461 147.273 201.016 147.273C200.37 147.273 199.921 147.471 199.669 147.868C199.42 148.265 199.296 148.84 199.296 149.594V152.901H197.883V146.244H198.983L199.182 147.146H199.26C199.404 146.914 199.583 146.723 199.795 146.575C200.012 146.423 200.252 146.308 200.517 146.232C200.785 146.156 201.064 146.118 201.353 146.118ZM207.95 153.022C207.156 153.022 206.518 152.733 206.037 152.156C205.56 151.574 205.322 150.718 205.322 149.588C205.322 148.445 205.564 147.581 206.049 146.996C206.538 146.411 207.182 146.118 207.98 146.118C208.316 146.118 208.611 146.164 208.864 146.256C209.116 146.345 209.333 146.465 209.513 146.617C209.697 146.77 209.854 146.94 209.982 147.128H210.048C210.028 147.004 210.004 146.826 209.976 146.593C209.952 146.357 209.94 146.138 209.94 145.938V143.544H211.359V152.901H210.253L210 151.993H209.94C209.82 152.186 209.667 152.36 209.483 152.516C209.303 152.669 209.086 152.791 208.834 152.883C208.585 152.976 208.29 153.022 207.95 153.022ZM208.346 151.873C208.952 151.873 209.379 151.699 209.627 151.35C209.876 151.001 210.004 150.478 210.012 149.78V149.594C210.012 148.848 209.892 148.277 209.651 147.88C209.411 147.479 208.972 147.279 208.334 147.279C207.825 147.279 207.436 147.485 207.168 147.898C206.903 148.307 206.771 148.878 206.771 149.612C206.771 150.346 206.903 150.907 207.168 151.296C207.436 151.681 207.829 151.873 208.346 151.873ZM215.996 146.118C216.838 146.118 217.473 146.304 217.902 146.677C218.335 147.05 218.551 147.631 218.551 148.421V152.901H217.547L217.277 151.957H217.228C217.04 152.198 216.846 152.396 216.645 152.553C216.445 152.709 216.212 152.825 215.948 152.901C215.687 152.982 215.368 153.022 214.991 153.022C214.595 153.022 214.24 152.949 213.927 152.805C213.614 152.657 213.368 152.432 213.187 152.132C213.007 151.831 212.917 151.45 212.917 150.989C212.917 150.304 213.171 149.788 213.68 149.444C214.194 149.099 214.967 148.908 216.002 148.872L217.156 148.83V148.481C217.156 148.02 217.048 147.692 216.832 147.495C216.619 147.299 216.318 147.201 215.93 147.201C215.597 147.201 215.274 147.249 214.961 147.345C214.649 147.441 214.344 147.559 214.047 147.7L213.59 146.701C213.915 146.529 214.284 146.389 214.697 146.28C215.114 146.172 215.547 146.118 215.996 146.118ZM217.15 149.72L216.29 149.75C215.585 149.774 215.09 149.895 214.805 150.111C214.52 150.328 214.378 150.624 214.378 151.001C214.378 151.33 214.476 151.57 214.673 151.723C214.869 151.871 215.128 151.945 215.448 151.945C215.938 151.945 216.342 151.807 216.663 151.53C216.988 151.25 217.15 150.839 217.15 150.297V149.72Z" fill="#474D66"/>
</g>
<g filter="url(#filter3_d_1534_6753)">
<g clip-path="url(#clip10_1534_6753)">
<path d="M160.178 203.052C156.352 203.052 153.25 206.154 153.25 209.98H150.941L153.935 212.974L153.989 213.082L157.099 209.98H154.79C154.79 207.001 157.199 204.592 160.178 204.592C163.157 204.592 165.566 207.001 165.566 209.98C165.566 212.959 163.157 215.368 160.178 215.368C158.692 215.368 157.345 214.76 156.375 213.782L155.282 214.875C156.537 216.13 158.261 216.908 160.178 216.908C164.003 216.908 167.105 213.805 167.105 209.98C167.105 206.154 164.003 203.052 160.178 203.052ZM159.408 206.901V210.75L162.679 212.689L163.272 211.704L160.563 210.095V206.901H159.408Z" fill="#474D66"/>
</g>
<path d="M182.891 214.48H181.454V210.511H177.401V214.48H175.957V205.688H177.401V209.284H181.454V205.688H182.891V214.48ZM186.487 207.823V214.48H185.074V207.823H186.487ZM185.79 205.273C186.006 205.273 186.192 205.331 186.349 205.448C186.509 205.564 186.589 205.764 186.589 206.049C186.589 206.33 186.509 206.53 186.349 206.65C186.192 206.767 186.006 206.825 185.79 206.825C185.565 206.825 185.375 206.767 185.218 206.65C185.066 206.53 184.99 206.33 184.99 206.049C184.99 205.764 185.066 205.564 185.218 205.448C185.375 205.331 185.565 205.273 185.79 205.273ZM192.988 212.58C192.988 213.017 192.882 213.386 192.669 213.686C192.457 213.987 192.146 214.215 191.737 214.372C191.332 214.524 190.835 214.6 190.246 214.6C189.781 214.6 189.38 214.566 189.043 214.498C188.71 214.434 188.395 214.334 188.099 214.197V212.977C188.415 213.125 188.77 213.253 189.163 213.361C189.56 213.47 189.935 213.524 190.288 213.524C190.753 213.524 191.087 213.452 191.292 213.307C191.496 213.159 191.599 212.963 191.599 212.718C191.599 212.574 191.557 212.445 191.472 212.333C191.392 212.217 191.24 212.099 191.015 211.978C190.795 211.854 190.47 211.706 190.041 211.533C189.62 211.365 189.265 211.197 188.977 211.028C188.688 210.86 188.47 210.657 188.321 210.421C188.173 210.18 188.099 209.874 188.099 209.501C188.099 208.911 188.331 208.464 188.796 208.16C189.265 207.851 189.885 207.697 190.655 207.697C191.063 207.697 191.448 207.739 191.809 207.823C192.174 207.903 192.531 208.021 192.88 208.178L192.435 209.242C192.134 209.11 191.831 209.002 191.526 208.917C191.226 208.829 190.919 208.785 190.606 208.785C190.242 208.785 189.963 208.841 189.771 208.954C189.582 209.066 189.488 209.226 189.488 209.435C189.488 209.591 189.534 209.723 189.626 209.831C189.718 209.94 189.877 210.048 190.101 210.156C190.33 210.264 190.646 210.399 191.051 210.559C191.448 210.711 191.791 210.872 192.08 211.04C192.372 211.205 192.597 211.407 192.753 211.648C192.91 211.888 192.988 212.199 192.988 212.58ZM196.993 213.458C197.177 213.458 197.36 213.442 197.54 213.41C197.72 213.373 197.885 213.331 198.033 213.283V214.354C197.877 214.422 197.674 214.48 197.426 214.528C197.177 214.576 196.919 214.6 196.65 214.6C196.273 214.6 195.934 214.538 195.634 214.414C195.333 214.286 195.095 214.067 194.918 213.758C194.742 213.45 194.654 213.023 194.654 212.477V208.899H193.745V208.268L194.72 207.769L195.183 206.344H196.073V207.823H197.979V208.899H196.073V212.459C196.073 212.796 196.157 213.047 196.325 213.211C196.494 213.375 196.716 213.458 196.993 213.458ZM205.28 211.136C205.28 211.69 205.207 212.181 205.063 212.61C204.919 213.039 204.708 213.402 204.432 213.698C204.155 213.991 203.822 214.215 203.433 214.372C203.044 214.524 202.605 214.6 202.116 214.6C201.659 214.6 201.24 214.524 200.86 214.372C200.479 214.215 200.148 213.991 199.867 213.698C199.591 213.402 199.376 213.039 199.224 212.61C199.071 212.181 198.995 211.69 198.995 211.136C198.995 210.403 199.122 209.781 199.374 209.272C199.631 208.759 199.996 208.368 200.469 208.1C200.942 207.831 201.505 207.697 202.158 207.697C202.772 207.697 203.313 207.831 203.782 208.1C204.251 208.368 204.618 208.759 204.883 209.272C205.147 209.785 205.28 210.407 205.28 211.136ZM200.451 211.136C200.451 211.622 200.509 212.036 200.625 212.381C200.745 212.726 200.93 212.991 201.178 213.175C201.427 213.355 201.748 213.446 202.14 213.446C202.533 213.446 202.854 213.355 203.103 213.175C203.351 212.991 203.534 212.726 203.65 212.381C203.766 212.036 203.824 211.622 203.824 211.136C203.824 210.651 203.766 210.24 203.65 209.904C203.534 209.563 203.351 209.304 203.103 209.128C202.854 208.947 202.531 208.857 202.134 208.857C201.549 208.857 201.122 209.054 200.854 209.447C200.585 209.84 200.451 210.403 200.451 211.136ZM210.277 207.697C210.389 207.697 210.511 207.703 210.644 207.715C210.776 207.727 210.89 207.743 210.986 207.763L210.854 209.086C210.77 209.062 210.666 209.044 210.541 209.032C210.421 209.02 210.313 209.014 210.217 209.014C209.964 209.014 209.724 209.056 209.495 209.14C209.266 209.22 209.064 209.344 208.888 209.513C208.711 209.677 208.573 209.884 208.473 210.132C208.372 210.381 208.322 210.669 208.322 210.998V214.48H206.903V207.823H208.01L208.202 208.996H208.268C208.401 208.759 208.565 208.543 208.761 208.346C208.958 208.15 209.182 207.993 209.435 207.877C209.691 207.757 209.972 207.697 210.277 207.697ZM211.215 207.823H212.754L214.119 211.624C214.18 211.796 214.234 211.966 214.282 212.135C214.334 212.299 214.378 212.461 214.414 212.622C214.454 212.782 214.486 212.943 214.51 213.103H214.546C214.587 212.894 214.643 212.662 214.715 212.405C214.791 212.145 214.875 211.884 214.967 211.624L216.278 207.823H217.8L214.943 215.394C214.779 215.827 214.576 216.196 214.336 216.501C214.099 216.809 213.819 217.042 213.494 217.198C213.169 217.358 212.798 217.439 212.382 217.439C212.181 217.439 212.007 217.427 211.858 217.403C211.71 217.383 211.584 217.36 211.479 217.336V216.206C211.564 216.226 211.67 216.244 211.798 216.26C211.927 216.276 212.059 216.284 212.195 216.284C212.448 216.284 212.666 216.234 212.851 216.134C213.035 216.033 213.191 215.891 213.32 215.707C213.448 215.526 213.554 215.32 213.638 215.087L213.873 214.462L211.215 207.823Z" fill="#474D66"/>
</g>
<g filter="url(#filter4_d_1534_6753)">
<g clip-path="url(#clip11_1534_6753)">
<path d="M162.872 264.631C161.533 264.631 160.247 265.255 159.408 266.24C158.569 265.255 157.284 264.631 155.944 264.631C153.573 264.631 151.711 266.494 151.711 268.865C151.711 271.775 154.328 274.145 158.292 277.748L159.408 278.756L160.524 277.74C164.488 274.145 167.105 271.775 167.105 268.865C167.105 266.494 165.243 264.631 162.872 264.631ZM159.485 276.601L159.408 276.678L159.331 276.601C155.667 273.283 153.25 271.089 153.25 268.865C153.25 267.325 154.405 266.171 155.944 266.171C157.13 266.171 158.284 266.933 158.692 267.987H160.132C160.532 266.933 161.686 266.171 162.872 266.171C164.411 266.171 165.566 267.325 165.566 268.865C165.566 271.089 163.149 273.283 159.485 276.601Z" fill="#474D66"/>
</g>
<path d="M179.752 276.059L177.22 268.717H177.166C177.178 268.881 177.192 269.105 177.208 269.39C177.224 269.675 177.238 269.979 177.25 270.304C177.262 270.629 177.268 270.94 177.268 271.236V276.059H175.957V267.267H177.984L180.419 274.285H180.455L182.975 267.267H184.996V276.059H183.619V271.164C183.619 270.895 183.623 270.605 183.631 270.292C183.643 269.979 183.655 269.683 183.667 269.402C183.683 269.121 183.695 268.897 183.703 268.729H183.655L181.027 276.059H179.752ZM186.162 269.402H187.702L189.067 273.203C189.127 273.375 189.181 273.545 189.229 273.714C189.281 273.878 189.326 274.041 189.362 274.201C189.402 274.361 189.434 274.522 189.458 274.682H189.494C189.534 274.474 189.59 274.241 189.662 273.984C189.738 273.724 189.823 273.463 189.915 273.203L191.226 269.402H192.747L189.891 276.973C189.726 277.406 189.524 277.775 189.283 278.08C189.047 278.388 188.766 278.621 188.442 278.777C188.117 278.938 187.746 279.018 187.329 279.018C187.129 279.018 186.954 279.006 186.806 278.982C186.657 278.962 186.531 278.94 186.427 278.916V277.785C186.511 277.805 186.617 277.823 186.746 277.839C186.874 277.855 187.006 277.863 187.143 277.863C187.395 277.863 187.614 277.813 187.798 277.713C187.982 277.613 188.139 277.47 188.267 277.286C188.395 277.105 188.502 276.899 188.586 276.666L188.82 276.041L186.162 269.402ZM199.194 276.179C198.4 276.179 197.763 275.891 197.281 275.313C196.804 274.732 196.566 273.876 196.566 272.746C196.566 271.603 196.808 270.739 197.293 270.154C197.783 269.568 198.426 269.276 199.224 269.276C199.561 269.276 199.855 269.322 200.108 269.414C200.36 269.502 200.577 269.623 200.757 269.775C200.942 269.927 201.098 270.098 201.226 270.286H201.293C201.272 270.162 201.248 269.983 201.22 269.751C201.196 269.514 201.184 269.296 201.184 269.095V266.702H202.603V276.059H201.497L201.244 275.151H201.184C201.064 275.343 200.912 275.518 200.727 275.674C200.547 275.827 200.33 275.949 200.078 276.041C199.829 276.133 199.535 276.179 199.194 276.179ZM199.591 275.031C200.196 275.031 200.623 274.856 200.872 274.508C201.12 274.159 201.248 273.636 201.256 272.938V272.752C201.256 272.006 201.136 271.435 200.896 271.038C200.655 270.637 200.216 270.436 199.579 270.436C199.069 270.436 198.681 270.643 198.412 271.056C198.147 271.465 198.015 272.036 198.015 272.77C198.015 273.503 198.147 274.065 198.412 274.453C198.681 274.838 199.073 275.031 199.591 275.031ZM210.523 272.716C210.523 273.269 210.451 273.76 210.307 274.189C210.163 274.618 209.952 274.981 209.675 275.277C209.399 275.57 209.066 275.794 208.677 275.951C208.288 276.103 207.849 276.179 207.36 276.179C206.903 276.179 206.484 276.103 206.103 275.951C205.723 275.794 205.392 275.57 205.111 275.277C204.834 274.981 204.62 274.618 204.468 274.189C204.315 273.76 204.239 273.269 204.239 272.716C204.239 271.982 204.365 271.36 204.618 270.851C204.875 270.338 205.239 269.947 205.712 269.679C206.186 269.41 206.749 269.276 207.402 269.276C208.016 269.276 208.557 269.41 209.026 269.679C209.495 269.947 209.862 270.338 210.126 270.851C210.391 271.364 210.523 271.986 210.523 272.716ZM205.694 272.716C205.694 273.201 205.753 273.616 205.869 273.96C205.989 274.305 206.174 274.57 206.422 274.754C206.671 274.935 206.991 275.025 207.384 275.025C207.777 275.025 208.098 274.935 208.346 274.754C208.595 274.57 208.777 274.305 208.894 273.96C209.01 273.616 209.068 273.201 209.068 272.716C209.068 272.23 209.01 271.82 208.894 271.483C208.777 271.142 208.595 270.883 208.346 270.707C208.098 270.527 207.775 270.436 207.378 270.436C206.793 270.436 206.366 270.633 206.097 271.026C205.829 271.419 205.694 271.982 205.694 272.716ZM214.829 276.179C214.2 276.179 213.654 276.057 213.193 275.813C212.732 275.568 212.378 275.193 212.129 274.688C211.88 274.183 211.756 273.541 211.756 272.764C211.756 271.954 211.892 271.292 212.165 270.779C212.438 270.266 212.815 269.887 213.296 269.643C213.781 269.398 214.336 269.276 214.961 269.276C215.358 269.276 215.717 269.316 216.038 269.396C216.363 269.472 216.637 269.566 216.862 269.679L216.441 270.809C216.196 270.709 215.946 270.625 215.689 270.557C215.432 270.489 215.186 270.454 214.949 270.454C214.56 270.454 214.236 270.541 213.975 270.713C213.719 270.885 213.526 271.142 213.398 271.483C213.274 271.824 213.211 272.246 213.211 272.752C213.211 273.241 213.276 273.654 213.404 273.99C213.532 274.323 213.723 274.576 213.975 274.748C214.228 274.917 214.538 275.001 214.907 275.001C215.272 275.001 215.599 274.957 215.887 274.868C216.176 274.78 216.449 274.666 216.705 274.526V275.752C216.453 275.897 216.182 276.003 215.893 276.071C215.605 276.143 215.25 276.179 214.829 276.179ZM220.746 275.037C220.931 275.037 221.113 275.021 221.294 274.989C221.474 274.953 221.638 274.91 221.787 274.862V275.933C221.63 276.001 221.428 276.059 221.179 276.107C220.931 276.155 220.672 276.179 220.404 276.179C220.027 276.179 219.688 276.117 219.387 275.993C219.087 275.865 218.848 275.646 218.672 275.337C218.495 275.029 218.407 274.602 218.407 274.057V270.478H217.499V269.847L218.473 269.348L218.936 267.923H219.826V269.402H221.733V270.478H219.826V274.039C219.826 274.375 219.911 274.626 220.079 274.79C220.247 274.955 220.47 275.037 220.746 275.037ZM229.033 272.716C229.033 273.269 228.961 273.76 228.817 274.189C228.672 274.618 228.462 274.981 228.185 275.277C227.909 275.57 227.576 275.794 227.187 275.951C226.798 276.103 226.359 276.179 225.87 276.179C225.413 276.179 224.994 276.103 224.613 275.951C224.232 275.794 223.902 275.57 223.621 275.277C223.344 274.981 223.13 274.618 222.977 274.189C222.825 273.76 222.749 273.269 222.749 272.716C222.749 271.982 222.875 271.36 223.128 270.851C223.384 270.338 223.749 269.947 224.222 269.679C224.695 269.41 225.259 269.276 225.912 269.276C226.525 269.276 227.067 269.41 227.536 269.679C228.005 269.947 228.372 270.338 228.636 270.851C228.901 271.364 229.033 271.986 229.033 272.716ZM224.204 272.716C224.204 273.201 224.262 273.616 224.379 273.96C224.499 274.305 224.683 274.57 224.932 274.754C225.18 274.935 225.501 275.025 225.894 275.025C226.287 275.025 226.608 274.935 226.856 274.754C227.105 274.57 227.287 274.305 227.403 273.96C227.52 273.616 227.578 273.201 227.578 272.716C227.578 272.23 227.52 271.82 227.403 271.483C227.287 271.142 227.105 270.883 226.856 270.707C226.608 270.527 226.285 270.436 225.888 270.436C225.303 270.436 224.876 270.633 224.607 271.026C224.339 271.419 224.204 271.982 224.204 272.716ZM234.03 269.276C234.143 269.276 234.265 269.282 234.397 269.294C234.53 269.306 234.644 269.322 234.74 269.342L234.608 270.665C234.523 270.641 234.419 270.623 234.295 270.611C234.175 270.599 234.066 270.593 233.97 270.593C233.718 270.593 233.477 270.635 233.249 270.719C233.02 270.799 232.818 270.923 232.641 271.092C232.465 271.256 232.327 271.463 232.226 271.711C232.126 271.96 232.076 272.248 232.076 272.577V276.059H230.657V269.402H231.763L231.956 270.575H232.022C232.154 270.338 232.319 270.122 232.515 269.925C232.711 269.729 232.936 269.572 233.188 269.456C233.445 269.336 233.726 269.276 234.03 269.276ZM240.447 274.159C240.447 274.596 240.341 274.965 240.128 275.265C239.916 275.566 239.605 275.794 239.196 275.951C238.791 276.103 238.294 276.179 237.705 276.179C237.24 276.179 236.839 276.145 236.502 276.077C236.169 276.013 235.854 275.913 235.558 275.776V274.556C235.875 274.704 236.229 274.832 236.622 274.941C237.019 275.049 237.394 275.103 237.747 275.103C238.212 275.103 238.547 275.031 238.751 274.886C238.955 274.738 239.058 274.542 239.058 274.297C239.058 274.153 239.016 274.024 238.931 273.912C238.851 273.796 238.699 273.678 238.474 273.557C238.254 273.433 237.929 273.285 237.5 273.112C237.079 272.944 236.724 272.776 236.436 272.607C236.147 272.439 235.929 272.236 235.78 272C235.632 271.759 235.558 271.453 235.558 271.08C235.558 270.491 235.79 270.044 236.255 269.739C236.724 269.43 237.344 269.276 238.114 269.276C238.523 269.276 238.907 269.318 239.268 269.402C239.633 269.482 239.99 269.601 240.339 269.757L239.894 270.821C239.593 270.689 239.29 270.581 238.986 270.497C238.685 270.408 238.378 270.364 238.065 270.364C237.701 270.364 237.422 270.42 237.23 270.533C237.041 270.645 236.947 270.805 236.947 271.014C236.947 271.17 236.993 271.302 237.085 271.411C237.177 271.519 237.336 271.627 237.56 271.735C237.789 271.844 238.106 271.978 238.51 272.138C238.907 272.291 239.25 272.451 239.539 272.619C239.831 272.784 240.056 272.986 240.212 273.227C240.369 273.467 240.447 273.778 240.447 274.159Z" fill="#474D66"/>
</g>
<g filter="url(#filter5_d_1534_6753)">
<g clip-path="url(#clip12_1534_6753)">
<path d="M164.027 330.829L162.941 329.736L157.869 334.808L155.875 332.822L154.79 333.908L157.869 336.987L164.027 330.829ZM164.796 326.21H161.579C161.255 325.317 160.409 324.671 159.408 324.671C158.407 324.671 157.561 325.317 157.237 326.21H154.02C153.912 326.21 153.812 326.218 153.712 326.241C153.412 326.303 153.142 326.457 152.935 326.665C152.796 326.803 152.681 326.972 152.604 327.157C152.527 327.334 152.48 327.534 152.48 327.75V338.526C152.48 338.734 152.527 338.942 152.604 339.127C152.681 339.311 152.796 339.473 152.935 339.619C153.142 339.827 153.412 339.981 153.712 340.043C153.812 340.058 153.912 340.066 154.02 340.066H164.796C165.643 340.066 166.336 339.373 166.336 338.526V327.75C166.336 326.903 165.643 326.21 164.796 326.21ZM159.408 326.018C159.724 326.018 159.985 326.28 159.985 326.595C159.985 326.911 159.724 327.173 159.408 327.173C159.093 327.173 158.831 326.911 158.831 326.595C158.831 326.28 159.093 326.018 159.408 326.018ZM164.796 338.526H154.02V327.75H164.796V338.526Z" fill="#474D66"/>
</g>
<path d="M181.406 337.638L180.546 335.197H177.184L176.324 337.638H174.803L178.074 328.81H179.674L182.939 337.638H181.406ZM180.173 333.958L179.337 331.552C179.305 331.448 179.259 331.302 179.199 331.113C179.139 330.921 179.078 330.727 179.018 330.53C178.958 330.33 178.908 330.161 178.868 330.025C178.828 330.189 178.778 330.374 178.718 330.578C178.661 330.779 178.605 330.967 178.549 331.144C178.497 331.32 178.457 331.456 178.429 331.552L177.587 333.958H180.173ZM189.758 330.981V337.638H188.646L188.454 336.742H188.375C188.235 336.971 188.057 337.161 187.84 337.313C187.624 337.462 187.383 337.572 187.119 337.644C186.854 337.72 186.575 337.758 186.283 337.758C185.782 337.758 185.353 337.674 184.996 337.506C184.643 337.333 184.372 337.069 184.184 336.712C183.995 336.355 183.901 335.894 183.901 335.329V330.981H185.32V335.064C185.32 335.582 185.425 335.968 185.633 336.225C185.846 336.482 186.174 336.61 186.619 336.61C187.048 336.61 187.389 336.522 187.642 336.345C187.894 336.169 188.073 335.908 188.177 335.564C188.285 335.219 188.339 334.796 188.339 334.295V330.981H189.758ZM194.263 336.616C194.447 336.616 194.629 336.6 194.81 336.568C194.99 336.532 195.155 336.49 195.303 336.441V337.512C195.147 337.58 194.944 337.638 194.696 337.686C194.447 337.734 194.188 337.758 193.92 337.758C193.543 337.758 193.204 337.696 192.904 337.572C192.603 337.444 192.364 337.225 192.188 336.917C192.012 336.608 191.923 336.181 191.923 335.636V332.058H191.015V331.426L191.99 330.927L192.453 329.502H193.343V330.981H195.249V332.058H193.343V335.618C193.343 335.954 193.427 336.205 193.595 336.369C193.764 336.534 193.986 336.616 194.263 336.616ZM198.069 328.281V330.632C198.069 330.877 198.061 331.115 198.045 331.348C198.033 331.581 198.019 331.761 198.003 331.889H198.081C198.222 331.657 198.394 331.466 198.598 331.318C198.803 331.166 199.031 331.051 199.284 330.975C199.541 330.899 199.813 330.861 200.102 330.861C200.611 330.861 201.044 330.947 201.401 331.119C201.758 331.288 202.03 331.55 202.219 331.907C202.411 332.264 202.507 332.727 202.507 333.296V337.638H201.094V333.561C201.094 333.044 200.988 332.657 200.775 332.4C200.563 332.14 200.234 332.009 199.789 332.009C199.36 332.009 199.019 332.1 198.767 332.28C198.518 332.456 198.34 332.719 198.232 333.068C198.123 333.413 198.069 333.834 198.069 334.331V337.638H196.656V328.281H198.069ZM210.379 334.295C210.379 334.848 210.307 335.339 210.163 335.768C210.018 336.197 209.808 336.56 209.531 336.856C209.254 337.149 208.922 337.374 208.533 337.53C208.144 337.682 207.705 337.758 207.216 337.758C206.759 337.758 206.34 337.682 205.959 337.53C205.578 337.374 205.247 337.149 204.967 336.856C204.69 336.56 204.476 336.197 204.323 335.768C204.171 335.339 204.095 334.848 204.095 334.295C204.095 333.561 204.221 332.94 204.474 332.43C204.73 331.917 205.095 331.526 205.568 331.258C206.041 330.989 206.604 330.855 207.258 330.855C207.871 330.855 208.413 330.989 208.882 331.258C209.351 331.526 209.718 331.917 209.982 332.43C210.247 332.944 210.379 333.565 210.379 334.295ZM205.55 334.295C205.55 334.78 205.608 335.195 205.725 335.539C205.845 335.884 206.029 336.149 206.278 336.333C206.526 336.514 206.847 336.604 207.24 336.604C207.633 336.604 207.954 336.514 208.202 336.333C208.451 336.149 208.633 335.884 208.749 335.539C208.866 335.195 208.924 334.78 208.924 334.295C208.924 333.81 208.866 333.399 208.749 333.062C208.633 332.721 208.451 332.463 208.202 332.286C207.954 332.106 207.631 332.015 207.234 332.015C206.649 332.015 206.222 332.212 205.953 332.605C205.684 332.998 205.55 333.561 205.55 334.295ZM215.376 330.855C215.489 330.855 215.611 330.861 215.743 330.873C215.875 330.885 215.99 330.901 216.086 330.921L215.954 332.244C215.869 332.22 215.765 332.202 215.641 332.19C215.521 332.178 215.412 332.172 215.316 332.172C215.064 332.172 214.823 332.214 214.595 332.298C214.366 332.378 214.164 332.503 213.987 332.671C213.811 332.835 213.672 333.042 213.572 333.29C213.472 333.539 213.422 333.828 213.422 334.156V337.638H212.003V330.981H213.109L213.302 332.154H213.368C213.5 331.917 213.664 331.701 213.861 331.504C214.057 331.308 214.282 331.152 214.534 331.035C214.791 330.915 215.072 330.855 215.376 330.855ZM218.732 330.981V337.638H217.319V330.981H218.732ZM218.034 328.431C218.251 328.431 218.437 328.49 218.594 328.606C218.754 328.722 218.834 328.923 218.834 329.207C218.834 329.488 218.754 329.688 218.594 329.809C218.437 329.925 218.251 329.983 218.034 329.983C217.81 329.983 217.619 329.925 217.463 329.809C217.311 329.688 217.234 329.488 217.234 329.207C217.234 328.923 217.311 328.722 217.463 328.606C217.619 328.49 217.81 328.431 218.034 328.431ZM225.214 337.638H220.157V336.766L223.519 332.07H220.362V330.981H225.118V331.943L221.823 336.55H225.214V337.638ZM229.262 330.855C230.104 330.855 230.739 331.041 231.168 331.414C231.601 331.787 231.817 332.368 231.817 333.158V337.638H230.813L230.543 336.694H230.494C230.306 336.935 230.112 337.133 229.911 337.289C229.711 337.446 229.478 337.562 229.214 337.638C228.953 337.718 228.634 337.758 228.257 337.758C227.86 337.758 227.506 337.686 227.193 337.542C226.88 337.394 226.634 337.169 226.453 336.868C226.273 336.568 226.183 336.187 226.183 335.726C226.183 335.04 226.437 334.525 226.946 334.18C227.46 333.836 228.233 333.645 229.268 333.609L230.422 333.567V333.218C230.422 332.757 230.314 332.428 230.097 332.232C229.885 332.036 229.584 331.937 229.195 331.937C228.863 331.937 228.54 331.985 228.227 332.082C227.915 332.178 227.61 332.296 227.313 332.436L226.856 331.438C227.181 331.266 227.55 331.125 227.963 331.017C228.38 330.909 228.813 330.855 229.262 330.855ZM230.416 334.457L229.556 334.487C228.851 334.511 228.356 334.631 228.071 334.848C227.786 335.064 227.644 335.361 227.644 335.738C227.644 336.067 227.742 336.307 227.939 336.46C228.135 336.608 228.394 336.682 228.714 336.682C229.203 336.682 229.608 336.544 229.929 336.267C230.254 335.986 230.416 335.576 230.416 335.034V334.457ZM236.273 336.616C236.458 336.616 236.64 336.6 236.821 336.568C237.001 336.532 237.165 336.49 237.314 336.441V337.512C237.157 337.58 236.955 337.638 236.706 337.686C236.458 337.734 236.199 337.758 235.931 337.758C235.554 337.758 235.215 337.696 234.914 337.572C234.614 337.444 234.375 337.225 234.199 336.917C234.022 336.608 233.934 336.181 233.934 335.636V332.058H233.026V331.426L234 330.927L234.463 329.502H235.353V330.981H237.26V332.058H235.353V335.618C235.353 335.954 235.438 336.205 235.606 336.369C235.774 336.534 235.997 336.616 236.273 336.616ZM240.08 330.981V337.638H238.667V330.981H240.08ZM239.382 328.431C239.599 328.431 239.785 328.49 239.942 328.606C240.102 328.722 240.182 328.923 240.182 329.207C240.182 329.488 240.102 329.688 239.942 329.809C239.785 329.925 239.599 329.983 239.382 329.983C239.158 329.983 238.968 329.925 238.811 329.809C238.659 329.688 238.583 329.488 238.583 329.207C238.583 328.923 238.659 328.722 238.811 328.606C238.968 328.49 239.158 328.431 239.382 328.431ZM248 334.295C248 334.848 247.928 335.339 247.783 335.768C247.639 336.197 247.429 336.56 247.152 336.856C246.875 337.149 246.543 337.374 246.154 337.53C245.765 337.682 245.326 337.758 244.837 337.758C244.38 337.758 243.961 337.682 243.58 337.53C243.199 337.374 242.868 337.149 242.588 336.856C242.311 336.56 242.097 336.197 241.944 335.768C241.792 335.339 241.716 334.848 241.716 334.295C241.716 333.561 241.842 332.94 242.095 332.43C242.351 331.917 242.716 331.526 243.189 331.258C243.662 330.989 244.225 330.855 244.879 330.855C245.492 330.855 246.033 330.989 246.503 331.258C246.972 331.526 247.338 331.917 247.603 332.43C247.868 332.944 248 333.565 248 334.295ZM243.171 334.295C243.171 334.78 243.229 335.195 243.345 335.539C243.466 335.884 243.65 336.149 243.899 336.333C244.147 336.514 244.468 336.604 244.861 336.604C245.254 336.604 245.574 336.514 245.823 336.333C246.072 336.149 246.254 335.884 246.37 335.539C246.486 335.195 246.545 334.78 246.545 334.295C246.545 333.81 246.486 333.399 246.37 333.062C246.254 332.721 246.072 332.463 245.823 332.286C245.574 332.106 245.252 332.015 244.855 332.015C244.269 332.015 243.843 332.212 243.574 332.605C243.305 332.998 243.171 333.561 243.171 334.295ZM253.093 330.855C253.843 330.855 254.426 331.049 254.843 331.438C255.264 331.823 255.475 332.442 255.475 333.296V337.638H254.062V333.561C254.062 333.044 253.955 332.657 253.743 332.4C253.53 332.14 253.202 332.009 252.757 332.009C252.111 332.009 251.662 332.208 251.41 332.605C251.161 333.002 251.037 333.577 251.037 334.331V337.638H249.624V330.981H250.724L250.922 331.883H251.001C251.145 331.651 251.323 331.46 251.536 331.312C251.752 331.16 251.993 331.045 252.258 330.969C252.526 330.893 252.805 330.855 253.093 330.855ZM261.927 335.738C261.927 336.175 261.821 336.544 261.609 336.844C261.396 337.145 261.085 337.374 260.676 337.53C260.272 337.682 259.774 337.758 259.185 337.758C258.72 337.758 258.319 337.724 257.982 337.656C257.65 337.592 257.335 337.492 257.038 337.356V336.135C257.355 336.283 257.71 336.411 258.103 336.52C258.5 336.628 258.874 336.682 259.227 336.682C259.692 336.682 260.027 336.61 260.231 336.466C260.436 336.317 260.538 336.121 260.538 335.876C260.538 335.732 260.496 335.604 260.412 335.491C260.332 335.375 260.179 335.257 259.955 335.137C259.734 335.012 259.41 334.864 258.981 334.692C258.56 334.523 258.205 334.355 257.916 334.186C257.628 334.018 257.409 333.816 257.261 333.579C257.112 333.338 257.038 333.032 257.038 332.659C257.038 332.07 257.271 331.623 257.736 331.318C258.205 331.009 258.824 330.855 259.594 330.855C260.003 330.855 260.388 330.897 260.749 330.981C261.113 331.061 261.47 331.18 261.819 331.336L261.374 332.4C261.073 332.268 260.771 332.16 260.466 332.076C260.165 331.987 259.859 331.943 259.546 331.943C259.181 331.943 258.902 331.999 258.71 332.112C258.522 332.224 258.427 332.384 258.427 332.593C258.427 332.749 258.474 332.881 258.566 332.99C258.658 333.098 258.816 333.206 259.041 333.314C259.269 333.423 259.586 333.557 259.991 333.717C260.388 333.87 260.731 334.03 261.019 334.198C261.312 334.363 261.536 334.565 261.693 334.806C261.849 335.046 261.927 335.357 261.927 335.738Z" fill="#474D66"/>
</g>
<g filter="url(#filter6_d_1534_6753)">
<g clip-path="url(#clip13_1534_6753)">
<path d="M153.25 541.737L159.408 541.737L159.408 540.197L153.25 540.197C152.403 540.197 151.711 540.89 151.711 541.737L151.711 552.513C151.711 553.36 152.403 554.053 153.25 554.053L159.408 554.053L159.408 552.513L153.25 552.513L153.25 541.737Z" fill="#474D66"/>
<path d="M160.626 544.354L161.704 543.276L165.552 547.125L161.704 550.974L160.626 549.896L162.627 547.895L156.383 547.895L156.383 546.355L162.627 546.355L160.626 544.354Z" fill="#474D66"/>
</g>
<path d="M180.937 551.625H175.957V542.833H180.937V544.048H177.401V546.435H180.714V547.644H177.401V550.404H180.937V551.625ZM184.166 548.221L181.941 544.968H183.552L185.074 547.307L186.601 544.968H188.207L185.97 548.221L188.321 551.625H186.704L185.074 549.129L183.438 551.625H181.833L184.166 548.221ZM190.889 544.968V551.625H189.476V544.968H190.889ZM190.191 542.418C190.408 542.418 190.594 542.476 190.751 542.593C190.911 542.709 190.991 542.909 190.991 543.194C190.991 543.475 190.911 543.675 190.751 543.795C190.594 543.912 190.408 543.97 190.191 543.97C189.967 543.97 189.777 543.912 189.62 543.795C189.468 543.675 189.392 543.475 189.392 543.194C189.392 542.909 189.468 542.709 189.62 542.593C189.777 542.476 189.967 542.418 190.191 542.418ZM195.393 550.603C195.578 550.603 195.76 550.587 195.94 550.555C196.121 550.519 196.285 550.476 196.434 550.428V551.499C196.277 551.567 196.075 551.625 195.826 551.673C195.578 551.721 195.319 551.745 195.05 551.745C194.674 551.745 194.335 551.683 194.034 551.559C193.733 551.431 193.495 551.212 193.319 550.903C193.142 550.595 193.054 550.168 193.054 549.622V546.044H192.146V545.413L193.12 544.914L193.583 543.489H194.473V544.968H196.379V546.044H194.473V549.604C194.473 549.941 194.557 550.192 194.726 550.356C194.894 550.521 195.117 550.603 195.393 550.603Z" fill="#474D66"/>
</g>
<path d="M182.656 444.03V449.719C182.656 450.341 182.53 450.894 182.278 451.379C182.029 451.864 181.652 452.247 181.147 452.528C180.642 452.804 180.008 452.943 179.247 452.943C178.16 452.943 177.332 452.648 176.763 452.059C176.198 451.469 175.915 450.681 175.915 449.695V444.03H176.944V449.725C176.944 450.471 177.14 451.046 177.533 451.451C177.93 451.856 178.521 452.059 179.307 452.059C179.844 452.059 180.283 451.962 180.624 451.77C180.969 451.573 181.223 451.301 181.388 450.952C181.556 450.599 181.64 450.192 181.64 449.731V444.03H182.656ZM189.103 451.018C189.103 451.439 188.997 451.794 188.784 452.083C188.576 452.367 188.275 452.582 187.882 452.726C187.493 452.87 187.028 452.943 186.487 452.943C186.026 452.943 185.627 452.906 185.29 452.834C184.954 452.762 184.659 452.66 184.406 452.528V451.608C184.675 451.74 184.996 451.86 185.369 451.968C185.741 452.077 186.122 452.131 186.511 452.131C187.08 452.131 187.493 452.038 187.75 451.854C188.007 451.67 188.135 451.419 188.135 451.102C188.135 450.922 188.083 450.764 187.978 450.627C187.878 450.487 187.708 450.353 187.467 450.224C187.227 450.092 186.894 449.948 186.469 449.791C186.048 449.631 185.683 449.473 185.375 449.316C185.07 449.156 184.833 448.962 184.665 448.733C184.501 448.505 184.418 448.208 184.418 447.843C184.418 447.286 184.643 446.859 185.092 446.562C185.545 446.261 186.138 446.111 186.872 446.111C187.269 446.111 187.64 446.151 187.984 446.231C188.333 446.308 188.658 446.412 188.959 446.544L188.622 447.344C188.349 447.228 188.059 447.129 187.75 447.049C187.441 446.969 187.127 446.929 186.806 446.929C186.345 446.929 185.99 447.005 185.741 447.157C185.497 447.31 185.375 447.518 185.375 447.783C185.375 447.987 185.431 448.156 185.543 448.288C185.659 448.42 185.844 448.545 186.096 448.661C186.349 448.777 186.682 448.913 187.094 449.07C187.507 449.222 187.864 449.38 188.165 449.545C188.466 449.705 188.696 449.902 188.856 450.134C189.021 450.363 189.103 450.657 189.103 451.018ZM193.246 446.111C193.808 446.111 194.289 446.235 194.69 446.484C195.091 446.733 195.397 447.081 195.61 447.53C195.822 447.975 195.928 448.497 195.928 449.094V449.713H191.376C191.388 450.487 191.581 451.076 191.953 451.481C192.326 451.886 192.851 452.089 193.529 452.089C193.946 452.089 194.315 452.051 194.635 451.974C194.956 451.898 195.289 451.786 195.634 451.638V452.516C195.301 452.664 194.97 452.772 194.641 452.84C194.317 452.908 193.932 452.943 193.487 452.943C192.853 452.943 192.3 452.814 191.827 452.558C191.358 452.297 190.993 451.916 190.733 451.415C190.472 450.914 190.342 450.301 190.342 449.575C190.342 448.865 190.46 448.252 190.697 447.735C190.937 447.214 191.274 446.813 191.707 446.532C192.144 446.251 192.657 446.111 193.246 446.111ZM193.234 446.929C192.701 446.929 192.276 447.103 191.959 447.452C191.643 447.801 191.454 448.288 191.394 448.913H194.882C194.878 448.521 194.816 448.176 194.696 447.879C194.579 447.578 194.401 447.346 194.16 447.182C193.92 447.013 193.611 446.929 193.234 446.929ZM200.619 446.111C200.751 446.111 200.89 446.119 201.034 446.135C201.178 446.147 201.307 446.165 201.419 446.189L201.293 447.115C201.184 447.087 201.064 447.065 200.932 447.049C200.799 447.033 200.675 447.025 200.559 447.025C200.294 447.025 200.044 447.079 199.807 447.188C199.575 447.292 199.37 447.444 199.194 447.645C199.017 447.841 198.879 448.08 198.779 448.36C198.679 448.637 198.628 448.946 198.628 449.286V452.822H197.624V446.231H198.454L198.562 447.446H198.604C198.741 447.202 198.905 446.979 199.098 446.779C199.29 446.574 199.512 446.412 199.765 446.292C200.022 446.171 200.306 446.111 200.619 446.111ZM206.861 446.231V452.822H205.863V446.231H206.861ZM206.374 443.766C206.538 443.766 206.679 443.82 206.795 443.928C206.915 444.032 206.975 444.197 206.975 444.421C206.975 444.642 206.915 444.806 206.795 444.914C206.679 445.023 206.538 445.077 206.374 445.077C206.202 445.077 206.057 445.023 205.941 444.914C205.829 444.806 205.773 444.642 205.773 444.421C205.773 444.197 205.829 444.032 205.941 443.928C206.057 443.82 206.202 443.766 206.374 443.766ZM212.099 446.111C212.881 446.111 213.472 446.304 213.873 446.688C214.274 447.069 214.474 447.683 214.474 448.529V452.822H213.488V448.595C213.488 448.045 213.362 447.635 213.109 447.362C212.861 447.089 212.478 446.953 211.961 446.953C211.231 446.953 210.718 447.159 210.421 447.572C210.124 447.985 209.976 448.585 209.976 449.37V452.822H208.978V446.231H209.784L209.934 447.182H209.988C210.128 446.949 210.307 446.755 210.523 446.598C210.74 446.438 210.982 446.318 211.251 446.237C211.52 446.153 211.802 446.111 212.099 446.111ZM219.466 447.013H217.824V452.822H216.826V447.013H215.659V446.532L216.826 446.201V445.762C216.826 445.209 216.908 444.76 217.072 444.415C217.236 444.067 217.475 443.81 217.788 443.646C218.1 443.481 218.481 443.399 218.93 443.399C219.183 443.399 219.413 443.421 219.622 443.465C219.834 443.509 220.021 443.559 220.181 443.615L219.923 444.403C219.786 444.359 219.632 444.319 219.459 444.283C219.291 444.243 219.119 444.223 218.942 444.223C218.561 444.223 218.279 444.347 218.094 444.596C217.914 444.84 217.824 445.225 217.824 445.75V446.231H219.466V447.013ZM226.363 449.515C226.363 450.056 226.293 450.539 226.153 450.964C226.012 451.389 225.81 451.748 225.545 452.041C225.281 452.333 224.96 452.558 224.583 452.714C224.21 452.866 223.787 452.943 223.314 452.943C222.873 452.943 222.468 452.866 222.099 452.714C221.735 452.558 221.418 452.333 221.149 452.041C220.885 451.748 220.678 451.389 220.53 450.964C220.386 450.539 220.313 450.056 220.313 449.515C220.313 448.793 220.436 448.18 220.68 447.675C220.925 447.166 221.274 446.779 221.727 446.514C222.184 446.245 222.727 446.111 223.356 446.111C223.958 446.111 224.483 446.245 224.932 446.514C225.385 446.783 225.736 447.172 225.984 447.681C226.237 448.186 226.363 448.797 226.363 449.515ZM221.348 449.515C221.348 450.044 221.418 450.503 221.558 450.892C221.699 451.281 221.915 451.581 222.208 451.794C222.5 452.006 222.877 452.113 223.338 452.113C223.795 452.113 224.17 452.006 224.463 451.794C224.759 451.581 224.978 451.281 225.118 450.892C225.259 450.503 225.329 450.044 225.329 449.515C225.329 448.99 225.259 448.537 225.118 448.156C224.978 447.771 224.761 447.474 224.469 447.266C224.176 447.057 223.797 446.953 223.332 446.953C222.647 446.953 222.144 447.18 221.823 447.633C221.506 448.086 221.348 448.713 221.348 449.515ZM231.084 446.111C231.216 446.111 231.354 446.119 231.499 446.135C231.643 446.147 231.771 446.165 231.884 446.189L231.757 447.115C231.649 447.087 231.529 447.065 231.396 447.049C231.264 447.033 231.14 447.025 231.024 447.025C230.759 447.025 230.508 447.079 230.272 447.188C230.039 447.292 229.835 447.444 229.659 447.645C229.482 447.841 229.344 448.08 229.244 448.36C229.143 448.637 229.093 448.946 229.093 449.286V452.822H228.089V446.231H228.919L229.027 447.446H229.069C229.205 447.202 229.37 446.979 229.562 446.779C229.755 446.574 229.977 446.412 230.23 446.292C230.486 446.171 230.771 446.111 231.084 446.111ZM240.284 446.111C241.01 446.111 241.557 446.302 241.926 446.682C242.295 447.059 242.479 447.667 242.479 448.505V452.822H241.493V448.553C241.493 448.019 241.377 447.621 241.144 447.356C240.916 447.087 240.575 446.953 240.122 446.953C239.485 446.953 239.022 447.137 238.733 447.506C238.444 447.875 238.3 448.418 238.3 449.136V452.822H237.308V448.553C237.308 448.196 237.256 447.899 237.151 447.663C237.051 447.426 236.899 447.25 236.694 447.133C236.494 447.013 236.239 446.953 235.931 446.953C235.494 446.953 235.143 447.043 234.878 447.224C234.614 447.404 234.421 447.673 234.301 448.029C234.185 448.382 234.127 448.817 234.127 449.334V452.822H233.128V446.231H233.934L234.084 447.163H234.139C234.271 446.935 234.437 446.743 234.638 446.586C234.838 446.43 235.063 446.312 235.311 446.231C235.56 446.151 235.824 446.111 236.105 446.111C236.606 446.111 237.025 446.205 237.362 446.394C237.703 446.578 237.949 446.861 238.102 447.242H238.156C238.372 446.861 238.669 446.578 239.046 446.394C239.423 446.205 239.835 446.111 240.284 446.111ZM246.996 446.123C247.781 446.123 248.365 446.3 248.746 446.652C249.126 447.005 249.317 447.568 249.317 448.342V452.822H248.589L248.397 451.848H248.349C248.164 452.089 247.972 452.291 247.771 452.455C247.571 452.616 247.338 452.738 247.074 452.822C246.813 452.902 246.492 452.943 246.112 452.943C245.711 452.943 245.354 452.872 245.041 452.732C244.733 452.592 244.488 452.379 244.308 452.095C244.131 451.81 244.043 451.449 244.043 451.012C244.043 450.355 244.304 449.85 244.825 449.497C245.346 449.144 246.14 448.952 247.206 448.919L248.343 448.871V448.468C248.343 447.899 248.22 447.5 247.976 447.272C247.731 447.043 247.387 446.929 246.942 446.929C246.597 446.929 246.268 446.979 245.955 447.079C245.643 447.18 245.346 447.298 245.065 447.434L244.759 446.676C245.055 446.524 245.396 446.394 245.781 446.286C246.166 446.177 246.571 446.123 246.996 446.123ZM248.331 449.575L247.326 449.617C246.505 449.649 245.925 449.783 245.588 450.02C245.252 450.256 245.083 450.591 245.083 451.024C245.083 451.401 245.198 451.68 245.426 451.86C245.655 452.041 245.957 452.131 246.334 452.131C246.919 452.131 247.399 451.968 247.771 451.644C248.144 451.319 248.331 450.832 248.331 450.182V449.575ZM253.502 452.125C253.667 452.125 253.835 452.111 254.007 452.083C254.18 452.055 254.32 452.02 254.428 451.98V452.756C254.312 452.808 254.15 452.852 253.941 452.888C253.737 452.924 253.536 452.943 253.34 452.943C252.991 452.943 252.674 452.882 252.39 452.762C252.105 452.638 251.877 452.429 251.704 452.137C251.536 451.844 251.452 451.439 251.452 450.922V447.013H250.514V446.526L251.458 446.135L251.855 444.704H252.456V446.231H254.386V447.013H252.456V450.892C252.456 451.305 252.55 451.614 252.739 451.818C252.931 452.022 253.186 452.125 253.502 452.125ZM256.762 446.231V452.822H255.763V446.231H256.762ZM256.275 443.766C256.439 443.766 256.579 443.82 256.696 443.928C256.816 444.032 256.876 444.197 256.876 444.421C256.876 444.642 256.816 444.806 256.696 444.914C256.579 445.023 256.439 445.077 256.275 445.077C256.102 445.077 255.958 445.023 255.842 444.914C255.729 444.806 255.673 444.642 255.673 444.421C255.673 444.197 255.729 444.032 255.842 443.928C255.958 443.82 256.102 443.766 256.275 443.766ZM264.561 449.515C264.561 450.056 264.491 450.539 264.351 450.964C264.21 451.389 264.008 451.748 263.743 452.041C263.479 452.333 263.158 452.558 262.781 452.714C262.408 452.866 261.985 452.943 261.512 452.943C261.071 452.943 260.666 452.866 260.298 452.714C259.933 452.558 259.616 452.333 259.347 452.041C259.083 451.748 258.876 451.389 258.728 450.964C258.584 450.539 258.512 450.056 258.512 449.515C258.512 448.793 258.634 448.18 258.878 447.675C259.123 447.166 259.472 446.779 259.925 446.514C260.382 446.245 260.925 446.111 261.554 446.111C262.156 446.111 262.681 446.245 263.13 446.514C263.583 446.783 263.934 447.172 264.182 447.681C264.435 448.186 264.561 448.797 264.561 449.515ZM259.546 449.515C259.546 450.044 259.616 450.503 259.756 450.892C259.897 451.281 260.113 451.581 260.406 451.794C260.699 452.006 261.075 452.113 261.536 452.113C261.993 452.113 262.368 452.006 262.661 451.794C262.958 451.581 263.176 451.281 263.316 450.892C263.457 450.503 263.527 450.044 263.527 449.515C263.527 448.99 263.457 448.537 263.316 448.156C263.176 447.771 262.96 447.474 262.667 447.266C262.374 447.057 261.995 446.953 261.53 446.953C260.845 446.953 260.342 447.18 260.021 447.633C259.704 448.086 259.546 448.713 259.546 449.515ZM269.408 446.111C270.19 446.111 270.781 446.304 271.182 446.688C271.583 447.069 271.784 447.683 271.784 448.529V452.822H270.797V448.595C270.797 448.045 270.671 447.635 270.418 447.362C270.17 447.089 269.787 446.953 269.27 446.953C268.54 446.953 268.027 447.159 267.73 447.572C267.434 447.985 267.285 448.585 267.285 449.37V452.822H266.287V446.231H267.093L267.243 447.182H267.297C267.438 446.949 267.616 446.755 267.833 446.598C268.049 446.438 268.292 446.318 268.56 446.237C268.829 446.153 269.112 446.111 269.408 446.111Z" fill="#474D66"/>
<path d="M183.631 493.829C183.631 494.506 183.544 495.124 183.372 495.681C183.2 496.234 182.943 496.711 182.602 497.112C182.266 497.509 181.847 497.816 181.345 498.032C180.844 498.249 180.263 498.357 179.602 498.357C178.92 498.357 178.325 498.249 177.816 498.032C177.31 497.816 176.889 497.507 176.553 497.106C176.22 496.705 175.969 496.226 175.801 495.669C175.637 495.112 175.554 494.494 175.554 493.817C175.554 492.919 175.703 492.131 175.999 491.454C176.296 490.776 176.745 490.249 177.346 489.872C177.952 489.495 178.71 489.307 179.62 489.307C180.49 489.307 181.221 489.493 181.815 489.866C182.412 490.239 182.863 490.764 183.168 491.441C183.476 492.115 183.631 492.911 183.631 493.829ZM176.631 493.829C176.631 494.575 176.737 495.22 176.95 495.765C177.162 496.31 177.487 496.731 177.924 497.028C178.365 497.325 178.924 497.473 179.602 497.473C180.283 497.473 180.84 497.325 181.273 497.028C181.71 496.731 182.033 496.31 182.242 495.765C182.45 495.22 182.554 494.575 182.554 493.829C182.554 492.694 182.316 491.808 181.839 491.171C181.366 490.529 180.626 490.209 179.62 490.209C178.938 490.209 178.377 490.355 177.936 490.648C177.495 490.94 177.166 491.357 176.95 491.899C176.737 492.436 176.631 493.079 176.631 493.829ZM188.538 491.526C189.36 491.526 190.015 491.808 190.504 492.374C190.993 492.939 191.238 493.789 191.238 494.923C191.238 495.673 191.126 496.302 190.901 496.812C190.677 497.321 190.36 497.706 189.951 497.966C189.546 498.227 189.067 498.357 188.514 498.357C188.165 498.357 187.858 498.311 187.594 498.219C187.329 498.127 187.102 498.002 186.914 497.846C186.726 497.69 186.569 497.519 186.445 497.335H186.373C186.385 497.491 186.399 497.68 186.415 497.9C186.435 498.121 186.445 498.313 186.445 498.477V501.183H185.441V491.646H186.265L186.397 492.62H186.445C186.573 492.42 186.73 492.237 186.914 492.073C187.098 491.905 187.323 491.772 187.588 491.676C187.856 491.576 188.173 491.526 188.538 491.526ZM188.363 492.368C187.906 492.368 187.537 492.456 187.257 492.632C186.98 492.809 186.778 493.073 186.649 493.426C186.521 493.775 186.453 494.214 186.445 494.743V494.935C186.445 495.493 186.505 495.964 186.625 496.349C186.75 496.733 186.952 497.026 187.233 497.227C187.517 497.427 187.898 497.527 188.375 497.527C188.784 497.527 189.125 497.417 189.398 497.196C189.67 496.976 189.873 496.669 190.005 496.276C190.141 495.879 190.209 495.424 190.209 494.911C190.209 494.134 190.057 493.516 189.752 493.059C189.452 492.598 188.989 492.368 188.363 492.368ZM195.111 497.539C195.275 497.539 195.443 497.525 195.616 497.497C195.788 497.469 195.928 497.435 196.037 497.395V498.171C195.92 498.223 195.758 498.267 195.55 498.303C195.345 498.339 195.145 498.357 194.948 498.357C194.599 498.357 194.283 498.297 193.998 498.177C193.713 498.052 193.485 497.844 193.312 497.551C193.144 497.259 193.06 496.854 193.06 496.337V492.428H192.122V491.941L193.066 491.55L193.463 490.118H194.064V491.646H195.995V492.428H194.064V496.306C194.064 496.719 194.158 497.028 194.347 497.233C194.539 497.437 194.794 497.539 195.111 497.539ZM198.37 491.646V498.237H197.372V491.646H198.37ZM197.883 489.18C198.047 489.18 198.187 489.235 198.304 489.343C198.424 489.447 198.484 489.611 198.484 489.836C198.484 490.056 198.424 490.221 198.304 490.329C198.187 490.437 198.047 490.491 197.883 490.491C197.71 490.491 197.566 490.437 197.45 490.329C197.338 490.221 197.281 490.056 197.281 489.836C197.281 489.611 197.338 489.447 197.45 489.343C197.566 489.235 197.71 489.18 197.883 489.18ZM206.17 494.929C206.17 495.471 206.099 495.954 205.959 496.379C205.819 496.804 205.616 497.162 205.352 497.455C205.087 497.748 204.766 497.972 204.389 498.129C204.017 498.281 203.594 498.357 203.121 498.357C202.68 498.357 202.275 498.281 201.906 498.129C201.541 497.972 201.224 497.748 200.956 497.455C200.691 497.162 200.485 496.804 200.336 496.379C200.192 495.954 200.12 495.471 200.12 494.929C200.12 494.208 200.242 493.594 200.487 493.089C200.731 492.58 201.08 492.193 201.533 491.929C201.99 491.66 202.533 491.526 203.163 491.526C203.764 491.526 204.289 491.66 204.738 491.929C205.191 492.197 205.542 492.586 205.791 493.095C206.043 493.6 206.17 494.212 206.17 494.929ZM201.154 494.929C201.154 495.459 201.224 495.918 201.365 496.306C201.505 496.695 201.721 496.996 202.014 497.208C202.307 497.421 202.684 497.527 203.145 497.527C203.602 497.527 203.977 497.421 204.269 497.208C204.566 496.996 204.784 496.695 204.925 496.306C205.065 495.918 205.135 495.459 205.135 494.929C205.135 494.404 205.065 493.951 204.925 493.57C204.784 493.185 204.568 492.889 204.275 492.68C203.983 492.472 203.604 492.368 203.139 492.368C202.453 492.368 201.95 492.594 201.629 493.047C201.313 493.5 201.154 494.128 201.154 494.929ZM211.016 491.526C211.798 491.526 212.39 491.718 212.79 492.103C213.191 492.484 213.392 493.097 213.392 493.943V498.237H212.406V494.009C212.406 493.46 212.279 493.049 212.027 492.776C211.778 492.504 211.395 492.368 210.878 492.368C210.148 492.368 209.635 492.574 209.339 492.987C209.042 493.4 208.894 493.999 208.894 494.785V498.237H207.895V491.646H208.701L208.852 492.596H208.906C209.046 492.364 209.224 492.169 209.441 492.013C209.657 491.852 209.9 491.732 210.169 491.652C210.437 491.568 210.72 491.526 211.016 491.526ZM219.712 496.433C219.712 496.854 219.606 497.208 219.393 497.497C219.185 497.782 218.884 497.996 218.491 498.141C218.102 498.285 217.637 498.357 217.096 498.357C216.635 498.357 216.236 498.321 215.899 498.249C215.563 498.177 215.268 498.074 215.015 497.942V497.022C215.284 497.154 215.605 497.275 215.978 497.383C216.35 497.491 216.731 497.545 217.12 497.545C217.69 497.545 218.102 497.453 218.359 497.269C218.616 497.084 218.744 496.834 218.744 496.517C218.744 496.337 218.692 496.178 218.588 496.042C218.487 495.902 218.317 495.767 218.076 495.639C217.836 495.507 217.503 495.362 217.078 495.206C216.657 495.046 216.292 494.887 215.984 494.731C215.679 494.571 215.442 494.376 215.274 494.148C215.11 493.919 215.027 493.622 215.027 493.258C215.027 492.7 215.252 492.273 215.701 491.977C216.154 491.676 216.747 491.526 217.481 491.526C217.878 491.526 218.249 491.566 218.594 491.646C218.942 491.722 219.267 491.826 219.568 491.959L219.231 492.758C218.958 492.642 218.668 492.544 218.359 492.464C218.05 492.384 217.736 492.344 217.415 492.344C216.954 492.344 216.599 492.42 216.35 492.572C216.106 492.724 215.984 492.933 215.984 493.197C215.984 493.402 216.04 493.57 216.152 493.703C216.268 493.835 216.453 493.959 216.705 494.075C216.958 494.192 217.291 494.328 217.704 494.484C218.116 494.637 218.473 494.795 218.774 494.959C219.075 495.12 219.305 495.316 219.466 495.549C219.63 495.777 219.712 496.072 219.712 496.433Z" fill="#474D66"/>
<circle cx="122.461" cy="449.368" r="11.1612" transform="rotate(-90 122.461 449.368)" fill="#101840" stroke="#101840" stroke-width="0.769737"/>
<path d="M124.895 451.69H124.101V453.056H122.739V451.69H119.924V450.72L122.815 446.462H124.101V450.607H124.895V451.69ZM122.739 450.607V449.489C122.739 449.383 122.74 449.259 122.743 449.114C122.749 448.97 122.755 448.826 122.761 448.681C122.767 448.537 122.773 448.409 122.779 448.298C122.788 448.184 122.794 448.104 122.797 448.059H122.761C122.704 448.182 122.644 448.302 122.581 448.42C122.518 448.534 122.444 448.654 122.36 448.781L121.151 450.607H122.739Z" fill="white"/>
<path d="M134.007 449.369H161.717" stroke="#101840" stroke-width="1.53947"/>
<circle cx="160.178" cy="449.369" r="1.92434" transform="rotate(-90 160.178 449.369)" fill="#101840" stroke="#101840" stroke-width="0.769737"/>
</g>
<circle cx="346.454" cy="149.941" r="11.1612" transform="rotate(90 346.454 149.941)" fill="#101840" stroke="#101840" stroke-width="0.769737"/>
<path d="M348.739 152.858H344.13V151.889L345.785 150.215C346.119 149.873 346.386 149.587 346.588 149.359C346.792 149.127 346.939 148.917 347.03 148.727C347.123 148.538 347.169 148.335 347.169 148.118C347.169 147.857 347.096 147.661 346.948 147.532C346.804 147.4 346.61 147.333 346.367 147.333C346.111 147.333 345.863 147.392 345.622 147.509C345.382 147.627 345.131 147.793 344.869 148.01L344.112 147.112C344.301 146.95 344.501 146.797 344.711 146.652C344.925 146.508 345.171 146.392 345.451 146.305C345.734 146.215 346.072 146.17 346.466 146.17C346.899 146.17 347.27 146.248 347.58 146.404C347.893 146.561 348.133 146.774 348.302 147.045C348.47 147.312 348.554 147.616 348.554 147.956C348.554 148.32 348.482 148.652 348.338 148.953C348.193 149.253 347.983 149.551 347.706 149.846C347.433 150.14 347.102 150.467 346.714 150.824L345.866 151.623V151.686H348.739V152.858Z" fill="white"/>
<path d="M334.908 149.941H307.197" stroke="#101840" stroke-width="1.53947"/>
<circle cx="308.737" cy="149.941" r="1.92434" transform="rotate(90 308.737 149.941)" fill="#101840" stroke="#101840" stroke-width="0.769737"/>
<g filter="url(#filter7_d_1534_6753)">
<g clip-path="url(#clip14_1534_6753)">
<path d="M159.408 390.099C160.255 390.099 160.948 390.792 160.948 391.639C160.948 392.485 160.255 393.178 159.408 393.178C158.561 393.178 157.869 392.485 157.869 391.639C157.869 390.792 158.561 390.099 159.408 390.099ZM159.408 397.027C161.486 397.027 163.873 398.02 164.027 398.566V399.336H154.79V398.574C154.944 398.02 157.33 397.027 159.408 397.027V397.027ZM159.408 388.56C157.707 388.56 156.329 389.937 156.329 391.639C156.329 393.34 157.707 394.717 159.408 394.717C161.109 394.717 162.487 393.34 162.487 391.639C162.487 389.937 161.109 388.56 159.408 388.56V388.56ZM159.408 395.487C157.353 395.487 153.25 396.519 153.25 398.566V400.875H165.566V398.566C165.566 396.519 161.463 395.487 159.408 395.487V395.487Z" fill="#474D66"/>
</g>
<path d="M178.513 390.425C179.648 390.425 180.476 390.658 180.997 391.123C181.518 391.588 181.778 392.24 181.778 393.077C181.778 393.458 181.718 393.821 181.598 394.166C181.482 394.507 181.289 394.809 181.021 395.074C180.752 395.335 180.397 395.541 179.956 395.693C179.519 395.846 178.98 395.922 178.339 395.922H177.401V399.217H175.957V390.425H178.513ZM178.417 391.622H177.401V394.719H178.188C178.641 394.719 179.026 394.667 179.343 394.563C179.66 394.455 179.9 394.284 180.065 394.052C180.229 393.819 180.311 393.512 180.311 393.132C180.311 392.622 180.157 392.244 179.848 391.995C179.543 391.746 179.066 391.622 178.417 391.622ZM186.764 392.434C186.876 392.434 186.998 392.44 187.131 392.452C187.263 392.464 187.377 392.48 187.473 392.5L187.341 393.823C187.257 393.799 187.153 393.781 187.028 393.769C186.908 393.757 186.8 393.751 186.704 393.751C186.451 393.751 186.21 393.793 185.982 393.877C185.753 393.957 185.551 394.082 185.375 394.25C185.198 394.414 185.06 394.621 184.96 394.869C184.859 395.118 184.809 395.407 184.809 395.735V399.217H183.39V392.56H184.497L184.689 393.733H184.755C184.887 393.496 185.052 393.28 185.248 393.083C185.445 392.887 185.669 392.731 185.922 392.614C186.178 392.494 186.459 392.434 186.764 392.434ZM194.599 395.874C194.599 396.427 194.527 396.918 194.383 397.347C194.239 397.776 194.028 398.139 193.751 398.436C193.475 398.728 193.142 398.953 192.753 399.109C192.364 399.261 191.925 399.338 191.436 399.338C190.979 399.338 190.56 399.261 190.179 399.109C189.799 398.953 189.468 398.728 189.187 398.436C188.911 398.139 188.696 397.776 188.544 397.347C188.391 396.918 188.315 396.427 188.315 395.874C188.315 395.14 188.442 394.519 188.694 394.01C188.951 393.496 189.315 393.105 189.789 392.837C190.262 392.568 190.825 392.434 191.478 392.434C192.092 392.434 192.633 392.568 193.102 392.837C193.571 393.105 193.938 393.496 194.203 394.01C194.467 394.523 194.599 395.144 194.599 395.874ZM189.771 395.874C189.771 396.359 189.829 396.774 189.945 397.119C190.065 397.463 190.25 397.728 190.498 397.912C190.747 398.093 191.067 398.183 191.46 398.183C191.853 398.183 192.174 398.093 192.422 397.912C192.671 397.728 192.853 397.463 192.97 397.119C193.086 396.774 193.144 396.359 193.144 395.874C193.144 395.389 193.086 394.978 192.97 394.641C192.853 394.3 192.671 394.042 192.422 393.865C192.174 393.685 191.851 393.595 191.454 393.595C190.869 393.595 190.442 393.791 190.173 394.184C189.905 394.577 189.771 395.14 189.771 395.874ZM199.549 393.637H197.931V399.217H196.518V393.637H195.429V392.957L196.518 392.542V392.079C196.518 391.514 196.606 391.065 196.782 390.732C196.963 390.399 197.219 390.161 197.552 390.017C197.889 389.868 198.29 389.794 198.755 389.794C199.059 389.794 199.338 389.82 199.591 389.872C199.843 389.92 200.056 389.976 200.228 390.041L199.861 391.111C199.725 391.067 199.573 391.027 199.404 390.991C199.236 390.951 199.055 390.931 198.863 390.931C198.542 390.931 198.306 391.031 198.153 391.231C198.005 391.432 197.931 391.724 197.931 392.109V392.56H199.549V393.637ZM202.092 392.56V399.217H200.679V392.56H202.092ZM201.395 390.011C201.611 390.011 201.798 390.069 201.954 390.185C202.114 390.301 202.195 390.502 202.195 390.786C202.195 391.067 202.114 391.267 201.954 391.388C201.798 391.504 201.611 391.562 201.395 391.562C201.17 391.562 200.98 391.504 200.823 391.388C200.671 391.267 200.595 391.067 200.595 390.786C200.595 390.502 200.671 390.301 200.823 390.185C200.98 390.069 201.17 390.011 201.395 390.011ZM205.532 399.217H204.113V389.86H205.532V399.217ZM210.205 392.434C210.798 392.434 211.307 392.556 211.732 392.801C212.157 393.045 212.484 393.392 212.712 393.841C212.941 394.29 213.055 394.827 213.055 395.453V396.211H208.611C208.627 396.856 208.799 397.353 209.128 397.702C209.461 398.051 209.926 398.225 210.523 398.225C210.948 398.225 211.329 398.185 211.666 398.105C212.007 398.021 212.357 397.898 212.718 397.738V398.887C212.386 399.043 212.047 399.157 211.702 399.229C211.357 399.301 210.944 399.338 210.463 399.338C209.81 399.338 209.234 399.211 208.737 398.959C208.244 398.702 207.857 398.321 207.577 397.816C207.3 397.311 207.162 396.684 207.162 395.934C207.162 395.188 207.288 394.555 207.541 394.034C207.793 393.512 208.148 393.116 208.605 392.843C209.062 392.57 209.595 392.434 210.205 392.434ZM210.205 393.498C209.76 393.498 209.399 393.643 209.122 393.931C208.85 394.22 208.689 394.643 208.641 395.2H211.672C211.668 394.867 211.612 394.573 211.504 394.316C211.399 394.06 211.239 393.859 211.022 393.715C210.81 393.571 210.537 393.498 210.205 393.498Z" fill="#474D66"/>
</g>
<g clip-path="url(#clip15_1534_6753)">
<path d="M290.263 392.408L289.178 391.322L285.645 394.848L282.112 391.322L281.026 392.408L285.645 397.026L290.263 392.408Z" fill="#474D66"/>
</g>
<circle cx="96.2894" cy="40.6383" r="11.1612" transform="rotate(90 96.2894 40.6383)" fill="#101840" stroke="#101840" stroke-width="0.769737"/>
<path d="M98.3174 38.4371C98.3174 38.7408 98.2542 39.0039 98.1279 39.2264C98.0017 39.4489 97.8303 39.6308 97.6138 39.7721C97.4003 39.9134 97.1598 40.0172 96.8922 40.0833V40.1104C97.4213 40.1765 97.8228 40.3389 98.0964 40.5975C98.373 40.8561 98.5113 41.2018 98.5113 41.6348C98.5113 42.0197 98.4166 42.364 98.2272 42.6676C98.0407 42.9713 97.7521 43.2104 97.3612 43.3848C96.9703 43.5592 96.4667 43.6464 95.8503 43.6464C95.4865 43.6464 95.1467 43.6163 94.831 43.5562C94.5183 43.499 94.2236 43.4103 93.947 43.2901V42.1039C94.2296 42.2482 94.5258 42.3579 94.8355 42.4331C95.1452 42.5053 95.4339 42.5414 95.7015 42.5414C96.2006 42.5414 96.5494 42.4557 96.7478 42.2843C96.9493 42.1099 97.05 41.8663 97.05 41.5536C97.05 41.3702 97.0034 41.2154 96.9102 41.0891C96.817 40.9628 96.6546 40.8666 96.4231 40.8004C96.1946 40.7343 95.8744 40.7012 95.4624 40.7012H94.9618V39.6323H95.4714C95.8774 39.6323 96.1856 39.5947 96.396 39.5195C96.6095 39.4414 96.7538 39.3361 96.829 39.2038C96.9072 39.0685 96.9463 38.9152 96.9463 38.7438C96.9463 38.5093 96.8741 38.3259 96.7298 38.1936C96.5855 38.0613 96.3449 37.9951 96.0082 37.9951C95.7977 37.9951 95.6053 38.0222 95.4309 38.0763C95.2595 38.1274 95.1046 38.1905 94.9663 38.2657C94.828 38.3379 94.7062 38.4085 94.601 38.4777L93.956 37.517C94.2146 37.3306 94.5168 37.1758 94.8626 37.0525C95.2114 36.9292 95.6263 36.8676 96.1074 36.8676C96.7869 36.8676 97.3251 37.0044 97.722 37.278C98.1189 37.5516 98.3174 37.938 98.3174 38.4371Z" fill="white"/>
<path d="M84.7434 40.6382H57.0329" stroke="#101840" stroke-width="1.53947"/>
<circle cx="58.5724" cy="40.6383" r="1.92434" transform="rotate(90 58.5724 40.6383)" fill="#101840" stroke="#101840" stroke-width="0.769737"/>
<circle cx="346.454" cy="393.947" r="11.1612" transform="rotate(90 346.454 393.947)" fill="#101840" stroke="#101840" stroke-width="0.769737"/>
<path d="M348.482 391.746C348.482 392.05 348.419 392.313 348.292 392.535C348.166 392.758 347.995 392.94 347.778 393.081C347.565 393.223 347.324 393.326 347.057 393.392V393.419C347.586 393.486 347.987 393.648 348.261 393.907C348.538 394.165 348.676 394.511 348.676 394.944C348.676 395.329 348.581 395.673 348.392 395.977C348.205 396.28 347.917 396.519 347.526 396.694C347.135 396.868 346.631 396.955 346.015 396.955C345.651 396.955 345.311 396.925 344.996 396.865C344.683 396.808 344.388 396.719 344.112 396.599V395.413C344.394 395.557 344.69 395.667 345 395.742C345.31 395.814 345.598 395.85 345.866 395.85C346.365 395.85 346.714 395.765 346.912 395.593C347.114 395.419 347.215 395.175 347.215 394.863C347.215 394.679 347.168 394.524 347.075 394.398C346.982 394.272 346.819 394.176 346.588 394.11C346.359 394.043 346.039 394.01 345.627 394.01H345.126V392.941H345.636C346.042 392.941 346.35 392.904 346.561 392.829C346.774 392.75 346.918 392.645 346.994 392.513C347.072 392.378 347.111 392.224 347.111 392.053C347.111 391.818 347.039 391.635 346.894 391.503C346.75 391.37 346.509 391.304 346.173 391.304C345.962 391.304 345.77 391.331 345.595 391.385C345.424 391.436 345.269 391.5 345.131 391.575C344.993 391.647 344.871 391.718 344.766 391.787L344.121 390.826C344.379 390.64 344.681 390.485 345.027 390.362C345.376 390.238 345.791 390.177 346.272 390.177C346.951 390.177 347.49 390.313 347.887 390.587C348.283 390.861 348.482 391.247 348.482 391.746Z" fill="white"/>
<path d="M334.908 393.947H307.197" stroke="#101840" stroke-width="1.53947"/>
<circle cx="308.737" cy="393.947" r="1.92434" transform="rotate(90 308.737 393.947)" fill="#101840" stroke="#101840" stroke-width="0.769737"/>
<circle cx="225.605" cy="36.0197" r="11.1612" fill="#101840" stroke="#101840" stroke-width="0.769737"/>
<path d="M226.342 39.3223H224.948V35.5067C224.948 35.4014 224.95 35.2721 224.953 35.1188C224.956 34.9624 224.96 34.8031 224.966 34.6407C224.972 34.4753 224.978 34.3265 224.984 34.1942C224.951 34.2333 224.883 34.3009 224.781 34.3972C224.682 34.4904 224.589 34.5746 224.502 34.6497L223.744 35.2586L223.072 34.4197L225.196 32.7284H226.342V39.3223Z" fill="white"/>
<path d="M225.605 47.5659V75.2764" stroke="#101840" stroke-width="1.53947"/>
<circle cx="225.605" cy="73.7369" r="1.92434" fill="#101840" stroke="#101840" stroke-width="0.769737"/>
<defs>
<filter id="filter0_d_1534_6753" x="0.842105" y="0.611842" width="80.0526" height="635.033" filterUnits="userSpaceOnUse" color-interpolation-filters="sRGB">
<feFlood flood-opacity="0" result="BackgroundImageFix"/>
<feColorMatrix in="SourceAlpha" type="matrix" values="0 0 0 0 0 0 0 0 0 0 0 0 0 0 0 0 0 0 127 0" result="hardAlpha"/>
<feOffset dy="0.769737"/>
<feGaussianBlur stdDeviation="3.07895"/>
<feComposite in2="hardAlpha" operator="out"/>
<feColorMatrix type="matrix" values="0 0 0 0 0 0 0 0 0 0 0 0 0 0 0 0 0 0 0.16 0"/>
<feBlend mode="normal" in2="BackgroundImageFix" result="effect1_dropShadow_1534_6753"/>
<feBlend mode="normal" in="SourceGraphic" in2="effect1_dropShadow_1534_6753" result="shape"/>
</filter>
<filter id="filter1_d_1534_6753" x="104.757" y="0.611842" width="237.079" height="635.033" filterUnits="userSpaceOnUse" color-interpolation-filters="sRGB">
<feFlood flood-opacity="0" result="BackgroundImageFix"/>
<feColorMatrix in="SourceAlpha" type="matrix" values="0 0 0 0 0 0 0 0 0 0 0 0 0 0 0 0 0 0 127 0" result="hardAlpha"/>
<feOffset dy="0.769737"/>
<feGaussianBlur stdDeviation="3.07895"/>
<feColorMatrix type="matrix" values="0 0 0 0 0 0 0 0 0 0 0 0 0 0 0 0 0 0 0.08 0"/>
<feBlend mode="normal" in2="BackgroundImageFix" result="effect1_dropShadow_1534_6753"/>
<feBlend mode="normal" in="SourceGraphic" in2="effect1_dropShadow_1534_6753" result="shape"/>
</filter>
<filter id="filter2_d_1534_6753" x="137.855" y="126.849" width="169.342" height="49.2631" filterUnits="userSpaceOnUse" color-interpolation-filters="sRGB">
<feFlood flood-opacity="0" result="BackgroundImageFix"/>
<feColorMatrix in="SourceAlpha" type="matrix" values="0 0 0 0 0 0 0 0 0 0 0 0 0 0 0 0 0 0 127 0" result="hardAlpha"/>
<feOffset dy="3.07895"/>
<feGaussianBlur stdDeviation="3.07895"/>
<feColorMatrix type="matrix" values="0 0 0 0 0.846667 0 0 0 0 0.929673 0 0 0 0 0.996078 0 0 0 0.5 0"/>
<feBlend mode="normal" in2="BackgroundImageFix" result="effect1_dropShadow_1534_6753"/>
<feBlend mode="normal" in="SourceGraphic" in2="effect1_dropShadow_1534_6753" result="shape"/>
</filter>
<filter id="filter3_d_1534_6753" x="137.855" y="188.427" width="169.342" height="49.2631" filterUnits="userSpaceOnUse" color-interpolation-filters="sRGB">
<feFlood flood-opacity="0" result="BackgroundImageFix"/>
<feColorMatrix in="SourceAlpha" type="matrix" values="0 0 0 0 0 0 0 0 0 0 0 0 0 0 0 0 0 0 127 0" result="hardAlpha"/>
<feOffset dy="3.07895"/>
<feGaussianBlur stdDeviation="3.07895"/>
<feColorMatrix type="matrix" values="0 0 0 0 0.846667 0 0 0 0 0.929673 0 0 0 0 0.996078 0 0 0 0.5 0"/>
<feBlend mode="normal" in2="BackgroundImageFix" result="effect1_dropShadow_1534_6753"/>
<feBlend mode="normal" in="SourceGraphic" in2="effect1_dropShadow_1534_6753" result="shape"/>
</filter>
<filter id="filter4_d_1534_6753" x="137.855" y="250.007" width="169.342" height="49.2631" filterUnits="userSpaceOnUse" color-interpolation-filters="sRGB">
<feFlood flood-opacity="0" result="BackgroundImageFix"/>
<feColorMatrix in="SourceAlpha" type="matrix" values="0 0 0 0 0 0 0 0 0 0 0 0 0 0 0 0 0 0 127 0" result="hardAlpha"/>
<feOffset dy="3.07895"/>
<feGaussianBlur stdDeviation="3.07895"/>
<feColorMatrix type="matrix" values="0 0 0 0 0.846667 0 0 0 0 0.929673 0 0 0 0 0.996078 0 0 0 0.5 0"/>
<feBlend mode="normal" in2="BackgroundImageFix" result="effect1_dropShadow_1534_6753"/>
<feBlend mode="normal" in="SourceGraphic" in2="effect1_dropShadow_1534_6753" result="shape"/>
</filter>
<filter id="filter5_d_1534_6753" x="137.855" y="311.586" width="169.342" height="49.2631" filterUnits="userSpaceOnUse" color-interpolation-filters="sRGB">
<feFlood flood-opacity="0" result="BackgroundImageFix"/>
<feColorMatrix in="SourceAlpha" type="matrix" values="0 0 0 0 0 0 0 0 0 0 0 0 0 0 0 0 0 0 127 0" result="hardAlpha"/>
<feOffset dy="3.07895"/>
<feGaussianBlur stdDeviation="3.07895"/>
<feColorMatrix type="matrix" values="0 0 0 0 0.846667 0 0 0 0 0.929673 0 0 0 0 0.996078 0 0 0 0.5 0"/>
<feBlend mode="normal" in2="BackgroundImageFix" result="effect1_dropShadow_1534_6753"/>
<feBlend mode="normal" in="SourceGraphic" in2="effect1_dropShadow_1534_6753" result="shape"/>
</filter>
<filter id="filter6_d_1534_6753" x="137.855" y="525.572" width="169.342" height="49.2631" filterUnits="userSpaceOnUse" color-interpolation-filters="sRGB">
<feFlood flood-opacity="0" result="BackgroundImageFix"/>
<feColorMatrix in="SourceAlpha" type="matrix" values="0 0 0 0 0 0 0 0 0 0 0 0 0 0 0 0 0 0 127 0" result="hardAlpha"/>
<feOffset dy="3.07895"/>
<feGaussianBlur stdDeviation="3.07895"/>
<feColorMatrix type="matrix" values="0 0 0 0 0.846667 0 0 0 0 0.929673 0 0 0 0 0.996078 0 0 0 0.5 0"/>
<feBlend mode="normal" in2="BackgroundImageFix" result="effect1_dropShadow_1534_6753"/>
<feBlend mode="normal" in="SourceGraphic" in2="effect1_dropShadow_1534_6753" result="shape"/>
</filter>
<filter id="filter7_d_1534_6753" x="137.855" y="373.165" width="169.342" height="49.2631" filterUnits="userSpaceOnUse" color-interpolation-filters="sRGB">
<feFlood flood-opacity="0" result="BackgroundImageFix"/>
<feColorMatrix in="SourceAlpha" type="matrix" values="0 0 0 0 0 0 0 0 0 0 0 0 0 0 0 0 0 0 127 0" result="hardAlpha"/>
<feOffset dy="3.07895"/>
<feGaussianBlur stdDeviation="3.07895"/>
<feColorMatrix type="matrix" values="0 0 0 0 0.846667 0 0 0 0 0.929673 0 0 0 0 0.996078 0 0 0 0.5 0"/>
<feBlend mode="normal" in2="BackgroundImageFix" result="effect1_dropShadow_1534_6753"/>
<feBlend mode="normal" in="SourceGraphic" in2="effect1_dropShadow_1534_6753" result="shape"/>
</filter>
<clipPath id="clip0_1534_6753">
<rect width="18.4737" height="18.4737" fill="white" transform="translate(31.6316 98.3682)"/>
</clipPath>
<clipPath id="clip1_1534_6753">
<rect width="18.4737" height="18.4737" fill="white" transform="translate(31.6316 166.105)"/>
</clipPath>
<clipPath id="clip2_1534_6753">
<rect width="18.4737" height="18.4737" fill="white" transform="translate(31.6316 233.842)"/>
</clipPath>
<clipPath id="clip3_1534_6753">
<rect width="18.4737" height="18.4737" fill="white" transform="translate(31.6316 301.579)"/>
</clipPath>
<clipPath id="clip4_1534_6753">
<rect width="18.4737" height="18.4737" fill="white" transform="translate(31.6316 369.315)"/>
</clipPath>
<clipPath id="clip5_1534_6753">
<rect width="18.4737" height="18.4737" fill="white" transform="translate(31.6316 437.052)"/>
</clipPath>
<clipPath id="clip6_1534_6753">
<rect width="18.4737" height="18.4737" fill="white" transform="translate(52.1052 523.263) rotate(-180)"/>
</clipPath>
<clipPath id="clip7_1534_6753">
<rect width="18.4737" height="18.4737" fill="white" transform="translate(31.6316 31.4014)"/>
</clipPath>
<clipPath id="clip8_1534_6753">
<rect width="18.4737" height="18.4737" fill="white" transform="translate(162.487 77.5854)"/>
</clipPath>
<clipPath id="clip9_1534_6753">
<rect width="18.4737" height="18.4737" fill="white" transform="translate(150.171 139.165)"/>
</clipPath>
<clipPath id="clip10_1534_6753">
<rect width="18.4737" height="18.4737" fill="white" transform="translate(150.171 200.743)"/>
</clipPath>
<clipPath id="clip11_1534_6753">
<rect width="18.4737" height="18.4737" fill="white" transform="translate(150.171 262.322)"/>
</clipPath>
<clipPath id="clip12_1534_6753">
<rect width="18.4737" height="18.4737" fill="white" transform="translate(150.171 323.901)"/>
</clipPath>
<clipPath id="clip13_1534_6753">
<rect width="18.4737" height="18.4737" fill="white" transform="translate(168.645 556.362) rotate(-180)"/>
</clipPath>
<clipPath id="clip14_1534_6753">
<rect width="18.4737" height="18.4737" fill="white" transform="translate(150.171 385.48)"/>
</clipPath>
<clipPath id="clip15_1534_6753">
<rect width="18.4737" height="18.4737" fill="white" transform="translate(294.882 384.71) rotate(90)"/>
</clipPath>
</defs>
</svg>
