<svg width="484" height="44" viewBox="0 0 484 44" fill="none" xmlns="http://www.w3.org/2000/svg">
<path d="M0 4C0 1.79086 1.79086 0 4 0H480C482.209 0 484 1.79086 484 4V40C484 42.2091 482.209 44 480 44H4.00001C1.79087 44 0 42.2091 0 40V4Z" fill="#F5FBF8"/>
<path d="M28 12C22.48 12 18 16.48 18 22C18 27.52 22.48 32 28 32C33.52 32 38 27.52 38 22C38 16.48 33.52 12 28 12ZM28 30C23.59 30 20 26.41 20 22C20 17.59 23.59 14 28 14C32.41 14 36 17.59 36 22C36 26.41 32.41 30 28 30ZM32.59 17.58L26 24.17L23.41 21.59L22 23L26 27L34 19L32.59 17.58Z" fill="#52BD94"/>
<path d="M56.0938 24.8906C56.0938 25.5677 55.9271 26.151 55.5938 26.6406C55.2656 27.1302 54.7917 27.5052 54.1719 27.7656C53.5573 28.026 52.8229 28.1562 51.9688 28.1562C51.5521 28.1562 51.1536 28.1328 50.7734 28.0859C50.3932 28.0391 50.0339 27.9714 49.6953 27.8828C49.362 27.7891 49.0573 27.6771 48.7812 27.5469V25.7812C49.2448 25.9844 49.763 26.1693 50.3359 26.3359C50.9089 26.4974 51.4922 26.5781 52.0859 26.5781C52.5703 26.5781 52.9714 26.5156 53.2891 26.3906C53.612 26.2604 53.8516 26.0781 54.0078 25.8438C54.1641 25.6042 54.2422 25.3255 54.2422 25.0078C54.2422 24.6693 54.151 24.3828 53.9688 24.1484C53.7865 23.9141 53.5104 23.7005 53.1406 23.5078C52.776 23.3099 52.3177 23.099 51.7656 22.875C51.3906 22.724 51.0312 22.5521 50.6875 22.3594C50.349 22.1667 50.0469 21.9401 49.7812 21.6797C49.5156 21.4193 49.3047 21.112 49.1484 20.7578C48.9974 20.3984 48.9219 19.9766 48.9219 19.4922C48.9219 18.8464 49.0755 18.2943 49.3828 17.8359C49.6953 17.3776 50.1328 17.026 50.6953 16.7812C51.263 16.5365 51.9245 16.4141 52.6797 16.4141C53.2786 16.4141 53.8411 16.4766 54.3672 16.6016C54.8984 16.7266 55.4193 16.9036 55.9297 17.1328L55.3359 18.6406C54.8672 18.4479 54.4115 18.2943 53.9688 18.1797C53.5312 18.0651 53.0833 18.0078 52.625 18.0078C52.2292 18.0078 51.8932 18.0677 51.6172 18.1875C51.3411 18.3073 51.1302 18.4766 50.9844 18.6953C50.8438 18.9089 50.7734 19.1641 50.7734 19.4609C50.7734 19.7943 50.8542 20.0755 51.0156 20.3047C51.1823 20.5286 51.4375 20.7344 51.7812 20.9219C52.1302 21.1094 52.5781 21.3177 53.125 21.5469C53.7552 21.8073 54.2891 22.0807 54.7266 22.3672C55.1693 22.6536 55.5078 22.9974 55.7422 23.3984C55.9766 23.7943 56.0938 24.2917 56.0938 24.8906ZM65.6324 19.3516V28H64.1871L63.9371 26.8359H63.8356C63.6533 27.1328 63.4215 27.3802 63.1403 27.5781C62.859 27.7708 62.5465 27.9141 62.2028 28.0078C61.859 28.1068 61.497 28.1562 61.1168 28.1562C60.4658 28.1562 59.9085 28.0469 59.4449 27.8281C58.9866 27.6042 58.635 27.2604 58.3903 26.7969C58.1455 26.3333 58.0231 25.7344 58.0231 25V19.3516H59.8668V24.6562C59.8668 25.3281 60.0022 25.8307 60.2731 26.1641C60.5491 26.4974 60.9762 26.6641 61.5543 26.6641C62.1116 26.6641 62.5543 26.5495 62.8824 26.3203C63.2106 26.0911 63.4423 25.7526 63.5778 25.3047C63.7184 24.8568 63.7887 24.3073 63.7887 23.6562V19.3516H65.6324ZM71.7336 28.1562C70.9159 28.1562 70.2076 27.9974 69.6086 27.6797C69.0097 27.362 68.5487 26.875 68.2258 26.2188C67.9029 25.5625 67.7414 24.7292 67.7414 23.7188C67.7414 22.6667 67.9185 21.8073 68.2727 21.1406C68.6269 20.474 69.1164 19.9818 69.7414 19.6641C70.3716 19.3464 71.093 19.1875 71.9055 19.1875C72.4211 19.1875 72.8873 19.2396 73.3039 19.3438C73.7258 19.4427 74.0826 19.5651 74.3743 19.7109L73.8274 21.1797C73.5097 21.0495 73.1841 20.9401 72.8508 20.8516C72.5175 20.763 72.1972 20.7188 71.8899 20.7188C71.3847 20.7188 70.9628 20.8307 70.6243 21.0547C70.2909 21.2786 70.0409 21.612 69.8743 22.0547C69.7128 22.4974 69.6321 23.0469 69.6321 23.7031C69.6321 24.3385 69.7154 24.875 69.8821 25.3125C70.0487 25.7448 70.2961 26.0729 70.6243 26.2969C70.9524 26.5156 71.356 26.625 71.8352 26.625C72.3091 26.625 72.7336 26.5677 73.1086 26.4531C73.4836 26.3385 73.8378 26.1901 74.1711 26.0078V27.6016C73.843 27.7891 73.4914 27.9271 73.1164 28.0156C72.7414 28.1094 72.2805 28.1562 71.7336 28.1562ZM79.6707 28.1562C78.853 28.1562 78.1447 27.9974 77.5457 27.6797C76.9468 27.362 76.4859 26.875 76.1629 26.2188C75.84 25.5625 75.6786 24.7292 75.6786 23.7188C75.6786 22.6667 75.8556 21.8073 76.2098 21.1406C76.564 20.474 77.0536 19.9818 77.6786 19.6641C78.3088 19.3464 79.0301 19.1875 79.8426 19.1875C80.3582 19.1875 80.8244 19.2396 81.2411 19.3438C81.6629 19.4427 82.0197 19.5651 82.3114 19.7109L81.7645 21.1797C81.4468 21.0495 81.1213 20.9401 80.7879 20.8516C80.4546 20.763 80.1343 20.7188 79.827 20.7188C79.3218 20.7188 78.8999 20.8307 78.5614 21.0547C78.228 21.2786 77.978 21.612 77.8114 22.0547C77.6499 22.4974 77.5692 23.0469 77.5692 23.7031C77.5692 24.3385 77.6525 24.875 77.8192 25.3125C77.9859 25.7448 78.2332 26.0729 78.5614 26.2969C78.8895 26.5156 79.2931 26.625 79.7723 26.625C80.2463 26.625 80.6707 26.5677 81.0457 26.4531C81.4207 26.3385 81.7749 26.1901 82.1082 26.0078V27.6016C81.7801 27.7891 81.4286 27.9271 81.0536 28.0156C80.6786 28.1094 80.2176 28.1562 79.6707 28.1562ZM87.5688 19.1875C88.3396 19.1875 89.0011 19.3464 89.5532 19.6641C90.1053 19.9818 90.5298 20.4323 90.8266 21.0156C91.1235 21.599 91.2719 22.2969 91.2719 23.1094V24.0938H85.4985C85.5193 24.9323 85.7433 25.5781 86.1704 26.0312C86.6027 26.4844 87.2068 26.7109 87.9829 26.7109C88.535 26.7109 89.0298 26.6589 89.4673 26.5547C89.91 26.4453 90.3657 26.2865 90.8344 26.0781V27.5703C90.4021 27.7734 89.962 27.9219 89.5141 28.0156C89.0662 28.1094 88.5298 28.1562 87.9048 28.1562C87.0558 28.1562 86.3084 27.9922 85.6626 27.6641C85.0219 27.3307 84.5193 26.8359 84.1548 26.1797C83.7954 25.5234 83.6157 24.7083 83.6157 23.7344C83.6157 22.7656 83.7798 21.9427 84.1079 21.2656C84.436 20.5885 84.8969 20.0729 85.4907 19.7188C86.0844 19.3646 86.7771 19.1875 87.5688 19.1875ZM87.5688 20.5703C86.9907 20.5703 86.5219 20.7578 86.1626 21.1328C85.8084 21.5078 85.6001 22.0573 85.5376 22.7812H89.4751C89.4699 22.349 89.3969 21.9661 89.2563 21.6328C89.1209 21.2995 88.9126 21.0391 88.6313 20.8516C88.3553 20.6641 88.0011 20.5703 87.5688 20.5703ZM99.1387 25.5312C99.1387 26.099 99.0007 26.5781 98.7247 26.9688C98.4486 27.3594 98.045 27.6562 97.5137 27.8594C96.9877 28.0573 96.3419 28.1562 95.5762 28.1562C94.9721 28.1562 94.4512 28.112 94.0137 28.0234C93.5815 27.9401 93.1726 27.8099 92.7872 27.6328V26.0469C93.1986 26.2396 93.6596 26.4062 94.17 26.5469C94.6856 26.6875 95.1726 26.7578 95.6309 26.7578C96.2351 26.7578 96.67 26.6641 96.9356 26.4766C97.2012 26.2839 97.3341 26.0286 97.3341 25.7109C97.3341 25.5234 97.2794 25.3568 97.17 25.2109C97.0658 25.0599 96.8679 24.9062 96.5762 24.75C96.2898 24.5885 95.8679 24.3958 95.3106 24.1719C94.7637 23.9531 94.3028 23.7344 93.9278 23.5156C93.5528 23.2969 93.269 23.0339 93.0762 22.7266C92.8835 22.4141 92.7872 22.0156 92.7872 21.5312C92.7872 20.7656 93.0893 20.1849 93.6934 19.7891C94.3028 19.388 95.1075 19.1875 96.1075 19.1875C96.6387 19.1875 97.1387 19.2422 97.6075 19.3516C98.0815 19.4557 98.545 19.6094 98.9981 19.8125L98.42 21.1953C98.0294 21.0234 97.6361 20.8828 97.2403 20.7734C96.8497 20.6589 96.4512 20.6016 96.045 20.6016C95.571 20.6016 95.2091 20.6745 94.9591 20.8203C94.7143 20.9661 94.5919 21.1745 94.5919 21.4453C94.5919 21.6484 94.6518 21.8203 94.7716 21.9609C94.8914 22.1016 95.0971 22.2422 95.3887 22.3828C95.6856 22.5234 96.0971 22.6979 96.6231 22.9062C97.1387 23.1042 97.5841 23.3125 97.9591 23.5312C98.3393 23.7448 98.6309 24.0078 98.8341 24.3203C99.0372 24.6328 99.1387 25.0365 99.1387 25.5312ZM106.92 25.5312C106.92 26.099 106.782 26.5781 106.506 26.9688C106.23 27.3594 105.826 27.6562 105.295 27.8594C104.769 28.0573 104.123 28.1562 103.357 28.1562C102.753 28.1562 102.232 28.112 101.795 28.0234C101.362 27.9401 100.953 27.8099 100.568 27.6328V26.0469C100.98 26.2396 101.44 26.4062 101.951 26.5469C102.466 26.6875 102.953 26.7578 103.412 26.7578C104.016 26.7578 104.451 26.6641 104.716 26.4766C104.982 26.2839 105.115 26.0286 105.115 25.7109C105.115 25.5234 105.06 25.3568 104.951 25.2109C104.847 25.0599 104.649 24.9062 104.357 24.75C104.071 24.5885 103.649 24.3958 103.091 24.1719C102.545 23.9531 102.084 23.7344 101.709 23.5156C101.334 23.2969 101.05 23.0339 100.857 22.7266C100.664 22.4141 100.568 22.0156 100.568 21.5312C100.568 20.7656 100.87 20.1849 101.474 19.7891C102.084 19.388 102.888 19.1875 103.888 19.1875C104.42 19.1875 104.92 19.2422 105.388 19.3516C105.862 19.4557 106.326 19.6094 106.779 19.8125L106.201 21.1953C105.81 21.0234 105.417 20.8828 105.021 20.7734C104.631 20.6589 104.232 20.6016 103.826 20.6016C103.352 20.6016 102.99 20.6745 102.74 20.8203C102.495 20.9661 102.373 21.1745 102.373 21.4453C102.373 21.6484 102.433 21.8203 102.552 21.9609C102.672 22.1016 102.878 22.2422 103.17 22.3828C103.466 22.5234 103.878 22.6979 104.404 22.9062C104.92 23.1042 105.365 23.3125 105.74 23.5312C106.12 23.7448 106.412 24.0078 106.615 24.3203C106.818 24.6328 106.92 25.0365 106.92 25.5312ZM122.802 19.1875C123.77 19.1875 124.5 19.4375 124.989 19.9375C125.484 20.4375 125.731 21.2396 125.731 22.3438V28H123.895V22.6719C123.895 22.0156 123.768 21.5208 123.513 21.1875C123.257 20.8542 122.869 20.6875 122.349 20.6875C121.619 20.6875 121.093 20.9219 120.77 21.3906C120.453 21.8542 120.294 22.5286 120.294 23.4141V28H118.458V22.6719C118.458 22.2344 118.401 21.8698 118.286 21.5781C118.177 21.2812 118.007 21.0599 117.778 20.9141C117.549 20.763 117.26 20.6875 116.911 20.6875C116.406 20.6875 116.002 20.8021 115.7 21.0312C115.403 21.2604 115.19 21.599 115.06 22.0469C114.929 22.4896 114.864 23.0339 114.864 23.6797V28H113.028V19.3516H114.458L114.716 20.5156H114.817C114.994 20.2135 115.213 19.9661 115.474 19.7734C115.739 19.5755 116.033 19.4297 116.356 19.3359C116.679 19.237 117.015 19.1875 117.364 19.1875C118.01 19.1875 118.554 19.3021 118.997 19.5312C119.44 19.7552 119.77 20.099 119.989 20.5625H120.13C120.401 20.0938 120.778 19.7474 121.263 19.5234C121.747 19.2995 122.26 19.1875 122.802 19.1875ZM131.723 19.1875C132.494 19.1875 133.155 19.3464 133.708 19.6641C134.26 19.9818 134.684 20.4323 134.981 21.0156C135.278 21.599 135.426 22.2969 135.426 23.1094V24.0938H129.653C129.674 24.9323 129.898 25.5781 130.325 26.0312C130.757 26.4844 131.361 26.7109 132.137 26.7109C132.689 26.7109 133.184 26.6589 133.622 26.5547C134.064 26.4453 134.52 26.2865 134.989 26.0781V27.5703C134.557 27.7734 134.116 27.9219 133.669 28.0156C133.221 28.1094 132.684 28.1562 132.059 28.1562C131.21 28.1562 130.463 27.9922 129.817 27.6641C129.176 27.3307 128.674 26.8359 128.309 26.1797C127.95 25.5234 127.77 24.7083 127.77 23.7344C127.77 22.7656 127.934 21.9427 128.262 21.2656C128.59 20.5885 129.051 20.0729 129.645 19.7188C130.239 19.3646 130.932 19.1875 131.723 19.1875ZM131.723 20.5703C131.145 20.5703 130.676 20.7578 130.317 21.1328C129.963 21.5078 129.754 22.0573 129.692 22.7812H133.629C133.624 22.349 133.551 21.9661 133.411 21.6328C133.275 21.2995 133.067 21.0391 132.786 20.8516C132.51 20.6641 132.155 20.5703 131.723 20.5703ZM143.293 25.5312C143.293 26.099 143.155 26.5781 142.879 26.9688C142.603 27.3594 142.199 27.6562 141.668 27.8594C141.142 28.0573 140.496 28.1562 139.731 28.1562C139.126 28.1562 138.606 28.112 138.168 28.0234C137.736 27.9401 137.327 27.8099 136.942 27.6328V26.0469C137.353 26.2396 137.814 26.4062 138.324 26.5469C138.84 26.6875 139.327 26.7578 139.785 26.7578C140.389 26.7578 140.824 26.6641 141.09 26.4766C141.356 26.2839 141.488 26.0286 141.488 25.7109C141.488 25.5234 141.434 25.3568 141.324 25.2109C141.22 25.0599 141.022 24.9062 140.731 24.75C140.444 24.5885 140.022 24.3958 139.465 24.1719C138.918 23.9531 138.457 23.7344 138.082 23.5156C137.707 23.2969 137.423 23.0339 137.231 22.7266C137.038 22.4141 136.942 22.0156 136.942 21.5312C136.942 20.7656 137.244 20.1849 137.848 19.7891C138.457 19.388 139.262 19.1875 140.262 19.1875C140.793 19.1875 141.293 19.2422 141.762 19.3516C142.236 19.4557 142.699 19.6094 143.152 19.8125L142.574 21.1953C142.184 21.0234 141.791 20.8828 141.395 20.7734C141.004 20.6589 140.606 20.6016 140.199 20.6016C139.725 20.6016 139.363 20.6745 139.113 20.8203C138.869 20.9661 138.746 21.1745 138.746 21.4453C138.746 21.6484 138.806 21.8203 138.926 21.9609C139.046 22.1016 139.251 22.2422 139.543 22.3828C139.84 22.5234 140.251 22.6979 140.777 22.9062C141.293 23.1042 141.738 23.3125 142.113 23.5312C142.494 23.7448 142.785 24.0078 142.988 24.3203C143.192 24.6328 143.293 25.0365 143.293 25.5312ZM151.074 25.5312C151.074 26.099 150.936 26.5781 150.66 26.9688C150.384 27.3594 149.98 27.6562 149.449 27.8594C148.923 28.0573 148.277 28.1562 147.511 28.1562C146.907 28.1562 146.386 28.112 145.949 28.0234C145.517 27.9401 145.108 27.8099 144.722 27.6328V26.0469C145.134 26.2396 145.595 26.4062 146.105 26.5469C146.621 26.6875 147.108 26.7578 147.566 26.7578C148.17 26.7578 148.605 26.6641 148.871 26.4766C149.136 26.2839 149.269 26.0286 149.269 25.7109C149.269 25.5234 149.215 25.3568 149.105 25.2109C149.001 25.0599 148.803 24.9062 148.511 24.75C148.225 24.5885 147.803 24.3958 147.246 24.1719C146.699 23.9531 146.238 23.7344 145.863 23.5156C145.488 23.2969 145.204 23.0339 145.011 22.7266C144.819 22.4141 144.722 22.0156 144.722 21.5312C144.722 20.7656 145.025 20.1849 145.629 19.7891C146.238 19.388 147.043 19.1875 148.043 19.1875C148.574 19.1875 149.074 19.2422 149.543 19.3516C150.017 19.4557 150.48 19.6094 150.933 19.8125L150.355 21.1953C149.965 21.0234 149.571 20.8828 149.176 20.7734C148.785 20.6589 148.386 20.6016 147.98 20.6016C147.506 20.6016 147.144 20.6745 146.894 20.8203C146.65 20.9661 146.527 21.1745 146.527 21.4453C146.527 21.6484 146.587 21.8203 146.707 21.9609C146.827 22.1016 147.032 22.2422 147.324 22.3828C147.621 22.5234 148.032 22.6979 148.558 22.9062C149.074 23.1042 149.519 23.3125 149.894 23.5312C150.275 23.7448 150.566 24.0078 150.769 24.3203C150.972 24.6328 151.074 25.0365 151.074 25.5312ZM156.433 19.1875C157.527 19.1875 158.352 19.4297 158.91 19.9141C159.472 20.3984 159.753 21.1536 159.753 22.1797V28H158.449L158.097 26.7734H158.035C157.79 27.0859 157.537 27.3438 157.277 27.5469C157.016 27.75 156.714 27.901 156.37 28C156.032 28.1042 155.618 28.1562 155.128 28.1562C154.613 28.1562 154.152 28.0625 153.745 27.875C153.339 27.6823 153.019 27.3906 152.785 27C152.55 26.6094 152.433 26.1146 152.433 25.5156C152.433 24.625 152.764 23.9557 153.425 23.5078C154.092 23.0599 155.097 22.8125 156.441 22.7656L157.941 22.7109V22.2578C157.941 21.6589 157.8 21.2318 157.519 20.9766C157.243 20.7214 156.852 20.5938 156.347 20.5938C155.915 20.5938 155.495 20.6562 155.089 20.7812C154.683 20.9062 154.287 21.0599 153.902 21.2422L153.308 19.9453C153.73 19.7214 154.209 19.5391 154.745 19.3984C155.287 19.2578 155.85 19.1875 156.433 19.1875ZM157.933 23.8672L156.816 23.9062C155.899 23.9375 155.256 24.0938 154.886 24.375C154.516 24.6562 154.331 25.0417 154.331 25.5312C154.331 25.9583 154.459 26.2708 154.714 26.4688C154.969 26.6615 155.305 26.7578 155.722 26.7578C156.357 26.7578 156.884 26.5781 157.3 26.2188C157.722 25.8542 157.933 25.3203 157.933 24.6172V23.8672ZM164.776 31.8438C163.604 31.8438 162.706 31.6328 162.081 31.2109C161.456 30.7891 161.144 30.1979 161.144 29.4375C161.144 28.9062 161.31 28.4557 161.644 28.0859C161.977 27.7214 162.453 27.4688 163.073 27.3281C162.839 27.224 162.636 27.0625 162.464 26.8438C162.297 26.6198 162.214 26.3724 162.214 26.1016C162.214 25.7786 162.305 25.5026 162.487 25.2734C162.67 25.0443 162.943 24.8229 163.308 24.6094C162.854 24.4167 162.49 24.1042 162.214 23.6719C161.943 23.2344 161.808 22.7214 161.808 22.1328C161.808 21.5078 161.94 20.9766 162.206 20.5391C162.472 20.0964 162.86 19.7604 163.37 19.5312C163.881 19.2969 164.498 19.1797 165.222 19.1797C165.378 19.1797 165.547 19.1901 165.729 19.2109C165.917 19.2266 166.089 19.2474 166.245 19.2734C166.407 19.2943 166.529 19.3177 166.612 19.3438H169.604V20.3672L168.136 20.6406C168.276 20.8385 168.388 21.0651 168.472 21.3203C168.555 21.5703 168.597 21.8438 168.597 22.1406C168.597 23.0365 168.287 23.7422 167.667 24.2578C167.052 24.7682 166.203 25.0234 165.12 25.0234C164.86 25.013 164.607 24.9922 164.362 24.9609C164.175 25.0755 164.032 25.2031 163.933 25.3438C163.834 25.4792 163.784 25.6328 163.784 25.8047C163.784 25.9453 163.834 26.0599 163.933 26.1484C164.032 26.2318 164.177 26.2943 164.37 26.3359C164.568 26.3776 164.808 26.3984 165.089 26.3984H166.581C167.529 26.3984 168.253 26.599 168.753 27C169.253 27.401 169.503 27.9896 169.503 28.7656C169.503 29.75 169.097 30.5078 168.284 31.0391C167.472 31.5755 166.302 31.8438 164.776 31.8438ZM164.847 30.5547C165.487 30.5547 166.026 30.4922 166.464 30.3672C166.901 30.2422 167.232 30.0625 167.456 29.8281C167.68 29.599 167.792 29.3255 167.792 29.0078C167.792 28.7266 167.722 28.5104 167.581 28.3594C167.44 28.2083 167.229 28.1042 166.948 28.0469C166.667 27.9896 166.318 27.9609 165.901 27.9609H164.542C164.203 27.9609 163.904 28.013 163.644 28.1172C163.383 28.2266 163.18 28.3828 163.034 28.5859C162.894 28.7891 162.823 29.0339 162.823 29.3203C162.823 29.7161 162.998 30.0208 163.347 30.2344C163.701 30.4479 164.201 30.5547 164.847 30.5547ZM165.206 23.8203C165.743 23.8203 166.141 23.6745 166.401 23.3828C166.662 23.0859 166.792 22.6693 166.792 22.1328C166.792 21.5495 166.657 21.112 166.386 20.8203C166.12 20.5286 165.724 20.3828 165.198 20.3828C164.683 20.3828 164.289 20.5312 164.019 20.8281C163.753 21.125 163.62 21.5651 163.62 22.1484C163.62 22.6745 163.753 23.0859 164.019 23.3828C164.289 23.6745 164.685 23.8203 165.206 23.8203ZM174.612 19.1875C175.383 19.1875 176.044 19.3464 176.596 19.6641C177.148 19.9818 177.573 20.4323 177.87 21.0156C178.167 21.599 178.315 22.2969 178.315 23.1094V24.0938H172.542C172.562 24.9323 172.786 25.5781 173.214 26.0312C173.646 26.4844 174.25 26.7109 175.026 26.7109C175.578 26.7109 176.073 26.6589 176.51 26.5547C176.953 26.4453 177.409 26.2865 177.878 26.0781V27.5703C177.445 27.7734 177.005 27.9219 176.557 28.0156C176.109 28.1094 175.573 28.1562 174.948 28.1562C174.099 28.1562 173.352 27.9922 172.706 27.6641C172.065 27.3307 171.562 26.8359 171.198 26.1797C170.839 25.5234 170.659 24.7083 170.659 23.7344C170.659 22.7656 170.823 21.9427 171.151 21.2656C171.479 20.5885 171.94 20.0729 172.534 19.7188C173.128 19.3646 173.82 19.1875 174.612 19.1875ZM174.612 20.5703C174.034 20.5703 173.565 20.7578 173.206 21.1328C172.852 21.5078 172.643 22.0573 172.581 22.7812H176.518C176.513 22.349 176.44 21.9661 176.299 21.6328C176.164 21.2995 175.956 21.0391 175.674 20.8516C175.398 20.6641 175.044 20.5703 174.612 20.5703ZM180.104 27.0312C180.104 26.6042 180.213 26.3047 180.432 26.1328C180.656 25.9557 180.927 25.8672 181.244 25.8672C181.562 25.8672 181.833 25.9557 182.057 26.1328C182.286 26.3047 182.401 26.6042 182.401 27.0312C182.401 27.4479 182.286 27.75 182.057 27.9375C181.833 28.1198 181.562 28.2109 181.244 28.2109C180.927 28.2109 180.656 28.1198 180.432 27.9375C180.213 27.75 180.104 27.4479 180.104 27.0312Z" fill="#317159"/>
<path d="M464.667 18.2735L463.727 17.3335L460 21.0602L456.273 17.3335L455.333 18.2735L459.06 22.0002L455.333 25.7268L456.273 26.6668L460 22.9402L463.727 26.6668L464.667 25.7268L460.94 22.0002L464.667 18.2735Z" fill="#474D66"/>
</svg>
