<svg width="104" height="139" viewBox="0 0 104 139" fill="none" xmlns="http://www.w3.org/2000/svg">
<circle cx="65" cy="124" r="14.5" transform="rotate(-180 65 124)" fill="#101840" stroke="#101840"/>
<path d="M68.4688 129H62.4805V127.74L64.6309 125.566C65.2676 124.914 65.6836 124.463 65.8789 124.213C66.0742 123.959 66.2148 123.725 66.3008 123.51C66.3867 123.295 66.4297 123.072 66.4297 122.842C66.4297 122.498 66.334 122.242 66.1426 122.074C65.9551 121.906 65.7031 121.822 65.3867 121.822C65.0547 121.822 64.7324 121.898 64.4199 122.051C64.1074 122.203 63.7812 122.42 63.4414 122.701L62.457 121.535C62.8789 121.176 63.2285 120.922 63.5059 120.773C63.7832 120.625 64.0859 120.512 64.4141 120.434C64.7422 120.352 65.1094 120.311 65.5156 120.311C66.0508 120.311 66.5234 120.408 66.9336 120.604C67.3438 120.799 67.6621 121.072 67.8887 121.424C68.1152 121.775 68.2285 122.178 68.2285 122.631C68.2285 123.025 68.1582 123.396 68.0176 123.744C67.8809 124.088 67.666 124.441 67.373 124.805C67.084 125.168 66.5723 125.686 65.8379 126.357L64.7363 127.395V127.477H68.4688V129Z" fill="white"/>
<path d="M65 109V73" stroke="#101840" stroke-width="2"/>
<circle cx="65" cy="75" r="2.5" transform="rotate(-180 65 75)" fill="#101840" stroke="#101840"/>
<rect y="59" width="28" height="16" rx="8" fill="#3366FF"/>
<rect x="14" y="61" width="12" height="12" rx="6" fill="white"/>
<path d="M47.0068 69.3408C47.0068 69.9333 46.8587 70.4391 46.5625 70.8584C46.2708 71.2731 45.8607 71.5898 45.332 71.8086C44.8034 72.0273 44.1813 72.1367 43.4658 72.1367C43.0876 72.1367 42.7298 72.1185 42.3926 72.082C42.0553 72.0456 41.7454 71.9932 41.4629 71.9248C41.1803 71.8564 40.932 71.7721 40.7178 71.6719V70.5576C41.0596 70.6989 41.4766 70.8311 41.9688 70.9541C42.4609 71.0726 42.9759 71.1318 43.5137 71.1318C44.015 71.1318 44.4388 71.0658 44.7852 70.9336C45.1315 70.7969 45.3936 70.6032 45.5713 70.3525C45.7536 70.0973 45.8447 69.792 45.8447 69.4365C45.8447 69.0947 45.7695 68.8099 45.6191 68.582C45.4688 68.3496 45.2181 68.14 44.8672 67.9531C44.5208 67.7617 44.0469 67.5589 43.4453 67.3447C43.0215 67.1943 42.6478 67.0303 42.3242 66.8525C42.0007 66.6702 41.7295 66.4652 41.5107 66.2373C41.292 66.0094 41.1257 65.7451 41.0117 65.4443C40.9023 65.1436 40.8477 64.7995 40.8477 64.4121C40.8477 63.8789 40.9821 63.4232 41.251 63.0449C41.5244 62.6621 41.9004 62.3704 42.3789 62.1699C42.862 61.9648 43.4157 61.8623 44.04 61.8623C44.5732 61.8623 45.0654 61.9124 45.5166 62.0127C45.9723 62.113 46.3893 62.2474 46.7676 62.416L46.4053 63.4141C46.0452 63.2637 45.6624 63.1383 45.2568 63.0381C44.8558 62.9378 44.4411 62.8877 44.0127 62.8877C43.5843 62.8877 43.222 62.9515 42.9258 63.0791C42.6341 63.2021 42.4108 63.3776 42.2559 63.6055C42.1009 63.8333 42.0234 64.1045 42.0234 64.4189C42.0234 64.7699 42.0964 65.0615 42.2422 65.2939C42.3926 65.5264 42.6296 65.7337 42.9531 65.916C43.2812 66.0938 43.7142 66.2806 44.252 66.4766C44.8398 66.6908 45.3389 66.9186 45.749 67.1602C46.1592 67.3971 46.4714 67.6888 46.6855 68.0352C46.8997 68.377 47.0068 68.8122 47.0068 69.3408ZM54.9775 71.9863L53.6445 67.625C53.5853 67.4382 53.5283 67.2559 53.4736 67.0781C53.4235 66.8958 53.3757 66.7227 53.3301 66.5586C53.2891 66.39 53.2503 66.235 53.2139 66.0938C53.182 65.9479 53.1546 65.8226 53.1318 65.7178H53.084C53.0658 65.8226 53.0407 65.9479 53.0088 66.0938C52.9769 66.235 52.9382 66.39 52.8926 66.5586C52.8516 66.7272 52.806 66.9049 52.7559 67.0918C52.7057 67.2741 52.6488 67.4587 52.585 67.6455L51.1904 71.9863H49.9121L47.8477 64.4941H49.0234L50.1035 68.6299C50.1764 68.9033 50.2448 69.1745 50.3086 69.4434C50.377 69.7077 50.4339 69.9583 50.4795 70.1953C50.5296 70.4277 50.5661 70.6305 50.5889 70.8037H50.6436C50.6709 70.6898 50.7005 70.5531 50.7324 70.3936C50.7689 70.234 50.8076 70.0654 50.8486 69.8877C50.8942 69.7054 50.9421 69.5254 50.9922 69.3477C51.0423 69.1654 51.0924 68.9945 51.1426 68.835L52.5234 64.4941H53.7471L55.0801 68.8281C55.1484 69.0469 55.2145 69.2747 55.2783 69.5117C55.3467 69.7487 55.4082 69.9788 55.4629 70.2021C55.5176 70.4209 55.5563 70.6169 55.5791 70.79H55.6338C55.652 70.6351 55.6862 70.4437 55.7363 70.2158C55.7865 69.988 55.8434 69.7373 55.9072 69.4639C55.9756 69.1904 56.0462 68.9124 56.1191 68.6299L57.2129 64.4941H58.3682L56.2969 71.9863H54.9775ZM60.8701 64.5078V72H59.7354V64.5078H60.8701ZM60.3164 61.7051C60.5033 61.7051 60.6628 61.7666 60.7949 61.8896C60.9316 62.0081 61 62.195 61 62.4502C61 62.7008 60.9316 62.8877 60.7949 63.0107C60.6628 63.1338 60.5033 63.1953 60.3164 63.1953C60.1204 63.1953 59.9564 63.1338 59.8242 63.0107C59.6966 62.8877 59.6328 62.7008 59.6328 62.4502C59.6328 62.195 59.6966 62.0081 59.8242 61.8896C59.9564 61.7666 60.1204 61.7051 60.3164 61.7051ZM65.6963 71.207C65.8831 71.207 66.0745 71.1911 66.2705 71.1592C66.4665 71.1273 66.626 71.0885 66.749 71.043V71.9248C66.6169 71.984 66.4323 72.0342 66.1953 72.0752C65.9629 72.1162 65.735 72.1367 65.5117 72.1367C65.1152 72.1367 64.7552 72.0684 64.4316 71.9316C64.1081 71.7904 63.8483 71.5534 63.6523 71.2207C63.4609 70.888 63.3652 70.4277 63.3652 69.8398V65.3965H62.2988V64.8428L63.3721 64.3984L63.8232 62.7715H64.5068V64.5078H66.7012V65.3965H64.5068V69.8057C64.5068 70.2751 64.6139 70.626 64.8281 70.8584C65.0469 71.0908 65.3363 71.207 65.6963 71.207ZM71.2676 72.1367C70.5931 72.1367 69.9984 71.9977 69.4834 71.7197C68.9684 71.4417 68.5674 71.0179 68.2803 70.4482C67.9932 69.8786 67.8496 69.1608 67.8496 68.2949C67.8496 67.388 68 66.6475 68.3008 66.0732C68.6061 65.4945 69.0254 65.0661 69.5586 64.7881C70.0918 64.5101 70.6979 64.3711 71.377 64.3711C71.7507 64.3711 72.1107 64.4098 72.457 64.4873C72.8079 64.5602 73.0951 64.6536 73.3184 64.7676L72.9766 65.7178C72.7487 65.6266 72.4844 65.5446 72.1836 65.4717C71.8874 65.3988 71.6094 65.3623 71.3496 65.3623C70.8301 65.3623 70.3971 65.474 70.0508 65.6973C69.709 65.9206 69.4515 66.2487 69.2783 66.6816C69.1097 67.1146 69.0254 67.6478 69.0254 68.2812C69.0254 68.8874 69.1074 69.4046 69.2715 69.833C69.4401 70.2614 69.6885 70.5895 70.0166 70.8174C70.3493 71.0407 70.764 71.1523 71.2607 71.1523C71.6572 71.1523 72.015 71.1113 72.334 71.0293C72.653 70.9427 72.9424 70.8424 73.2021 70.7285V71.7402C72.9515 71.8678 72.6712 71.9658 72.3613 72.0342C72.056 72.1025 71.6914 72.1367 71.2676 72.1367ZM76.1143 61.3633V64.542C76.1143 64.7243 76.1097 64.9089 76.1006 65.0957C76.0915 65.278 76.0755 65.4466 76.0527 65.6016H76.1279C76.2829 65.3372 76.4788 65.1162 76.7158 64.9385C76.9574 64.7562 77.2308 64.6195 77.5361 64.5283C77.8415 64.4326 78.165 64.3848 78.5068 64.3848C79.1084 64.3848 79.6097 64.4805 80.0107 64.6719C80.4163 64.8633 80.7194 65.1595 80.9199 65.5605C81.125 65.9616 81.2275 66.4811 81.2275 67.1191V72H80.1064V67.1943C80.1064 66.57 79.9629 66.1029 79.6758 65.793C79.3932 65.4831 78.958 65.3281 78.3701 65.3281C77.8141 65.3281 77.3698 65.4352 77.0371 65.6494C76.709 65.859 76.472 66.1689 76.3262 66.5791C76.1849 66.9893 76.1143 67.4906 76.1143 68.083V72H74.9795V61.3633H76.1143ZM93.6621 68.2402C93.6621 68.8555 93.5824 69.4046 93.4229 69.8877C93.2633 70.3708 93.0332 70.7786 92.7324 71.1113C92.4316 71.444 92.0671 71.6992 91.6387 71.877C91.2148 72.0501 90.734 72.1367 90.1963 72.1367C89.695 72.1367 89.2347 72.0501 88.8154 71.877C88.4007 71.6992 88.0407 71.444 87.7354 71.1113C87.4346 70.7786 87.1999 70.3708 87.0312 69.8877C86.8672 69.4046 86.7852 68.8555 86.7852 68.2402C86.7852 67.4199 86.9242 66.7227 87.2021 66.1484C87.4801 65.5697 87.8766 65.1299 88.3916 64.8291C88.9111 64.5238 89.5286 64.3711 90.2441 64.3711C90.9277 64.3711 91.5247 64.5238 92.0352 64.8291C92.5501 65.1344 92.9489 65.5765 93.2314 66.1553C93.5186 66.7295 93.6621 67.4245 93.6621 68.2402ZM87.9609 68.2402C87.9609 68.8418 88.0407 69.3636 88.2002 69.8057C88.3597 70.2477 88.6058 70.5895 88.9385 70.8311C89.2712 71.0726 89.6995 71.1934 90.2236 71.1934C90.7432 71.1934 91.1693 71.0726 91.502 70.8311C91.8392 70.5895 92.0876 70.2477 92.2471 69.8057C92.4066 69.3636 92.4863 68.8418 92.4863 68.2402C92.4863 67.6432 92.4066 67.1283 92.2471 66.6953C92.0876 66.2578 91.8415 65.9206 91.5088 65.6836C91.1761 65.4466 90.7454 65.3281 90.2168 65.3281C89.4375 65.3281 88.8656 65.5856 88.501 66.1006C88.141 66.6156 87.9609 67.3288 87.9609 68.2402ZM99.1719 64.3711C100.061 64.3711 100.733 64.5898 101.188 65.0273C101.644 65.4603 101.872 66.1576 101.872 67.1191V72H100.751V67.1943C100.751 66.57 100.607 66.1029 100.32 65.793C100.038 65.4831 99.6025 65.3281 99.0146 65.3281C98.1852 65.3281 97.6019 65.5628 97.2646 66.0322C96.9274 66.5016 96.7588 67.1829 96.7588 68.0762V72H95.624V64.5078H96.54L96.7109 65.5879H96.7725C96.932 65.3236 97.1348 65.1025 97.3809 64.9248C97.627 64.7425 97.9027 64.6058 98.208 64.5146C98.5133 64.4189 98.8346 64.3711 99.1719 64.3711Z" fill="#474D66"/>
<circle cx="20" cy="15" r="14.5" fill="#101840" stroke="#101840"/>
<path d="M20.957 20H19.1465V15.043L19.1641 14.2285L19.1934 13.3379C18.8926 13.6387 18.6836 13.8359 18.5664 13.9297L17.582 14.7207L16.709 13.6309L19.4688 11.4336H20.957V20Z" fill="white"/>
<path d="M20 30V66" stroke="#101840" stroke-width="2"/>
<circle cx="20" cy="64" r="2.5" fill="#101840" stroke="#101840"/>
</svg>
