<svg width="488" height="200" viewBox="0 0 488 200" fill="none" xmlns="http://www.w3.org/2000/svg">
<rect y="48" width="488" height="106" rx="4" fill="#F5FBF8"/>
<g clip-path="url(#clip0_366_3627)">
<path d="M28 66C22.48 66 18 70.48 18 76C18 81.52 22.48 86 28 86C33.52 86 38 81.52 38 76C38 70.48 33.52 66 28 66ZM28 84C23.59 84 20 80.41 20 76C20 71.59 23.59 68 28 68C32.41 68 36 71.59 36 76C36 80.41 32.41 84 28 84ZM32.59 71.58L26 78.17L23.41 75.59L22 77L26 81L34 73L32.59 71.58Z" fill="#52BD94"/>
</g>
<g clip-path="url(#clip1_366_3627)">
<path d="M56.0938 78.8906C56.0938 79.5677 55.9271 80.151 55.5938 80.6406C55.2656 81.1302 54.7917 81.5052 54.1719 81.7656C53.5573 82.026 52.8229 82.1562 51.9688 82.1562C51.5521 82.1562 51.1536 82.1328 50.7734 82.0859C50.3932 82.0391 50.0339 81.9714 49.6953 81.8828C49.362 81.7891 49.0573 81.6771 48.7812 81.5469V79.7812C49.2448 79.9844 49.763 80.1693 50.3359 80.3359C50.9089 80.4974 51.4922 80.5781 52.0859 80.5781C52.5703 80.5781 52.9714 80.5156 53.2891 80.3906C53.612 80.2604 53.8516 80.0781 54.0078 79.8438C54.1641 79.6042 54.2422 79.3255 54.2422 79.0078C54.2422 78.6693 54.151 78.3828 53.9688 78.1484C53.7865 77.9141 53.5104 77.7005 53.1406 77.5078C52.776 77.3099 52.3177 77.099 51.7656 76.875C51.3906 76.724 51.0312 76.5521 50.6875 76.3594C50.349 76.1667 50.0469 75.9401 49.7812 75.6797C49.5156 75.4193 49.3047 75.112 49.1484 74.7578C48.9974 74.3984 48.9219 73.9766 48.9219 73.4922C48.9219 72.8464 49.0755 72.2943 49.3828 71.8359C49.6953 71.3776 50.1328 71.026 50.6953 70.7812C51.263 70.5365 51.9245 70.4141 52.6797 70.4141C53.2786 70.4141 53.8411 70.4766 54.3672 70.6016C54.8984 70.7266 55.4193 70.9036 55.9297 71.1328L55.3359 72.6406C54.8672 72.4479 54.4115 72.2943 53.9688 72.1797C53.5312 72.0651 53.0833 72.0078 52.625 72.0078C52.2292 72.0078 51.8932 72.0677 51.6172 72.1875C51.3411 72.3073 51.1302 72.4766 50.9844 72.6953C50.8438 72.9089 50.7734 73.1641 50.7734 73.4609C50.7734 73.7943 50.8542 74.0755 51.0156 74.3047C51.1823 74.5286 51.4375 74.7344 51.7812 74.9219C52.1302 75.1094 52.5781 75.3177 53.125 75.5469C53.7552 75.8073 54.2891 76.0807 54.7266 76.3672C55.1693 76.6536 55.5078 76.9974 55.7422 77.3984C55.9766 77.7943 56.0938 78.2917 56.0938 78.8906ZM65.6324 73.3516V82H64.1871L63.9371 80.8359H63.8356C63.6533 81.1328 63.4215 81.3802 63.1403 81.5781C62.859 81.7708 62.5465 81.9141 62.2028 82.0078C61.859 82.1068 61.497 82.1562 61.1168 82.1562C60.4658 82.1562 59.9085 82.0469 59.4449 81.8281C58.9866 81.6042 58.635 81.2604 58.3903 80.7969C58.1455 80.3333 58.0231 79.7344 58.0231 79V73.3516H59.8668V78.6562C59.8668 79.3281 60.0022 79.8307 60.2731 80.1641C60.5491 80.4974 60.9762 80.6641 61.5543 80.6641C62.1116 80.6641 62.5543 80.5495 62.8824 80.3203C63.2106 80.0911 63.4423 79.7526 63.5778 79.3047C63.7184 78.8568 63.7887 78.3073 63.7887 77.6562V73.3516H65.6324ZM71.7336 82.1562C70.9159 82.1562 70.2076 81.9974 69.6086 81.6797C69.0097 81.362 68.5487 80.875 68.2258 80.2188C67.9029 79.5625 67.7414 78.7292 67.7414 77.7188C67.7414 76.6667 67.9185 75.8073 68.2727 75.1406C68.6269 74.474 69.1164 73.9818 69.7414 73.6641C70.3716 73.3464 71.093 73.1875 71.9055 73.1875C72.4211 73.1875 72.8873 73.2396 73.3039 73.3438C73.7258 73.4427 74.0826 73.5651 74.3743 73.7109L73.8274 75.1797C73.5097 75.0495 73.1841 74.9401 72.8508 74.8516C72.5175 74.763 72.1972 74.7188 71.8899 74.7188C71.3847 74.7188 70.9628 74.8307 70.6243 75.0547C70.2909 75.2786 70.0409 75.612 69.8743 76.0547C69.7128 76.4974 69.6321 77.0469 69.6321 77.7031C69.6321 78.3385 69.7154 78.875 69.8821 79.3125C70.0487 79.7448 70.2961 80.0729 70.6243 80.2969C70.9524 80.5156 71.356 80.625 71.8352 80.625C72.3091 80.625 72.7336 80.5677 73.1086 80.4531C73.4836 80.3385 73.8378 80.1901 74.1711 80.0078V81.6016C73.843 81.7891 73.4914 81.9271 73.1164 82.0156C72.7414 82.1094 72.2805 82.1562 71.7336 82.1562ZM79.6707 82.1562C78.853 82.1562 78.1447 81.9974 77.5457 81.6797C76.9468 81.362 76.4859 80.875 76.1629 80.2188C75.84 79.5625 75.6786 78.7292 75.6786 77.7188C75.6786 76.6667 75.8556 75.8073 76.2098 75.1406C76.564 74.474 77.0536 73.9818 77.6786 73.6641C78.3088 73.3464 79.0301 73.1875 79.8426 73.1875C80.3582 73.1875 80.8244 73.2396 81.2411 73.3438C81.6629 73.4427 82.0197 73.5651 82.3114 73.7109L81.7645 75.1797C81.4468 75.0495 81.1213 74.9401 80.7879 74.8516C80.4546 74.763 80.1343 74.7188 79.827 74.7188C79.3218 74.7188 78.8999 74.8307 78.5614 75.0547C78.228 75.2786 77.978 75.612 77.8114 76.0547C77.6499 76.4974 77.5692 77.0469 77.5692 77.7031C77.5692 78.3385 77.6525 78.875 77.8192 79.3125C77.9859 79.7448 78.2332 80.0729 78.5614 80.2969C78.8895 80.5156 79.2931 80.625 79.7723 80.625C80.2463 80.625 80.6707 80.5677 81.0457 80.4531C81.4207 80.3385 81.7749 80.1901 82.1082 80.0078V81.6016C81.7801 81.7891 81.4286 81.9271 81.0536 82.0156C80.6786 82.1094 80.2176 82.1562 79.6707 82.1562ZM87.5688 73.1875C88.3396 73.1875 89.0011 73.3464 89.5532 73.6641C90.1053 73.9818 90.5298 74.4323 90.8266 75.0156C91.1235 75.599 91.2719 76.2969 91.2719 77.1094V78.0938H85.4985C85.5193 78.9323 85.7433 79.5781 86.1704 80.0312C86.6027 80.4844 87.2068 80.7109 87.9829 80.7109C88.535 80.7109 89.0298 80.6589 89.4673 80.5547C89.91 80.4453 90.3657 80.2865 90.8344 80.0781V81.5703C90.4021 81.7734 89.962 81.9219 89.5141 82.0156C89.0662 82.1094 88.5298 82.1562 87.9048 82.1562C87.0558 82.1562 86.3084 81.9922 85.6626 81.6641C85.0219 81.3307 84.5193 80.8359 84.1548 80.1797C83.7954 79.5234 83.6157 78.7083 83.6157 77.7344C83.6157 76.7656 83.7798 75.9427 84.1079 75.2656C84.436 74.5885 84.8969 74.0729 85.4907 73.7188C86.0844 73.3646 86.7771 73.1875 87.5688 73.1875ZM87.5688 74.5703C86.9907 74.5703 86.5219 74.7578 86.1626 75.1328C85.8084 75.5078 85.6001 76.0573 85.5376 76.7812H89.4751C89.4699 76.349 89.3969 75.9661 89.2563 75.6328C89.1209 75.2995 88.9126 75.0391 88.6313 74.8516C88.3553 74.6641 88.0011 74.5703 87.5688 74.5703ZM99.1387 79.5312C99.1387 80.099 99.0007 80.5781 98.7247 80.9688C98.4486 81.3594 98.045 81.6562 97.5137 81.8594C96.9877 82.0573 96.3419 82.1562 95.5762 82.1562C94.9721 82.1562 94.4512 82.112 94.0137 82.0234C93.5815 81.9401 93.1726 81.8099 92.7872 81.6328V80.0469C93.1986 80.2396 93.6596 80.4062 94.17 80.5469C94.6856 80.6875 95.1726 80.7578 95.6309 80.7578C96.2351 80.7578 96.67 80.6641 96.9356 80.4766C97.2012 80.2839 97.3341 80.0286 97.3341 79.7109C97.3341 79.5234 97.2794 79.3568 97.17 79.2109C97.0658 79.0599 96.8679 78.9062 96.5762 78.75C96.2898 78.5885 95.8679 78.3958 95.3106 78.1719C94.7637 77.9531 94.3028 77.7344 93.9278 77.5156C93.5528 77.2969 93.269 77.0339 93.0762 76.7266C92.8835 76.4141 92.7872 76.0156 92.7872 75.5312C92.7872 74.7656 93.0893 74.1849 93.6934 73.7891C94.3028 73.388 95.1075 73.1875 96.1075 73.1875C96.6387 73.1875 97.1387 73.2422 97.6075 73.3516C98.0815 73.4557 98.545 73.6094 98.9981 73.8125L98.42 75.1953C98.0294 75.0234 97.6361 74.8828 97.2403 74.7734C96.8497 74.6589 96.4512 74.6016 96.045 74.6016C95.571 74.6016 95.2091 74.6745 94.9591 74.8203C94.7143 74.9661 94.5919 75.1745 94.5919 75.4453C94.5919 75.6484 94.6518 75.8203 94.7716 75.9609C94.8914 76.1016 95.0971 76.2422 95.3887 76.3828C95.6856 76.5234 96.0971 76.6979 96.6231 76.9062C97.1387 77.1042 97.5841 77.3125 97.9591 77.5312C98.3393 77.7448 98.6309 78.0078 98.8341 78.3203C99.0372 78.6328 99.1387 79.0365 99.1387 79.5312ZM106.92 79.5312C106.92 80.099 106.782 80.5781 106.506 80.9688C106.23 81.3594 105.826 81.6562 105.295 81.8594C104.769 82.0573 104.123 82.1562 103.357 82.1562C102.753 82.1562 102.232 82.112 101.795 82.0234C101.362 81.9401 100.953 81.8099 100.568 81.6328V80.0469C100.98 80.2396 101.44 80.4062 101.951 80.5469C102.466 80.6875 102.953 80.7578 103.412 80.7578C104.016 80.7578 104.451 80.6641 104.716 80.4766C104.982 80.2839 105.115 80.0286 105.115 79.7109C105.115 79.5234 105.06 79.3568 104.951 79.2109C104.847 79.0599 104.649 78.9062 104.357 78.75C104.071 78.5885 103.649 78.3958 103.091 78.1719C102.545 77.9531 102.084 77.7344 101.709 77.5156C101.334 77.2969 101.05 77.0339 100.857 76.7266C100.664 76.4141 100.568 76.0156 100.568 75.5312C100.568 74.7656 100.87 74.1849 101.474 73.7891C102.084 73.388 102.888 73.1875 103.888 73.1875C104.42 73.1875 104.92 73.2422 105.388 73.3516C105.862 73.4557 106.326 73.6094 106.779 73.8125L106.201 75.1953C105.81 75.0234 105.417 74.8828 105.021 74.7734C104.631 74.6589 104.232 74.6016 103.826 74.6016C103.352 74.6016 102.99 74.6745 102.74 74.8203C102.495 74.9661 102.373 75.1745 102.373 75.4453C102.373 75.6484 102.433 75.8203 102.552 75.9609C102.672 76.1016 102.878 76.2422 103.17 76.3828C103.466 76.5234 103.878 76.6979 104.404 76.9062C104.92 77.1042 105.365 77.3125 105.74 77.5312C106.12 77.7448 106.412 78.0078 106.615 78.3203C106.818 78.6328 106.92 79.0365 106.92 79.5312ZM122.802 73.1875C123.77 73.1875 124.5 73.4375 124.989 73.9375C125.484 74.4375 125.731 75.2396 125.731 76.3438V82H123.895V76.6719C123.895 76.0156 123.768 75.5208 123.513 75.1875C123.257 74.8542 122.869 74.6875 122.349 74.6875C121.619 74.6875 121.093 74.9219 120.77 75.3906C120.453 75.8542 120.294 76.5286 120.294 77.4141V82H118.458V76.6719C118.458 76.2344 118.401 75.8698 118.286 75.5781C118.177 75.2812 118.007 75.0599 117.778 74.9141C117.549 74.763 117.26 74.6875 116.911 74.6875C116.406 74.6875 116.002 74.8021 115.7 75.0312C115.403 75.2604 115.19 75.599 115.06 76.0469C114.929 76.4896 114.864 77.0339 114.864 77.6797V82H113.028V73.3516H114.458L114.716 74.5156H114.817C114.994 74.2135 115.213 73.9661 115.474 73.7734C115.739 73.5755 116.033 73.4297 116.356 73.3359C116.679 73.237 117.015 73.1875 117.364 73.1875C118.01 73.1875 118.554 73.3021 118.997 73.5312C119.44 73.7552 119.77 74.099 119.989 74.5625H120.13C120.401 74.0938 120.778 73.7474 121.263 73.5234C121.747 73.2995 122.26 73.1875 122.802 73.1875ZM131.723 73.1875C132.494 73.1875 133.155 73.3464 133.708 73.6641C134.26 73.9818 134.684 74.4323 134.981 75.0156C135.278 75.599 135.426 76.2969 135.426 77.1094V78.0938H129.653C129.674 78.9323 129.898 79.5781 130.325 80.0312C130.757 80.4844 131.361 80.7109 132.137 80.7109C132.689 80.7109 133.184 80.6589 133.622 80.5547C134.064 80.4453 134.52 80.2865 134.989 80.0781V81.5703C134.557 81.7734 134.116 81.9219 133.669 82.0156C133.221 82.1094 132.684 82.1562 132.059 82.1562C131.21 82.1562 130.463 81.9922 129.817 81.6641C129.176 81.3307 128.674 80.8359 128.309 80.1797C127.95 79.5234 127.77 78.7083 127.77 77.7344C127.77 76.7656 127.934 75.9427 128.262 75.2656C128.59 74.5885 129.051 74.0729 129.645 73.7188C130.239 73.3646 130.932 73.1875 131.723 73.1875ZM131.723 74.5703C131.145 74.5703 130.676 74.7578 130.317 75.1328C129.963 75.5078 129.754 76.0573 129.692 76.7812H133.629C133.624 76.349 133.551 75.9661 133.411 75.6328C133.275 75.2995 133.067 75.0391 132.786 74.8516C132.51 74.6641 132.155 74.5703 131.723 74.5703ZM143.293 79.5312C143.293 80.099 143.155 80.5781 142.879 80.9688C142.603 81.3594 142.199 81.6562 141.668 81.8594C141.142 82.0573 140.496 82.1562 139.731 82.1562C139.126 82.1562 138.606 82.112 138.168 82.0234C137.736 81.9401 137.327 81.8099 136.942 81.6328V80.0469C137.353 80.2396 137.814 80.4062 138.324 80.5469C138.84 80.6875 139.327 80.7578 139.785 80.7578C140.389 80.7578 140.824 80.6641 141.09 80.4766C141.356 80.2839 141.488 80.0286 141.488 79.7109C141.488 79.5234 141.434 79.3568 141.324 79.2109C141.22 79.0599 141.022 78.9062 140.731 78.75C140.444 78.5885 140.022 78.3958 139.465 78.1719C138.918 77.9531 138.457 77.7344 138.082 77.5156C137.707 77.2969 137.423 77.0339 137.231 76.7266C137.038 76.4141 136.942 76.0156 136.942 75.5312C136.942 74.7656 137.244 74.1849 137.848 73.7891C138.457 73.388 139.262 73.1875 140.262 73.1875C140.793 73.1875 141.293 73.2422 141.762 73.3516C142.236 73.4557 142.699 73.6094 143.152 73.8125L142.574 75.1953C142.184 75.0234 141.791 74.8828 141.395 74.7734C141.004 74.6589 140.606 74.6016 140.199 74.6016C139.725 74.6016 139.363 74.6745 139.113 74.8203C138.869 74.9661 138.746 75.1745 138.746 75.4453C138.746 75.6484 138.806 75.8203 138.926 75.9609C139.046 76.1016 139.251 76.2422 139.543 76.3828C139.84 76.5234 140.251 76.6979 140.777 76.9062C141.293 77.1042 141.738 77.3125 142.113 77.5312C142.494 77.7448 142.785 78.0078 142.988 78.3203C143.192 78.6328 143.293 79.0365 143.293 79.5312ZM151.074 79.5312C151.074 80.099 150.936 80.5781 150.66 80.9688C150.384 81.3594 149.98 81.6562 149.449 81.8594C148.923 82.0573 148.277 82.1562 147.511 82.1562C146.907 82.1562 146.386 82.112 145.949 82.0234C145.517 81.9401 145.108 81.8099 144.722 81.6328V80.0469C145.134 80.2396 145.595 80.4062 146.105 80.5469C146.621 80.6875 147.108 80.7578 147.566 80.7578C148.17 80.7578 148.605 80.6641 148.871 80.4766C149.136 80.2839 149.269 80.0286 149.269 79.7109C149.269 79.5234 149.215 79.3568 149.105 79.2109C149.001 79.0599 148.803 78.9062 148.511 78.75C148.225 78.5885 147.803 78.3958 147.246 78.1719C146.699 77.9531 146.238 77.7344 145.863 77.5156C145.488 77.2969 145.204 77.0339 145.011 76.7266C144.819 76.4141 144.722 76.0156 144.722 75.5312C144.722 74.7656 145.025 74.1849 145.629 73.7891C146.238 73.388 147.043 73.1875 148.043 73.1875C148.574 73.1875 149.074 73.2422 149.543 73.3516C150.017 73.4557 150.48 73.6094 150.933 73.8125L150.355 75.1953C149.965 75.0234 149.571 74.8828 149.176 74.7734C148.785 74.6589 148.386 74.6016 147.98 74.6016C147.506 74.6016 147.144 74.6745 146.894 74.8203C146.65 74.9661 146.527 75.1745 146.527 75.4453C146.527 75.6484 146.587 75.8203 146.707 75.9609C146.827 76.1016 147.032 76.2422 147.324 76.3828C147.621 76.5234 148.032 76.6979 148.558 76.9062C149.074 77.1042 149.519 77.3125 149.894 77.5312C150.275 77.7448 150.566 78.0078 150.769 78.3203C150.972 78.6328 151.074 79.0365 151.074 79.5312ZM156.433 73.1875C157.527 73.1875 158.352 73.4297 158.91 73.9141C159.472 74.3984 159.753 75.1536 159.753 76.1797V82H158.449L158.097 80.7734H158.035C157.79 81.0859 157.537 81.3438 157.277 81.5469C157.016 81.75 156.714 81.901 156.37 82C156.032 82.1042 155.618 82.1562 155.128 82.1562C154.613 82.1562 154.152 82.0625 153.745 81.875C153.339 81.6823 153.019 81.3906 152.785 81C152.55 80.6094 152.433 80.1146 152.433 79.5156C152.433 78.625 152.764 77.9557 153.425 77.5078C154.092 77.0599 155.097 76.8125 156.441 76.7656L157.941 76.7109V76.2578C157.941 75.6589 157.8 75.2318 157.519 74.9766C157.243 74.7214 156.852 74.5938 156.347 74.5938C155.915 74.5938 155.495 74.6562 155.089 74.7812C154.683 74.9062 154.287 75.0599 153.902 75.2422L153.308 73.9453C153.73 73.7214 154.209 73.5391 154.745 73.3984C155.287 73.2578 155.85 73.1875 156.433 73.1875ZM157.933 77.8672L156.816 77.9062C155.899 77.9375 155.256 78.0938 154.886 78.375C154.516 78.6562 154.331 79.0417 154.331 79.5312C154.331 79.9583 154.459 80.2708 154.714 80.4688C154.969 80.6615 155.305 80.7578 155.722 80.7578C156.357 80.7578 156.884 80.5781 157.3 80.2188C157.722 79.8542 157.933 79.3203 157.933 78.6172V77.8672ZM164.776 85.8438C163.604 85.8438 162.706 85.6328 162.081 85.2109C161.456 84.7891 161.144 84.1979 161.144 83.4375C161.144 82.9062 161.31 82.4557 161.644 82.0859C161.977 81.7214 162.453 81.4688 163.073 81.3281C162.839 81.224 162.636 81.0625 162.464 80.8438C162.297 80.6198 162.214 80.3724 162.214 80.1016C162.214 79.7786 162.305 79.5026 162.487 79.2734C162.67 79.0443 162.943 78.8229 163.308 78.6094C162.854 78.4167 162.49 78.1042 162.214 77.6719C161.943 77.2344 161.808 76.7214 161.808 76.1328C161.808 75.5078 161.94 74.9766 162.206 74.5391C162.472 74.0964 162.86 73.7604 163.37 73.5312C163.881 73.2969 164.498 73.1797 165.222 73.1797C165.378 73.1797 165.547 73.1901 165.729 73.2109C165.917 73.2266 166.089 73.2474 166.245 73.2734C166.407 73.2943 166.529 73.3177 166.612 73.3438H169.604V74.3672L168.136 74.6406C168.276 74.8385 168.388 75.0651 168.472 75.3203C168.555 75.5703 168.597 75.8438 168.597 76.1406C168.597 77.0365 168.287 77.7422 167.667 78.2578C167.052 78.7682 166.203 79.0234 165.12 79.0234C164.86 79.013 164.607 78.9922 164.362 78.9609C164.175 79.0755 164.032 79.2031 163.933 79.3438C163.834 79.4792 163.784 79.6328 163.784 79.8047C163.784 79.9453 163.834 80.0599 163.933 80.1484C164.032 80.2318 164.177 80.2943 164.37 80.3359C164.568 80.3776 164.808 80.3984 165.089 80.3984H166.581C167.529 80.3984 168.253 80.599 168.753 81C169.253 81.401 169.503 81.9896 169.503 82.7656C169.503 83.75 169.097 84.5078 168.284 85.0391C167.472 85.5755 166.302 85.8438 164.776 85.8438ZM164.847 84.5547C165.487 84.5547 166.026 84.4922 166.464 84.3672C166.901 84.2422 167.232 84.0625 167.456 83.8281C167.68 83.599 167.792 83.3255 167.792 83.0078C167.792 82.7266 167.722 82.5104 167.581 82.3594C167.44 82.2083 167.229 82.1042 166.948 82.0469C166.667 81.9896 166.318 81.9609 165.901 81.9609H164.542C164.203 81.9609 163.904 82.013 163.644 82.1172C163.383 82.2266 163.18 82.3828 163.034 82.5859C162.894 82.7891 162.823 83.0339 162.823 83.3203C162.823 83.7161 162.998 84.0208 163.347 84.2344C163.701 84.4479 164.201 84.5547 164.847 84.5547ZM165.206 77.8203C165.743 77.8203 166.141 77.6745 166.401 77.3828C166.662 77.0859 166.792 76.6693 166.792 76.1328C166.792 75.5495 166.657 75.112 166.386 74.8203C166.12 74.5286 165.724 74.3828 165.198 74.3828C164.683 74.3828 164.289 74.5312 164.019 74.8281C163.753 75.125 163.62 75.5651 163.62 76.1484C163.62 76.6745 163.753 77.0859 164.019 77.3828C164.289 77.6745 164.685 77.8203 165.206 77.8203ZM174.612 73.1875C175.383 73.1875 176.044 73.3464 176.596 73.6641C177.148 73.9818 177.573 74.4323 177.87 75.0156C178.167 75.599 178.315 76.2969 178.315 77.1094V78.0938H172.542C172.562 78.9323 172.786 79.5781 173.214 80.0312C173.646 80.4844 174.25 80.7109 175.026 80.7109C175.578 80.7109 176.073 80.6589 176.51 80.5547C176.953 80.4453 177.409 80.2865 177.878 80.0781V81.5703C177.445 81.7734 177.005 81.9219 176.557 82.0156C176.109 82.1094 175.573 82.1562 174.948 82.1562C174.099 82.1562 173.352 81.9922 172.706 81.6641C172.065 81.3307 171.562 80.8359 171.198 80.1797C170.839 79.5234 170.659 78.7083 170.659 77.7344C170.659 76.7656 170.823 75.9427 171.151 75.2656C171.479 74.5885 171.94 74.0729 172.534 73.7188C173.128 73.3646 173.82 73.1875 174.612 73.1875ZM174.612 74.5703C174.034 74.5703 173.565 74.7578 173.206 75.1328C172.852 75.5078 172.643 76.0573 172.581 76.7812H176.518C176.513 76.349 176.44 75.9661 176.299 75.6328C176.164 75.2995 175.956 75.0391 175.674 74.8516C175.398 74.6641 175.044 74.5703 174.612 74.5703ZM180.104 81.0312C180.104 80.6042 180.213 80.3047 180.432 80.1328C180.656 79.9557 180.927 79.8672 181.244 79.8672C181.562 79.8672 181.833 79.9557 182.057 80.1328C182.286 80.3047 182.401 80.6042 182.401 81.0312C182.401 81.4479 182.286 81.75 182.057 81.9375C181.833 82.1198 181.562 82.2109 181.244 82.2109C180.927 82.2109 180.656 82.1198 180.432 81.9375C180.213 81.75 180.104 81.4479 180.104 81.0312Z" fill="#317159"/>
</g>
<path d="M52.4365 107H51.2676V98.0312H48.123V97.0059H55.5674V98.0312H52.4365V107ZM58.042 96.3633V99.542C58.042 99.7243 58.0374 99.9089 58.0283 100.096C58.0192 100.278 58.0033 100.447 57.9805 100.602H58.0557C58.2106 100.337 58.4066 100.116 58.6436 99.9385C58.8851 99.7562 59.1585 99.6195 59.4639 99.5283C59.7692 99.4326 60.0928 99.3848 60.4346 99.3848C61.0361 99.3848 61.5374 99.4805 61.9385 99.6719C62.3441 99.8633 62.6471 100.16 62.8477 100.561C63.0527 100.962 63.1553 101.481 63.1553 102.119V107H62.0342V102.194C62.0342 101.57 61.8906 101.103 61.6035 100.793C61.321 100.483 60.8857 100.328 60.2979 100.328C59.7419 100.328 59.2975 100.435 58.9648 100.649C58.6367 100.859 58.3997 101.169 58.2539 101.579C58.1126 101.989 58.042 102.491 58.042 103.083V107H56.9072V96.3633H58.042ZM66.6279 99.5078V107H65.4932V99.5078H66.6279ZM66.0742 96.7051C66.2611 96.7051 66.4206 96.7666 66.5527 96.8896C66.6895 97.0081 66.7578 97.195 66.7578 97.4502C66.7578 97.7008 66.6895 97.8877 66.5527 98.0107C66.4206 98.1338 66.2611 98.1953 66.0742 98.1953C65.8783 98.1953 65.7142 98.1338 65.582 98.0107C65.4544 97.8877 65.3906 97.7008 65.3906 97.4502C65.3906 97.195 65.4544 97.0081 65.582 96.8896C65.7142 96.7666 65.8783 96.7051 66.0742 96.7051ZM73.8809 104.949C73.8809 105.428 73.7601 105.831 73.5186 106.159C73.2816 106.483 72.9398 106.727 72.4932 106.891C72.0511 107.055 71.5225 107.137 70.9072 107.137C70.3831 107.137 69.9297 107.096 69.5469 107.014C69.1641 106.932 68.8291 106.815 68.542 106.665V105.619C68.8473 105.77 69.2119 105.906 69.6357 106.029C70.0596 106.152 70.4925 106.214 70.9346 106.214C71.5817 106.214 72.0511 106.109 72.3428 105.899C72.6344 105.69 72.7803 105.405 72.7803 105.045C72.7803 104.84 72.721 104.66 72.6025 104.505C72.4886 104.345 72.2949 104.193 72.0215 104.047C71.748 103.896 71.3698 103.732 70.8867 103.555C70.4082 103.372 69.9935 103.192 69.6426 103.015C69.2962 102.832 69.0273 102.611 68.8359 102.352C68.6491 102.092 68.5557 101.755 68.5557 101.34C68.5557 100.706 68.8109 100.221 69.3213 99.8838C69.8363 99.542 70.5107 99.3711 71.3447 99.3711C71.7959 99.3711 72.2174 99.4167 72.6094 99.5078C73.0059 99.5944 73.375 99.7129 73.7168 99.8633L73.334 100.772C73.0241 100.64 72.6937 100.529 72.3428 100.438C71.9919 100.346 71.6341 100.301 71.2695 100.301C70.7454 100.301 70.3421 100.387 70.0596 100.561C69.7816 100.734 69.6426 100.971 69.6426 101.271C69.6426 101.504 69.7064 101.695 69.834 101.846C69.9661 101.996 70.1758 102.137 70.4629 102.27C70.75 102.402 71.1283 102.557 71.5977 102.734C72.0671 102.908 72.4727 103.088 72.8145 103.274C73.1562 103.457 73.4183 103.68 73.6006 103.944C73.7874 104.204 73.8809 104.539 73.8809 104.949ZM87.4775 99.3711C88.3024 99.3711 88.9245 99.5876 89.3438 100.021C89.763 100.449 89.9727 101.139 89.9727 102.092V107H88.8516V102.146C88.8516 101.54 88.7194 101.087 88.4551 100.786C88.1953 100.481 87.8079 100.328 87.293 100.328C86.5684 100.328 86.042 100.538 85.7139 100.957C85.3857 101.376 85.2217 101.994 85.2217 102.81V107H84.0938V102.146C84.0938 101.741 84.0345 101.404 83.916 101.135C83.8021 100.866 83.6289 100.665 83.3965 100.533C83.1686 100.396 82.8792 100.328 82.5283 100.328C82.0316 100.328 81.6328 100.431 81.332 100.636C81.0312 100.841 80.8125 101.146 80.6758 101.552C80.5436 101.953 80.4775 102.447 80.4775 103.035V107H79.3428V99.5078H80.2588L80.4297 100.567H80.4912C80.6416 100.308 80.8307 100.089 81.0586 99.9111C81.2865 99.7334 81.5417 99.599 81.8242 99.5078C82.1068 99.4167 82.4076 99.3711 82.7266 99.3711C83.2962 99.3711 83.7725 99.4782 84.1553 99.6924C84.5426 99.902 84.8229 100.223 84.9961 100.656H85.0576C85.3037 100.223 85.641 99.902 86.0693 99.6924C86.4977 99.4782 86.9671 99.3711 87.4775 99.3711ZM95.1885 99.3711C95.8265 99.3711 96.3734 99.5124 96.8291 99.7949C97.2848 100.077 97.6335 100.474 97.875 100.984C98.1165 101.49 98.2373 102.083 98.2373 102.762V103.466H93.0625C93.0762 104.345 93.2949 105.015 93.7188 105.476C94.1426 105.936 94.7396 106.166 95.5098 106.166C95.9837 106.166 96.403 106.123 96.7676 106.036C97.1322 105.95 97.5104 105.822 97.9023 105.653V106.651C97.5241 106.82 97.1481 106.943 96.7744 107.021C96.4053 107.098 95.9678 107.137 95.4619 107.137C94.7419 107.137 94.113 106.991 93.5752 106.699C93.042 106.403 92.6273 105.97 92.3311 105.4C92.0348 104.831 91.8867 104.133 91.8867 103.309C91.8867 102.502 92.0212 101.805 92.29 101.217C92.5635 100.624 92.9463 100.169 93.4385 99.8496C93.9352 99.5306 94.5186 99.3711 95.1885 99.3711ZM95.1748 100.301C94.5687 100.301 94.0856 100.499 93.7256 100.896C93.3656 101.292 93.1514 101.846 93.083 102.557H97.0479C97.0433 102.11 96.9727 101.718 96.8359 101.381C96.7038 101.039 96.501 100.775 96.2275 100.588C95.9541 100.396 95.6032 100.301 95.1748 100.301ZM105.012 104.949C105.012 105.428 104.891 105.831 104.649 106.159C104.412 106.483 104.071 106.727 103.624 106.891C103.182 107.055 102.653 107.137 102.038 107.137C101.514 107.137 101.061 107.096 100.678 107.014C100.295 106.932 99.96 106.815 99.6729 106.665V105.619C99.9782 105.77 100.343 105.906 100.767 106.029C101.19 106.152 101.623 106.214 102.065 106.214C102.713 106.214 103.182 106.109 103.474 105.899C103.765 105.69 103.911 105.405 103.911 105.045C103.911 104.84 103.852 104.66 103.733 104.505C103.619 104.345 103.426 104.193 103.152 104.047C102.879 103.896 102.501 103.732 102.018 103.555C101.539 103.372 101.124 103.192 100.773 103.015C100.427 102.832 100.158 102.611 99.9668 102.352C99.7799 102.092 99.6865 101.755 99.6865 101.34C99.6865 100.706 99.9417 100.221 100.452 99.8838C100.967 99.542 101.642 99.3711 102.476 99.3711C102.927 99.3711 103.348 99.4167 103.74 99.5078C104.137 99.5944 104.506 99.7129 104.848 99.8633L104.465 100.772C104.155 100.64 103.825 100.529 103.474 100.438C103.123 100.346 102.765 100.301 102.4 100.301C101.876 100.301 101.473 100.387 101.19 100.561C100.912 100.734 100.773 100.971 100.773 101.271C100.773 101.504 100.837 101.695 100.965 101.846C101.097 101.996 101.307 102.137 101.594 102.27C101.881 102.402 102.259 102.557 102.729 102.734C103.198 102.908 103.604 103.088 103.945 103.274C104.287 103.457 104.549 103.68 104.731 103.944C104.918 104.204 105.012 104.539 105.012 104.949ZM111.684 104.949C111.684 105.428 111.563 105.831 111.321 106.159C111.084 106.483 110.743 106.727 110.296 106.891C109.854 107.055 109.325 107.137 108.71 107.137C108.186 107.137 107.732 107.096 107.35 107.014C106.967 106.932 106.632 106.815 106.345 106.665V105.619C106.65 105.77 107.015 105.906 107.438 106.029C107.862 106.152 108.295 106.214 108.737 106.214C109.384 106.214 109.854 106.109 110.146 105.899C110.437 105.69 110.583 105.405 110.583 105.045C110.583 104.84 110.524 104.66 110.405 104.505C110.291 104.345 110.098 104.193 109.824 104.047C109.551 103.896 109.173 103.732 108.689 103.555C108.211 103.372 107.796 103.192 107.445 103.015C107.099 102.832 106.83 102.611 106.639 102.352C106.452 102.092 106.358 101.755 106.358 101.34C106.358 100.706 106.614 100.221 107.124 99.8838C107.639 99.542 108.313 99.3711 109.147 99.3711C109.599 99.3711 110.02 99.4167 110.412 99.5078C110.809 99.5944 111.178 99.7129 111.52 99.8633L111.137 100.772C110.827 100.64 110.496 100.529 110.146 100.438C109.795 100.346 109.437 100.301 109.072 100.301C108.548 100.301 108.145 100.387 107.862 100.561C107.584 100.734 107.445 100.971 107.445 101.271C107.445 101.504 107.509 101.695 107.637 101.846C107.769 101.996 107.979 102.137 108.266 102.27C108.553 102.402 108.931 102.557 109.4 102.734C109.87 102.908 110.275 103.088 110.617 103.274C110.959 103.457 111.221 103.68 111.403 103.944C111.59 104.204 111.684 104.539 111.684 104.949ZM116.312 99.3848C117.205 99.3848 117.868 99.5853 118.301 99.9863C118.734 100.387 118.95 101.028 118.95 101.907V107H118.123L117.904 105.893H117.85C117.64 106.166 117.421 106.396 117.193 106.583C116.965 106.765 116.701 106.904 116.4 107C116.104 107.091 115.74 107.137 115.307 107.137C114.851 107.137 114.445 107.057 114.09 106.897C113.739 106.738 113.461 106.496 113.256 106.173C113.055 105.849 112.955 105.439 112.955 104.942C112.955 104.195 113.251 103.621 113.844 103.22C114.436 102.819 115.339 102.6 116.551 102.563L117.843 102.509V102.051C117.843 101.404 117.704 100.95 117.426 100.69C117.148 100.431 116.756 100.301 116.25 100.301C115.858 100.301 115.484 100.358 115.129 100.472C114.773 100.586 114.436 100.72 114.117 100.875L113.769 100.014C114.106 99.8405 114.493 99.6924 114.931 99.5693C115.368 99.4463 115.828 99.3848 116.312 99.3848ZM117.829 103.309L116.688 103.356C115.753 103.393 115.095 103.546 114.712 103.814C114.329 104.083 114.138 104.464 114.138 104.956C114.138 105.384 114.268 105.701 114.527 105.906C114.787 106.111 115.131 106.214 115.56 106.214C116.225 106.214 116.77 106.029 117.193 105.66C117.617 105.291 117.829 104.737 117.829 103.999V103.309ZM123.38 110.363C122.396 110.363 121.637 110.179 121.104 109.81C120.57 109.445 120.304 108.932 120.304 108.271C120.304 107.802 120.452 107.401 120.748 107.068C121.049 106.736 121.464 106.515 121.992 106.405C121.796 106.314 121.628 106.177 121.486 105.995C121.35 105.813 121.281 105.603 121.281 105.366C121.281 105.093 121.356 104.854 121.507 104.648C121.662 104.439 121.896 104.238 122.211 104.047C121.819 103.887 121.5 103.618 121.254 103.24C121.012 102.857 120.892 102.413 120.892 101.907C120.892 101.369 121.003 100.911 121.227 100.533C121.45 100.15 121.773 99.8587 122.197 99.6582C122.621 99.4577 123.134 99.3574 123.735 99.3574C123.868 99.3574 124 99.3643 124.132 99.3779C124.269 99.387 124.398 99.403 124.521 99.4258C124.645 99.444 124.752 99.4668 124.843 99.4941H127.413V100.226L126.032 100.396C126.169 100.574 126.283 100.788 126.374 101.039C126.465 101.29 126.511 101.568 126.511 101.873C126.511 102.62 126.258 103.215 125.752 103.657C125.246 104.095 124.551 104.313 123.667 104.313C123.457 104.313 123.243 104.295 123.024 104.259C122.801 104.382 122.63 104.519 122.512 104.669C122.398 104.819 122.341 104.993 122.341 105.188C122.341 105.334 122.384 105.451 122.471 105.537C122.562 105.624 122.692 105.688 122.86 105.729C123.029 105.765 123.232 105.783 123.469 105.783H124.788C125.604 105.783 126.228 105.954 126.661 106.296C127.099 106.638 127.317 107.137 127.317 107.793C127.317 108.622 126.98 109.258 126.306 109.7C125.631 110.142 124.656 110.363 123.38 110.363ZM123.414 109.475C124.034 109.475 124.547 109.411 124.952 109.283C125.362 109.16 125.668 108.98 125.868 108.743C126.073 108.511 126.176 108.233 126.176 107.909C126.176 107.608 126.107 107.381 125.971 107.226C125.834 107.075 125.633 106.975 125.369 106.925C125.105 106.87 124.781 106.843 124.398 106.843H123.1C122.762 106.843 122.468 106.895 122.218 107C121.967 107.105 121.773 107.26 121.637 107.465C121.505 107.67 121.438 107.925 121.438 108.23C121.438 108.636 121.609 108.944 121.951 109.153C122.293 109.368 122.781 109.475 123.414 109.475ZM123.708 103.486C124.25 103.486 124.658 103.35 124.932 103.076C125.205 102.803 125.342 102.404 125.342 101.88C125.342 101.319 125.203 100.9 124.925 100.622C124.647 100.34 124.237 100.198 123.694 100.198C123.175 100.198 122.774 100.344 122.491 100.636C122.213 100.923 122.074 101.344 122.074 101.9C122.074 102.411 122.215 102.803 122.498 103.076C122.781 103.35 123.184 103.486 123.708 103.486ZM131.774 99.3711C132.412 99.3711 132.959 99.5124 133.415 99.7949C133.871 100.077 134.219 100.474 134.461 100.984C134.702 101.49 134.823 102.083 134.823 102.762V103.466H129.648C129.662 104.345 129.881 105.015 130.305 105.476C130.729 105.936 131.326 106.166 132.096 106.166C132.57 106.166 132.989 106.123 133.354 106.036C133.718 105.95 134.096 105.822 134.488 105.653V106.651C134.11 106.82 133.734 106.943 133.36 107.021C132.991 107.098 132.554 107.137 132.048 107.137C131.328 107.137 130.699 106.991 130.161 106.699C129.628 106.403 129.213 105.97 128.917 105.4C128.621 104.831 128.473 104.133 128.473 103.309C128.473 102.502 128.607 101.805 128.876 101.217C129.149 100.624 129.532 100.169 130.024 99.8496C130.521 99.5306 131.104 99.3711 131.774 99.3711ZM131.761 100.301C131.155 100.301 130.672 100.499 130.312 100.896C129.951 101.292 129.737 101.846 129.669 102.557H133.634C133.629 102.11 133.559 101.718 133.422 101.381C133.29 101.039 133.087 100.775 132.813 100.588C132.54 100.396 132.189 100.301 131.761 100.301ZM143.19 99.3848C144.084 99.3848 144.747 99.5853 145.18 99.9863C145.613 100.387 145.829 101.028 145.829 101.907V107H145.002L144.783 105.893H144.729C144.519 106.166 144.3 106.396 144.072 106.583C143.844 106.765 143.58 106.904 143.279 107C142.983 107.091 142.618 107.137 142.186 107.137C141.73 107.137 141.324 107.057 140.969 106.897C140.618 106.738 140.34 106.496 140.135 106.173C139.934 105.849 139.834 105.439 139.834 104.942C139.834 104.195 140.13 103.621 140.723 103.22C141.315 102.819 142.217 102.6 143.43 102.563L144.722 102.509V102.051C144.722 101.404 144.583 100.95 144.305 100.69C144.027 100.431 143.635 100.301 143.129 100.301C142.737 100.301 142.363 100.358 142.008 100.472C141.652 100.586 141.315 100.72 140.996 100.875L140.647 100.014C140.985 99.8405 141.372 99.6924 141.81 99.5693C142.247 99.4463 142.707 99.3848 143.19 99.3848ZM144.708 103.309L143.566 103.356C142.632 103.393 141.974 103.546 141.591 103.814C141.208 104.083 141.017 104.464 141.017 104.956C141.017 105.384 141.146 105.701 141.406 105.906C141.666 106.111 142.01 106.214 142.438 106.214C143.104 106.214 143.648 106.029 144.072 105.66C144.496 105.291 144.708 104.737 144.708 103.999V103.309ZM151.688 99.3711C152.622 99.3711 153.367 99.6924 153.923 100.335C154.479 100.978 154.757 101.944 154.757 103.233C154.757 104.086 154.629 104.801 154.374 105.38C154.119 105.959 153.759 106.396 153.294 106.692C152.834 106.989 152.289 107.137 151.66 107.137C151.264 107.137 150.915 107.084 150.614 106.979C150.313 106.875 150.056 106.733 149.842 106.556C149.628 106.378 149.45 106.184 149.309 105.975H149.227C149.24 106.152 149.256 106.367 149.274 106.617C149.297 106.868 149.309 107.087 149.309 107.273V110.35H148.167V99.5078H149.104L149.254 100.615H149.309C149.454 100.387 149.632 100.18 149.842 99.9932C150.051 99.8018 150.307 99.6514 150.607 99.542C150.913 99.4281 151.273 99.3711 151.688 99.3711ZM151.489 100.328C150.97 100.328 150.55 100.428 150.231 100.629C149.917 100.829 149.687 101.13 149.541 101.531C149.395 101.928 149.318 102.427 149.309 103.028V103.247C149.309 103.881 149.377 104.416 149.514 104.854C149.655 105.291 149.885 105.624 150.204 105.852C150.528 106.079 150.961 106.193 151.503 106.193C151.968 106.193 152.355 106.068 152.665 105.817C152.975 105.567 153.205 105.218 153.355 104.771C153.51 104.32 153.588 103.803 153.588 103.22C153.588 102.336 153.415 101.634 153.068 101.114C152.727 100.59 152.2 100.328 151.489 100.328ZM160.26 99.3711C161.194 99.3711 161.939 99.6924 162.495 100.335C163.051 100.978 163.329 101.944 163.329 103.233C163.329 104.086 163.201 104.801 162.946 105.38C162.691 105.959 162.331 106.396 161.866 106.692C161.406 106.989 160.861 107.137 160.232 107.137C159.836 107.137 159.487 107.084 159.187 106.979C158.886 106.875 158.628 106.733 158.414 106.556C158.2 106.378 158.022 106.184 157.881 105.975H157.799C157.812 106.152 157.828 106.367 157.847 106.617C157.869 106.868 157.881 107.087 157.881 107.273V110.35H156.739V99.5078H157.676L157.826 100.615H157.881C158.027 100.387 158.204 100.18 158.414 99.9932C158.624 99.8018 158.879 99.6514 159.18 99.542C159.485 99.4281 159.845 99.3711 160.26 99.3711ZM160.062 100.328C159.542 100.328 159.123 100.428 158.804 100.629C158.489 100.829 158.259 101.13 158.113 101.531C157.967 101.928 157.89 102.427 157.881 103.028V103.247C157.881 103.881 157.949 104.416 158.086 104.854C158.227 105.291 158.457 105.624 158.776 105.852C159.1 106.079 159.533 106.193 160.075 106.193C160.54 106.193 160.927 106.068 161.237 105.817C161.547 105.567 161.777 105.218 161.928 104.771C162.083 104.32 162.16 103.803 162.16 103.22C162.16 102.336 161.987 101.634 161.641 101.114C161.299 100.59 160.772 100.328 160.062 100.328ZM168.196 99.3711C168.834 99.3711 169.381 99.5124 169.837 99.7949C170.293 100.077 170.641 100.474 170.883 100.984C171.124 101.49 171.245 102.083 171.245 102.762V103.466H166.07C166.084 104.345 166.303 105.015 166.727 105.476C167.15 105.936 167.747 106.166 168.518 106.166C168.992 106.166 169.411 106.123 169.775 106.036C170.14 105.95 170.518 105.822 170.91 105.653V106.651C170.532 106.82 170.156 106.943 169.782 107.021C169.413 107.098 168.976 107.137 168.47 107.137C167.75 107.137 167.121 106.991 166.583 106.699C166.05 106.403 165.635 105.97 165.339 105.4C165.043 104.831 164.895 104.133 164.895 103.309C164.895 102.502 165.029 101.805 165.298 101.217C165.571 100.624 165.954 100.169 166.446 99.8496C166.943 99.5306 167.526 99.3711 168.196 99.3711ZM168.183 100.301C167.576 100.301 167.093 100.499 166.733 100.896C166.373 101.292 166.159 101.846 166.091 102.557H170.056C170.051 102.11 169.98 101.718 169.844 101.381C169.712 101.039 169.509 100.775 169.235 100.588C168.962 100.396 168.611 100.301 168.183 100.301ZM175.976 99.3848C176.869 99.3848 177.532 99.5853 177.965 99.9863C178.398 100.387 178.614 101.028 178.614 101.907V107H177.787L177.568 105.893H177.514C177.304 106.166 177.085 106.396 176.857 106.583C176.63 106.765 176.365 106.904 176.064 107C175.768 107.091 175.404 107.137 174.971 107.137C174.515 107.137 174.109 107.057 173.754 106.897C173.403 106.738 173.125 106.496 172.92 106.173C172.719 105.849 172.619 105.439 172.619 104.942C172.619 104.195 172.915 103.621 173.508 103.22C174.1 102.819 175.003 102.6 176.215 102.563L177.507 102.509V102.051C177.507 101.404 177.368 100.95 177.09 100.69C176.812 100.431 176.42 100.301 175.914 100.301C175.522 100.301 175.148 100.358 174.793 100.472C174.438 100.586 174.1 100.72 173.781 100.875L173.433 100.014C173.77 99.8405 174.157 99.6924 174.595 99.5693C175.032 99.4463 175.493 99.3848 175.976 99.3848ZM177.493 103.309L176.352 103.356C175.417 103.393 174.759 103.546 174.376 103.814C173.993 104.083 173.802 104.464 173.802 104.956C173.802 105.384 173.932 105.701 174.191 105.906C174.451 106.111 174.795 106.214 175.224 106.214C175.889 106.214 176.434 106.029 176.857 105.66C177.281 105.291 177.493 104.737 177.493 103.999V103.309ZM184.356 99.3711C184.507 99.3711 184.664 99.3802 184.828 99.3984C184.992 99.4121 185.138 99.4326 185.266 99.46L185.122 100.513C184.999 100.481 184.862 100.456 184.712 100.438C184.562 100.419 184.42 100.41 184.288 100.41C183.987 100.41 183.702 100.472 183.434 100.595C183.169 100.713 182.937 100.886 182.736 101.114C182.536 101.338 182.379 101.609 182.265 101.928C182.151 102.242 182.094 102.593 182.094 102.98V107H180.952V99.5078H181.896L182.019 100.889H182.066C182.221 100.611 182.408 100.358 182.627 100.13C182.846 99.8975 183.099 99.7129 183.386 99.5762C183.677 99.4395 184.001 99.3711 184.356 99.3711ZM191.527 104.949C191.527 105.428 191.407 105.831 191.165 106.159C190.928 106.483 190.586 106.727 190.14 106.891C189.698 107.055 189.169 107.137 188.554 107.137C188.03 107.137 187.576 107.096 187.193 107.014C186.811 106.932 186.476 106.815 186.188 106.665V105.619C186.494 105.77 186.858 105.906 187.282 106.029C187.706 106.152 188.139 106.214 188.581 106.214C189.228 106.214 189.698 106.109 189.989 105.899C190.281 105.69 190.427 105.405 190.427 105.045C190.427 104.84 190.368 104.66 190.249 104.505C190.135 104.345 189.941 104.193 189.668 104.047C189.395 103.896 189.016 103.732 188.533 103.555C188.055 103.372 187.64 103.192 187.289 103.015C186.943 102.832 186.674 102.611 186.482 102.352C186.296 102.092 186.202 101.755 186.202 101.34C186.202 100.706 186.457 100.221 186.968 99.8838C187.483 99.542 188.157 99.3711 188.991 99.3711C189.442 99.3711 189.864 99.4167 190.256 99.5078C190.652 99.5944 191.021 99.7129 191.363 99.8633L190.98 100.772C190.671 100.64 190.34 100.529 189.989 100.438C189.638 100.346 189.281 100.301 188.916 100.301C188.392 100.301 187.989 100.387 187.706 100.561C187.428 100.734 187.289 100.971 187.289 101.271C187.289 101.504 187.353 101.695 187.48 101.846C187.613 101.996 187.822 102.137 188.109 102.27C188.396 102.402 188.775 102.557 189.244 102.734C189.714 102.908 190.119 103.088 190.461 103.274C190.803 103.457 191.065 103.68 191.247 103.944C191.434 104.204 191.527 104.539 191.527 104.949ZM199.792 99.3848C200.685 99.3848 201.348 99.5853 201.781 99.9863C202.214 100.387 202.431 101.028 202.431 101.907V107H201.604L201.385 105.893H201.33C201.12 106.166 200.902 106.396 200.674 106.583C200.446 106.765 200.182 106.904 199.881 107C199.585 107.091 199.22 107.137 198.787 107.137C198.331 107.137 197.926 107.057 197.57 106.897C197.219 106.738 196.941 106.496 196.736 106.173C196.536 105.849 196.436 105.439 196.436 104.942C196.436 104.195 196.732 103.621 197.324 103.22C197.917 102.819 198.819 102.6 200.031 102.563L201.323 102.509V102.051C201.323 101.404 201.184 100.95 200.906 100.69C200.628 100.431 200.236 100.301 199.73 100.301C199.339 100.301 198.965 100.358 198.609 100.472C198.254 100.586 197.917 100.72 197.598 100.875L197.249 100.014C197.586 99.8405 197.974 99.6924 198.411 99.5693C198.849 99.4463 199.309 99.3848 199.792 99.3848ZM201.31 103.309L200.168 103.356C199.234 103.393 198.575 103.546 198.192 103.814C197.81 104.083 197.618 104.464 197.618 104.956C197.618 105.384 197.748 105.701 198.008 105.906C198.268 106.111 198.612 106.214 199.04 106.214C199.705 106.214 200.25 106.029 200.674 105.66C201.098 105.291 201.31 104.737 201.31 103.999V103.309ZM209.615 104.949C209.615 105.428 209.494 105.831 209.253 106.159C209.016 106.483 208.674 106.727 208.228 106.891C207.785 107.055 207.257 107.137 206.642 107.137C206.118 107.137 205.664 107.096 205.281 107.014C204.898 106.932 204.563 106.815 204.276 106.665V105.619C204.582 105.77 204.946 105.906 205.37 106.029C205.794 106.152 206.227 106.214 206.669 106.214C207.316 106.214 207.785 106.109 208.077 105.899C208.369 105.69 208.515 105.405 208.515 105.045C208.515 104.84 208.455 104.66 208.337 104.505C208.223 104.345 208.029 104.193 207.756 104.047C207.482 103.896 207.104 103.732 206.621 103.555C206.143 103.372 205.728 103.192 205.377 103.015C205.031 102.832 204.762 102.611 204.57 102.352C204.383 102.092 204.29 101.755 204.29 101.34C204.29 100.706 204.545 100.221 205.056 99.8838C205.571 99.542 206.245 99.3711 207.079 99.3711C207.53 99.3711 207.952 99.4167 208.344 99.5078C208.74 99.5944 209.109 99.7129 209.451 99.8633L209.068 100.772C208.758 100.64 208.428 100.529 208.077 100.438C207.726 100.346 207.368 100.301 207.004 100.301C206.48 100.301 206.076 100.387 205.794 100.561C205.516 100.734 205.377 100.971 205.377 101.271C205.377 101.504 205.441 101.695 205.568 101.846C205.701 101.996 205.91 102.137 206.197 102.27C206.484 102.402 206.863 102.557 207.332 102.734C207.801 102.908 208.207 103.088 208.549 103.274C208.891 103.457 209.153 103.68 209.335 103.944C209.522 104.204 209.615 104.539 209.615 104.949ZM217.88 99.3848C218.773 99.3848 219.436 99.5853 219.869 99.9863C220.302 100.387 220.519 101.028 220.519 101.907V107H219.691L219.473 105.893H219.418C219.208 106.166 218.99 106.396 218.762 106.583C218.534 106.765 218.27 106.904 217.969 107C217.673 107.091 217.308 107.137 216.875 107.137C216.419 107.137 216.014 107.057 215.658 106.897C215.307 106.738 215.029 106.496 214.824 106.173C214.624 105.849 214.523 105.439 214.523 104.942C214.523 104.195 214.82 103.621 215.412 103.22C216.005 102.819 216.907 102.6 218.119 102.563L219.411 102.509V102.051C219.411 101.404 219.272 100.95 218.994 100.69C218.716 100.431 218.324 100.301 217.818 100.301C217.426 100.301 217.053 100.358 216.697 100.472C216.342 100.586 216.005 100.72 215.686 100.875L215.337 100.014C215.674 99.8405 216.062 99.6924 216.499 99.5693C216.937 99.4463 217.397 99.3848 217.88 99.3848ZM219.397 103.309L218.256 103.356C217.322 103.393 216.663 103.546 216.28 103.814C215.897 104.083 215.706 104.464 215.706 104.956C215.706 105.384 215.836 105.701 216.096 105.906C216.355 106.111 216.7 106.214 217.128 106.214C217.793 106.214 218.338 106.029 218.762 105.66C219.186 105.291 219.397 104.737 219.397 103.999V103.309ZM231.34 104.949C231.34 105.428 231.219 105.831 230.978 106.159C230.741 106.483 230.399 106.727 229.952 106.891C229.51 107.055 228.981 107.137 228.366 107.137C227.842 107.137 227.389 107.096 227.006 107.014C226.623 106.932 226.288 106.815 226.001 106.665V105.619C226.306 105.77 226.671 105.906 227.095 106.029C227.519 106.152 227.951 106.214 228.394 106.214C229.041 106.214 229.51 106.109 229.802 105.899C230.093 105.69 230.239 105.405 230.239 105.045C230.239 104.84 230.18 104.66 230.062 104.505C229.948 104.345 229.754 104.193 229.48 104.047C229.207 103.896 228.829 103.732 228.346 103.555C227.867 103.372 227.452 103.192 227.102 103.015C226.755 102.832 226.486 102.611 226.295 102.352C226.108 102.092 226.015 101.755 226.015 101.34C226.015 100.706 226.27 100.221 226.78 99.8838C227.295 99.542 227.97 99.3711 228.804 99.3711C229.255 99.3711 229.676 99.4167 230.068 99.5078C230.465 99.5944 230.834 99.7129 231.176 99.8633L230.793 100.772C230.483 100.64 230.153 100.529 229.802 100.438C229.451 100.346 229.093 100.301 228.729 100.301C228.204 100.301 227.801 100.387 227.519 100.561C227.241 100.734 227.102 100.971 227.102 101.271C227.102 101.504 227.165 101.695 227.293 101.846C227.425 101.996 227.635 102.137 227.922 102.27C228.209 102.402 228.587 102.557 229.057 102.734C229.526 102.908 229.932 103.088 230.273 103.274C230.615 103.457 230.877 103.68 231.06 103.944C231.246 104.204 231.34 104.539 231.34 104.949ZM239.352 99.5078V107H238.422L238.258 105.947H238.196C238.041 106.207 237.841 106.426 237.595 106.604C237.349 106.781 237.071 106.913 236.761 107C236.455 107.091 236.13 107.137 235.783 107.137C235.191 107.137 234.694 107.041 234.293 106.85C233.892 106.658 233.589 106.362 233.384 105.961C233.183 105.56 233.083 105.045 233.083 104.416V99.5078H234.231V104.334C234.231 104.958 234.373 105.425 234.655 105.735C234.938 106.041 235.368 106.193 235.947 106.193C236.503 106.193 236.945 106.089 237.273 105.879C237.606 105.669 237.845 105.362 237.991 104.956C238.137 104.546 238.21 104.045 238.21 103.452V99.5078H239.352ZM244.752 107.137C244.077 107.137 243.483 106.998 242.968 106.72C242.453 106.442 242.052 106.018 241.765 105.448C241.478 104.879 241.334 104.161 241.334 103.295C241.334 102.388 241.484 101.647 241.785 101.073C242.09 100.494 242.51 100.066 243.043 99.7881C243.576 99.5101 244.182 99.3711 244.861 99.3711C245.235 99.3711 245.595 99.4098 245.941 99.4873C246.292 99.5602 246.579 99.6536 246.803 99.7676L246.461 100.718C246.233 100.627 245.969 100.545 245.668 100.472C245.372 100.399 245.094 100.362 244.834 100.362C244.314 100.362 243.882 100.474 243.535 100.697C243.193 100.921 242.936 101.249 242.763 101.682C242.594 102.115 242.51 102.648 242.51 103.281C242.51 103.887 242.592 104.405 242.756 104.833C242.924 105.261 243.173 105.59 243.501 105.817C243.834 106.041 244.248 106.152 244.745 106.152C245.142 106.152 245.499 106.111 245.818 106.029C246.137 105.943 246.427 105.842 246.687 105.729V106.74C246.436 106.868 246.156 106.966 245.846 107.034C245.54 107.103 245.176 107.137 244.752 107.137ZM251.465 107.137C250.79 107.137 250.196 106.998 249.681 106.72C249.166 106.442 248.765 106.018 248.478 105.448C248.19 104.879 248.047 104.161 248.047 103.295C248.047 102.388 248.197 101.647 248.498 101.073C248.803 100.494 249.223 100.066 249.756 99.7881C250.289 99.5101 250.895 99.3711 251.574 99.3711C251.948 99.3711 252.308 99.4098 252.654 99.4873C253.005 99.5602 253.292 99.6536 253.516 99.7676L253.174 100.718C252.946 100.627 252.682 100.545 252.381 100.472C252.085 100.399 251.807 100.362 251.547 100.362C251.027 100.362 250.594 100.474 250.248 100.697C249.906 100.921 249.649 101.249 249.476 101.682C249.307 102.115 249.223 102.648 249.223 103.281C249.223 103.887 249.305 104.405 249.469 104.833C249.637 105.261 249.886 105.59 250.214 105.817C250.547 106.041 250.961 106.152 251.458 106.152C251.854 106.152 252.212 106.111 252.531 106.029C252.85 105.943 253.14 105.842 253.399 105.729V106.74C253.149 106.868 252.868 106.966 252.559 107.034C252.253 107.103 251.889 107.137 251.465 107.137ZM258.062 99.3711C258.7 99.3711 259.246 99.5124 259.702 99.7949C260.158 100.077 260.507 100.474 260.748 100.984C260.99 101.49 261.11 102.083 261.11 102.762V103.466H255.936C255.949 104.345 256.168 105.015 256.592 105.476C257.016 105.936 257.613 106.166 258.383 106.166C258.857 106.166 259.276 106.123 259.641 106.036C260.005 105.95 260.383 105.822 260.775 105.653V106.651C260.397 106.82 260.021 106.943 259.647 107.021C259.278 107.098 258.841 107.137 258.335 107.137C257.615 107.137 256.986 106.991 256.448 106.699C255.915 106.403 255.5 105.97 255.204 105.4C254.908 104.831 254.76 104.133 254.76 103.309C254.76 102.502 254.894 101.805 255.163 101.217C255.437 100.624 255.819 100.169 256.312 99.8496C256.808 99.5306 257.392 99.3711 258.062 99.3711ZM258.048 100.301C257.442 100.301 256.959 100.499 256.599 100.896C256.239 101.292 256.024 101.846 255.956 102.557H259.921C259.916 102.11 259.846 101.718 259.709 101.381C259.577 101.039 259.374 100.775 259.101 100.588C258.827 100.396 258.476 100.301 258.048 100.301ZM267.885 104.949C267.885 105.428 267.764 105.831 267.522 106.159C267.285 106.483 266.944 106.727 266.497 106.891C266.055 107.055 265.526 107.137 264.911 107.137C264.387 107.137 263.934 107.096 263.551 107.014C263.168 106.932 262.833 106.815 262.546 106.665V105.619C262.851 105.77 263.216 105.906 263.64 106.029C264.063 106.152 264.496 106.214 264.938 106.214C265.586 106.214 266.055 106.109 266.347 105.899C266.638 105.69 266.784 105.405 266.784 105.045C266.784 104.84 266.725 104.66 266.606 104.505C266.493 104.345 266.299 104.193 266.025 104.047C265.752 103.896 265.374 103.732 264.891 103.555C264.412 103.372 263.997 103.192 263.646 103.015C263.3 102.832 263.031 102.611 262.84 102.352C262.653 102.092 262.56 101.755 262.56 101.34C262.56 100.706 262.815 100.221 263.325 99.8838C263.84 99.542 264.515 99.3711 265.349 99.3711C265.8 99.3711 266.221 99.4167 266.613 99.5078C267.01 99.5944 267.379 99.7129 267.721 99.8633L267.338 100.772C267.028 100.64 266.698 100.529 266.347 100.438C265.996 100.346 265.638 100.301 265.273 100.301C264.749 100.301 264.346 100.387 264.063 100.561C263.785 100.734 263.646 100.971 263.646 101.271C263.646 101.504 263.71 101.695 263.838 101.846C263.97 101.996 264.18 102.137 264.467 102.27C264.754 102.402 265.132 102.557 265.602 102.734C266.071 102.908 266.477 103.088 266.818 103.274C267.16 103.457 267.422 103.68 267.604 103.944C267.791 104.204 267.885 104.539 267.885 104.949ZM274.557 104.949C274.557 105.428 274.436 105.831 274.194 106.159C273.957 106.483 273.616 106.727 273.169 106.891C272.727 107.055 272.198 107.137 271.583 107.137C271.059 107.137 270.605 107.096 270.223 107.014C269.84 106.932 269.505 106.815 269.218 106.665V105.619C269.523 105.77 269.888 105.906 270.312 106.029C270.735 106.152 271.168 106.214 271.61 106.214C272.257 106.214 272.727 106.109 273.019 105.899C273.31 105.69 273.456 105.405 273.456 105.045C273.456 104.84 273.397 104.66 273.278 104.505C273.164 104.345 272.971 104.193 272.697 104.047C272.424 103.896 272.046 103.732 271.562 103.555C271.084 103.372 270.669 103.192 270.318 103.015C269.972 102.832 269.703 102.611 269.512 102.352C269.325 102.092 269.231 101.755 269.231 101.34C269.231 100.706 269.487 100.221 269.997 99.8838C270.512 99.542 271.187 99.3711 272.021 99.3711C272.472 99.3711 272.893 99.4167 273.285 99.5078C273.682 99.5944 274.051 99.7129 274.393 99.8633L274.01 100.772C273.7 100.64 273.369 100.529 273.019 100.438C272.668 100.346 272.31 100.301 271.945 100.301C271.421 100.301 271.018 100.387 270.735 100.561C270.457 100.734 270.318 100.971 270.318 101.271C270.318 101.504 270.382 101.695 270.51 101.846C270.642 101.996 270.852 102.137 271.139 102.27C271.426 102.402 271.804 102.557 272.273 102.734C272.743 102.908 273.148 103.088 273.49 103.274C273.832 103.457 274.094 103.68 274.276 103.944C274.463 104.204 274.557 104.539 274.557 104.949ZM279.718 100.396H277.852V107H276.717V100.396H275.391V99.8496L276.717 99.4736V98.9746C276.717 98.3457 276.81 97.8353 276.997 97.4434C277.184 97.0469 277.455 96.7552 277.811 96.5684C278.166 96.3815 278.599 96.2881 279.109 96.2881C279.396 96.2881 279.659 96.3132 279.896 96.3633C280.137 96.4134 280.349 96.4704 280.531 96.5342L280.237 97.4297C280.082 97.3796 279.907 97.334 279.711 97.293C279.52 97.2474 279.324 97.2246 279.123 97.2246C278.69 97.2246 278.369 97.3659 278.159 97.6484C277.954 97.9264 277.852 98.3639 277.852 98.9609V99.5078H279.718V100.396ZM287.285 99.5078V107H286.355L286.191 105.947H286.13C285.975 106.207 285.774 106.426 285.528 106.604C285.282 106.781 285.004 106.913 284.694 107C284.389 107.091 284.063 107.137 283.717 107.137C283.124 107.137 282.628 107.041 282.227 106.85C281.826 106.658 281.522 106.362 281.317 105.961C281.117 105.56 281.017 105.045 281.017 104.416V99.5078H282.165V104.334C282.165 104.958 282.306 105.425 282.589 105.735C282.871 106.041 283.302 106.193 283.881 106.193C284.437 106.193 284.879 106.089 285.207 105.879C285.54 105.669 285.779 105.362 285.925 104.956C286.071 104.546 286.144 104.045 286.144 103.452V99.5078H287.285ZM290.826 107H289.685V96.3633H290.826V107ZM304.997 99.3711C305.822 99.3711 306.444 99.5876 306.863 100.021C307.283 100.449 307.492 101.139 307.492 102.092V107H306.371V102.146C306.371 101.54 306.239 101.087 305.975 100.786C305.715 100.481 305.327 100.328 304.812 100.328C304.088 100.328 303.562 100.538 303.233 100.957C302.905 101.376 302.741 101.994 302.741 102.81V107H301.613V102.146C301.613 101.741 301.554 101.404 301.436 101.135C301.322 100.866 301.148 100.665 300.916 100.533C300.688 100.396 300.399 100.328 300.048 100.328C299.551 100.328 299.152 100.431 298.852 100.636C298.551 100.841 298.332 101.146 298.195 101.552C298.063 101.953 297.997 102.447 297.997 103.035V107H296.862V99.5078H297.778L297.949 100.567H298.011C298.161 100.308 298.35 100.089 298.578 99.9111C298.806 99.7334 299.061 99.599 299.344 99.5078C299.626 99.4167 299.927 99.3711 300.246 99.3711C300.816 99.3711 301.292 99.4782 301.675 99.6924C302.062 99.902 302.342 100.223 302.516 100.656H302.577C302.823 100.223 303.16 99.902 303.589 99.6924C304.017 99.4782 304.487 99.3711 304.997 99.3711ZM312.708 99.3711C313.346 99.3711 313.893 99.5124 314.349 99.7949C314.804 100.077 315.153 100.474 315.395 100.984C315.636 101.49 315.757 102.083 315.757 102.762V103.466H310.582C310.596 104.345 310.814 105.015 311.238 105.476C311.662 105.936 312.259 106.166 313.029 106.166C313.503 106.166 313.923 106.123 314.287 106.036C314.652 105.95 315.03 105.822 315.422 105.653V106.651C315.044 106.82 314.668 106.943 314.294 107.021C313.925 107.098 313.487 107.137 312.981 107.137C312.261 107.137 311.632 106.991 311.095 106.699C310.562 106.403 310.147 105.97 309.851 105.4C309.554 104.831 309.406 104.133 309.406 103.309C309.406 102.502 309.541 101.805 309.81 101.217C310.083 100.624 310.466 100.169 310.958 99.8496C311.455 99.5306 312.038 99.3711 312.708 99.3711ZM312.694 100.301C312.088 100.301 311.605 100.499 311.245 100.896C310.885 101.292 310.671 101.846 310.603 102.557H314.567C314.563 102.11 314.492 101.718 314.355 101.381C314.223 101.039 314.021 100.775 313.747 100.588C313.474 100.396 313.123 100.301 312.694 100.301ZM322.531 104.949C322.531 105.428 322.41 105.831 322.169 106.159C321.932 106.483 321.59 106.727 321.144 106.891C320.701 107.055 320.173 107.137 319.558 107.137C319.034 107.137 318.58 107.096 318.197 107.014C317.814 106.932 317.479 106.815 317.192 106.665V105.619C317.498 105.77 317.862 105.906 318.286 106.029C318.71 106.152 319.143 106.214 319.585 106.214C320.232 106.214 320.701 106.109 320.993 105.899C321.285 105.69 321.431 105.405 321.431 105.045C321.431 104.84 321.371 104.66 321.253 104.505C321.139 104.345 320.945 104.193 320.672 104.047C320.398 103.896 320.02 103.732 319.537 103.555C319.059 103.372 318.644 103.192 318.293 103.015C317.947 102.832 317.678 102.611 317.486 102.352C317.299 102.092 317.206 101.755 317.206 101.34C317.206 100.706 317.461 100.221 317.972 99.8838C318.487 99.542 319.161 99.3711 319.995 99.3711C320.446 99.3711 320.868 99.4167 321.26 99.5078C321.656 99.5944 322.025 99.7129 322.367 99.8633L321.984 100.772C321.674 100.64 321.344 100.529 320.993 100.438C320.642 100.346 320.285 100.301 319.92 100.301C319.396 100.301 318.993 100.387 318.71 100.561C318.432 100.734 318.293 100.971 318.293 101.271C318.293 101.504 318.357 101.695 318.484 101.846C318.617 101.996 318.826 102.137 319.113 102.27C319.4 102.402 319.779 102.557 320.248 102.734C320.717 102.908 321.123 103.088 321.465 103.274C321.807 103.457 322.069 103.68 322.251 103.944C322.438 104.204 322.531 104.539 322.531 104.949ZM329.203 104.949C329.203 105.428 329.082 105.831 328.841 106.159C328.604 106.483 328.262 106.727 327.815 106.891C327.373 107.055 326.845 107.137 326.229 107.137C325.705 107.137 325.252 107.096 324.869 107.014C324.486 106.932 324.151 106.815 323.864 106.665V105.619C324.17 105.77 324.534 105.906 324.958 106.029C325.382 106.152 325.815 106.214 326.257 106.214C326.904 106.214 327.373 106.109 327.665 105.899C327.957 105.69 328.103 105.405 328.103 105.045C328.103 104.84 328.043 104.66 327.925 104.505C327.811 104.345 327.617 104.193 327.344 104.047C327.07 103.896 326.692 103.732 326.209 103.555C325.73 103.372 325.316 103.192 324.965 103.015C324.618 102.832 324.35 102.611 324.158 102.352C323.971 102.092 323.878 101.755 323.878 101.34C323.878 100.706 324.133 100.221 324.644 99.8838C325.159 99.542 325.833 99.3711 326.667 99.3711C327.118 99.3711 327.54 99.4167 327.932 99.5078C328.328 99.5944 328.697 99.7129 329.039 99.8633L328.656 100.772C328.346 100.64 328.016 100.529 327.665 100.438C327.314 100.346 326.956 100.301 326.592 100.301C326.068 100.301 325.664 100.387 325.382 100.561C325.104 100.734 324.965 100.971 324.965 101.271C324.965 101.504 325.029 101.695 325.156 101.846C325.288 101.996 325.498 102.137 325.785 102.27C326.072 102.402 326.451 102.557 326.92 102.734C327.389 102.908 327.795 103.088 328.137 103.274C328.479 103.457 328.741 103.68 328.923 103.944C329.11 104.204 329.203 104.539 329.203 104.949ZM333.831 99.3848C334.724 99.3848 335.387 99.5853 335.82 99.9863C336.253 100.387 336.47 101.028 336.47 101.907V107H335.643L335.424 105.893H335.369C335.16 106.166 334.941 106.396 334.713 106.583C334.485 106.765 334.221 106.904 333.92 107C333.624 107.091 333.259 107.137 332.826 107.137C332.37 107.137 331.965 107.057 331.609 106.897C331.258 106.738 330.98 106.496 330.775 106.173C330.575 105.849 330.475 105.439 330.475 104.942C330.475 104.195 330.771 103.621 331.363 103.22C331.956 102.819 332.858 102.6 334.07 102.563L335.362 102.509V102.051C335.362 101.404 335.223 100.95 334.945 100.69C334.667 100.431 334.275 100.301 333.77 100.301C333.378 100.301 333.004 100.358 332.648 100.472C332.293 100.586 331.956 100.72 331.637 100.875L331.288 100.014C331.625 99.8405 332.013 99.6924 332.45 99.5693C332.888 99.4463 333.348 99.3848 333.831 99.3848ZM335.349 103.309L334.207 103.356C333.273 103.393 332.614 103.546 332.231 103.814C331.849 104.083 331.657 104.464 331.657 104.956C331.657 105.384 331.787 105.701 332.047 105.906C332.307 106.111 332.651 106.214 333.079 106.214C333.744 106.214 334.289 106.029 334.713 105.66C335.137 105.291 335.349 104.737 335.349 103.999V103.309ZM340.899 110.363C339.915 110.363 339.156 110.179 338.623 109.81C338.09 109.445 337.823 108.932 337.823 108.271C337.823 107.802 337.971 107.401 338.268 107.068C338.568 106.736 338.983 106.515 339.512 106.405C339.316 106.314 339.147 106.177 339.006 105.995C338.869 105.813 338.801 105.603 338.801 105.366C338.801 105.093 338.876 104.854 339.026 104.648C339.181 104.439 339.416 104.238 339.73 104.047C339.339 103.887 339.02 103.618 338.773 103.24C338.532 102.857 338.411 102.413 338.411 101.907C338.411 101.369 338.523 100.911 338.746 100.533C338.969 100.15 339.293 99.8587 339.717 99.6582C340.141 99.4577 340.653 99.3574 341.255 99.3574C341.387 99.3574 341.519 99.3643 341.651 99.3779C341.788 99.387 341.918 99.403 342.041 99.4258C342.164 99.444 342.271 99.4668 342.362 99.4941H344.933V100.226L343.552 100.396C343.688 100.574 343.802 100.788 343.894 101.039C343.985 101.29 344.03 101.568 344.03 101.873C344.03 102.62 343.777 103.215 343.271 103.657C342.766 104.095 342.071 104.313 341.187 104.313C340.977 104.313 340.763 104.295 340.544 104.259C340.321 104.382 340.15 104.519 340.031 104.669C339.917 104.819 339.86 104.993 339.86 105.188C339.86 105.334 339.904 105.451 339.99 105.537C340.081 105.624 340.211 105.688 340.38 105.729C340.549 105.765 340.751 105.783 340.988 105.783H342.308C343.123 105.783 343.748 105.954 344.181 106.296C344.618 106.638 344.837 107.137 344.837 107.793C344.837 108.622 344.5 109.258 343.825 109.7C343.151 110.142 342.175 110.363 340.899 110.363ZM340.934 109.475C341.553 109.475 342.066 109.411 342.472 109.283C342.882 109.16 343.187 108.98 343.388 108.743C343.593 108.511 343.695 108.233 343.695 107.909C343.695 107.608 343.627 107.381 343.49 107.226C343.354 107.075 343.153 106.975 342.889 106.925C342.624 106.87 342.301 106.843 341.918 106.843H340.619C340.282 106.843 339.988 106.895 339.737 107C339.487 107.105 339.293 107.26 339.156 107.465C339.024 107.67 338.958 107.925 338.958 108.23C338.958 108.636 339.129 108.944 339.471 109.153C339.812 109.368 340.3 109.475 340.934 109.475ZM341.228 103.486C341.77 103.486 342.178 103.35 342.451 103.076C342.725 102.803 342.861 102.404 342.861 101.88C342.861 101.319 342.722 100.9 342.444 100.622C342.166 100.34 341.756 100.198 341.214 100.198C340.694 100.198 340.293 100.344 340.011 100.636C339.733 100.923 339.594 101.344 339.594 101.9C339.594 102.411 339.735 102.803 340.018 103.076C340.3 103.35 340.703 103.486 341.228 103.486ZM349.294 99.3711C349.932 99.3711 350.479 99.5124 350.935 99.7949C351.39 100.077 351.739 100.474 351.98 100.984C352.222 101.49 352.343 102.083 352.343 102.762V103.466H347.168C347.182 104.345 347.4 105.015 347.824 105.476C348.248 105.936 348.845 106.166 349.615 106.166C350.089 106.166 350.508 106.123 350.873 106.036C351.238 105.95 351.616 105.822 352.008 105.653V106.651C351.63 106.82 351.254 106.943 350.88 107.021C350.511 107.098 350.073 107.137 349.567 107.137C348.847 107.137 348.218 106.991 347.681 106.699C347.147 106.403 346.733 105.97 346.437 105.4C346.14 104.831 345.992 104.133 345.992 103.309C345.992 102.502 346.127 101.805 346.396 101.217C346.669 100.624 347.052 100.169 347.544 99.8496C348.041 99.5306 348.624 99.3711 349.294 99.3711ZM349.28 100.301C348.674 100.301 348.191 100.499 347.831 100.896C347.471 101.292 347.257 101.846 347.188 102.557H351.153C351.149 102.11 351.078 101.718 350.941 101.381C350.809 101.039 350.606 100.775 350.333 100.588C350.06 100.396 349.709 100.301 349.28 100.301ZM361.243 100.396H359.377V107H358.242V100.396H356.916V99.8496L358.242 99.4736V98.9746C358.242 98.3457 358.336 97.8353 358.522 97.4434C358.709 97.0469 358.98 96.7552 359.336 96.5684C359.691 96.3815 360.124 96.2881 360.635 96.2881C360.922 96.2881 361.184 96.3132 361.421 96.3633C361.662 96.4134 361.874 96.4704 362.057 96.5342L361.763 97.4297C361.608 97.3796 361.432 97.334 361.236 97.293C361.045 97.2474 360.849 97.2246 360.648 97.2246C360.215 97.2246 359.894 97.3659 359.685 97.6484C359.479 97.9264 359.377 98.3639 359.377 98.9609V99.5078H361.243V100.396ZM369.084 103.24C369.084 103.855 369.004 104.405 368.845 104.888C368.685 105.371 368.455 105.779 368.154 106.111C367.854 106.444 367.489 106.699 367.061 106.877C366.637 107.05 366.156 107.137 365.618 107.137C365.117 107.137 364.657 107.05 364.237 106.877C363.823 106.699 363.463 106.444 363.157 106.111C362.856 105.779 362.622 105.371 362.453 104.888C362.289 104.405 362.207 103.855 362.207 103.24C362.207 102.42 362.346 101.723 362.624 101.148C362.902 100.57 363.299 100.13 363.813 99.8291C364.333 99.5238 364.951 99.3711 365.666 99.3711C366.35 99.3711 366.947 99.5238 367.457 99.8291C367.972 100.134 368.371 100.576 368.653 101.155C368.94 101.729 369.084 102.424 369.084 103.24ZM363.383 103.24C363.383 103.842 363.463 104.364 363.622 104.806C363.782 105.248 364.028 105.59 364.36 105.831C364.693 106.073 365.121 106.193 365.646 106.193C366.165 106.193 366.591 106.073 366.924 105.831C367.261 105.59 367.509 105.248 367.669 104.806C367.828 104.364 367.908 103.842 367.908 103.24C367.908 102.643 367.828 102.128 367.669 101.695C367.509 101.258 367.263 100.921 366.931 100.684C366.598 100.447 366.167 100.328 365.639 100.328C364.859 100.328 364.287 100.586 363.923 101.101C363.563 101.616 363.383 102.329 363.383 103.24ZM374.45 99.3711C374.601 99.3711 374.758 99.3802 374.922 99.3984C375.086 99.4121 375.232 99.4326 375.359 99.46L375.216 100.513C375.093 100.481 374.956 100.456 374.806 100.438C374.655 100.419 374.514 100.41 374.382 100.41C374.081 100.41 373.796 100.472 373.527 100.595C373.263 100.713 373.031 100.886 372.83 101.114C372.63 101.338 372.472 101.609 372.358 101.928C372.244 102.242 372.188 102.593 372.188 102.98V107H371.046V99.5078H371.989L372.112 100.889H372.16C372.315 100.611 372.502 100.358 372.721 100.13C372.939 99.8975 373.192 99.7129 373.479 99.5762C373.771 99.4395 374.095 99.3711 374.45 99.3711ZM382.831 106.207C383.018 106.207 383.209 106.191 383.405 106.159C383.601 106.127 383.761 106.089 383.884 106.043V106.925C383.752 106.984 383.567 107.034 383.33 107.075C383.098 107.116 382.87 107.137 382.646 107.137C382.25 107.137 381.89 107.068 381.566 106.932C381.243 106.79 380.983 106.553 380.787 106.221C380.596 105.888 380.5 105.428 380.5 104.84V100.396H379.434V99.8428L380.507 99.3984L380.958 97.7715H381.642V99.5078H383.836V100.396H381.642V104.806C381.642 105.275 381.749 105.626 381.963 105.858C382.182 106.091 382.471 106.207 382.831 106.207ZM386.536 96.3633V99.542C386.536 99.7243 386.532 99.9089 386.522 100.096C386.513 100.278 386.497 100.447 386.475 100.602H386.55C386.705 100.337 386.901 100.116 387.138 99.9385C387.379 99.7562 387.653 99.6195 387.958 99.5283C388.263 99.4326 388.587 99.3848 388.929 99.3848C389.53 99.3848 390.032 99.4805 390.433 99.6719C390.838 99.8633 391.141 100.16 391.342 100.561C391.547 100.962 391.649 101.481 391.649 102.119V107H390.528V102.194C390.528 101.57 390.385 101.103 390.098 100.793C389.815 100.483 389.38 100.328 388.792 100.328C388.236 100.328 387.792 100.435 387.459 100.649C387.131 100.859 386.894 101.169 386.748 101.579C386.607 101.989 386.536 102.491 386.536 103.083V107H385.401V96.3633H386.536ZM396.872 99.3711C397.51 99.3711 398.057 99.5124 398.513 99.7949C398.968 100.077 399.317 100.474 399.559 100.984C399.8 101.49 399.921 102.083 399.921 102.762V103.466H394.746C394.76 104.345 394.979 105.015 395.402 105.476C395.826 105.936 396.423 106.166 397.193 106.166C397.667 106.166 398.087 106.123 398.451 106.036C398.816 105.95 399.194 105.822 399.586 105.653V106.651C399.208 106.82 398.832 106.943 398.458 107.021C398.089 107.098 397.651 107.137 397.146 107.137C396.425 107.137 395.797 106.991 395.259 106.699C394.726 106.403 394.311 105.97 394.015 105.4C393.718 104.831 393.57 104.133 393.57 103.309C393.57 102.502 393.705 101.805 393.974 101.217C394.247 100.624 394.63 100.169 395.122 99.8496C395.619 99.5306 396.202 99.3711 396.872 99.3711ZM396.858 100.301C396.252 100.301 395.769 100.499 395.409 100.896C395.049 101.292 394.835 101.846 394.767 102.557H398.731C398.727 102.11 398.656 101.718 398.52 101.381C398.387 101.039 398.185 100.775 397.911 100.588C397.638 100.396 397.287 100.301 396.858 100.301ZM51.999 119.385C52.8923 119.385 53.5553 119.585 53.9883 119.986C54.4212 120.387 54.6377 121.028 54.6377 121.907V127H53.8105L53.5918 125.893H53.5371C53.3275 126.166 53.1087 126.396 52.8809 126.583C52.653 126.765 52.3887 126.904 52.0879 127C51.7917 127.091 51.4271 127.137 50.9941 127.137C50.5384 127.137 50.1328 127.057 49.7773 126.897C49.4264 126.738 49.1484 126.496 48.9434 126.173C48.7428 125.849 48.6426 125.439 48.6426 124.942C48.6426 124.195 48.9388 123.621 49.5312 123.22C50.1237 122.819 51.026 122.6 52.2383 122.563L53.5303 122.509V122.051C53.5303 121.404 53.3913 120.95 53.1133 120.69C52.8353 120.431 52.4434 120.301 51.9375 120.301C51.5456 120.301 51.1719 120.358 50.8164 120.472C50.4609 120.586 50.1237 120.72 49.8047 120.875L49.4561 120.014C49.7933 119.84 50.1807 119.692 50.6182 119.569C51.0557 119.446 51.516 119.385 51.999 119.385ZM53.5166 123.309L52.375 123.356C51.4408 123.393 50.7822 123.546 50.3994 123.814C50.0166 124.083 49.8252 124.464 49.8252 124.956C49.8252 125.384 49.9551 125.701 50.2148 125.906C50.4746 126.111 50.8187 126.214 51.2471 126.214C51.9124 126.214 52.457 126.029 52.8809 125.66C53.3047 125.291 53.5166 124.737 53.5166 123.999V123.309ZM59.9766 127.137C59.3021 127.137 58.7074 126.998 58.1924 126.72C57.6774 126.442 57.2764 126.018 56.9893 125.448C56.7021 124.879 56.5586 124.161 56.5586 123.295C56.5586 122.388 56.709 121.647 57.0098 121.073C57.3151 120.494 57.7344 120.066 58.2676 119.788C58.8008 119.51 59.4069 119.371 60.0859 119.371C60.4596 119.371 60.8197 119.41 61.166 119.487C61.5169 119.56 61.804 119.654 62.0273 119.768L61.6855 120.718C61.4577 120.627 61.1934 120.545 60.8926 120.472C60.5964 120.399 60.3184 120.362 60.0586 120.362C59.5391 120.362 59.1061 120.474 58.7598 120.697C58.418 120.921 58.1605 121.249 57.9873 121.682C57.8187 122.115 57.7344 122.648 57.7344 123.281C57.7344 123.887 57.8164 124.405 57.9805 124.833C58.1491 125.261 58.3975 125.59 58.7256 125.817C59.0583 126.041 59.473 126.152 59.9697 126.152C60.3662 126.152 60.724 126.111 61.043 126.029C61.362 125.943 61.6514 125.842 61.9111 125.729V126.74C61.6605 126.868 61.3802 126.966 61.0703 127.034C60.765 127.103 60.4004 127.137 59.9766 127.137ZM66.1084 126.207C66.2952 126.207 66.4867 126.191 66.6826 126.159C66.8786 126.127 67.0381 126.089 67.1611 126.043V126.925C67.029 126.984 66.8444 127.034 66.6074 127.075C66.375 127.116 66.1471 127.137 65.9238 127.137C65.5273 127.137 65.1673 127.068 64.8438 126.932C64.5202 126.79 64.2604 126.553 64.0645 126.221C63.873 125.888 63.7773 125.428 63.7773 124.84V120.396H62.7109V119.843L63.7842 119.398L64.2354 117.771H64.9189V119.508H67.1133V120.396H64.9189V124.806C64.9189 125.275 65.026 125.626 65.2402 125.858C65.459 126.091 65.7484 126.207 66.1084 126.207ZM69.8135 119.508V127H68.6787V119.508H69.8135ZM69.2598 116.705C69.4466 116.705 69.6061 116.767 69.7383 116.89C69.875 117.008 69.9434 117.195 69.9434 117.45C69.9434 117.701 69.875 117.888 69.7383 118.011C69.6061 118.134 69.4466 118.195 69.2598 118.195C69.0638 118.195 68.8997 118.134 68.7676 118.011C68.64 117.888 68.5762 117.701 68.5762 117.45C68.5762 117.195 68.64 117.008 68.7676 116.89C68.8997 116.767 69.0638 116.705 69.2598 116.705ZM78.6797 123.24C78.6797 123.855 78.5999 124.405 78.4404 124.888C78.2809 125.371 78.0508 125.779 77.75 126.111C77.4492 126.444 77.0846 126.699 76.6562 126.877C76.2324 127.05 75.7516 127.137 75.2139 127.137C74.7126 127.137 74.2523 127.05 73.833 126.877C73.4183 126.699 73.0583 126.444 72.7529 126.111C72.4521 125.779 72.2174 125.371 72.0488 124.888C71.8848 124.405 71.8027 123.855 71.8027 123.24C71.8027 122.42 71.9417 121.723 72.2197 121.148C72.4977 120.57 72.8942 120.13 73.4092 119.829C73.9287 119.524 74.5462 119.371 75.2617 119.371C75.9453 119.371 76.5423 119.524 77.0527 119.829C77.5677 120.134 77.9665 120.576 78.249 121.155C78.5361 121.729 78.6797 122.424 78.6797 123.24ZM72.9785 123.24C72.9785 123.842 73.0583 124.364 73.2178 124.806C73.3773 125.248 73.6234 125.59 73.9561 125.831C74.2887 126.073 74.7171 126.193 75.2412 126.193C75.7607 126.193 76.1868 126.073 76.5195 125.831C76.8568 125.59 77.1051 125.248 77.2646 124.806C77.4242 124.364 77.5039 123.842 77.5039 123.24C77.5039 122.643 77.4242 122.128 77.2646 121.695C77.1051 121.258 76.859 120.921 76.5264 120.684C76.1937 120.447 75.763 120.328 75.2344 120.328C74.4551 120.328 73.8831 120.586 73.5186 121.101C73.1585 121.616 72.9785 122.329 72.9785 123.24ZM84.1895 119.371C85.0781 119.371 85.7503 119.59 86.2061 120.027C86.6618 120.46 86.8896 121.158 86.8896 122.119V127H85.7686V122.194C85.7686 121.57 85.625 121.103 85.3379 120.793C85.0553 120.483 84.6201 120.328 84.0322 120.328C83.2028 120.328 82.6195 120.563 82.2822 121.032C81.945 121.502 81.7764 122.183 81.7764 123.076V127H80.6416V119.508H81.5576L81.7285 120.588H81.79C81.9495 120.324 82.1523 120.103 82.3984 119.925C82.6445 119.743 82.9202 119.606 83.2256 119.515C83.5309 119.419 83.8522 119.371 84.1895 119.371ZM91.6816 119.508H92.8984L94.5527 123.855C94.6484 124.111 94.7373 124.357 94.8193 124.594C94.9014 124.826 94.9743 125.049 95.0381 125.264C95.1019 125.478 95.152 125.685 95.1885 125.886H95.2363C95.3001 125.658 95.3913 125.359 95.5098 124.99C95.6283 124.617 95.7559 124.236 95.8926 123.849L97.458 119.508H98.6816L95.4209 128.101C95.2477 128.561 95.0449 128.962 94.8125 129.304C94.5846 129.646 94.3066 129.908 93.9785 130.09C93.6504 130.277 93.2539 130.37 92.7891 130.37C92.5749 130.37 92.3857 130.356 92.2217 130.329C92.0576 130.306 91.9163 130.279 91.7979 130.247V129.338C91.8981 129.361 92.0189 129.381 92.1602 129.399C92.306 129.418 92.4564 129.427 92.6113 129.427C92.8939 129.427 93.1377 129.372 93.3428 129.263C93.5524 129.158 93.7324 129.003 93.8828 128.798C94.0332 128.593 94.1631 128.349 94.2725 128.066L94.6826 127.014L91.6816 119.508ZM106.338 123.24C106.338 123.855 106.258 124.405 106.099 124.888C105.939 125.371 105.709 125.779 105.408 126.111C105.107 126.444 104.743 126.699 104.314 126.877C103.891 127.05 103.41 127.137 102.872 127.137C102.371 127.137 101.91 127.05 101.491 126.877C101.076 126.699 100.716 126.444 100.411 126.111C100.11 125.779 99.8757 125.371 99.707 124.888C99.543 124.405 99.4609 123.855 99.4609 123.24C99.4609 122.42 99.5999 121.723 99.8779 121.148C100.156 120.57 100.552 120.13 101.067 119.829C101.587 119.524 102.204 119.371 102.92 119.371C103.604 119.371 104.201 119.524 104.711 119.829C105.226 120.134 105.625 120.576 105.907 121.155C106.194 121.729 106.338 122.424 106.338 123.24ZM100.637 123.24C100.637 123.842 100.716 124.364 100.876 124.806C101.035 125.248 101.282 125.59 101.614 125.831C101.947 126.073 102.375 126.193 102.899 126.193C103.419 126.193 103.845 126.073 104.178 125.831C104.515 125.59 104.763 125.248 104.923 124.806C105.082 124.364 105.162 123.842 105.162 123.24C105.162 122.643 105.082 122.128 104.923 121.695C104.763 121.258 104.517 120.921 104.185 120.684C103.852 120.447 103.421 120.328 102.893 120.328C102.113 120.328 101.541 120.586 101.177 121.101C100.817 121.616 100.637 122.329 100.637 123.24ZM114.486 119.508V127H113.557L113.393 125.947H113.331C113.176 126.207 112.976 126.426 112.729 126.604C112.483 126.781 112.205 126.913 111.896 127C111.59 127.091 111.264 127.137 110.918 127.137C110.326 127.137 109.829 127.041 109.428 126.85C109.027 126.658 108.724 126.362 108.519 125.961C108.318 125.56 108.218 125.045 108.218 124.416V119.508H109.366V124.334C109.366 124.958 109.507 125.425 109.79 125.735C110.073 126.041 110.503 126.193 111.082 126.193C111.638 126.193 112.08 126.089 112.408 125.879C112.741 125.669 112.98 125.362 113.126 124.956C113.272 124.546 113.345 124.045 113.345 123.452V119.508H114.486ZM123.188 127.137C122.241 127.137 121.489 126.813 120.933 126.166C120.381 125.519 120.105 124.557 120.105 123.281C120.105 121.992 120.388 121.019 120.953 120.362C121.518 119.701 122.27 119.371 123.209 119.371C123.605 119.371 123.952 119.424 124.248 119.528C124.544 119.633 124.799 119.774 125.014 119.952C125.228 120.125 125.408 120.324 125.554 120.547H125.636C125.618 120.406 125.599 120.212 125.581 119.966C125.563 119.72 125.554 119.519 125.554 119.364V116.363H126.688V127H125.772L125.602 125.934H125.554C125.412 126.157 125.232 126.36 125.014 126.542C124.799 126.724 124.542 126.87 124.241 126.979C123.945 127.084 123.594 127.137 123.188 127.137ZM123.366 126.193C124.168 126.193 124.736 125.965 125.068 125.51C125.401 125.054 125.567 124.377 125.567 123.479V123.274C125.567 122.322 125.408 121.59 125.089 121.08C124.774 120.57 124.2 120.314 123.366 120.314C122.669 120.314 122.147 120.583 121.801 121.121C121.454 121.654 121.281 122.383 121.281 123.309C121.281 124.229 121.452 124.94 121.794 125.441C122.14 125.943 122.664 126.193 123.366 126.193ZM130.229 119.508V127H129.095V119.508H130.229ZM129.676 116.705C129.863 116.705 130.022 116.767 130.154 116.89C130.291 117.008 130.359 117.195 130.359 117.45C130.359 117.701 130.291 117.888 130.154 118.011C130.022 118.134 129.863 118.195 129.676 118.195C129.48 118.195 129.316 118.134 129.184 118.011C129.056 117.888 128.992 117.701 128.992 117.45C128.992 117.195 129.056 117.008 129.184 116.89C129.316 116.767 129.48 116.705 129.676 116.705ZM135.302 127.137C134.354 127.137 133.602 126.813 133.046 126.166C132.494 125.519 132.219 124.557 132.219 123.281C132.219 121.992 132.501 121.019 133.066 120.362C133.632 119.701 134.383 119.371 135.322 119.371C135.719 119.371 136.065 119.424 136.361 119.528C136.658 119.633 136.913 119.774 137.127 119.952C137.341 120.125 137.521 120.324 137.667 120.547H137.749C137.731 120.406 137.713 120.212 137.694 119.966C137.676 119.72 137.667 119.519 137.667 119.364V116.363H138.802V127H137.886L137.715 125.934H137.667C137.526 126.157 137.346 126.36 137.127 126.542C136.913 126.724 136.655 126.87 136.354 126.979C136.058 127.084 135.707 127.137 135.302 127.137ZM135.479 126.193C136.282 126.193 136.849 125.965 137.182 125.51C137.514 125.054 137.681 124.377 137.681 123.479V123.274C137.681 122.322 137.521 121.59 137.202 121.08C136.888 120.57 136.313 120.314 135.479 120.314C134.782 120.314 134.26 120.583 133.914 121.121C133.568 121.654 133.395 122.383 133.395 123.309C133.395 124.229 133.565 124.94 133.907 125.441C134.254 125.943 134.778 126.193 135.479 126.193ZM141.037 126.289C141.037 125.97 141.115 125.744 141.27 125.612C141.424 125.476 141.614 125.407 141.837 125.407C142.069 125.407 142.265 125.476 142.425 125.612C142.584 125.744 142.664 125.97 142.664 126.289C142.664 126.604 142.584 126.834 142.425 126.979C142.265 127.121 142.069 127.191 141.837 127.191C141.614 127.191 141.424 127.121 141.27 126.979C141.115 126.834 141.037 126.604 141.037 126.289Z" fill="#696F8C"/>
<circle cx="28" cy="16" r="14.5" fill="#101840" stroke="#101840"/>
<path d="M28.957 21H27.1465V16.043C27.1465 15.9062 27.1484 15.7383 27.1523 15.5391C27.1562 15.3359 27.1621 15.1289 27.1699 14.918C27.1777 14.7031 27.1855 14.5098 27.1934 14.3379C27.1504 14.3887 27.0625 14.4766 26.9297 14.6016C26.8008 14.7227 26.6797 14.832 26.5664 14.9297L25.582 15.7207L24.709 14.6309L27.4688 12.4336H28.957V21Z" fill="white"/>
<path d="M28 31V67" stroke="#101840" stroke-width="2"/>
<circle cx="28" cy="65" r="2.5" fill="#101840" stroke="#101840"/>
<circle cx="63" cy="15" r="14.5" fill="#101840" stroke="#101840"/>
<path d="M65.4688 20H59.4805V18.7402L61.6309 16.5664C62.0645 16.1211 62.4121 15.75 62.6738 15.4531C62.9395 15.1523 63.1309 14.8789 63.248 14.6328C63.3691 14.3867 63.4297 14.123 63.4297 13.8418C63.4297 13.502 63.334 13.248 63.1426 13.0801C62.9551 12.9082 62.7031 12.8223 62.3867 12.8223C62.0547 12.8223 61.7324 12.8984 61.4199 13.0508C61.1074 13.2031 60.7812 13.4199 60.4414 13.7012L59.457 12.5352C59.7031 12.3242 59.9629 12.125 60.2363 11.9375C60.5137 11.75 60.834 11.5996 61.1973 11.4863C61.5645 11.3691 62.0039 11.3105 62.5156 11.3105C63.0781 11.3105 63.5605 11.4121 63.9629 11.6152C64.3691 11.8184 64.6816 12.0957 64.9004 12.4473C65.1191 12.7949 65.2285 13.1895 65.2285 13.6309C65.2285 14.1035 65.1348 14.5352 64.9473 14.9258C64.7598 15.3164 64.4863 15.7031 64.127 16.0859C63.7715 16.4688 63.3418 16.8926 62.8379 17.3574L61.7363 18.3945V18.4766H65.4688V20Z" fill="white"/>
<path d="M63 30V66" stroke="#101840" stroke-width="2"/>
<circle cx="63" cy="64" r="2.5" fill="#101840" stroke="#101840"/>
<circle cx="53" cy="185" r="14.5" transform="rotate(-180 53 185)" fill="#101840" stroke="#101840"/>
<path d="M56.1348 183.35C56.1348 183.744 56.0527 184.086 55.8887 184.375C55.7246 184.664 55.502 184.9 55.2207 185.084C54.9434 185.268 54.6309 185.402 54.2832 185.488V185.523C54.9707 185.609 55.4922 185.82 55.8477 186.156C56.207 186.492 56.3867 186.941 56.3867 187.504C56.3867 188.004 56.2637 188.451 56.0176 188.846C55.7754 189.24 55.4004 189.551 54.8926 189.777C54.3848 190.004 53.7305 190.117 52.9297 190.117C52.457 190.117 52.0156 190.078 51.6055 190C51.1992 189.926 50.8164 189.811 50.457 189.654V188.113C50.8242 188.301 51.209 188.443 51.6113 188.541C52.0137 188.635 52.3887 188.682 52.7363 188.682C53.3848 188.682 53.8379 188.57 54.0957 188.348C54.3574 188.121 54.4883 187.805 54.4883 187.398C54.4883 187.16 54.4277 186.959 54.3066 186.795C54.1855 186.631 53.9746 186.506 53.6738 186.42C53.377 186.334 52.9609 186.291 52.4258 186.291H51.7754V184.902H52.4375C52.9648 184.902 53.3652 184.854 53.6387 184.756C53.916 184.654 54.1035 184.518 54.2012 184.346C54.3027 184.17 54.3535 183.971 54.3535 183.748C54.3535 183.443 54.2598 183.205 54.0723 183.033C53.8848 182.861 53.5723 182.775 53.1348 182.775C52.8613 182.775 52.6113 182.811 52.3848 182.881C52.1621 182.947 51.9609 183.029 51.7812 183.127C51.6016 183.221 51.4434 183.312 51.3066 183.402L50.4688 182.154C50.8047 181.912 51.1973 181.711 51.6465 181.551C52.0996 181.391 52.6387 181.311 53.2637 181.311C54.1465 181.311 54.8457 181.488 55.3613 181.844C55.877 182.199 56.1348 182.701 56.1348 183.35Z" fill="white"/>
<path d="M53 170L53 134" stroke="#101840" stroke-width="2"/>
<circle cx="53" cy="136" r="2.5" transform="rotate(-180 53 136)" fill="#101840" stroke="#101840"/>
<defs>
<clipPath id="clip0_366_3627">
<rect width="24" height="24" fill="white" transform="translate(16 64)"/>
</clipPath>
<clipPath id="clip1_366_3627">
<rect width="136" height="20" fill="white" transform="translate(48 66)"/>
</clipPath>
</defs>
</svg>
