<svg width="484" height="44" viewBox="0 0 484 44" fill="none" xmlns="http://www.w3.org/2000/svg">
<rect width="484" height="44" rx="4" fill="#FFFAE6"/>
<rect width="24" height="24" transform="translate(16 10)" fill="white" fill-opacity="0.01"/>
<g clip-path="url(#clip0_332_8092)">
<path d="M28 15.99L35.53 29H20.47L28 15.99ZM28 12L17 31H39L28 12ZM29 26H27V28H29V26ZM29 20H27V24H29V20Z" fill="#FFAB00"/>
</g>
<g clip-path="url(#clip1_332_8092)">
<path d="M63.0078 16.5781L60.0234 28H57.9766L56.0703 21.1562C56.0234 20.9896 55.9714 20.7917 55.9141 20.5625C55.8568 20.3333 55.7995 20.099 55.7422 19.8594C55.6901 19.6198 55.6432 19.401 55.6016 19.2031C55.5651 19 55.5391 18.8438 55.5234 18.7344C55.513 18.8438 55.4896 18.9974 55.4531 19.1953C55.4167 19.3932 55.3724 19.612 55.3203 19.8516C55.2734 20.0859 55.2214 20.3203 55.1641 20.5547C55.1068 20.7839 55.0547 20.987 55.0078 21.1641L53.1328 28H51.0938L48.1172 16.5781H50L51.6484 23.2734C51.7005 23.487 51.7526 23.7188 51.8047 23.9688C51.862 24.2135 51.9141 24.4609 51.9609 24.7109C52.013 24.9609 52.0599 25.2057 52.1016 25.4453C52.1432 25.6797 52.1771 25.8932 52.2031 26.0859C52.2292 25.888 52.263 25.6693 52.3047 25.4297C52.3464 25.1849 52.3906 24.9375 52.4375 24.6875C52.4896 24.4323 52.5417 24.1875 52.5938 23.9531C52.651 23.7188 52.7083 23.5078 52.7656 23.3203L54.625 16.5781H56.4531L58.3516 23.3438C58.4089 23.5365 58.4635 23.7526 58.5156 23.9922C58.5729 24.2318 58.6276 24.4766 58.6797 24.7266C58.7318 24.9766 58.7786 25.2188 58.8203 25.4531C58.862 25.6875 58.8958 25.8984 58.9219 26.0859C58.9583 25.8307 59.0052 25.5391 59.0625 25.2109C59.1198 24.8828 59.1849 24.5495 59.2578 24.2109C59.3307 23.8724 59.4036 23.5599 59.4766 23.2734L61.1172 16.5781H63.0078ZM67.8121 19.1875C68.9059 19.1875 69.7314 19.4297 70.2887 19.9141C70.8512 20.3984 71.1324 21.1536 71.1324 22.1797V28H69.8278L69.4762 26.7734H69.4137C69.1689 27.0859 68.9163 27.3438 68.6559 27.5469C68.3955 27.75 68.0934 27.901 67.7496 28C67.4111 28.1042 66.997 28.1562 66.5074 28.1562C65.9918 28.1562 65.5309 28.0625 65.1246 27.875C64.7184 27.6823 64.3981 27.3906 64.1637 27C63.9293 26.6094 63.8121 26.1146 63.8121 25.5156C63.8121 24.625 64.1429 23.9557 64.8043 23.5078C65.471 23.0599 66.4762 22.8125 67.8199 22.7656L69.3199 22.7109V22.2578C69.3199 21.6589 69.1793 21.2318 68.8981 20.9766C68.622 20.7214 68.2314 20.5938 67.7262 20.5938C67.2939 20.5938 66.8746 20.6562 66.4684 20.7812C66.0621 20.9062 65.6663 21.0599 65.2809 21.2422L64.6871 19.9453C65.109 19.7214 65.5882 19.5391 66.1246 19.3984C66.6663 19.2578 67.2288 19.1875 67.8121 19.1875ZM69.3121 23.8672L68.1949 23.9062C67.2783 23.9375 66.635 24.0938 66.2653 24.375C65.8955 24.6562 65.7106 25.0417 65.7106 25.5312C65.7106 25.9583 65.8382 26.2708 66.0934 26.4688C66.3486 26.6615 66.6845 26.7578 67.1012 26.7578C67.7366 26.7578 68.2626 26.5781 68.6793 26.2188C69.1012 25.8542 69.3121 25.3203 69.3121 24.6172V23.8672ZM78.0696 19.1875C78.2154 19.1875 78.3743 19.1953 78.5461 19.2109C78.718 19.2266 78.8664 19.2474 78.9914 19.2734L78.8196 20.9922C78.7102 20.9609 78.5748 20.9375 78.4133 20.9219C78.2571 20.9062 78.1164 20.8984 77.9914 20.8984C77.6633 20.8984 77.3508 20.9531 77.0539 21.0625C76.7571 21.1667 76.494 21.3281 76.2649 21.5469C76.0357 21.7604 75.856 22.0286 75.7258 22.3516C75.5956 22.6745 75.5305 23.0495 75.5305 23.4766V28H73.6868V19.3516H75.1243L75.3743 20.875H75.4602C75.6321 20.5677 75.8456 20.2865 76.1008 20.0312C76.356 19.776 76.6477 19.5729 76.9758 19.4219C77.3091 19.2656 77.6737 19.1875 78.0696 19.1875ZM85.0848 19.1875C86.0588 19.1875 86.8166 19.4401 87.3582 19.9453C87.9051 20.4453 88.1786 21.25 88.1786 22.3594V28H86.3426V22.7031C86.3426 22.0312 86.2046 21.5286 85.9286 21.1953C85.6525 20.8568 85.2254 20.6875 84.6473 20.6875C83.8088 20.6875 83.2254 20.9453 82.8973 21.4609C82.5744 21.9766 82.4129 22.724 82.4129 23.7031V28H80.577V19.3516H82.0067L82.2645 20.5234H82.3661C82.5536 20.2214 82.7853 19.974 83.0614 19.7812C83.3426 19.5833 83.6551 19.4349 83.9989 19.3359C84.3478 19.237 84.7098 19.1875 85.0848 19.1875ZM92.5688 19.3516V28H90.7329V19.3516H92.5688ZM91.6626 16.0391C91.9438 16.0391 92.186 16.1146 92.3891 16.2656C92.5975 16.4167 92.7016 16.6771 92.7016 17.0469C92.7016 17.4115 92.5975 17.6719 92.3891 17.8281C92.186 17.9792 91.9438 18.0547 91.6626 18.0547C91.3709 18.0547 91.1235 17.9792 90.9204 17.8281C90.7225 17.6719 90.6235 17.4115 90.6235 17.0469C90.6235 16.6771 90.7225 16.4167 90.9204 16.2656C91.1235 16.1146 91.3709 16.0391 91.6626 16.0391ZM99.6934 19.1875C100.667 19.1875 101.425 19.4401 101.967 19.9453C102.514 20.4453 102.787 21.25 102.787 22.3594V28H100.951V22.7031C100.951 22.0312 100.813 21.5286 100.537 21.1953C100.261 20.8568 99.8341 20.6875 99.2559 20.6875C98.4174 20.6875 97.8341 20.9453 97.5059 21.4609C97.183 21.9766 97.0216 22.724 97.0216 23.7031V28H95.1856V19.3516H96.6153L96.8731 20.5234H96.9747C97.1622 20.2214 97.394 19.974 97.67 19.7812C97.9512 19.5833 98.2637 19.4349 98.6075 19.3359C98.9565 19.237 99.3184 19.1875 99.6934 19.1875ZM107.81 31.8438C106.638 31.8438 105.74 31.6328 105.115 31.2109C104.49 30.7891 104.177 30.1979 104.177 29.4375C104.177 28.9062 104.344 28.4557 104.677 28.0859C105.011 27.7214 105.487 27.4688 106.107 27.3281C105.873 27.224 105.67 27.0625 105.498 26.8438C105.331 26.6198 105.248 26.3724 105.248 26.1016C105.248 25.7786 105.339 25.5026 105.521 25.2734C105.703 25.0443 105.977 24.8229 106.341 24.6094C105.888 24.4167 105.524 24.1042 105.248 23.6719C104.977 23.2344 104.841 22.7214 104.841 22.1328C104.841 21.5078 104.974 20.9766 105.24 20.5391C105.506 20.0964 105.894 19.7604 106.404 19.5312C106.914 19.2969 107.532 19.1797 108.256 19.1797C108.412 19.1797 108.581 19.1901 108.763 19.2109C108.951 19.2266 109.123 19.2474 109.279 19.2734C109.44 19.2943 109.563 19.3177 109.646 19.3438H112.638V20.3672L111.17 20.6406C111.31 20.8385 111.422 21.0651 111.506 21.3203C111.589 21.5703 111.631 21.8438 111.631 22.1406C111.631 23.0365 111.321 23.7422 110.701 24.2578C110.086 24.7682 109.237 25.0234 108.154 25.0234C107.894 25.013 107.641 24.9922 107.396 24.9609C107.209 25.0755 107.065 25.2031 106.966 25.3438C106.868 25.4792 106.818 25.6328 106.818 25.8047C106.818 25.9453 106.868 26.0599 106.966 26.1484C107.065 26.2318 107.211 26.2943 107.404 26.3359C107.602 26.3776 107.841 26.3984 108.123 26.3984H109.615C110.563 26.3984 111.287 26.599 111.787 27C112.287 27.401 112.537 27.9896 112.537 28.7656C112.537 29.75 112.131 30.5078 111.318 31.0391C110.506 31.5755 109.336 31.8438 107.81 31.8438ZM107.881 30.5547C108.521 30.5547 109.06 30.4922 109.498 30.3672C109.935 30.2422 110.266 30.0625 110.49 29.8281C110.714 29.599 110.826 29.3255 110.826 29.0078C110.826 28.7266 110.756 28.5104 110.615 28.3594C110.474 28.2083 110.263 28.1042 109.982 28.0469C109.701 27.9896 109.352 27.9609 108.935 27.9609H107.576C107.237 27.9609 106.938 28.013 106.677 28.1172C106.417 28.2266 106.214 28.3828 106.068 28.5859C105.927 28.7891 105.857 29.0339 105.857 29.3203C105.857 29.7161 106.032 30.0208 106.381 30.2344C106.735 30.4479 107.235 30.5547 107.881 30.5547ZM108.24 23.8203C108.776 23.8203 109.175 23.6745 109.435 23.3828C109.696 23.0859 109.826 22.6693 109.826 22.1328C109.826 21.5495 109.69 21.112 109.42 20.8203C109.154 20.5286 108.758 20.3828 108.232 20.3828C107.716 20.3828 107.323 20.5312 107.052 20.8281C106.787 21.125 106.654 21.5651 106.654 22.1484C106.654 22.6745 106.787 23.0859 107.052 23.3828C107.323 23.6745 107.719 23.8203 108.24 23.8203ZM128.114 19.1875C129.083 19.1875 129.812 19.4375 130.302 19.9375C130.796 20.4375 131.044 21.2396 131.044 22.3438V28H129.208V22.6719C129.208 22.0156 129.08 21.5208 128.825 21.1875C128.57 20.8542 128.182 20.6875 127.661 20.6875C126.932 20.6875 126.406 20.9219 126.083 21.3906C125.765 21.8542 125.606 22.5286 125.606 23.4141V28H123.77V22.6719C123.77 22.2344 123.713 21.8698 123.599 21.5781C123.489 21.2812 123.32 21.0599 123.091 20.9141C122.862 20.763 122.573 20.6875 122.224 20.6875C121.718 20.6875 121.315 20.8021 121.013 21.0312C120.716 21.2604 120.502 21.599 120.372 22.0469C120.242 22.4896 120.177 23.0339 120.177 23.6797V28H118.341V19.3516H119.77L120.028 20.5156H120.13C120.307 20.2135 120.526 19.9661 120.786 19.7734C121.052 19.5755 121.346 19.4297 121.669 19.3359C121.992 19.237 122.328 19.1875 122.677 19.1875C123.323 19.1875 123.867 19.3021 124.31 19.5312C124.752 19.7552 125.083 20.099 125.302 20.5625H125.442C125.713 20.0938 126.091 19.7474 126.575 19.5234C127.06 19.2995 127.573 19.1875 128.114 19.1875ZM137.036 19.1875C137.807 19.1875 138.468 19.3464 139.02 19.6641C139.572 19.9818 139.997 20.4323 140.294 21.0156C140.59 21.599 140.739 22.2969 140.739 23.1094V24.0938H134.965C134.986 24.9323 135.21 25.5781 135.637 26.0312C136.07 26.4844 136.674 26.7109 137.45 26.7109C138.002 26.7109 138.497 26.6589 138.934 26.5547C139.377 26.4453 139.833 26.2865 140.301 26.0781V27.5703C139.869 27.7734 139.429 27.9219 138.981 28.0156C138.533 28.1094 137.997 28.1562 137.372 28.1562C136.523 28.1562 135.775 27.9922 135.129 27.6641C134.489 27.3307 133.986 26.8359 133.622 26.1797C133.262 25.5234 133.083 24.7083 133.083 23.7344C133.083 22.7656 133.247 21.9427 133.575 21.2656C133.903 20.5885 134.364 20.0729 134.958 19.7188C135.551 19.3646 136.244 19.1875 137.036 19.1875ZM137.036 20.5703C136.458 20.5703 135.989 20.7578 135.629 21.1328C135.275 21.5078 135.067 22.0573 135.004 22.7812H138.942C138.937 22.349 138.864 21.9661 138.723 21.6328C138.588 21.2995 138.379 21.0391 138.098 20.8516C137.822 20.6641 137.468 20.5703 137.036 20.5703ZM148.606 25.5312C148.606 26.099 148.468 26.5781 148.192 26.9688C147.916 27.3594 147.512 27.6562 146.981 27.8594C146.455 28.0573 145.809 28.1562 145.043 28.1562C144.439 28.1562 143.918 28.112 143.481 28.0234C143.048 27.9401 142.639 27.8099 142.254 27.6328V26.0469C142.666 26.2396 143.126 26.4062 143.637 26.5469C144.152 26.6875 144.639 26.7578 145.098 26.7578C145.702 26.7578 146.137 26.6641 146.402 26.4766C146.668 26.2839 146.801 26.0286 146.801 25.7109C146.801 25.5234 146.746 25.3568 146.637 25.2109C146.533 25.0599 146.335 24.9062 146.043 24.75C145.757 24.5885 145.335 24.3958 144.777 24.1719C144.231 23.9531 143.77 23.7344 143.395 23.5156C143.02 23.2969 142.736 23.0339 142.543 22.7266C142.35 22.4141 142.254 22.0156 142.254 21.5312C142.254 20.7656 142.556 20.1849 143.16 19.7891C143.77 19.388 144.574 19.1875 145.574 19.1875C146.106 19.1875 146.606 19.2422 147.074 19.3516C147.548 19.4557 148.012 19.6094 148.465 19.8125L147.887 21.1953C147.496 21.0234 147.103 20.8828 146.707 20.7734C146.317 20.6589 145.918 20.6016 145.512 20.6016C145.038 20.6016 144.676 20.6745 144.426 20.8203C144.181 20.9661 144.059 21.1745 144.059 21.4453C144.059 21.6484 144.119 21.8203 144.238 21.9609C144.358 22.1016 144.564 22.2422 144.856 22.3828C145.152 22.5234 145.564 22.6979 146.09 22.9062C146.606 23.1042 147.051 23.3125 147.426 23.5312C147.806 23.7448 148.098 24.0078 148.301 24.3203C148.504 24.6328 148.606 25.0365 148.606 25.5312ZM156.386 25.5312C156.386 26.099 156.248 26.5781 155.972 26.9688C155.696 27.3594 155.293 27.6562 154.761 27.8594C154.235 28.0573 153.59 28.1562 152.824 28.1562C152.22 28.1562 151.699 28.112 151.261 28.0234C150.829 27.9401 150.42 27.8099 150.035 27.6328V26.0469C150.446 26.2396 150.907 26.4062 151.418 26.5469C151.933 26.6875 152.42 26.7578 152.879 26.7578C153.483 26.7578 153.918 26.6641 154.183 26.4766C154.449 26.2839 154.582 26.0286 154.582 25.7109C154.582 25.5234 154.527 25.3568 154.418 25.2109C154.314 25.0599 154.116 24.9062 153.824 24.75C153.538 24.5885 153.116 24.3958 152.558 24.1719C152.011 23.9531 151.551 23.7344 151.176 23.5156C150.801 23.2969 150.517 23.0339 150.324 22.7266C150.131 22.4141 150.035 22.0156 150.035 21.5312C150.035 20.7656 150.337 20.1849 150.941 19.7891C151.551 19.388 152.355 19.1875 153.355 19.1875C153.886 19.1875 154.386 19.2422 154.855 19.3516C155.329 19.4557 155.793 19.6094 156.246 19.8125L155.668 21.1953C155.277 21.0234 154.884 20.8828 154.488 20.7734C154.097 20.6589 153.699 20.6016 153.293 20.6016C152.819 20.6016 152.457 20.6745 152.207 20.8203C151.962 20.9661 151.84 21.1745 151.84 21.4453C151.84 21.6484 151.9 21.8203 152.019 21.9609C152.139 22.1016 152.345 22.2422 152.636 22.3828C152.933 22.5234 153.345 22.6979 153.871 22.9062C154.386 23.1042 154.832 23.3125 155.207 23.5312C155.587 23.7448 155.879 24.0078 156.082 24.3203C156.285 24.6328 156.386 25.0365 156.386 25.5312ZM161.745 19.1875C162.839 19.1875 163.665 19.4297 164.222 19.9141C164.785 20.3984 165.066 21.1536 165.066 22.1797V28H163.761L163.41 26.7734H163.347C163.102 27.0859 162.85 27.3438 162.589 27.5469C162.329 27.75 162.027 27.901 161.683 28C161.344 28.1042 160.93 28.1562 160.441 28.1562C159.925 28.1562 159.464 28.0625 159.058 27.875C158.652 27.6823 158.331 27.3906 158.097 27C157.863 26.6094 157.745 26.1146 157.745 25.5156C157.745 24.625 158.076 23.9557 158.738 23.5078C159.404 23.0599 160.41 22.8125 161.753 22.7656L163.253 22.7109V22.2578C163.253 21.6589 163.113 21.2318 162.831 20.9766C162.555 20.7214 162.165 20.5938 161.66 20.5938C161.227 20.5938 160.808 20.6562 160.402 20.7812C159.995 20.9062 159.6 21.0599 159.214 21.2422L158.62 19.9453C159.042 19.7214 159.522 19.5391 160.058 19.3984C160.6 19.2578 161.162 19.1875 161.745 19.1875ZM163.245 23.8672L162.128 23.9062C161.212 23.9375 160.568 24.0938 160.199 24.375C159.829 24.6562 159.644 25.0417 159.644 25.5312C159.644 25.9583 159.772 26.2708 160.027 26.4688C160.282 26.6615 160.618 26.7578 161.035 26.7578C161.67 26.7578 162.196 26.5781 162.613 26.2188C163.035 25.8542 163.245 25.3203 163.245 24.6172V23.8672ZM170.089 31.8438C168.917 31.8438 168.019 31.6328 167.394 31.2109C166.769 30.7891 166.456 30.1979 166.456 29.4375C166.456 28.9062 166.623 28.4557 166.956 28.0859C167.289 27.7214 167.766 27.4688 168.386 27.3281C168.151 27.224 167.948 27.0625 167.776 26.8438C167.61 26.6198 167.526 26.3724 167.526 26.1016C167.526 25.7786 167.618 25.5026 167.8 25.2734C167.982 25.0443 168.256 24.8229 168.62 24.6094C168.167 24.4167 167.802 24.1042 167.526 23.6719C167.256 23.2344 167.12 22.7214 167.12 22.1328C167.12 21.5078 167.253 20.9766 167.519 20.5391C167.784 20.0964 168.172 19.7604 168.683 19.5312C169.193 19.2969 169.81 19.1797 170.534 19.1797C170.69 19.1797 170.86 19.1901 171.042 19.2109C171.229 19.2266 171.401 19.2474 171.558 19.2734C171.719 19.2943 171.841 19.3177 171.925 19.3438H174.917V20.3672L173.448 20.6406C173.589 20.8385 173.701 21.0651 173.784 21.3203C173.868 21.5703 173.909 21.8438 173.909 22.1406C173.909 23.0365 173.599 23.7422 172.979 24.2578C172.365 24.7682 171.516 25.0234 170.433 25.0234C170.172 25.013 169.92 24.9922 169.675 24.9609C169.487 25.0755 169.344 25.2031 169.245 25.3438C169.146 25.4792 169.097 25.6328 169.097 25.8047C169.097 25.9453 169.146 26.0599 169.245 26.1484C169.344 26.2318 169.49 26.2943 169.683 26.3359C169.881 26.3776 170.12 26.3984 170.401 26.3984H171.894C172.841 26.3984 173.565 26.599 174.065 27C174.565 27.401 174.815 27.9896 174.815 28.7656C174.815 29.75 174.409 30.5078 173.597 31.0391C172.784 31.5755 171.615 31.8438 170.089 31.8438ZM170.159 30.5547C170.8 30.5547 171.339 30.4922 171.776 30.3672C172.214 30.2422 172.545 30.0625 172.769 29.8281C172.993 29.599 173.104 29.3255 173.104 29.0078C173.104 28.7266 173.034 28.5104 172.894 28.3594C172.753 28.2083 172.542 28.1042 172.261 28.0469C171.979 27.9896 171.631 27.9609 171.214 27.9609H169.854C169.516 27.9609 169.216 28.013 168.956 28.1172C168.696 28.2266 168.493 28.3828 168.347 28.5859C168.206 28.7891 168.136 29.0339 168.136 29.3203C168.136 29.7161 168.31 30.0208 168.659 30.2344C169.013 30.4479 169.513 30.5547 170.159 30.5547ZM170.519 23.8203C171.055 23.8203 171.453 23.6745 171.714 23.3828C171.974 23.0859 172.104 22.6693 172.104 22.1328C172.104 21.5495 171.969 21.112 171.698 20.8203C171.433 20.5286 171.037 20.3828 170.511 20.3828C169.995 20.3828 169.602 20.5312 169.331 20.8281C169.065 21.125 168.933 21.5651 168.933 22.1484C168.933 22.6745 169.065 23.0859 169.331 23.3828C169.602 23.6745 169.998 23.8203 170.519 23.8203ZM179.924 19.1875C180.695 19.1875 181.357 19.3464 181.909 19.6641C182.461 19.9818 182.885 20.4323 183.182 21.0156C183.479 21.599 183.628 22.2969 183.628 23.1094V24.0938H177.854C177.875 24.9323 178.099 25.5781 178.526 26.0312C178.958 26.4844 179.562 26.7109 180.339 26.7109C180.891 26.7109 181.385 26.6589 181.823 26.5547C182.266 26.4453 182.721 26.2865 183.19 26.0781V27.5703C182.758 27.7734 182.318 27.9219 181.87 28.0156C181.422 28.1094 180.885 28.1562 180.26 28.1562C179.411 28.1562 178.664 27.9922 178.018 27.6641C177.378 27.3307 176.875 26.8359 176.51 26.1797C176.151 25.5234 175.971 24.7083 175.971 23.7344C175.971 22.7656 176.135 21.9427 176.464 21.2656C176.792 20.5885 177.253 20.0729 177.846 19.7188C178.44 19.3646 179.133 19.1875 179.924 19.1875ZM179.924 20.5703C179.346 20.5703 178.878 20.7578 178.518 21.1328C178.164 21.5078 177.956 22.0573 177.893 22.7812H181.831C181.825 22.349 181.753 21.9661 181.612 21.6328C181.477 21.2995 181.268 21.0391 180.987 20.8516C180.711 20.6641 180.357 20.5703 179.924 20.5703ZM185.416 27.0312C185.416 26.6042 185.526 26.3047 185.744 26.1328C185.968 25.9557 186.239 25.8672 186.557 25.8672C186.875 25.8672 187.145 25.9557 187.369 26.1328C187.599 26.3047 187.713 26.6042 187.713 27.0312C187.713 27.4479 187.599 27.75 187.369 27.9375C187.145 28.1198 186.875 28.2109 186.557 28.2109C186.239 28.2109 185.968 28.1198 185.744 27.9375C185.526 27.75 185.416 27.4479 185.416 27.0312Z" fill="#FF8B00"/>
</g>
<defs>
<clipPath id="clip0_332_8092">
<rect width="24" height="24" fill="white" transform="translate(16 10)"/>
</clipPath>
<clipPath id="clip1_332_8092">
<rect width="141" height="20" fill="white" transform="translate(48 12)"/>
</clipPath>
</defs>
</svg>
