<svg width="317" height="257" viewBox="0 0 317 257" fill="none" xmlns="http://www.w3.org/2000/svg">
<g filter="url(#filter0_d_1462_6440)">
<rect x="56" y="4" width="208" height="241" rx="4" fill="white"/>
<rect width="208" height="32" transform="translate(56 12)" fill="white"/>
<path d="M74.8711 32H74.3633V25.3154H72.0488V24.8613H77.1855V25.3154H74.8711V32ZM78.25 32V24.8613H78.7529V32H78.25ZM82.6348 32H82.127V25.3154H79.8125V24.8613H84.9492V25.3154H82.6348V32ZM86.0137 32V24.8613H86.5166V31.541H89.915V32H86.0137ZM95.042 32H91.1406V24.8613H95.042V25.3154H91.6436V28.0205H94.8516V28.4746H91.6436V31.5459H95.042V32Z" fill="#696F8C"/>
<rect width="208" height="40" transform="translate(56 44)" fill="#EBF0FF"/>
<path d="M56 44C57.1046 44 58 44.8954 58 46V82C58 83.1046 57.1046 84 56 84V44Z" fill="#3366FF"/>
<path d="M105.367 68V58.0059H106.529V66.9609H110.966V68H105.367ZM115.313 60.3848C116.207 60.3848 116.87 60.5853 117.303 60.9863C117.736 61.3874 117.952 62.0277 117.952 62.9072V68H117.125L116.906 66.8926H116.852C116.642 67.166 116.423 67.3962 116.195 67.583C115.967 67.7653 115.703 67.9043 115.402 68C115.106 68.0911 114.742 68.1367 114.309 68.1367C113.853 68.1367 113.447 68.057 113.092 67.8975C112.741 67.738 112.463 67.4964 112.258 67.1729C112.057 66.8493 111.957 66.4391 111.957 65.9424C111.957 65.195 112.253 64.6208 112.846 64.2197C113.438 63.8187 114.34 63.5999 115.553 63.5635L116.845 63.5088V63.0508C116.845 62.4036 116.706 61.9502 116.428 61.6904C116.15 61.4307 115.758 61.3008 115.252 61.3008C114.86 61.3008 114.486 61.3577 114.131 61.4717C113.775 61.5856 113.438 61.7201 113.119 61.875L112.771 61.0137C113.108 60.8405 113.495 60.6924 113.933 60.5693C114.37 60.4463 114.83 60.3848 115.313 60.3848ZM116.831 64.3086L115.689 64.3564C114.755 64.3929 114.097 64.5456 113.714 64.8145C113.331 65.0833 113.14 65.4639 113.14 65.9561C113.14 66.3844 113.27 66.7012 113.529 66.9062C113.789 67.1113 114.133 67.2139 114.562 67.2139C115.227 67.2139 115.771 67.0293 116.195 66.6602C116.619 66.291 116.831 65.7373 116.831 64.999V64.3086ZM121.425 57.3633V60.0225C121.425 60.3278 121.416 60.624 121.397 60.9111C121.384 61.1982 121.372 61.4215 121.363 61.5811H121.425C121.63 61.2438 121.926 60.959 122.313 60.7266C122.701 60.4941 123.195 60.3779 123.797 60.3779C124.736 60.3779 125.483 60.7038 126.039 61.3555C126.6 62.0026 126.88 62.9665 126.88 64.2471C126.88 65.0902 126.752 65.8011 126.497 66.3799C126.242 66.9587 125.882 67.3962 125.417 67.6924C124.952 67.9886 124.403 68.1367 123.77 68.1367C123.177 68.1367 122.689 68.0273 122.307 67.8086C121.928 67.5853 121.637 67.3141 121.432 66.9951H121.343L121.11 68H120.29V57.3633H121.425ZM123.612 61.3281C123.07 61.3281 122.639 61.4352 122.32 61.6494C122.001 61.859 121.771 62.1781 121.63 62.6064C121.493 63.0303 121.425 63.568 121.425 64.2197V64.2812C121.425 65.2246 121.582 65.9469 121.896 66.4482C122.211 66.945 122.783 67.1934 123.612 67.1934C124.31 67.1934 124.831 66.9382 125.178 66.4277C125.529 65.9173 125.704 65.1882 125.704 64.2402C125.704 63.2741 125.531 62.5472 125.185 62.0596C124.843 61.5719 124.319 61.3281 123.612 61.3281ZM131.747 60.3711C132.385 60.3711 132.932 60.5124 133.388 60.7949C133.843 61.0775 134.192 61.474 134.434 61.9844C134.675 62.4902 134.796 63.0827 134.796 63.7617V64.4658H129.621C129.635 65.3454 129.854 66.0153 130.277 66.4756C130.701 66.9359 131.298 67.166 132.068 67.166C132.542 67.166 132.962 67.1227 133.326 67.0361C133.691 66.9495 134.069 66.8219 134.461 66.6533V67.6514C134.083 67.82 133.707 67.943 133.333 68.0205C132.964 68.098 132.526 68.1367 132.021 68.1367C131.3 68.1367 130.672 67.9909 130.134 67.6992C129.601 67.403 129.186 66.9701 128.89 66.4004C128.593 65.8307 128.445 65.1335 128.445 64.3086C128.445 63.502 128.58 62.8047 128.849 62.2168C129.122 61.6243 129.505 61.1686 129.997 60.8496C130.494 60.5306 131.077 60.3711 131.747 60.3711ZM131.733 61.3008C131.127 61.3008 130.644 61.499 130.284 61.8955C129.924 62.292 129.71 62.8457 129.642 63.5566H133.606C133.602 63.11 133.531 62.7181 133.395 62.3809C133.262 62.0391 133.06 61.7747 132.786 61.5879C132.513 61.3965 132.162 61.3008 131.733 61.3008ZM137.865 68H136.724V57.3633H137.865V68Z" fill="#3366FF"/>
<path fill-rule="evenodd" clip-rule="evenodd" d="M78 66C76.9 66 76 65.1 76 64V59H73C72.45 59 72 59.45 72 60V68C72 68.55 72.45 69 73 69V71C73 71.55 73.45 72 74 72C74.28 72 74.53 71.89 74.71 71.71L77.41 69H82C82.55 69 83 68.55 83 68V66.83L82.17 66H78ZM87 56H78C77.45 56 77 56.45 77 57V64C77 64.55 77.45 65 78 65H82.59L85.3 67.71C85.47 67.89 85.72 68 86 68C86.55 68 87 67.55 87 67V65C87.55 65 88 64.55 88 64V57C88 56.45 87.55 56 87 56Z" fill="#3366FF"/>
<rect width="208" height="40" transform="translate(56 84)" fill="white"/>
<path d="M105.367 108V98.0059H106.529V106.961H110.966V108H105.367ZM115.313 100.385C116.207 100.385 116.87 100.585 117.303 100.986C117.736 101.387 117.952 102.028 117.952 102.907V108H117.125L116.906 106.893H116.852C116.642 107.166 116.423 107.396 116.195 107.583C115.967 107.765 115.703 107.904 115.402 108C115.106 108.091 114.742 108.137 114.309 108.137C113.853 108.137 113.447 108.057 113.092 107.897C112.741 107.738 112.463 107.496 112.258 107.173C112.057 106.849 111.957 106.439 111.957 105.942C111.957 105.195 112.253 104.621 112.846 104.22C113.438 103.819 114.34 103.6 115.553 103.563L116.845 103.509V103.051C116.845 102.404 116.706 101.95 116.428 101.69C116.15 101.431 115.758 101.301 115.252 101.301C114.86 101.301 114.486 101.358 114.131 101.472C113.775 101.586 113.438 101.72 113.119 101.875L112.771 101.014C113.108 100.84 113.495 100.692 113.933 100.569C114.37 100.446 114.83 100.385 115.313 100.385ZM116.831 104.309L115.689 104.356C114.755 104.393 114.097 104.546 113.714 104.814C113.331 105.083 113.14 105.464 113.14 105.956C113.14 106.384 113.27 106.701 113.529 106.906C113.789 107.111 114.133 107.214 114.562 107.214C115.227 107.214 115.771 107.029 116.195 106.66C116.619 106.291 116.831 105.737 116.831 104.999V104.309ZM121.425 97.3633V100.022C121.425 100.328 121.416 100.624 121.397 100.911C121.384 101.198 121.372 101.422 121.363 101.581H121.425C121.63 101.244 121.926 100.959 122.313 100.727C122.701 100.494 123.195 100.378 123.797 100.378C124.736 100.378 125.483 100.704 126.039 101.355C126.6 102.003 126.88 102.966 126.88 104.247C126.88 105.09 126.752 105.801 126.497 106.38C126.242 106.959 125.882 107.396 125.417 107.692C124.952 107.989 124.403 108.137 123.77 108.137C123.177 108.137 122.689 108.027 122.307 107.809C121.928 107.585 121.637 107.314 121.432 106.995H121.343L121.11 108H120.29V97.3633H121.425ZM123.612 101.328C123.07 101.328 122.639 101.435 122.32 101.649C122.001 101.859 121.771 102.178 121.63 102.606C121.493 103.03 121.425 103.568 121.425 104.22V104.281C121.425 105.225 121.582 105.947 121.896 106.448C122.211 106.945 122.783 107.193 123.612 107.193C124.31 107.193 124.831 106.938 125.178 106.428C125.529 105.917 125.704 105.188 125.704 104.24C125.704 103.274 125.531 102.547 125.185 102.06C124.843 101.572 124.319 101.328 123.612 101.328ZM131.747 100.371C132.385 100.371 132.932 100.512 133.388 100.795C133.843 101.077 134.192 101.474 134.434 101.984C134.675 102.49 134.796 103.083 134.796 103.762V104.466H129.621C129.635 105.345 129.854 106.015 130.277 106.476C130.701 106.936 131.298 107.166 132.068 107.166C132.542 107.166 132.962 107.123 133.326 107.036C133.691 106.95 134.069 106.822 134.461 106.653V107.651C134.083 107.82 133.707 107.943 133.333 108.021C132.964 108.098 132.526 108.137 132.021 108.137C131.3 108.137 130.672 107.991 130.134 107.699C129.601 107.403 129.186 106.97 128.89 106.4C128.593 105.831 128.445 105.133 128.445 104.309C128.445 103.502 128.58 102.805 128.849 102.217C129.122 101.624 129.505 101.169 129.997 100.85C130.494 100.531 131.077 100.371 131.747 100.371ZM131.733 101.301C131.127 101.301 130.644 101.499 130.284 101.896C129.924 102.292 129.71 102.846 129.642 103.557H133.606C133.602 103.11 133.531 102.718 133.395 102.381C133.262 102.039 133.06 101.775 132.786 101.588C132.513 101.396 132.162 101.301 131.733 101.301ZM137.865 108H136.724V97.3633H137.865V108Z" fill="#474D66"/>
<path fill-rule="evenodd" clip-rule="evenodd" d="M78 106C76.9 106 76 105.1 76 104V99H73C72.45 99 72 99.45 72 100V108C72 108.55 72.45 109 73 109V111C73 111.55 73.45 112 74 112C74.28 112 74.53 111.89 74.71 111.71L77.41 109H82C82.55 109 83 108.55 83 108V106.83L82.17 106H78ZM87 96H78C77.45 96 77 96.45 77 97V104C77 104.55 77.45 105 78 105H82.59L85.3 107.71C85.47 107.89 85.72 108 86 108C86.55 108 87 107.55 87 107V105C87.55 105 88 104.55 88 104V97C88 96.45 87.55 96 87 96Z" fill="#8F95B2"/>
<rect width="208" height="40" transform="translate(56 124)" fill="white"/>
<path d="M105.367 148V138.006H106.529V146.961H110.966V148H105.367ZM115.313 140.385C116.207 140.385 116.87 140.585 117.303 140.986C117.736 141.387 117.952 142.028 117.952 142.907V148H117.125L116.906 146.893H116.852C116.642 147.166 116.423 147.396 116.195 147.583C115.967 147.765 115.703 147.904 115.402 148C115.106 148.091 114.742 148.137 114.309 148.137C113.853 148.137 113.447 148.057 113.092 147.897C112.741 147.738 112.463 147.496 112.258 147.173C112.057 146.849 111.957 146.439 111.957 145.942C111.957 145.195 112.253 144.621 112.846 144.22C113.438 143.819 114.34 143.6 115.553 143.563L116.845 143.509V143.051C116.845 142.404 116.706 141.95 116.428 141.69C116.15 141.431 115.758 141.301 115.252 141.301C114.86 141.301 114.486 141.358 114.131 141.472C113.775 141.586 113.438 141.72 113.119 141.875L112.771 141.014C113.108 140.84 113.495 140.692 113.933 140.569C114.37 140.446 114.83 140.385 115.313 140.385ZM116.831 144.309L115.689 144.356C114.755 144.393 114.097 144.546 113.714 144.814C113.331 145.083 113.14 145.464 113.14 145.956C113.14 146.384 113.27 146.701 113.529 146.906C113.789 147.111 114.133 147.214 114.562 147.214C115.227 147.214 115.771 147.029 116.195 146.66C116.619 146.291 116.831 145.737 116.831 144.999V144.309ZM121.425 137.363V140.022C121.425 140.328 121.416 140.624 121.397 140.911C121.384 141.198 121.372 141.422 121.363 141.581H121.425C121.63 141.244 121.926 140.959 122.313 140.727C122.701 140.494 123.195 140.378 123.797 140.378C124.736 140.378 125.483 140.704 126.039 141.355C126.6 142.003 126.88 142.966 126.88 144.247C126.88 145.09 126.752 145.801 126.497 146.38C126.242 146.959 125.882 147.396 125.417 147.692C124.952 147.989 124.403 148.137 123.77 148.137C123.177 148.137 122.689 148.027 122.307 147.809C121.928 147.585 121.637 147.314 121.432 146.995H121.343L121.11 148H120.29V137.363H121.425ZM123.612 141.328C123.07 141.328 122.639 141.435 122.32 141.649C122.001 141.859 121.771 142.178 121.63 142.606C121.493 143.03 121.425 143.568 121.425 144.22V144.281C121.425 145.225 121.582 145.947 121.896 146.448C122.211 146.945 122.783 147.193 123.612 147.193C124.31 147.193 124.831 146.938 125.178 146.428C125.529 145.917 125.704 145.188 125.704 144.24C125.704 143.274 125.531 142.547 125.185 142.06C124.843 141.572 124.319 141.328 123.612 141.328ZM131.747 140.371C132.385 140.371 132.932 140.512 133.388 140.795C133.843 141.077 134.192 141.474 134.434 141.984C134.675 142.49 134.796 143.083 134.796 143.762V144.466H129.621C129.635 145.345 129.854 146.015 130.277 146.476C130.701 146.936 131.298 147.166 132.068 147.166C132.542 147.166 132.962 147.123 133.326 147.036C133.691 146.95 134.069 146.822 134.461 146.653V147.651C134.083 147.82 133.707 147.943 133.333 148.021C132.964 148.098 132.526 148.137 132.021 148.137C131.3 148.137 130.672 147.991 130.134 147.699C129.601 147.403 129.186 146.97 128.89 146.4C128.593 145.831 128.445 145.133 128.445 144.309C128.445 143.502 128.58 142.805 128.849 142.217C129.122 141.624 129.505 141.169 129.997 140.85C130.494 140.531 131.077 140.371 131.747 140.371ZM131.733 141.301C131.127 141.301 130.644 141.499 130.284 141.896C129.924 142.292 129.71 142.846 129.642 143.557H133.606C133.602 143.11 133.531 142.718 133.395 142.381C133.262 142.039 133.06 141.775 132.786 141.588C132.513 141.396 132.162 141.301 131.733 141.301ZM137.865 148H136.724V137.363H137.865V148Z" fill="#474D66"/>
<path fill-rule="evenodd" clip-rule="evenodd" d="M87.0495 143.52C86.5319 143.52 86.1084 143.944 86.1084 144.461C86.1084 147.577 83.5766 150.108 80.4613 150.108C78.7954 150.108 77.2989 149.374 76.2636 148.226H77.6378C78.1554 148.226 78.5789 147.802 78.5789 147.285C78.5789 146.767 78.1554 146.344 77.6378 146.344H73.8731C73.3554 146.344 72.9319 146.767 72.9319 147.285V151.05C72.9319 151.567 73.3554 151.991 73.8731 151.991C74.3907 151.991 74.8142 151.567 74.8142 151.05V149.412C76.1884 150.984 78.2025 151.991 80.4613 151.991C84.6213 151.991 87.9907 148.621 87.9907 144.461C87.9907 143.944 87.5672 143.52 87.0495 143.52ZM87.0495 136.932C86.5319 136.932 86.1084 137.355 86.1084 137.873V139.511C84.7342 137.939 82.7201 136.932 80.4613 136.932C76.3013 136.932 72.9319 140.301 72.9319 144.461C72.9319 144.979 73.3554 145.402 73.8731 145.402C74.3907 145.402 74.8142 144.979 74.8142 144.461C74.8142 141.346 77.346 138.814 80.4613 138.814C82.1272 138.814 83.6236 139.548 84.6589 140.697H83.2848C82.7672 140.697 82.3436 141.12 82.3436 141.638C82.3436 142.155 82.7672 142.579 83.2848 142.579H87.0495C87.5672 142.579 87.9907 142.155 87.9907 141.638V137.873C87.9907 137.355 87.5672 136.932 87.0495 136.932Z" fill="#8F95B2"/>
<rect x="56" y="164" width="208" height="1" fill="#E6E8F0"/>
<rect width="208" height="32" transform="translate(56 165)" fill="white"/>
<path d="M74.8711 185H74.3633V178.315H72.0488V177.861H77.1855V178.315H74.8711V185ZM78.25 185V177.861H78.7529V185H78.25ZM82.6348 185H82.127V178.315H79.8125V177.861H84.9492V178.315H82.6348V185ZM86.0137 185V177.861H86.5166V184.541H89.915V185H86.0137ZM95.042 185H91.1406V177.861H95.042V178.315H91.6436V181.021H94.8516V181.475H91.6436V184.546H95.042V185Z" fill="#696F8C"/>
<rect width="208" height="40" transform="translate(56 197)" fill="white"/>
<path d="M105.367 221V211.006H106.529V219.961H110.966V221H105.367ZM115.313 213.385C116.207 213.385 116.87 213.585 117.303 213.986C117.736 214.387 117.952 215.028 117.952 215.907V221H117.125L116.906 219.893H116.852C116.642 220.166 116.423 220.396 116.195 220.583C115.967 220.765 115.703 220.904 115.402 221C115.106 221.091 114.742 221.137 114.309 221.137C113.853 221.137 113.447 221.057 113.092 220.897C112.741 220.738 112.463 220.496 112.258 220.173C112.057 219.849 111.957 219.439 111.957 218.942C111.957 218.195 112.253 217.621 112.846 217.22C113.438 216.819 114.34 216.6 115.553 216.563L116.845 216.509V216.051C116.845 215.404 116.706 214.95 116.428 214.69C116.15 214.431 115.758 214.301 115.252 214.301C114.86 214.301 114.486 214.358 114.131 214.472C113.775 214.586 113.438 214.72 113.119 214.875L112.771 214.014C113.108 213.84 113.495 213.692 113.933 213.569C114.37 213.446 114.83 213.385 115.313 213.385ZM116.831 217.309L115.689 217.356C114.755 217.393 114.097 217.546 113.714 217.814C113.331 218.083 113.14 218.464 113.14 218.956C113.14 219.384 113.27 219.701 113.529 219.906C113.789 220.111 114.133 220.214 114.562 220.214C115.227 220.214 115.771 220.029 116.195 219.66C116.619 219.291 116.831 218.737 116.831 217.999V217.309ZM121.425 210.363V213.022C121.425 213.328 121.416 213.624 121.397 213.911C121.384 214.198 121.372 214.422 121.363 214.581H121.425C121.63 214.244 121.926 213.959 122.313 213.727C122.701 213.494 123.195 213.378 123.797 213.378C124.736 213.378 125.483 213.704 126.039 214.355C126.6 215.003 126.88 215.966 126.88 217.247C126.88 218.09 126.752 218.801 126.497 219.38C126.242 219.959 125.882 220.396 125.417 220.692C124.952 220.989 124.403 221.137 123.77 221.137C123.177 221.137 122.689 221.027 122.307 220.809C121.928 220.585 121.637 220.314 121.432 219.995H121.343L121.11 221H120.29V210.363H121.425ZM123.612 214.328C123.07 214.328 122.639 214.435 122.32 214.649C122.001 214.859 121.771 215.178 121.63 215.606C121.493 216.03 121.425 216.568 121.425 217.22V217.281C121.425 218.225 121.582 218.947 121.896 219.448C122.211 219.945 122.783 220.193 123.612 220.193C124.31 220.193 124.831 219.938 125.178 219.428C125.529 218.917 125.704 218.188 125.704 217.24C125.704 216.274 125.531 215.547 125.185 215.06C124.843 214.572 124.319 214.328 123.612 214.328ZM131.747 213.371C132.385 213.371 132.932 213.512 133.388 213.795C133.843 214.077 134.192 214.474 134.434 214.984C134.675 215.49 134.796 216.083 134.796 216.762V217.466H129.621C129.635 218.345 129.854 219.015 130.277 219.476C130.701 219.936 131.298 220.166 132.068 220.166C132.542 220.166 132.962 220.123 133.326 220.036C133.691 219.95 134.069 219.822 134.461 219.653V220.651C134.083 220.82 133.707 220.943 133.333 221.021C132.964 221.098 132.526 221.137 132.021 221.137C131.3 221.137 130.672 220.991 130.134 220.699C129.601 220.403 129.186 219.97 128.89 219.4C128.593 218.831 128.445 218.133 128.445 217.309C128.445 216.502 128.58 215.805 128.849 215.217C129.122 214.624 129.505 214.169 129.997 213.85C130.494 213.531 131.077 213.371 131.747 213.371ZM131.733 214.301C131.127 214.301 130.644 214.499 130.284 214.896C129.924 215.292 129.71 215.846 129.642 216.557H133.606C133.602 216.11 133.531 215.718 133.395 215.381C133.262 215.039 133.06 214.775 132.786 214.588C132.513 214.396 132.162 214.301 131.733 214.301ZM137.865 221H136.724V210.363H137.865V221Z" fill="#D14343"/>
<path fill-rule="evenodd" clip-rule="evenodd" d="M81.41 217L84.7 213.71C84.89 213.53 85 213.28 85 213C85 212.45 84.55 212 84 212C83.72 212 83.47 212.11 83.29 212.29L80 215.59L76.71 212.29C76.53 212.11 76.28 212 76 212C75.45 212 75 212.45 75 213C75 213.28 75.11 213.53 75.29 213.71L78.59 217L75.3 220.29C75.11 220.47 75 220.72 75 221C75 221.55 75.45 222 76 222C76.28 222 76.53 221.89 76.71 221.71L80 218.41L83.29 221.7C83.47 221.89 83.72 222 84 222C84.55 222 85 221.55 85 221C85 220.72 84.89 220.47 84.71 220.29L81.41 217Z" fill="#D14343"/>
</g>
<circle cx="15" cy="28" r="14.5" transform="rotate(-90 15 28)" fill="#101840" stroke="#101840"/>
<path d="M16.457 33.5H14.6465V28.543L14.6641 27.7285L14.6934 26.8379C14.3926 27.1387 14.1836 27.3359 14.0664 27.4297L13.082 28.2207L12.209 27.1309L14.9688 24.9336H16.457V33.5Z" fill="white"/>
<path d="M30 28L66 28" stroke="#101840" stroke-width="2"/>
<circle cx="64" cy="28" r="2.5" transform="rotate(-90 64 28)" fill="#101840" stroke="#101840"/>
<circle cx="302" cy="65" r="14.5" transform="rotate(90 302 65)" fill="#101840" stroke="#101840"/>
<path d="M304.969 69.5H298.98V68.2402L301.131 66.0664C301.564 65.6211 301.912 65.25 302.174 64.9531C302.439 64.6523 302.631 64.3789 302.748 64.1328C302.869 63.8867 302.93 63.623 302.93 63.3418C302.93 63.002 302.834 62.748 302.643 62.5801C302.455 62.4082 302.203 62.3223 301.887 62.3223C301.555 62.3223 301.232 62.3984 300.92 62.5508C300.607 62.7031 300.281 62.9199 299.941 63.2012L298.957 62.0352C299.203 61.8242 299.463 61.625 299.736 61.4375C300.014 61.25 300.334 61.0996 300.697 60.9863C301.064 60.8691 301.504 60.8105 302.016 60.8105C302.578 60.8105 303.061 60.9121 303.463 61.1152C303.869 61.3184 304.182 61.5957 304.4 61.9473C304.619 62.2949 304.729 62.6895 304.729 63.1309C304.729 63.6035 304.635 64.0352 304.447 64.4258C304.26 64.8164 303.986 65.2031 303.627 65.5859C303.271 65.9688 302.842 66.3926 302.338 66.8574L301.236 67.8945V67.9766H304.969V69.5Z" fill="white"/>
<path d="M287 65L251 65" stroke="#101840" stroke-width="2"/>
<circle cx="253" cy="65" r="2.5" transform="rotate(90 253 65)" fill="#101840" stroke="#101840"/>
<circle cx="15" cy="104" r="14.5" transform="rotate(-90 15 104)" fill="#101840" stroke="#101840"/>
<path d="M17.6348 102.85C17.6348 103.244 17.5527 103.586 17.3887 103.875C17.2246 104.164 17.002 104.4 16.7207 104.584C16.4434 104.768 16.1309 104.902 15.7832 104.988L15.7832 105.023C16.4707 105.109 16.9922 105.32 17.3477 105.656C17.707 105.992 17.8867 106.441 17.8867 107.004C17.8867 107.504 17.7637 107.951 17.5176 108.346C17.2754 108.74 16.9004 109.051 16.3926 109.277C15.8848 109.504 15.2305 109.617 14.4297 109.617C13.957 109.617 13.5156 109.578 13.1055 109.5C12.6992 109.426 12.3164 109.311 11.957 109.154L11.957 107.613C12.3242 107.801 12.709 107.943 13.1113 108.041C13.5137 108.135 13.8887 108.182 14.2363 108.182C14.8848 108.182 15.3379 108.07 15.5957 107.848C15.8574 107.621 15.9883 107.305 15.9883 106.898C15.9883 106.66 15.9277 106.459 15.8066 106.295C15.6855 106.131 15.4746 106.006 15.1738 105.92C14.877 105.834 14.4609 105.791 13.9258 105.791L13.2754 105.791L13.2754 104.402L13.9375 104.402C14.4648 104.402 14.8652 104.354 15.1387 104.256C15.416 104.154 15.6035 104.018 15.7012 103.846C15.8027 103.67 15.8535 103.471 15.8535 103.248C15.8535 102.943 15.7598 102.705 15.5723 102.533C15.3848 102.361 15.0723 102.275 14.6348 102.275C14.3613 102.275 14.1113 102.311 13.8848 102.381C13.6621 102.447 13.4609 102.529 13.2812 102.627C13.1016 102.721 12.9434 102.813 12.8066 102.902L11.9687 101.654C12.3047 101.412 12.6973 101.211 13.1465 101.051C13.5996 100.891 14.1387 100.811 14.7637 100.811C15.6465 100.811 16.3457 100.988 16.8613 101.344C17.377 101.699 17.6348 102.201 17.6348 102.85Z" fill="white"/>
<path d="M30 104L66 104" stroke="#101840" stroke-width="2"/>
<circle cx="64" cy="104" r="2.5" transform="rotate(-90 64 104)" fill="#101840" stroke="#101840"/>
<circle cx="15" cy="216" r="14.5" transform="rotate(-90 15 216)" fill="#101840" stroke="#101840"/>
<path d="M18.1621 219.725L17.1309 219.725L17.1309 221.5L15.3613 221.5L15.3613 219.725L11.7051 219.725L11.7051 218.465L15.4609 212.934L17.1309 212.934L17.1309 218.318L18.1621 218.318L18.1621 219.725ZM15.3613 218.318L15.3613 216.865C15.3613 216.729 15.3633 216.566 15.3672 216.379C15.375 216.191 15.3828 216.004 15.3906 215.816C15.3984 215.629 15.4062 215.463 15.4141 215.318C15.4258 215.17 15.4336 215.066 15.4375 215.008L15.3906 215.008C15.3164 215.168 15.2383 215.324 15.1562 215.477C15.0742 215.625 14.9785 215.781 14.8691 215.945L13.2988 218.318L15.3613 218.318Z" fill="white"/>
<path d="M30 216L66 216" stroke="#101840" stroke-width="2"/>
<circle cx="64" cy="216" r="2.5" transform="rotate(-90 64 216)" fill="#101840" stroke="#101840"/>
<defs>
<filter id="filter0_d_1462_6440" x="48" y="0" width="224" height="257" filterUnits="userSpaceOnUse" color-interpolation-filters="sRGB">
<feFlood flood-opacity="0" result="BackgroundImageFix"/>
<feColorMatrix in="SourceAlpha" type="matrix" values="0 0 0 0 0 0 0 0 0 0 0 0 0 0 0 0 0 0 127 0" result="hardAlpha"/>
<feOffset dy="4"/>
<feGaussianBlur stdDeviation="4"/>
<feColorMatrix type="matrix" values="0 0 0 0 0.0627451 0 0 0 0 0.0941176 0 0 0 0 0.25098 0 0 0 0.16 0"/>
<feBlend mode="normal" in2="BackgroundImageFix" result="effect1_dropShadow_1462_6440"/>
<feBlend mode="normal" in="SourceGraphic" in2="effect1_dropShadow_1462_6440" result="shape"/>
</filter>
</defs>
</svg>
