<svg width="315" height="213" viewBox="0 0 315 213" fill="none" xmlns="http://www.w3.org/2000/svg">
<circle cx="15" cy="109" r="14.5" transform="rotate(-90 15 109)" fill="#101840" stroke="#101840"/>
<path d="M17.9687 114.5H11.9805V113.24L14.1309 111.066C14.7676 110.414 15.1836 109.963 15.3789 109.713C15.5742 109.459 15.7148 109.225 15.8008 109.01C15.8867 108.795 15.9297 108.572 15.9297 108.342C15.9297 107.998 15.834 107.742 15.6426 107.574C15.4551 107.406 15.2031 107.322 14.8867 107.322C14.5547 107.322 14.2324 107.398 13.9199 107.551C13.6074 107.703 13.2812 107.92 12.9414 108.201L11.957 107.035C12.3789 106.676 12.7285 106.422 13.0059 106.273C13.2832 106.125 13.5859 106.012 13.9141 105.934C14.2422 105.852 14.6094 105.811 15.0156 105.811C15.5508 105.811 16.0234 105.908 16.4336 106.104C16.8438 106.299 17.1621 106.572 17.3887 106.924C17.6152 107.275 17.7285 107.678 17.7285 108.131C17.7285 108.525 17.6582 108.896 17.5176 109.244C17.3809 109.588 17.166 109.941 16.873 110.305C16.584 110.668 16.0723 111.186 15.3379 111.857L14.2363 112.895V112.977H17.9687V114.5Z" fill="white"/>
<path d="M30 109H66" stroke="#101840" stroke-width="2"/>
<circle cx="64" cy="109" r="2.5" transform="rotate(-90 64 109)" fill="#101840" stroke="#101840"/>
<path d="M63.5 51V39.5781H65.375V49.4062H70.2266V51H63.5ZM75.4062 42.1875C76.5 42.1875 77.3255 42.4297 77.8828 42.9141C78.4453 43.3984 78.7266 44.1536 78.7266 45.1797V51H77.4219L77.0703 49.7734H77.0078C76.763 50.0859 76.5104 50.3438 76.25 50.5469C75.9896 50.75 75.6875 50.901 75.3438 51C75.0052 51.1042 74.5911 51.1562 74.1016 51.1562C73.5859 51.1562 73.125 51.0625 72.7188 50.875C72.3125 50.6823 71.9922 50.3906 71.7578 50C71.5234 49.6094 71.4062 49.1146 71.4062 48.5156C71.4062 47.625 71.737 46.9557 72.3984 46.5078C73.0651 46.0599 74.0703 45.8125 75.4141 45.7656L76.9141 45.7109V45.2578C76.9141 44.6589 76.7734 44.2318 76.4922 43.9766C76.2161 43.7214 75.8255 43.5938 75.3203 43.5938C74.888 43.5938 74.4688 43.6562 74.0625 43.7812C73.6562 43.9062 73.2604 44.0599 72.875 44.2422L72.2812 42.9453C72.7031 42.7214 73.1823 42.5391 73.7188 42.3984C74.2604 42.2578 74.8229 42.1875 75.4062 42.1875ZM76.9062 46.8672L75.7891 46.9062C74.8724 46.9375 74.2292 47.0938 73.8594 47.375C73.4896 47.6562 73.3047 48.0417 73.3047 48.5312C73.3047 48.9583 73.4323 49.2708 73.6875 49.4688C73.9427 49.6615 74.2786 49.7578 74.6953 49.7578C75.3307 49.7578 75.8568 49.5781 76.2734 49.2188C76.6953 48.8542 76.9062 48.3203 76.9062 47.6172V46.8672ZM83.1328 38.8438V41.7734C83.1328 42.112 83.1224 42.4453 83.1016 42.7734C83.0859 43.0964 83.0703 43.349 83.0547 43.5312H83.1328C83.3672 43.1562 83.6927 42.8411 84.1094 42.5859C84.5312 42.3255 85.0703 42.1953 85.7266 42.1953C86.7526 42.1953 87.5781 42.5729 88.2031 43.3281C88.8281 44.0781 89.1406 45.1901 89.1406 46.6641C89.1406 47.6432 88.9974 48.4661 88.7109 49.1328C88.4245 49.7995 88.0208 50.3047 87.5 50.6484C86.9844 50.987 86.3776 51.1562 85.6797 51.1562C85.0234 51.1562 84.4922 51.0365 84.0859 50.7969C83.6849 50.5521 83.3698 50.2682 83.1406 49.9453H83.0078L82.6719 51H81.2969V38.8438H83.1328ZM85.2422 43.6875C84.7214 43.6875 84.3073 43.7917 84 44C83.6979 44.2083 83.4792 44.5208 83.3438 44.9375C83.2083 45.349 83.138 45.8724 83.1328 46.5078V46.6719C83.1328 47.6354 83.2839 48.3724 83.5859 48.8828C83.8932 49.3932 84.4505 49.6484 85.2578 49.6484C85.8984 49.6484 86.3906 49.3906 86.7344 48.875C87.0781 48.3542 87.25 47.6094 87.25 46.6406C87.25 45.6615 87.0781 44.9245 86.7344 44.4297C86.3958 43.9349 85.8984 43.6875 85.2422 43.6875ZM94.7109 42.1875C95.4818 42.1875 96.1432 42.3464 96.6953 42.6641C97.2474 42.9818 97.6719 43.4323 97.9688 44.0156C98.2656 44.599 98.4141 45.2969 98.4141 46.1094V47.0938H92.6406C92.6615 47.9323 92.8854 48.5781 93.3125 49.0312C93.7448 49.4844 94.349 49.7109 95.125 49.7109C95.6771 49.7109 96.1719 49.6589 96.6094 49.5547C97.0521 49.4453 97.5078 49.2865 97.9766 49.0781V50.5703C97.5443 50.7734 97.1042 50.9219 96.6562 51.0156C96.2083 51.1094 95.6719 51.1562 95.0469 51.1562C94.1979 51.1562 93.4505 50.9922 92.8047 50.6641C92.1641 50.3307 91.6615 49.8359 91.2969 49.1797C90.9375 48.5234 90.7578 47.7083 90.7578 46.7344C90.7578 45.7656 90.9219 44.9427 91.25 44.2656C91.5781 43.5885 92.0391 43.0729 92.6328 42.7188C93.2266 42.3646 93.9193 42.1875 94.7109 42.1875ZM94.7109 43.5703C94.1328 43.5703 93.6641 43.7578 93.3047 44.1328C92.9505 44.5078 92.7422 45.0573 92.6797 45.7812H96.6172C96.612 45.349 96.5391 44.9661 96.3984 44.6328C96.263 44.2995 96.0547 44.0391 95.7734 43.8516C95.4974 43.6641 95.1432 43.5703 94.7109 43.5703ZM102.328 51H100.484V38.8438H102.328V51Z" fill="#474D66"/>
<rect x="62.5" y="65.5" width="249" height="31" rx="3.5" fill="white"/>
<path d="M73.4102 77.4336C74.5156 77.4336 75.3223 77.6504 75.8301 78.084C76.3418 78.5137 76.5977 79.1309 76.5977 79.9355C76.5977 80.2988 76.5371 80.6445 76.416 80.9727C76.2988 81.2969 76.1074 81.584 75.8418 81.834C75.5762 82.0801 75.2266 82.2754 74.793 82.4199C74.3633 82.5605 73.8359 82.6309 73.2109 82.6309H72.168V86H71.1719V77.4336H73.4102ZM73.3164 78.2832H72.168V81.7754H73.0996C73.6465 81.7754 74.1016 81.7168 74.4648 81.5996C74.832 81.4824 75.1074 81.293 75.291 81.0312C75.4746 80.7656 75.5664 80.4141 75.5664 79.9766C75.5664 79.4062 75.3848 78.9824 75.0215 78.7051C74.6582 78.4238 74.0898 78.2832 73.3164 78.2832ZM79.2227 86H78.2441V76.8828H79.2227V86ZM83.6816 79.4727C84.4473 79.4727 85.0156 79.6445 85.3867 79.9883C85.7578 80.332 85.9434 80.8809 85.9434 81.6348V86H85.2344L85.0469 85.0508H85C84.8203 85.2852 84.6328 85.4824 84.4375 85.6426C84.2422 85.7988 84.0156 85.918 83.7578 86C83.5039 86.0781 83.1914 86.1172 82.8203 86.1172C82.4297 86.1172 82.082 86.0488 81.7773 85.9121C81.4766 85.7754 81.2383 85.5684 81.0625 85.291C80.8906 85.0137 80.8047 84.6621 80.8047 84.2363C80.8047 83.5957 81.0586 83.1035 81.5664 82.7598C82.0742 82.416 82.8477 82.2285 83.8867 82.1973L84.9941 82.1504V81.7578C84.9941 81.2031 84.875 80.8145 84.6367 80.5918C84.3984 80.3691 84.0625 80.2578 83.6289 80.2578C83.293 80.2578 82.9727 80.3066 82.668 80.4043C82.3633 80.502 82.0742 80.6172 81.8008 80.75L81.502 80.0117C81.791 79.8633 82.123 79.7363 82.498 79.6309C82.873 79.5254 83.2676 79.4727 83.6816 79.4727ZM84.9824 82.8359L84.0039 82.877C83.2031 82.9082 82.6387 83.0391 82.3105 83.2695C81.9824 83.5 81.8184 83.8262 81.8184 84.248C81.8184 84.6152 81.9297 84.8867 82.1523 85.0625C82.375 85.2383 82.6699 85.3262 83.0371 85.3262C83.6074 85.3262 84.0742 85.168 84.4375 84.8516C84.8008 84.5352 84.9824 84.0605 84.9824 83.4277V82.8359ZM90.5195 86.1172C89.9414 86.1172 89.4316 85.998 88.9902 85.7598C88.5488 85.5215 88.2051 85.1582 87.959 84.6699C87.7129 84.1816 87.5898 83.5664 87.5898 82.8242C87.5898 82.0469 87.7188 81.4121 87.9766 80.9199C88.2383 80.4238 88.5977 80.0566 89.0547 79.8184C89.5117 79.5801 90.0312 79.4609 90.6133 79.4609C90.9336 79.4609 91.2422 79.4941 91.5391 79.5605C91.8398 79.623 92.0859 79.7031 92.2773 79.8008L91.9844 80.6152C91.7891 80.5371 91.5625 80.4668 91.3047 80.4043C91.0508 80.3418 90.8125 80.3105 90.5898 80.3105C90.1445 80.3105 89.7734 80.4062 89.4766 80.5977C89.1836 80.7891 88.9629 81.0703 88.8145 81.4414C88.6699 81.8125 88.5977 82.2695 88.5977 82.8125C88.5977 83.332 88.668 83.7754 88.8086 84.1426C88.9531 84.5098 89.166 84.791 89.4473 84.9863C89.7324 85.1777 90.0879 85.2734 90.5137 85.2734C90.8535 85.2734 91.1602 85.2383 91.4336 85.168C91.707 85.0938 91.9551 85.0078 92.1777 84.9102V85.7773C91.9629 85.8867 91.7227 85.9707 91.457 86.0293C91.1953 86.0879 90.8828 86.1172 90.5195 86.1172ZM96.1738 79.4609C96.7207 79.4609 97.1895 79.582 97.5801 79.8242C97.9707 80.0664 98.2695 80.4062 98.4766 80.8438C98.6836 81.2773 98.7871 81.7852 98.7871 82.3672V82.9707H94.3516C94.3633 83.7246 94.5508 84.2988 94.9141 84.6934C95.2773 85.0879 95.7891 85.2852 96.4492 85.2852C96.8555 85.2852 97.2148 85.248 97.5273 85.1738C97.8398 85.0996 98.1641 84.9902 98.5 84.8457V85.7012C98.1758 85.8457 97.8535 85.9512 97.5332 86.0176C97.2168 86.084 96.8418 86.1172 96.4082 86.1172C95.791 86.1172 95.252 85.9922 94.791 85.7422C94.334 85.4883 93.9785 85.1172 93.7246 84.6289C93.4707 84.1406 93.3438 83.543 93.3438 82.8359C93.3438 82.1445 93.459 81.5469 93.6895 81.043C93.9238 80.5352 94.252 80.1445 94.6738 79.8711C95.0996 79.5977 95.5996 79.4609 96.1738 79.4609ZM96.1621 80.2578C95.6426 80.2578 95.2285 80.4277 94.9199 80.7676C94.6113 81.1074 94.4277 81.582 94.3691 82.1914H97.7676C97.7637 81.8086 97.7031 81.4727 97.5859 81.1836C97.4727 80.8906 97.2988 80.6641 97.0645 80.5039C96.8301 80.3398 96.5293 80.2578 96.1621 80.2578ZM101.412 76.8828V79.6074C101.412 79.7637 101.408 79.9219 101.4 80.082C101.393 80.2383 101.379 80.3828 101.359 80.5156H101.424C101.557 80.2891 101.725 80.0996 101.928 79.9473C102.135 79.791 102.369 79.6738 102.631 79.5957C102.893 79.5137 103.17 79.4727 103.463 79.4727C103.979 79.4727 104.408 79.5547 104.752 79.7188C105.1 79.8828 105.359 80.1367 105.531 80.4805C105.707 80.8242 105.795 81.2695 105.795 81.8164V86H104.834V81.8809C104.834 81.3457 104.711 80.9453 104.465 80.6797C104.223 80.4141 103.85 80.2812 103.346 80.2812C102.869 80.2812 102.488 80.373 102.203 80.5566C101.922 80.7363 101.719 81.002 101.594 81.3535C101.473 81.7051 101.412 82.1348 101.412 82.6426V86H100.439V76.8828H101.412ZM113.336 82.7773C113.336 83.3047 113.268 83.7754 113.131 84.1895C112.994 84.6035 112.797 84.9531 112.539 85.2383C112.281 85.5234 111.969 85.7422 111.602 85.8945C111.238 86.043 110.826 86.1172 110.365 86.1172C109.936 86.1172 109.541 86.043 109.182 85.8945C108.826 85.7422 108.518 85.5234 108.256 85.2383C107.998 84.9531 107.797 84.6035 107.652 84.1895C107.512 83.7754 107.441 83.3047 107.441 82.7773C107.441 82.0742 107.561 81.4766 107.799 80.9844C108.037 80.4883 108.377 80.1113 108.818 79.8535C109.264 79.5918 109.793 79.4609 110.406 79.4609C110.992 79.4609 111.504 79.5918 111.941 79.8535C112.383 80.1152 112.725 80.4941 112.967 80.9902C113.213 81.4824 113.336 82.0781 113.336 82.7773ZM108.449 82.7773C108.449 83.293 108.518 83.7402 108.654 84.1191C108.791 84.498 109.002 84.791 109.287 84.998C109.572 85.2051 109.939 85.3086 110.389 85.3086C110.834 85.3086 111.199 85.2051 111.484 84.998C111.773 84.791 111.986 84.498 112.123 84.1191C112.26 83.7402 112.328 83.293 112.328 82.7773C112.328 82.2656 112.26 81.8242 112.123 81.4531C111.986 81.0781 111.775 80.7891 111.49 80.5859C111.205 80.3828 110.836 80.2812 110.383 80.2812C109.715 80.2812 109.225 80.502 108.912 80.9434C108.604 81.3848 108.449 81.9961 108.449 82.7773ZM115.996 86H115.018V76.8828H115.996V86ZM120.338 86.1172C119.525 86.1172 118.881 85.8398 118.404 85.2852C117.932 84.7305 117.695 83.9062 117.695 82.8125C117.695 81.707 117.938 80.873 118.422 80.3105C118.906 79.7441 119.551 79.4609 120.355 79.4609C120.695 79.4609 120.992 79.5059 121.246 79.5957C121.5 79.6855 121.719 79.8066 121.902 79.959C122.086 80.1074 122.24 80.2773 122.365 80.4688H122.436C122.42 80.3477 122.404 80.1816 122.389 79.9707C122.373 79.7598 122.365 79.5879 122.365 79.4551V76.8828H123.338V86H122.553L122.406 85.0859H122.365C122.244 85.2773 122.09 85.4512 121.902 85.6074C121.719 85.7637 121.498 85.8887 121.24 85.9824C120.986 86.0723 120.686 86.1172 120.338 86.1172ZM120.49 85.3086C121.178 85.3086 121.664 85.1133 121.949 84.7227C122.234 84.332 122.377 83.752 122.377 82.9824V82.8066C122.377 81.9902 122.24 81.3633 121.967 80.9258C121.697 80.4883 121.205 80.2695 120.49 80.2695C119.893 80.2695 119.445 80.5 119.148 80.9609C118.852 81.418 118.703 82.043 118.703 82.8359C118.703 83.625 118.85 84.2344 119.143 84.6641C119.439 85.0938 119.889 85.3086 120.49 85.3086ZM127.873 79.4609C128.42 79.4609 128.889 79.582 129.279 79.8242C129.67 80.0664 129.969 80.4062 130.176 80.8438C130.383 81.2773 130.486 81.7852 130.486 82.3672V82.9707H126.051C126.062 83.7246 126.25 84.2988 126.613 84.6934C126.977 85.0879 127.488 85.2852 128.148 85.2852C128.555 85.2852 128.914 85.248 129.227 85.1738C129.539 85.0996 129.863 84.9902 130.199 84.8457V85.7012C129.875 85.8457 129.553 85.9512 129.232 86.0176C128.916 86.084 128.541 86.1172 128.107 86.1172C127.49 86.1172 126.951 85.9922 126.49 85.7422C126.033 85.4883 125.678 85.1172 125.424 84.6289C125.17 84.1406 125.043 83.543 125.043 82.8359C125.043 82.1445 125.158 81.5469 125.389 81.043C125.623 80.5352 125.951 80.1445 126.373 79.8711C126.799 79.5977 127.299 79.4609 127.873 79.4609ZM127.861 80.2578C127.342 80.2578 126.928 80.4277 126.619 80.7676C126.311 81.1074 126.127 81.582 126.068 82.1914H129.467C129.463 81.8086 129.402 81.4727 129.285 81.1836C129.172 80.8906 128.998 80.6641 128.764 80.5039C128.529 80.3398 128.229 80.2578 127.861 80.2578ZM135.057 79.4609C135.186 79.4609 135.32 79.4688 135.461 79.4844C135.602 79.4961 135.727 79.5137 135.836 79.5371L135.713 80.4395C135.607 80.4121 135.49 80.3906 135.361 80.375C135.232 80.3594 135.111 80.3516 134.998 80.3516C134.74 80.3516 134.496 80.4043 134.266 80.5098C134.039 80.6113 133.84 80.7598 133.668 80.9551C133.496 81.1465 133.361 81.3789 133.264 81.6523C133.166 81.9219 133.117 82.2227 133.117 82.5547V86H132.139V79.5781H132.947L133.053 80.7617H133.094C133.227 80.5234 133.387 80.3066 133.574 80.1113C133.762 79.9121 133.979 79.7539 134.225 79.6367C134.475 79.5195 134.752 79.4609 135.057 79.4609Z" fill="#474D66"/>
<rect x="62.5" y="65.5" width="249" height="31" rx="3.5" stroke="#BF2600"/>
<path d="M77.5972 111H78.9306V112.333H77.5972V111ZM77.5972 105.667H78.9306V109.667H77.5972V105.667ZM78.2572 102.333C74.5772 102.333 71.5972 105.32 71.5972 109C71.5972 112.68 74.5772 115.667 78.2572 115.667C81.9439 115.667 84.9306 112.68 84.9306 109C84.9306 105.32 81.9439 102.333 78.2572 102.333ZM78.2639 114.333C75.3172 114.333 72.9306 111.947 72.9306 109C72.9306 106.053 75.3172 103.667 78.2639 103.667C81.2106 103.667 83.5972 106.053 83.5972 109C83.5972 111.947 81.2106 114.333 78.2639 114.333Z" fill="#BF2600"/>
<path d="M96.2053 114H91.4358V105.434H96.2053V106.312H92.4319V109.084H95.9885V109.951H92.4319V113.121H96.2053V114ZM100.875 107.461C101.004 107.461 101.139 107.469 101.28 107.484C101.42 107.496 101.545 107.514 101.655 107.537L101.531 108.439C101.426 108.412 101.309 108.391 101.18 108.375C101.051 108.359 100.93 108.352 100.817 108.352C100.559 108.352 100.315 108.404 100.084 108.51C99.8577 108.611 99.6584 108.76 99.4866 108.955C99.3147 109.146 99.1799 109.379 99.0823 109.652C98.9846 109.922 98.9358 110.223 98.9358 110.555V114H97.9573V107.578H98.7659L98.8713 108.762H98.9124C99.0452 108.523 99.2053 108.307 99.3928 108.111C99.5803 107.912 99.7971 107.754 100.043 107.637C100.293 107.52 100.571 107.461 100.875 107.461ZM105.785 107.461C105.914 107.461 106.049 107.469 106.19 107.484C106.33 107.496 106.455 107.514 106.565 107.537L106.442 108.439C106.336 108.412 106.219 108.391 106.09 108.375C105.961 108.359 105.84 108.352 105.727 108.352C105.469 108.352 105.225 108.404 104.994 108.51C104.768 108.611 104.569 108.76 104.397 108.955C104.225 109.146 104.09 109.379 103.992 109.652C103.895 109.922 103.846 110.223 103.846 110.555V114H102.867V107.578H103.676L103.781 108.762H103.823C103.955 108.523 104.115 108.307 104.303 108.111C104.49 107.912 104.707 107.754 104.953 107.637C105.203 107.52 105.481 107.461 105.785 107.461ZM113.315 110.777C113.315 111.305 113.246 111.775 113.11 112.189C112.973 112.604 112.776 112.953 112.518 113.238C112.26 113.523 111.948 113.742 111.58 113.895C111.217 114.043 110.805 114.117 110.344 114.117C109.914 114.117 109.52 114.043 109.16 113.895C108.805 113.742 108.496 113.523 108.235 113.238C107.977 112.953 107.776 112.604 107.631 112.189C107.49 111.775 107.42 111.305 107.42 110.777C107.42 110.074 107.539 109.477 107.778 108.984C108.016 108.488 108.356 108.111 108.797 107.854C109.242 107.592 109.772 107.461 110.385 107.461C110.971 107.461 111.483 107.592 111.92 107.854C112.362 108.115 112.703 108.494 112.946 108.99C113.192 109.482 113.315 110.078 113.315 110.777ZM108.428 110.777C108.428 111.293 108.496 111.74 108.633 112.119C108.77 112.498 108.981 112.791 109.266 112.998C109.551 113.205 109.918 113.309 110.367 113.309C110.813 113.309 111.178 113.205 111.463 112.998C111.752 112.791 111.965 112.498 112.102 112.119C112.239 111.74 112.307 111.293 112.307 110.777C112.307 110.266 112.239 109.824 112.102 109.453C111.965 109.078 111.754 108.789 111.469 108.586C111.184 108.383 110.815 108.281 110.362 108.281C109.694 108.281 109.203 108.502 108.891 108.943C108.582 109.385 108.428 109.996 108.428 110.777ZM117.914 107.461C118.043 107.461 118.178 107.469 118.319 107.484C118.459 107.496 118.584 107.514 118.694 107.537L118.571 108.439C118.465 108.412 118.348 108.391 118.219 108.375C118.09 108.359 117.969 108.352 117.856 108.352C117.598 108.352 117.354 108.404 117.123 108.51C116.897 108.611 116.698 108.76 116.526 108.955C116.354 109.146 116.219 109.379 116.121 109.652C116.024 109.922 115.975 110.223 115.975 110.555V114H114.996V107.578H115.805L115.91 108.762H115.951C116.084 108.523 116.244 108.307 116.432 108.111C116.619 107.912 116.836 107.754 117.082 107.637C117.332 107.52 117.61 107.461 117.914 107.461ZM129.996 107.461C130.703 107.461 131.237 107.646 131.596 108.018C131.955 108.385 132.135 108.977 132.135 109.793V114H131.174V109.84C131.174 109.32 131.061 108.932 130.834 108.674C130.612 108.412 130.28 108.281 129.838 108.281C129.217 108.281 128.766 108.461 128.485 108.82C128.203 109.18 128.063 109.709 128.063 110.408V114H127.096V109.84C127.096 109.492 127.045 109.203 126.944 108.973C126.846 108.742 126.698 108.57 126.498 108.457C126.303 108.34 126.055 108.281 125.754 108.281C125.328 108.281 124.987 108.369 124.729 108.545C124.471 108.721 124.283 108.982 124.166 109.33C124.053 109.674 123.996 110.098 123.996 110.602V114H123.024V107.578H123.809L123.955 108.486H124.008C124.137 108.264 124.299 108.076 124.494 107.924C124.69 107.771 124.908 107.656 125.151 107.578C125.393 107.5 125.651 107.461 125.924 107.461C126.412 107.461 126.821 107.553 127.149 107.736C127.481 107.916 127.721 108.191 127.869 108.562H127.922C128.133 108.191 128.422 107.916 128.789 107.736C129.156 107.553 129.559 107.461 129.996 107.461ZM136.606 107.461C137.153 107.461 137.621 107.582 138.012 107.824C138.403 108.066 138.701 108.406 138.908 108.844C139.115 109.277 139.219 109.785 139.219 110.367V110.971H134.783C134.795 111.725 134.983 112.299 135.346 112.693C135.709 113.088 136.221 113.285 136.881 113.285C137.287 113.285 137.647 113.248 137.959 113.174C138.272 113.1 138.596 112.99 138.932 112.846V113.701C138.608 113.846 138.285 113.951 137.965 114.018C137.649 114.084 137.274 114.117 136.84 114.117C136.223 114.117 135.684 113.992 135.223 113.742C134.766 113.488 134.41 113.117 134.156 112.629C133.903 112.141 133.776 111.543 133.776 110.836C133.776 110.145 133.891 109.547 134.121 109.043C134.356 108.535 134.684 108.145 135.106 107.871C135.531 107.598 136.031 107.461 136.606 107.461ZM136.594 108.258C136.074 108.258 135.66 108.428 135.352 108.768C135.043 109.107 134.86 109.582 134.801 110.191H138.199C138.196 109.809 138.135 109.473 138.018 109.184C137.905 108.891 137.731 108.664 137.496 108.504C137.262 108.34 136.961 108.258 136.594 108.258ZM145.026 112.242C145.026 112.652 144.922 112.998 144.715 113.279C144.512 113.557 144.219 113.766 143.836 113.906C143.457 114.047 143.004 114.117 142.477 114.117C142.028 114.117 141.639 114.082 141.311 114.012C140.983 113.941 140.696 113.842 140.449 113.713V112.816C140.711 112.945 141.024 113.062 141.387 113.168C141.75 113.273 142.121 113.326 142.5 113.326C143.055 113.326 143.457 113.236 143.707 113.057C143.957 112.877 144.082 112.633 144.082 112.324C144.082 112.148 144.031 111.994 143.93 111.861C143.832 111.725 143.666 111.594 143.432 111.469C143.198 111.34 142.873 111.199 142.459 111.047C142.049 110.891 141.694 110.736 141.393 110.584C141.096 110.428 140.865 110.238 140.701 110.016C140.541 109.793 140.461 109.504 140.461 109.148C140.461 108.605 140.68 108.189 141.117 107.9C141.559 107.607 142.137 107.461 142.852 107.461C143.239 107.461 143.6 107.5 143.936 107.578C144.276 107.652 144.592 107.754 144.885 107.883L144.557 108.662C144.291 108.549 144.008 108.453 143.707 108.375C143.406 108.297 143.1 108.258 142.787 108.258C142.338 108.258 141.992 108.332 141.75 108.48C141.512 108.629 141.393 108.832 141.393 109.09C141.393 109.289 141.448 109.453 141.557 109.582C141.67 109.711 141.85 109.832 142.096 109.945C142.342 110.059 142.666 110.191 143.069 110.344C143.471 110.492 143.819 110.646 144.112 110.807C144.405 110.963 144.629 111.154 144.785 111.381C144.946 111.604 145.026 111.891 145.026 112.242ZM150.744 112.242C150.744 112.652 150.641 112.998 150.434 113.279C150.231 113.557 149.938 113.766 149.555 113.906C149.176 114.047 148.723 114.117 148.196 114.117C147.746 114.117 147.358 114.082 147.03 114.012C146.701 113.941 146.414 113.842 146.168 113.713V112.816C146.43 112.945 146.742 113.062 147.106 113.168C147.469 113.273 147.84 113.326 148.219 113.326C148.774 113.326 149.176 113.236 149.426 113.057C149.676 112.877 149.801 112.633 149.801 112.324C149.801 112.148 149.75 111.994 149.649 111.861C149.551 111.725 149.385 111.594 149.151 111.469C148.916 111.34 148.592 111.199 148.178 111.047C147.768 110.891 147.412 110.736 147.112 110.584C146.815 110.428 146.584 110.238 146.42 110.016C146.26 109.793 146.18 109.504 146.18 109.148C146.18 108.605 146.399 108.189 146.836 107.9C147.278 107.607 147.856 107.461 148.571 107.461C148.957 107.461 149.319 107.5 149.655 107.578C149.994 107.652 150.311 107.754 150.604 107.883L150.276 108.662C150.01 108.549 149.727 108.453 149.426 108.375C149.125 108.297 148.819 108.258 148.506 108.258C148.057 108.258 147.711 108.332 147.469 108.48C147.231 108.629 147.112 108.832 147.112 109.09C147.112 109.289 147.166 109.453 147.276 109.582C147.389 109.711 147.569 109.832 147.815 109.945C148.061 110.059 148.385 110.191 148.787 110.344C149.19 110.492 149.537 110.646 149.83 110.807C150.123 110.963 150.348 111.154 150.504 111.381C150.664 111.604 150.744 111.891 150.744 112.242ZM154.711 107.473C155.477 107.473 156.045 107.645 156.416 107.988C156.787 108.332 156.973 108.881 156.973 109.635V114H156.264L156.076 113.051H156.03C155.85 113.285 155.662 113.482 155.467 113.643C155.272 113.799 155.045 113.918 154.787 114C154.533 114.078 154.221 114.117 153.85 114.117C153.459 114.117 153.112 114.049 152.807 113.912C152.506 113.775 152.268 113.568 152.092 113.291C151.92 113.014 151.834 112.662 151.834 112.236C151.834 111.596 152.088 111.104 152.596 110.76C153.104 110.416 153.877 110.229 154.916 110.197L156.024 110.15V109.758C156.024 109.203 155.905 108.814 155.666 108.592C155.428 108.369 155.092 108.258 154.658 108.258C154.323 108.258 154.002 108.307 153.698 108.404C153.393 108.502 153.104 108.617 152.83 108.75L152.531 108.012C152.821 107.863 153.153 107.736 153.528 107.631C153.903 107.525 154.297 107.473 154.711 107.473ZM156.012 110.836L155.033 110.877C154.233 110.908 153.668 111.039 153.34 111.27C153.012 111.5 152.848 111.826 152.848 112.248C152.848 112.615 152.959 112.887 153.182 113.062C153.405 113.238 153.699 113.326 154.067 113.326C154.637 113.326 155.104 113.168 155.467 112.852C155.83 112.535 156.012 112.061 156.012 111.428V110.836ZM160.77 116.883C159.926 116.883 159.276 116.725 158.819 116.408C158.362 116.096 158.133 115.656 158.133 115.09C158.133 114.688 158.26 114.344 158.514 114.059C158.772 113.773 159.127 113.584 159.58 113.49C159.412 113.412 159.268 113.295 159.147 113.139C159.03 112.982 158.971 112.803 158.971 112.6C158.971 112.365 159.035 112.16 159.164 111.984C159.297 111.805 159.498 111.633 159.768 111.469C159.432 111.332 159.158 111.102 158.948 110.777C158.74 110.449 158.637 110.068 158.637 109.635C158.637 109.174 158.733 108.781 158.924 108.457C159.115 108.129 159.393 107.879 159.756 107.707C160.119 107.535 160.559 107.449 161.074 107.449C161.188 107.449 161.301 107.455 161.414 107.467C161.531 107.475 161.643 107.488 161.748 107.508C161.854 107.523 161.946 107.543 162.024 107.566H164.227V108.193L163.043 108.34C163.16 108.492 163.258 108.676 163.336 108.891C163.414 109.105 163.453 109.344 163.453 109.605C163.453 110.246 163.237 110.756 162.803 111.135C162.369 111.51 161.774 111.697 161.016 111.697C160.836 111.697 160.653 111.682 160.465 111.65C160.274 111.756 160.127 111.873 160.026 112.002C159.928 112.131 159.879 112.279 159.879 112.447C159.879 112.572 159.916 112.672 159.99 112.746C160.069 112.82 160.18 112.875 160.324 112.91C160.469 112.941 160.643 112.957 160.846 112.957H161.977C162.676 112.957 163.211 113.104 163.582 113.396C163.957 113.689 164.145 114.117 164.145 114.68C164.145 115.391 163.856 115.936 163.278 116.314C162.699 116.693 161.864 116.883 160.77 116.883ZM160.799 116.121C161.33 116.121 161.77 116.066 162.117 115.957C162.469 115.852 162.731 115.697 162.903 115.494C163.078 115.295 163.166 115.057 163.166 114.779C163.166 114.521 163.108 114.326 162.99 114.193C162.873 114.064 162.701 113.979 162.475 113.936C162.248 113.889 161.971 113.865 161.643 113.865H160.53C160.24 113.865 159.989 113.91 159.774 114C159.559 114.09 159.393 114.223 159.276 114.398C159.162 114.574 159.106 114.793 159.106 115.055C159.106 115.402 159.252 115.666 159.545 115.846C159.838 116.029 160.256 116.121 160.799 116.121ZM161.051 110.988C161.516 110.988 161.865 110.871 162.1 110.637C162.334 110.402 162.451 110.061 162.451 109.611C162.451 109.131 162.332 108.771 162.094 108.533C161.856 108.291 161.504 108.17 161.039 108.17C160.594 108.17 160.25 108.295 160.008 108.545C159.77 108.791 159.651 109.152 159.651 109.629C159.651 110.066 159.772 110.402 160.014 110.637C160.256 110.871 160.602 110.988 161.051 110.988ZM167.965 107.461C168.512 107.461 168.981 107.582 169.371 107.824C169.762 108.066 170.061 108.406 170.268 108.844C170.475 109.277 170.578 109.785 170.578 110.367V110.971H166.143C166.155 111.725 166.342 112.299 166.705 112.693C167.069 113.088 167.58 113.285 168.24 113.285C168.647 113.285 169.006 113.248 169.319 113.174C169.631 113.1 169.955 112.99 170.291 112.846V113.701C169.967 113.846 169.645 113.951 169.324 114.018C169.008 114.084 168.633 114.117 168.199 114.117C167.582 114.117 167.043 113.992 166.582 113.742C166.125 113.488 165.77 113.117 165.516 112.629C165.262 112.141 165.135 111.543 165.135 110.836C165.135 110.145 165.25 109.547 165.481 109.043C165.715 108.535 166.043 108.145 166.465 107.871C166.891 107.598 167.391 107.461 167.965 107.461ZM167.953 108.258C167.434 108.258 167.02 108.428 166.711 108.768C166.403 109.107 166.219 109.582 166.16 110.191H169.559C169.555 109.809 169.494 109.473 169.377 109.184C169.264 108.891 169.09 108.664 168.856 108.504C168.621 108.34 168.321 108.258 167.953 108.258ZM172.084 113.391C172.084 113.117 172.151 112.924 172.283 112.811C172.416 112.693 172.578 112.635 172.77 112.635C172.969 112.635 173.137 112.693 173.274 112.811C173.41 112.924 173.479 113.117 173.479 113.391C173.479 113.66 173.41 113.857 173.274 113.982C173.137 114.104 172.969 114.164 172.77 114.164C172.578 114.164 172.416 114.104 172.283 113.982C172.151 113.857 172.084 113.66 172.084 113.391Z" fill="#BF2600"/>
<path d="M64.5 165V153.578H66.375V163.406H71.2266V165H64.5ZM76.4062 156.188C77.5 156.188 78.3255 156.43 78.8828 156.914C79.4453 157.398 79.7266 158.154 79.7266 159.18V165H78.4219L78.0703 163.773H78.0078C77.763 164.086 77.5104 164.344 77.25 164.547C76.9896 164.75 76.6875 164.901 76.3438 165C76.0052 165.104 75.5911 165.156 75.1016 165.156C74.5859 165.156 74.125 165.062 73.7188 164.875C73.3125 164.682 72.9922 164.391 72.7578 164C72.5234 163.609 72.4062 163.115 72.4062 162.516C72.4062 161.625 72.737 160.956 73.3984 160.508C74.0651 160.06 75.0703 159.812 76.4141 159.766L77.9141 159.711V159.258C77.9141 158.659 77.7734 158.232 77.4922 157.977C77.2161 157.721 76.8255 157.594 76.3203 157.594C75.888 157.594 75.4688 157.656 75.0625 157.781C74.6562 157.906 74.2604 158.06 73.875 158.242L73.2812 156.945C73.7031 156.721 74.1823 156.539 74.7188 156.398C75.2604 156.258 75.8229 156.188 76.4062 156.188ZM77.9062 160.867L76.7891 160.906C75.8724 160.938 75.2292 161.094 74.8594 161.375C74.4896 161.656 74.3047 162.042 74.3047 162.531C74.3047 162.958 74.4323 163.271 74.6875 163.469C74.9427 163.661 75.2786 163.758 75.6953 163.758C76.3307 163.758 76.8568 163.578 77.2734 163.219C77.6953 162.854 77.9062 162.32 77.9062 161.617V160.867ZM84.1328 152.844V155.773C84.1328 156.112 84.1224 156.445 84.1016 156.773C84.0859 157.096 84.0703 157.349 84.0547 157.531H84.1328C84.3672 157.156 84.6927 156.841 85.1094 156.586C85.5312 156.326 86.0703 156.195 86.7266 156.195C87.7526 156.195 88.5781 156.573 89.2031 157.328C89.8281 158.078 90.1406 159.19 90.1406 160.664C90.1406 161.643 89.9974 162.466 89.7109 163.133C89.4245 163.799 89.0208 164.305 88.5 164.648C87.9844 164.987 87.3776 165.156 86.6797 165.156C86.0234 165.156 85.4922 165.036 85.0859 164.797C84.6849 164.552 84.3698 164.268 84.1406 163.945H84.0078L83.6719 165H82.2969V152.844H84.1328ZM86.2422 157.688C85.7214 157.688 85.3073 157.792 85 158C84.6979 158.208 84.4792 158.521 84.3438 158.938C84.2083 159.349 84.138 159.872 84.1328 160.508V160.672C84.1328 161.635 84.2839 162.372 84.5859 162.883C84.8932 163.393 85.4505 163.648 86.2578 163.648C86.8984 163.648 87.3906 163.391 87.7344 162.875C88.0781 162.354 88.25 161.609 88.25 160.641C88.25 159.661 88.0781 158.924 87.7344 158.43C87.3958 157.935 86.8984 157.688 86.2422 157.688ZM95.7109 156.188C96.4818 156.188 97.1432 156.346 97.6953 156.664C98.2474 156.982 98.6719 157.432 98.9688 158.016C99.2656 158.599 99.4141 159.297 99.4141 160.109V161.094H93.6406C93.6615 161.932 93.8854 162.578 94.3125 163.031C94.7448 163.484 95.349 163.711 96.125 163.711C96.6771 163.711 97.1719 163.659 97.6094 163.555C98.0521 163.445 98.5078 163.286 98.9766 163.078V164.57C98.5443 164.773 98.1042 164.922 97.6562 165.016C97.2083 165.109 96.6719 165.156 96.0469 165.156C95.1979 165.156 94.4505 164.992 93.8047 164.664C93.1641 164.331 92.6615 163.836 92.2969 163.18C91.9375 162.523 91.7578 161.708 91.7578 160.734C91.7578 159.766 91.9219 158.943 92.25 158.266C92.5781 157.589 93.0391 157.073 93.6328 156.719C94.2266 156.365 94.9193 156.188 95.7109 156.188ZM95.7109 157.57C95.1328 157.57 94.6641 157.758 94.3047 158.133C93.9505 158.508 93.7422 159.057 93.6797 159.781H97.6172C97.612 159.349 97.5391 158.966 97.3984 158.633C97.263 158.299 97.0547 158.039 96.7734 157.852C96.4974 157.664 96.1432 157.57 95.7109 157.57ZM103.328 165H101.484V152.844H103.328V165Z" fill="#474D66"/>
<g filter="url(#filter0_d_866_11977)">
<rect x="63" y="179" width="250" height="32" rx="4" fill="white"/>
<path d="M76.4102 189.434C77.5156 189.434 78.3223 189.65 78.8301 190.084C79.3418 190.514 79.5977 191.131 79.5977 191.936C79.5977 192.299 79.5371 192.645 79.416 192.973C79.2988 193.297 79.1074 193.584 78.8418 193.834C78.5762 194.08 78.2266 194.275 77.793 194.42C77.3633 194.561 76.8359 194.631 76.2109 194.631H75.168V198H74.1719V189.434H76.4102ZM76.3164 190.283H75.168V193.775H76.0996C76.6465 193.775 77.1016 193.717 77.4648 193.6C77.832 193.482 78.1074 193.293 78.291 193.031C78.4746 192.766 78.5664 192.414 78.5664 191.977C78.5664 191.406 78.3848 190.982 78.0215 190.705C77.6582 190.424 77.0898 190.283 76.3164 190.283ZM82.2227 198H81.2441V188.883H82.2227V198ZM86.6816 191.473C87.4473 191.473 88.0156 191.645 88.3867 191.988C88.7578 192.332 88.9434 192.881 88.9434 193.635V198H88.2344L88.0469 197.051H88C87.8203 197.285 87.6328 197.482 87.4375 197.643C87.2422 197.799 87.0156 197.918 86.7578 198C86.5039 198.078 86.1914 198.117 85.8203 198.117C85.4297 198.117 85.082 198.049 84.7773 197.912C84.4766 197.775 84.2383 197.568 84.0625 197.291C83.8906 197.014 83.8047 196.662 83.8047 196.236C83.8047 195.596 84.0586 195.104 84.5664 194.76C85.0742 194.416 85.8477 194.229 86.8867 194.197L87.9941 194.15V193.758C87.9941 193.203 87.875 192.814 87.6367 192.592C87.3984 192.369 87.0625 192.258 86.6289 192.258C86.293 192.258 85.9727 192.307 85.668 192.404C85.3633 192.502 85.0742 192.617 84.8008 192.75L84.502 192.012C84.791 191.863 85.123 191.736 85.498 191.631C85.873 191.525 86.2676 191.473 86.6816 191.473ZM87.9824 194.836L87.0039 194.877C86.2031 194.908 85.6387 195.039 85.3105 195.27C84.9824 195.5 84.8184 195.826 84.8184 196.248C84.8184 196.615 84.9297 196.887 85.1523 197.062C85.375 197.238 85.6699 197.326 86.0371 197.326C86.6074 197.326 87.0742 197.168 87.4375 196.852C87.8008 196.535 87.9824 196.061 87.9824 195.428V194.836ZM93.5195 198.117C92.9414 198.117 92.4316 197.998 91.9902 197.76C91.5488 197.521 91.2051 197.158 90.959 196.67C90.7129 196.182 90.5898 195.566 90.5898 194.824C90.5898 194.047 90.7188 193.412 90.9766 192.92C91.2383 192.424 91.5977 192.057 92.0547 191.818C92.5117 191.58 93.0312 191.461 93.6133 191.461C93.9336 191.461 94.2422 191.494 94.5391 191.561C94.8398 191.623 95.0859 191.703 95.2773 191.801L94.9844 192.615C94.7891 192.537 94.5625 192.467 94.3047 192.404C94.0508 192.342 93.8125 192.311 93.5898 192.311C93.1445 192.311 92.7734 192.406 92.4766 192.598C92.1836 192.789 91.9629 193.07 91.8145 193.441C91.6699 193.812 91.5977 194.27 91.5977 194.812C91.5977 195.332 91.668 195.775 91.8086 196.143C91.9531 196.51 92.166 196.791 92.4473 196.986C92.7324 197.178 93.0879 197.273 93.5137 197.273C93.8535 197.273 94.1602 197.238 94.4336 197.168C94.707 197.094 94.9551 197.008 95.1777 196.91V197.777C94.9629 197.887 94.7227 197.971 94.457 198.029C94.1953 198.088 93.8828 198.117 93.5195 198.117ZM99.1738 191.461C99.7207 191.461 100.189 191.582 100.58 191.824C100.971 192.066 101.27 192.406 101.477 192.844C101.684 193.277 101.787 193.785 101.787 194.367V194.971H97.3516C97.3633 195.725 97.5508 196.299 97.9141 196.693C98.2773 197.088 98.7891 197.285 99.4492 197.285C99.8555 197.285 100.215 197.248 100.527 197.174C100.84 197.1 101.164 196.99 101.5 196.846V197.701C101.176 197.846 100.854 197.951 100.533 198.018C100.217 198.084 99.8418 198.117 99.4082 198.117C98.791 198.117 98.252 197.992 97.791 197.742C97.334 197.488 96.9785 197.117 96.7246 196.629C96.4707 196.141 96.3438 195.543 96.3438 194.836C96.3438 194.145 96.459 193.547 96.6895 193.043C96.9238 192.535 97.252 192.145 97.6738 191.871C98.0996 191.598 98.5996 191.461 99.1738 191.461ZM99.1621 192.258C98.6426 192.258 98.2285 192.428 97.9199 192.768C97.6113 193.107 97.4277 193.582 97.3691 194.191H100.768C100.764 193.809 100.703 193.473 100.586 193.184C100.473 192.891 100.299 192.664 100.064 192.504C99.8301 192.34 99.5293 192.258 99.1621 192.258ZM104.412 188.883V191.607C104.412 191.764 104.408 191.922 104.4 192.082C104.393 192.238 104.379 192.383 104.359 192.516H104.424C104.557 192.289 104.725 192.1 104.928 191.947C105.135 191.791 105.369 191.674 105.631 191.596C105.893 191.514 106.17 191.473 106.463 191.473C106.979 191.473 107.408 191.555 107.752 191.719C108.1 191.883 108.359 192.137 108.531 192.48C108.707 192.824 108.795 193.27 108.795 193.816V198H107.834V193.881C107.834 193.346 107.711 192.945 107.465 192.68C107.223 192.414 106.85 192.281 106.346 192.281C105.869 192.281 105.488 192.373 105.203 192.557C104.922 192.736 104.719 193.002 104.594 193.354C104.473 193.705 104.412 194.135 104.412 194.643V198H103.439V188.883H104.412ZM116.336 194.777C116.336 195.305 116.268 195.775 116.131 196.189C115.994 196.604 115.797 196.953 115.539 197.238C115.281 197.523 114.969 197.742 114.602 197.895C114.238 198.043 113.826 198.117 113.365 198.117C112.936 198.117 112.541 198.043 112.182 197.895C111.826 197.742 111.518 197.523 111.256 197.238C110.998 196.953 110.797 196.604 110.652 196.189C110.512 195.775 110.441 195.305 110.441 194.777C110.441 194.074 110.561 193.477 110.799 192.984C111.037 192.488 111.377 192.111 111.818 191.854C112.264 191.592 112.793 191.461 113.406 191.461C113.992 191.461 114.504 191.592 114.941 191.854C115.383 192.115 115.725 192.494 115.967 192.99C116.213 193.482 116.336 194.078 116.336 194.777ZM111.449 194.777C111.449 195.293 111.518 195.74 111.654 196.119C111.791 196.498 112.002 196.791 112.287 196.998C112.572 197.205 112.939 197.309 113.389 197.309C113.834 197.309 114.199 197.205 114.484 196.998C114.773 196.791 114.986 196.498 115.123 196.119C115.26 195.74 115.328 195.293 115.328 194.777C115.328 194.266 115.26 193.824 115.123 193.453C114.986 193.078 114.775 192.789 114.49 192.586C114.205 192.383 113.836 192.281 113.383 192.281C112.715 192.281 112.225 192.502 111.912 192.943C111.604 193.385 111.449 193.996 111.449 194.777ZM118.996 198H118.018V188.883H118.996V198ZM123.338 198.117C122.525 198.117 121.881 197.84 121.404 197.285C120.932 196.73 120.695 195.906 120.695 194.812C120.695 193.707 120.938 192.873 121.422 192.311C121.906 191.744 122.551 191.461 123.355 191.461C123.695 191.461 123.992 191.506 124.246 191.596C124.5 191.686 124.719 191.807 124.902 191.959C125.086 192.107 125.24 192.277 125.365 192.469H125.436C125.42 192.348 125.404 192.182 125.389 191.971C125.373 191.76 125.365 191.588 125.365 191.455V188.883H126.338V198H125.553L125.406 197.086H125.365C125.244 197.277 125.09 197.451 124.902 197.607C124.719 197.764 124.498 197.889 124.24 197.982C123.986 198.072 123.686 198.117 123.338 198.117ZM123.49 197.309C124.178 197.309 124.664 197.113 124.949 196.723C125.234 196.332 125.377 195.752 125.377 194.982V194.807C125.377 193.99 125.24 193.363 124.967 192.926C124.697 192.488 124.205 192.27 123.49 192.27C122.893 192.27 122.445 192.5 122.148 192.961C121.852 193.418 121.703 194.043 121.703 194.836C121.703 195.625 121.85 196.234 122.143 196.664C122.439 197.094 122.889 197.309 123.49 197.309ZM130.873 191.461C131.42 191.461 131.889 191.582 132.279 191.824C132.67 192.066 132.969 192.406 133.176 192.844C133.383 193.277 133.486 193.785 133.486 194.367V194.971H129.051C129.062 195.725 129.25 196.299 129.613 196.693C129.977 197.088 130.488 197.285 131.148 197.285C131.555 197.285 131.914 197.248 132.227 197.174C132.539 197.1 132.863 196.99 133.199 196.846V197.701C132.875 197.846 132.553 197.951 132.232 198.018C131.916 198.084 131.541 198.117 131.107 198.117C130.49 198.117 129.951 197.992 129.49 197.742C129.033 197.488 128.678 197.117 128.424 196.629C128.17 196.141 128.043 195.543 128.043 194.836C128.043 194.145 128.158 193.547 128.389 193.043C128.623 192.535 128.951 192.145 129.373 191.871C129.799 191.598 130.299 191.461 130.873 191.461ZM130.861 192.258C130.342 192.258 129.928 192.428 129.619 192.768C129.311 193.107 129.127 193.582 129.068 194.191H132.467C132.463 193.809 132.402 193.473 132.285 193.184C132.172 192.891 131.998 192.664 131.764 192.504C131.529 192.34 131.229 192.258 130.861 192.258ZM138.057 191.461C138.186 191.461 138.32 191.469 138.461 191.484C138.602 191.496 138.727 191.514 138.836 191.537L138.713 192.439C138.607 192.412 138.49 192.391 138.361 192.375C138.232 192.359 138.111 192.352 137.998 192.352C137.74 192.352 137.496 192.404 137.266 192.51C137.039 192.611 136.84 192.76 136.668 192.955C136.496 193.146 136.361 193.379 136.264 193.652C136.166 193.922 136.117 194.223 136.117 194.555V198H135.139V191.578H135.947L136.053 192.762H136.094C136.227 192.523 136.387 192.307 136.574 192.111C136.762 191.912 136.979 191.754 137.225 191.637C137.475 191.52 137.752 191.461 138.057 191.461Z" fill="#474D66"/>
<path d="M70.8828 188.877H71.6973V200.906H70.8828V188.877Z" fill="#474D66"/>
<rect x="63.5" y="179.5" width="249" height="31" rx="3.5" stroke="#9DB5FF"/>
</g>
<circle cx="298" cy="129" r="14.5" fill="#101840" stroke="#101840"/>
<path d="M300.135 127.35C300.135 127.744 300.053 128.086 299.889 128.375C299.725 128.664 299.502 128.9 299.221 129.084C298.943 129.268 298.631 129.402 298.283 129.488V129.523C298.971 129.609 299.492 129.82 299.848 130.156C300.207 130.492 300.387 130.941 300.387 131.504C300.387 132.004 300.264 132.451 300.018 132.846C299.775 133.24 299.4 133.551 298.893 133.777C298.385 134.004 297.73 134.117 296.93 134.117C296.457 134.117 296.016 134.078 295.605 134C295.199 133.926 294.816 133.811 294.457 133.654V132.113C294.824 132.301 295.209 132.443 295.611 132.541C296.014 132.635 296.389 132.682 296.736 132.682C297.385 132.682 297.838 132.57 298.096 132.348C298.357 132.121 298.488 131.805 298.488 131.398C298.488 131.16 298.428 130.959 298.307 130.795C298.186 130.631 297.975 130.506 297.674 130.42C297.377 130.334 296.961 130.291 296.426 130.291H295.775V128.902H296.438C296.965 128.902 297.365 128.854 297.639 128.756C297.916 128.654 298.104 128.518 298.201 128.346C298.303 128.17 298.354 127.971 298.354 127.748C298.354 127.443 298.26 127.205 298.072 127.033C297.885 126.861 297.572 126.775 297.135 126.775C296.861 126.775 296.611 126.811 296.385 126.881C296.162 126.947 295.961 127.029 295.781 127.127C295.602 127.221 295.443 127.312 295.307 127.402L294.469 126.154C294.805 125.912 295.197 125.711 295.646 125.551C296.1 125.391 296.639 125.311 297.264 125.311C298.146 125.311 298.846 125.488 299.361 125.844C299.877 126.199 300.135 126.701 300.135 127.35Z" fill="white"/>
<path d="M298 144V180" stroke="#101840" stroke-width="2"/>
<circle cx="298" cy="178" r="2.5" fill="#101840" stroke="#101840"/>
<circle cx="297" cy="15" r="14.5" fill="#101840" stroke="#101840"/>
<path d="M297.957 20H296.146V15.043L296.164 14.2285L296.193 13.3379C295.893 13.6387 295.684 13.8359 295.566 13.9297L294.582 14.7207L293.709 13.6309L296.469 11.4336H297.957V20Z" fill="white"/>
<path d="M297 30V66" stroke="#101840" stroke-width="2"/>
<circle cx="297" cy="64" r="2.5" fill="#101840" stroke="#101840"/>
<defs>
<filter id="filter0_d_866_11977" x="61" y="177" width="254" height="36" filterUnits="userSpaceOnUse" color-interpolation-filters="sRGB">
<feFlood flood-opacity="0" result="BackgroundImageFix"/>
<feColorMatrix in="SourceAlpha" type="matrix" values="0 0 0 0 0 0 0 0 0 0 0 0 0 0 0 0 0 0 127 0" result="hardAlpha"/>
<feMorphology radius="2" operator="dilate" in="SourceAlpha" result="effect1_dropShadow_866_11977"/>
<feOffset/>
<feColorMatrix type="matrix" values="0 0 0 0 0.839216 0 0 0 0 0.878431 0 0 0 0 1 0 0 0 1 0"/>
<feBlend mode="normal" in2="BackgroundImageFix" result="effect1_dropShadow_866_11977"/>
<feBlend mode="normal" in="SourceGraphic" in2="effect1_dropShadow_866_11977" result="shape"/>
</filter>
</defs>
</svg>
