<svg width="401" height="102" viewBox="0 0 401 102" fill="none" xmlns="http://www.w3.org/2000/svg">
<circle cx="15" cy="16" r="14.5" transform="rotate(-90 15 16)" fill="#101840" stroke="#101840"/>
<path d="M16.457 20.5H14.6465L14.6465 15.543C14.6465 15.4062 14.6484 15.2383 14.6523 15.0391C14.6562 14.8359 14.6621 14.6289 14.6699 14.418C14.6777 14.2031 14.6855 14.0098 14.6934 13.8379C14.6504 13.8887 14.5625 13.9766 14.4297 14.1016C14.3008 14.2227 14.1797 14.332 14.0664 14.4297L13.082 15.2207L12.209 14.1309L14.9687 11.9336H16.457L16.457 20.5Z" fill="white"/>
<path d="M30 16L66 16" stroke="#101840" stroke-width="2"/>
<circle cx="64" cy="16" r="2.5" transform="rotate(-90 64 16)" fill="#101840" stroke="#101840"/>
<circle cx="386" cy="16" r="14.5" transform="rotate(90 386 16)" fill="#101840" stroke="#101840"/>
<path d="M387.457 20.5H385.646V15.543C385.646 15.4062 385.648 15.2383 385.652 15.0391C385.656 14.8359 385.662 14.6289 385.67 14.418C385.678 14.2031 385.686 14.0098 385.693 13.8379C385.65 13.8887 385.562 13.9766 385.43 14.1016C385.301 14.2227 385.18 14.332 385.066 14.4297L384.082 15.2207L383.209 14.1309L385.969 11.9336H387.457V20.5Z" fill="white"/>
<path d="M371 16L335 16" stroke="#101840" stroke-width="2"/>
<circle cx="337" cy="16" r="2.5" transform="rotate(90 337 16)" fill="#101840" stroke="#101840"/>
<g clip-path="url(#clip0_1569_6721)">
<path d="M78.705 13.705L78 13L75 16L78 19L78.705 18.295L76.415 16L78.705 13.705Z" fill="#474D66"/>
</g>
<rect x="97" width="31" height="32" rx="3" fill="#EBF0FF"/>
<path d="M113.279 21H112.33V14.9297C112.33 14.6992 112.33 14.502 112.33 14.3379C112.334 14.1699 112.338 14.0176 112.342 13.8809C112.35 13.7402 112.359 13.5977 112.371 13.4531C112.25 13.5781 112.137 13.6855 112.031 13.7754C111.926 13.8613 111.795 13.9688 111.639 14.0977L110.66 14.8828L110.15 14.2207L112.471 12.4336H113.279V21Z" fill="#3366FF"/>
<path d="M150.271 21H144.658V20.1855L146.949 17.8594C147.375 17.4297 147.732 17.0469 148.021 16.7109C148.314 16.375 148.537 16.0449 148.689 15.7207C148.842 15.3926 148.918 15.0332 148.918 14.6426C148.918 14.1582 148.773 13.7891 148.484 13.5352C148.199 13.2773 147.822 13.1484 147.354 13.1484C146.943 13.1484 146.58 13.2188 146.264 13.3594C145.947 13.5 145.623 13.6992 145.291 13.957L144.77 13.3008C144.996 13.1094 145.242 12.9395 145.508 12.791C145.777 12.6426 146.064 12.5254 146.369 12.4395C146.678 12.3535 147.006 12.3105 147.354 12.3105C147.881 12.3105 148.336 12.4023 148.719 12.5859C149.102 12.7695 149.396 13.0312 149.604 13.3711C149.814 13.7109 149.92 14.1152 149.92 14.584C149.92 15.0371 149.83 15.459 149.65 15.8496C149.471 16.2363 149.219 16.6211 148.895 17.0039C148.57 17.3828 148.191 17.7852 147.758 18.2109L145.895 20.0684V20.1094H150.271V21Z" fill="#696F8C"/>
<path d="M184.955 14.4316C184.955 14.8145 184.881 15.1465 184.732 15.4277C184.584 15.709 184.377 15.9395 184.111 16.1191C183.846 16.2949 183.533 16.418 183.174 16.4883V16.5352C183.854 16.6211 184.363 16.8398 184.703 17.1914C185.047 17.543 185.219 18.0039 185.219 18.5742C185.219 19.0703 185.102 19.5098 184.867 19.8926C184.637 20.2754 184.281 20.5762 183.801 20.7949C183.324 21.0098 182.713 21.1172 181.967 21.1172C181.514 21.1172 181.094 21.0801 180.707 21.0059C180.324 20.9355 179.957 20.8164 179.605 20.6484V19.7344C179.961 19.9102 180.348 20.0488 180.766 20.1504C181.184 20.248 181.588 20.2969 181.979 20.2969C182.76 20.2969 183.324 20.1426 183.672 19.834C184.02 19.5215 184.193 19.0957 184.193 18.5566C184.193 18.1855 184.096 17.8867 183.9 17.6602C183.709 17.4297 183.432 17.2617 183.068 17.1562C182.709 17.0469 182.275 16.9922 181.768 16.9922H180.912V16.1602H181.773C182.238 16.1602 182.633 16.0918 182.957 15.9551C183.281 15.8184 183.527 15.627 183.695 15.3809C183.867 15.1309 183.953 14.8359 183.953 14.4961C183.953 14.0625 183.809 13.7285 183.52 13.4941C183.23 13.2559 182.838 13.1367 182.342 13.1367C182.037 13.1367 181.76 13.168 181.51 13.2305C181.26 13.293 181.025 13.3789 180.807 13.4883C180.588 13.5977 180.369 13.7246 180.15 13.8691L179.658 13.2012C179.971 12.959 180.352 12.75 180.801 12.5742C181.25 12.3984 181.76 12.3105 182.33 12.3105C183.205 12.3105 183.861 12.5098 184.299 12.9082C184.736 13.3066 184.955 13.8145 184.955 14.4316Z" fill="#696F8C"/>
<path d="M220.699 19.0137H219.416V21H218.467V19.0137H214.324V18.1934L218.402 12.3867H219.416V18.1348H220.699V19.0137ZM218.467 18.1348V15.334C218.467 15.1191 218.469 14.9258 218.473 14.7539C218.477 14.5781 218.482 14.416 218.49 14.2676C218.498 14.1152 218.504 13.9707 218.508 13.834C218.516 13.6973 218.521 13.5625 218.525 13.4297H218.479C218.404 13.5859 218.318 13.752 218.221 13.9277C218.127 14.0996 218.031 14.2539 217.934 14.3906L215.291 18.1348H218.467Z" fill="#696F8C"/>
<path d="M252.365 15.7617C252.947 15.7617 253.453 15.8613 253.883 16.0605C254.312 16.2559 254.645 16.541 254.879 16.916C255.117 17.291 255.236 17.7461 255.236 18.2812C255.236 18.8672 255.109 19.373 254.855 19.7988C254.602 20.2207 254.236 20.5469 253.76 20.7773C253.283 21.0039 252.713 21.1172 252.049 21.1172C251.604 21.1172 251.189 21.0781 250.807 21C250.424 20.9219 250.102 20.8047 249.84 20.6484V19.7227C250.125 19.8945 250.471 20.0312 250.877 20.1328C251.283 20.2344 251.678 20.2852 252.061 20.2852C252.494 20.2852 252.873 20.2168 253.197 20.0801C253.525 19.9395 253.779 19.7285 253.959 19.4473C254.143 19.1621 254.234 18.8047 254.234 18.375C254.234 17.8047 254.059 17.3652 253.707 17.0566C253.359 16.7441 252.809 16.5879 252.055 16.5879C251.812 16.5879 251.547 16.6074 251.258 16.6465C250.969 16.6855 250.73 16.7285 250.543 16.7754L250.051 16.4531L250.379 12.4336H254.639V13.3242H251.211L250.994 15.9082C251.143 15.877 251.334 15.8457 251.568 15.8145C251.803 15.7793 252.068 15.7617 252.365 15.7617Z" fill="#696F8C"/>
<path d="M284.746 17.3379C284.746 16.8223 284.781 16.3184 284.852 15.8262C284.926 15.334 285.049 14.877 285.221 14.4551C285.393 14.0293 285.627 13.6562 285.924 13.3359C286.221 13.0156 286.59 12.7656 287.031 12.5859C287.477 12.4023 288.01 12.3105 288.631 12.3105C288.807 12.3105 288.996 12.3203 289.199 12.3398C289.402 12.3555 289.57 12.3828 289.703 12.4219V13.2598C289.559 13.209 289.393 13.1719 289.205 13.1484C289.021 13.125 288.836 13.1133 288.648 13.1133C287.922 13.1133 287.35 13.2715 286.932 13.5879C286.518 13.9043 286.219 14.334 286.035 14.877C285.852 15.416 285.746 16.0234 285.719 16.6992H285.783C285.904 16.5039 286.059 16.3281 286.246 16.1719C286.434 16.0117 286.66 15.8848 286.926 15.791C287.195 15.6973 287.508 15.6504 287.863 15.6504C288.363 15.6504 288.799 15.752 289.17 15.9551C289.545 16.1582 289.834 16.4531 290.037 16.8398C290.244 17.2266 290.348 17.6953 290.348 18.2461C290.348 18.8359 290.238 19.3457 290.02 19.7754C289.801 20.2051 289.488 20.5371 289.082 20.7715C288.68 21.002 288.199 21.1172 287.641 21.1172C287.223 21.1172 286.838 21.0371 286.486 20.877C286.135 20.7168 285.828 20.4785 285.566 20.1621C285.309 19.8457 285.107 19.4531 284.963 18.9844C284.818 18.5117 284.746 17.9629 284.746 17.3379ZM287.629 20.2969C288.16 20.2969 288.586 20.127 288.906 19.7871C289.227 19.4473 289.387 18.9336 289.387 18.2461C289.387 17.6836 289.244 17.2383 288.959 16.9102C288.674 16.582 288.244 16.418 287.67 16.418C287.279 16.418 286.939 16.5 286.65 16.6641C286.361 16.8242 286.137 17.0273 285.977 17.2734C285.816 17.5195 285.736 17.7695 285.736 18.0234C285.736 18.2812 285.773 18.543 285.848 18.8086C285.926 19.0742 286.043 19.3203 286.199 19.5469C286.355 19.7734 286.553 19.9551 286.791 20.0918C287.029 20.2285 287.309 20.2969 287.629 20.2969Z" fill="#696F8C"/>
<g clip-path="url(#clip1_1569_6721)">
<path d="M322 13L321.295 13.705L323.585 16L321.295 18.295L322 19L325 16L322 13Z" fill="#474D66"/>
</g>
<circle cx="113" cy="87" r="14.5" transform="rotate(-180 113 87)" fill="#101840" stroke="#101840"/>
<path d="M116.469 92H110.48V90.7402L112.631 88.5664C113.064 88.1211 113.412 87.75 113.674 87.4531C113.939 87.1523 114.131 86.8789 114.248 86.6328C114.369 86.3867 114.43 86.123 114.43 85.8418C114.43 85.502 114.334 85.248 114.143 85.0801C113.955 84.9082 113.703 84.8223 113.387 84.8223C113.055 84.8223 112.732 84.8984 112.42 85.0508C112.107 85.2031 111.781 85.4199 111.441 85.7012L110.457 84.5352C110.703 84.3242 110.963 84.125 111.236 83.9375C111.514 83.75 111.834 83.5996 112.197 83.4863C112.564 83.3691 113.004 83.3105 113.516 83.3105C114.078 83.3105 114.561 83.4121 114.963 83.6152C115.369 83.8184 115.682 84.0957 115.9 84.4473C116.119 84.7949 116.229 85.1895 116.229 85.6309C116.229 86.1035 116.135 86.5352 115.947 86.9258C115.76 87.3164 115.486 87.7031 115.127 88.0859C114.771 88.4688 114.342 88.8926 113.838 89.3574L112.736 90.3945V90.4766H116.469V92Z" fill="white"/>
<path d="M113 72V36" stroke="#101840" stroke-width="2"/>
<circle cx="113" cy="38" r="2.5" transform="rotate(-180 113 38)" fill="#101840" stroke="#101840"/>
<defs>
<clipPath id="clip0_1569_6721">
<rect width="12" height="12" fill="white" transform="translate(71 10)"/>
</clipPath>
<clipPath id="clip1_1569_6721">
<rect width="12" height="12" fill="white" transform="translate(317 10)"/>
</clipPath>
</defs>
</svg>
