<svg width="590" height="103" viewBox="0 0 590 103" fill="none" xmlns="http://www.w3.org/2000/svg">
<circle cx="15" cy="18" r="14.5" transform="rotate(-90 15 18)" fill="#101840" stroke="#101840"/>
<path d="M16.457 23.5H14.6465L14.6465 18.543L14.6641 17.7285L14.6934 16.8379C14.3926 17.1387 14.1836 17.3359 14.0664 17.4297L13.082 18.2207L12.209 17.1309L14.9687 14.9336H16.457L16.457 23.5Z" fill="white"/>
<path d="M30 18L66 18" stroke="#101840" stroke-width="2"/>
<circle cx="64" cy="18" r="2.5" transform="rotate(-90 64 18)" fill="#101840" stroke="#101840"/>
<circle cx="575" cy="18" r="14.5" transform="rotate(90 575 18)" fill="#101840" stroke="#101840"/>
<path d="M577.969 22.5H571.98V21.2402L574.131 19.0664C574.564 18.6211 574.912 18.25 575.174 17.9531C575.439 17.6523 575.631 17.3789 575.748 17.1328C575.869 16.8867 575.93 16.623 575.93 16.3418C575.93 16.002 575.834 15.748 575.643 15.5801C575.455 15.4082 575.203 15.3223 574.887 15.3223C574.555 15.3223 574.232 15.3984 573.92 15.5508C573.607 15.7031 573.281 15.9199 572.941 16.2012L571.957 15.0352C572.203 14.8242 572.463 14.625 572.736 14.4375C573.014 14.25 573.334 14.0996 573.697 13.9863C574.064 13.8691 574.504 13.8105 575.016 13.8105C575.578 13.8105 576.061 13.9121 576.463 14.1152C576.869 14.3184 577.182 14.5957 577.4 14.9473C577.619 15.2949 577.729 15.6895 577.729 16.1309C577.729 16.6035 577.635 17.0352 577.447 17.4258C577.26 17.8164 576.986 18.2031 576.627 18.5859C576.271 18.9688 575.842 19.3926 575.338 19.8574L574.236 20.8945V20.9766H577.969V22.5Z" fill="white"/>
<path d="M560 18L524 18" stroke="#101840" stroke-width="2"/>
<circle cx="526" cy="18" r="2.5" transform="rotate(90 526 18)" fill="#101840" stroke="#101840"/>
<circle cx="383" cy="88" r="14.5" transform="rotate(-180 383 88)" fill="#101840" stroke="#101840"/>
<path d="M386.135 86.3496C386.135 86.8848 385.973 87.3398 385.648 87.7148C385.324 88.0898 384.869 88.3477 384.283 88.4883V88.5234C384.975 88.6094 385.498 88.8203 385.854 89.1562C386.209 89.4883 386.387 89.9375 386.387 90.5039C386.387 91.3281 386.088 91.9707 385.49 92.4316C384.893 92.8887 384.039 93.1172 382.93 93.1172C382 93.1172 381.176 92.9629 380.457 92.6543V91.1133C380.789 91.2812 381.154 91.418 381.553 91.5234C381.951 91.6289 382.346 91.6816 382.736 91.6816C383.334 91.6816 383.775 91.5801 384.061 91.377C384.346 91.1738 384.488 90.8477 384.488 90.3984C384.488 89.9961 384.324 89.7109 383.996 89.543C383.668 89.375 383.145 89.291 382.426 89.291H381.775V87.9023H382.438C383.102 87.9023 383.586 87.8164 383.891 87.6445C384.199 87.4688 384.354 87.1699 384.354 86.748C384.354 86.0996 383.947 85.7754 383.135 85.7754C382.854 85.7754 382.566 85.8223 382.273 85.916C381.984 86.0098 381.662 86.1719 381.307 86.4023L380.469 85.1543C381.25 84.5918 382.182 84.3105 383.264 84.3105C384.15 84.3105 384.85 84.4902 385.361 84.8496C385.877 85.209 386.135 85.709 386.135 86.3496Z" fill="white"/>
<path d="M383 73V37" stroke="#101840" stroke-width="2"/>
<circle cx="383" cy="39" r="2.5" transform="rotate(-180 383 39)" fill="#101840" stroke="#101840"/>
<path d="M126 35H506" stroke="#C1C4D6" stroke-width="2"/>
<path d="M80.3672 17V7.00586H81.5293V15.9609H85.9658V17H80.3672ZM90.2995 9.38477C91.1927 9.38477 91.8558 9.58529 92.2887 9.98633C92.7217 10.3874 92.9381 11.0277 92.9381 11.9072V17H92.111L91.8923 15.8926H91.8376C91.6279 16.166 91.4092 16.3962 91.1813 16.583C90.9534 16.7653 90.6891 16.9043 90.3883 17C90.0921 17.0911 89.7275 17.1367 89.2946 17.1367C88.8389 17.1367 88.4333 17.057 88.0778 16.8975C87.7269 16.738 87.4489 16.4964 87.2438 16.1729C87.0433 15.8493 86.943 15.4391 86.943 14.9424C86.943 14.195 87.2393 13.6208 87.8317 13.2197C88.4242 12.8187 89.3265 12.5999 90.5387 12.5635L91.8307 12.5088V12.0508C91.8307 11.4036 91.6917 10.9502 91.4137 10.6904C91.1357 10.4307 90.7438 10.3008 90.238 10.3008C89.846 10.3008 89.4723 10.3577 89.1169 10.4717C88.7614 10.5856 88.4242 10.7201 88.1051 10.875L87.7565 10.0137C88.0937 9.84049 88.4811 9.69238 88.9186 9.56934C89.3561 9.44629 89.8164 9.38477 90.2995 9.38477ZM91.8171 13.3086L90.6755 13.3564C89.7412 13.3929 89.0827 13.5456 88.6999 13.8145C88.3171 14.0833 88.1256 14.4639 88.1256 14.9561C88.1256 15.3844 88.2555 15.7012 88.5153 15.9062C88.7751 16.1113 89.1191 16.2139 89.5475 16.2139C90.2129 16.2139 90.7575 16.0293 91.1813 15.6602C91.6051 15.291 91.8171 14.7373 91.8171 13.999V13.3086ZM96.3968 6.36328V9.02246C96.3968 9.3278 96.3877 9.62402 96.3695 9.91113C96.3558 10.1982 96.3444 10.4215 96.3353 10.5811H96.3968C96.6019 10.2438 96.8981 9.95898 97.2855 9.72656C97.6728 9.49414 98.1673 9.37793 98.7689 9.37793C99.7077 9.37793 100.455 9.70378 101.011 10.3555C101.572 11.0026 101.852 11.9665 101.852 13.2471C101.852 14.0902 101.724 14.8011 101.469 15.3799C101.214 15.9587 100.854 16.3962 100.389 16.6924C99.9241 16.9886 99.375 17.1367 98.7415 17.1367C98.1491 17.1367 97.6615 17.0273 97.2786 16.8086C96.9004 16.5853 96.6087 16.3141 96.4036 15.9951H96.3148L96.0824 17H95.262V6.36328H96.3968ZM98.5843 10.3281C98.042 10.3281 97.6113 10.4352 97.2923 10.6494C96.9733 10.859 96.7432 11.1781 96.6019 11.6064C96.4652 12.0303 96.3968 12.568 96.3968 13.2197V13.2812C96.3968 14.2246 96.554 14.9469 96.8685 15.4482C97.1829 15.945 97.7549 16.1934 98.5843 16.1934C99.2816 16.1934 99.8034 15.9382 100.15 15.4277C100.501 14.9173 100.676 14.1882 100.676 13.2402C100.676 12.2741 100.503 11.5472 100.157 11.0596C99.8148 10.5719 99.2907 10.3281 98.5843 10.3281ZM106.705 9.37109C107.343 9.37109 107.89 9.51237 108.346 9.79492C108.801 10.0775 109.15 10.474 109.392 10.9844C109.633 11.4902 109.754 12.0827 109.754 12.7617V13.4658H104.579C104.593 14.3454 104.812 15.0153 105.235 15.4756C105.659 15.9359 106.256 16.166 107.026 16.166C107.5 16.166 107.92 16.1227 108.284 16.0361C108.649 15.9495 109.027 15.8219 109.419 15.6533V16.6514C109.041 16.82 108.665 16.943 108.291 17.0205C107.922 17.098 107.484 17.1367 106.979 17.1367C106.258 17.1367 105.63 16.9909 105.092 16.6992C104.559 16.403 104.144 15.9701 103.848 15.4004C103.551 14.8307 103.403 14.1335 103.403 13.3086C103.403 12.502 103.538 11.8047 103.807 11.2168C104.08 10.6243 104.463 10.1686 104.955 9.84961C105.452 9.5306 106.035 9.37109 106.705 9.37109ZM106.691 10.3008C106.085 10.3008 105.602 10.499 105.242 10.8955C104.882 11.292 104.668 11.8457 104.6 12.5566H108.564C108.56 12.11 108.489 11.7181 108.353 11.3809C108.22 11.0391 108.018 10.7747 107.744 10.5879C107.471 10.3965 107.12 10.3008 106.691 10.3008ZM112.809 17H111.668V6.36328H112.809V17ZM124.32 10.8545L123.876 13.1787H125.811V14.0469H123.705L123.124 17H122.201L122.782 14.0469H120.697L120.137 17H119.228L119.768 14.0469H117.977V13.1787H119.938L120.396 10.8545H118.496V10H120.554L121.121 7.00586H122.058L121.49 10H123.589L124.156 7.00586H125.059L124.491 10H126.303V10.8545H124.32ZM120.861 13.1787H122.946L123.397 10.8545H121.312L120.861 13.1787Z" fill="#3366FF"/>
<path fill-rule="evenodd" clip-rule="evenodd" d="M79 36H127V34H79V36Z" fill="#3366FF"/>
<path d="M144.367 17V7.00586H145.529V15.9609H149.966V17H144.367ZM154.299 9.38477C155.193 9.38477 155.856 9.58529 156.289 9.98633C156.722 10.3874 156.938 11.0277 156.938 11.9072V17H156.111L155.892 15.8926H155.838C155.628 16.166 155.409 16.3962 155.181 16.583C154.953 16.7653 154.689 16.9043 154.388 17C154.092 17.0911 153.728 17.1367 153.295 17.1367C152.839 17.1367 152.433 17.057 152.078 16.8975C151.727 16.738 151.449 16.4964 151.244 16.1729C151.043 15.8493 150.943 15.4391 150.943 14.9424C150.943 14.195 151.239 13.6208 151.832 13.2197C152.424 12.8187 153.326 12.5999 154.539 12.5635L155.831 12.5088V12.0508C155.831 11.4036 155.692 10.9502 155.414 10.6904C155.136 10.4307 154.744 10.3008 154.238 10.3008C153.846 10.3008 153.472 10.3577 153.117 10.4717C152.761 10.5856 152.424 10.7201 152.105 10.875L151.757 10.0137C152.094 9.84049 152.481 9.69238 152.919 9.56934C153.356 9.44629 153.816 9.38477 154.299 9.38477ZM155.817 13.3086L154.675 13.3564C153.741 13.3929 153.083 13.5456 152.7 13.8145C152.317 14.0833 152.126 14.4639 152.126 14.9561C152.126 15.3844 152.256 15.7012 152.515 15.9062C152.775 16.1113 153.119 16.2139 153.548 16.2139C154.213 16.2139 154.757 16.0293 155.181 15.6602C155.605 15.291 155.817 14.7373 155.817 13.999V13.3086ZM160.397 6.36328V9.02246C160.397 9.3278 160.388 9.62402 160.369 9.91113C160.356 10.1982 160.344 10.4215 160.335 10.5811H160.397C160.602 10.2438 160.898 9.95898 161.285 9.72656C161.673 9.49414 162.167 9.37793 162.769 9.37793C163.708 9.37793 164.455 9.70378 165.011 10.3555C165.572 11.0026 165.852 11.9665 165.852 13.2471C165.852 14.0902 165.724 14.8011 165.469 15.3799C165.214 15.9587 164.854 16.3962 164.389 16.6924C163.924 16.9886 163.375 17.1367 162.742 17.1367C162.149 17.1367 161.661 17.0273 161.279 16.8086C160.9 16.5853 160.609 16.3141 160.404 15.9951H160.315L160.082 17H159.262V6.36328H160.397ZM162.584 10.3281C162.042 10.3281 161.611 10.4352 161.292 10.6494C160.973 10.859 160.743 11.1781 160.602 11.6064C160.465 12.0303 160.397 12.568 160.397 13.2197V13.2812C160.397 14.2246 160.554 14.9469 160.868 15.4482C161.183 15.945 161.755 16.1934 162.584 16.1934C163.282 16.1934 163.803 15.9382 164.15 15.4277C164.501 14.9173 164.676 14.1882 164.676 13.2402C164.676 12.2741 164.503 11.5472 164.157 11.0596C163.815 10.5719 163.291 10.3281 162.584 10.3281ZM170.705 9.37109C171.343 9.37109 171.89 9.51237 172.346 9.79492C172.801 10.0775 173.15 10.474 173.392 10.9844C173.633 11.4902 173.754 12.0827 173.754 12.7617V13.4658H168.579C168.593 14.3454 168.812 15.0153 169.235 15.4756C169.659 15.9359 170.256 16.166 171.026 16.166C171.5 16.166 171.92 16.1227 172.284 16.0361C172.649 15.9495 173.027 15.8219 173.419 15.6533V16.6514C173.041 16.82 172.665 16.943 172.291 17.0205C171.922 17.098 171.484 17.1367 170.979 17.1367C170.258 17.1367 169.63 16.9909 169.092 16.6992C168.559 16.403 168.144 15.9701 167.848 15.4004C167.551 14.8307 167.403 14.1335 167.403 13.3086C167.403 12.502 167.538 11.8047 167.807 11.2168C168.08 10.6243 168.463 10.1686 168.955 9.84961C169.452 9.5306 170.035 9.37109 170.705 9.37109ZM170.691 10.3008C170.085 10.3008 169.602 10.499 169.242 10.8955C168.882 11.292 168.668 11.8457 168.6 12.5566H172.564C172.56 12.11 172.489 11.7181 172.353 11.3809C172.22 11.0391 172.018 10.7747 171.744 10.5879C171.471 10.3965 171.12 10.3008 170.691 10.3008ZM176.809 17H175.668V6.36328H176.809V17ZM188.32 10.8545L187.876 13.1787H189.811V14.0469H187.705L187.124 17H186.201L186.782 14.0469H184.697L184.137 17H183.228L183.768 14.0469H181.977V13.1787H183.938L184.396 10.8545H182.496V10H184.554L185.121 7.00586H186.058L185.49 10H187.589L188.156 7.00586H189.059L188.491 10H190.303V10.8545H188.32ZM184.861 13.1787H186.946L187.397 10.8545H185.312L184.861 13.1787Z" fill="#696F8C"/>
<path d="M208.367 17V7.00586H209.529V15.9609H213.966V17H208.367ZM218.299 9.38477C219.193 9.38477 219.856 9.58529 220.289 9.98633C220.722 10.3874 220.938 11.0277 220.938 11.9072V17H220.111L219.892 15.8926H219.838C219.628 16.166 219.409 16.3962 219.181 16.583C218.953 16.7653 218.689 16.9043 218.388 17C218.092 17.0911 217.728 17.1367 217.295 17.1367C216.839 17.1367 216.433 17.057 216.078 16.8975C215.727 16.738 215.449 16.4964 215.244 16.1729C215.043 15.8493 214.943 15.4391 214.943 14.9424C214.943 14.195 215.239 13.6208 215.832 13.2197C216.424 12.8187 217.326 12.5999 218.539 12.5635L219.831 12.5088V12.0508C219.831 11.4036 219.692 10.9502 219.414 10.6904C219.136 10.4307 218.744 10.3008 218.238 10.3008C217.846 10.3008 217.472 10.3577 217.117 10.4717C216.761 10.5856 216.424 10.7201 216.105 10.875L215.757 10.0137C216.094 9.84049 216.481 9.69238 216.919 9.56934C217.356 9.44629 217.816 9.38477 218.299 9.38477ZM219.817 13.3086L218.675 13.3564C217.741 13.3929 217.083 13.5456 216.7 13.8145C216.317 14.0833 216.126 14.4639 216.126 14.9561C216.126 15.3844 216.256 15.7012 216.515 15.9062C216.775 16.1113 217.119 16.2139 217.548 16.2139C218.213 16.2139 218.757 16.0293 219.181 15.6602C219.605 15.291 219.817 14.7373 219.817 13.999V13.3086ZM224.397 6.36328V9.02246C224.397 9.3278 224.388 9.62402 224.369 9.91113C224.356 10.1982 224.344 10.4215 224.335 10.5811H224.397C224.602 10.2438 224.898 9.95898 225.285 9.72656C225.673 9.49414 226.167 9.37793 226.769 9.37793C227.708 9.37793 228.455 9.70378 229.011 10.3555C229.572 11.0026 229.852 11.9665 229.852 13.2471C229.852 14.0902 229.724 14.8011 229.469 15.3799C229.214 15.9587 228.854 16.3962 228.389 16.6924C227.924 16.9886 227.375 17.1367 226.742 17.1367C226.149 17.1367 225.661 17.0273 225.279 16.8086C224.9 16.5853 224.609 16.3141 224.404 15.9951H224.315L224.082 17H223.262V6.36328H224.397ZM226.584 10.3281C226.042 10.3281 225.611 10.4352 225.292 10.6494C224.973 10.859 224.743 11.1781 224.602 11.6064C224.465 12.0303 224.397 12.568 224.397 13.2197V13.2812C224.397 14.2246 224.554 14.9469 224.868 15.4482C225.183 15.945 225.755 16.1934 226.584 16.1934C227.282 16.1934 227.803 15.9382 228.15 15.4277C228.501 14.9173 228.676 14.1882 228.676 13.2402C228.676 12.2741 228.503 11.5472 228.157 11.0596C227.815 10.5719 227.291 10.3281 226.584 10.3281ZM234.705 9.37109C235.343 9.37109 235.89 9.51237 236.346 9.79492C236.801 10.0775 237.15 10.474 237.392 10.9844C237.633 11.4902 237.754 12.0827 237.754 12.7617V13.4658H232.579C232.593 14.3454 232.812 15.0153 233.235 15.4756C233.659 15.9359 234.256 16.166 235.026 16.166C235.5 16.166 235.92 16.1227 236.284 16.0361C236.649 15.9495 237.027 15.8219 237.419 15.6533V16.6514C237.041 16.82 236.665 16.943 236.291 17.0205C235.922 17.098 235.484 17.1367 234.979 17.1367C234.258 17.1367 233.63 16.9909 233.092 16.6992C232.559 16.403 232.144 15.9701 231.848 15.4004C231.551 14.8307 231.403 14.1335 231.403 13.3086C231.403 12.502 231.538 11.8047 231.807 11.2168C232.08 10.6243 232.463 10.1686 232.955 9.84961C233.452 9.5306 234.035 9.37109 234.705 9.37109ZM234.691 10.3008C234.085 10.3008 233.602 10.499 233.242 10.8955C232.882 11.292 232.668 11.8457 232.6 12.5566H236.564C236.56 12.11 236.489 11.7181 236.353 11.3809C236.22 11.0391 236.018 10.7747 235.744 10.5879C235.471 10.3965 235.12 10.3008 234.691 10.3008ZM240.809 17H239.668V6.36328H240.809V17ZM252.32 10.8545L251.876 13.1787H253.811V14.0469H251.705L251.124 17H250.201L250.782 14.0469H248.697L248.137 17H247.228L247.768 14.0469H245.977V13.1787H247.938L248.396 10.8545H246.496V10H248.554L249.121 7.00586H250.058L249.49 10H251.589L252.156 7.00586H253.059L252.491 10H254.303V10.8545H252.32ZM248.861 13.1787H250.946L251.397 10.8545H249.312L248.861 13.1787Z" fill="#696F8C"/>
<path d="M272.367 17V7.00586H273.529V15.9609H277.966V17H272.367ZM282.299 9.38477C283.193 9.38477 283.856 9.58529 284.289 9.98633C284.722 10.3874 284.938 11.0277 284.938 11.9072V17H284.111L283.892 15.8926H283.838C283.628 16.166 283.409 16.3962 283.181 16.583C282.953 16.7653 282.689 16.9043 282.388 17C282.092 17.0911 281.728 17.1367 281.295 17.1367C280.839 17.1367 280.433 17.057 280.078 16.8975C279.727 16.738 279.449 16.4964 279.244 16.1729C279.043 15.8493 278.943 15.4391 278.943 14.9424C278.943 14.195 279.239 13.6208 279.832 13.2197C280.424 12.8187 281.326 12.5999 282.539 12.5635L283.831 12.5088V12.0508C283.831 11.4036 283.692 10.9502 283.414 10.6904C283.136 10.4307 282.744 10.3008 282.238 10.3008C281.846 10.3008 281.472 10.3577 281.117 10.4717C280.761 10.5856 280.424 10.7201 280.105 10.875L279.757 10.0137C280.094 9.84049 280.481 9.69238 280.919 9.56934C281.356 9.44629 281.816 9.38477 282.299 9.38477ZM283.817 13.3086L282.675 13.3564C281.741 13.3929 281.083 13.5456 280.7 13.8145C280.317 14.0833 280.126 14.4639 280.126 14.9561C280.126 15.3844 280.256 15.7012 280.515 15.9062C280.775 16.1113 281.119 16.2139 281.548 16.2139C282.213 16.2139 282.757 16.0293 283.181 15.6602C283.605 15.291 283.817 14.7373 283.817 13.999V13.3086ZM288.397 6.36328V9.02246C288.397 9.3278 288.388 9.62402 288.369 9.91113C288.356 10.1982 288.344 10.4215 288.335 10.5811H288.397C288.602 10.2438 288.898 9.95898 289.285 9.72656C289.673 9.49414 290.167 9.37793 290.769 9.37793C291.708 9.37793 292.455 9.70378 293.011 10.3555C293.572 11.0026 293.852 11.9665 293.852 13.2471C293.852 14.0902 293.724 14.8011 293.469 15.3799C293.214 15.9587 292.854 16.3962 292.389 16.6924C291.924 16.9886 291.375 17.1367 290.742 17.1367C290.149 17.1367 289.661 17.0273 289.279 16.8086C288.9 16.5853 288.609 16.3141 288.404 15.9951H288.315L288.082 17H287.262V6.36328H288.397ZM290.584 10.3281C290.042 10.3281 289.611 10.4352 289.292 10.6494C288.973 10.859 288.743 11.1781 288.602 11.6064C288.465 12.0303 288.397 12.568 288.397 13.2197V13.2812C288.397 14.2246 288.554 14.9469 288.868 15.4482C289.183 15.945 289.755 16.1934 290.584 16.1934C291.282 16.1934 291.803 15.9382 292.15 15.4277C292.501 14.9173 292.676 14.1882 292.676 13.2402C292.676 12.2741 292.503 11.5472 292.157 11.0596C291.815 10.5719 291.291 10.3281 290.584 10.3281ZM298.705 9.37109C299.343 9.37109 299.89 9.51237 300.346 9.79492C300.801 10.0775 301.15 10.474 301.392 10.9844C301.633 11.4902 301.754 12.0827 301.754 12.7617V13.4658H296.579C296.593 14.3454 296.812 15.0153 297.235 15.4756C297.659 15.9359 298.256 16.166 299.026 16.166C299.5 16.166 299.92 16.1227 300.284 16.0361C300.649 15.9495 301.027 15.8219 301.419 15.6533V16.6514C301.041 16.82 300.665 16.943 300.291 17.0205C299.922 17.098 299.484 17.1367 298.979 17.1367C298.258 17.1367 297.63 16.9909 297.092 16.6992C296.559 16.403 296.144 15.9701 295.848 15.4004C295.551 14.8307 295.403 14.1335 295.403 13.3086C295.403 12.502 295.538 11.8047 295.807 11.2168C296.08 10.6243 296.463 10.1686 296.955 9.84961C297.452 9.5306 298.035 9.37109 298.705 9.37109ZM298.691 10.3008C298.085 10.3008 297.602 10.499 297.242 10.8955C296.882 11.292 296.668 11.8457 296.6 12.5566H300.564C300.56 12.11 300.489 11.7181 300.353 11.3809C300.22 11.0391 300.018 10.7747 299.744 10.5879C299.471 10.3965 299.12 10.3008 298.691 10.3008ZM304.809 17H303.668V6.36328H304.809V17ZM316.32 10.8545L315.876 13.1787H317.811V14.0469H315.705L315.124 17H314.201L314.782 14.0469H312.697L312.137 17H311.228L311.768 14.0469H309.977V13.1787H311.938L312.396 10.8545H310.496V10H312.554L313.121 7.00586H314.058L313.49 10H315.589L316.156 7.00586H317.059L316.491 10H318.303V10.8545H316.32ZM312.861 13.1787H314.946L315.397 10.8545H313.312L312.861 13.1787Z" fill="#696F8C"/>
<path d="M336.367 17V7.00586H337.529V15.9609H341.966V17H336.367ZM346.299 9.38477C347.193 9.38477 347.856 9.58529 348.289 9.98633C348.722 10.3874 348.938 11.0277 348.938 11.9072V17H348.111L347.892 15.8926H347.838C347.628 16.166 347.409 16.3962 347.181 16.583C346.953 16.7653 346.689 16.9043 346.388 17C346.092 17.0911 345.728 17.1367 345.295 17.1367C344.839 17.1367 344.433 17.057 344.078 16.8975C343.727 16.738 343.449 16.4964 343.244 16.1729C343.043 15.8493 342.943 15.4391 342.943 14.9424C342.943 14.195 343.239 13.6208 343.832 13.2197C344.424 12.8187 345.326 12.5999 346.539 12.5635L347.831 12.5088V12.0508C347.831 11.4036 347.692 10.9502 347.414 10.6904C347.136 10.4307 346.744 10.3008 346.238 10.3008C345.846 10.3008 345.472 10.3577 345.117 10.4717C344.761 10.5856 344.424 10.7201 344.105 10.875L343.757 10.0137C344.094 9.84049 344.481 9.69238 344.919 9.56934C345.356 9.44629 345.816 9.38477 346.299 9.38477ZM347.817 13.3086L346.675 13.3564C345.741 13.3929 345.083 13.5456 344.7 13.8145C344.317 14.0833 344.126 14.4639 344.126 14.9561C344.126 15.3844 344.256 15.7012 344.515 15.9062C344.775 16.1113 345.119 16.2139 345.548 16.2139C346.213 16.2139 346.757 16.0293 347.181 15.6602C347.605 15.291 347.817 14.7373 347.817 13.999V13.3086ZM352.397 6.36328V9.02246C352.397 9.3278 352.388 9.62402 352.369 9.91113C352.356 10.1982 352.344 10.4215 352.335 10.5811H352.397C352.602 10.2438 352.898 9.95898 353.285 9.72656C353.673 9.49414 354.167 9.37793 354.769 9.37793C355.708 9.37793 356.455 9.70378 357.011 10.3555C357.572 11.0026 357.852 11.9665 357.852 13.2471C357.852 14.0902 357.724 14.8011 357.469 15.3799C357.214 15.9587 356.854 16.3962 356.389 16.6924C355.924 16.9886 355.375 17.1367 354.742 17.1367C354.149 17.1367 353.661 17.0273 353.279 16.8086C352.9 16.5853 352.609 16.3141 352.404 15.9951H352.315L352.082 17H351.262V6.36328H352.397ZM354.584 10.3281C354.042 10.3281 353.611 10.4352 353.292 10.6494C352.973 10.859 352.743 11.1781 352.602 11.6064C352.465 12.0303 352.397 12.568 352.397 13.2197V13.2812C352.397 14.2246 352.554 14.9469 352.868 15.4482C353.183 15.945 353.755 16.1934 354.584 16.1934C355.282 16.1934 355.803 15.9382 356.15 15.4277C356.501 14.9173 356.676 14.1882 356.676 13.2402C356.676 12.2741 356.503 11.5472 356.157 11.0596C355.815 10.5719 355.291 10.3281 354.584 10.3281ZM362.705 9.37109C363.343 9.37109 363.89 9.51237 364.346 9.79492C364.801 10.0775 365.15 10.474 365.392 10.9844C365.633 11.4902 365.754 12.0827 365.754 12.7617V13.4658H360.579C360.593 14.3454 360.812 15.0153 361.235 15.4756C361.659 15.9359 362.256 16.166 363.026 16.166C363.5 16.166 363.92 16.1227 364.284 16.0361C364.649 15.9495 365.027 15.8219 365.419 15.6533V16.6514C365.041 16.82 364.665 16.943 364.291 17.0205C363.922 17.098 363.484 17.1367 362.979 17.1367C362.258 17.1367 361.63 16.9909 361.092 16.6992C360.559 16.403 360.144 15.9701 359.848 15.4004C359.551 14.8307 359.403 14.1335 359.403 13.3086C359.403 12.502 359.538 11.8047 359.807 11.2168C360.08 10.6243 360.463 10.1686 360.955 9.84961C361.452 9.5306 362.035 9.37109 362.705 9.37109ZM362.691 10.3008C362.085 10.3008 361.602 10.499 361.242 10.8955C360.882 11.292 360.668 11.8457 360.6 12.5566H364.564C364.56 12.11 364.489 11.7181 364.353 11.3809C364.22 11.0391 364.018 10.7747 363.744 10.5879C363.471 10.3965 363.12 10.3008 362.691 10.3008ZM368.809 17H367.668V6.36328H368.809V17ZM380.32 10.8545L379.876 13.1787H381.811V14.0469H379.705L379.124 17H378.201L378.782 14.0469H376.697L376.137 17H375.228L375.768 14.0469H373.977V13.1787H375.938L376.396 10.8545H374.496V10H376.554L377.121 7.00586H378.058L377.49 10H379.589L380.156 7.00586H381.059L380.491 10H382.303V10.8545H380.32ZM376.861 13.1787H378.946L379.397 10.8545H377.312L376.861 13.1787Z" fill="#696F8C"/>
<path d="M400.367 17V7.00586H401.529V15.9609H405.966V17H400.367ZM410.299 9.38477C411.193 9.38477 411.856 9.58529 412.289 9.98633C412.722 10.3874 412.938 11.0277 412.938 11.9072V17H412.111L411.892 15.8926H411.838C411.628 16.166 411.409 16.3962 411.181 16.583C410.953 16.7653 410.689 16.9043 410.388 17C410.092 17.0911 409.728 17.1367 409.295 17.1367C408.839 17.1367 408.433 17.057 408.078 16.8975C407.727 16.738 407.449 16.4964 407.244 16.1729C407.043 15.8493 406.943 15.4391 406.943 14.9424C406.943 14.195 407.239 13.6208 407.832 13.2197C408.424 12.8187 409.326 12.5999 410.539 12.5635L411.831 12.5088V12.0508C411.831 11.4036 411.692 10.9502 411.414 10.6904C411.136 10.4307 410.744 10.3008 410.238 10.3008C409.846 10.3008 409.472 10.3577 409.117 10.4717C408.761 10.5856 408.424 10.7201 408.105 10.875L407.757 10.0137C408.094 9.84049 408.481 9.69238 408.919 9.56934C409.356 9.44629 409.816 9.38477 410.299 9.38477ZM411.817 13.3086L410.675 13.3564C409.741 13.3929 409.083 13.5456 408.7 13.8145C408.317 14.0833 408.126 14.4639 408.126 14.9561C408.126 15.3844 408.256 15.7012 408.515 15.9062C408.775 16.1113 409.119 16.2139 409.548 16.2139C410.213 16.2139 410.757 16.0293 411.181 15.6602C411.605 15.291 411.817 14.7373 411.817 13.999V13.3086ZM416.397 6.36328V9.02246C416.397 9.3278 416.388 9.62402 416.369 9.91113C416.356 10.1982 416.344 10.4215 416.335 10.5811H416.397C416.602 10.2438 416.898 9.95898 417.285 9.72656C417.673 9.49414 418.167 9.37793 418.769 9.37793C419.708 9.37793 420.455 9.70378 421.011 10.3555C421.572 11.0026 421.852 11.9665 421.852 13.2471C421.852 14.0902 421.724 14.8011 421.469 15.3799C421.214 15.9587 420.854 16.3962 420.389 16.6924C419.924 16.9886 419.375 17.1367 418.742 17.1367C418.149 17.1367 417.661 17.0273 417.279 16.8086C416.9 16.5853 416.609 16.3141 416.404 15.9951H416.315L416.082 17H415.262V6.36328H416.397ZM418.584 10.3281C418.042 10.3281 417.611 10.4352 417.292 10.6494C416.973 10.859 416.743 11.1781 416.602 11.6064C416.465 12.0303 416.397 12.568 416.397 13.2197V13.2812C416.397 14.2246 416.554 14.9469 416.868 15.4482C417.183 15.945 417.755 16.1934 418.584 16.1934C419.282 16.1934 419.803 15.9382 420.15 15.4277C420.501 14.9173 420.676 14.1882 420.676 13.2402C420.676 12.2741 420.503 11.5472 420.157 11.0596C419.815 10.5719 419.291 10.3281 418.584 10.3281ZM426.705 9.37109C427.343 9.37109 427.89 9.51237 428.346 9.79492C428.801 10.0775 429.15 10.474 429.392 10.9844C429.633 11.4902 429.754 12.0827 429.754 12.7617V13.4658H424.579C424.593 14.3454 424.812 15.0153 425.235 15.4756C425.659 15.9359 426.256 16.166 427.026 16.166C427.5 16.166 427.92 16.1227 428.284 16.0361C428.649 15.9495 429.027 15.8219 429.419 15.6533V16.6514C429.041 16.82 428.665 16.943 428.291 17.0205C427.922 17.098 427.484 17.1367 426.979 17.1367C426.258 17.1367 425.63 16.9909 425.092 16.6992C424.559 16.403 424.144 15.9701 423.848 15.4004C423.551 14.8307 423.403 14.1335 423.403 13.3086C423.403 12.502 423.538 11.8047 423.807 11.2168C424.08 10.6243 424.463 10.1686 424.955 9.84961C425.452 9.5306 426.035 9.37109 426.705 9.37109ZM426.691 10.3008C426.085 10.3008 425.602 10.499 425.242 10.8955C424.882 11.292 424.668 11.8457 424.6 12.5566H428.564C428.56 12.11 428.489 11.7181 428.353 11.3809C428.22 11.0391 428.018 10.7747 427.744 10.5879C427.471 10.3965 427.12 10.3008 426.691 10.3008ZM432.809 17H431.668V6.36328H432.809V17ZM444.32 10.8545L443.876 13.1787H445.811V14.0469H443.705L443.124 17H442.201L442.782 14.0469H440.697L440.137 17H439.228L439.768 14.0469H437.977V13.1787H439.938L440.396 10.8545H438.496V10H440.554L441.121 7.00586H442.058L441.49 10H443.589L444.156 7.00586H445.059L444.491 10H446.303V10.8545H444.32ZM440.861 13.1787H442.946L443.397 10.8545H441.312L440.861 13.1787Z" fill="#696F8C"/>
<path d="M464.367 17V7.00586H465.529V15.9609H469.966V17H464.367ZM474.299 9.38477C475.193 9.38477 475.856 9.58529 476.289 9.98633C476.722 10.3874 476.938 11.0277 476.938 11.9072V17H476.111L475.892 15.8926H475.838C475.628 16.166 475.409 16.3962 475.181 16.583C474.953 16.7653 474.689 16.9043 474.388 17C474.092 17.0911 473.728 17.1367 473.295 17.1367C472.839 17.1367 472.433 17.057 472.078 16.8975C471.727 16.738 471.449 16.4964 471.244 16.1729C471.043 15.8493 470.943 15.4391 470.943 14.9424C470.943 14.195 471.239 13.6208 471.832 13.2197C472.424 12.8187 473.326 12.5999 474.539 12.5635L475.831 12.5088V12.0508C475.831 11.4036 475.692 10.9502 475.414 10.6904C475.136 10.4307 474.744 10.3008 474.238 10.3008C473.846 10.3008 473.472 10.3577 473.117 10.4717C472.761 10.5856 472.424 10.7201 472.105 10.875L471.757 10.0137C472.094 9.84049 472.481 9.69238 472.919 9.56934C473.356 9.44629 473.816 9.38477 474.299 9.38477ZM475.817 13.3086L474.675 13.3564C473.741 13.3929 473.083 13.5456 472.7 13.8145C472.317 14.0833 472.126 14.4639 472.126 14.9561C472.126 15.3844 472.256 15.7012 472.515 15.9062C472.775 16.1113 473.119 16.2139 473.548 16.2139C474.213 16.2139 474.757 16.0293 475.181 15.6602C475.605 15.291 475.817 14.7373 475.817 13.999V13.3086ZM480.397 6.36328V9.02246C480.397 9.3278 480.388 9.62402 480.369 9.91113C480.356 10.1982 480.344 10.4215 480.335 10.5811H480.397C480.602 10.2438 480.898 9.95898 481.285 9.72656C481.673 9.49414 482.167 9.37793 482.769 9.37793C483.708 9.37793 484.455 9.70378 485.011 10.3555C485.572 11.0026 485.852 11.9665 485.852 13.2471C485.852 14.0902 485.724 14.8011 485.469 15.3799C485.214 15.9587 484.854 16.3962 484.389 16.6924C483.924 16.9886 483.375 17.1367 482.742 17.1367C482.149 17.1367 481.661 17.0273 481.279 16.8086C480.9 16.5853 480.609 16.3141 480.404 15.9951H480.315L480.082 17H479.262V6.36328H480.397ZM482.584 10.3281C482.042 10.3281 481.611 10.4352 481.292 10.6494C480.973 10.859 480.743 11.1781 480.602 11.6064C480.465 12.0303 480.397 12.568 480.397 13.2197V13.2812C480.397 14.2246 480.554 14.9469 480.868 15.4482C481.183 15.945 481.755 16.1934 482.584 16.1934C483.282 16.1934 483.803 15.9382 484.15 15.4277C484.501 14.9173 484.676 14.1882 484.676 13.2402C484.676 12.2741 484.503 11.5472 484.157 11.0596C483.815 10.5719 483.291 10.3281 482.584 10.3281ZM490.705 9.37109C491.343 9.37109 491.89 9.51237 492.346 9.79492C492.801 10.0775 493.15 10.474 493.392 10.9844C493.633 11.4902 493.754 12.0827 493.754 12.7617V13.4658H488.579C488.593 14.3454 488.812 15.0153 489.235 15.4756C489.659 15.9359 490.256 16.166 491.026 16.166C491.5 16.166 491.92 16.1227 492.284 16.0361C492.649 15.9495 493.027 15.8219 493.419 15.6533V16.6514C493.041 16.82 492.665 16.943 492.291 17.0205C491.922 17.098 491.484 17.1367 490.979 17.1367C490.258 17.1367 489.63 16.9909 489.092 16.6992C488.559 16.403 488.144 15.9701 487.848 15.4004C487.551 14.8307 487.403 14.1335 487.403 13.3086C487.403 12.502 487.538 11.8047 487.807 11.2168C488.08 10.6243 488.463 10.1686 488.955 9.84961C489.452 9.5306 490.035 9.37109 490.705 9.37109ZM490.691 10.3008C490.085 10.3008 489.602 10.499 489.242 10.8955C488.882 11.292 488.668 11.8457 488.6 12.5566H492.564C492.56 12.11 492.489 11.7181 492.353 11.3809C492.22 11.0391 492.018 10.7747 491.744 10.5879C491.471 10.3965 491.12 10.3008 490.691 10.3008ZM496.809 17H495.668V6.36328H496.809V17ZM508.32 10.8545L507.876 13.1787H509.811V14.0469H507.705L507.124 17H506.201L506.782 14.0469H504.697L504.137 17H503.228L503.768 14.0469H501.977V13.1787H503.938L504.396 10.8545H502.496V10H504.554L505.121 7.00586H506.058L505.49 10H507.589L508.156 7.00586H509.059L508.491 10H510.303V10.8545H508.32ZM504.861 13.1787H506.946L507.397 10.8545H505.312L504.861 13.1787Z" fill="#696F8C"/>
</svg>
