<svg width="816" height="24" viewBox="0 0 816 24" fill="none" xmlns="http://www.w3.org/2000/svg">
<path d="M20 8H17V4H3C1.9 4 1 4.9 1 6V17H3C3 18.7 4.3 20 6 20C7.7 20 9 18.7 9 17H15C15 18.7 16.3 20 18 20C19.7 20 21 18.7 21 17H23V12L20 8ZM6 18.5C5.2 18.5 4.5 17.8 4.5 17C4.5 16.2 5.2 15.5 6 15.5C6.8 15.5 7.5 16.2 7.5 17C7.5 17.8 6.8 18.5 6 18.5ZM15 15H8.2C7.7 14.4 6.9 14 6 14C5.1 14 4.3 14.4 3.8 15H3V6H15V15ZM18 18.5C17.2 18.5 16.5 17.8 16.5 17C16.5 16.2 17.2 15.5 18 15.5C18.8 15.5 19.5 16.2 19.5 17C19.5 17.8 18.8 18.5 18 18.5ZM17 12V9.5H19.5L21.5 12H17ZM8 11H6V9H8V7H10V9H12V11H10V13H8V11Z" fill="#474D66"/>
<path d="M507.693 10.6148V5.07677C507.698 4.98441 507.684 4.89193 507.652 4.80542C507.619 4.71892 507.568 4.64036 507.503 4.57494C507.437 4.50951 507.359 4.45871 507.272 4.42589C507.186 4.39306 507.093 4.37896 507.001 4.38451H506.308C505.942 4.38342 505.59 4.2372 505.331 3.97779C505.071 3.71838 504.925 3.36686 504.924 3V3" stroke="#474D66" stroke-width="2" stroke-miterlimit="10" stroke-linecap="round" stroke-linejoin="round"/>
<path d="M498.001 10.6147C497.997 11.2522 498.12 11.8841 498.362 12.4738C498.604 13.0635 498.961 13.5993 499.412 14.05C499.862 14.5008 500.398 14.8576 500.988 15.0997C501.578 15.3418 502.209 15.4645 502.847 15.4605C503.484 15.4645 504.116 15.3418 504.706 15.0997C505.296 14.8576 505.831 14.5008 506.282 14.05C506.733 13.5993 507.09 13.0635 507.332 12.4738C507.574 11.8841 507.697 11.2522 507.693 10.6147" stroke="#474D66" stroke-width="2" stroke-miterlimit="10" stroke-linecap="round" stroke-linejoin="round"/>
<path d="M500.77 3C500.769 3.36686 500.623 3.71838 500.363 3.97779C500.104 4.2372 499.753 4.38342 499.386 4.38451H498.693C498.601 4.37896 498.509 4.39306 498.422 4.42589C498.336 4.45871 498.257 4.50951 498.192 4.57494C498.126 4.64036 498.075 4.71892 498.043 4.80542C498.01 4.89193 497.996 4.98441 498.001 5.07677V10.6148" stroke="#474D66" stroke-width="2" stroke-miterlimit="10" stroke-linecap="round" stroke-linejoin="round"/>
<path d="M513.231 10.6147C514.76 10.6147 516 9.37497 516 7.84568C516 6.31639 514.76 5.07666 513.231 5.07666C511.701 5.07666 510.462 6.31639 510.462 7.84568C510.462 9.37497 511.701 10.6147 513.231 10.6147Z" stroke="#474D66" stroke-width="2" stroke-miterlimit="10" stroke-linecap="round" stroke-linejoin="round"/>
<path d="M502.847 15.4605V16.4989C502.857 17.8728 503.407 19.1876 504.379 20.1591C505.35 21.1307 506.665 21.6809 508.039 21.6908V21.6908C509.413 21.6809 510.728 21.1307 511.699 20.1591C512.671 19.1876 513.221 17.8728 513.231 16.4989V10.6147" stroke="#474D66" stroke-width="2" stroke-miterlimit="10" stroke-linecap="round" stroke-linejoin="round"/>
<path d="M409.293 2.70697L410.111 3.52497L399.318 14.318C398.468 15.168 398 16.298 398 17.5C398 18.702 398.468 19.832 399.318 20.683C400.169 21.532 401.299 22 402.5 22C403.701 22 404.831 21.532 405.682 20.682L416.475 9.88897L417.293 10.707L418.707 9.29297L410.707 1.29297L409.293 2.70697ZM412.475 11.061L410.072 8.65697L408.658 10.071L411.061 12.475L409.647 13.89L408.657 12.9L407.243 14.314L408.233 15.304L406.818 16.719L404.415 14.315L403 15.728L405.403 18.132L404.267 19.268C403.322 20.212 401.677 20.212 400.732 19.268C400.26 18.795 400 18.168 400 17.5C400 16.832 400.26 16.205 400.732 15.732L411.525 4.93897L415.06 8.47397L412.475 11.061Z" fill="#474D66"/>
<path d="M114.5 22L113.703 21.2807C110.87 18.7357 109 17.0572 109 14.9973C109 13.3188 110.331 12 112.025 12C112.982 12 113.9 12.4414 114.5 13.139C115.1 12.4414 116.018 12 116.975 12C118.669 12 120 13.3188 120 14.9973C120 17.0572 118.13 18.7357 115.298 21.2861L114.5 22Z" fill="#474D66"/>
<path d="M117 3H113.82C113.4 1.84 112.3 1 111 1C109.7 1 108.6 1.84 108.18 3H105C103.9 3 103 3.9 103 5V20C103 21.1 103.9 22 105 22H111.11C110.52 21.43 110.04 20.75 109.69 20H105V5H107V8H115V5H117V10.08C117.71 10.18 118.38 10.39 119 10.68V5C119 3.9 118.1 3 117 3ZM111 5C110.45 5 110 4.55 110 4C110 3.45 110.45 3 111 3C111.55 3 112 3.45 112 4C112 4.55 111.55 5 111 5Z" fill="#474D66"/>
<path fill-rule="evenodd" clip-rule="evenodd" d="M700.442 5.27538L699.399 9.76402C703.082 10.5173 706.866 10.5173 710.549 9.76402L709.506 5.27538C708.079 4.59933 706.535 4.25 704.974 4.25C703.413 4.25 701.869 4.59933 700.442 5.27538ZM699.449 4.09274C701.17 3.20978 703.059 2.75 704.974 2.75C706.889 2.75 708.778 3.20978 710.498 4.09274C710.695 4.19344 710.837 4.37539 710.886 4.59021L712.182 10.1646C712.276 10.568 712.025 10.9711 711.621 11.0649C707.242 12.0836 702.706 12.0836 698.327 11.0649C697.923 10.9711 697.672 10.568 697.766 10.1646L699.061 4.59021C699.111 4.37539 699.253 4.19344 699.449 4.09274ZM711.368 12.8018C711.276 12.8422 711.135 12.9389 710.951 13.142C710.674 13.4498 710.2 13.4745 709.892 13.1972C709.585 12.9199 709.56 12.4457 709.837 12.138C710.355 11.5636 711.094 11.0769 711.97 11.3548C711.992 11.3618 712.014 11.3699 712.035 11.3789C712.692 11.6565 713.015 12.2938 713.134 12.8835C713.257 13.4922 713.202 14.1951 712.98 14.8701C712.757 15.5508 712.368 16.1561 711.892 16.5615C711.603 16.8079 711.218 17.0257 710.793 17.0754C710.443 18.1429 709.789 19.0981 708.903 19.8325C707.82 20.7305 706.453 21.2465 705.028 21.3021C705.011 21.3028 704.994 21.3029 704.976 21.3023C703.546 21.259 702.17 20.7469 701.083 19.8454C700.194 19.1087 699.542 18.1478 699.199 17.0747C698.777 17.0235 698.394 16.8067 698.106 16.5615C697.635 16.1602 697.25 15.5631 697.025 14.8908C696.763 14.2156 696.682 13.5056 696.808 12.8835C696.934 12.2591 697.297 11.6317 697.988 11.3688C698.024 11.3553 698.06 11.3445 698.097 11.3366C698.507 11.2484 698.935 11.2879 699.321 11.4511C699.708 11.6145 700.035 11.8953 700.25 12.2588C700.46 12.6155 700.342 13.0754 699.985 13.2859C699.628 13.4964 699.169 13.3779 698.958 13.0212C698.912 12.9434 698.837 12.8749 698.737 12.8327C698.657 12.7989 698.568 12.7851 698.48 12.7928C698.417 12.8357 698.327 12.9387 698.279 13.1807C698.218 13.4791 698.247 13.9016 698.428 14.361C698.434 14.3745 698.439 14.3881 698.443 14.4019C698.594 14.8617 698.843 15.2188 699.079 15.4193C699.206 15.5275 699.292 15.5649 699.342 15.5772C699.531 15.4534 699.768 15.4198 699.987 15.4915C700.249 15.5774 700.443 15.8003 700.492 16.0719C700.673 17.0813 701.217 18.0078 702.04 18.6907C702.858 19.3687 703.901 19.7634 704.996 19.8022C706.089 19.7539 707.129 19.3554 707.946 18.6777C708.769 17.9953 709.317 17.0723 709.508 16.0647C709.58 15.6844 709.929 15.4214 710.314 15.4576C710.44 15.4694 710.557 15.5118 710.656 15.5771C710.706 15.5648 710.793 15.5274 710.92 15.4193C711.155 15.2188 711.404 14.8617 711.555 14.4019C711.708 13.9364 711.728 13.4986 711.664 13.1807C711.61 12.9158 711.52 12.8124 711.476 12.7766C711.449 12.7751 711.417 12.7808 711.368 12.8018ZM704.974 5.36816C705.25 5.36816 705.474 5.59202 705.474 5.86816V7.2627H706.967C707.243 7.2627 707.467 7.48655 707.467 7.7627C707.467 8.03884 707.243 8.2627 706.967 8.2627H705.474V9.65764C705.474 9.93378 705.25 10.1576 704.974 10.1576C704.698 10.1576 704.474 9.93378 704.474 9.65764V8.2627H702.981C702.705 8.2627 702.481 8.03884 702.481 7.7627C702.481 7.48655 702.705 7.2627 702.981 7.2627H704.474V5.86816C704.474 5.59202 704.698 5.36816 704.974 5.36816Z" fill="#474D66"/>
<path d="M610.97 4.75703C610.863 4.32603 610.483 4.01703 610.038 4.00103C609.606 3.97603 609.192 4.26203 609.052 4.68403L605.866 14.238L602.914 7.59403C602.751 7.22703 602.372 6.98603 601.981 7.00003C601.579 7.00803 601.22 7.25503 601.071 7.62803L599.323 12H596V14H599.323C600.146 14 600.875 13.506 601.179 12.743L602.048 10.571L605.085 17.406C605.247 17.769 605.606 18 606 18C606.016 18 606.032 18 606.048 17.999C606.461 17.978 606.819 17.708 606.948 17.316L609.862 8.57403L610.841 12.485C611.063 13.377 611.861 14 612.781 14H616V12H612.78L610.97 4.75703Z" fill="#474D66"/>
<path d="M804.707 2.29301C804.316 1.90201 803.684 1.90201 803.293 2.29301L794.293 11.293C794.007 11.579 793.921 12.009 794.076 12.383C794.23 12.757 794.596 13 795 13H796V15V20C796 21.103 796.897 22 798 22H810C811.103 22 812 21.103 812 20V15V13H813C813.404 13 813.77 12.757 813.924 12.383C814.079 12.009 813.993 11.579 813.707 11.293L804.707 2.29301ZM810.001 20H798V15V12V10.414L804 4.41401L810 10.414V15L810.001 20Z" fill="#474D66"/>
<path d="M805 10H803V13H800V15H803V18H805V15H808V13H805V10Z" fill="#474D66"/>
<g clip-path="url(#clip0_1220_6488)">
<path d="M213.5 6.5C213.5 5.66 215 4 215 4C215 4 216.5 5.66 216.5 6.5C216.5 7.33 215.83 8 215 8C214.17 8 213.5 7.33 213.5 6.5ZM217.5 15C218.88 15 220 13.88 220 12.5C220 10.83 217.5 8 217.5 8C217.5 8 215 10.83 215 12.5C215 13.88 216.12 15 217.5 15ZM211 14H209V12H207V14H205V16H207V18H209V16H211V14ZM214 12V20C214 21.1 213.1 22 212 22H204C202.9 22 202 21.1 202 20V12C202 9.03 204.16 6.57 207 6.09V4H205V2H211C212.13 2 213.15 2.39 213.99 3.01L212.56 4.44C212.1 4.17 211.57 4 211 4H209V6.09C211.84 6.57 214 9.03 214 12ZM212 12C212 9.79 210.21 8 208 8C205.79 8 204 9.79 204 12V20H212V12Z" fill="#474D66"/>
</g>
<g clip-path="url(#clip1_1220_6488)">
<path d="M310 11.33L315 18H303L308 11.33V6H310V11.33ZM312.96 4H305.04C304.62 4 304.39 4.48 304.65 4.81L306 6.5V10.67L300.2 18.4C299.71 19.06 300.18 20 301 20H317C317.82 20 318.29 19.06 317.8 18.4L312 10.67V6.5L313.35 4.81C313.61 4.48 313.38 4 312.96 4Z" fill="#474D66"/>
</g>
<defs>
<clipPath id="clip0_1220_6488">
<rect width="24" height="24" fill="white" transform="translate(198)"/>
</clipPath>
<clipPath id="clip1_1220_6488">
<rect width="24" height="24" fill="white" transform="translate(297)"/>
</clipPath>
</defs>
</svg>
