<svg width="19" height="25" viewBox="0 0 19 25" fill="none" xmlns="http://www.w3.org/2000/svg">
<path d="M15.8426 9.7185C15.015 8.91894 14.0206 8.28649 12.9208 7.86029C11.8211 7.43409 10.6394 7.2232 9.44887 7.24066C7.34911 7.24066 5.50016 8.00341 3.90202 9.5289V0H0.615906V16.8774H3.90202V14.5107C4.12523 13.5371 4.65688 12.6487 5.42784 11.961C5.94848 11.4583 6.57389 11.0605 7.26547 10.7924C7.95706 10.5242 8.70014 10.3912 9.44887 10.4017C10.196 10.3912 10.9376 10.5242 11.6274 10.7924C12.3173 11.0606 12.9409 11.4584 13.4594 11.961C13.9854 12.4516 14.4027 13.0343 14.6874 13.6757C14.9721 14.3171 15.1187 15.0046 15.1187 15.699C15.1187 16.3933 14.9721 17.0809 14.6874 17.7223C14.4027 18.3637 13.9854 18.9464 13.4594 19.437C12.9387 19.936 12.3144 20.3305 11.6248 20.5963C10.9352 20.8622 10.1948 20.9938 9.44887 20.9832C8.63843 21.0129 7.84278 20.7744 7.20213 20.3098V23.6833C7.89911 24.0084 8.66998 24.171 9.44887 24.1573C10.6394 24.1748 11.8211 23.9639 12.9208 23.5377C14.0206 23.1115 15.015 22.479 15.8426 21.6795C16.6967 20.9022 17.3716 19.9699 17.826 18.9401C18.2804 17.9103 18.5046 16.8045 18.4848 15.6908C18.5022 14.5798 18.2768 13.4772 17.8225 12.4504C17.3682 11.4235 16.6945 10.4939 15.8426 9.7185V9.7185Z" fill="#3366FF"/>
<path d="M4.95542 21.1434C4.95542 21.6011 4.8101 22.0486 4.53785 22.4292C4.26559 22.8098 3.87863 23.1064 3.42589 23.2816C2.97315 23.4568 2.47496 23.5026 1.99433 23.4133C1.5137 23.324 1.07222 23.1036 0.725705 22.7799C0.379191 22.4562 0.143213 22.0438 0.0476096 21.5949C-0.0479933 21.1459 0.00107356 20.6806 0.188605 20.2577C0.376137 19.8348 0.693711 19.4733 1.10117 19.219C1.50863 18.9647 1.98767 18.829 2.47771 18.829C2.80309 18.829 3.12528 18.8888 3.42589 19.0052C3.7265 19.1215 3.99964 19.2919 4.22971 19.5069C4.45979 19.7218 4.6423 19.9769 4.76681 20.2577C4.89133 20.5385 4.95542 20.8394 4.95542 21.1434V21.1434Z" fill="#A9C1FD"/>
</svg>
