<svg width="120" height="134" viewBox="0 0 120 134" fill="none" xmlns="http://www.w3.org/2000/svg">
<path d="M48 134V98H60V126.11L48 134Z" fill="#9DB5FF"/>
<path d="M73 134V98H60V126.11L73 134Z" fill="#3366FF"/>
<circle cx="60" cy="60" r="60" fill="#EBF0FF"/>
<path fill-rule="evenodd" clip-rule="evenodd" d="M60 120C93.1371 120 120 93.1371 120 60C120 26.8629 93.1371 5.79387e-06 60 0C60 0 60 0 60 0L60 120Z" fill="#D6E0FF"/>
<g clip-path="url(#clip0_11_41)">
<path d="M93.1552 45.9593C89.5231 37.3361 82.6624 30.4754 74.0392 26.8433C69.6051 24.9382 64.8252 23.9699 59.9992 23.9993C55.1733 23.9699 50.3934 24.9382 45.9592 26.8433C37.3361 30.4754 30.4754 37.3361 26.8432 45.9593C24.9382 50.3934 23.9699 55.1733 23.9992 59.9993C23.9699 64.8252 24.9382 69.6051 26.8432 74.0393C30.4754 82.6624 37.3361 89.5231 45.9592 93.1553C50.3934 95.0603 55.1733 96.0286 59.9992 95.9993C64.8252 96.0286 69.6051 95.0603 74.0392 93.1553C82.6624 89.5231 89.5231 82.6624 93.1552 74.0393C95.0603 69.6051 96.0286 64.8252 95.9992 59.9993C96.0286 55.1733 95.0603 50.3934 93.1552 45.9593ZM81.6892 81.6893C78.8917 84.5815 75.5328 86.8718 71.8185 88.4194C68.1041 89.967 64.1128 90.7394 60.0892 90.6893C56.0657 90.7394 52.0743 89.967 48.36 88.4194C44.6457 86.8718 41.2867 84.5815 38.4892 81.6893C35.5695 78.8891 33.2562 75.519 31.6925 71.7879C30.1289 68.0569 29.3483 64.0444 29.3992 59.9993C29.349 55.9757 30.1215 51.9844 31.6691 48.27C33.2167 44.5557 35.5069 41.1968 38.3992 38.3993C41.1967 35.507 44.5557 33.2167 48.27 31.6691C51.9843 30.1215 55.9757 29.3491 59.9992 29.3993C64.0228 29.3491 68.0141 30.1215 71.7285 31.6691C75.4428 33.2167 78.8017 35.507 81.5992 38.3993C84.4915 41.1968 86.7817 44.5557 88.3294 48.27C89.877 51.9844 90.6494 55.9757 90.5992 59.9993C90.6734 64.0314 89.9211 68.036 88.3888 71.7663C86.8564 75.4966 84.5764 78.8736 81.6892 81.6893Z" fill="#9DB5FF"/>
<g clip-path="url(#clip1_11_41)">
<path d="M59.46 78.3271C63.3432 78.3554 67.1491 77.2412 70.404 75.1231C73.6553 73.0587 76.1744 70.0233 77.604 66.4471H41.28C42.7703 70.0136 45.3136 73.0404 48.57 75.1231C51.8036 77.2438 55.5931 78.3587 59.46 78.3271Z" fill="#9DB5FF"/>
<path d="M43.44 53.8471L47.49 49.7971L51.54 53.8471L54.78 50.6071L47.49 43.3171L40.2 50.6071L43.44 53.8471Z" fill="#9DB5FF"/>
<path d="M67.47 53.8471L71.52 49.7971L75.57 53.8471L78.81 50.6071L71.52 43.3171L64.23 50.6071L67.47 53.8471Z" fill="#9DB5FF"/>
</g>
</g>
<path d="M60 96.0006C64.8257 96.0299 69.6054 95.0616 74.0392 93.1566C82.6624 89.5245 89.5231 82.6638 93.1552 74.0406C95.0603 69.6065 96.0286 64.8266 95.9992 60.0006C96.0286 55.1747 95.0603 50.3948 93.1552 45.9606C89.5231 37.3375 82.6624 30.4768 74.0392 26.8446C69.6054 24.9397 64.8257 23.9714 60 24.0006L60 29.4006C64.0233 29.3506 68.0144 30.123 71.7285 31.6705C75.4428 33.2181 78.8017 35.5084 81.5992 38.4006C84.4915 41.1981 86.7818 44.5571 88.3294 48.2714C89.877 51.9857 90.6494 55.9771 90.5993 60.0006C90.6734 64.0328 89.9211 68.0373 88.3888 71.7677C86.8564 75.498 84.5764 78.875 81.6892 81.6906C78.8917 84.5829 75.5328 86.8732 71.8185 88.4208C68.1042 89.9684 64.1128 90.7408 60.0893 90.6906C60.0595 90.691 60.0297 90.6913 60 90.6916L60 96.0006Z" fill="#3366FF"/>
<path d="M60 78.325C63.6952 78.2512 67.3001 77.1443 70.404 75.1245C73.6553 73.0601 76.1743 70.0246 77.604 66.4485H60L60 78.325Z" fill="#3366FF"/>
<path d="M71.52 49.7985L67.47 53.8485L64.23 50.6085L71.52 43.3185L78.81 50.6085L75.57 53.8485L71.52 49.7985Z" fill="#3366FF"/>
<defs>
<clipPath id="clip0_11_41">
<rect width="72" height="72" fill="white" transform="translate(24 24)"/>
</clipPath>
<clipPath id="clip1_11_41">
<rect width="38.61" height="35.01" fill="white" transform="translate(40.2 43.3171)"/>
</clipPath>
</defs>
</svg>
