<svg width="120" height="134" viewBox="0 0 120 134" fill="none" xmlns="http://www.w3.org/2000/svg">
<path d="M48 134V98H60V126.11L48 134Z" fill="#9DB5FF"/>
<path d="M73 134V98H60V126.11L73 134Z" fill="#3366FF"/>
<circle cx="60" cy="60" r="60" fill="#EBF0FF"/>
<path fill-rule="evenodd" clip-rule="evenodd" d="M60 120C93.1371 120 120 93.1371 120 60C120 26.8629 93.1371 5.79387e-06 60 0C60 0 60 0 60 0L60 120Z" fill="#D6E0FF"/>
<path d="M57.4286 66H62.5714V59.5714H69V54.4286H62.5714V48H57.4286V54.4286H51V59.5714H57.4286V66Z" fill="#9DB5FF"/>
<path d="M41.9091 96C40.6 96 39.4545 95.5091 38.4727 94.5273C37.4909 93.5454 37 92.4 37 91.0909V28.9091C37 27.6 37.4909 26.4545 38.4727 25.4727C39.4545 24.4909 40.6 24 41.9091 24H77.9091C79.2182 24 80.3636 24.4909 81.3455 25.4727C82.3273 26.4545 82.8182 27.6 82.8182 28.9091V91.0909C82.8182 92.4 82.3273 93.5454 81.3455 94.5273C80.3636 95.5091 79.2182 96 77.9091 96H41.9091ZM41.9091 83.7273V91.0909H77.9091V83.7273H41.9091ZM59.9091 89.8636C60.6182 89.8636 61.2045 89.6318 61.6682 89.1682C62.1318 88.7045 62.3636 88.1182 62.3636 87.4091C62.3636 86.7 62.1318 86.1136 61.6682 85.65C61.2045 85.1864 60.6182 84.9545 59.9091 84.9545C59.2 84.9545 58.6136 85.1864 58.15 85.65C57.6864 86.1136 57.4545 86.7 57.4545 87.4091C57.4545 88.1182 57.6864 88.7045 58.15 89.1682C58.6136 89.6318 59.2 89.8636 59.9091 89.8636ZM41.9091 78.8182H77.9091V36.2727H41.9091V78.8182ZM41.9091 31.3636H77.9091V28.9091H41.9091V31.3636Z" fill="#9DB5FF"/>
<path d="M60 96H77.9091C79.2182 96 80.3637 95.5091 81.3455 94.5273C82.3273 93.5455 82.8182 92.4 82.8182 91.0909V28.9091C82.8182 27.6 82.3273 26.4546 81.3455 25.4727C80.3637 24.4909 79.2182 24 77.9091 24H60V28.9091H77.9091V31.3636H60V36.2727H77.9091V78.8182H60V83.7273H77.9091V91.0909H60V96Z" fill="#3366FF"/>
<path d="M60 89.8624C60.6685 89.8433 61.2245 89.6119 61.6682 89.1682C62.1318 88.7045 62.3637 88.1182 62.3637 87.4091C62.3637 86.7 62.1318 86.1136 61.6682 85.65C61.2245 85.2063 60.6685 84.9749 60 84.9558V89.8624Z" fill="#3366FF"/>
<path d="M60 66H62.5715V59.5714H69V54.4286H62.5715V48H60V66Z" fill="#3366FF"/>
</svg>
