<svg width="120" height="134" viewBox="0 0 120 134" fill="none" xmlns="http://www.w3.org/2000/svg">
<path d="M48 134V98H60V126.11L48 134Z" fill="#9DB5FF"/>
<path d="M73 134V98H60V126.11L73 134Z" fill="#3366FF"/>
<circle cx="60" cy="60" r="60" fill="#EBF0FF"/>
<path fill-rule="evenodd" clip-rule="evenodd" d="M60 120C93.1371 120 120 93.1371 120 60C120 26.8629 93.1371 5.79387e-06 60 0C60 0 60 0 60 0L60 120Z" fill="#D6E0FF"/>
<path d="M44.7847 90.6H74.2153L78.5486 73.5H40.4514L44.7847 90.6V90.6ZM44.7847 96C43.581 96 42.4826 95.625 41.4896 94.875C40.4965 94.125 39.8495 93.15 39.5486 91.95L34.8542 73.5H84.1458L79.4514 91.95C79.1505 93.15 78.5035 94.125 77.5104 94.875C76.5174 95.625 75.419 96 74.2153 96H44.7847ZM32.4167 68.1H86.5833V59.1H32.4167V68.1ZM59.5 45.51C59.8009 40.29 62.1481 35.475 66.5417 31.065C70.9352 26.655 75.7801 24.3 81.0764 24C80.8958 28.86 78.8796 33.375 75.0278 37.545C71.1759 41.715 66.9028 44.25 62.2083 45.15V53.7H92V68.1C92 69.6 91.4734 70.875 90.4201 71.925C89.3669 72.975 88.088 73.5 86.5833 73.5H32.4167C30.912 73.5 29.6331 72.975 28.5799 71.925C27.5266 70.875 27 69.6 27 68.1V53.7H56.7917V45.15C52.0972 44.25 47.8391 41.715 44.0174 37.545C40.1956 33.375 38.1644 28.86 37.9236 24C43.2199 24.3 48.0799 26.64 52.5035 31.02C56.9271 35.4 59.2593 40.23 59.5 45.51Z" fill="#9DB5FF"/>
<path d="M60 96H74.2153C75.419 96 76.5173 95.625 77.5104 94.875C78.5035 94.125 79.1505 93.15 79.4514 91.95L84.1458 73.5H86.5833C88.088 73.5 89.3669 72.975 90.4202 71.925C91.4734 70.875 92 69.6 92 68.1V53.7H62.2083V45.15C66.9028 44.25 71.1759 41.715 75.0278 37.545C78.8796 33.375 80.8958 28.86 81.0764 24C75.7801 24.3 70.9352 26.655 66.5417 31.065C63.1199 34.4996 60.9393 38.1798 60 42.1057V59.1H86.5833V68.1H60V73.5H78.5486L74.2153 90.6H60V96Z" fill="#3366FF"/>
</svg>
