<svg width="120" height="134" viewBox="0 0 120 134" fill="none" xmlns="http://www.w3.org/2000/svg">
<path d="M48 134V98H60V126.11L48 134Z" fill="#9DB5FF"/>
<path d="M73 134V98H60V126.11L73 134Z" fill="#3366FF"/>
<circle cx="60" cy="60" r="60" fill="#EBF0FF"/>
<path fill-rule="evenodd" clip-rule="evenodd" d="M60 120C93.1371 120 120 93.1371 120 60C120 26.8629 93.1371 5.79387e-06 60 0C60 0 60 0 60 0L60 120Z" fill="#D6E0FF"/>
<path d="M88.4726 32.6277C87.6222 31.7676 86.6046 31.0909 85.4824 30.6394C84.3603 30.188 83.1575 29.9714 81.9483 30.003C80.3665 30.0104 78.8145 30.4346 77.4489 31.2329C75.9553 32.0998 74.6336 33.2335 73.5493 34.5775C72.4534 33.2332 71.1219 32.0999 69.6197 31.2329C68.261 30.4442 66.7212 30.0205 65.1502 30.003C63.9432 29.9827 62.7444 30.2055 61.6252 30.6581C60.506 31.1107 59.4894 31.7839 58.6357 32.6375C57.7821 33.4911 57.109 34.5078 56.6564 35.627C56.2038 36.7462 55.981 37.945 56.0013 39.152C56.0674 40.9599 56.5828 42.7228 57.5011 44.2814C58.5534 46.248 59.8102 48.098 61.2507 49.8008C62.9991 51.8587 64.8671 53.8119 66.8451 55.6502C68.9648 57.6499 71.1996 59.6997 73.5493 61.7995C75.909 59.6997 78.1488 57.6499 80.2685 55.6502C82.238 53.808 84.1008 51.8551 85.8479 49.8008C87.3145 48.1016 88.5966 46.2514 89.6725 44.2814C90.5645 42.7159 91.0541 40.9534 91.0973 39.152C91.1289 37.9429 90.9123 36.7401 90.4609 35.6179C90.0095 34.4958 89.3328 33.4781 88.4726 32.6277ZM82.5483 46.6512C79.8486 49.6508 76.8489 52.6505 73.5493 55.6502C70.2497 52.6505 67.25 49.6508 64.5503 46.6512C61.8506 43.6965 60.5008 41.2068 60.5008 39.152C60.4799 38.5358 60.5858 37.9219 60.8121 37.3483C61.0383 36.7747 61.3801 36.2538 61.816 35.8178C62.252 35.3818 62.773 35.0401 63.3465 34.8139C63.9201 34.5876 64.534 34.4816 65.1502 34.5025C66.0253 34.5049 66.8878 34.7102 67.67 35.1025C68.6613 35.6575 69.5168 36.4259 70.1747 37.3522L73.5493 41.4767L76.9989 37.3522C77.6604 36.4292 78.5152 35.6615 79.5036 35.1025C80.2636 34.7228 81.0989 34.5178 81.9483 34.5025C82.5646 34.4816 83.1785 34.5876 83.7521 34.8139C84.3256 35.0401 84.8466 35.3818 85.2825 35.8178C85.7185 36.2538 86.0603 36.7747 86.2865 37.3483C86.5128 37.9219 86.6187 38.5358 86.5978 39.152C86.5978 41.2068 85.248 43.6965 82.5483 46.6512Z" fill="#9DB5FF"/>
<path d="M88.8931 75.2199C88.2307 74.4903 87.4191 73.9118 86.5133 73.5236C85.6076 73.1355 84.6289 72.9467 83.6437 72.9702H75.0947C75.2093 71.2467 74.7157 69.5377 73.6999 68.1407C72.8093 67.0304 71.6319 66.185 70.2952 65.696L51.1724 58.4968H28V88.0435H44.1232V83.769L67.4456 90.4432L90.9929 83.244V81.2942C91.1081 79.0737 90.3551 76.8953 88.8931 75.2199ZM39.5487 83.544H32.4995V62.9963H39.5487V83.544ZM67.1456 85.7937L44.1232 79.0445V62.9963H50.4975L68.7954 69.9705C69.064 70.0862 69.3054 70.2566 69.5043 70.471C69.7032 70.6854 69.8551 70.9389 69.9503 71.2154C70.1752 71.7732 70.2923 72.3687 70.2952 72.9702C68.5026 73.0009 66.7097 72.9257 64.9258 72.7452C63.721 72.6015 62.5314 72.3506 61.3712 71.9953L55.8969 70.1205L54.247 74.47L60.3214 76.3448C61.5106 76.7037 62.7234 76.9794 63.951 77.1697C65.3313 77.3742 66.7251 77.4744 68.1205 77.4697H83.6437C84.1872 77.4783 84.7133 77.6624 85.1436 77.9946C85.7006 78.5209 86.0916 79.1987 86.2684 79.9444L67.1456 85.7937Z" fill="#9DB5FF"/>
<path fill-rule="evenodd" clip-rule="evenodd" d="M60 88.4924L67.4456 90.6231L90.9929 83.4239V81.4741C91.1081 79.2535 90.3551 77.0752 88.8931 75.3998C88.2307 74.6702 87.4191 74.0917 86.5133 73.7035C85.6076 73.3153 84.6289 73.1266 83.6437 73.1501H75.0947C75.2093 71.4266 74.7157 69.7176 73.6998 68.3206C72.8093 67.2103 71.6319 66.3648 70.2952 65.8759L60 62L60 66.798L68.7954 70.1504C69.064 70.266 69.3054 70.4365 69.5043 70.6509C69.7032 70.8652 69.8551 71.1188 69.9503 71.3952C70.1752 71.9531 70.2923 72.5486 70.2952 73.1501C68.5026 73.1807 66.7097 73.1056 64.9258 72.9251C63.721 72.7814 62.5314 72.5304 61.3712 72.1752L60 71.7056L60 76.4255L60.3214 76.5247C61.5106 76.8836 62.7234 77.1592 63.9509 77.3496C65.3313 77.554 66.7251 77.6543 68.1205 77.6495H83.6437C84.1872 77.6582 84.7133 77.8423 85.1436 78.1745C85.7006 78.7008 86.0916 79.3786 86.2684 80.1243L67.1456 85.9736L60 83.8788L60 88.4924Z" fill="#3366FF"/>
<path fill-rule="evenodd" clip-rule="evenodd" d="M60 48.2235L60 31.518C60.5097 31.1775 61.0541 30.8891 61.6252 30.6581C62.7444 30.2055 63.9432 29.9827 65.1502 30.003C66.7212 30.0205 68.261 30.4441 69.6197 31.2329C71.1218 32.0999 72.4534 33.2332 73.5493 34.5775C74.6336 33.2335 75.9553 32.0998 77.4489 31.2329C78.8145 30.4346 80.3665 30.0104 81.9483 30.003C83.1575 29.9714 84.3603 30.188 85.4824 30.6394C86.6046 31.0909 87.6222 31.7676 88.4726 32.6277C89.3328 33.4781 90.0095 34.4958 90.4609 35.6179C90.9123 36.7401 91.1289 37.9429 91.0973 39.152C91.0541 40.9534 90.5645 42.7158 89.6725 44.2814C88.5966 46.2514 87.3145 48.1016 85.8479 49.8008C84.1008 51.8551 82.238 53.808 80.2685 55.6501C78.1488 57.6499 75.909 59.6997 73.5493 61.7994C71.1996 59.6997 68.9648 57.6499 66.845 55.6501C64.8671 53.8118 62.9991 51.8587 61.2507 49.8008C60.8169 49.2881 60.3999 48.762 60 48.2235ZM82.5483 46.6511C79.8486 49.6508 76.8489 52.6505 73.5493 55.6501C70.2497 52.6505 67.25 49.6508 64.5503 46.6511C61.8506 43.6965 60.5008 41.2068 60.5008 39.152C60.4799 38.5358 60.5858 37.9218 60.8121 37.3483C61.0383 36.7747 61.3801 36.2538 61.816 35.8178C62.252 35.3818 62.773 35.0401 63.3465 34.8138C63.9201 34.5876 64.534 34.4816 65.1502 34.5025C66.0252 34.5048 66.8878 34.7102 67.67 35.1024C68.6613 35.6574 69.5168 36.4259 70.1747 37.3522L73.5493 41.4767L76.9989 37.3522C77.6604 36.4292 78.5152 35.6615 79.5036 35.1024C80.2636 34.7228 81.0989 34.5178 81.9483 34.5025C82.5646 34.4816 83.1785 34.5876 83.7521 34.8138C84.3256 35.0401 84.8466 35.3818 85.2825 35.8178C85.7185 36.2538 86.0602 36.7747 86.2865 37.3483C86.5128 37.9218 86.6187 38.5358 86.5978 39.152C86.5978 41.2068 85.248 43.6965 82.5483 46.6511Z" fill="#3366FF"/>
</svg>
