<svg width="120" height="134" viewBox="0 0 120 134" fill="none" xmlns="http://www.w3.org/2000/svg">
<path d="M48 134V98H60V126.11L48 134Z" fill="#9DB5FF"/>
<path d="M73 134V98H60V126.11L73 134Z" fill="#3366FF"/>
<circle cx="60" cy="60" r="60" fill="#EBF0FF"/>
<path fill-rule="evenodd" clip-rule="evenodd" d="M60 120C93.1371 120 120 93.1371 120 60C120 26.8629 93.1371 5.79387e-06 60 0C60 0 60 0 60 0L60 120Z" fill="#D6E0FF"/>
<g clip-path="url(#clip0_11_40)">
<path d="M70.3333 24H49.6666V29.149H70.3333V24Z" fill="#9DB5FF"/>
<path d="M88.7955 53.435C87.4881 50.398 85.7033 47.588 83.5083 45.1109L87.9 40.7342L84.2833 37.1299L79.8916 41.5066C77.2198 39.2019 74.1583 37.3888 70.85 36.1516C67.3775 34.8774 63.7 34.2491 60 34.298C55.8548 34.2628 51.7482 35.093 47.9444 36.7352C40.5396 39.915 34.6363 45.7981 31.4455 53.1776C29.8197 56.9758 28.9816 61.0625 28.9816 65.1919C28.9816 69.3213 29.8197 73.408 31.4455 77.2062C34.6499 84.5564 40.5523 90.4079 47.9444 93.5628C51.7407 95.1707 55.8234 95.9994 59.9483 95.9994C64.0732 95.9994 68.1559 95.1707 71.9522 93.5628C79.389 90.3859 85.3149 84.4803 88.5027 77.0689C90.1496 73.3243 90.9998 69.2803 91 65.1919C91.1182 61.1609 90.3664 57.1515 88.7955 53.435ZM78.29 83.3507C75.9243 85.7949 73.0805 87.7294 69.9345 89.0342C66.7885 90.3391 63.4072 90.9867 60 90.9368C56.5927 90.9867 53.2115 90.3391 50.0654 89.0342C46.9194 87.7294 44.0756 85.7949 41.71 83.3507C39.2791 80.9946 37.3563 78.1689 36.0592 75.0465C34.7622 71.9242 34.1182 68.5709 34.1666 65.1919C34.0928 61.7865 34.7245 58.4025 36.0225 55.2515C37.3204 52.1005 39.2566 49.2502 41.71 46.8787C44.087 44.4598 46.9365 42.5524 50.0823 41.2742C53.2281 39.996 56.6035 39.3741 60 39.447C63.4026 39.3852 66.7818 40.0206 69.928 41.3137C73.0742 42.6068 75.9203 44.5302 78.29 46.9645C80.7327 49.3261 82.6626 52.1625 83.9602 55.2979C85.2577 58.4333 85.8953 61.8009 85.8333 65.1919C85.8818 68.5709 85.2378 71.9242 83.9407 75.0465C82.6437 78.1689 80.7208 80.9946 78.29 83.3507Z" fill="#9DB5FF"/>
<path d="M74.4546 54.5617C73.6309 53.7231 72.6451 53.0634 71.5582 52.6234C70.4712 52.1833 69.3061 51.9721 68.1349 52.0029C66.6026 52.0101 65.0993 52.4237 63.7765 53.2019C62.3298 54.047 61.0494 55.1522 59.9992 56.4624C58.9377 55.1519 57.6478 54.0471 56.1928 53.2019C54.8766 52.433 53.3851 52.0199 51.8634 52.0029C50.6942 51.9832 49.533 52.2004 48.4489 52.6416C47.3648 53.0828 46.38 53.739 45.5531 54.5712C44.7262 55.4034 44.0742 56.3945 43.6358 57.4855C43.1974 58.5765 42.9816 59.7452 43.0012 60.9219C43.0652 62.6843 43.5646 64.4029 44.454 65.9224C45.4733 67.8395 46.6907 69.643 48.0861 71.303C49.7796 73.3091 51.5891 75.2132 53.5051 77.0053C55.5584 78.9548 57.7231 80.953 59.9992 83C62.2849 80.953 64.4544 78.9548 66.5078 77.0053C68.4155 75.2095 70.2199 73.3056 71.9122 71.303C73.3329 69.6465 74.5747 67.8428 75.6169 65.9224C76.481 64.3962 76.9552 62.678 76.9971 60.9219C77.0277 59.7432 76.8179 58.5706 76.3806 57.4767C75.9433 56.3828 75.2878 55.3907 74.4546 54.5617ZM68.716 68.2325C66.101 71.1568 63.1953 74.081 59.9992 77.0053C56.803 74.081 53.8973 71.1568 51.2823 68.2325C48.6672 65.3521 47.3597 62.925 47.3597 60.9219C47.3394 60.3212 47.4421 59.7227 47.6612 59.1635C47.8804 58.6044 48.2114 58.0966 48.6337 57.6715C49.056 57.2465 49.5606 56.9134 50.1162 56.6928C50.6718 56.4722 51.2665 56.3689 51.8634 56.3893C52.711 56.3916 53.5465 56.5918 54.3041 56.9742C55.2644 57.5152 56.0931 58.2644 56.7303 59.1674L59.9992 63.1882L63.3406 59.1674C63.9814 58.2676 64.8093 57.5191 65.7668 56.9742C66.503 56.604 67.3121 56.4042 68.1349 56.3893C68.7318 56.3689 69.3265 56.4722 69.8821 56.6928C70.4377 56.9134 70.9423 57.2465 71.3646 57.6715C71.7869 58.0966 72.1179 58.6044 72.3371 59.1635C72.5562 59.7227 72.6589 60.3212 72.6386 60.9219C72.6386 62.925 71.3311 65.3521 68.716 68.2325Z" fill="#9DB5FF"/>
<path d="M60 29.149L60 24H70.3333V29.149H60Z" fill="#3366FF"/>
<path d="M60 95.9994C64.1074 95.9925 68.1718 95.164 71.9522 93.5628C79.389 90.3859 85.315 84.4803 88.5028 77.0689C90.1496 73.3243 90.9999 69.2803 91 65.1919C91.1182 61.1609 90.3665 57.1515 88.7956 53.435C87.4881 50.398 85.7033 47.588 83.5083 45.1108L87.9 40.7342L84.2833 37.1299L79.8917 41.5066C77.2198 39.2019 74.1584 37.3888 70.85 36.1516C67.3776 34.8774 63.7 34.2491 60 34.298L60 39.447C63.4027 39.3852 66.7818 40.0206 69.928 41.3137C73.0742 42.6068 75.9203 44.5302 78.29 46.9645C80.7327 49.3261 82.6626 52.1624 83.9602 55.2979C85.2578 58.4333 85.8953 61.8009 85.8333 65.1919C85.8818 68.5709 85.2378 71.9242 83.9407 75.0465C82.6437 78.1689 80.7209 80.9946 78.29 83.3507C75.9244 85.7949 73.0805 87.7294 69.9345 89.0342C66.7885 90.3391 63.4072 90.9867 60 90.9368L60 95.9994Z" fill="#3366FF"/>
<path d="M60 82.9992C62.2855 80.9525 64.4547 78.9545 66.5078 77.0053C68.4155 75.2095 70.2199 73.3056 71.9123 71.303C73.3329 69.6465 74.5748 67.8428 75.6169 65.9224C76.481 64.3962 76.9552 62.678 76.9971 60.9219C77.0277 59.7432 76.8179 58.5706 76.3806 57.4767C75.9434 56.3828 75.2879 55.3907 74.4547 54.5617C73.631 53.7231 72.6452 53.0634 71.5582 52.6234C70.4712 52.1833 69.3062 51.9721 68.1349 52.0029C66.6027 52.0101 65.0994 52.4237 63.7765 53.2019C62.3302 54.0468 61.0502 55.1516 60 56.4614L60 63.1872L63.3407 59.1674C63.9814 58.2676 64.8094 57.5191 65.7669 56.9742C66.503 56.604 67.3121 56.4042 68.1349 56.3893C68.7318 56.3689 69.3265 56.4722 69.8821 56.6928C70.4377 56.9134 70.9423 57.2465 71.3646 57.6715C71.7869 58.0966 72.1179 58.6044 72.3371 59.1635C72.5563 59.7227 72.6589 60.3212 72.6387 60.9219C72.6387 62.925 71.3311 65.3521 68.7161 68.2325C66.1012 71.1565 63.1959 74.0805 60 77.0045L60 82.9992Z" fill="#3366FF"/>
</g>
<defs>
<clipPath id="clip0_11_40">
<rect width="62" height="72" fill="white" transform="translate(29 24)"/>
</clipPath>
</defs>
</svg>
