<svg width="16" height="16" viewBox="0 0 16 16" fill="none" xmlns="http://www.w3.org/2000/svg">
<rect width="16" height="16" rx="4" fill="#BF2600"/>
<path d="M11.6298 4.705C11.2405 4.31564 10.6092 4.31564 10.2198 4.705L8.33484 6.59L6.44984 4.705C6.06048 4.31564 5.4292 4.31564 5.03984 4.705V4.705C4.65048 5.09436 4.65048 5.72564 5.03984 6.115L6.92484 8L5.03984 9.885C4.65048 10.2744 4.65048 10.9056 5.03984 11.295V11.295C5.4292 11.6844 6.06048 11.6844 6.44984 11.295L8.33484 9.41L10.2198 11.295C10.6092 11.6844 11.2405 11.6844 11.6298 11.295V11.295C12.0192 10.9056 12.0192 10.2744 11.6298 9.885L9.74484 8L11.6298 6.115C12.0192 5.72564 12.0192 5.09436 11.6298 4.705V4.705Z" fill="white"/>
</svg>
