<svg width="2314" height="3435" viewBox="0 0 2314 3435" fill="none" xmlns="http://www.w3.org/2000/svg">
<g clip-path="url(#clip0_1037_6388)">
<rect width="2314" height="3435" rx="20" fill="white"/>
<path d="M684 1353C684 1482.23 459.877 1502 326.5 1502C193.123 1502 85 1397.23 85 1268C85 1138.77 165.123 1092 298.5 1092C431.877 1092 684 1223.77 684 1353Z" fill="#EBF0FF"/>
<ellipse cx="1855" cy="1946" rx="608" ry="1075" fill="url(#paint0_radial_1037_6388)" fill-opacity="0.5"/>
<path d="M1358.22 218.449C1285.89 80.7308 1461.02 -19.7425 1521.29 -49.1653L2369.47 -65C2613.51 165.144 2218.06 126.222 2218.06 358.904C2218.06 734.58 1750.38 786.034 1707.99 564.087C1653.99 281.326 1448.62 390.596 1358.22 218.449Z" fill="#EBF0FF"/>
<path d="M1793.35 2898.01C1688.1 2806.8 1755.29 2696.74 1804.85 2639.55C1854.41 2582.36 1979.92 2609.95 2085.17 2701.16C2190.43 2792.38 2198.74 2859.74 2149.18 2916.93C2099.61 2974.13 1898.61 2989.23 1793.35 2898.01Z" fill="#EBF0FF"/>
</g>
<defs>
<radialGradient id="paint0_radial_1037_6388" cx="0" cy="0" r="1" gradientUnits="userSpaceOnUse" gradientTransform="translate(1855 1946) rotate(90) scale(1075 608)">
<stop stop-color="#E9EFFE"/>
<stop offset="1" stop-color="#E9EFFE" stop-opacity="0"/>
</radialGradient>
<clipPath id="clip0_1037_6388">
<rect width="2314" height="3435" rx="20" fill="white"/>
</clipPath>
</defs>
</svg>
