<svg width="146" height="29" viewBox="0 0 146 29" fill="none" xmlns="http://www.w3.org/2000/svg">
<path d="M29.2903 21.9413V29H26.2066V8.52003H29.2903V9.90503C30.7795 8.15503 32.5124 7.28003 34.4891 7.28003C36.8316 7.28003 38.8316 8.1067 40.4891 9.76003C42.1466 11.4134 42.9732 13.4134 42.9691 15.76C42.9691 18.1025 42.1424 20.1025 40.4891 21.76C38.8357 23.4175 36.8357 24.2467 34.4891 24.2475C32.5124 24.2492 30.7795 23.4804 29.2903 21.9413ZM29.2903 14.5663V16.965C29.4786 17.9092 29.9603 18.7629 30.7353 19.5263C31.48 20.2676 32.4276 20.7718 33.4585 20.9751C34.4894 21.1785 35.5574 21.0719 36.5279 20.6689C37.4983 20.2659 38.3276 19.5844 38.9111 18.7106C39.4946 17.8367 39.8062 16.8096 39.8066 15.7588C39.8033 14.3495 39.242 12.9989 38.2455 12.0024C37.2489 11.0059 35.8983 10.4446 34.4891 10.4413C33.79 10.4302 33.0961 10.5635 32.4509 10.8328C31.8057 11.1021 31.2229 11.5016 30.7391 12.0063C29.9616 12.7704 29.4786 13.6242 29.2903 14.5675V14.5663Z" fill="#3366FF"/>
<path d="M59.6265 9.59255V8.52006H62.7253V23.8626H59.6265V21.9413C58.1407 23.4805 56.414 24.2501 54.4465 24.2501C52.1032 24.2501 50.1032 23.4234 48.4465 21.7701C46.7899 20.1167 45.9632 18.1167 45.9665 15.7701C45.9665 13.4276 46.7932 11.4276 48.4465 9.77006C50.0999 8.11256 52.0999 7.28589 54.4465 7.29005C56.4132 7.29589 58.1399 8.06339 59.6265 9.59255ZM59.6265 16.9063V14.6426C59.4482 13.6792 58.9715 12.8042 58.1965 12.0176C57.4539 11.2748 56.5077 10.7688 55.4776 10.5636C54.4475 10.3583 53.3797 10.4629 52.409 10.8641C51.4383 11.2654 50.6083 11.9454 50.0239 12.8181C49.4394 13.6908 49.1267 14.7172 49.1253 15.7676C49.1291 16.8168 49.4432 17.8416 50.028 18.7128C50.6129 19.584 51.4423 20.2627 52.4121 20.6636C53.3818 21.0644 54.4484 21.1695 55.4777 20.9656C56.507 20.7617 57.4529 20.2579 58.1965 19.5176C58.974 18.7409 59.4507 17.8705 59.6265 16.9063Z" fill="#3366FF"/>
<path d="M69.7653 12.6312V23.8475H66.6678V8.52H69.7653V10.3075C70.4111 8.5575 71.707 7.6825 73.6528 7.6825C75.3111 7.6825 76.6294 8.27083 77.6078 9.4475C78.5861 10.6242 79.0924 12.1025 79.1265 13.8825V23.8475H76.0365V14C76.0417 13.5749 75.9582 13.1534 75.7914 12.7623C75.6246 12.3713 75.3782 12.0193 75.0678 11.7287C74.4547 11.1263 73.6307 10.7869 72.7711 10.7827C71.9115 10.7785 71.0843 11.1098 70.4653 11.7062C70.1824 11.9738 69.9459 12.2863 69.7653 12.6312V12.6312Z" fill="#3366FF"/>
<path d="M88.3765 20.3749C88.8924 20.8324 89.8307 21.0612 91.1915 21.0612C91.892 21.0721 92.5874 20.9402 93.2353 20.6738C93.8832 20.4073 94.4701 20.0117 94.9603 19.5112C95.0894 19.3728 95.3524 19.0653 95.749 18.5887L98.8328 19.6899C98.0778 20.7341 97.5315 21.4245 97.194 21.7612C95.5357 23.4203 93.5357 24.2495 91.194 24.2487C88.8524 24.2478 86.8561 23.4187 85.2053 21.7612C83.5478 20.1028 82.7186 18.1028 82.7178 15.7612C82.7169 13.4195 83.5461 11.4195 85.2053 9.76118C86.8636 8.10368 88.8599 7.27451 91.194 7.27368C93.199 7.27368 94.9565 7.87952 96.4665 9.09118C96.7165 9.29993 96.9578 9.52368 97.1965 9.76118C97.2957 9.86118 97.5786 10.1741 98.0453 10.6999L96.5015 12.2587L88.3765 20.3749ZM93.5303 10.8424C93.1828 10.5749 92.4032 10.4408 91.1915 10.4399C89.7834 10.4432 88.4342 11.0052 87.44 12.0024C86.4458 12.9996 85.888 14.3506 85.889 15.7587C85.889 16.9603 86.0228 17.7395 86.2903 18.0962L93.5303 10.8424Z" fill="#3366FF"/>
<path d="M105.502 0V23.8475H102.409V0H105.502Z" fill="#3366FF"/>
<path d="M113.298 2.84501C113.504 3.04195 113.668 3.2796 113.778 3.54294C113.888 3.80628 113.943 4.0896 113.938 4.37501C113.943 4.66126 113.889 4.94554 113.779 5.20979C113.669 5.47404 113.505 5.7125 113.298 5.91001C113.097 6.11171 112.857 6.27097 112.594 6.37833C112.33 6.4857 112.047 6.53898 111.763 6.53501C111.481 6.53822 111.201 6.48452 110.94 6.37714C110.679 6.26975 110.442 6.11088 110.244 5.91001C110.036 5.7127 109.872 5.47431 109.762 5.21003C109.651 4.94575 109.597 4.66137 109.603 4.37501C109.597 4.08885 109.652 3.80469 109.762 3.54063C109.872 3.27656 110.037 3.03838 110.244 2.84126C110.442 2.64016 110.679 2.48114 110.94 2.37374C111.201 2.26634 111.481 2.21277 111.763 2.21626C112.048 2.21236 112.331 2.26603 112.594 2.37407C112.858 2.48211 113.097 2.64229 113.298 2.84501ZM113.312 8.52001V23.8475H110.229V8.52001H113.312Z" fill="#3366FF"/>
<path d="M119.897 8.52002V2.77002H122.979V8.52002H125.729V11.6038H122.979V23.8538H119.897V11.6038H117.147V8.52002H119.897Z" fill="#3366FF"/>
<path d="M141.915 9.59255V8.52006H145.013V23.8626H141.915V21.9413C140.425 23.4805 138.697 24.2501 136.732 24.2501C134.388 24.2501 132.388 23.4234 130.732 21.7701C129.075 20.1167 128.248 18.1167 128.252 15.7701C128.252 13.4276 129.078 11.4276 130.732 9.77006C132.385 8.11256 134.385 7.28589 136.732 7.29005C138.698 7.29589 140.426 8.06339 141.915 9.59255ZM141.915 16.9063V14.6426C141.737 13.6792 141.26 12.8042 140.485 12.0176C139.743 11.2748 138.796 10.7688 137.766 10.5636C136.736 10.3583 135.668 10.4629 134.698 10.8641C133.727 11.2654 132.897 11.9454 132.313 12.8181C131.728 13.6908 131.415 14.7172 131.414 15.7676C131.418 16.8168 131.732 17.8416 132.317 18.7128C132.902 19.584 133.731 20.2627 134.701 20.6636C135.67 21.0644 136.737 21.1695 137.766 20.9656C138.796 20.7617 139.742 20.2579 140.485 19.5176C141.259 18.7409 141.736 17.8705 141.915 16.9063Z" fill="#3366FF"/>
<path d="M8.44281 24.2499C13.1048 24.2499 16.8841 20.4707 16.8841 15.8087C16.8841 11.1467 13.1048 7.36743 8.44281 7.36743C3.78083 7.36743 0.0015564 11.1467 0.0015564 15.8087C0.0015564 20.4707 3.78083 24.2499 8.44281 24.2499Z" fill="#D6E0FF"/>
<path fill-rule="evenodd" clip-rule="evenodd" d="M13.914 24.2499C16.1528 24.2499 18.2999 23.3606 19.8829 21.7775C21.4659 20.1945 22.3553 18.0474 22.3553 15.8087C22.3553 13.5699 21.4659 11.4229 19.8829 9.83982C18.2999 8.25678 16.1528 7.36743 13.914 7.36743V7.36743V24.2499Z" fill="#A9C1FD"/>
</svg>
