<svg width="21" height="21" viewBox="0 0 21 21" fill="none" xmlns="http://www.w3.org/2000/svg">
<g clip-path="url(#clip0_872_7747)">
<path d="M13.233 12.3633H12.5597L12.3211 12.1332C13.1563 11.1616 13.6591 9.90021 13.6591 8.52805C13.6591 5.46839 11.179 2.98828 8.11936 2.98828C5.0597 2.98828 2.57959 5.46839 2.57959 8.52805C2.57959 11.5877 5.0597 14.0678 8.11936 14.0678C9.49152 14.0678 10.7529 13.565 11.7245 12.7298L11.9546 12.9684V13.6417L16.216 17.8945L17.4858 16.6246L13.233 12.3633ZM8.11936 12.3633C5.9972 12.3633 4.28414 10.6502 4.28414 8.52805C4.28414 6.40589 5.9972 4.69283 8.11936 4.69283C10.2415 4.69283 11.9546 6.40589 11.9546 8.52805C11.9546 10.6502 10.2415 12.3633 8.11936 12.3633Z" fill="#3366FF"/>
</g>
<defs>
<clipPath id="clip0_872_7747">
<rect width="20.4545" height="20.4545" fill="white" transform="translate(0.0227051 0.431641)"/>
</clipPath>
</defs>
</svg>
