<svg width="484" height="44" viewBox="0 0 484 44" fill="none" xmlns="http://www.w3.org/2000/svg">
<rect width="484" height="44" rx="4" fill="#F3F6FF"/>
<rect width="24" height="24" transform="translate(16 10)" fill="white" fill-opacity="0.01"/>
<g clip-path="url(#clip0_866_12036)">
<path d="M27 17H29V19H27V17ZM27 21H29V27H27V21ZM28 12C22.48 12 18 16.48 18 22C18 27.52 22.48 32 28 32C33.52 32 38 27.52 38 22C38 16.48 33.52 12 28 12ZM28 30C23.59 30 20 26.41 20 22C20 17.59 23.59 14 28 14C32.41 14 36 17.59 36 22C36 26.41 32.41 30 28 30Z" fill="#3366FF"/>
</g>
<g clip-path="url(#clip1_866_12036)">
<path d="M49.5 26V14.5781H51.375V26H49.5ZM58.6949 17.1875C59.6689 17.1875 60.4267 17.4401 60.9684 17.9453C61.5153 18.4453 61.7887 19.25 61.7887 20.3594V26H59.9528V20.7031C59.9528 20.0312 59.8147 19.5286 59.5387 19.1953C59.2626 18.8568 58.8356 18.6875 58.2574 18.6875C57.4189 18.6875 56.8356 18.9453 56.5074 19.4609C56.1845 19.9766 56.0231 20.724 56.0231 21.7031V26H54.1871V17.3516H55.6168L55.8746 18.5234H55.9762C56.1637 18.2214 56.3955 17.974 56.6715 17.7812C56.9528 17.5833 57.2653 17.4349 57.609 17.3359C57.958 17.237 58.3199 17.1875 58.6949 17.1875ZM68.6633 18.75H66.5618V26H64.7258V18.75H63.3118V17.8672L64.7258 17.3281V16.7266C64.7258 15.9922 64.8404 15.4089 65.0696 14.9766C65.3039 14.5443 65.6373 14.2344 66.0696 14.0469C66.5071 13.8542 67.0279 13.7578 67.6321 13.7578C68.0279 13.7578 68.3899 13.7917 68.718 13.8594C69.0461 13.9219 69.3222 13.9948 69.5461 14.0781L69.0696 15.4688C68.8925 15.4115 68.6946 15.3594 68.4758 15.3125C68.2571 15.2604 68.0227 15.2344 67.7727 15.2344C67.356 15.2344 67.0487 15.3646 66.8508 15.625C66.6581 15.8854 66.5618 16.2656 66.5618 16.7656V17.3516H68.6633V18.75ZM77.7801 21.6562C77.7801 22.375 77.6864 23.013 77.4989 23.5703C77.3114 24.1276 77.0379 24.599 76.6786 24.9844C76.3192 25.3646 75.8869 25.6562 75.3817 25.8594C74.8765 26.0573 74.3062 26.1562 73.6707 26.1562C73.077 26.1562 72.5327 26.0573 72.0379 25.8594C71.5431 25.6562 71.1135 25.3646 70.7489 24.9844C70.3895 24.599 70.1109 24.1276 69.9129 23.5703C69.715 23.013 69.6161 22.375 69.6161 21.6562C69.6161 20.7031 69.7801 19.8958 70.1082 19.2344C70.4416 18.5677 70.9155 18.0599 71.5301 17.7109C72.1447 17.362 72.8765 17.1875 73.7254 17.1875C74.5223 17.1875 75.2254 17.362 75.8348 17.7109C76.4442 18.0599 76.9207 18.5677 77.2645 19.2344C77.6082 19.901 77.7801 20.7083 77.7801 21.6562ZM71.5067 21.6562C71.5067 22.2865 71.5822 22.8255 71.7332 23.2734C71.8895 23.7214 72.1291 24.0651 72.452 24.3047C72.7749 24.5391 73.1916 24.6562 73.702 24.6562C74.2124 24.6562 74.6291 24.5391 74.952 24.3047C75.2749 24.0651 75.5119 23.7214 75.6629 23.2734C75.814 22.8255 75.8895 22.2865 75.8895 21.6562C75.8895 21.026 75.814 20.4922 75.6629 20.0547C75.5119 19.612 75.2749 19.276 74.952 19.0469C74.6291 18.8125 74.2098 18.6953 73.6942 18.6953C72.9338 18.6953 72.3791 18.9505 72.0301 19.4609C71.6812 19.9714 71.5067 20.7031 71.5067 21.6562ZM93.7872 17.1875C94.7559 17.1875 95.4851 17.4375 95.9747 17.9375C96.4695 18.4375 96.7169 19.2396 96.7169 20.3438V26H94.8809V20.6719C94.8809 20.0156 94.7533 19.5208 94.4981 19.1875C94.2429 18.8542 93.8549 18.6875 93.3341 18.6875C92.6049 18.6875 92.0789 18.9219 91.7559 19.3906C91.4382 19.8542 91.2794 20.5286 91.2794 21.4141V26H89.4434V20.6719C89.4434 20.2344 89.3861 19.8698 89.2716 19.5781C89.1622 19.2812 88.9929 19.0599 88.7637 18.9141C88.5346 18.763 88.2455 18.6875 87.8966 18.6875C87.3914 18.6875 86.9877 18.8021 86.6856 19.0312C86.3887 19.2604 86.1752 19.599 86.045 20.0469C85.9148 20.4896 85.8497 21.0339 85.8497 21.6797V26H84.0137V17.3516H85.4434L85.7012 18.5156H85.8028C85.9799 18.2135 86.1986 17.9661 86.4591 17.7734C86.7247 17.5755 87.019 17.4297 87.3419 17.3359C87.6648 17.237 88.0007 17.1875 88.3497 17.1875C88.9955 17.1875 89.5398 17.3021 89.9825 17.5312C90.4252 17.7552 90.7559 18.099 90.9747 18.5625H91.1153C91.3861 18.0938 91.7637 17.7474 92.2481 17.5234C92.7325 17.2995 93.2455 17.1875 93.7872 17.1875ZM102.709 17.1875C103.48 17.1875 104.141 17.3464 104.693 17.6641C105.245 17.9818 105.67 18.4323 105.966 19.0156C106.263 19.599 106.412 20.2969 106.412 21.1094V22.0938H100.638C100.659 22.9323 100.883 23.5781 101.31 24.0312C101.743 24.4844 102.347 24.7109 103.123 24.7109C103.675 24.7109 104.17 24.6589 104.607 24.5547C105.05 24.4453 105.506 24.2865 105.974 24.0781V25.5703C105.542 25.7734 105.102 25.9219 104.654 26.0156C104.206 26.1094 103.67 26.1562 103.045 26.1562C102.196 26.1562 101.448 25.9922 100.802 25.6641C100.162 25.3307 99.6592 24.8359 99.2946 24.1797C98.9352 23.5234 98.7556 22.7083 98.7556 21.7344C98.7556 20.7656 98.9196 19.9427 99.2477 19.2656C99.5759 18.5885 100.037 18.0729 100.631 17.7188C101.224 17.3646 101.917 17.1875 102.709 17.1875ZM102.709 18.5703C102.131 18.5703 101.662 18.7578 101.302 19.1328C100.948 19.5078 100.74 20.0573 100.677 20.7812H104.615C104.61 20.349 104.537 19.9661 104.396 19.6328C104.261 19.2995 104.052 19.0391 103.771 18.8516C103.495 18.6641 103.141 18.5703 102.709 18.5703ZM114.279 23.5312C114.279 24.099 114.141 24.5781 113.865 24.9688C113.589 25.3594 113.185 25.6562 112.654 25.8594C112.128 26.0573 111.482 26.1562 110.716 26.1562C110.112 26.1562 109.591 26.112 109.154 26.0234C108.721 25.9401 108.312 25.8099 107.927 25.6328V24.0469C108.339 24.2396 108.799 24.4062 109.31 24.5469C109.826 24.6875 110.312 24.7578 110.771 24.7578C111.375 24.7578 111.81 24.6641 112.076 24.4766C112.341 24.2839 112.474 24.0286 112.474 23.7109C112.474 23.5234 112.419 23.3568 112.31 23.2109C112.206 23.0599 112.008 22.9062 111.716 22.75C111.43 22.5885 111.008 22.3958 110.451 22.1719C109.904 21.9531 109.443 21.7344 109.068 21.5156C108.693 21.2969 108.409 21.0339 108.216 20.7266C108.023 20.4141 107.927 20.0156 107.927 19.5312C107.927 18.7656 108.229 18.1849 108.833 17.7891C109.443 17.388 110.247 17.1875 111.247 17.1875C111.779 17.1875 112.279 17.2422 112.747 17.3516C113.221 17.4557 113.685 17.6094 114.138 17.8125L113.56 19.1953C113.169 19.0234 112.776 18.8828 112.38 18.7734C111.99 18.6589 111.591 18.6016 111.185 18.6016C110.711 18.6016 110.349 18.6745 110.099 18.8203C109.854 18.9661 109.732 19.1745 109.732 19.4453C109.732 19.6484 109.792 19.8203 109.911 19.9609C110.031 20.1016 110.237 20.2422 110.529 20.3828C110.826 20.5234 111.237 20.6979 111.763 20.9062C112.279 21.1042 112.724 21.3125 113.099 21.5312C113.479 21.7448 113.771 22.0078 113.974 22.3203C114.177 22.6328 114.279 23.0365 114.279 23.5312ZM122.06 23.5312C122.06 24.099 121.921 24.5781 121.645 24.9688C121.369 25.3594 120.966 25.6562 120.435 25.8594C119.908 26.0573 119.263 26.1562 118.497 26.1562C117.893 26.1562 117.372 26.112 116.935 26.0234C116.502 25.9401 116.093 25.8099 115.708 25.6328V24.0469C116.119 24.2396 116.58 24.4062 117.091 24.5469C117.606 24.6875 118.093 24.7578 118.552 24.7578C119.156 24.7578 119.591 24.6641 119.856 24.4766C120.122 24.2839 120.255 24.0286 120.255 23.7109C120.255 23.5234 120.2 23.3568 120.091 23.2109C119.987 23.0599 119.789 22.9062 119.497 22.75C119.211 22.5885 118.789 22.3958 118.231 22.1719C117.685 21.9531 117.224 21.7344 116.849 21.5156C116.474 21.2969 116.19 21.0339 115.997 20.7266C115.804 20.4141 115.708 20.0156 115.708 19.5312C115.708 18.7656 116.01 18.1849 116.614 17.7891C117.224 17.388 118.028 17.1875 119.028 17.1875C119.56 17.1875 120.06 17.2422 120.528 17.3516C121.002 17.4557 121.466 17.6094 121.919 17.8125L121.341 19.1953C120.95 19.0234 120.557 18.8828 120.161 18.7734C119.77 18.6589 119.372 18.6016 118.966 18.6016C118.492 18.6016 118.13 18.6745 117.88 18.8203C117.635 18.9661 117.513 19.1745 117.513 19.4453C117.513 19.6484 117.573 19.8203 117.692 19.9609C117.812 20.1016 118.018 20.2422 118.31 20.3828C118.606 20.5234 119.018 20.6979 119.544 20.9062C120.06 21.1042 120.505 21.3125 120.88 21.5312C121.26 21.7448 121.552 22.0078 121.755 22.3203C121.958 22.6328 122.06 23.0365 122.06 23.5312ZM127.419 17.1875C128.512 17.1875 129.338 17.4297 129.895 17.9141C130.458 18.3984 130.739 19.1536 130.739 20.1797V26H129.434L129.083 24.7734H129.02C128.775 25.0859 128.523 25.3438 128.262 25.5469C128.002 25.75 127.7 25.901 127.356 26C127.017 26.1042 126.603 26.1562 126.114 26.1562C125.598 26.1562 125.137 26.0625 124.731 25.875C124.325 25.6823 124.004 25.3906 123.77 25C123.536 24.6094 123.419 24.1146 123.419 23.5156C123.419 22.625 123.749 21.9557 124.411 21.5078C125.077 21.0599 126.083 20.8125 127.426 20.7656L128.926 20.7109V20.2578C128.926 19.6589 128.786 19.2318 128.504 18.9766C128.228 18.7214 127.838 18.5938 127.333 18.5938C126.9 18.5938 126.481 18.6562 126.075 18.7812C125.669 18.9062 125.273 19.0599 124.887 19.2422L124.294 17.9453C124.715 17.7214 125.195 17.5391 125.731 17.3984C126.273 17.2578 126.835 17.1875 127.419 17.1875ZM128.919 21.8672L127.801 21.9062C126.885 21.9375 126.241 22.0938 125.872 22.375C125.502 22.6562 125.317 23.0417 125.317 23.5312C125.317 23.9583 125.445 24.2708 125.7 24.4688C125.955 24.6615 126.291 24.7578 126.708 24.7578C127.343 24.7578 127.869 24.5781 128.286 24.2188C128.708 23.8542 128.919 23.3203 128.919 22.6172V21.8672ZM135.762 29.8438C134.59 29.8438 133.692 29.6328 133.067 29.2109C132.442 28.7891 132.129 28.1979 132.129 27.4375C132.129 26.9062 132.296 26.4557 132.629 26.0859C132.962 25.7214 133.439 25.4688 134.059 25.3281C133.824 25.224 133.621 25.0625 133.449 24.8438C133.283 24.6198 133.199 24.3724 133.199 24.1016C133.199 23.7786 133.291 23.5026 133.473 23.2734C133.655 23.0443 133.929 22.8229 134.293 22.6094C133.84 22.4167 133.475 22.1042 133.199 21.6719C132.929 21.2344 132.793 20.7214 132.793 20.1328C132.793 19.5078 132.926 18.9766 133.192 18.5391C133.457 18.0964 133.845 17.7604 134.356 17.5312C134.866 17.2969 135.483 17.1797 136.207 17.1797C136.363 17.1797 136.533 17.1901 136.715 17.2109C136.902 17.2266 137.074 17.2474 137.231 17.2734C137.392 17.2943 137.514 17.3177 137.598 17.3438H140.59V18.3672L139.121 18.6406C139.262 18.8385 139.374 19.0651 139.457 19.3203C139.541 19.5703 139.582 19.8438 139.582 20.1406C139.582 21.0365 139.272 21.7422 138.652 22.2578C138.038 22.7682 137.189 23.0234 136.106 23.0234C135.845 23.013 135.593 22.9922 135.348 22.9609C135.16 23.0755 135.017 23.2031 134.918 23.3438C134.819 23.4792 134.77 23.6328 134.77 23.8047C134.77 23.9453 134.819 24.0599 134.918 24.1484C135.017 24.2318 135.163 24.2943 135.356 24.3359C135.554 24.3776 135.793 24.3984 136.074 24.3984H137.567C138.514 24.3984 139.238 24.599 139.738 25C140.238 25.401 140.488 25.9896 140.488 26.7656C140.488 27.75 140.082 28.5078 139.27 29.0391C138.457 29.5755 137.288 29.8438 135.762 29.8438ZM135.832 28.5547C136.473 28.5547 137.012 28.4922 137.449 28.3672C137.887 28.2422 138.218 28.0625 138.442 27.8281C138.666 27.599 138.777 27.3255 138.777 27.0078C138.777 26.7266 138.707 26.5104 138.567 26.3594C138.426 26.2083 138.215 26.1042 137.934 26.0469C137.652 25.9896 137.304 25.9609 136.887 25.9609H135.527C135.189 25.9609 134.889 26.013 134.629 26.1172C134.369 26.2266 134.166 26.3828 134.02 26.5859C133.879 26.7891 133.809 27.0339 133.809 27.3203C133.809 27.7161 133.983 28.0208 134.332 28.2344C134.686 28.4479 135.186 28.5547 135.832 28.5547ZM136.192 21.8203C136.728 21.8203 137.126 21.6745 137.387 21.3828C137.647 21.0859 137.777 20.6693 137.777 20.1328C137.777 19.5495 137.642 19.112 137.371 18.8203C137.106 18.5286 136.71 18.3828 136.184 18.3828C135.668 18.3828 135.275 18.5312 135.004 18.8281C134.738 19.125 134.606 19.5651 134.606 20.1484C134.606 20.6745 134.738 21.0859 135.004 21.3828C135.275 21.6745 135.671 21.8203 136.192 21.8203ZM145.597 17.1875C146.368 17.1875 147.03 17.3464 147.582 17.6641C148.134 17.9818 148.558 18.4323 148.855 19.0156C149.152 19.599 149.301 20.2969 149.301 21.1094V22.0938H143.527C143.548 22.9323 143.772 23.5781 144.199 24.0312C144.631 24.4844 145.235 24.7109 146.011 24.7109C146.564 24.7109 147.058 24.6589 147.496 24.5547C147.939 24.4453 148.394 24.2865 148.863 24.0781V25.5703C148.431 25.7734 147.991 25.9219 147.543 26.0156C147.095 26.1094 146.558 26.1562 145.933 26.1562C145.084 26.1562 144.337 25.9922 143.691 25.6641C143.051 25.3307 142.548 24.8359 142.183 24.1797C141.824 23.5234 141.644 22.7083 141.644 21.7344C141.644 20.7656 141.808 19.9427 142.136 19.2656C142.465 18.5885 142.926 18.0729 143.519 17.7188C144.113 17.3646 144.806 17.1875 145.597 17.1875ZM145.597 18.5703C145.019 18.5703 144.551 18.7578 144.191 19.1328C143.837 19.5078 143.629 20.0573 143.566 20.7812H147.504C147.498 20.349 147.426 19.9661 147.285 19.6328C147.15 19.2995 146.941 19.0391 146.66 18.8516C146.384 18.6641 146.03 18.5703 145.597 18.5703ZM151.089 25.0312C151.089 24.6042 151.199 24.3047 151.417 24.1328C151.641 23.9557 151.912 23.8672 152.23 23.8672C152.548 23.8672 152.818 23.9557 153.042 24.1328C153.272 24.3047 153.386 24.6042 153.386 25.0312C153.386 25.4479 153.272 25.75 153.042 25.9375C152.818 26.1198 152.548 26.2109 152.23 26.2109C151.912 26.2109 151.641 26.1198 151.417 25.9375C151.199 25.75 151.089 25.4479 151.089 25.0312Z" fill="#1F3D99"/>
</g>
<defs>
<clipPath id="clip0_866_12036">
<rect width="24" height="24" fill="white" transform="translate(16 10)"/>
</clipPath>
<clipPath id="clip1_866_12036">
<rect width="107" height="20" fill="white" transform="translate(48 10)"/>
</clipPath>
</defs>
</svg>
