<svg width="610" height="259" viewBox="0 0 610 259" fill="none" xmlns="http://www.w3.org/2000/svg">
<rect x="3.35413" y="31.7754" width="34.8298" height="174.269" fill="#D6E0FF"/>
<rect x="55.5989" y="31.7754" width="34.8298" height="174.269" fill="#D6E0FF"/>
<rect x="107.843" y="31.7754" width="34.8298" height="174.269" fill="#D6E0FF"/>
<rect x="157.911" y="31.7754" width="34.8298" height="174.269" fill="#D6E0FF"/>
<rect x="210.156" y="31.7754" width="34.8298" height="174.269" fill="#D6E0FF"/>
<rect x="262.4" y="31.7754" width="34.8298" height="174.269" fill="#D6E0FF"/>
<rect x="314.646" y="31.7754" width="34.8298" height="174.269" fill="#D6E0FF"/>
<rect x="364.713" y="31.7754" width="34.8298" height="174.269" fill="#D6E0FF"/>
<rect x="416.957" y="31.7754" width="34.8298" height="174.269" fill="#D6E0FF"/>
<rect x="469.202" y="31.7754" width="34.8298" height="174.269" fill="#D6E0FF"/>
<rect x="521.446" y="31.7754" width="34.8298" height="174.269" fill="#D6E0FF"/>
<rect x="571.514" y="31.7754" width="34.8298" height="174.269" fill="#D6E0FF"/>
<g clip-path="url(#clip0_639_9383)">
<rect width="13.1085" height="7.00188" transform="translate(142.632 15.4375)" fill="white"/>
</g>
<path d="M138.973 11.6558L140.291 5.44482C140.342 5.20654 140.391 4.98389 140.438 4.77686C140.489 4.56592 140.536 4.37451 140.579 4.20264C140.622 4.02686 140.659 3.87842 140.69 3.75732C140.58 3.85889 140.467 3.95264 140.35 4.03857C140.237 4.12061 140.098 4.21436 139.934 4.31982L138.522 5.25146L138.235 4.80029L140.866 3.08936H141.399L139.577 11.6558H138.973ZM145.981 11.7729C145.477 11.7729 145.059 11.6636 144.727 11.4448C144.399 11.2222 144.153 10.9136 143.989 10.519C143.829 10.1245 143.748 9.66748 143.748 9.14795C143.748 8.72998 143.791 8.28662 143.877 7.81787C143.963 7.34912 144.088 6.88037 144.252 6.41162C144.42 5.94287 144.623 5.50342 144.862 5.09326C145.1 4.6792 145.372 4.31982 145.676 4.01514C145.918 3.77295 146.182 3.57373 146.467 3.41748C146.752 3.26123 147.055 3.146 147.375 3.07178C147.696 2.99365 148.026 2.95459 148.366 2.95459C148.577 2.95459 148.782 2.96826 148.981 2.99561C149.18 3.02295 149.348 3.06006 149.485 3.10693L149.362 3.64014C149.233 3.59326 149.08 3.5542 148.905 3.52295C148.729 3.4917 148.534 3.47607 148.319 3.47607C147.76 3.47607 147.235 3.61084 146.743 3.88037C146.254 4.146 145.817 4.57959 145.43 5.18115C145.047 5.78271 144.739 6.5874 144.504 7.59521H144.539C144.688 7.37646 144.875 7.17334 145.102 6.98584C145.329 6.79443 145.592 6.64014 145.893 6.52295C146.198 6.40186 146.538 6.34131 146.913 6.34131C147.514 6.34131 147.995 6.53076 148.354 6.90967C148.713 7.28857 148.893 7.79834 148.893 8.43896C148.893 8.896 148.821 9.32568 148.676 9.72803C148.532 10.1304 148.329 10.4858 148.067 10.7944C147.809 11.0991 147.502 11.3394 147.147 11.5151C146.795 11.687 146.407 11.7729 145.981 11.7729ZM146.016 11.2573C146.364 11.2573 146.678 11.1792 146.959 11.0229C147.241 10.8667 147.479 10.6558 147.674 10.3901C147.873 10.1206 148.026 9.82178 148.131 9.49365C148.241 9.16162 148.295 8.82373 148.295 8.47998C148.295 7.95654 148.159 7.5542 147.885 7.27295C147.616 6.9917 147.237 6.85107 146.748 6.85107C146.35 6.85107 145.987 6.93701 145.659 7.10889C145.334 7.28076 145.067 7.4917 144.856 7.7417C144.645 7.9917 144.508 8.23389 144.446 8.46826C144.426 8.54248 144.409 8.62256 144.393 8.7085C144.377 8.79443 144.366 8.88428 144.358 8.97803C144.35 9.07178 144.346 9.16748 144.346 9.26514C144.346 9.49951 144.372 9.73389 144.422 9.96826C144.477 10.2026 144.567 10.4175 144.692 10.6128C144.817 10.8081 144.987 10.9644 145.202 11.0815C145.416 11.1987 145.688 11.2573 146.016 11.2573ZM149.338 14.4741L151.284 5.28662H151.776L151.512 6.7749H151.547C151.711 6.50928 151.911 6.25537 152.145 6.01318C152.383 5.76709 152.655 5.56592 152.959 5.40967C153.264 5.24951 153.602 5.16943 153.973 5.16943C154.348 5.16943 154.67 5.25928 154.94 5.43896C155.213 5.61475 155.424 5.87061 155.573 6.20654C155.725 6.53857 155.801 6.93701 155.801 7.40186C155.801 7.82373 155.756 8.24365 155.666 8.66162C155.577 9.07568 155.446 9.47021 155.274 9.84521C155.102 10.2163 154.885 10.5483 154.623 10.8413C154.362 11.1304 154.059 11.3589 153.715 11.5269C153.375 11.6909 152.993 11.7729 152.567 11.7729C152.207 11.7729 151.907 11.7065 151.664 11.5737C151.422 11.437 151.229 11.2632 151.084 11.0522C150.944 10.8374 150.842 10.6128 150.78 10.3784H150.745C150.717 10.5933 150.68 10.8315 150.633 11.0933C150.586 11.355 150.539 11.5933 150.493 11.8081L149.924 14.4741H149.338ZM152.549 11.2573C152.893 11.2573 153.204 11.1851 153.481 11.0405C153.758 10.8921 154.002 10.6909 154.213 10.437C154.428 10.1792 154.608 9.88428 154.752 9.55225C154.897 9.22021 155.006 8.87061 155.08 8.50342C155.155 8.13623 155.192 7.76514 155.192 7.39014C155.192 6.85107 155.073 6.43311 154.834 6.13623C154.596 5.83545 154.252 5.68506 153.803 5.68506C153.565 5.68506 153.33 5.73584 153.1 5.8374C152.873 5.93506 152.657 6.07568 152.45 6.25928C152.247 6.43896 152.059 6.65186 151.887 6.89795C151.715 7.14404 151.567 7.41357 151.442 7.70654C151.317 7.99561 151.219 8.30225 151.149 8.62646C151.079 8.95068 151.043 9.27881 151.043 9.61084C151.043 10.146 151.178 10.5542 151.448 10.8354C151.717 11.1167 152.084 11.2573 152.549 11.2573ZM156.018 11.6558L158.86 8.36865L157.436 5.28662H158.063L159.252 7.95264L161.549 5.28662H162.247L159.516 8.39795L161.051 11.6558H160.424L159.123 8.82568L156.721 11.6558H156.018Z" fill="#474D66"/>
<g clip-path="url(#clip1_639_9383)">
<rect width="34.4098" height="7.00188" transform="translate(262.246 16.9937)" fill="white"/>
<line x1="263.246" y1="21.4937" x2="295.246" y2="21.4937" stroke="#3366FF"/>
<line x1="262.746" y1="16.9937" x2="262.746" y2="25.9937" stroke="#3366FF"/>
<line x1="295.746" y1="16.9937" x2="295.746" y2="25.9937" stroke="#3366FF"/>
</g>
<path d="M266.136 11.7729C265.875 11.7729 265.619 11.7534 265.369 11.7144C265.123 11.6792 264.906 11.6343 264.718 11.5796V11.0054C264.898 11.0718 265.113 11.1284 265.363 11.1753C265.613 11.2222 265.875 11.2456 266.148 11.2456C266.527 11.2456 266.89 11.1694 267.238 11.0171C267.59 10.8647 267.916 10.6284 268.216 10.3081C268.521 9.98389 268.795 9.56592 269.037 9.0542C269.279 8.54248 269.486 7.92725 269.658 7.2085H269.623C269.486 7.41553 269.306 7.61084 269.084 7.79443C268.865 7.97412 268.609 8.12061 268.316 8.23389C268.027 8.34717 267.701 8.40381 267.338 8.40381C266.912 8.40381 266.545 8.31592 266.236 8.14014C265.931 7.96436 265.699 7.71826 265.539 7.40186C265.379 7.08545 265.299 6.71631 265.299 6.29443C265.299 5.91943 265.345 5.56592 265.439 5.23389C265.533 4.90186 265.668 4.59717 265.843 4.31982C266.019 4.04248 266.228 3.8042 266.47 3.60498C266.713 3.40186 266.982 3.24561 267.279 3.13623C267.576 3.02295 267.892 2.96631 268.228 2.96631C268.72 2.96631 269.129 3.07568 269.453 3.29443C269.781 3.51318 270.025 3.81982 270.185 4.21436C270.345 4.60498 270.425 5.06201 270.425 5.58545C270.425 6.01514 270.379 6.47412 270.285 6.9624C270.195 7.44678 270.066 7.9292 269.898 8.40967C269.73 8.88623 269.529 9.33154 269.295 9.74561C269.064 10.1558 268.806 10.5015 268.521 10.7827C268.345 10.9585 268.162 11.1089 267.97 11.2339C267.779 11.3589 267.582 11.4624 267.379 11.5444C267.179 11.6226 266.974 11.6792 266.763 11.7144C266.556 11.7534 266.347 11.7729 266.136 11.7729ZM267.425 7.89404C267.812 7.89404 268.164 7.81787 268.48 7.66553C268.8 7.51318 269.068 7.31396 269.283 7.06787C269.502 6.82178 269.652 6.55811 269.734 6.27686C269.769 6.16357 269.795 6.04443 269.81 5.91943C269.826 5.79443 269.834 5.65186 269.834 5.4917C269.834 5.13623 269.781 4.80615 269.675 4.50146C269.57 4.19678 269.398 3.95264 269.16 3.76904C268.922 3.58154 268.605 3.48779 268.211 3.48779C267.847 3.48779 267.521 3.56396 267.232 3.71631C266.947 3.86865 266.705 4.07568 266.506 4.3374C266.306 4.59912 266.154 4.896 266.049 5.22803C265.943 5.56006 265.89 5.90771 265.89 6.271C265.89 6.77881 266.027 7.17725 266.3 7.46631C266.574 7.75146 266.949 7.89404 267.425 7.89404ZM273.789 11.7729C273.285 11.7729 272.867 11.6636 272.535 11.4448C272.207 11.2222 271.961 10.9136 271.797 10.519C271.636 10.1245 271.556 9.66748 271.556 9.14795C271.556 8.72998 271.599 8.28662 271.685 7.81787C271.771 7.34912 271.896 6.88037 272.06 6.41162C272.228 5.94287 272.431 5.50342 272.67 5.09326C272.908 4.6792 273.179 4.31982 273.484 4.01514C273.726 3.77295 273.99 3.57373 274.275 3.41748C274.56 3.26123 274.863 3.146 275.183 3.07178C275.504 2.99365 275.834 2.95459 276.174 2.95459C276.384 2.95459 276.59 2.96826 276.789 2.99561C276.988 3.02295 277.156 3.06006 277.293 3.10693L277.17 3.64014C277.041 3.59326 276.888 3.5542 276.713 3.52295C276.537 3.4917 276.341 3.47607 276.127 3.47607C275.568 3.47607 275.043 3.61084 274.55 3.88037C274.062 4.146 273.625 4.57959 273.238 5.18115C272.855 5.78271 272.547 6.5874 272.312 7.59521H272.347C272.496 7.37646 272.683 7.17334 272.91 6.98584C273.136 6.79443 273.4 6.64014 273.701 6.52295C274.006 6.40186 274.345 6.34131 274.72 6.34131C275.322 6.34131 275.802 6.53076 276.162 6.90967C276.521 7.28857 276.701 7.79834 276.701 8.43896C276.701 8.896 276.629 9.32568 276.484 9.72803C276.34 10.1304 276.136 10.4858 275.875 10.7944C275.617 11.0991 275.31 11.3394 274.955 11.5151C274.603 11.687 274.215 11.7729 273.789 11.7729ZM273.824 11.2573C274.172 11.2573 274.486 11.1792 274.767 11.0229C275.049 10.8667 275.287 10.6558 275.482 10.3901C275.681 10.1206 275.834 9.82178 275.939 9.49365C276.049 9.16162 276.103 8.82373 276.103 8.47998C276.103 7.95654 275.966 7.5542 275.693 7.27295C275.424 6.9917 275.045 6.85107 274.556 6.85107C274.158 6.85107 273.795 6.93701 273.466 7.10889C273.142 7.28076 272.875 7.4917 272.664 7.7417C272.453 7.9917 272.316 8.23389 272.254 8.46826C272.234 8.54248 272.216 8.62256 272.201 8.7085C272.185 8.79443 272.174 8.88428 272.166 8.97803C272.158 9.07178 272.154 9.16748 272.154 9.26514C272.154 9.49951 272.179 9.73389 272.23 9.96826C272.285 10.2026 272.375 10.4175 272.5 10.6128C272.625 10.8081 272.795 10.9644 273.009 11.0815C273.224 11.1987 273.496 11.2573 273.824 11.2573ZM277.146 14.4741L279.091 5.28662H279.584L279.32 6.7749H279.355C279.519 6.50928 279.718 6.25537 279.953 6.01318C280.191 5.76709 280.463 5.56592 280.767 5.40967C281.072 5.24951 281.41 5.16943 281.781 5.16943C282.156 5.16943 282.478 5.25928 282.748 5.43896C283.021 5.61475 283.232 5.87061 283.381 6.20654C283.533 6.53857 283.609 6.93701 283.609 7.40186C283.609 7.82373 283.564 8.24365 283.474 8.66162C283.384 9.07568 283.254 9.47021 283.082 9.84521C282.91 10.2163 282.693 10.5483 282.431 10.8413C282.17 11.1304 281.867 11.3589 281.523 11.5269C281.183 11.6909 280.8 11.7729 280.375 11.7729C280.015 11.7729 279.715 11.7065 279.472 11.5737C279.23 11.437 279.037 11.2632 278.892 11.0522C278.752 10.8374 278.65 10.6128 278.588 10.3784H278.552C278.525 10.5933 278.488 10.8315 278.441 11.0933C278.394 11.355 278.347 11.5933 278.3 11.8081L277.732 14.4741H277.146ZM280.357 11.2573C280.701 11.2573 281.011 11.1851 281.289 11.0405C281.566 10.8921 281.81 10.6909 282.021 10.437C282.236 10.1792 282.416 9.88428 282.56 9.55225C282.705 9.22021 282.814 8.87061 282.888 8.50342C282.963 8.13623 283 7.76514 283 7.39014C283 6.85107 282.881 6.43311 282.642 6.13623C282.404 5.83545 282.06 5.68506 281.611 5.68506C281.373 5.68506 281.138 5.73584 280.908 5.8374C280.681 5.93506 280.465 6.07568 280.257 6.25928C280.054 6.43896 279.867 6.65186 279.695 6.89795C279.523 7.14404 279.375 7.41357 279.25 7.70654C279.125 7.99561 279.027 8.30225 278.957 8.62646C278.886 8.95068 278.851 9.27881 278.851 9.61084C278.851 10.146 278.986 10.5542 279.256 10.8354C279.525 11.1167 279.892 11.2573 280.357 11.2573ZM283.826 11.6558L286.668 8.36865L285.244 5.28662H285.871L287.06 7.95264L289.357 5.28662H290.054L287.324 8.39795L288.859 11.6558H288.232L286.931 8.82568L284.529 11.6558H283.826Z" fill="#474D66"/>
<g clip-path="url(#clip2_639_9383)">
<line x1="1.07654" y1="222.993" x2="609.077" y2="222.993" stroke="#3366FF"/>
<line x1="0.576538" y1="218.493" x2="0.576538" y2="226.493" stroke="#3366FF"/>
<line x1="609.577" y1="218.493" x2="609.577" y2="226.493" stroke="#3366FF"/>
</g>
<path d="M277.392 240.384L278.71 234.173C278.761 233.935 278.81 233.712 278.857 233.505C278.908 233.294 278.954 233.103 278.997 232.931C279.04 232.755 279.077 232.607 279.109 232.486C278.999 232.587 278.886 232.681 278.769 232.767C278.656 232.849 278.517 232.943 278.353 233.048L276.941 233.98L276.654 233.529L279.285 231.818H279.818L277.995 240.384H277.392ZM281.464 240.384L281.57 239.875L284.57 237.162C284.886 236.873 285.187 236.591 285.472 236.318C285.757 236.044 286.009 235.767 286.228 235.486C286.451 235.201 286.624 234.904 286.749 234.595C286.878 234.283 286.943 233.945 286.943 233.582C286.943 233.164 286.814 232.833 286.556 232.591C286.298 232.345 285.947 232.222 285.501 232.222C285.275 232.222 285.05 232.251 284.827 232.31C284.609 232.369 284.39 232.455 284.171 232.568C283.952 232.681 283.732 232.82 283.509 232.984L283.222 232.562C283.601 232.273 283.986 232.056 284.376 231.912C284.767 231.767 285.158 231.695 285.548 231.695C285.962 231.695 286.318 231.773 286.615 231.929C286.915 232.082 287.146 232.294 287.306 232.568C287.47 232.841 287.552 233.158 287.552 233.517C287.552 234.029 287.447 234.5 287.236 234.929C287.025 235.355 286.724 235.773 286.333 236.183C285.947 236.593 285.49 237.033 284.962 237.501L282.367 239.81V239.833H286.632L286.527 240.384H281.464ZM294.068 240.501C293.579 240.501 293.161 240.402 292.814 240.203C292.466 240 292.199 239.716 292.011 239.353C291.827 238.99 291.736 238.564 291.736 238.076C291.736 237.63 291.783 237.201 291.876 236.787C291.974 236.373 292.117 235.99 292.304 235.638C292.492 235.287 292.72 234.982 292.99 234.724C293.263 234.462 293.576 234.259 293.927 234.115C294.283 233.966 294.671 233.892 295.093 233.892C295.367 233.892 295.636 233.917 295.902 233.968C296.171 234.019 296.408 234.091 296.611 234.185L296.441 234.707C296.257 234.617 296.044 234.546 295.802 234.496C295.564 234.441 295.327 234.414 295.093 234.414C294.675 234.414 294.296 234.509 293.956 234.701C293.617 234.888 293.326 235.15 293.083 235.486C292.845 235.822 292.661 236.21 292.533 236.652C292.404 237.089 292.339 237.558 292.339 238.058C292.339 238.429 292.406 238.761 292.538 239.054C292.675 239.343 292.876 239.572 293.142 239.74C293.408 239.904 293.732 239.986 294.115 239.986C294.4 239.986 294.665 239.953 294.911 239.886C295.158 239.816 295.404 239.724 295.65 239.611V240.144C295.447 240.246 295.214 240.33 294.952 240.396C294.691 240.466 294.396 240.501 294.068 240.501ZM299.429 240.49C298.937 240.49 298.523 240.388 298.187 240.185C297.851 239.982 297.597 239.697 297.425 239.33C297.257 238.962 297.173 238.537 297.173 238.052C297.173 237.587 297.222 237.148 297.32 236.734C297.421 236.32 297.566 235.941 297.753 235.597C297.945 235.25 298.173 234.951 298.439 234.701C298.708 234.447 299.011 234.251 299.347 234.115C299.687 233.974 300.052 233.904 300.443 233.904C300.927 233.904 301.335 234.007 301.667 234.214C301.999 234.421 302.251 234.708 302.423 235.076C302.599 235.439 302.687 235.861 302.687 236.341C302.687 236.771 302.64 237.189 302.546 237.595C302.456 238.001 302.322 238.38 302.142 238.732C301.962 239.083 301.74 239.39 301.474 239.652C301.212 239.914 300.91 240.119 300.566 240.267C300.226 240.416 299.847 240.49 299.429 240.49ZM299.482 239.98C299.794 239.98 300.083 239.921 300.349 239.804C300.619 239.683 300.859 239.513 301.07 239.294C301.285 239.076 301.466 238.814 301.615 238.509C301.767 238.205 301.882 237.865 301.96 237.49C302.038 237.115 302.077 236.714 302.077 236.289C302.077 235.945 302.019 235.632 301.902 235.351C301.785 235.066 301.605 234.839 301.363 234.671C301.124 234.503 300.816 234.419 300.437 234.419C300.124 234.419 299.833 234.476 299.564 234.589C299.294 234.703 299.048 234.867 298.826 235.082C298.607 235.296 298.419 235.554 298.263 235.855C298.107 236.156 297.986 236.494 297.9 236.869C297.818 237.24 297.777 237.64 297.777 238.07C297.777 238.66 297.919 239.126 298.204 239.47C298.494 239.81 298.919 239.98 299.482 239.98ZM303.677 240.384L305.611 231.267H306.202L304.269 240.384H303.677ZM308.306 240.501C307.97 240.501 307.681 240.443 307.439 240.326C307.197 240.205 307.011 240.027 306.882 239.792C306.757 239.558 306.695 239.271 306.695 238.931C306.695 238.794 306.704 238.652 306.724 238.503C306.747 238.355 306.773 238.203 306.8 238.046L307.656 234.015H308.253L307.38 238.117C307.349 238.265 307.326 238.402 307.31 238.527C307.294 238.648 307.286 238.759 307.286 238.861C307.286 239.24 307.386 239.523 307.585 239.71C307.785 239.894 308.074 239.986 308.452 239.986C308.831 239.986 309.202 239.867 309.566 239.628C309.933 239.386 310.255 239.05 310.533 238.621C310.814 238.187 311.015 237.681 311.136 237.103L311.792 234.015H312.378L311.025 240.384H310.533L310.796 238.896H310.761C310.62 239.126 310.433 239.367 310.199 239.617C309.968 239.863 309.695 240.072 309.378 240.244C309.066 240.416 308.708 240.501 308.306 240.501ZM313.163 240.384L314.511 234.015H315.003L314.74 235.498H314.775C314.908 235.263 315.077 235.023 315.285 234.777C315.495 234.531 315.745 234.322 316.035 234.15C316.327 233.978 316.661 233.892 317.036 233.892C317.544 233.892 317.91 234.042 318.132 234.343C318.359 234.644 318.472 235.044 318.472 235.544H318.495C318.636 235.291 318.816 235.037 319.035 234.783C319.257 234.529 319.519 234.318 319.82 234.15C320.12 233.978 320.458 233.892 320.833 233.892C321.314 233.892 321.685 234.025 321.947 234.291C322.212 234.556 322.345 234.945 322.345 235.457C322.345 235.601 322.335 235.748 322.316 235.896C322.296 236.044 322.269 236.197 322.234 236.353L321.384 240.384H320.786L321.66 236.283C321.695 236.134 321.718 235.998 321.73 235.873C321.745 235.748 321.753 235.632 321.753 235.527C321.753 235.156 321.66 234.878 321.472 234.695C321.285 234.507 321.019 234.414 320.675 234.414C320.413 234.414 320.154 234.484 319.896 234.625C319.642 234.765 319.404 234.962 319.181 235.216C318.958 235.47 318.765 235.769 318.601 236.113C318.437 236.453 318.312 236.826 318.226 237.232L317.558 240.384H316.966L317.816 236.394C317.855 236.222 317.882 236.06 317.898 235.908C317.913 235.755 317.921 235.626 317.921 235.521C317.921 235.173 317.831 234.902 317.652 234.707C317.476 234.511 317.216 234.414 316.872 234.414C316.611 234.414 316.351 234.484 316.093 234.625C315.839 234.761 315.601 234.958 315.378 235.216C315.156 235.474 314.96 235.779 314.792 236.13C314.624 236.478 314.495 236.865 314.406 237.291L313.755 240.384H313.163ZM323.4 240.384L324.753 234.003H325.269L325.011 235.486H325.029C325.169 235.251 325.355 235.011 325.585 234.765C325.816 234.519 326.089 234.31 326.406 234.138C326.726 233.966 327.083 233.88 327.478 233.88C327.826 233.88 328.12 233.941 328.363 234.062C328.609 234.183 328.794 234.361 328.919 234.595C329.048 234.83 329.113 235.117 329.113 235.457C329.113 235.601 329.101 235.751 329.077 235.908C329.058 236.064 329.033 236.214 329.001 236.359L328.146 240.384H327.525L328.398 236.277C328.429 236.128 328.452 235.994 328.468 235.873C328.484 235.748 328.492 235.634 328.492 235.533C328.492 235.158 328.392 234.88 328.193 234.701C327.993 234.517 327.71 234.425 327.343 234.425C326.964 234.425 326.593 234.544 326.23 234.783C325.87 235.021 325.552 235.355 325.275 235.785C324.997 236.214 324.798 236.716 324.677 237.291L324.015 240.384H323.4ZM331.738 240.501C331.331 240.501 330.976 240.457 330.671 240.367C330.37 240.277 330.122 240.179 329.927 240.074V239.482C330.15 239.615 330.419 239.734 330.736 239.839C331.052 239.941 331.384 239.992 331.732 239.992C332.126 239.992 332.447 239.937 332.693 239.828C332.939 239.718 333.12 239.568 333.238 239.376C333.359 239.181 333.419 238.957 333.419 238.703C333.419 238.476 333.367 238.287 333.261 238.134C333.156 237.982 333.007 237.845 332.816 237.724C332.628 237.599 332.411 237.468 332.165 237.332C331.888 237.175 331.64 237.021 331.421 236.869C331.202 236.716 331.031 236.542 330.906 236.347C330.781 236.148 330.718 235.906 330.718 235.621C330.718 235.238 330.81 234.919 330.993 234.666C331.181 234.412 331.435 234.22 331.755 234.091C332.076 233.958 332.437 233.892 332.839 233.892C333.218 233.892 333.56 233.931 333.865 234.009C334.169 234.087 334.433 234.179 334.656 234.285L334.462 234.789C334.259 234.687 334.017 234.599 333.736 234.525C333.458 234.451 333.158 234.414 332.833 234.414C332.392 234.414 332.027 234.509 331.738 234.701C331.452 234.892 331.31 235.187 331.31 235.585C331.31 235.785 331.359 235.957 331.456 236.101C331.558 236.242 331.701 236.371 331.884 236.488C332.072 236.605 332.29 236.732 332.54 236.869C332.802 237.017 333.046 237.167 333.273 237.32C333.499 237.472 333.681 237.654 333.818 237.865C333.958 238.072 334.029 238.337 334.029 238.662C334.029 239.025 333.943 239.345 333.771 239.623C333.603 239.9 333.347 240.117 333.003 240.273C332.663 240.425 332.242 240.501 331.738 240.501Z" fill="#474D66"/>
<path d="M286.954 255.944H286.005V249.874C286.005 249.644 286.005 249.446 286.005 249.282C286.009 249.114 286.013 248.962 286.017 248.825C286.025 248.685 286.035 248.542 286.046 248.397C285.925 248.522 285.812 248.63 285.706 248.72C285.601 248.806 285.47 248.913 285.314 249.042L284.335 249.827L283.826 249.165L286.146 247.378H286.954V255.944ZM296.242 253.958H294.958V255.944H294.009V253.958H289.867V253.138L293.945 247.331H294.958V253.079H296.242V253.958ZM294.009 253.079V250.278C294.009 250.063 294.011 249.87 294.015 249.698C294.019 249.522 294.025 249.36 294.033 249.212C294.04 249.06 294.046 248.915 294.05 248.778C294.058 248.642 294.064 248.507 294.068 248.374H294.021C293.947 248.53 293.861 248.696 293.763 248.872C293.669 249.044 293.574 249.198 293.476 249.335L290.833 253.079H294.009ZM303.109 253.958H301.826V255.944H300.876V253.958H296.734V253.138L300.812 247.331H301.826V253.079H303.109V253.958ZM300.876 253.079V250.278C300.876 250.063 300.878 249.87 300.882 249.698C300.886 249.522 300.892 249.36 300.9 249.212C300.908 249.06 300.913 248.915 300.917 248.778C300.925 248.642 300.931 248.507 300.935 248.374H300.888C300.814 248.53 300.728 248.696 300.63 248.872C300.536 249.044 300.441 249.198 300.343 249.335L297.701 253.079H300.876ZM309.595 251.649C309.595 252.345 309.542 252.966 309.437 253.513C309.331 254.06 309.165 254.522 308.939 254.901C308.712 255.28 308.419 255.569 308.06 255.769C307.701 255.964 307.269 256.062 306.765 256.062C306.128 256.062 305.601 255.888 305.183 255.54C304.769 255.192 304.458 254.69 304.251 254.034C304.048 253.374 303.947 252.579 303.947 251.649C303.947 250.735 304.038 249.95 304.222 249.294C304.41 248.634 304.71 248.128 305.124 247.776C305.538 247.421 306.085 247.243 306.765 247.243C307.41 247.243 307.941 247.419 308.359 247.771C308.777 248.118 309.087 248.622 309.29 249.282C309.494 249.938 309.595 250.728 309.595 251.649ZM304.925 251.649C304.925 252.446 304.986 253.11 305.107 253.642C305.228 254.173 305.423 254.571 305.693 254.837C305.966 255.099 306.324 255.229 306.765 255.229C307.206 255.229 307.562 255.099 307.831 254.837C308.105 254.575 308.302 254.179 308.423 253.647C308.548 253.116 308.611 252.45 308.611 251.649C308.611 250.864 308.55 250.208 308.429 249.681C308.308 249.149 308.113 248.751 307.843 248.485C307.574 248.216 307.214 248.081 306.765 248.081C306.316 248.081 305.956 248.216 305.687 248.485C305.417 248.751 305.222 249.149 305.101 249.681C304.984 250.208 304.925 250.864 304.925 251.649ZM317.37 249.405C318.171 249.405 318.81 249.681 319.286 250.231C319.763 250.782 320.001 251.61 320.001 252.716C320.001 253.446 319.892 254.06 319.673 254.556C319.454 255.052 319.146 255.427 318.747 255.681C318.353 255.935 317.886 256.062 317.347 256.062C317.007 256.062 316.708 256.017 316.451 255.927C316.193 255.837 315.972 255.716 315.788 255.563C315.605 255.411 315.452 255.245 315.331 255.065H315.261C315.273 255.218 315.286 255.401 315.302 255.616C315.322 255.831 315.331 256.019 315.331 256.179V258.815H314.353V249.522H315.156L315.285 250.472H315.331C315.456 250.276 315.609 250.099 315.788 249.938C315.968 249.774 316.187 249.646 316.445 249.552C316.706 249.454 317.015 249.405 317.37 249.405ZM317.201 250.226C316.755 250.226 316.396 250.312 316.122 250.483C315.853 250.655 315.656 250.913 315.531 251.257C315.406 251.597 315.339 252.024 315.331 252.54V252.728C315.331 253.271 315.39 253.729 315.507 254.104C315.628 254.479 315.826 254.765 316.099 254.96C316.376 255.155 316.747 255.253 317.212 255.253C317.611 255.253 317.943 255.146 318.208 254.931C318.474 254.716 318.671 254.417 318.8 254.034C318.933 253.647 318.999 253.204 318.999 252.704C318.999 251.946 318.851 251.345 318.554 250.899C318.261 250.45 317.81 250.226 317.201 250.226ZM323.23 252.657L321.009 249.522H322.122L323.816 251.995L325.503 249.522H326.605L324.384 252.657L326.728 255.944H325.615L323.816 253.325L322.005 255.944H320.904L323.23 252.657Z" fill="#474D66"/>
<g clip-path="url(#clip3_639_9383)">
<rect width="14.747" height="7.00188" transform="translate(142.632 15.4375)" fill="white"/>
<line x1="143.632" y1="19.9375" x2="156.632" y2="19.9375" stroke="#3366FF"/>
<line x1="143.132" y1="15.4375" x2="143.132" y2="24.4375" stroke="#3366FF"/>
<line x1="157.132" y1="15.4375" x2="157.132" y2="24.4375" stroke="#3366FF"/>
</g>
<defs>
<clipPath id="clip0_639_9383">
<rect width="13.1085" height="7.00188" fill="white" transform="translate(142.632 15.4375)"/>
</clipPath>
<clipPath id="clip1_639_9383">
<rect width="34.4098" height="7.00188" fill="white" transform="translate(262.246 16.9937)"/>
</clipPath>
<clipPath id="clip2_639_9383">
<rect width="609.545" height="7.00188" fill="white" transform="translate(0.0765381 218.493)"/>
</clipPath>
<clipPath id="clip3_639_9383">
<rect width="14.747" height="7.00188" fill="white" transform="translate(142.632 15.4375)"/>
</clipPath>
</defs>
</svg>
