<svg width="87" height="51" viewBox="0 0 87 51" fill="none" xmlns="http://www.w3.org/2000/svg">
<rect y="0.541016" width="87" height="49.918" rx="3" fill="#D6E0FF"/>
<rect x="6" y="5" width="76" height="6" rx="1" fill="#3366FF"/>
<rect x="6" y="15" width="4" height="4" rx="1" fill="#3366FF"/>
<rect x="6" y="23" width="4" height="4" rx="1" fill="#3366FF"/>
<rect x="6" y="31" width="4" height="4" rx="1" fill="#3366FF"/>
<rect x="6" y="39" width="4" height="4" rx="1" fill="#3366FF"/>
<rect x="42" y="15" width="4" height="4" rx="1" fill="#3366FF"/>
<rect x="42" y="23" width="4" height="4" rx="1" fill="#3366FF"/>
<rect x="42" y="31" width="4" height="4" rx="1" fill="#3366FF"/>
<rect x="42" y="39" width="4" height="4" rx="1" fill="#3366FF"/>
<rect x="18" y="15" width="4" height="4" rx="1" fill="#3366FF"/>
<rect x="18" y="23" width="4" height="4" rx="1" fill="#3366FF"/>
<rect x="18" y="31" width="4" height="4" rx="1" fill="#3366FF"/>
<rect x="18" y="39" width="4" height="4" rx="1" fill="#3366FF"/>
<rect x="54" y="15" width="4" height="4" rx="1" fill="#3366FF"/>
<rect x="54" y="23" width="4" height="4" rx="1" fill="#3366FF"/>
<rect x="54" y="31" width="4" height="4" rx="1" fill="#3366FF"/>
<rect x="54" y="39" width="4" height="4" rx="1" fill="#3366FF"/>
<rect x="30" y="15" width="4" height="4" rx="1" fill="#3366FF"/>
<rect x="30" y="23" width="4" height="4" rx="1" fill="#3366FF"/>
<rect x="30" y="31" width="4" height="4" rx="1" fill="#3366FF"/>
<rect x="30" y="39" width="4" height="4" rx="1" fill="#3366FF"/>
<rect x="66" y="15" width="4" height="4" rx="1" fill="#3366FF"/>
<rect x="66" y="23" width="4" height="4" rx="1" fill="#3366FF"/>
<rect x="66" y="31" width="4" height="4" rx="1" fill="#3366FF"/>
<rect x="66" y="39" width="4" height="4" rx="1" fill="#3366FF"/>
<rect x="78" y="15" width="4" height="4" rx="1" fill="#3366FF"/>
<rect x="78" y="23" width="4" height="4" rx="1" fill="#3366FF"/>
<rect x="78" y="31" width="4" height="4" rx="1" fill="#3366FF"/>
<rect x="78" y="39" width="4" height="4" rx="1" fill="#3366FF"/>
</svg>
