<svg width="16" height="56" viewBox="0 0 16 56" fill="none" xmlns="http://www.w3.org/2000/svg">
<rect width="16" height="16" rx="4" fill="#3366FF"/>
<path d="M12 4.5C11.72 4.5 11.47 4.61 11.29 4.79L7 9.09L4.71 6.79C4.53 6.61 4.28 6.5 4 6.5C3.45 6.5 3 6.95 3 7.5C3 7.78 3.11 8.03 3.29 8.21L6.29 11.21C6.47 11.39 6.72 11.5 7 11.5C7.28 11.5 7.53 11.39 7.71 11.21L12.71 6.21C12.89 6.03 13 5.78 13 5.5C13 4.95 12.55 4.5 12 4.5Z" fill="white"/>
<rect y="20" width="16" height="16" rx="4" fill="#D6E0FF"/>
<rect y="40" width="16" height="16" rx="4" fill="#3366FF"/>
<path d="M12 44.5C11.72 44.5 11.47 44.61 11.29 44.79L7 49.09L4.71 46.79C4.53 46.61 4.28 46.5 4 46.5C3.45 46.5 3 46.95 3 47.5C3 47.78 3.11 48.03 3.29 48.21L6.29 51.21C6.47 51.39 6.72 51.5 7 51.5C7.28 51.5 7.53 51.39 7.71 51.21L12.71 46.21C12.89 46.03 13 45.78 13 45.5C13 44.95 12.55 44.5 12 44.5Z" fill="white"/>
</svg>
