<svg width="104" height="24" viewBox="0 0 104 24" fill="none" xmlns="http://www.w3.org/2000/svg">
<path d="M13 11.33L18 18H5.99999L11 11.33V6H13V11.33ZM15.96 4H8.03999C7.61999 4 7.38999 4.48 7.64999 4.81L8.99999 6.5V10.67L3.19999 18.4C2.70999 19.06 3.17999 20 3.99999 20H20C20.82 20 21.29 19.06 20.8 18.4L15 10.67V6.5L16.35 4.81C16.61 4.48 16.38 4 15.96 4Z" fill="#3366FF"/>
<path d="M53.293 2.707L54.111 3.525L43.318 14.318C42.468 15.168 42 16.298 42 17.5C42 18.702 42.468 19.832 43.318 20.683C44.169 21.532 45.299 22 46.5 22C47.701 22 48.831 21.532 49.682 20.682L60.475 9.889L61.293 10.707L62.707 9.293L54.707 1.293L53.293 2.707ZM56.475 11.061L54.072 8.657L52.658 10.071L55.061 12.475L53.647 13.89L52.657 12.9L51.243 14.314L52.233 15.304L50.818 16.719L48.415 14.315L47 15.728L49.403 18.132L48.267 19.268C47.322 20.212 45.677 20.212 44.732 19.268C44.26 18.795 44 18.168 44 17.5C44 16.832 44.26 16.205 44.732 15.732L55.525 4.939L59.06 8.474L56.475 11.061Z" fill="#3366FF"/>
<path d="M96.5 3C94.76 3 93.09 3.81 92 5.09C90.91 3.81 89.24 3 87.5 3C84.42 3 82 5.42 82 8.5C82 12.28 85.4 15.36 90.55 20.04L92 21.35L93.45 20.03C98.6 15.36 102 12.28 102 8.5C102 5.42 99.58 3 96.5 3ZM92.1 18.55L92 18.65L91.9 18.55C87.14 14.24 84 11.39 84 8.5C84 6.5 85.5 5 87.5 5C89.04 5 90.54 5.99 91.07 7.36H92.94C93.46 5.99 94.96 5 96.5 5C98.5 5 100 6.5 100 8.5C100 11.39 96.86 14.24 92.1 18.55Z" fill="#3366FF"/>
</svg>
