<svg width="56" height="49" viewBox="0 0 56 49" fill="none" xmlns="http://www.w3.org/2000/svg">
<path d="M55.4113 13.5486C55.5694 13.7571 55.6738 14.0013 55.7151 14.2596C55.7565 14.518 55.7336 14.7825 55.6485 15.0299L47.8465 37.6272C47.7426 37.9281 47.5509 38.1909 47.2963 38.3818C47.0416 38.5728 46.7357 38.6831 46.4178 38.6986L46.34 37.1071L46.4178 38.6986L46.4077 38.6985L46.3865 38.7013L46.3078 38.7045C45.8573 38.7252 45.4065 38.7382 44.9556 38.7435C44.0614 38.7551 42.8225 38.7589 41.437 38.7088C38.7162 38.6193 35.2315 38.33 32.7277 37.4655C30.1757 36.5844 28.3549 35.0115 26.7719 33.6388L26.6979 33.5795C25.053 32.1517 23.6444 30.9572 21.7161 30.2915C19.607 29.5633 16.5416 29.2805 13.8773 29.1935C12.6834 29.1573 11.4888 29.1553 10.2948 29.1875L3.88884 47.7413C3.7509 48.1409 3.45988 48.4693 3.07981 48.6542C2.69975 48.8392 2.26177 48.8656 1.86223 48.7277C1.46268 48.5897 1.1343 48.2987 0.949322 47.9187C0.764345 47.5386 0.737925 47.1006 0.875873 46.7011L16.4799 1.50649C16.6178 1.10694 16.9088 0.77856 17.2889 0.593583C17.669 0.408606 18.1069 0.382185 18.5065 0.520133C18.906 0.658081 19.2344 0.949097 19.4194 1.32916C19.6044 1.70923 19.6308 2.14721 19.4928 2.54675L19.1995 3.39641C19.9626 3.39349 20.8708 3.40018 21.8502 3.43485C24.5689 3.53046 28.0576 3.81778 30.5584 4.6812C33.0893 5.55502 34.862 7.10116 36.409 8.45134L36.5198 8.5503C38.1328 9.9536 39.5453 11.1562 41.57 11.8552C43.6791 12.5834 46.7445 12.8662 49.4088 12.9532C50.9286 12.9984 52.4495 12.9881 53.9685 12.9223L54.033 12.921L54.0471 12.9191L54.0502 12.9202" fill="#3366FF"/>
</svg>
