<svg width="48" height="48" viewBox="0 0 48 48" fill="none" xmlns="http://www.w3.org/2000/svg">
<path d="M23.976 0C10.728 0 0 10.752 0 24C0 37.248 10.728 48 23.976 48C37.248 48 48 37.248 48 24C48 10.752 37.248 0 23.976 0ZM24 43.2C13.392 43.2 4.8 34.608 4.8 24C4.8 13.392 13.392 4.8 24 4.8C34.608 4.8 43.2 13.392 43.2 24C43.2 34.608 34.608 43.2 24 43.2ZM32.4 21.6C34.392 21.6 36 19.992 36 18C36 16.008 34.392 14.4 32.4 14.4C30.408 14.4 28.8 16.008 28.8 18C28.8 19.992 30.408 21.6 32.4 21.6ZM15.6 21.6C17.592 21.6 19.2 19.992 19.2 18C19.2 16.008 17.592 14.4 15.6 14.4C13.608 14.4 12 16.008 12 18C12 19.992 13.608 21.6 15.6 21.6ZM24 37.2C29.592 37.2 34.344 33.696 36.264 28.8H11.736C13.656 33.696 18.408 37.2 24 37.2Z" fill="#3366FF"/>
</svg>
