<svg width="87" height="50" viewBox="0 0 87 50" fill="none" xmlns="http://www.w3.org/2000/svg">
<rect width="87" height="49.918" rx="3" fill="#D6E0FF"/>
<rect x="86.9999" width="50" height="33.0189" rx="3" transform="rotate(90 86.9999 0)" fill="#9DB5FF"/>
<rect x="86.9999" width="50" height="33.0189" rx="3" transform="rotate(90 86.9999 0)" fill="#9DB5FF"/>
<rect width="22.6415" height="3.47567" rx="1" transform="matrix(1 1.74846e-07 1.74846e-07 -1 57.7547 7.82031)" fill="#3366FF"/>
<rect width="22.6415" height="3.47567" rx="1" transform="matrix(1 1.74846e-07 1.74846e-07 -1 57.7547 24.8018)" fill="#3366FF"/>
<rect width="22.6415" height="3.47567" rx="1" transform="matrix(1 1.74846e-07 1.74846e-07 -1 57.7547 13.4805)" fill="#3366FF"/>
<rect width="22.6415" height="3.47567" rx="1" transform="matrix(1 1.74846e-07 1.74846e-07 -1 57.7547 30.4609)" fill="#3366FF"/>
<rect width="22.6415" height="3.47567" rx="1" transform="matrix(1 1.74846e-07 1.74846e-07 -1 57.7547 19.1406)" fill="#3366FF"/>
<rect width="22.6415" height="3.47567" rx="1" transform="matrix(1 1.74846e-07 1.74846e-07 -1 57.7547 36.1221)" fill="#3366FF"/>
<rect width="2.83019" height="4.71698" rx="1" transform="matrix(4.37114e-08 -1 -1 -4.37114e-08 62.1737 47.1699)" fill="#3366FF"/>
</svg>
