<svg width="63" height="47" viewBox="0 0 63 47" fill="none" xmlns="http://www.w3.org/2000/svg">
<path d="M0 2C0 0.89543 0.895431 0 2 0H28C29.1046 0 30 0.895431 30 2V16C30 17.1046 29.1046 18 28 18H2C0.89543 18 0 17.1046 0 16V2Z" fill="#3366FF"/>
<path d="M32 2C32 0.89543 32.8954 0 34 0H61C62.1046 0 63 0.895431 63 2V27C63 28.1046 62.1046 29 61 29H34C32.8954 29 32 28.1046 32 27V2Z" fill="#3366FF"/>
<rect y="20" width="30" height="9" rx="2" fill="#3366FF"/>
<rect y="31" width="63" height="4" rx="2" fill="#3366FF"/>
<rect y="37" width="63" height="4" rx="2" fill="#3366FF"/>
<rect y="43" width="63" height="4" rx="2" fill="#3366FF"/>
</svg>
