<svg width="81" height="31" viewBox="0 0 81 31" fill="none" xmlns="http://www.w3.org/2000/svg">
<path d="M28 3.5C28 1.567 29.567 0 31.5 0H49.5C51.433 0 53 1.567 53 3.5V3.5C53 5.433 51.433 7 49.5 7H31.5C29.567 7 28 5.433 28 3.5V3.5Z" fill="#3366FF"/>
<path d="M0 3.5C0 1.567 1.567 0 3.5 0H21.5C23.433 0 25 1.567 25 3.5V3.5C25 5.433 23.433 7 21.5 7H3.5C1.567 7 0 5.433 0 3.5V3.5Z" fill="#3366FF"/>
<path d="M0 27.5C0 25.567 1.567 24 3.5 24H21.5C23.433 24 25 25.567 25 27.5V27.5C25 29.433 23.433 31 21.5 31H3.5C1.567 31 0 29.433 0 27.5V27.5Z" fill="#3366FF"/>
<path d="M56 3.5C56 1.567 57.567 0 59.5 0H77.5C79.433 0 81 1.567 81 3.5V3.5C81 5.433 79.433 7 77.5 7H59.5C57.567 7 56 5.433 56 3.5V3.5Z" fill="#3366FF"/>
<path d="M56 15.5C56 13.567 57.567 12 59.5 12H77.5C79.433 12 81 13.567 81 15.5V15.5C81 17.433 79.433 19 77.5 19H59.5C57.567 19 56 17.433 56 15.5V15.5Z" fill="#3366FF"/>
<path d="M28 15.5C28 13.567 29.567 12 31.5 12H49.5C51.433 12 53 13.567 53 15.5V15.5C53 17.433 51.433 19 49.5 19H31.5C29.567 19 28 17.433 28 15.5V15.5Z" fill="#3366FF"/>
<path d="M0 15.5C0 13.567 1.567 12 3.5 12H21.5C23.433 12 25 13.567 25 15.5V15.5C25 17.433 23.433 19 21.5 19H3.5C1.567 19 0 17.433 0 15.5V15.5Z" fill="#3366FF"/>
</svg>
