<svg width="47" height="30" viewBox="0 0 47 30" fill="none" xmlns="http://www.w3.org/2000/svg">
<path d="M21.4453 29L18.6523 21.0703H7.73438L4.94141 29H0L10.625 0.328125H15.8203L26.4258 29H21.4453ZM17.4414 17.0469L14.7266 9.23438C14.6224 8.89583 14.4727 8.42057 14.2773 7.80859C14.082 7.18359 13.8867 6.55208 13.6914 5.91406C13.4961 5.26302 13.3333 4.71615 13.2031 4.27344C13.0729 4.80729 12.9102 5.40625 12.7148 6.07031C12.5326 6.72135 12.3503 7.33333 12.168 7.90625C11.9987 8.47917 11.8685 8.92188 11.7773 9.23438L9.04297 17.0469H17.4414ZM38.6031 6.96875C41.3375 6.96875 43.4013 7.57422 44.7945 8.78516C46.2008 9.99609 46.9039 11.8841 46.9039 14.4492V29H43.6422L42.7633 25.9336H42.607C41.9951 26.7148 41.3635 27.3594 40.7125 27.8672C40.0615 28.375 39.3062 28.7526 38.4469 29C37.6005 29.2604 36.5654 29.3906 35.3414 29.3906C34.0523 29.3906 32.9 29.1562 31.8844 28.6875C30.8687 28.2057 30.068 27.4766 29.482 26.5C28.8961 25.5234 28.6031 24.2865 28.6031 22.7891C28.6031 20.5625 29.4299 18.8893 31.0836 17.7695C32.7503 16.6497 35.2633 16.0312 38.6227 15.9141L42.3727 15.7773V14.6445C42.3727 13.1471 42.0211 12.0794 41.318 11.4414C40.6279 10.8034 39.6513 10.4844 38.3883 10.4844C37.3076 10.4844 36.2594 10.6406 35.2437 10.9531C34.2281 11.2656 33.2385 11.6497 32.275 12.1055L30.7906 8.86328C31.8453 8.30339 33.0432 7.84766 34.3844 7.49609C35.7385 7.14453 37.1448 6.96875 38.6031 6.96875ZM42.3531 18.668L39.5602 18.7656C37.2685 18.8438 35.6604 19.2344 34.7359 19.9375C33.8115 20.6406 33.3492 21.6042 33.3492 22.8281C33.3492 23.8958 33.6682 24.6771 34.3062 25.1719C34.9443 25.6536 35.7841 25.8945 36.8258 25.8945C38.4143 25.8945 39.7294 25.4453 40.7711 24.5469C41.8258 23.6354 42.3531 22.3008 42.3531 20.543V18.668Z" fill="#3366FF"/>
</svg>
