<svg width="48" height="46" viewBox="0 0 48 46" fill="none" xmlns="http://www.w3.org/2000/svg">
<path d="M46.4486 16.1979L32.0591 14.0992L25.6267 1.01239C25.451 0.654079 25.1619 0.364019 24.8049 0.187707C23.9094 -0.255915 22.8213 0.11377 22.3736 1.01239L15.9411 14.0992L1.55164 16.1979C1.15492 16.2548 0.792211 16.4425 0.514509 16.7268C0.178784 17.0731 -0.00621659 17.539 0.000159514 18.0221C0.00653562 18.5052 0.203766 18.966 0.548513 19.3033L10.9595 29.4895L8.49984 43.8731C8.44216 44.2077 8.47906 44.5518 8.60634 44.8664C8.73363 45.181 8.94621 45.4536 9.21999 45.6531C9.49376 45.8527 9.81777 45.9712 10.1553 45.9954C10.4928 46.0196 10.8303 45.9483 11.1295 45.7898L24.0001 38.9989L36.8707 45.7898C37.2221 45.9775 37.6302 46.04 38.0212 45.9718C39.0073 45.8011 39.6704 44.8627 39.5004 43.8731L37.0407 29.4895L47.4517 19.3033C47.7351 19.0246 47.9221 18.6606 47.9788 18.2625C48.1318 17.2672 47.4404 16.3458 46.4486 16.1979Z" fill="#3366FF"/>
</svg>
