<svg width="143" height="30" viewBox="0 0 143 30" fill="none" xmlns="http://www.w3.org/2000/svg">
<g clip-path="url(#clip0)">
<path d="M34.8122 29.7604C32.3282 29.7604 30.3293 29.0297 28.8153 27.5682C28.0688 26.8482 27.4788 25.9914 27.0802 25.0482C26.6816 24.1049 26.4822 23.0943 26.494 22.0757V10.5547H30.4681V21.9214C30.4573 22.4514 30.5609 22.9777 30.7723 23.467C30.9837 23.9562 31.2983 24.3976 31.696 24.7631C32.1025 25.1516 32.5864 25.4565 33.1183 25.6596C33.6503 25.8626 34.2194 25.9595 34.7912 25.9444C35.3379 25.949 35.88 25.848 36.3855 25.6472C36.8911 25.4464 37.3499 25.1499 37.735 24.7753C38.1396 24.4132 38.461 23.9732 38.6783 23.4837C38.8957 22.9942 39.0041 22.4661 38.9966 21.9336V10.5547H42.9454V22.0757C42.964 23.1039 42.765 24.125 42.3606 25.0765C41.9562 26.0279 41.3549 26.8897 40.5935 27.6091C39.8322 28.3285 38.9267 28.8903 37.9327 29.2602C36.9386 29.6301 35.8768 29.8003 34.8122 29.7604Z" fill="white"/>
<path d="M60.0109 10.5547L54.67 16.8795L62.0757 29.5006H57.3741L52.029 20.05L51.8566 20.253V29.5006H47.8867V0.0283203H51.8566V14.1515L54.9139 10.5385L60.0109 10.5547Z" fill="white"/>
<path d="M70.7851 25.2099C71.4439 25.7755 72.6467 26.0583 74.3933 26.0583C75.2909 26.0712 76.1818 25.9076 77.0118 25.5775C77.8418 25.2474 78.5935 24.7577 79.2211 24.1382C79.3851 23.9677 79.7257 23.5861 80.2346 22.9974L84.1834 24.3574C83.5422 25.2553 82.8397 26.111 82.0808 26.9189C81.0726 27.8943 79.875 28.6681 78.5566 29.196C77.2382 29.724 75.8249 29.9957 74.3975 29.9957C72.9702 29.9957 71.5569 29.724 70.2385 29.196C68.9201 28.6681 67.7225 27.8943 66.7143 26.9189C65.6847 25.9564 64.871 24.8 64.3233 23.5214C63.7757 22.2428 63.506 20.8693 63.5308 19.4859C63.5079 18.1031 63.7789 16.7303 64.3272 15.4526C64.8754 14.1748 65.6893 13.0191 66.7185 12.057C68.6044 10.2415 71.1142 9.15621 73.7731 9.00659C76.432 8.85697 79.0555 9.65336 81.1472 11.2451C81.4668 11.5049 81.778 11.7809 82.085 12.057C82.2111 12.1828 82.5728 12.5685 83.1742 13.218L81.1892 15.1544L70.7851 25.2099ZM77.3791 13.4169C76.9334 13.084 75.9353 12.9176 74.3849 12.9176C72.5832 12.9219 70.8568 13.6158 69.5844 14.8471C68.312 16.0785 67.5974 17.7467 67.5974 19.4859C67.5974 20.9717 67.7656 21.9216 68.1105 22.3763L77.3791 13.4169Z" fill="white"/>
<path d="M103.995 11.8662V10.555H107.965V29.5212H103.995V27.1464C102.086 29.0408 99.871 29.988 97.3506 29.988C95.9206 30.0103 94.5012 29.7494 93.1797 29.2216C91.8583 28.6938 90.6629 27.9101 89.6673 26.919C88.6406 25.958 87.8288 24.8041 87.282 23.5285C86.7352 22.2528 86.465 20.8826 86.4881 19.5022C86.465 18.1219 86.7352 16.7516 87.282 15.476C87.8288 14.2004 88.6406 13.0465 89.6673 12.0855C90.6629 11.0944 91.8583 10.3107 93.1797 9.78289C94.5012 9.25504 95.9206 8.9942 97.3506 9.01645C99.8682 9.02457 102.083 9.9745 103.995 11.8662ZM103.995 20.915V18.1139C103.74 16.8765 103.101 15.7436 102.162 14.8662C101.21 13.947 99.9967 13.3209 98.6761 13.067C97.3556 12.8132 95.9867 12.943 94.7426 13.4401C93.4984 13.9371 92.4349 14.7791 91.6865 15.8596C90.9381 16.9401 90.5383 18.2106 90.5378 19.5104C90.5423 20.8084 90.9444 22.0762 91.6935 23.1542C92.4426 24.2322 93.5052 25.0722 94.7477 25.5686C95.9902 26.0651 97.357 26.1957 98.6762 25.944C99.9954 25.6924 101.208 25.0698 102.162 24.1545C103.1 23.2799 103.74 22.1498 103.995 20.915Z" fill="white"/>
<path d="M117.679 0V29.5007H113.709V0H117.679Z" fill="white"/>
<path d="M139.03 11.8663V10.555H142.983V29.5212H139.03V27.1464C137.121 29.0408 134.906 29.9881 132.386 29.9881C130.956 30.0103 129.536 29.7495 128.215 29.2216C126.893 28.6938 125.698 27.9101 124.702 26.919C123.68 25.958 122.872 24.8055 122.327 23.5322C121.783 22.259 121.513 20.8918 121.536 19.5144C121.513 18.1345 121.783 16.7646 122.329 15.4891C122.875 14.2136 123.685 13.0595 124.711 12.0977C125.706 11.1066 126.902 10.3229 128.223 9.79509C129.545 9.26725 130.964 9.00641 132.394 9.02866C134.912 9.02866 137.124 9.97453 139.03 11.8663ZM139.03 20.915V18.1139C138.777 16.8759 138.137 15.7425 137.197 14.8663C136.244 13.9468 135.031 13.3206 133.71 13.0668C132.389 12.8131 131.02 12.9433 129.776 13.4409C128.531 13.9384 127.468 14.7811 126.72 15.8622C125.972 16.9433 125.573 18.2143 125.573 19.5144C125.577 20.8125 125.979 22.0803 126.729 23.1583C127.478 24.2363 128.54 25.0763 129.783 25.5727C131.025 26.0691 132.392 26.1998 133.711 25.9481C135.03 25.6965 136.243 25.0739 137.197 24.1586C138.137 23.284 138.777 22.1519 139.03 20.915Z" fill="white"/>
<path d="M19.0378 12.069C18.0432 11.0761 16.8482 10.2907 15.5267 9.76138C14.2051 9.2321 12.7851 8.9702 11.3545 8.99188C8.83128 8.99188 6.60943 9.93911 4.68897 11.8336V0H0.740112V20.9594H4.68897V18.0203C4.9572 16.8111 5.59607 15.7078 6.52252 14.8539C7.14817 14.2296 7.89971 13.7356 8.73077 13.4026C9.56183 13.0695 10.4548 12.9044 11.3545 12.9175C12.2524 12.9044 13.1434 13.0696 13.9725 13.4027C14.8015 13.7358 15.5508 14.2297 16.1739 14.8539C16.806 15.4632 17.3074 16.1868 17.6496 16.9833C17.9917 17.7798 18.1678 18.6337 18.1678 19.4959C18.1678 20.3582 17.9917 21.2121 17.6496 22.0086C17.3074 22.8051 16.806 23.5287 16.1739 24.138C15.5481 24.7577 14.798 25.2476 13.9693 25.5778C13.1406 25.9079 12.2509 26.0714 11.3545 26.0582C10.3806 26.095 9.4245 25.7989 8.65465 25.2219V29.4114C9.4922 29.8151 10.4185 30.017 11.3545 30C12.7851 30.0217 14.2051 29.7598 15.5267 29.2305C16.8482 28.7012 18.0432 27.9158 19.0378 26.9229C20.0641 25.9575 20.8752 24.7999 21.4212 23.5209C21.9672 22.242 22.2366 20.8689 22.2128 19.4858C22.2337 18.1061 21.9629 16.7368 21.417 15.4616C20.8711 14.1864 20.0615 13.032 19.0378 12.069Z" fill="white"/>
<path d="M5.95483 26.257C5.95483 26.8254 5.78021 27.3811 5.45304 27.8538C5.12588 28.3264 4.66087 28.6948 4.11682 28.9123C3.57277 29.1299 2.97411 29.1868 2.39655 29.0759C1.81899 28.965 1.28846 28.6913 0.872066 28.2893C0.455667 27.8873 0.172096 27.3752 0.0572115 26.8177C-0.0576727 26.2602 0.00129008 25.6823 0.226644 25.1571C0.451997 24.6319 0.83362 24.183 1.32325 23.8672C1.81289 23.5514 2.38854 23.3828 2.97742 23.3828C3.36842 23.3828 3.75559 23.4572 4.11682 23.6016C4.47806 23.746 4.80629 23.9577 5.08277 24.2246C5.35924 24.4915 5.57856 24.8084 5.72819 25.1571C5.87782 25.5058 5.95483 25.8795 5.95483 26.257Z" fill="white"/>
</g>
<defs>
<clipPath id="clip0">
<rect width="143" height="30" fill="white"/>
</clipPath>
</defs>
</svg>
