<svg width="277" height="426" viewBox="0 0 277 426" fill="none" xmlns="http://www.w3.org/2000/svg">
<path d="M48.3934 287.954H39.8732V272.909H48.3934V274.988H42.3428V279.073H48.0127V281.142H42.3428V285.865H48.3934V287.954ZM64.1206 276.346C65.3965 276.346 66.357 276.676 67.0018 277.334C67.6535 277.993 67.9794 279.049 67.9794 280.504V287.954H65.5612V280.936C65.5612 280.071 65.3931 279.42 65.057 278.981C64.7208 278.542 64.2097 278.322 63.5237 278.322C62.5633 278.322 61.8705 278.631 61.4451 279.248C61.0267 279.859 60.8174 280.747 60.8174 281.913V287.954H58.3993V280.936C58.3993 280.359 58.3238 279.879 58.1729 279.495C58.0288 279.104 57.8059 278.813 57.504 278.62C57.2022 278.422 56.8214 278.322 56.3618 278.322C55.6964 278.322 55.1647 278.473 54.7668 278.775C54.3758 279.077 54.0945 279.523 53.923 280.113C53.7515 280.696 53.6658 281.413 53.6658 282.263V287.954H51.2476V276.562H53.1307L53.4703 278.096H53.604C53.8373 277.698 54.1254 277.372 54.4684 277.118C54.8183 276.857 55.2059 276.665 55.6312 276.542C56.0565 276.412 56.499 276.346 56.9586 276.346C57.8093 276.346 58.5262 276.497 59.1093 276.799C59.6924 277.094 60.128 277.547 60.4161 278.157H60.6013C60.9581 277.54 61.4554 277.084 62.0934 276.789C62.7314 276.494 63.4071 276.346 64.1206 276.346ZM77.0488 276.346C78.4002 276.346 79.4841 276.84 80.3005 277.828C81.1237 278.816 81.5353 280.284 81.5353 282.232C81.5353 283.522 81.3432 284.609 80.9591 285.494C80.5817 286.372 80.0501 287.038 79.3641 287.491C78.6849 287.936 77.8926 288.159 76.9871 288.159C76.4108 288.159 75.91 288.084 75.4847 287.933C75.0594 287.782 74.6958 287.587 74.3939 287.346C74.0921 287.1 73.8383 286.832 73.6325 286.544H73.4884C73.5227 286.818 73.5536 287.124 73.581 287.46C73.6153 287.789 73.6325 288.091 73.6325 288.365V293.006H71.204V276.562H73.1797L73.5193 278.137H73.6325C73.8451 277.814 74.1024 277.516 74.4042 277.242C74.7129 276.967 75.0834 276.751 75.5156 276.593C75.9546 276.429 76.4657 276.346 77.0488 276.346ZM76.4005 278.322C75.7351 278.322 75.2 278.456 74.7953 278.723C74.3974 278.984 74.1058 279.378 73.9206 279.907C73.7422 280.435 73.6462 281.097 73.6325 281.893V282.232C73.6325 283.076 73.7182 283.793 73.8897 284.383C74.0681 284.966 74.3596 285.412 74.7644 285.721C75.176 286.022 75.7317 286.173 76.4314 286.173C77.0214 286.173 77.5084 286.012 77.8926 285.69C78.2836 285.367 78.5752 284.908 78.7673 284.311C78.9593 283.714 79.0554 283.011 79.0554 282.201C79.0554 280.973 78.8359 280.02 78.3968 279.341C77.9646 278.662 77.2992 278.322 76.4005 278.322ZM88.4232 286.204C88.7388 286.204 89.0509 286.177 89.3596 286.122C89.6683 286.06 89.9496 285.988 90.2034 285.906V287.738C89.9359 287.854 89.5894 287.954 89.1641 288.036C88.7388 288.118 88.2963 288.159 87.8367 288.159C87.1918 288.159 86.6122 288.053 86.0977 287.84C85.5832 287.621 85.175 287.247 84.8731 286.719C84.5713 286.191 84.4204 285.46 84.4204 284.527V278.404H82.8666V277.324L84.5336 276.47L85.3259 274.031H86.8488V276.562H90.1108V278.404H86.8488V284.496C86.8488 285.072 86.9929 285.501 87.281 285.782C87.5691 286.064 87.9499 286.204 88.4232 286.204ZM90.6497 276.562H93.284L95.6199 283.066C95.7228 283.361 95.8154 283.652 95.8977 283.94C95.9869 284.222 96.0623 284.5 96.1241 284.774C96.1927 285.048 96.2476 285.323 96.2887 285.597H96.3505C96.4191 285.24 96.5151 284.843 96.6386 284.404C96.7689 283.958 96.913 283.512 97.0708 283.066L99.314 276.562H101.917L97.0296 289.518C96.7483 290.259 96.4019 290.89 95.9903 291.411C95.5856 291.939 95.1054 292.337 94.5497 292.605C93.994 292.879 93.3595 293.016 92.646 293.016C92.303 293.016 92.0046 292.996 91.7508 292.955C91.4969 292.92 91.2809 292.883 91.1025 292.841V290.907C91.2466 290.941 91.4283 290.972 91.6479 290.999C91.8674 291.027 92.0938 291.041 92.327 291.041C92.7592 291.041 93.1331 290.955 93.4486 290.783C93.7642 290.612 94.0318 290.368 94.2513 290.053C94.4708 289.744 94.6526 289.391 94.7967 288.993L95.198 287.923L90.6497 276.562ZM116.475 284.702C116.475 285.45 116.294 286.081 115.93 286.595C115.566 287.11 115.035 287.501 114.335 287.768C113.642 288.029 112.791 288.159 111.783 288.159C110.987 288.159 110.301 288.101 109.725 287.984C109.156 287.875 108.617 287.703 108.109 287.47V285.381C108.651 285.635 109.259 285.854 109.931 286.04C110.61 286.225 111.251 286.317 111.855 286.317C112.651 286.317 113.224 286.194 113.574 285.947C113.923 285.693 114.098 285.357 114.098 284.939C114.098 284.692 114.026 284.472 113.882 284.28C113.745 284.081 113.484 283.879 113.1 283.673C112.723 283.46 112.167 283.206 111.433 282.911C110.713 282.623 110.106 282.335 109.612 282.047C109.118 281.759 108.744 281.413 108.49 281.008C108.236 280.596 108.109 280.071 108.109 279.433C108.109 278.425 108.507 277.66 109.303 277.139C110.106 276.61 111.166 276.346 112.483 276.346C113.182 276.346 113.841 276.418 114.458 276.562C115.083 276.7 115.693 276.902 116.29 277.17L115.529 278.991C115.014 278.765 114.496 278.579 113.975 278.435C113.46 278.284 112.936 278.209 112.4 278.209C111.776 278.209 111.299 278.305 110.97 278.497C110.648 278.689 110.486 278.963 110.486 279.32C110.486 279.588 110.565 279.814 110.723 279.999C110.881 280.185 111.152 280.37 111.536 280.555C111.927 280.74 112.469 280.97 113.162 281.244C113.841 281.505 114.428 281.78 114.922 282.068C115.422 282.349 115.806 282.695 116.074 283.107C116.342 283.519 116.475 284.05 116.475 284.702ZM123.178 286.204C123.494 286.204 123.806 286.177 124.114 286.122C124.423 286.06 124.704 285.988 124.958 285.906V287.738C124.691 287.854 124.344 287.954 123.919 288.036C123.494 288.118 123.051 288.159 122.591 288.159C121.947 288.159 121.367 288.053 120.852 287.84C120.338 287.621 119.93 287.247 119.628 286.719C119.326 286.191 119.175 285.46 119.175 284.527V278.404H117.621V277.324L119.288 276.47L120.081 274.031H121.604V276.562H124.866V278.404H121.604V284.496C121.604 285.072 121.748 285.501 122.036 285.782C122.324 286.064 122.705 286.204 123.178 286.204ZM131.589 276.346C133.03 276.346 134.117 276.665 134.851 277.303C135.592 277.941 135.962 278.936 135.962 280.287V287.954H134.244L133.781 286.338H133.698C133.376 286.75 133.043 287.089 132.7 287.357C132.357 287.624 131.959 287.823 131.507 287.954C131.061 288.091 130.515 288.159 129.87 288.159C129.191 288.159 128.584 288.036 128.049 287.789C127.514 287.535 127.092 287.151 126.783 286.636C126.475 286.122 126.32 285.47 126.32 284.681C126.32 283.508 126.756 282.627 127.627 282.037C128.505 281.447 129.829 281.121 131.599 281.059L133.575 280.987V280.39C133.575 279.601 133.39 279.039 133.019 278.703C132.656 278.367 132.141 278.199 131.476 278.199C130.906 278.199 130.354 278.281 129.819 278.446C129.284 278.61 128.763 278.813 128.255 279.053L127.473 277.344C128.029 277.049 128.66 276.809 129.366 276.624C130.08 276.439 130.821 276.346 131.589 276.346ZM133.565 282.51L132.093 282.562C130.886 282.603 130.039 282.809 129.551 283.179C129.064 283.549 128.821 284.057 128.821 284.702C128.821 285.264 128.989 285.676 129.325 285.937C129.661 286.191 130.104 286.317 130.652 286.317C131.489 286.317 132.182 286.081 132.731 285.607C133.287 285.127 133.565 284.424 133.565 283.498V282.51ZM143.437 286.204C143.752 286.204 144.064 286.177 144.373 286.122C144.682 286.06 144.963 285.988 145.217 285.906V287.738C144.949 287.854 144.603 287.954 144.178 288.036C143.752 288.118 143.31 288.159 142.85 288.159C142.205 288.159 141.626 288.053 141.111 287.84C140.597 287.621 140.188 287.247 139.887 286.719C139.585 286.191 139.434 285.46 139.434 284.527V278.404H137.88V277.324L139.547 276.47L140.339 274.031H141.862V276.562H145.124V278.404H141.862V284.496C141.862 285.072 142.006 285.501 142.294 285.782C142.583 286.064 142.963 286.204 143.437 286.204ZM151.92 276.346C152.935 276.346 153.806 276.556 154.533 276.974C155.26 277.393 155.82 277.986 156.211 278.754C156.602 279.523 156.797 280.442 156.797 281.512V282.809H149.193C149.22 283.913 149.515 284.764 150.078 285.36C150.647 285.957 151.443 286.256 152.465 286.256C153.192 286.256 153.844 286.187 154.42 286.05C155.003 285.906 155.603 285.697 156.221 285.422V287.388C155.651 287.655 155.072 287.851 154.482 287.974C153.892 288.098 153.185 288.159 152.362 288.159C151.244 288.159 150.259 287.943 149.409 287.511C148.565 287.072 147.903 286.42 147.423 285.556C146.949 284.692 146.713 283.618 146.713 282.335C146.713 281.059 146.929 279.975 147.361 279.084C147.793 278.192 148.4 277.513 149.182 277.046C149.964 276.58 150.877 276.346 151.92 276.346ZM151.92 278.168C151.158 278.168 150.541 278.415 150.067 278.909C149.601 279.403 149.326 280.126 149.244 281.08H154.43C154.423 280.51 154.327 280.006 154.142 279.567C153.964 279.128 153.689 278.785 153.319 278.538C152.955 278.291 152.489 278.168 151.92 278.168ZM168.937 286.204C169.252 286.204 169.565 286.177 169.873 286.122C170.182 286.06 170.463 285.988 170.717 285.906V287.738C170.449 287.854 170.103 287.954 169.678 288.036C169.252 288.118 168.81 288.159 168.35 288.159C167.705 288.159 167.126 288.053 166.611 287.84C166.097 287.621 165.689 287.247 165.387 286.719C165.085 286.191 164.934 285.46 164.934 284.527V278.404H163.38V277.324L165.047 276.47L165.839 274.031H167.362V276.562H170.624V278.404H167.362V284.496C167.362 285.072 167.506 285.501 167.795 285.782C168.083 286.064 168.463 286.204 168.937 286.204ZM175.3 276.562V287.954H172.882V276.562H175.3ZM174.106 272.199C174.477 272.199 174.796 272.299 175.063 272.498C175.338 272.697 175.475 273.04 175.475 273.527C175.475 274.007 175.338 274.35 175.063 274.556C174.796 274.755 174.477 274.854 174.106 274.854C173.722 274.854 173.396 274.755 173.129 274.556C172.868 274.35 172.738 274.007 172.738 273.527C172.738 273.04 172.868 272.697 173.129 272.498C173.396 272.299 173.722 272.199 174.106 272.199ZM182.857 286.204C183.172 286.204 183.484 286.177 183.793 286.122C184.102 286.06 184.383 285.988 184.637 285.906V287.738C184.369 287.854 184.023 287.954 183.598 288.036C183.172 288.118 182.73 288.159 182.27 288.159C181.625 288.159 181.046 288.053 180.531 287.84C180.017 287.621 179.608 287.247 179.307 286.719C179.005 286.191 178.854 285.46 178.854 284.527V278.404H177.3V277.324L178.967 276.47L179.759 274.031H181.282V276.562H184.544V278.404H181.282V284.496C181.282 285.072 181.426 285.501 181.715 285.782C182.003 286.064 182.383 286.204 182.857 286.204ZM189.23 287.954H186.802V271.942H189.23V287.954ZM197.075 276.346C198.09 276.346 198.962 276.556 199.689 276.974C200.416 277.393 200.975 277.986 201.366 278.754C201.757 279.523 201.953 280.442 201.953 281.512V282.809H194.348C194.376 283.913 194.671 284.764 195.233 285.36C195.802 285.957 196.598 286.256 197.62 286.256C198.348 286.256 198.999 286.187 199.576 286.05C200.159 285.906 200.759 285.697 201.376 285.422V287.388C200.807 287.655 200.227 287.851 199.637 287.974C199.047 288.098 198.341 288.159 197.518 288.159C196.399 288.159 195.415 287.943 194.564 287.511C193.72 287.072 193.058 286.42 192.578 285.556C192.105 284.692 191.868 283.618 191.868 282.335C191.868 281.059 192.084 279.975 192.517 279.084C192.949 278.192 193.556 277.513 194.338 277.046C195.12 276.58 196.032 276.346 197.075 276.346ZM197.075 278.168C196.314 278.168 195.696 278.415 195.223 278.909C194.756 279.403 194.482 280.126 194.4 281.08H199.586C199.579 280.51 199.483 280.006 199.298 279.567C199.119 279.128 198.845 278.785 198.475 278.538C198.111 278.291 197.644 278.168 197.075 278.168Z" fill="#1F3D99"/>
<path d="M16.1282 310.049V301.453H17.1278V309.156H20.944V310.049H16.1282ZM27.8175 306.815C27.8175 307.344 27.7489 307.817 27.6117 308.232C27.4745 308.648 27.2765 308.999 27.0178 309.285C26.7591 309.571 26.4455 309.791 26.077 309.943C25.7124 310.092 25.2989 310.167 24.8363 310.167C24.4051 310.167 24.0092 310.092 23.6485 309.943C23.2918 309.791 22.9821 309.571 22.7195 309.285C22.4608 308.999 22.2589 308.648 22.1138 308.232C21.9727 307.817 21.9021 307.344 21.9021 306.815C21.9021 306.11 22.0217 305.51 22.2608 305.016C22.5 304.518 22.841 304.14 23.284 303.881C23.7308 303.618 24.262 303.487 24.8775 303.487C25.4655 303.487 25.979 303.618 26.418 303.881C26.861 304.144 27.204 304.524 27.4471 305.022C27.694 305.516 27.8175 306.114 27.8175 306.815ZM22.9135 306.815C22.9135 307.333 22.9821 307.782 23.1193 308.162C23.2565 308.542 23.4682 308.836 23.7544 309.044C24.0405 309.252 24.409 309.355 24.8598 309.355C25.3067 309.355 25.6732 309.252 25.9594 309.044C26.2495 308.836 26.4631 308.542 26.6003 308.162C26.7375 307.782 26.8061 307.333 26.8061 306.815C26.8061 306.302 26.7375 305.859 26.6003 305.486C26.4631 305.11 26.2514 304.82 25.9653 304.616C25.6791 304.412 25.3087 304.31 24.8539 304.31C24.1836 304.31 23.6916 304.532 23.378 304.975C23.0684 305.418 22.9135 306.031 22.9135 306.815ZM32.4213 303.487C32.5507 303.487 32.6859 303.495 32.8271 303.511C32.9682 303.522 33.0936 303.54 33.2034 303.564L33.0799 304.469C32.9741 304.442 32.8565 304.42 32.7271 304.404C32.5977 304.389 32.4762 304.381 32.3625 304.381C32.1038 304.381 31.8588 304.434 31.6275 304.54C31.4002 304.642 31.2002 304.791 31.0277 304.987C30.8553 305.179 30.72 305.412 30.622 305.686C30.524 305.957 30.475 306.259 30.475 306.592V310.049H29.493V303.605H30.3045L30.4103 304.793H30.4515C30.5848 304.553 30.7455 304.336 30.9337 304.14C31.1218 303.94 31.3394 303.781 31.5864 303.664C31.8372 303.546 32.1156 303.487 32.4213 303.487ZM36.8899 303.487C37.4387 303.487 37.9091 303.609 38.3011 303.852C38.6931 304.095 38.993 304.436 39.2008 304.875C39.4085 305.31 39.5124 305.82 39.5124 306.404V307.009H35.0612C35.073 307.766 35.2611 308.342 35.6257 308.738C35.9902 309.134 36.5038 309.332 37.1663 309.332C37.574 309.332 37.9346 309.295 38.2482 309.22C38.5618 309.146 38.8872 309.036 39.2243 308.891V309.749C38.8989 309.894 38.5755 310 38.2541 310.067C37.9366 310.134 37.5602 310.167 37.1251 310.167C36.5057 310.167 35.9648 310.041 35.5022 309.791C35.0436 309.536 34.6868 309.163 34.432 308.673C34.1772 308.183 34.0498 307.584 34.0498 306.874C34.0498 306.18 34.1655 305.58 34.3967 305.075C34.632 304.565 34.9612 304.173 35.3846 303.899C35.8119 303.624 36.3137 303.487 36.8899 303.487ZM36.8781 304.287C36.3568 304.287 35.9412 304.457 35.6316 304.798C35.3219 305.139 35.1376 305.616 35.0788 306.227H38.4893C38.4854 305.843 38.4246 305.506 38.307 305.216C38.1933 304.922 38.0189 304.695 37.7837 304.534C37.5485 304.369 37.2466 304.287 36.8781 304.287ZM48.1559 303.487C48.8654 303.487 49.4005 303.673 49.7611 304.046C50.1218 304.414 50.3021 305.008 50.3021 305.827V310.049H49.3377V305.874C49.3377 305.353 49.2241 304.963 48.9967 304.704C48.7733 304.442 48.4401 304.31 47.9971 304.31C47.3738 304.31 46.921 304.491 46.6388 304.851C46.3565 305.212 46.2154 305.743 46.2154 306.445V310.049H45.2452V305.874C45.2452 305.526 45.1943 305.235 45.0923 305.004C44.9943 304.773 44.8454 304.6 44.6454 304.487C44.4494 304.369 44.2005 304.31 43.8987 304.31C43.4714 304.31 43.1284 304.399 42.8697 304.575C42.6109 304.751 42.4228 305.014 42.3052 305.363C42.1915 305.708 42.1347 306.133 42.1347 306.639V310.049H41.1586V303.605H41.9465L42.0935 304.516H42.1464C42.2758 304.293 42.4385 304.105 42.6345 303.952C42.8305 303.799 43.05 303.683 43.293 303.605C43.5361 303.526 43.7948 303.487 44.0692 303.487C44.5592 303.487 44.9688 303.579 45.2981 303.764C45.6313 303.944 45.8724 304.22 46.0214 304.593H46.0743C46.286 304.22 46.5761 303.944 46.9446 303.764C47.313 303.579 47.7168 303.487 48.1559 303.487ZM55.5583 310.049V301.453H56.5579V310.049H55.5583ZM61.7909 303.487C62.5945 303.487 63.2354 303.764 63.7137 304.316C64.1919 304.869 64.4311 305.7 64.4311 306.809C64.4311 307.542 64.3213 308.158 64.1018 308.656C63.8823 309.154 63.5726 309.53 63.1727 309.785C62.7768 310.04 62.3084 310.167 61.7674 310.167C61.4263 310.167 61.1265 310.122 60.8677 310.032C60.609 309.942 60.3875 309.82 60.2033 309.667C60.019 309.514 59.8662 309.348 59.7446 309.167H59.6741C59.6858 309.32 59.6996 309.504 59.7152 309.72C59.7348 309.936 59.7446 310.124 59.7446 310.285V312.931H58.7627V303.605H59.5682L59.6976 304.557H59.7446C59.8701 304.361 60.023 304.183 60.2033 304.022C60.3836 303.858 60.6031 303.728 60.8619 303.634C61.1245 303.536 61.4342 303.487 61.7909 303.487ZM61.6204 304.31C61.1735 304.31 60.8129 304.397 60.5385 304.569C60.268 304.742 60.07 305 59.9446 305.345C59.8191 305.686 59.7525 306.116 59.7446 306.633V306.821C59.7446 307.366 59.8034 307.827 59.921 308.203C60.0426 308.579 60.2405 308.865 60.5149 309.061C60.7933 309.257 61.1657 309.355 61.6321 309.355C62.032 309.355 62.3652 309.248 62.6318 309.032C62.8983 308.816 63.0963 308.517 63.2256 308.132C63.3589 307.744 63.4256 307.299 63.4256 306.798C63.4256 306.037 63.2766 305.433 62.9787 304.987C62.6847 304.536 62.2319 304.31 61.6204 304.31ZM70.2932 308.285C70.2932 308.697 70.1893 309.044 69.9816 309.326C69.7777 309.604 69.4837 309.814 69.0996 309.955C68.7193 310.096 68.2646 310.167 67.7354 310.167C67.2846 310.167 66.8945 310.132 66.5653 310.061C66.236 309.991 65.9478 309.891 65.7009 309.761V308.862C65.9635 308.991 66.2771 309.109 66.6417 309.214C67.0063 309.32 67.3787 309.373 67.7589 309.373C68.3156 309.373 68.7193 309.283 68.9702 309.103C69.2211 308.922 69.3465 308.677 69.3465 308.368C69.3465 308.191 69.2956 308.036 69.1936 307.903C69.0956 307.766 68.929 307.635 68.6938 307.509C68.4586 307.38 68.1333 307.239 67.7177 307.086C67.3061 306.929 66.9494 306.774 66.6476 306.621C66.3497 306.464 66.1184 306.274 65.9537 306.051C65.793 305.827 65.7126 305.537 65.7126 305.181C65.7126 304.636 65.9322 304.218 66.3712 303.928C66.8142 303.634 67.3943 303.487 68.1117 303.487C68.4998 303.487 68.8624 303.526 69.1995 303.605C69.5406 303.679 69.8581 303.781 70.1521 303.911L69.8228 304.693C69.5563 304.579 69.2721 304.483 68.9702 304.404C68.6684 304.326 68.3606 304.287 68.047 304.287C67.5962 304.287 67.2493 304.361 67.0063 304.51C66.7671 304.659 66.6476 304.863 66.6476 305.122C66.6476 305.322 66.7025 305.486 66.8122 305.616C66.9259 305.745 67.1062 305.867 67.3532 305.98C67.6001 306.094 67.9255 306.227 68.3293 306.38C68.733 306.529 69.0819 306.684 69.3759 306.845C69.6699 307.001 69.8953 307.194 70.0521 307.421C70.2129 307.644 70.2932 307.932 70.2932 308.285ZM77.1726 303.605V310.049H76.3729L76.2318 309.144H76.1789C76.0456 309.367 75.8731 309.555 75.6615 309.708C75.4498 309.861 75.2106 309.975 74.9441 310.049C74.6814 310.128 74.4012 310.167 74.1032 310.167C73.5936 310.167 73.1663 310.085 72.8214 309.92C72.4764 309.755 72.2157 309.501 72.0393 309.156C71.8668 308.811 71.7806 308.368 71.7806 307.827V303.605H72.7685V307.756C72.7685 308.293 72.89 308.695 73.133 308.962C73.3761 309.224 73.7465 309.355 74.2444 309.355C74.7226 309.355 75.1028 309.265 75.3851 309.085C75.6713 308.905 75.8771 308.64 76.0025 308.291C76.1279 307.938 76.1907 307.507 76.1907 306.998V303.605H77.1726ZM86.2218 303.487C86.9313 303.487 87.4664 303.673 87.8271 304.046C88.1877 304.414 88.368 305.008 88.368 305.827V310.049H87.4037V305.874C87.4037 305.353 87.29 304.963 87.0626 304.704C86.8392 304.442 86.506 304.31 86.063 304.31C85.4397 304.31 84.987 304.491 84.7047 304.851C84.4225 305.212 84.2814 305.743 84.2814 306.445V310.049H83.3112V305.874C83.3112 305.526 83.2602 305.235 83.1583 305.004C83.0603 304.773 82.9113 304.6 82.7114 304.487C82.5154 304.369 82.2665 304.31 81.9646 304.31C81.5373 304.31 81.1943 304.399 80.9356 304.575C80.6769 304.751 80.4887 305.014 80.3711 305.363C80.2574 305.708 80.2006 306.133 80.2006 306.639V310.049H79.2245V303.605H80.0124L80.1594 304.516H80.2124C80.3417 304.293 80.5044 304.105 80.7004 303.952C80.8964 303.799 81.1159 303.683 81.359 303.605C81.602 303.526 81.8607 303.487 82.1351 303.487C82.6251 303.487 83.0348 303.579 83.3641 303.764C83.6973 303.944 83.9384 304.22 84.0873 304.593H84.1402C84.3519 304.22 84.642 303.944 85.0105 303.764C85.379 303.579 85.7828 303.487 86.2218 303.487ZM94.4533 303.605V310.049H93.4772V303.605H94.4533ZM93.9771 301.194C94.1378 301.194 94.275 301.247 94.3887 301.353C94.5063 301.455 94.5651 301.615 94.5651 301.835C94.5651 302.05 94.5063 302.211 94.3887 302.317C94.275 302.423 94.1378 302.476 93.9771 302.476C93.8085 302.476 93.6674 302.423 93.5537 302.317C93.4439 302.211 93.389 302.05 93.389 301.835C93.389 301.615 93.4439 301.455 93.5537 301.353C93.6674 301.247 93.8085 301.194 93.9771 301.194ZM100.68 308.285C100.68 308.697 100.576 309.044 100.368 309.326C100.165 309.604 99.8706 309.814 99.4864 309.955C99.1062 310.096 98.6514 310.167 98.1222 310.167C97.6714 310.167 97.2814 310.132 96.9521 310.061C96.6228 309.991 96.3347 309.891 96.0877 309.761V308.862C96.3504 308.991 96.664 309.109 97.0285 309.214C97.3931 309.32 97.7655 309.373 98.1457 309.373C98.7024 309.373 99.1062 309.283 99.357 309.103C99.6079 308.922 99.7334 308.677 99.7334 308.368C99.7334 308.191 99.6824 308.036 99.5805 307.903C99.4825 307.766 99.3159 307.635 99.0807 307.509C98.8455 307.38 98.5201 307.239 98.1046 307.086C97.693 306.929 97.3363 306.774 97.0344 306.621C96.7365 306.464 96.5052 306.274 96.3406 306.051C96.1798 305.827 96.0995 305.537 96.0995 305.181C96.0995 304.636 96.319 304.218 96.758 303.928C97.201 303.634 97.7812 303.487 98.4986 303.487C98.8866 303.487 99.2492 303.526 99.5864 303.605C99.9274 303.679 100.245 303.781 100.539 303.911L100.21 304.693C99.9431 304.579 99.6589 304.483 99.357 304.404C99.0552 304.326 98.7475 304.287 98.4339 304.287C97.9831 304.287 97.6361 304.361 97.3931 304.51C97.154 304.659 97.0344 304.863 97.0344 305.122C97.0344 305.322 97.0893 305.486 97.1991 305.616C97.3127 305.745 97.4931 305.867 97.74 305.98C97.987 306.094 98.3123 306.227 98.7161 306.38C99.1199 306.529 99.4688 306.684 99.7628 306.845C100.057 307.001 100.282 307.194 100.439 307.421C100.6 307.644 100.68 307.932 100.68 308.285ZM109.523 308.285C109.523 308.697 109.419 309.044 109.211 309.326C109.008 309.604 108.714 309.814 108.329 309.955C107.949 310.096 107.495 310.167 106.965 310.167C106.514 310.167 106.124 310.132 105.795 310.061C105.466 309.991 105.178 309.891 104.931 309.761V308.862C105.193 308.991 105.507 309.109 105.872 309.214C106.236 309.32 106.609 309.373 106.989 309.373C107.545 309.373 107.949 309.283 108.2 309.103C108.451 308.922 108.576 308.677 108.576 308.368C108.576 308.191 108.525 308.036 108.424 307.903C108.326 307.766 108.159 307.635 107.924 307.509C107.689 307.38 107.363 307.239 106.948 307.086C106.536 306.929 106.179 306.774 105.877 306.621C105.58 306.464 105.348 306.274 105.184 306.051C105.023 305.827 104.943 305.537 104.943 305.181C104.943 304.636 105.162 304.218 105.601 303.928C106.044 303.634 106.624 303.487 107.342 303.487C107.73 303.487 108.092 303.526 108.429 303.605C108.77 303.679 109.088 303.781 109.382 303.911L109.053 304.693C108.786 304.579 108.502 304.483 108.2 304.404C107.898 304.326 107.591 304.287 107.277 304.287C106.826 304.287 106.479 304.361 106.236 304.51C105.997 304.659 105.877 304.863 105.877 305.122C105.877 305.322 105.932 305.486 106.042 305.616C106.156 305.745 106.336 305.867 106.583 305.98C106.83 306.094 107.155 306.227 107.559 306.38C107.963 306.529 108.312 306.684 108.606 306.845C108.9 307.001 109.125 307.194 109.282 307.421C109.443 307.644 109.523 307.932 109.523 308.285ZM112.057 303.605V310.049H111.081V303.605H112.057ZM111.581 301.194C111.742 301.194 111.879 301.247 111.992 301.353C112.11 301.455 112.169 301.615 112.169 301.835C112.169 302.05 112.11 302.211 111.992 302.317C111.879 302.423 111.742 302.476 111.581 302.476C111.412 302.476 111.271 302.423 111.158 302.317C111.048 302.211 110.993 302.05 110.993 301.835C110.993 301.615 111.048 301.455 111.158 301.353C111.271 301.247 111.412 301.194 111.581 301.194ZM121.112 303.487C121.822 303.487 122.357 303.673 122.717 304.046C123.078 304.414 123.258 305.008 123.258 305.827V310.049H122.294V305.874C122.294 305.353 122.18 304.963 121.953 304.704C121.73 304.442 121.396 304.31 120.953 304.31C120.33 304.31 119.877 304.491 119.595 304.851C119.313 305.212 119.172 305.743 119.172 306.445V310.049H118.202V305.874C118.202 305.526 118.151 305.235 118.049 305.004C117.951 304.773 117.802 304.6 117.602 304.487C117.406 304.369 117.157 304.31 116.855 304.31C116.428 304.31 116.085 304.399 115.826 304.575C115.567 304.751 115.379 305.014 115.262 305.363C115.148 305.708 115.091 306.133 115.091 306.639V310.049H114.115V303.605H114.903L115.05 304.516H115.103C115.232 304.293 115.395 304.105 115.591 303.952C115.787 303.799 116.006 303.683 116.249 303.605C116.492 303.526 116.751 303.487 117.026 303.487C117.516 303.487 117.925 303.579 118.254 303.764C118.588 303.944 118.829 304.22 118.978 304.593H119.031C119.242 304.22 119.532 303.944 119.901 303.764C120.269 303.579 120.673 303.487 121.112 303.487ZM128.28 303.487C129.083 303.487 129.724 303.764 130.203 304.316C130.681 304.869 130.92 305.7 130.92 306.809C130.92 307.542 130.81 308.158 130.591 308.656C130.371 309.154 130.061 309.53 129.662 309.785C129.266 310.04 128.797 310.167 128.256 310.167C127.915 310.167 127.615 310.122 127.357 310.032C127.098 309.942 126.876 309.82 126.692 309.667C126.508 309.514 126.355 309.348 126.233 309.167H126.163C126.175 309.32 126.188 309.504 126.204 309.72C126.224 309.936 126.233 310.124 126.233 310.285V312.931H125.252V303.605H126.057L126.186 304.557H126.233C126.359 304.361 126.512 304.183 126.692 304.022C126.872 303.858 127.092 303.728 127.351 303.634C127.613 303.536 127.923 303.487 128.28 303.487ZM128.109 304.31C127.662 304.31 127.302 304.397 127.027 304.569C126.757 304.742 126.559 305 126.433 305.345C126.308 305.686 126.241 306.116 126.233 306.633V306.821C126.233 307.366 126.292 307.827 126.41 308.203C126.531 308.579 126.729 308.865 127.004 309.061C127.282 309.257 127.655 309.355 128.121 309.355C128.521 309.355 128.854 309.248 129.121 309.032C129.387 308.816 129.585 308.517 129.714 308.132C129.848 307.744 129.914 307.299 129.914 306.798C129.914 306.037 129.765 305.433 129.468 304.987C129.174 304.536 128.721 304.31 128.109 304.31ZM133.595 310.049H132.613V300.9H133.595V310.049ZM134.63 303.605H135.676L137.099 307.344C137.182 307.564 137.258 307.776 137.329 307.98C137.399 308.179 137.462 308.372 137.517 308.556C137.572 308.74 137.615 308.918 137.646 309.091H137.687C137.742 308.895 137.821 308.638 137.923 308.321C138.024 307.999 138.134 307.672 138.252 307.339L139.598 303.605H140.651L137.846 310.996C137.697 311.392 137.523 311.737 137.323 312.031C137.127 312.325 136.888 312.55 136.605 312.707C136.323 312.868 135.982 312.948 135.582 312.948C135.398 312.948 135.235 312.936 135.094 312.913C134.953 312.893 134.832 312.87 134.73 312.842V312.06C134.816 312.08 134.92 312.098 135.041 312.113C135.167 312.129 135.296 312.137 135.429 312.137C135.672 312.137 135.882 312.09 136.059 311.996C136.239 311.905 136.394 311.772 136.523 311.596C136.652 311.419 136.764 311.21 136.858 310.967L137.211 310.061L134.63 303.605ZM147.077 310.167C146.262 310.167 145.615 309.889 145.137 309.332C144.662 308.775 144.425 307.948 144.425 306.851C144.425 305.741 144.668 304.904 145.154 304.34C145.641 303.771 146.287 303.487 147.095 303.487C147.436 303.487 147.734 303.532 147.989 303.622C148.243 303.713 148.463 303.834 148.647 303.987C148.831 304.136 148.986 304.306 149.112 304.499H149.182C149.167 304.377 149.151 304.21 149.135 303.999C149.12 303.787 149.112 303.615 149.112 303.481V300.9H150.088V310.049H149.3L149.153 309.132H149.112C148.99 309.324 148.835 309.499 148.647 309.655C148.463 309.812 148.241 309.938 147.983 310.032C147.728 310.122 147.426 310.167 147.077 310.167ZM147.23 309.355C147.92 309.355 148.408 309.159 148.694 308.767C148.98 308.375 149.123 307.793 149.123 307.021V306.845C149.123 306.025 148.986 305.396 148.712 304.957C148.441 304.518 147.947 304.299 147.23 304.299C146.63 304.299 146.181 304.53 145.884 304.992C145.586 305.451 145.437 306.078 145.437 306.874C145.437 307.666 145.584 308.277 145.878 308.709C146.176 309.14 146.626 309.355 147.23 309.355ZM157.467 303.605V310.049H156.667L156.526 309.144H156.473C156.34 309.367 156.168 309.555 155.956 309.708C155.744 309.861 155.505 309.975 155.239 310.049C154.976 310.128 154.696 310.167 154.398 310.167C153.888 310.167 153.461 310.085 153.116 309.92C152.771 309.755 152.51 309.501 152.334 309.156C152.161 308.811 152.075 308.368 152.075 307.827V303.605H153.063V307.756C153.063 308.293 153.184 308.695 153.427 308.962C153.67 309.224 154.041 309.355 154.539 309.355C155.017 309.355 155.397 309.265 155.68 309.085C155.966 308.905 156.171 308.64 156.297 308.291C156.422 307.938 156.485 307.507 156.485 306.998V303.605H157.467ZM166.516 303.487C167.226 303.487 167.761 303.673 168.121 304.046C168.482 304.414 168.662 305.008 168.662 305.827V310.049H167.698V305.874C167.698 305.353 167.584 304.963 167.357 304.704C167.134 304.442 166.8 304.31 166.357 304.31C165.734 304.31 165.281 304.491 164.999 304.851C164.717 305.212 164.576 305.743 164.576 306.445V310.049H163.606V305.874C163.606 305.526 163.555 305.235 163.453 305.004C163.355 304.773 163.206 304.6 163.006 304.487C162.81 304.369 162.561 304.31 162.259 304.31C161.832 304.31 161.489 304.399 161.23 304.575C160.971 304.751 160.783 305.014 160.666 305.363C160.552 305.708 160.495 306.133 160.495 306.639V310.049H159.519V303.605H160.307L160.454 304.516H160.507C160.636 304.293 160.799 304.105 160.995 303.952C161.191 303.799 161.41 303.683 161.653 303.605C161.896 303.526 162.155 303.487 162.43 303.487C162.92 303.487 163.329 303.579 163.658 303.764C163.992 303.944 164.233 304.22 164.382 304.593H164.435C164.646 304.22 164.936 303.944 165.305 303.764C165.673 303.579 166.077 303.487 166.516 303.487ZM177.653 303.487C178.362 303.487 178.897 303.673 179.258 304.046C179.619 304.414 179.799 305.008 179.799 305.827V310.049H178.835V305.874C178.835 305.353 178.721 304.963 178.494 304.704C178.27 304.442 177.937 304.31 177.494 304.31C176.871 304.31 176.418 304.491 176.136 304.851C175.853 305.212 175.712 305.743 175.712 306.445V310.049H174.742V305.874C174.742 305.526 174.691 305.235 174.589 305.004C174.491 304.773 174.342 304.6 174.142 304.487C173.946 304.369 173.697 304.31 173.396 304.31C172.968 304.31 172.625 304.399 172.367 304.575C172.108 304.751 171.92 305.014 171.802 305.363C171.688 305.708 171.632 306.133 171.632 306.639V310.049H170.656V303.605H171.443L171.59 304.516H171.643C171.773 304.293 171.935 304.105 172.131 303.952C172.327 303.799 172.547 303.683 172.79 303.605C173.033 303.526 173.292 303.487 173.566 303.487C174.056 303.487 174.466 303.579 174.795 303.764C175.128 303.944 175.369 304.22 175.518 304.593H175.571C175.783 304.22 176.073 303.944 176.442 303.764C176.81 303.579 177.214 303.487 177.653 303.487ZM180.775 303.605H181.822L183.244 307.344C183.327 307.564 183.403 307.776 183.474 307.98C183.544 308.179 183.607 308.372 183.662 308.556C183.717 308.74 183.76 308.918 183.791 309.091H183.832C183.887 308.895 183.966 308.638 184.068 308.321C184.17 307.999 184.279 307.672 184.397 307.339L185.744 303.605H186.796L183.991 310.996C183.842 311.392 183.668 311.737 183.468 312.031C183.272 312.325 183.033 312.55 182.751 312.707C182.468 312.868 182.127 312.948 181.727 312.948C181.543 312.948 181.381 312.936 181.239 312.913C181.098 312.893 180.977 312.87 180.875 312.842V312.06C180.961 312.08 181.065 312.098 181.186 312.113C181.312 312.129 181.441 312.137 181.575 312.137C181.818 312.137 182.027 312.09 182.204 311.996C182.384 311.905 182.539 311.772 182.668 311.596C182.798 311.419 182.909 311.21 183.003 310.967L183.356 310.061L180.775 303.605ZM193.011 309.367C193.171 309.367 193.336 309.354 193.505 309.326C193.673 309.299 193.81 309.265 193.916 309.226V309.985C193.803 310.036 193.644 310.079 193.44 310.114C193.24 310.149 193.044 310.167 192.852 310.167C192.511 310.167 192.201 310.108 191.923 309.991C191.645 309.869 191.421 309.665 191.253 309.379C191.088 309.093 191.006 308.697 191.006 308.191V304.369H190.088V303.893L191.011 303.511L191.4 302.111H191.988V303.605H193.875V304.369H191.988V308.162C191.988 308.566 192.08 308.867 192.264 309.067C192.452 309.267 192.701 309.367 193.011 309.367ZM197.691 303.487C198.24 303.487 198.71 303.609 199.102 303.852C199.494 304.095 199.794 304.436 200.002 304.875C200.21 305.31 200.313 305.82 200.313 306.404V307.009H195.862C195.874 307.766 196.062 308.342 196.427 308.738C196.791 309.134 197.305 309.332 197.967 309.332C198.375 309.332 198.736 309.295 199.049 309.22C199.363 309.146 199.688 309.036 200.025 308.891V309.749C199.7 309.894 199.377 310 199.055 310.067C198.738 310.134 198.361 310.167 197.926 310.167C197.307 310.167 196.766 310.041 196.303 309.791C195.845 309.536 195.488 309.163 195.233 308.673C194.978 308.183 194.851 307.584 194.851 306.874C194.851 306.18 194.967 305.58 195.198 305.075C195.433 304.565 195.762 304.173 196.186 303.899C196.613 303.624 197.115 303.487 197.691 303.487ZM197.679 304.287C197.158 304.287 196.742 304.457 196.433 304.798C196.123 305.139 195.939 305.616 195.88 306.227H199.29C199.286 305.843 199.226 305.506 199.108 305.216C198.994 304.922 198.82 304.695 198.585 304.534C198.35 304.369 198.048 304.287 197.679 304.287ZM203.494 306.751L201.266 303.605H202.383L204.082 306.086L205.776 303.605H206.881L204.653 306.751L207.005 310.049H205.888L204.082 307.421L202.265 310.049H201.16L203.494 306.751ZM210.333 309.367C210.493 309.367 210.658 309.354 210.827 309.326C210.995 309.299 211.132 309.265 211.238 309.226V309.985C211.124 310.036 210.966 310.079 210.762 310.114C210.562 310.149 210.366 310.167 210.174 310.167C209.833 310.167 209.523 310.108 209.245 309.991C208.966 309.869 208.743 309.665 208.574 309.379C208.41 309.093 208.327 308.697 208.327 308.191V304.369H207.41V303.893L208.333 303.511L208.721 302.111H209.309V303.605H211.197V304.369H209.309V308.162C209.309 308.566 209.402 308.867 209.586 309.067C209.774 309.267 210.023 309.367 210.333 309.367ZM221.204 306.815C221.204 307.344 221.136 307.817 220.998 308.232C220.861 308.648 220.663 308.999 220.405 309.285C220.146 309.571 219.832 309.791 219.464 309.943C219.099 310.092 218.686 310.167 218.223 310.167C217.792 310.167 217.396 310.092 217.035 309.943C216.679 309.791 216.369 309.571 216.106 309.285C215.848 308.999 215.646 308.648 215.501 308.232C215.359 307.817 215.289 307.344 215.289 306.815C215.289 306.11 215.408 305.51 215.648 305.016C215.887 304.518 216.228 304.14 216.671 303.881C217.118 303.618 217.649 303.487 218.264 303.487C218.852 303.487 219.366 303.618 219.805 303.881C220.248 304.144 220.591 304.524 220.834 305.022C221.081 305.516 221.204 306.114 221.204 306.815ZM216.3 306.815C216.3 307.333 216.369 307.782 216.506 308.162C216.643 308.542 216.855 308.836 217.141 309.044C217.427 309.252 217.796 309.355 218.247 309.355C218.693 309.355 219.06 309.252 219.346 309.044C219.636 308.836 219.85 308.542 219.987 308.162C220.124 307.782 220.193 307.333 220.193 306.815C220.193 306.302 220.124 305.859 219.987 305.486C219.85 305.11 219.638 304.82 219.352 304.616C219.066 304.412 218.695 304.31 218.241 304.31C217.57 304.31 217.078 304.532 216.765 304.975C216.455 305.418 216.3 306.031 216.3 306.815ZM225.749 304.369H224.144V310.049H223.168V304.369H222.027V303.899L223.168 303.575V303.146C223.168 302.605 223.248 302.166 223.409 301.829C223.57 301.488 223.803 301.237 224.109 301.076C224.415 300.916 224.787 300.835 225.226 300.835C225.473 300.835 225.698 300.857 225.902 300.9C226.11 300.943 226.292 300.992 226.449 301.047L226.196 301.817C226.063 301.774 225.912 301.735 225.743 301.7C225.579 301.66 225.41 301.641 225.238 301.641C224.865 301.641 224.589 301.762 224.409 302.005C224.232 302.244 224.144 302.621 224.144 303.134V303.605H225.749V304.369ZM19.6271 324.367C19.7878 324.367 19.9525 324.354 20.121 324.326C20.2896 324.299 20.4268 324.265 20.5327 324.226V324.985C20.419 325.036 20.2602 325.079 20.0564 325.114C19.8564 325.149 19.6604 325.167 19.4684 325.167C19.1273 325.167 18.8176 325.108 18.5393 324.991C18.261 324.869 18.0375 324.665 17.869 324.379C17.7043 324.093 17.622 323.697 17.622 323.191V319.369H16.7047V318.893L17.6279 318.511L18.016 317.111H18.604V318.605H20.4915V319.369H18.604V323.162C18.604 323.566 18.6961 323.867 18.8803 324.067C19.0685 324.267 19.3174 324.367 19.6271 324.367ZM22.8021 315.9V318.634C22.8021 318.791 22.7982 318.95 22.7903 319.11C22.7825 319.267 22.7688 319.412 22.7492 319.546H22.8138C22.9471 319.318 23.1157 319.128 23.3195 318.975C23.5273 318.818 23.7625 318.701 24.0251 318.622C24.2878 318.54 24.5661 318.499 24.8601 318.499C25.3776 318.499 25.8088 318.581 26.1537 318.746C26.5026 318.911 26.7633 319.165 26.9358 319.51C27.1122 319.855 27.2004 320.302 27.2004 320.851V325.049H26.236V320.916C26.236 320.379 26.1126 319.977 25.8656 319.71C25.6226 319.444 25.2482 319.31 24.7425 319.31C24.2643 319.31 23.8821 319.402 23.5959 319.587C23.3136 319.767 23.1098 320.034 22.9844 320.386C22.8628 320.739 22.8021 321.17 22.8021 321.68V325.049H21.826V315.9H22.8021ZM31.6807 318.487C32.2295 318.487 32.6999 318.609 33.0919 318.852C33.4839 319.095 33.7838 319.436 33.9916 319.875C34.1994 320.31 34.3032 320.82 34.3032 321.404V322.009H29.852C29.8638 322.766 30.0519 323.342 30.4165 323.738C30.7811 324.134 31.2946 324.332 31.9571 324.332C32.3648 324.332 32.7254 324.295 33.039 324.22C33.3526 324.146 33.678 324.036 34.0151 323.891V324.749C33.6897 324.894 33.3663 325 33.0449 325.067C32.7274 325.134 32.351 325.167 31.9159 325.167C31.2966 325.167 30.7556 325.041 30.293 324.791C29.8344 324.536 29.4776 324.163 29.2228 323.673C28.968 323.183 28.8406 322.584 28.8406 321.874C28.8406 321.18 28.9563 320.58 29.1876 320.075C29.4228 319.565 29.7521 319.173 30.1754 318.899C30.6027 318.624 31.1045 318.487 31.6807 318.487ZM31.669 319.287C31.1476 319.287 30.7321 319.457 30.4224 319.798C30.1127 320.139 29.9285 320.616 29.8697 321.227H33.2801C33.2762 320.843 33.2154 320.506 33.0978 320.216C32.9841 319.922 32.8097 319.695 32.5745 319.534C32.3393 319.369 32.0374 319.287 31.669 319.287ZM42.0938 318.487C42.8974 318.487 43.5383 318.764 44.0166 319.316C44.4948 319.869 44.7339 320.7 44.7339 321.809C44.7339 322.542 44.6242 323.158 44.4046 323.656C44.1851 324.154 43.8754 324.53 43.4756 324.785C43.0797 325.04 42.6112 325.167 42.0703 325.167C41.7292 325.167 41.4293 325.122 41.1706 325.032C40.9119 324.942 40.6904 324.82 40.5062 324.667C40.3219 324.514 40.169 324.348 40.0475 324.167H39.9769C39.9887 324.32 40.0024 324.504 40.0181 324.72C40.0377 324.936 40.0475 325.124 40.0475 325.285V327.931H39.0655V318.605H39.8711L40.0005 319.557H40.0475C40.1729 319.361 40.3258 319.183 40.5062 319.022C40.6865 318.858 40.906 318.728 41.1647 318.634C41.4274 318.536 41.737 318.487 42.0938 318.487ZM41.9233 319.31C41.4764 319.31 41.1157 319.397 40.8413 319.569C40.5708 319.742 40.3729 320 40.2474 320.345C40.122 320.686 40.0553 321.116 40.0475 321.633V321.821C40.0475 322.366 40.1063 322.827 40.2239 323.203C40.3454 323.579 40.5434 323.865 40.8178 324.061C41.0961 324.257 41.4685 324.355 41.935 324.355C42.3349 324.355 42.6681 324.248 42.9346 324.032C43.2012 323.816 43.3992 323.517 43.5285 323.132C43.6618 322.744 43.7284 322.299 43.7284 321.798C43.7284 321.037 43.5795 320.433 43.2815 319.987C42.9875 319.536 42.5348 319.31 41.9233 319.31ZM49.3554 318.487C49.4847 318.487 49.62 318.495 49.7611 318.511C49.9022 318.522 50.0277 318.54 50.1374 318.564L50.014 319.469C49.9081 319.442 49.7905 319.42 49.6612 319.404C49.5318 319.389 49.4103 319.381 49.2966 319.381C49.0379 319.381 48.7929 319.434 48.5616 319.54C48.3342 319.642 48.1343 319.791 47.9618 319.987C47.7893 320.179 47.6541 320.412 47.5561 320.686C47.4581 320.957 47.4091 321.259 47.4091 321.592V325.049H46.4271V318.605H47.2386L47.3444 319.793H47.3856C47.5188 319.553 47.6796 319.336 47.8677 319.14C48.0559 318.94 48.2735 318.781 48.5204 318.664C48.7713 318.546 49.0496 318.487 49.3554 318.487ZM52.3187 318.605V325.049H51.3426V318.605H52.3187ZM51.8424 316.194C52.0031 316.194 52.1403 316.247 52.254 316.353C52.3716 316.455 52.4304 316.615 52.4304 316.835C52.4304 317.05 52.3716 317.211 52.254 317.317C52.1403 317.423 52.0031 317.476 51.8424 317.476C51.6738 317.476 51.5327 317.423 51.419 317.317C51.3093 317.211 51.2544 317.05 51.2544 316.835C51.2544 316.615 51.3093 316.455 51.419 316.353C51.5327 316.247 51.6738 316.194 51.8424 316.194ZM57.4282 318.487C58.1926 318.487 58.7708 318.675 59.1628 319.052C59.5548 319.424 59.7508 320.024 59.7508 320.851V325.049H58.7865V320.916C58.7865 320.379 58.663 319.977 58.416 319.71C58.173 319.444 57.7986 319.31 57.2929 319.31C56.5795 319.31 56.0777 319.512 55.7876 319.916C55.4975 320.32 55.3525 320.906 55.3525 321.674V325.049H54.3764V318.605H55.1643L55.3113 319.534H55.3643C55.5015 319.306 55.6759 319.116 55.8876 318.963C56.0993 318.807 56.3364 318.689 56.5991 318.611C56.8617 318.528 57.1381 318.487 57.4282 318.487ZM63.8313 324.367C63.992 324.367 64.1567 324.354 64.3252 324.326C64.4938 324.299 64.631 324.265 64.7368 324.226V324.985C64.6232 325.036 64.4644 325.079 64.2605 325.114C64.0606 325.149 63.8646 325.167 63.6725 325.167C63.3315 325.167 63.0218 325.108 62.7435 324.991C62.4652 324.869 62.2417 324.665 62.0732 324.379C61.9085 324.093 61.8262 323.697 61.8262 323.191V319.369H60.9089V318.893L61.8321 318.511L62.2202 317.111H62.8082V318.605H64.6957V319.369H62.8082V323.162C62.8082 323.566 62.9003 323.867 63.0845 324.067C63.2727 324.267 63.5216 324.367 63.8313 324.367ZM67.0063 318.605V325.049H66.0302V318.605H67.0063ZM66.53 316.194C66.6907 316.194 66.8279 316.247 66.9416 316.353C67.0592 316.455 67.118 316.615 67.118 316.835C67.118 317.05 67.0592 317.211 66.9416 317.317C66.8279 317.423 66.6907 317.476 66.53 317.476C66.3614 317.476 66.2203 317.423 66.1066 317.317C65.9968 317.211 65.942 317.05 65.942 316.835C65.942 316.615 65.9968 316.455 66.1066 316.353C66.2203 316.247 66.3614 316.194 66.53 316.194ZM72.1158 318.487C72.8802 318.487 73.4584 318.675 73.8504 319.052C74.2424 319.424 74.4384 320.024 74.4384 320.851V325.049H73.4741V320.916C73.4741 320.379 73.3506 319.977 73.1036 319.71C72.8606 319.444 72.4862 319.31 71.9805 319.31C71.2671 319.31 70.7653 319.512 70.4752 319.916C70.1851 320.32 70.0401 320.906 70.0401 321.674V325.049H69.064V318.605H69.8519L69.9989 319.534H70.0519C70.1891 319.306 70.3635 319.116 70.5752 318.963C70.7869 318.807 71.024 318.689 71.2867 318.611C71.5493 318.528 71.8257 318.487 72.1158 318.487ZM78.2366 327.942C77.3899 327.942 76.7372 327.784 76.2786 327.466C75.8199 327.152 75.5906 326.711 75.5906 326.143C75.5906 325.739 75.718 325.394 75.9728 325.108C76.2315 324.822 76.5883 324.632 77.043 324.538C76.8744 324.459 76.7294 324.342 76.6079 324.185C76.4903 324.028 76.4315 323.848 76.4315 323.644C76.4315 323.409 76.4961 323.203 76.6255 323.027C76.7588 322.846 76.9607 322.674 77.2312 322.509C76.894 322.372 76.6196 322.141 76.4079 321.815C76.2002 321.486 76.0963 321.104 76.0963 320.669C76.0963 320.206 76.1923 319.812 76.3844 319.487C76.5765 319.157 76.8548 318.907 77.2194 318.734C77.584 318.562 78.025 318.475 78.5424 318.475C78.6561 318.475 78.7698 318.481 78.8835 318.493C79.0011 318.501 79.1128 318.515 79.2186 318.534C79.3245 318.55 79.4166 318.569 79.495 318.593H81.7059V319.222L80.5181 319.369C80.6357 319.522 80.7337 319.706 80.8121 319.922C80.8905 320.137 80.9297 320.377 80.9297 320.639C80.9297 321.282 80.7122 321.794 80.277 322.174C79.8419 322.55 79.2441 322.738 78.4836 322.738C78.3033 322.738 78.119 322.723 77.9309 322.691C77.7388 322.797 77.5918 322.915 77.4899 323.044C77.3919 323.174 77.3429 323.323 77.3429 323.491C77.3429 323.617 77.3801 323.716 77.4546 323.791C77.533 323.865 77.6447 323.92 77.7898 323.956C77.9348 323.987 78.1092 324.003 78.3131 324.003H79.4479C80.1496 324.003 80.6867 324.15 81.0591 324.444C81.4354 324.738 81.6236 325.167 81.6236 325.731C81.6236 326.445 81.3335 326.992 80.7533 327.372C80.1732 327.752 79.3343 327.942 78.2366 327.942ZM78.266 327.178C78.7992 327.178 79.2402 327.123 79.5891 327.013C79.9419 326.907 80.2045 326.753 80.377 326.549C80.5534 326.349 80.6416 326.11 80.6416 325.831C80.6416 325.573 80.5828 325.377 80.4652 325.243C80.3476 325.114 80.1751 325.028 79.9478 324.985C79.7204 324.938 79.4421 324.914 79.1128 324.914H77.9956C77.7055 324.914 77.4526 324.959 77.237 325.049C77.0214 325.139 76.8548 325.273 76.7372 325.449C76.6235 325.626 76.5667 325.845 76.5667 326.108C76.5667 326.457 76.7137 326.721 77.0077 326.902C77.3017 327.086 77.7212 327.178 78.266 327.178ZM78.5189 322.027C78.9854 322.027 79.3362 321.909 79.5714 321.674C79.8066 321.439 79.9242 321.096 79.9242 320.645C79.9242 320.163 79.8047 319.802 79.5655 319.563C79.3264 319.32 78.9736 319.199 78.5071 319.199C78.0602 319.199 77.7153 319.324 77.4722 319.575C77.2331 319.822 77.1136 320.185 77.1136 320.663C77.1136 321.102 77.2351 321.439 77.4781 321.674C77.7212 321.909 78.0681 322.027 78.5189 322.027ZM88.4909 318.499C89.2593 318.499 89.8296 318.671 90.202 319.016C90.5744 319.361 90.7607 319.912 90.7607 320.669V325.049H90.0492L89.861 324.097H89.814C89.6336 324.332 89.4455 324.53 89.2495 324.691C89.0535 324.847 88.8261 324.967 88.5674 325.049C88.3126 325.128 87.999 325.167 87.6266 325.167C87.2346 325.167 86.8857 325.098 86.5799 324.961C86.2781 324.824 86.0389 324.616 85.8625 324.338C85.6901 324.06 85.6038 323.707 85.6038 323.279C85.6038 322.637 85.8586 322.143 86.3682 321.798C86.8778 321.453 87.654 321.265 88.6967 321.233L89.8081 321.186V320.792C89.8081 320.235 89.6885 319.845 89.4494 319.622C89.2103 319.399 88.8731 319.287 88.438 319.287C88.1009 319.287 87.7795 319.336 87.4737 319.434C87.1679 319.532 86.8778 319.647 86.6034 319.781L86.3036 319.04C86.5936 318.891 86.9268 318.764 87.3032 318.658C87.6795 318.552 88.0754 318.499 88.4909 318.499ZM89.7963 321.874L88.8143 321.915C88.0107 321.947 87.4443 322.078 87.115 322.309C86.7857 322.54 86.6211 322.868 86.6211 323.291C86.6211 323.66 86.7328 323.932 86.9562 324.109C87.1797 324.285 87.4756 324.373 87.8441 324.373C88.4165 324.373 88.8849 324.214 89.2495 323.897C89.614 323.579 89.7963 323.103 89.7963 322.468V321.874ZM95.8114 318.487C96.5758 318.487 97.154 318.675 97.546 319.052C97.938 319.424 98.134 320.024 98.134 320.851V325.049H97.1697V320.916C97.1697 320.379 97.0462 319.977 96.7992 319.71C96.5562 319.444 96.1818 319.31 95.6761 319.31C94.9627 319.31 94.4609 319.512 94.1708 319.916C93.8807 320.32 93.7357 320.906 93.7357 321.674V325.049H92.7596V318.605H93.5475L93.6945 319.534H93.7475C93.8847 319.306 94.0591 319.116 94.2708 318.963C94.4825 318.807 94.7196 318.689 94.9823 318.611C95.2449 318.528 95.5213 318.487 95.8114 318.487ZM102.426 325.167C101.611 325.167 100.964 324.889 100.486 324.332C100.011 323.775 99.7742 322.948 99.7742 321.851C99.7742 320.741 100.017 319.904 100.503 319.34C100.989 318.771 101.636 318.487 102.444 318.487C102.785 318.487 103.083 318.532 103.338 318.622C103.592 318.713 103.812 318.834 103.996 318.987C104.18 319.136 104.335 319.306 104.461 319.499H104.531C104.516 319.377 104.5 319.21 104.484 318.999C104.469 318.787 104.461 318.615 104.461 318.481V315.9H105.437V325.049H104.649L104.502 324.132H104.461C104.339 324.324 104.184 324.499 103.996 324.655C103.812 324.812 103.59 324.938 103.332 325.032C103.077 325.122 102.775 325.167 102.426 325.167ZM102.579 324.355C103.269 324.355 103.757 324.159 104.043 323.767C104.329 323.375 104.472 322.793 104.472 322.021V321.845C104.472 321.025 104.335 320.396 104.061 319.957C103.79 319.518 103.296 319.299 102.579 319.299C101.979 319.299 101.53 319.53 101.233 319.992C100.935 320.451 100.786 321.078 100.786 321.874C100.786 322.666 100.933 323.277 101.227 323.709C101.525 324.14 101.975 324.355 102.579 324.355ZM112.692 324.367C112.853 324.367 113.018 324.354 113.186 324.326C113.355 324.299 113.492 324.265 113.598 324.226V324.985C113.484 325.036 113.325 325.079 113.121 325.114C112.922 325.149 112.726 325.167 112.533 325.167C112.192 325.167 111.883 325.108 111.604 324.991C111.326 324.869 111.103 324.665 110.934 324.379C110.769 324.093 110.687 323.697 110.687 323.191V319.369H109.77V318.893L110.693 318.511L111.081 317.111H111.669V318.605H113.557V319.369H111.669V323.162C111.669 323.566 111.761 323.867 111.945 324.067C112.134 324.267 112.383 324.367 112.692 324.367ZM113.874 318.605H114.92L116.343 322.344C116.426 322.564 116.502 322.776 116.573 322.98C116.643 323.179 116.706 323.372 116.761 323.556C116.816 323.74 116.859 323.918 116.89 324.091H116.931C116.986 323.895 117.065 323.638 117.167 323.321C117.269 322.999 117.378 322.672 117.496 322.339L118.843 318.605H119.895L117.09 325.996C116.941 326.392 116.767 326.737 116.567 327.031C116.371 327.325 116.132 327.55 115.85 327.707C115.567 327.868 115.226 327.948 114.826 327.948C114.642 327.948 114.479 327.936 114.338 327.913C114.197 327.893 114.076 327.87 113.974 327.842V327.06C114.06 327.08 114.164 327.098 114.285 327.113C114.411 327.129 114.54 327.137 114.674 327.137C114.917 327.137 115.126 327.09 115.303 326.996C115.483 326.905 115.638 326.772 115.767 326.596C115.897 326.419 116.008 326.21 116.102 325.967L116.455 325.061L113.874 318.605ZM123.94 318.487C124.744 318.487 125.385 318.764 125.863 319.316C126.341 319.869 126.58 320.7 126.58 321.809C126.58 322.542 126.471 323.158 126.251 323.656C126.032 324.154 125.722 324.53 125.322 324.785C124.926 325.04 124.458 325.167 123.917 325.167C123.576 325.167 123.276 325.122 123.017 325.032C122.758 324.942 122.537 324.82 122.353 324.667C122.168 324.514 122.016 324.348 121.894 324.167H121.823C121.835 324.32 121.849 324.504 121.865 324.72C121.884 324.936 121.894 325.124 121.894 325.285V327.931H120.912V318.605H121.718L121.847 319.557H121.894C122.019 319.361 122.172 319.183 122.353 319.022C122.533 318.858 122.752 318.728 123.011 318.634C123.274 318.536 123.584 318.487 123.94 318.487ZM123.77 319.31C123.323 319.31 122.962 319.397 122.688 319.569C122.417 319.742 122.219 320 122.094 320.345C121.968 320.686 121.902 321.116 121.894 321.633V321.821C121.894 322.366 121.953 322.827 122.07 323.203C122.192 323.579 122.39 323.865 122.664 324.061C122.943 324.257 123.315 324.355 123.781 324.355C124.181 324.355 124.515 324.248 124.781 324.032C125.048 323.816 125.246 323.517 125.375 323.132C125.508 322.744 125.575 322.299 125.575 321.798C125.575 321.037 125.426 320.433 125.128 319.987C124.834 319.536 124.381 319.31 123.77 319.31ZM130.755 318.487C131.304 318.487 131.774 318.609 132.166 318.852C132.558 319.095 132.858 319.436 133.066 319.875C133.274 320.31 133.377 320.82 133.377 321.404V322.009H128.926C128.938 322.766 129.126 323.342 129.491 323.738C129.855 324.134 130.369 324.332 131.031 324.332C131.439 324.332 131.8 324.295 132.113 324.22C132.427 324.146 132.752 324.036 133.089 323.891V324.749C132.764 324.894 132.441 325 132.119 325.067C131.802 325.134 131.425 325.167 130.99 325.167C130.371 325.167 129.83 325.041 129.367 324.791C128.909 324.536 128.552 324.163 128.297 323.673C128.042 323.183 127.915 322.584 127.915 321.874C127.915 321.18 128.031 320.58 128.262 320.075C128.497 319.565 128.826 319.173 129.25 318.899C129.677 318.624 130.179 318.487 130.755 318.487ZM130.743 319.287C130.222 319.287 129.806 319.457 129.497 319.798C129.187 320.139 129.003 320.616 128.944 321.227H132.354C132.35 320.843 132.29 320.506 132.172 320.216C132.058 319.922 131.884 319.695 131.649 319.534C131.414 319.369 131.112 319.287 130.743 319.287ZM139.193 323.285C139.193 323.697 139.089 324.044 138.881 324.326C138.677 324.604 138.383 324.814 137.999 324.955C137.619 325.096 137.164 325.167 136.635 325.167C136.184 325.167 135.794 325.132 135.465 325.061C135.135 324.991 134.847 324.891 134.6 324.761V323.862C134.863 323.991 135.177 324.109 135.541 324.214C135.906 324.32 136.278 324.373 136.658 324.373C137.215 324.373 137.619 324.283 137.87 324.103C138.12 323.922 138.246 323.677 138.246 323.368C138.246 323.191 138.195 323.036 138.093 322.903C137.995 322.766 137.828 322.635 137.593 322.509C137.358 322.38 137.033 322.239 136.617 322.086C136.206 321.929 135.849 321.774 135.547 321.621C135.249 321.464 135.018 321.274 134.853 321.051C134.692 320.827 134.612 320.537 134.612 320.181C134.612 319.636 134.832 319.218 135.271 318.928C135.714 318.634 136.294 318.487 137.011 318.487C137.399 318.487 137.762 318.526 138.099 318.605C138.44 318.679 138.757 318.781 139.051 318.911L138.722 319.693C138.456 319.579 138.171 319.483 137.87 319.404C137.568 319.326 137.26 319.287 136.946 319.287C136.496 319.287 136.149 319.361 135.906 319.51C135.667 319.659 135.547 319.863 135.547 320.122C135.547 320.322 135.602 320.486 135.712 320.616C135.825 320.745 136.006 320.867 136.253 320.98C136.5 321.094 136.825 321.227 137.229 321.38C137.632 321.529 137.981 321.684 138.275 321.845C138.569 322.001 138.795 322.194 138.952 322.421C139.112 322.644 139.193 322.932 139.193 323.285ZM143.232 318.487C143.781 318.487 144.251 318.609 144.643 318.852C145.035 319.095 145.335 319.436 145.543 319.875C145.751 320.31 145.854 320.82 145.854 321.404V322.009H141.403C141.415 322.766 141.603 323.342 141.968 323.738C142.332 324.134 142.846 324.332 143.508 324.332C143.916 324.332 144.277 324.295 144.59 324.22C144.904 324.146 145.229 324.036 145.566 323.891V324.749C145.241 324.894 144.918 325 144.596 325.067C144.279 325.134 143.902 325.167 143.467 325.167C142.848 325.167 142.307 325.041 141.844 324.791C141.386 324.536 141.029 324.163 140.774 323.673C140.519 323.183 140.392 322.584 140.392 321.874C140.392 321.18 140.508 320.58 140.739 320.075C140.974 319.565 141.303 319.173 141.727 318.899C142.154 318.624 142.656 318.487 143.232 318.487ZM143.22 319.287C142.699 319.287 142.283 319.457 141.974 319.798C141.664 320.139 141.48 320.616 141.421 321.227H144.831C144.827 320.843 144.767 320.506 144.649 320.216C144.535 319.922 144.361 319.695 144.126 319.534C143.891 319.369 143.589 319.287 143.22 319.287ZM149.582 324.367C149.743 324.367 149.908 324.354 150.076 324.326C150.245 324.299 150.382 324.265 150.488 324.226V324.985C150.374 325.036 150.215 325.079 150.011 325.114C149.811 325.149 149.615 325.167 149.423 325.167C149.082 325.167 148.773 325.108 148.494 324.991C148.216 324.869 147.993 324.665 147.824 324.379C147.659 324.093 147.577 323.697 147.577 323.191V319.369H146.66V318.893L147.583 318.511L147.971 317.111H148.559V318.605H150.447V319.369H148.559V323.162C148.559 323.566 148.651 323.867 148.835 324.067C149.024 324.267 149.272 324.367 149.582 324.367ZM153.863 324.367C154.023 324.367 154.188 324.354 154.356 324.326C154.525 324.299 154.662 324.265 154.768 324.226V324.985C154.654 325.036 154.496 325.079 154.292 325.114C154.092 325.149 153.896 325.167 153.704 325.167C153.363 325.167 153.053 325.108 152.775 324.991C152.496 324.869 152.273 324.665 152.104 324.379C151.94 324.093 151.857 323.697 151.857 323.191V319.369H150.94V318.893L151.863 318.511L152.251 317.111H152.839V318.605H154.727V319.369H152.839V323.162C152.839 323.566 152.932 323.867 153.116 324.067C153.304 324.267 153.553 324.367 153.863 324.367ZM157.038 318.605V325.049H156.061V318.605H157.038ZM156.561 316.194C156.722 316.194 156.859 316.247 156.973 316.353C157.09 316.455 157.149 316.615 157.149 316.835C157.149 317.05 157.09 317.211 156.973 317.317C156.859 317.423 156.722 317.476 156.561 317.476C156.393 317.476 156.252 317.423 156.138 317.317C156.028 317.211 155.973 317.05 155.973 316.835C155.973 316.615 156.028 316.455 156.138 316.353C156.252 316.247 156.393 316.194 156.561 316.194ZM162.147 318.487C162.911 318.487 163.49 318.675 163.882 319.052C164.274 319.424 164.47 320.024 164.47 320.851V325.049H163.505V320.916C163.505 320.379 163.382 319.977 163.135 319.71C162.892 319.444 162.517 319.31 162.012 319.31C161.298 319.31 160.797 319.512 160.506 319.916C160.216 320.32 160.071 320.906 160.071 321.674V325.049H159.095V318.605H159.883L160.03 319.534H160.083C160.22 319.306 160.395 319.116 160.606 318.963C160.818 318.807 161.055 318.689 161.318 318.611C161.581 318.528 161.857 318.487 162.147 318.487ZM168.268 327.942C167.421 327.942 166.768 327.784 166.31 327.466C165.851 327.152 165.622 326.711 165.622 326.143C165.622 325.739 165.749 325.394 166.004 325.108C166.263 324.822 166.62 324.632 167.074 324.538C166.906 324.459 166.761 324.342 166.639 324.185C166.522 324.028 166.463 323.848 166.463 323.644C166.463 323.409 166.527 323.203 166.657 323.027C166.79 322.846 166.992 322.674 167.262 322.509C166.925 322.372 166.651 322.141 166.439 321.815C166.231 321.486 166.128 321.104 166.128 320.669C166.128 320.206 166.224 319.812 166.416 319.487C166.608 319.157 166.886 318.907 167.251 318.734C167.615 318.562 168.056 318.475 168.574 318.475C168.687 318.475 168.801 318.481 168.915 318.493C169.032 318.501 169.144 318.515 169.25 318.534C169.356 318.55 169.448 318.569 169.526 318.593H171.737V319.222L170.549 319.369C170.667 319.522 170.765 319.706 170.843 319.922C170.922 320.137 170.961 320.377 170.961 320.639C170.961 321.282 170.743 321.794 170.308 322.174C169.873 322.55 169.275 322.738 168.515 322.738C168.335 322.738 168.15 322.723 167.962 322.691C167.77 322.797 167.623 322.915 167.521 323.044C167.423 323.174 167.374 323.323 167.374 323.491C167.374 323.617 167.411 323.716 167.486 323.791C167.564 323.865 167.676 323.92 167.821 323.956C167.966 323.987 168.141 324.003 168.344 324.003H169.479C170.181 324.003 170.718 324.15 171.09 324.444C171.467 324.738 171.655 325.167 171.655 325.731C171.655 326.445 171.365 326.992 170.785 327.372C170.204 327.752 169.366 327.942 168.268 327.942ZM168.297 327.178C168.83 327.178 169.271 327.123 169.62 327.013C169.973 326.907 170.236 326.753 170.408 326.549C170.585 326.349 170.673 326.11 170.673 325.831C170.673 325.573 170.614 325.377 170.496 325.243C170.379 325.114 170.206 325.028 169.979 324.985C169.752 324.938 169.473 324.914 169.144 324.914H168.027C167.737 324.914 167.484 324.959 167.268 325.049C167.053 325.139 166.886 325.273 166.768 325.449C166.655 325.626 166.598 325.845 166.598 326.108C166.598 326.457 166.745 326.721 167.039 326.902C167.333 327.086 167.752 327.178 168.297 327.178ZM168.55 322.027C169.017 322.027 169.367 321.909 169.603 321.674C169.838 321.439 169.955 321.096 169.955 320.645C169.955 320.163 169.836 319.802 169.597 319.563C169.358 319.32 169.005 319.199 168.538 319.199C168.092 319.199 167.747 319.324 167.503 319.575C167.264 319.822 167.145 320.185 167.145 320.663C167.145 321.102 167.266 321.439 167.509 321.674C167.752 321.909 168.099 322.027 168.55 322.027ZM177.087 318.605V325.049H176.111V318.605H177.087ZM176.611 316.194C176.772 316.194 176.909 316.247 177.023 316.353C177.14 316.455 177.199 316.615 177.199 316.835C177.199 317.05 177.14 317.211 177.023 317.317C176.909 317.423 176.772 317.476 176.611 317.476C176.443 317.476 176.302 317.423 176.188 317.317C176.078 317.211 176.023 317.05 176.023 316.835C176.023 316.615 176.078 316.455 176.188 316.353C176.302 316.247 176.443 316.194 176.611 316.194ZM182.197 318.487C182.961 318.487 183.54 318.675 183.932 319.052C184.324 319.424 184.52 320.024 184.52 320.851V325.049H183.555V320.916C183.555 320.379 183.432 319.977 183.185 319.71C182.942 319.444 182.567 319.31 182.062 319.31C181.348 319.31 180.847 319.512 180.556 319.916C180.266 320.32 180.121 320.906 180.121 321.674V325.049H179.145V318.605H179.933L180.08 319.534H180.133C180.27 319.306 180.445 319.116 180.656 318.963C180.868 318.807 181.105 318.689 181.368 318.611C181.631 318.528 181.907 318.487 182.197 318.487ZM188.812 325.167C187.996 325.167 187.35 324.889 186.871 324.332C186.397 323.775 186.16 322.948 186.16 321.851C186.16 320.741 186.403 319.904 186.889 319.34C187.375 318.771 188.022 318.487 188.829 318.487C189.17 318.487 189.468 318.532 189.723 318.622C189.978 318.713 190.198 318.834 190.382 318.987C190.566 319.136 190.721 319.306 190.846 319.499H190.917C190.901 319.377 190.885 319.21 190.87 318.999C190.854 318.787 190.846 318.615 190.846 318.481V315.9H191.822V325.049H191.034L190.887 324.132H190.846C190.725 324.324 190.57 324.499 190.382 324.655C190.198 324.812 189.976 324.938 189.717 325.032C189.463 325.122 189.161 325.167 188.812 325.167ZM188.965 324.355C189.655 324.355 190.143 324.159 190.429 323.767C190.715 323.375 190.858 322.793 190.858 322.021V321.845C190.858 321.025 190.721 320.396 190.446 319.957C190.176 319.518 189.682 319.299 188.965 319.299C188.365 319.299 187.916 319.53 187.618 319.992C187.32 320.451 187.171 321.078 187.171 321.874C187.171 322.666 187.318 323.277 187.612 323.709C187.91 324.14 188.361 324.355 188.965 324.355ZM199.202 318.605V325.049H198.402L198.261 324.144H198.208C198.075 324.367 197.902 324.555 197.69 324.708C197.479 324.861 197.24 324.975 196.973 325.049C196.71 325.128 196.43 325.167 196.132 325.167C195.623 325.167 195.195 325.085 194.85 324.92C194.505 324.755 194.245 324.501 194.068 324.156C193.896 323.811 193.81 323.368 193.81 322.827V318.605H194.797V322.756C194.797 323.293 194.919 323.695 195.162 323.962C195.405 324.224 195.775 324.355 196.273 324.355C196.752 324.355 197.132 324.265 197.414 324.085C197.7 323.905 197.906 323.64 198.031 323.291C198.157 322.938 198.22 322.507 198.22 321.998V318.605H199.202ZM205.422 323.285C205.422 323.697 205.319 324.044 205.111 324.326C204.907 324.604 204.613 324.814 204.229 324.955C203.849 325.096 203.394 325.167 202.865 325.167C202.414 325.167 202.024 325.132 201.694 325.061C201.365 324.991 201.077 324.891 200.83 324.761V323.862C201.093 323.991 201.406 324.109 201.771 324.214C202.135 324.32 202.508 324.373 202.888 324.373C203.445 324.373 203.849 324.283 204.099 324.103C204.35 323.922 204.476 323.677 204.476 323.368C204.476 323.191 204.425 323.036 204.323 322.903C204.225 322.766 204.058 322.635 203.823 322.509C203.588 322.38 203.262 322.239 202.847 322.086C202.435 321.929 202.079 321.774 201.777 321.621C201.479 321.464 201.248 321.274 201.083 321.051C200.922 320.827 200.842 320.537 200.842 320.181C200.842 319.636 201.061 319.218 201.5 318.928C201.943 318.634 202.524 318.487 203.241 318.487C203.629 318.487 203.992 318.526 204.329 318.605C204.67 318.679 204.987 318.781 205.281 318.911L204.952 319.693C204.685 319.579 204.401 319.483 204.099 319.404C203.798 319.326 203.49 319.287 203.176 319.287C202.725 319.287 202.379 319.361 202.135 319.51C201.896 319.659 201.777 319.863 201.777 320.122C201.777 320.322 201.832 320.486 201.941 320.616C202.055 320.745 202.235 320.867 202.482 320.98C202.729 321.094 203.055 321.227 203.459 321.38C203.862 321.529 204.211 321.684 204.505 321.845C204.799 322.001 205.025 322.194 205.181 322.421C205.342 322.644 205.422 322.932 205.422 323.285ZM209.062 324.367C209.223 324.367 209.387 324.354 209.556 324.326C209.724 324.299 209.862 324.265 209.967 324.226V324.985C209.854 325.036 209.695 325.079 209.491 325.114C209.291 325.149 209.095 325.167 208.903 325.167C208.562 325.167 208.252 325.108 207.974 324.991C207.696 324.869 207.472 324.665 207.304 324.379C207.139 324.093 207.057 323.697 207.057 323.191V319.369H206.14V318.893L207.063 318.511L207.451 317.111H208.039V318.605H209.926V319.369H208.039V323.162C208.039 323.566 208.131 323.867 208.315 324.067C208.503 324.267 208.752 324.367 209.062 324.367ZM214.189 318.487C214.318 318.487 214.454 318.495 214.595 318.511C214.736 318.522 214.861 318.54 214.971 318.564L214.848 319.469C214.742 319.442 214.624 319.42 214.495 319.404C214.365 319.389 214.244 319.381 214.13 319.381C213.872 319.381 213.627 319.434 213.395 319.54C213.168 319.642 212.968 319.791 212.795 319.987C212.623 320.179 212.488 320.412 212.39 320.686C212.292 320.957 212.243 321.259 212.243 321.592V325.049H211.261V318.605H212.072L212.178 319.793H212.219C212.353 319.553 212.513 319.336 212.701 319.14C212.89 318.94 213.107 318.781 213.354 318.664C213.605 318.546 213.883 318.487 214.189 318.487ZM215.159 318.605H216.206L217.629 322.344C217.711 322.564 217.787 322.776 217.858 322.98C217.929 323.179 217.991 323.372 218.046 323.556C218.101 323.74 218.144 323.918 218.175 324.091H218.217C218.272 323.895 218.35 323.638 218.452 323.321C218.554 322.999 218.664 322.672 218.781 322.339L220.128 318.605H221.18L218.375 325.996C218.226 326.392 218.052 326.737 217.852 327.031C217.656 327.325 217.417 327.55 217.135 327.707C216.852 327.868 216.511 327.948 216.112 327.948C215.927 327.948 215.765 327.936 215.624 327.913C215.482 327.893 215.361 327.87 215.259 327.842V327.06C215.345 327.08 215.449 327.098 215.571 327.113C215.696 327.129 215.825 327.137 215.959 327.137C216.202 327.137 216.411 327.09 216.588 326.996C216.768 326.905 216.923 326.772 217.052 326.596C217.182 326.419 217.293 326.21 217.388 325.967L217.74 325.061L215.159 318.605ZM222.05 324.438C222.05 324.163 222.117 323.969 222.25 323.856C222.383 323.738 222.546 323.679 222.738 323.679C222.938 323.679 223.107 323.738 223.244 323.856C223.381 323.969 223.45 324.163 223.45 324.438C223.45 324.708 223.381 324.906 223.244 325.032C223.107 325.153 222.938 325.214 222.738 325.214C222.546 325.214 222.383 325.153 222.25 325.032C222.117 324.906 222.05 324.708 222.05 324.438Z" fill="#474D66"/>
<path d="M92.8816 355.251C92.8816 353.588 94.2295 352.24 95.8922 352.24H144.956C146.619 352.24 147.966 353.588 147.966 355.251V374.272C147.966 375.935 146.619 377.283 144.956 377.283H95.8922C94.2295 377.283 92.8816 375.935 92.8816 374.272V355.251Z" fill="#3366FF"/>
<path d="M110.7 368.261L109.774 365.874H106.759L105.838 368.261H104.953L107.896 360.708H108.683L111.605 368.261H110.7ZM109.511 365.097L108.631 362.725C108.611 362.663 108.577 362.562 108.529 362.422C108.484 362.281 108.438 362.135 108.39 361.984C108.342 361.833 108.302 361.712 108.271 361.619C108.237 361.76 108.199 361.9 108.158 362.041C108.12 362.178 108.083 362.307 108.045 362.427C108.007 362.543 107.975 362.643 107.947 362.725L107.052 365.097H109.511ZM114.78 368.364C114.272 368.364 113.825 368.26 113.437 368.05C113.049 367.841 112.748 367.522 112.531 367.093C112.315 366.665 112.207 366.124 112.207 365.473C112.207 364.79 112.32 364.233 112.547 363.8C112.777 363.365 113.092 363.042 113.494 362.833C113.895 362.624 114.351 362.519 114.862 362.519C115.143 362.519 115.414 362.548 115.675 362.607C115.939 362.662 116.155 362.732 116.323 362.818L116.066 363.533C115.895 363.464 115.696 363.403 115.469 363.348C115.246 363.293 115.037 363.265 114.842 363.265C114.451 363.265 114.125 363.349 113.864 363.517C113.607 363.686 113.413 363.933 113.283 364.258C113.156 364.584 113.092 364.986 113.092 365.462C113.092 365.919 113.154 366.308 113.277 366.63C113.404 366.953 113.591 367.2 113.838 367.371C114.089 367.539 114.401 367.623 114.775 367.623C115.073 367.623 115.342 367.592 115.582 367.531C115.823 367.465 116.04 367.39 116.236 367.304V368.066C116.047 368.162 115.836 368.236 115.603 368.287C115.373 368.338 115.099 368.364 114.78 368.364ZM119.395 367.664C119.536 367.664 119.68 367.652 119.827 367.628C119.975 367.604 120.095 367.575 120.187 367.541V368.205C120.088 368.249 119.949 368.287 119.771 368.318C119.596 368.349 119.424 368.364 119.256 368.364C118.958 368.364 118.687 368.313 118.443 368.21C118.2 368.103 118.004 367.925 117.857 367.675C117.712 367.424 117.64 367.078 117.64 366.635V363.291H116.838V362.874L117.646 362.54L117.985 361.315H118.5V362.622H120.151V363.291H118.5V366.61C118.5 366.963 118.58 367.227 118.742 367.402C118.906 367.577 119.124 367.664 119.395 367.664ZM122.184 362.622V368.261H121.329V362.622H122.184ZM121.767 360.513C121.907 360.513 122.027 360.559 122.127 360.652C122.23 360.741 122.281 360.881 122.281 361.074C122.281 361.262 122.23 361.403 122.127 361.495C122.027 361.588 121.907 361.634 121.767 361.634C121.619 361.634 121.496 361.588 121.396 361.495C121.3 361.403 121.252 361.262 121.252 361.074C121.252 360.881 121.3 360.741 121.396 360.652C121.496 360.559 121.619 360.513 121.767 360.513ZM128.857 365.431C128.857 365.894 128.797 366.308 128.677 366.671C128.557 367.035 128.383 367.342 128.157 367.592C127.931 367.843 127.656 368.035 127.334 368.169C127.015 368.299 126.653 368.364 126.248 368.364C125.871 368.364 125.524 368.299 125.209 368.169C124.897 368.035 124.626 367.843 124.396 367.592C124.17 367.342 123.993 367.035 123.866 366.671C123.743 366.308 123.681 365.894 123.681 365.431C123.681 364.814 123.785 364.289 123.995 363.857C124.204 363.421 124.502 363.09 124.89 362.864C125.281 362.634 125.746 362.519 126.284 362.519C126.799 362.519 127.248 362.634 127.632 362.864C128.02 363.094 128.32 363.427 128.533 363.862C128.749 364.294 128.857 364.817 128.857 365.431ZM124.566 365.431C124.566 365.884 124.626 366.277 124.746 366.61C124.866 366.942 125.051 367.2 125.301 367.381C125.552 367.563 125.874 367.654 126.269 367.654C126.66 367.654 126.98 367.563 127.231 367.381C127.485 367.2 127.672 366.942 127.792 366.61C127.912 366.277 127.972 365.884 127.972 365.431C127.972 364.982 127.912 364.595 127.792 364.269C127.672 363.939 127.486 363.686 127.236 363.507C126.986 363.329 126.661 363.24 126.264 363.24C125.677 363.24 125.247 363.433 124.972 363.821C124.701 364.209 124.566 364.745 124.566 365.431ZM133.004 362.519C133.673 362.519 134.178 362.684 134.521 363.013C134.864 363.339 135.036 363.864 135.036 364.588V368.261H134.192V364.644C134.192 364.174 134.084 363.823 133.868 363.59C133.655 363.356 133.328 363.24 132.885 363.24C132.261 363.24 131.822 363.416 131.568 363.77C131.314 364.123 131.187 364.636 131.187 365.308V368.261H130.333V362.622H131.023L131.151 363.435H131.198C131.318 363.236 131.47 363.07 131.656 362.936C131.841 362.799 132.048 362.696 132.278 362.627C132.508 362.555 132.75 362.519 133.004 362.519Z" fill="white"/>
<rect x="0.376325" y="0.376325" width="240.095" height="240.095" rx="8.65548" stroke="black" stroke-opacity="0.12" stroke-width="0.75265" stroke-dasharray="9.03 9.03"/>
<path d="M91.1589 116.795C92.182 116.795 92.9484 116.991 93.458 117.383C93.9676 117.775 94.2224 118.385 94.2224 119.212C94.2224 119.635 94.1538 120.012 94.0166 120.341C93.8833 120.666 93.6815 120.941 93.411 121.164C93.1405 121.388 92.8014 121.556 92.3937 121.67C91.99 121.784 91.5176 121.841 90.9766 121.841H89.6536V125.392H89.048V116.795H91.1589ZM91.0942 117.331H89.6536V121.305H90.9178C91.4745 121.305 91.9527 121.243 92.3526 121.117C92.7524 120.988 93.0601 120.772 93.2757 120.47C93.4913 120.169 93.5991 119.757 93.5991 119.236C93.5991 118.573 93.3953 118.091 92.9876 117.789C92.5799 117.483 91.9488 117.331 91.0942 117.331ZM96.5333 119V125.392H95.9394V119H96.5333ZM96.2452 116.637C96.3941 116.637 96.5039 116.682 96.5745 116.772C96.645 116.858 96.6803 116.976 96.6803 117.125C96.6803 117.274 96.645 117.391 96.5745 117.478C96.5039 117.564 96.3941 117.607 96.2452 117.607C96.1041 117.607 95.9982 117.564 95.9277 117.478C95.8571 117.391 95.8218 117.274 95.8218 117.125C95.8218 116.976 95.8571 116.858 95.9277 116.772C95.9982 116.682 96.1041 116.637 96.2452 116.637ZM101.231 125.51C100.596 125.51 100.059 125.378 99.6203 125.116C99.1852 124.849 98.8559 124.471 98.6325 123.981C98.413 123.487 98.3032 122.903 98.3032 122.229C98.3032 121.527 98.4306 120.927 98.6854 120.429C98.9402 119.928 99.2989 119.543 99.7615 119.277C100.224 119.01 100.767 118.877 101.39 118.877C101.696 118.877 101.98 118.904 102.243 118.959C102.506 119.014 102.743 119.091 102.954 119.189L102.796 119.712C102.576 119.614 102.343 119.539 102.096 119.488C101.849 119.438 101.612 119.412 101.384 119.412C100.859 119.412 100.412 119.528 100.044 119.759C99.6791 119.986 99.3989 120.312 99.2029 120.735C99.0108 121.155 98.9147 121.65 98.9147 122.223C98.9147 122.76 98.9971 123.236 99.1617 123.652C99.3263 124.063 99.5792 124.389 99.9202 124.628C100.261 124.863 100.698 124.98 101.231 124.98C101.541 124.98 101.835 124.949 102.114 124.886C102.396 124.824 102.653 124.743 102.884 124.645V125.186C102.676 125.28 102.435 125.357 102.161 125.416C101.89 125.478 101.58 125.51 101.231 125.51ZM106.124 124.998C106.308 124.998 106.478 124.984 106.635 124.957C106.796 124.93 106.937 124.894 107.059 124.851V125.345C106.933 125.388 106.786 125.425 106.618 125.457C106.449 125.492 106.263 125.51 106.059 125.51C105.698 125.51 105.399 125.443 105.159 125.31C104.92 125.173 104.74 124.967 104.618 124.692C104.497 124.414 104.436 124.061 104.436 123.634V119.494H103.484V119.142L104.43 118.959L104.636 117.454H105.03V119H107.023V119.494H105.03V123.599C105.03 124.057 105.114 124.406 105.283 124.645C105.455 124.881 105.736 124.998 106.124 124.998ZM113.397 119V125.392H112.915L112.827 124.24H112.792C112.682 124.475 112.527 124.688 112.327 124.881C112.127 125.073 111.882 125.225 111.592 125.339C111.302 125.453 110.965 125.51 110.581 125.51C110.091 125.51 109.679 125.425 109.346 125.257C109.017 125.084 108.768 124.826 108.599 124.481C108.431 124.136 108.346 123.705 108.346 123.187V119H108.94V123.128C108.94 123.767 109.083 124.238 109.37 124.539C109.66 124.841 110.083 124.992 110.64 124.992C111.11 124.992 111.504 124.902 111.822 124.722C112.143 124.541 112.386 124.269 112.551 123.904C112.719 123.536 112.803 123.077 112.803 122.528V119H113.397ZM118.09 118.889C118.258 118.889 118.417 118.899 118.566 118.918C118.715 118.938 118.854 118.965 118.983 119L118.889 119.547C118.76 119.512 118.629 119.487 118.495 119.471C118.362 119.451 118.219 119.441 118.066 119.441C117.764 119.441 117.494 119.498 117.255 119.612C117.02 119.726 116.82 119.888 116.655 120.1C116.49 120.312 116.365 120.567 116.279 120.864C116.192 121.162 116.149 121.496 116.149 121.864V125.392H115.549V119H116.061L116.12 120.206H116.155C116.253 119.959 116.39 119.737 116.567 119.541C116.747 119.341 116.965 119.183 117.219 119.065C117.474 118.948 117.764 118.889 118.09 118.889ZM122.658 118.877C123.203 118.877 123.656 119.004 124.017 119.259C124.381 119.514 124.652 119.863 124.828 120.306C125.009 120.749 125.099 121.256 125.099 121.829V122.258H120.483C120.483 123.136 120.685 123.81 121.089 124.281C121.496 124.751 122.078 124.986 122.835 124.986C123.231 124.986 123.574 124.955 123.864 124.892C124.158 124.826 124.483 124.714 124.84 124.557V125.104C124.526 125.245 124.213 125.347 123.899 125.41C123.586 125.476 123.225 125.51 122.817 125.51C122.17 125.51 121.628 125.376 121.188 125.11C120.753 124.839 120.424 124.459 120.201 123.969C119.981 123.479 119.871 122.907 119.871 122.252C119.871 121.613 119.977 121.039 120.189 120.529C120.404 120.02 120.718 119.618 121.13 119.324C121.545 119.026 122.055 118.877 122.658 118.877ZM122.653 119.389C122.041 119.389 121.545 119.592 121.165 120C120.789 120.404 120.567 120.988 120.501 121.752H124.481C124.481 121.286 124.415 120.874 124.281 120.518C124.148 120.161 123.946 119.884 123.676 119.688C123.409 119.488 123.068 119.389 122.653 119.389ZM132.22 118.889C132.921 118.889 133.446 119.065 133.795 119.418C134.144 119.771 134.319 120.333 134.319 121.106V125.392H133.86L133.754 124.275H133.719C133.582 124.514 133.415 124.728 133.219 124.916C133.023 125.1 132.782 125.245 132.496 125.351C132.214 125.457 131.869 125.51 131.461 125.51C131.049 125.51 130.697 125.441 130.403 125.304C130.112 125.167 129.887 124.967 129.726 124.704C129.57 124.441 129.491 124.122 129.491 123.746C129.491 123.111 129.754 122.628 130.279 122.299C130.804 121.966 131.559 121.778 132.543 121.735L133.731 121.676V121.211C133.731 120.557 133.601 120.09 133.343 119.812C133.084 119.534 132.702 119.394 132.196 119.394C131.867 119.394 131.549 119.438 131.243 119.524C130.942 119.606 130.634 119.726 130.32 119.882L130.132 119.389C130.438 119.243 130.765 119.124 131.114 119.03C131.467 118.936 131.835 118.889 132.22 118.889ZM133.725 122.14L132.608 122.187C131.796 122.227 131.179 122.372 130.755 122.623C130.332 122.873 130.12 123.25 130.12 123.752C130.12 124.155 130.246 124.465 130.497 124.681C130.751 124.896 131.104 125.004 131.555 125.004C132.257 125.004 132.792 124.804 133.16 124.404C133.533 124.004 133.721 123.46 133.725 122.77V122.14ZM138.917 118.889C139.085 118.889 139.244 118.899 139.393 118.918C139.542 118.938 139.681 118.965 139.811 119L139.717 119.547C139.587 119.512 139.456 119.487 139.323 119.471C139.189 119.451 139.046 119.441 138.893 119.441C138.592 119.441 138.321 119.498 138.082 119.612C137.847 119.726 137.647 119.888 137.482 120.1C137.318 120.312 137.192 120.567 137.106 120.864C137.02 121.162 136.976 121.496 136.976 121.864V125.392H136.377V119H136.888L136.947 120.206H136.982C137.08 119.959 137.218 119.737 137.394 119.541C137.574 119.341 137.792 119.183 138.047 119.065C138.301 118.948 138.592 118.889 138.917 118.889ZM143.486 118.877C144.031 118.877 144.483 119.004 144.844 119.259C145.209 119.514 145.479 119.863 145.655 120.306C145.836 120.749 145.926 121.256 145.926 121.829V122.258H141.31C141.31 123.136 141.512 123.81 141.916 124.281C142.323 124.751 142.906 124.986 143.662 124.986C144.058 124.986 144.401 124.955 144.691 124.892C144.985 124.826 145.311 124.714 145.667 124.557V125.104C145.354 125.245 145.04 125.347 144.726 125.41C144.413 125.476 144.052 125.51 143.644 125.51C142.998 125.51 142.455 125.376 142.016 125.11C141.581 124.839 141.251 124.459 141.028 123.969C140.808 123.479 140.699 122.907 140.699 122.252C140.699 121.613 140.804 121.039 141.016 120.529C141.232 120.02 141.545 119.618 141.957 119.324C142.372 119.026 142.882 118.877 143.486 118.877ZM143.48 119.389C142.868 119.389 142.372 119.592 141.992 120C141.616 120.404 141.394 120.988 141.328 121.752H145.309C145.309 121.286 145.242 120.874 145.109 120.518C144.975 120.161 144.773 119.884 144.503 119.688C144.236 119.488 143.895 119.389 143.48 119.389ZM149.919 118.889C150.62 118.889 151.146 119.065 151.494 119.418C151.843 119.771 152.018 120.333 152.018 121.106V125.392H151.559L151.453 124.275H151.418C151.281 124.514 151.114 124.728 150.918 124.916C150.722 125.1 150.481 125.245 150.195 125.351C149.913 125.457 149.568 125.51 149.16 125.51C148.748 125.51 148.396 125.441 148.102 125.304C147.812 125.167 147.586 124.967 147.425 124.704C147.269 124.441 147.19 124.122 147.19 123.746C147.19 123.111 147.453 122.628 147.978 122.299C148.503 121.966 149.258 121.778 150.242 121.735L151.43 121.676V121.211C151.43 120.557 151.3 120.09 151.042 119.812C150.783 119.534 150.401 119.394 149.895 119.394C149.566 119.394 149.248 119.438 148.942 119.524C148.641 119.606 148.333 119.726 148.019 119.882L147.831 119.389C148.137 119.243 148.464 119.124 148.813 119.03C149.166 118.936 149.534 118.889 149.919 118.889ZM151.424 122.14L150.307 122.187C149.495 122.227 148.878 122.372 148.454 122.623C148.031 122.873 147.819 123.25 147.819 123.752C147.819 124.155 147.945 124.465 148.196 124.681C148.45 124.896 148.803 125.004 149.254 125.004C149.956 125.004 150.491 124.804 150.859 124.404C151.232 124.004 151.42 123.46 151.424 122.77V122.14Z" fill="#999CA0"/>
<circle cx="260.417" cy="146.014" r="10.9134" transform="rotate(90 260.417 146.014)" fill="#101840" stroke="#101840" stroke-width="0.75265"/>
<path d="M262.797 147.775H262.021V149.111H260.689V147.775H257.937V146.827L260.764 142.664H262.021V146.717H262.797V147.775ZM260.689 146.717V145.623C260.689 145.52 260.69 145.398 260.693 145.257C260.699 145.116 260.705 144.975 260.711 144.834C260.717 144.692 260.723 144.567 260.729 144.459C260.737 144.347 260.743 144.269 260.746 144.225H260.711C260.655 144.346 260.596 144.463 260.535 144.578C260.473 144.69 260.401 144.807 260.318 144.931L259.137 146.717H260.689Z" fill="white"/>
<path d="M249.127 146.014H222.032" stroke="#101840" stroke-width="1.5053"/>
<circle cx="223.537" cy="146.014" r="1.88163" transform="rotate(90 223.537 146.014)" fill="#101840" stroke="#101840" stroke-width="0.75265"/>
<circle cx="246.869" cy="282.244" r="10.9134" transform="rotate(90 246.869 282.244)" fill="#101840" stroke="#101840" stroke-width="0.75265"/>
<path d="M247.966 285.341H246.603V281.61C246.603 281.507 246.605 281.381 246.608 281.231C246.611 281.078 246.615 280.922 246.621 280.763C246.627 280.601 246.633 280.456 246.638 280.327C246.606 280.365 246.54 280.431 246.44 280.525C246.343 280.616 246.252 280.698 246.167 280.772L245.426 281.367L244.769 280.547L246.846 278.893H247.966V285.341Z" fill="white"/>
<path d="M235.579 282.244H208.484" stroke="#101840" stroke-width="1.5053"/>
<circle cx="209.989" cy="282.244" r="1.88163" transform="rotate(90 209.989 282.244)" fill="#101840" stroke="#101840" stroke-width="0.75265"/>
<circle cx="264.933" cy="316.866" r="10.9134" transform="rotate(90 264.933 316.866)" fill="#101840" stroke="#101840" stroke-width="0.75265"/>
<path d="M267.167 319.963H262.66V319.015L264.279 317.379C264.605 317.043 264.867 316.764 265.064 316.541C265.264 316.314 265.408 316.108 265.496 315.923C265.587 315.738 265.633 315.54 265.633 315.328C265.633 315.072 265.561 314.881 265.416 314.755C265.275 314.625 265.086 314.561 264.848 314.561C264.598 314.561 264.355 314.618 264.12 314.733C263.885 314.847 263.639 315.01 263.383 315.222L262.643 314.344C262.828 314.186 263.023 314.036 263.229 313.895C263.438 313.754 263.679 313.64 263.952 313.555C264.229 313.467 264.559 313.423 264.945 313.423C265.368 313.423 265.731 313.499 266.034 313.652C266.34 313.805 266.575 314.014 266.74 314.278C266.904 314.54 266.986 314.837 266.986 315.169C266.986 315.525 266.916 315.85 266.775 316.144C266.634 316.438 266.428 316.729 266.157 317.017C265.89 317.305 265.566 317.624 265.187 317.974L264.358 318.755V318.816H267.167V319.963Z" fill="white"/>
<path d="M253.643 316.866H226.548" stroke="#101840" stroke-width="1.5053"/>
<circle cx="228.053" cy="316.866" r="1.88163" transform="rotate(90 228.053 316.866)" fill="#101840" stroke="#101840" stroke-width="0.75265"/>
<circle cx="124.187" cy="414.71" r="10.9134" transform="rotate(-180 124.187 414.71)" fill="#101840" stroke="#101840" stroke-width="0.75265"/>
<path d="M126.547 413.178C126.547 413.475 126.485 413.732 126.361 413.95C126.238 414.167 126.07 414.345 125.859 414.484C125.65 414.622 125.415 414.723 125.153 414.788V414.814C125.671 414.879 126.063 415.038 126.331 415.291C126.601 415.543 126.736 415.882 126.736 416.305C126.736 416.681 126.644 417.018 126.458 417.315C126.276 417.612 125.994 417.845 125.612 418.016C125.23 418.187 124.737 418.272 124.134 418.272C123.779 418.272 123.446 418.242 123.138 418.184C122.832 418.128 122.544 418.041 122.273 417.923V416.764C122.55 416.905 122.839 417.012 123.142 417.085C123.445 417.156 123.727 417.191 123.989 417.191C124.477 417.191 124.818 417.108 125.012 416.94C125.209 416.769 125.307 416.531 125.307 416.226C125.307 416.046 125.262 415.895 125.171 415.771C125.08 415.648 124.921 415.554 124.694 415.489C124.471 415.424 124.158 415.392 123.755 415.392H123.266V414.347H123.764C124.161 414.347 124.462 414.31 124.668 414.237C124.877 414.16 125.018 414.057 125.091 413.928C125.168 413.796 125.206 413.646 125.206 413.478C125.206 413.249 125.135 413.069 124.994 412.94C124.853 412.811 124.618 412.746 124.289 412.746C124.083 412.746 123.895 412.772 123.724 412.825C123.557 412.875 123.405 412.937 123.27 413.011C123.135 413.081 123.016 413.15 122.913 413.218L122.282 412.279C122.535 412.096 122.83 411.945 123.169 411.824C123.51 411.704 123.915 411.643 124.386 411.643C125.05 411.643 125.576 411.777 125.965 412.045C126.353 412.312 126.547 412.69 126.547 413.178Z" fill="white"/>
<path d="M124.187 403.42V376.325" stroke="#101840" stroke-width="1.5053"/>
<circle cx="124.187" cy="377.83" r="1.88163" transform="rotate(-180 124.187 377.83)" fill="#101840" stroke="#101840" stroke-width="0.75265"/>
</svg>
