<svg width="519" height="283" viewBox="0 0 519 283" fill="none" xmlns="http://www.w3.org/2000/svg">
<rect x="9.01831" y="217.088" width="3.13236" height="30.498" fill="#D6E0FF"/>
<path d="M6.65039 277.43H5.49023V279.311H4.13086V277.43H0.234375V276.387L4.14844 270.721H5.49023V276.288H6.65039V277.43ZM4.13086 276.288V274.161C4.13086 273.985 4.13281 273.807 4.13672 273.627C4.14453 273.444 4.15234 273.268 4.16016 273.1C4.16797 272.932 4.17578 272.778 4.18359 272.637C4.19141 272.493 4.19727 272.374 4.20117 272.28H4.1543C4.08008 272.436 3.99805 272.596 3.9082 272.76C3.81836 272.92 3.72266 273.077 3.62109 273.229L1.51172 276.288H4.13086ZM11.1797 272.702C11.9492 272.702 12.5664 272.983 13.0312 273.545C13.5 274.108 13.7344 274.944 13.7344 276.053C13.7344 276.788 13.625 277.407 13.4062 277.911C13.1914 278.411 12.8887 278.79 12.498 279.047C12.1113 279.301 11.6602 279.428 11.1445 279.428C10.8164 279.428 10.5312 279.385 10.2891 279.299C10.0469 279.213 9.83984 279.102 9.66797 278.965C9.49609 278.825 9.35156 278.672 9.23438 278.508H9.15234C9.17188 278.665 9.18945 278.838 9.20508 279.03C9.22461 279.217 9.23438 279.389 9.23438 279.545V282.188H7.85156V272.825H8.97656L9.16992 273.721H9.23438C9.35547 273.538 9.50195 273.368 9.67383 273.211C9.84961 273.055 10.0605 272.932 10.3066 272.842C10.5566 272.749 10.8477 272.702 11.1797 272.702ZM10.8105 273.827C10.4316 273.827 10.127 273.903 9.89648 274.055C9.66992 274.204 9.50391 274.428 9.39844 274.729C9.29688 275.03 9.24219 275.407 9.23438 275.86V276.053C9.23438 276.534 9.2832 276.942 9.38086 277.278C9.48242 277.61 9.64844 277.864 9.87891 278.04C10.1133 278.211 10.4297 278.297 10.8281 278.297C11.1641 278.297 11.4414 278.206 11.6602 278.022C11.8828 277.838 12.0488 277.577 12.1582 277.237C12.2676 276.897 12.3223 276.497 12.3223 276.036C12.3223 275.336 12.1973 274.793 11.9473 274.407C11.7012 274.02 11.3223 273.827 10.8105 273.827ZM16.7637 275.995L14.5957 272.825H16.166L17.6484 275.104L19.1367 272.825H20.7012L18.5215 275.995L20.8125 279.311H19.2363L17.6484 276.879L16.0547 279.311H14.4902L16.7637 275.995Z" fill="#474D66"/>
<rect x="413.523" y="217.088" width="37.5883" height="30.498" fill="#D6E0FF"/>
<path d="M423.173 277.43H422.013V279.311H420.654V277.43H416.757V276.387L420.671 270.721H422.013V276.288H423.173V277.43ZM420.654 276.288V274.161C420.654 273.985 420.656 273.807 420.66 273.627C420.667 273.444 420.675 273.268 420.683 273.1C420.691 272.932 420.699 272.778 420.706 272.637C420.714 272.493 420.72 272.374 420.724 272.28H420.677C420.603 272.436 420.521 272.596 420.431 272.76C420.341 272.92 420.245 273.077 420.144 273.229L418.035 276.288H420.654ZM426.818 270.627C427.314 270.627 427.761 270.706 428.16 270.862C428.558 271.014 428.874 271.243 429.109 271.547C429.343 271.852 429.46 272.229 429.46 272.678C429.46 273.026 429.388 273.329 429.244 273.586C429.103 273.844 428.911 274.071 428.669 274.266C428.427 274.458 428.156 274.627 427.855 274.776C428.191 274.94 428.499 275.129 428.781 275.344C429.066 275.555 429.294 275.803 429.466 276.088C429.642 276.374 429.73 276.708 429.73 277.09C429.73 277.571 429.607 277.987 429.361 278.338C429.119 278.686 428.781 278.956 428.347 279.147C427.913 279.334 427.408 279.428 426.829 279.428C426.208 279.428 425.679 279.336 425.242 279.153C424.804 278.969 424.472 278.708 424.245 278.368C424.019 278.024 423.906 277.614 423.906 277.137C423.906 276.743 423.984 276.401 424.14 276.112C424.296 275.823 424.505 275.573 424.767 275.362C425.033 275.151 425.324 274.973 425.64 274.829C425.37 274.668 425.124 274.489 424.902 274.29C424.679 274.086 424.501 273.854 424.369 273.592C424.24 273.327 424.175 273.02 424.175 272.672C424.175 272.227 424.294 271.854 424.533 271.553C424.771 271.249 425.089 271.018 425.488 270.862C425.89 270.706 426.333 270.627 426.818 270.627ZM425.218 277.084C425.218 277.459 425.351 277.768 425.617 278.01C425.882 278.252 426.279 278.374 426.806 278.374C427.329 278.374 427.728 278.254 428.001 278.016C428.275 277.778 428.411 277.463 428.411 277.073C428.411 276.823 428.341 276.602 428.201 276.411C428.064 276.219 427.878 276.049 427.644 275.901C427.413 275.749 427.158 275.608 426.876 275.479L426.689 275.403C426.384 275.532 426.122 275.678 425.904 275.842C425.685 276.002 425.515 276.184 425.394 276.387C425.277 276.59 425.218 276.823 425.218 277.084ZM426.806 271.688C426.427 271.688 426.115 271.782 425.869 271.969C425.626 272.153 425.505 272.418 425.505 272.766C425.505 273.012 425.564 273.223 425.681 273.399C425.802 273.575 425.964 273.727 426.167 273.856C426.37 273.981 426.595 274.098 426.841 274.208C427.079 274.102 427.294 273.987 427.486 273.862C427.681 273.733 427.835 273.581 427.949 273.405C428.066 273.225 428.124 273.01 428.124 272.76C428.124 272.417 428.001 272.153 427.755 271.969C427.513 271.782 427.197 271.688 426.806 271.688ZM434.57 272.702C435.339 272.702 435.956 272.983 436.421 273.545C436.89 274.108 437.124 274.944 437.124 276.053C437.124 276.788 437.015 277.407 436.796 277.911C436.581 278.411 436.279 278.79 435.888 279.047C435.501 279.301 435.05 279.428 434.535 279.428C434.206 279.428 433.921 279.385 433.679 279.299C433.437 279.213 433.23 279.102 433.058 278.965C432.886 278.825 432.742 278.672 432.624 278.508H432.542C432.562 278.665 432.579 278.838 432.595 279.03C432.615 279.217 432.624 279.389 432.624 279.545V282.188H431.242V272.825H432.367L432.56 273.721H432.624C432.745 273.538 432.892 273.368 433.064 273.211C433.24 273.055 433.451 272.932 433.697 272.842C433.947 272.749 434.238 272.702 434.57 272.702ZM434.201 273.827C433.822 273.827 433.517 273.903 433.286 274.055C433.06 274.204 432.894 274.428 432.788 274.729C432.687 275.03 432.632 275.407 432.624 275.86V276.053C432.624 276.534 432.673 276.942 432.771 277.278C432.872 277.61 433.038 277.864 433.269 278.04C433.503 278.211 433.82 278.297 434.218 278.297C434.554 278.297 434.831 278.206 435.05 278.022C435.273 277.838 435.439 277.577 435.548 277.237C435.658 276.897 435.712 276.497 435.712 276.036C435.712 275.336 435.587 274.793 435.337 274.407C435.091 274.02 434.712 273.827 434.201 273.827ZM440.154 275.995L437.986 272.825H439.556L441.038 275.104L442.527 272.825H444.091L441.911 275.995L444.203 279.311H442.626L441.038 276.879L439.445 279.311H437.88L440.154 275.995Z" fill="#474D66"/>
<rect x="52.5657" y="217.088" width="6.26471" height="30.498" fill="#D6E0FF"/>
<path d="M49.4309 270.627C49.927 270.627 50.3743 270.706 50.7727 270.862C51.1711 271.014 51.4875 271.243 51.7219 271.547C51.9563 271.852 52.0735 272.229 52.0735 272.678C52.0735 273.026 52.0012 273.329 51.8567 273.586C51.7161 273.844 51.5247 274.071 51.2825 274.266C51.0403 274.458 50.7688 274.627 50.468 274.776C50.804 274.94 51.1125 275.129 51.3938 275.344C51.679 275.555 51.9075 275.803 52.0793 276.088C52.2551 276.374 52.343 276.708 52.343 277.09C52.343 277.571 52.22 277.987 51.9739 278.338C51.7317 278.686 51.3938 278.956 50.9602 279.147C50.5266 279.334 50.0208 279.428 49.4426 279.428C48.8215 279.428 48.2922 279.336 47.8547 279.153C47.4172 278.969 47.0852 278.708 46.8586 278.368C46.6321 278.024 46.5188 277.614 46.5188 277.137C46.5188 276.743 46.5969 276.401 46.7532 276.112C46.9094 275.823 47.1184 275.573 47.3801 275.362C47.6458 275.151 47.9368 274.973 48.2532 274.829C47.9836 274.668 47.7375 274.489 47.5149 274.29C47.2922 274.086 47.1145 273.854 46.9817 273.592C46.8528 273.327 46.7883 273.02 46.7883 272.672C46.7883 272.227 46.9075 271.854 47.1458 271.553C47.384 271.249 47.7024 271.018 48.1008 270.862C48.5032 270.706 48.9465 270.627 49.4309 270.627ZM47.8313 277.084C47.8313 277.459 47.9641 277.768 48.2297 278.01C48.4954 278.252 48.8918 278.374 49.4192 278.374C49.9426 278.374 50.3411 278.254 50.6145 278.016C50.8879 277.778 51.0247 277.463 51.0247 277.073C51.0247 276.823 50.9543 276.602 50.8137 276.411C50.677 276.219 50.4915 276.049 50.2571 275.901C50.0266 275.749 49.7708 275.608 49.4895 275.479L49.302 275.403C48.9973 275.532 48.7356 275.678 48.5168 275.842C48.2981 276.002 48.1282 276.184 48.0071 276.387C47.8899 276.59 47.8313 276.823 47.8313 277.084ZM49.4192 271.688C49.0403 271.688 48.7278 271.782 48.4817 271.969C48.2395 272.153 48.1184 272.418 48.1184 272.766C48.1184 273.012 48.177 273.223 48.2942 273.399C48.4153 273.575 48.5774 273.727 48.7805 273.856C48.9836 273.981 49.2083 274.098 49.4543 274.208C49.6926 274.102 49.9075 273.987 50.0989 273.862C50.2942 273.733 50.4485 273.581 50.5618 273.405C50.679 273.225 50.7375 273.01 50.7375 272.76C50.7375 272.417 50.6145 272.153 50.3684 271.969C50.1262 271.782 49.8098 271.688 49.4192 271.688ZM57.1829 272.702C57.9524 272.702 58.5696 272.983 59.0344 273.545C59.5032 274.108 59.7375 274.944 59.7375 276.053C59.7375 276.788 59.6282 277.407 59.4094 277.911C59.1946 278.411 58.8918 278.79 58.5012 279.047C58.1145 279.301 57.6633 279.428 57.1477 279.428C56.8196 279.428 56.5344 279.385 56.2922 279.299C56.05 279.213 55.843 279.102 55.6711 278.965C55.4993 278.825 55.3547 278.672 55.2375 278.508H55.1555C55.175 278.665 55.1926 278.838 55.2083 279.03C55.2278 279.217 55.2375 279.389 55.2375 279.545V282.188H53.8547V272.825H54.9797L55.1731 273.721H55.2375C55.3586 273.538 55.5051 273.368 55.677 273.211C55.8528 273.055 56.0637 272.932 56.3098 272.842C56.5598 272.749 56.8508 272.702 57.1829 272.702ZM56.8137 273.827C56.4348 273.827 56.1301 273.903 55.8997 274.055C55.6731 274.204 55.5071 274.428 55.4016 274.729C55.3 275.03 55.2454 275.407 55.2375 275.86V276.053C55.2375 276.534 55.2864 276.942 55.384 277.278C55.4856 277.61 55.6516 277.864 55.8821 278.04C56.1165 278.211 56.4329 278.297 56.8313 278.297C57.1672 278.297 57.4446 278.206 57.6633 278.022C57.886 277.838 58.052 277.577 58.1614 277.237C58.2708 276.897 58.3254 276.497 58.3254 276.036C58.3254 275.336 58.2004 274.793 57.9504 274.407C57.7043 274.02 57.3254 273.827 56.8137 273.827ZM62.7668 275.995L60.5989 272.825H62.1692L63.6516 275.104L65.1399 272.825H66.7043L64.5247 275.995L66.8157 279.311H65.2395L63.6516 276.879L62.0579 279.311H60.4934L62.7668 275.995Z" fill="#474D66"/>
<rect x="204.015" y="217.088" width="18.7941" height="30.498" fill="#D6E0FF"/>
<path d="M204.355 279.088H198.554V278.051L200.775 275.801C201.204 275.364 201.558 274.987 201.835 274.67C202.113 274.35 202.318 274.047 202.45 273.762C202.587 273.477 202.656 273.167 202.656 272.831C202.656 272.417 202.536 272.104 202.298 271.893C202.06 271.678 201.745 271.571 201.355 271.571C200.984 271.571 200.64 271.645 200.323 271.793C200.011 271.938 199.687 272.145 199.351 272.415L198.595 271.506C198.833 271.303 199.087 271.118 199.357 270.95C199.63 270.782 199.935 270.649 200.271 270.551C200.607 270.45 200.99 270.399 201.419 270.399C201.962 270.399 202.431 270.497 202.825 270.692C203.22 270.883 203.523 271.151 203.734 271.495C203.948 271.838 204.056 272.239 204.056 272.696C204.056 273.157 203.964 273.583 203.781 273.973C203.597 274.364 203.335 274.75 202.995 275.133C202.656 275.512 202.251 275.924 201.782 276.37L200.3 277.817V277.881H204.355V279.088ZM211.532 277.208H210.372V279.088H209.013V277.208H205.116V276.165L209.031 270.499H210.372V276.065H211.532V277.208ZM209.013 276.065V273.938C209.013 273.762 209.015 273.584 209.019 273.405C209.027 273.221 209.034 273.045 209.042 272.877C209.05 272.709 209.058 272.555 209.066 272.415C209.073 272.27 209.079 272.151 209.083 272.057H209.036C208.962 272.213 208.88 272.374 208.79 272.538C208.7 272.698 208.605 272.854 208.503 273.006L206.394 276.065H209.013ZM216.062 272.479C216.831 272.479 217.448 272.76 217.913 273.323C218.382 273.885 218.616 274.721 218.616 275.831C218.616 276.565 218.507 277.184 218.288 277.688C218.073 278.188 217.771 278.567 217.38 278.825C216.993 279.079 216.542 279.206 216.027 279.206C215.698 279.206 215.413 279.163 215.171 279.077C214.929 278.991 214.722 278.879 214.55 278.743C214.378 278.602 214.234 278.45 214.116 278.286H214.034C214.054 278.442 214.072 278.616 214.087 278.807C214.107 278.995 214.116 279.167 214.116 279.323V281.965H212.734V272.602H213.859L214.052 273.499H214.116C214.238 273.315 214.384 273.145 214.556 272.989C214.732 272.833 214.943 272.709 215.189 272.62C215.439 272.526 215.73 272.479 216.062 272.479ZM215.693 273.604C215.314 273.604 215.009 273.68 214.779 273.833C214.552 273.981 214.386 274.206 214.281 274.506C214.179 274.807 214.124 275.184 214.116 275.637V275.831C214.116 276.311 214.165 276.719 214.263 277.055C214.365 277.387 214.531 277.641 214.761 277.817C214.995 277.989 215.312 278.075 215.71 278.075C216.046 278.075 216.323 277.983 216.542 277.799C216.765 277.616 216.931 277.354 217.04 277.014C217.15 276.674 217.204 276.274 217.204 275.813C217.204 275.114 217.079 274.571 216.829 274.184C216.583 273.797 216.204 273.604 215.693 273.604ZM221.646 275.772L219.478 272.602H221.048L222.531 274.881L224.019 272.602H225.583L223.404 275.772L225.695 279.088H224.118L222.531 276.657L220.937 279.088H219.372L221.646 275.772Z" fill="#474D66"/>
<rect x="475.111" y="217.088" width="43.853" height="30.498" fill="#D6E0FF"/>
<path d="M483.562 273.956C484.113 273.956 484.597 274.055 485.015 274.254C485.437 274.45 485.765 274.739 486 275.122C486.234 275.5 486.351 275.965 486.351 276.516C486.351 277.118 486.224 277.637 485.97 278.075C485.717 278.508 485.344 278.842 484.851 279.077C484.359 279.311 483.76 279.428 483.052 279.428C482.603 279.428 482.183 279.389 481.793 279.311C481.406 279.233 481.072 279.116 480.791 278.959V277.717C481.084 277.881 481.435 278.016 481.845 278.122C482.256 278.223 482.648 278.274 483.023 278.274C483.422 278.274 483.763 278.215 484.049 278.098C484.334 277.981 484.552 277.801 484.705 277.559C484.861 277.317 484.939 277.01 484.939 276.639C484.939 276.147 484.781 275.768 484.465 275.502C484.152 275.233 483.662 275.098 482.994 275.098C482.76 275.098 482.51 275.12 482.244 275.163C481.982 275.202 481.763 275.245 481.588 275.292L480.984 274.934L481.306 270.745H485.76V271.958H482.519L482.332 274.09C482.472 274.059 482.64 274.03 482.836 274.002C483.031 273.971 483.273 273.956 483.562 273.956ZM487.529 275.661C487.529 275.157 487.564 274.661 487.635 274.172C487.709 273.684 487.834 273.227 488.01 272.801C488.185 272.375 488.427 272 488.736 271.676C489.049 271.352 489.441 271.098 489.914 270.915C490.386 270.727 490.955 270.633 491.619 270.633C491.791 270.633 491.984 270.641 492.199 270.657C492.414 270.672 492.592 270.698 492.732 270.733V271.875C492.58 271.833 492.412 271.799 492.228 271.776C492.049 271.752 491.869 271.741 491.689 271.741C490.97 271.741 490.41 271.877 490.008 272.151C489.605 272.42 489.318 272.792 489.146 273.264C488.974 273.733 488.875 274.27 488.847 274.875H488.918C489.035 274.68 489.181 274.506 489.357 274.354C489.533 274.202 489.748 274.081 490.002 273.991C490.256 273.897 490.551 273.85 490.886 273.85C491.386 273.85 491.822 273.956 492.193 274.167C492.564 274.374 492.849 274.674 493.049 275.069C493.252 275.463 493.353 275.942 493.353 276.504C493.353 277.11 493.238 277.631 493.008 278.069C492.781 278.506 492.457 278.842 492.035 279.077C491.617 279.311 491.119 279.428 490.541 279.428C490.115 279.428 489.719 279.35 489.351 279.194C488.988 279.038 488.67 278.803 488.396 278.491C488.123 278.178 487.91 277.788 487.758 277.319C487.605 276.846 487.529 276.293 487.529 275.661ZM490.517 278.292C490.963 278.292 491.32 278.147 491.59 277.858C491.863 277.565 492 277.118 492 276.516C492 276.028 491.879 275.641 491.636 275.356C491.398 275.071 491.039 274.928 490.558 274.928C490.23 274.928 489.943 274.999 489.697 275.139C489.451 275.28 489.26 275.458 489.123 275.672C488.99 275.887 488.924 276.106 488.924 276.329C488.924 276.555 488.957 276.784 489.023 277.014C489.09 277.245 489.189 277.458 489.322 277.653C489.455 277.844 489.621 277.999 489.82 278.116C490.019 278.233 490.252 278.292 490.517 278.292ZM498.158 272.702C498.927 272.702 499.545 272.983 500.01 273.545C500.478 274.108 500.713 274.944 500.713 276.053C500.713 276.788 500.603 277.407 500.385 277.911C500.17 278.411 499.867 278.79 499.476 279.047C499.09 279.301 498.638 279.428 498.123 279.428C497.795 279.428 497.51 279.385 497.267 279.299C497.025 279.213 496.818 279.102 496.646 278.965C496.474 278.825 496.33 278.672 496.213 278.508H496.131C496.15 278.665 496.168 278.838 496.183 279.03C496.203 279.217 496.213 279.389 496.213 279.545V282.188H494.83V272.825H495.955L496.148 273.721H496.213C496.334 273.538 496.48 273.368 496.652 273.211C496.828 273.055 497.039 272.932 497.285 272.842C497.535 272.749 497.826 272.702 498.158 272.702ZM497.789 273.827C497.41 273.827 497.105 273.903 496.875 274.055C496.648 274.204 496.482 274.428 496.377 274.729C496.275 275.03 496.22 275.407 496.213 275.86V276.053C496.213 276.534 496.261 276.942 496.359 277.278C496.461 277.61 496.627 277.864 496.857 278.04C497.092 278.211 497.408 278.297 497.806 278.297C498.142 278.297 498.42 278.206 498.638 278.022C498.861 277.838 499.027 277.577 499.136 277.237C499.246 276.897 499.301 276.497 499.301 276.036C499.301 275.336 499.176 274.793 498.926 274.407C498.679 274.02 498.301 273.827 497.789 273.827ZM503.742 275.995L501.574 272.825H503.144L504.627 275.104L506.115 272.825H507.679L505.5 275.995L507.791 279.311H506.215L504.627 276.879L503.033 279.311H501.469L503.742 275.995Z" fill="#474D66"/>
<rect x="101.923" y="217.088" width="9.39707" height="30.498" fill="#D6E0FF"/>
<path d="M96.5114 279.311H95.1285V273.797C95.1285 273.614 95.1305 273.43 95.1344 273.247C95.1383 273.063 95.1422 272.883 95.1461 272.708C95.1539 272.532 95.1637 272.364 95.1754 272.204C95.0934 272.293 94.9918 272.391 94.8707 272.497C94.7535 272.602 94.6285 272.711 94.4957 272.825L93.5114 273.61L92.8199 272.737L95.3629 270.745H96.5114V279.311ZM105.13 279.311H99.3297V278.274L101.55 276.024C101.98 275.586 102.334 275.209 102.611 274.893C102.888 274.573 103.093 274.27 103.226 273.985C103.363 273.7 103.431 273.389 103.431 273.053C103.431 272.639 103.312 272.327 103.074 272.116C102.836 271.901 102.521 271.793 102.13 271.793C101.759 271.793 101.416 271.868 101.099 272.016C100.787 272.161 100.463 272.368 100.127 272.637L99.3707 271.729C99.609 271.526 99.8629 271.34 100.132 271.172C100.406 271.004 100.711 270.872 101.047 270.774C101.382 270.672 101.765 270.622 102.195 270.622C102.738 270.622 103.207 270.719 103.601 270.915C103.996 271.106 104.298 271.374 104.509 271.717C104.724 272.061 104.832 272.461 104.832 272.918C104.832 273.379 104.74 273.805 104.556 274.196C104.373 274.586 104.111 274.973 103.771 275.356C103.431 275.735 103.027 276.147 102.558 276.592L101.076 278.04V278.104H105.13V279.311ZM109.97 272.702C110.74 272.702 111.357 272.983 111.822 273.545C112.291 274.108 112.525 274.944 112.525 276.053C112.525 276.788 112.416 277.407 112.197 277.911C111.982 278.411 111.679 278.79 111.289 279.047C110.902 279.301 110.451 279.428 109.935 279.428C109.607 279.428 109.322 279.385 109.08 279.299C108.838 279.213 108.63 279.102 108.459 278.965C108.287 278.825 108.142 278.672 108.025 278.508H107.943C107.963 278.665 107.98 278.838 107.996 279.03C108.015 279.217 108.025 279.389 108.025 279.545V282.188H106.642V272.825H107.767L107.961 273.721H108.025C108.146 273.538 108.293 273.368 108.464 273.211C108.64 273.055 108.851 272.932 109.097 272.842C109.347 272.749 109.638 272.702 109.97 272.702ZM109.601 273.827C109.222 273.827 108.918 273.903 108.687 274.055C108.461 274.204 108.295 274.428 108.189 274.729C108.088 275.03 108.033 275.407 108.025 275.86V276.053C108.025 276.534 108.074 276.942 108.172 277.278C108.273 277.61 108.439 277.864 108.67 278.04C108.904 278.211 109.22 278.297 109.619 278.297C109.955 278.297 110.232 278.206 110.451 278.022C110.673 277.838 110.839 277.577 110.949 277.237C111.058 276.897 111.113 276.497 111.113 276.036C111.113 275.336 110.988 274.793 110.738 274.407C110.492 274.02 110.113 273.827 109.601 273.827ZM115.554 275.995L113.386 272.825H114.957L116.439 275.104L117.927 272.825H119.492L117.312 275.995L119.603 279.311H118.027L116.439 276.879L114.845 279.311H113.281L115.554 275.995Z" fill="#474D66"/>
<rect x="256.124" y="217.088" width="21.9265" height="30.498" fill="#D6E0FF"/>
<path d="M258.464 279.088H252.663V278.051L254.884 275.801C255.313 275.364 255.667 274.987 255.944 274.67C256.222 274.35 256.427 274.047 256.56 273.762C256.696 273.477 256.765 273.167 256.765 272.831C256.765 272.417 256.646 272.104 256.407 271.893C256.169 271.678 255.854 271.571 255.464 271.571C255.093 271.571 254.749 271.645 254.433 271.793C254.12 271.938 253.796 272.145 253.46 272.415L252.704 271.506C252.942 271.303 253.196 271.118 253.466 270.95C253.739 270.782 254.044 270.649 254.38 270.551C254.716 270.45 255.099 270.399 255.528 270.399C256.071 270.399 256.54 270.497 256.935 270.692C257.329 270.883 257.632 271.151 257.843 271.495C258.058 271.838 258.165 272.239 258.165 272.696C258.165 273.157 258.073 273.583 257.89 273.973C257.706 274.364 257.444 274.75 257.104 275.133C256.765 275.512 256.36 275.924 255.892 276.37L254.409 277.817V277.881H258.464V279.088ZM262.419 270.405C262.915 270.405 263.362 270.483 263.761 270.639C264.159 270.792 264.476 271.02 264.71 271.325C264.944 271.629 265.062 272.006 265.062 272.456C265.062 272.803 264.989 273.106 264.845 273.364C264.704 273.622 264.513 273.848 264.271 274.043C264.028 274.235 263.757 274.405 263.456 274.553C263.792 274.717 264.101 274.907 264.382 275.122C264.667 275.333 264.896 275.581 265.067 275.866C265.243 276.151 265.331 276.485 265.331 276.868C265.331 277.348 265.208 277.764 264.962 278.116C264.72 278.463 264.382 278.733 263.948 278.924C263.515 279.112 263.009 279.206 262.431 279.206C261.81 279.206 261.28 279.114 260.843 278.93C260.405 278.747 260.073 278.485 259.847 278.145C259.62 277.801 259.507 277.391 259.507 276.915C259.507 276.52 259.585 276.178 259.741 275.889C259.897 275.6 260.106 275.35 260.368 275.139C260.634 274.928 260.925 274.75 261.241 274.606C260.972 274.446 260.726 274.266 260.503 274.067C260.28 273.864 260.103 273.631 259.97 273.37C259.841 273.104 259.776 272.797 259.776 272.45C259.776 272.004 259.896 271.631 260.134 271.331C260.372 271.026 260.69 270.795 261.089 270.639C261.491 270.483 261.935 270.405 262.419 270.405ZM260.819 276.862C260.819 277.237 260.952 277.545 261.218 277.788C261.483 278.03 261.88 278.151 262.407 278.151C262.931 278.151 263.329 278.032 263.603 277.793C263.876 277.555 264.013 277.241 264.013 276.85C264.013 276.6 263.942 276.379 263.802 276.188C263.665 275.997 263.479 275.827 263.245 275.678C263.015 275.526 262.759 275.385 262.478 275.256L262.29 275.18C261.985 275.309 261.724 275.456 261.505 275.62C261.286 275.78 261.116 275.961 260.995 276.165C260.878 276.368 260.819 276.6 260.819 276.862ZM262.407 271.465C262.028 271.465 261.716 271.559 261.47 271.747C261.228 271.93 261.106 272.196 261.106 272.543C261.106 272.79 261.165 273 261.282 273.176C261.403 273.352 261.565 273.504 261.769 273.633C261.972 273.758 262.196 273.875 262.442 273.985C262.681 273.879 262.896 273.764 263.087 273.639C263.282 273.51 263.437 273.358 263.55 273.182C263.667 273.002 263.726 272.788 263.726 272.538C263.726 272.194 263.603 271.93 263.356 271.747C263.114 271.559 262.798 271.465 262.407 271.465ZM270.171 272.479C270.94 272.479 271.558 272.76 272.022 273.323C272.491 273.885 272.726 274.721 272.726 275.831C272.726 276.565 272.616 277.184 272.397 277.688C272.183 278.188 271.88 278.567 271.489 278.825C271.103 279.079 270.651 279.206 270.136 279.206C269.808 279.206 269.522 279.163 269.28 279.077C269.038 278.991 268.831 278.879 268.659 278.743C268.487 278.602 268.343 278.45 268.226 278.286H268.144C268.163 278.442 268.181 278.616 268.196 278.807C268.216 278.995 268.226 279.167 268.226 279.323V281.965H266.843V272.602H267.968L268.161 273.499H268.226C268.347 273.315 268.493 273.145 268.665 272.989C268.841 272.833 269.052 272.709 269.298 272.62C269.548 272.526 269.839 272.479 270.171 272.479ZM269.802 273.604C269.423 273.604 269.118 273.68 268.888 273.833C268.661 273.981 268.495 274.206 268.39 274.506C268.288 274.807 268.233 275.184 268.226 275.637V275.831C268.226 276.311 268.274 276.719 268.372 277.055C268.474 277.387 268.64 277.641 268.87 277.817C269.104 277.989 269.421 278.075 269.819 278.075C270.155 278.075 270.433 277.983 270.651 277.799C270.874 277.616 271.04 277.354 271.149 277.014C271.259 276.674 271.313 276.274 271.313 275.813C271.313 275.114 271.188 274.571 270.938 274.184C270.692 273.797 270.313 273.604 269.802 273.604ZM275.755 275.772L273.587 272.602H275.157L276.64 274.881L278.128 272.602H279.692L277.513 275.772L279.804 279.088H278.228L276.64 276.657L275.046 279.088H273.481L275.755 275.772Z" fill="#474D66"/>
<rect x="153.011" y="217.088" width="12.5294" height="30.498" fill="#D6E0FF"/>
<path d="M149.599 279.311H148.216V273.797C148.216 273.614 148.218 273.43 148.222 273.247C148.225 273.063 148.229 272.883 148.233 272.708C148.241 272.532 148.251 272.364 148.263 272.204C148.181 272.293 148.079 272.391 147.958 272.497C147.841 272.602 147.716 272.711 147.583 272.825L146.599 273.61L145.907 272.737L148.45 270.745H149.599V279.311ZM152.429 275.661C152.429 275.157 152.464 274.661 152.534 274.172C152.608 273.684 152.733 273.227 152.909 272.801C153.085 272.375 153.327 272 153.636 271.676C153.948 271.352 154.341 271.098 154.813 270.915C155.286 270.727 155.854 270.633 156.518 270.633C156.69 270.633 156.884 270.641 157.099 270.657C157.313 270.672 157.491 270.698 157.632 270.733V271.875C157.479 271.833 157.311 271.799 157.128 271.776C156.948 271.752 156.768 271.741 156.589 271.741C155.87 271.741 155.309 271.877 154.907 272.151C154.505 272.42 154.218 272.792 154.046 273.264C153.874 273.733 153.774 274.27 153.747 274.875H153.817C153.934 274.68 154.081 274.506 154.257 274.354C154.432 274.202 154.647 274.081 154.901 273.991C155.155 273.897 155.45 273.85 155.786 273.85C156.286 273.85 156.722 273.956 157.093 274.167C157.464 274.374 157.749 274.674 157.948 275.069C158.151 275.463 158.253 275.942 158.253 276.504C158.253 277.11 158.138 277.631 157.907 278.069C157.681 278.506 157.356 278.842 156.934 279.077C156.516 279.311 156.018 279.428 155.44 279.428C155.015 279.428 154.618 279.35 154.251 279.194C153.888 279.038 153.569 278.803 153.296 278.491C153.022 278.178 152.809 277.788 152.657 277.319C152.505 276.846 152.429 276.293 152.429 275.661ZM155.417 278.292C155.862 278.292 156.22 278.147 156.489 277.858C156.763 277.565 156.899 277.118 156.899 276.516C156.899 276.028 156.778 275.641 156.536 275.356C156.298 275.071 155.938 274.928 155.458 274.928C155.13 274.928 154.843 274.999 154.597 275.139C154.35 275.28 154.159 275.458 154.022 275.672C153.89 275.887 153.823 276.106 153.823 276.329C153.823 276.555 153.856 276.784 153.923 277.014C153.989 277.245 154.089 277.458 154.222 277.653C154.354 277.844 154.52 277.999 154.72 278.116C154.919 278.233 155.151 278.292 155.417 278.292ZM163.057 272.702C163.827 272.702 164.444 272.983 164.909 273.545C165.378 274.108 165.612 274.944 165.612 276.053C165.612 276.788 165.503 277.407 165.284 277.911C165.069 278.411 164.766 278.79 164.376 279.047C163.989 279.301 163.538 279.428 163.022 279.428C162.694 279.428 162.409 279.385 162.167 279.299C161.925 279.213 161.718 279.102 161.546 278.965C161.374 278.825 161.229 278.672 161.112 278.508H161.03C161.05 278.665 161.067 278.838 161.083 279.03C161.102 279.217 161.112 279.389 161.112 279.545V282.188H159.729V272.825H160.854L161.048 273.721H161.112C161.233 273.538 161.38 273.368 161.552 273.211C161.727 273.055 161.938 272.932 162.184 272.842C162.434 272.749 162.725 272.702 163.057 272.702ZM162.688 273.827C162.309 273.827 162.005 273.903 161.774 274.055C161.548 274.204 161.382 274.428 161.276 274.729C161.175 275.03 161.12 275.407 161.112 275.86V276.053C161.112 276.534 161.161 276.942 161.259 277.278C161.36 277.61 161.526 277.864 161.757 278.04C161.991 278.211 162.307 278.297 162.706 278.297C163.042 278.297 163.319 278.206 163.538 278.022C163.761 277.838 163.927 277.577 164.036 277.237C164.145 276.897 164.2 276.497 164.2 276.036C164.2 275.336 164.075 274.793 163.825 274.407C163.579 274.02 163.2 273.827 162.688 273.827ZM168.641 275.995L166.474 272.825H168.044L169.526 275.104L171.015 272.825H172.579L170.399 275.995L172.69 279.311H171.114L169.526 276.879L167.932 279.311H166.368L168.641 275.995Z" fill="#474D66"/>
<rect x="307.195" y="217.088" width="25.0589" height="30.498" fill="#D6E0FF"/>
<path d="M311.207 272.702C311.207 273.088 311.129 273.424 310.972 273.709C310.816 273.995 310.601 274.229 310.328 274.413C310.058 274.592 309.746 274.721 309.39 274.799V274.84C310.074 274.926 310.589 275.141 310.937 275.485C311.289 275.829 311.464 276.284 311.464 276.85C311.464 277.346 311.345 277.79 311.107 278.18C310.869 278.567 310.504 278.872 310.011 279.094C309.519 279.317 308.886 279.428 308.113 279.428C307.648 279.428 307.216 279.391 306.818 279.317C306.423 279.243 306.048 279.124 305.693 278.959V277.735C306.056 277.915 306.443 278.053 306.853 278.151C307.263 278.249 307.652 278.297 308.019 278.297C308.734 278.297 309.244 278.165 309.548 277.899C309.853 277.629 310.005 277.258 310.005 276.786C310.005 276.481 309.925 276.231 309.765 276.036C309.609 275.84 309.365 275.694 309.033 275.596C308.705 275.499 308.281 275.45 307.761 275.45H307.005V274.342H307.767C308.263 274.342 308.662 274.284 308.963 274.167C309.263 274.045 309.48 273.879 309.613 273.668C309.75 273.458 309.818 273.211 309.818 272.93C309.818 272.563 309.699 272.278 309.461 272.075C309.222 271.868 308.869 271.764 308.4 271.764C308.111 271.764 307.847 271.797 307.609 271.864C307.375 271.93 307.158 272.014 306.959 272.116C306.759 272.217 306.57 272.327 306.39 272.444L305.728 271.489C306.052 271.247 306.439 271.042 306.888 270.874C307.338 270.706 307.861 270.622 308.459 270.622C309.338 270.622 310.015 270.811 310.492 271.19C310.968 271.565 311.207 272.069 311.207 272.702ZM318.402 279.311H312.601V278.274L314.822 276.024C315.252 275.586 315.605 275.209 315.882 274.893C316.16 274.573 316.365 274.27 316.498 273.985C316.634 273.7 316.703 273.389 316.703 273.053C316.703 272.639 316.584 272.327 316.345 272.116C316.107 271.901 315.793 271.793 315.402 271.793C315.031 271.793 314.687 271.868 314.371 272.016C314.058 272.161 313.734 272.368 313.398 272.637L312.642 271.729C312.88 271.526 313.134 271.34 313.404 271.172C313.677 271.004 313.982 270.872 314.318 270.774C314.654 270.672 315.037 270.622 315.466 270.622C316.009 270.622 316.478 270.719 316.873 270.915C317.267 271.106 317.57 271.374 317.781 271.717C317.996 272.061 318.103 272.461 318.103 272.918C318.103 273.379 318.011 273.805 317.828 274.196C317.644 274.586 317.382 274.973 317.043 275.356C316.703 275.735 316.298 276.147 315.83 276.592L314.347 278.04V278.104H318.402V279.311ZM323.242 272.702C324.011 272.702 324.629 272.983 325.093 273.545C325.562 274.108 325.797 274.944 325.797 276.053C325.797 276.788 325.687 277.407 325.468 277.911C325.254 278.411 324.951 278.79 324.56 279.047C324.173 279.301 323.722 279.428 323.207 279.428C322.879 279.428 322.593 279.385 322.351 279.299C322.109 279.213 321.902 279.102 321.73 278.965C321.558 278.825 321.414 278.672 321.297 278.508H321.214C321.234 278.665 321.252 278.838 321.267 279.03C321.287 279.217 321.297 279.389 321.297 279.545V282.188H319.914V272.825H321.039L321.232 273.721H321.297C321.418 273.538 321.564 273.368 321.736 273.211C321.912 273.055 322.123 272.932 322.369 272.842C322.619 272.749 322.91 272.702 323.242 272.702ZM322.873 273.827C322.494 273.827 322.189 273.903 321.959 274.055C321.732 274.204 321.566 274.428 321.461 274.729C321.359 275.03 321.304 275.407 321.297 275.86V276.053C321.297 276.534 321.345 276.942 321.443 277.278C321.545 277.61 321.711 277.864 321.941 278.04C322.175 278.211 322.492 278.297 322.89 278.297C323.226 278.297 323.504 278.206 323.722 278.022C323.945 277.838 324.111 277.577 324.22 277.237C324.33 276.897 324.384 276.497 324.384 276.036C324.384 275.336 324.259 274.793 324.009 274.407C323.763 274.02 323.384 273.827 322.873 273.827ZM328.826 275.995L326.658 272.825H328.228L329.711 275.104L331.199 272.825H332.763L330.584 275.995L332.875 279.311H331.298L329.711 276.879L328.117 279.311H326.552L328.826 275.995Z" fill="#474D66"/>
<rect x="358.199" y="217.088" width="31.3236" height="30.498" fill="#D6E0FF"/>
<path d="M365.85 277.43H364.689V279.311H363.33V277.43H359.434V276.387L363.348 270.721H364.689V276.288H365.85V277.43ZM363.33 276.288V274.161C363.33 273.985 363.332 273.807 363.336 273.627C363.344 273.444 363.352 273.268 363.359 273.1C363.367 272.932 363.375 272.778 363.383 272.637C363.391 272.493 363.396 272.374 363.4 272.28H363.354C363.279 272.436 363.197 272.596 363.107 272.76C363.018 272.92 362.922 273.077 362.82 273.229L360.711 276.288H363.33ZM372.406 275.022C372.406 275.713 372.352 276.333 372.242 276.879C372.137 277.422 371.969 277.883 371.738 278.262C371.508 278.641 371.207 278.93 370.836 279.129C370.465 279.329 370.016 279.428 369.488 279.428C368.828 279.428 368.283 279.254 367.854 278.907C367.424 278.555 367.105 278.051 366.898 277.395C366.691 276.735 366.588 275.944 366.588 275.022C366.588 274.1 366.682 273.311 366.869 272.655C367.061 271.995 367.369 271.489 367.795 271.137C368.221 270.786 368.785 270.61 369.488 270.61C370.152 270.61 370.699 270.786 371.129 271.137C371.562 271.485 371.883 271.989 372.09 272.649C372.301 273.305 372.406 274.096 372.406 275.022ZM367.977 275.022C367.977 275.745 368.023 276.348 368.117 276.833C368.215 277.317 368.375 277.68 368.598 277.922C368.82 278.161 369.117 278.28 369.488 278.28C369.859 278.28 370.156 278.161 370.379 277.922C370.602 277.684 370.762 277.323 370.859 276.838C370.961 276.354 371.012 275.749 371.012 275.022C371.012 274.303 370.963 273.702 370.865 273.217C370.768 272.733 370.607 272.37 370.385 272.127C370.162 271.881 369.863 271.758 369.488 271.758C369.113 271.758 368.814 271.881 368.592 272.127C368.373 272.37 368.215 272.733 368.117 273.217C368.023 273.702 367.977 274.303 367.977 275.022ZM377.246 272.702C378.016 272.702 378.633 272.983 379.098 273.545C379.566 274.108 379.801 274.944 379.801 276.053C379.801 276.788 379.691 277.407 379.473 277.911C379.258 278.411 378.955 278.79 378.564 279.047C378.178 279.301 377.727 279.428 377.211 279.428C376.883 279.428 376.598 279.385 376.355 279.299C376.113 279.213 375.906 279.102 375.734 278.965C375.562 278.825 375.418 278.672 375.301 278.508H375.219C375.238 278.665 375.256 278.838 375.271 279.03C375.291 279.217 375.301 279.389 375.301 279.545V282.188H373.918V272.825H375.043L375.236 273.721H375.301C375.422 273.538 375.568 273.368 375.74 273.211C375.916 273.055 376.127 272.932 376.373 272.842C376.623 272.749 376.914 272.702 377.246 272.702ZM376.877 273.827C376.498 273.827 376.193 273.903 375.963 274.055C375.736 274.204 375.57 274.428 375.465 274.729C375.363 275.03 375.309 275.407 375.301 275.86V276.053C375.301 276.534 375.35 276.942 375.447 277.278C375.549 277.61 375.715 277.864 375.945 278.04C376.18 278.211 376.496 278.297 376.895 278.297C377.23 278.297 377.508 278.206 377.727 278.022C377.949 277.838 378.115 277.577 378.225 277.237C378.334 276.897 378.389 276.497 378.389 276.036C378.389 275.336 378.264 274.793 378.014 274.407C377.768 274.02 377.389 273.827 376.877 273.827ZM382.83 275.995L380.662 272.825H382.232L383.715 275.104L385.203 272.825H386.768L384.588 275.995L386.879 279.311H385.303L383.715 276.879L382.121 279.311H380.557L382.83 275.995Z" fill="#474D66"/>
<path d="M7.75879 194.894H6.40527V197.088H4.81934V194.894H0.273438V193.677L4.83984 187.067H6.40527V193.561H7.75879V194.894ZM4.81934 193.561V191.08C4.81934 190.875 4.82161 190.667 4.82617 190.458C4.83529 190.243 4.8444 190.038 4.85352 189.842C4.86263 189.646 4.87174 189.466 4.88086 189.302C4.88997 189.134 4.89681 188.995 4.90137 188.885H4.84668C4.76009 189.068 4.66439 189.254 4.55957 189.446C4.45475 189.633 4.3431 189.815 4.22461 189.993L1.76367 193.561H4.81934ZM13.043 189.377C13.9408 189.377 14.6608 189.706 15.2031 190.362C15.75 191.018 16.0234 191.993 16.0234 193.288C16.0234 194.144 15.8958 194.867 15.6406 195.455C15.39 196.038 15.0368 196.48 14.5811 196.781C14.1299 197.077 13.6035 197.225 13.002 197.225C12.6191 197.225 12.2865 197.175 12.0039 197.075C11.7214 196.974 11.4798 196.845 11.2793 196.685C11.0788 196.521 10.9102 196.343 10.7734 196.152H10.6777C10.7005 196.334 10.721 196.537 10.7393 196.76C10.762 196.979 10.7734 197.18 10.7734 197.362V200.445H9.16016V189.521H10.4727L10.6982 190.567H10.7734C10.9147 190.353 11.0856 190.154 11.2861 189.972C11.4912 189.79 11.7373 189.646 12.0244 189.542C12.3161 189.432 12.6556 189.377 13.043 189.377ZM12.6123 190.69C12.1702 190.69 11.8148 190.779 11.5459 190.957C11.2816 191.13 11.0879 191.392 10.9648 191.743C10.8464 192.094 10.7826 192.533 10.7734 193.062V193.288C10.7734 193.848 10.8304 194.324 10.9443 194.716C11.0628 195.104 11.2565 195.4 11.5254 195.605C11.7988 195.806 12.168 195.906 12.6328 195.906C13.0247 195.906 13.3483 195.799 13.6035 195.584C13.8633 195.37 14.057 195.065 14.1846 194.668C14.3122 194.272 14.376 193.805 14.376 193.267C14.376 192.451 14.2301 191.818 13.9385 191.367C13.6514 190.916 13.2093 190.69 12.6123 190.69ZM19.5576 193.219L17.0283 189.521H18.8604L20.5898 192.18L22.3262 189.521H24.1514L21.6084 193.219L24.2812 197.088H22.4424L20.5898 194.251L18.7305 197.088H16.9053L19.5576 193.219ZM33.4277 191.661H37.1602V196.678C36.6361 196.851 36.0938 196.986 35.5332 197.082C34.9727 197.177 34.3438 197.225 33.6465 197.225C32.6302 197.225 31.7689 197.025 31.0625 196.624C30.3607 196.218 29.8275 195.632 29.4629 194.867C29.0983 194.097 28.916 193.169 28.916 192.084C28.916 191.041 29.1188 190.136 29.5244 189.371C29.93 188.6 30.5202 188.006 31.2949 187.586C32.0697 187.163 33.0085 186.951 34.1113 186.951C34.6536 186.951 35.1777 187.005 35.6836 187.115C36.194 187.22 36.6611 187.365 37.085 187.552L36.5107 188.906C36.1735 188.746 35.7952 188.612 35.376 188.502C34.9567 188.393 34.5215 188.338 34.0703 188.338C33.3548 188.338 32.7373 188.493 32.2178 188.803C31.7028 189.113 31.3063 189.551 31.0283 190.116C30.7503 190.676 30.6113 191.339 30.6113 192.105C30.6113 192.848 30.723 193.5 30.9463 194.06C31.1696 194.621 31.5182 195.058 31.9922 195.373C32.4707 195.682 33.0882 195.837 33.8447 195.837C34.223 195.837 34.5443 195.817 34.8086 195.776C35.0729 195.735 35.3167 195.689 35.54 195.639V193.062H33.4277V191.661ZM43.2236 189.377C43.3512 189.377 43.4902 189.384 43.6406 189.398C43.791 189.412 43.9209 189.43 44.0303 189.453L43.8799 190.957C43.7842 190.929 43.6657 190.909 43.5244 190.895C43.3877 190.881 43.2646 190.875 43.1553 190.875C42.8682 190.875 42.5947 190.922 42.335 191.018C42.0752 191.109 41.8451 191.25 41.6445 191.442C41.444 191.629 41.2868 191.863 41.1729 192.146C41.0589 192.429 41.002 192.757 41.002 193.13V197.088H39.3887V189.521H40.6465L40.8652 190.854H40.9404C41.0908 190.585 41.2777 190.339 41.501 190.116C41.7243 189.892 41.9795 189.715 42.2666 189.583C42.5583 189.446 42.8773 189.377 43.2236 189.377ZM47.0381 189.521V197.088H45.4316V189.521H47.0381ZM46.2451 186.623C46.4912 186.623 46.7031 186.689 46.8809 186.821C47.0632 186.953 47.1543 187.181 47.1543 187.504C47.1543 187.823 47.0632 188.051 46.8809 188.188C46.7031 188.32 46.4912 188.386 46.2451 188.386C45.9899 188.386 45.7734 188.32 45.5957 188.188C45.4225 188.051 45.3359 187.823 45.3359 187.504C45.3359 187.181 45.4225 186.953 45.5957 186.821C45.7734 186.689 45.9899 186.623 46.2451 186.623ZM51.8848 197.225C50.9824 197.225 50.2578 196.897 49.7109 196.241C49.1686 195.58 48.8975 194.607 48.8975 193.322C48.8975 192.023 49.1732 191.041 49.7246 190.375C50.2806 189.71 51.012 189.377 51.9189 189.377C52.3018 189.377 52.6367 189.43 52.9238 189.535C53.2109 189.635 53.457 189.772 53.6621 189.945C53.8717 190.118 54.0495 190.312 54.1953 190.526H54.2705C54.2477 190.385 54.2204 190.182 54.1885 189.917C54.1611 189.649 54.1475 189.4 54.1475 189.172V186.452H55.7607V197.088H54.5029L54.2158 196.056H54.1475C54.0107 196.275 53.8376 196.473 53.6279 196.651C53.4229 196.824 53.1768 196.963 52.8896 197.068C52.6071 197.173 52.2721 197.225 51.8848 197.225ZM52.3359 195.919C53.0241 195.919 53.5094 195.721 53.792 195.325C54.0745 194.928 54.2204 194.333 54.2295 193.541V193.329C54.2295 192.481 54.0928 191.832 53.8193 191.38C53.5459 190.925 53.0469 190.697 52.3223 190.697C51.7435 190.697 51.3014 190.931 50.9961 191.401C50.6953 191.866 50.5449 192.515 50.5449 193.349C50.5449 194.183 50.6953 194.821 50.9961 195.263C51.3014 195.701 51.748 195.919 52.3359 195.919ZM67.6348 194.368C67.6348 194.96 67.4889 195.471 67.1973 195.899C66.9102 196.327 66.4954 196.655 65.9531 196.883C65.4154 197.111 64.7728 197.225 64.0254 197.225C63.6608 197.225 63.3122 197.205 62.9795 197.164C62.6468 197.123 62.3324 197.063 62.0361 196.986C61.7445 196.904 61.4779 196.806 61.2363 196.692V195.147C61.6419 195.325 62.0954 195.486 62.5967 195.632C63.098 195.774 63.6084 195.844 64.1279 195.844C64.5518 195.844 64.9027 195.79 65.1807 195.68C65.4632 195.566 65.6729 195.407 65.8096 195.202C65.9463 194.992 66.0146 194.748 66.0146 194.47C66.0146 194.174 65.9349 193.923 65.7754 193.718C65.6159 193.513 65.3743 193.326 65.0508 193.158C64.7318 192.985 64.3307 192.8 63.8477 192.604C63.5195 192.472 63.2051 192.321 62.9043 192.153C62.6081 191.984 62.3438 191.786 62.1113 191.558C61.8789 191.33 61.6943 191.061 61.5576 190.751C61.4255 190.437 61.3594 190.068 61.3594 189.644C61.3594 189.079 61.4938 188.596 61.7627 188.195C62.0361 187.794 62.4189 187.486 62.9111 187.272C63.4079 187.058 63.9867 186.951 64.6475 186.951C65.1715 186.951 65.6637 187.005 66.124 187.115C66.5889 187.224 67.0446 187.379 67.4912 187.58L66.9717 188.899C66.5615 188.73 66.1628 188.596 65.7754 188.496C65.3926 188.395 65.0007 188.345 64.5996 188.345C64.2533 188.345 63.9593 188.398 63.7178 188.502C63.4762 188.607 63.2917 188.755 63.1641 188.947C63.041 189.134 62.9795 189.357 62.9795 189.617C62.9795 189.908 63.0501 190.154 63.1914 190.355C63.3372 190.551 63.5605 190.731 63.8613 190.895C64.1667 191.059 64.5586 191.241 65.0371 191.442C65.5885 191.67 66.0557 191.909 66.4385 192.16C66.8258 192.41 67.1221 192.711 67.3271 193.062C67.5322 193.408 67.6348 193.844 67.6348 194.368ZM73.2812 189.377C74.179 189.377 74.8991 189.706 75.4414 190.362C75.9883 191.018 76.2617 191.993 76.2617 193.288C76.2617 194.144 76.1341 194.867 75.8789 195.455C75.6283 196.038 75.2751 196.48 74.8193 196.781C74.3682 197.077 73.8418 197.225 73.2402 197.225C72.8574 197.225 72.5247 197.175 72.2422 197.075C71.9596 196.974 71.7181 196.845 71.5176 196.685C71.3171 196.521 71.1484 196.343 71.0117 196.152H70.916C70.9388 196.334 70.9593 196.537 70.9775 196.76C71.0003 196.979 71.0117 197.18 71.0117 197.362V200.445H69.3984V189.521H70.7109L70.9365 190.567H71.0117C71.153 190.353 71.3239 190.154 71.5244 189.972C71.7295 189.79 71.9756 189.646 72.2627 189.542C72.5544 189.432 72.8939 189.377 73.2812 189.377ZM72.8506 190.69C72.4085 190.69 72.0531 190.779 71.7842 190.957C71.5199 191.13 71.3262 191.392 71.2031 191.743C71.0846 192.094 71.0208 192.533 71.0117 193.062V193.288C71.0117 193.848 71.0687 194.324 71.1826 194.716C71.3011 195.104 71.4948 195.4 71.7637 195.605C72.0371 195.806 72.4062 195.906 72.8711 195.906C73.263 195.906 73.5866 195.799 73.8418 195.584C74.1016 195.37 74.2952 195.065 74.4229 194.668C74.5505 194.272 74.6143 193.805 74.6143 193.267C74.6143 192.451 74.4684 191.818 74.1768 191.367C73.8896 190.916 73.4476 190.69 72.8506 190.69ZM81.0879 189.377C82.0449 189.377 82.7673 189.589 83.2549 190.013C83.7471 190.437 83.9932 191.098 83.9932 191.996V197.088H82.8516L82.5439 196.015H82.4893C82.2751 196.289 82.054 196.514 81.8262 196.692C81.5983 196.87 81.334 197.002 81.0332 197.088C80.737 197.18 80.3747 197.225 79.9463 197.225C79.4951 197.225 79.0918 197.143 78.7363 196.979C78.3809 196.81 78.1006 196.555 77.8955 196.213C77.6904 195.872 77.5879 195.439 77.5879 194.915C77.5879 194.135 77.8773 193.55 78.4561 193.158C79.0394 192.766 79.9189 192.549 81.0947 192.508L82.4072 192.46V192.064C82.4072 191.54 82.2842 191.166 82.0381 190.943C81.7965 190.72 81.4548 190.608 81.0127 190.608C80.6344 190.608 80.2676 190.663 79.9121 190.772C79.5566 190.881 79.2103 191.016 78.873 191.175L78.3535 190.041C78.7227 189.845 79.1419 189.685 79.6113 189.562C80.0853 189.439 80.5775 189.377 81.0879 189.377ZM82.4004 193.472L81.4229 193.506C80.6208 193.534 80.0579 193.67 79.7344 193.917C79.4108 194.163 79.249 194.5 79.249 194.928C79.249 195.302 79.3607 195.575 79.584 195.749C79.8073 195.917 80.1012 196.001 80.4658 196.001C81.0218 196.001 81.4821 195.844 81.8467 195.53C82.2158 195.211 82.4004 194.744 82.4004 194.128V193.472ZM89.291 197.225C88.5755 197.225 87.9557 197.086 87.4316 196.808C86.9076 196.53 86.5042 196.104 86.2217 195.53C85.9391 194.956 85.7979 194.226 85.7979 193.342C85.7979 192.422 85.9528 191.67 86.2627 191.086C86.5726 190.503 87.001 190.072 87.5479 189.794C88.0993 189.516 88.7305 189.377 89.4414 189.377C89.8926 189.377 90.3005 189.423 90.665 189.514C91.0342 189.601 91.3464 189.708 91.6016 189.835L91.123 191.121C90.8451 191.007 90.5602 190.911 90.2686 190.833C89.9769 190.756 89.6966 190.717 89.4277 190.717C88.9857 190.717 88.6165 190.815 88.3203 191.011C88.0286 191.207 87.8099 191.499 87.6641 191.886C87.5228 192.274 87.4521 192.754 87.4521 193.329C87.4521 193.885 87.5251 194.354 87.6709 194.737C87.8167 195.115 88.0332 195.402 88.3203 195.598C88.6074 195.79 88.9606 195.885 89.3799 195.885C89.7946 195.885 90.166 195.835 90.4941 195.735C90.8223 195.635 91.1322 195.505 91.4238 195.345V196.74C91.1367 196.904 90.8291 197.025 90.501 197.102C90.1729 197.184 89.7695 197.225 89.291 197.225ZM94.8076 189.521V197.088H93.2012V189.521H94.8076ZM94.0146 186.623C94.2607 186.623 94.4727 186.689 94.6504 186.821C94.8327 186.953 94.9238 187.181 94.9238 187.504C94.9238 187.823 94.8327 188.051 94.6504 188.188C94.4727 188.32 94.2607 188.386 94.0146 188.386C93.7594 188.386 93.543 188.32 93.3652 188.188C93.1921 188.051 93.1055 187.823 93.1055 187.504C93.1055 187.181 93.1921 186.953 93.3652 186.821C93.543 186.689 93.7594 186.623 94.0146 186.623ZM101.056 189.377C101.908 189.377 102.571 189.598 103.045 190.041C103.523 190.478 103.763 191.182 103.763 192.153V197.088H102.156V192.454C102.156 191.866 102.035 191.426 101.794 191.134C101.552 190.838 101.179 190.69 100.673 190.69C99.9391 190.69 99.4287 190.916 99.1416 191.367C98.859 191.818 98.7178 192.472 98.7178 193.329V197.088H97.1113V189.521H98.3623L98.5879 190.546H98.6768C98.8408 190.282 99.0436 190.066 99.2852 189.897C99.5312 189.724 99.8047 189.594 100.105 189.507C100.411 189.421 100.728 189.377 101.056 189.377ZM108.172 200.452C107.146 200.452 106.36 200.267 105.813 199.898C105.267 199.529 104.993 199.012 104.993 198.346C104.993 197.881 105.139 197.487 105.431 197.164C105.722 196.845 106.139 196.624 106.682 196.5C106.477 196.409 106.299 196.268 106.148 196.077C106.003 195.881 105.93 195.664 105.93 195.427C105.93 195.145 106.009 194.903 106.169 194.703C106.328 194.502 106.568 194.308 106.887 194.122C106.49 193.953 106.171 193.68 105.93 193.301C105.693 192.918 105.574 192.47 105.574 191.955C105.574 191.408 105.69 190.943 105.923 190.56C106.155 190.173 106.495 189.879 106.941 189.678C107.388 189.473 107.928 189.371 108.562 189.371C108.698 189.371 108.846 189.38 109.006 189.398C109.17 189.412 109.32 189.43 109.457 189.453C109.598 189.471 109.705 189.491 109.778 189.514H112.396V190.41L111.111 190.649C111.234 190.822 111.332 191.02 111.405 191.244C111.478 191.462 111.515 191.702 111.515 191.961C111.515 192.745 111.243 193.363 110.701 193.814C110.163 194.261 109.421 194.484 108.473 194.484C108.245 194.475 108.024 194.457 107.81 194.429C107.646 194.529 107.52 194.641 107.434 194.764C107.347 194.883 107.304 195.017 107.304 195.167C107.304 195.291 107.347 195.391 107.434 195.468C107.52 195.541 107.648 195.596 107.816 195.632C107.99 195.669 108.199 195.687 108.445 195.687H109.751C110.58 195.687 111.214 195.862 111.651 196.213C112.089 196.564 112.308 197.079 112.308 197.758C112.308 198.62 111.952 199.283 111.241 199.748C110.53 200.217 109.507 200.452 108.172 200.452ZM108.233 199.324C108.794 199.324 109.266 199.269 109.648 199.16C110.031 199.05 110.321 198.893 110.517 198.688C110.713 198.487 110.811 198.248 110.811 197.97C110.811 197.724 110.749 197.535 110.626 197.403C110.503 197.271 110.318 197.18 110.072 197.129C109.826 197.079 109.521 197.054 109.156 197.054H107.967C107.671 197.054 107.409 197.1 107.181 197.191C106.953 197.287 106.775 197.423 106.647 197.601C106.524 197.779 106.463 197.993 106.463 198.244C106.463 198.59 106.616 198.857 106.921 199.043C107.231 199.23 107.668 199.324 108.233 199.324ZM108.548 193.431C109.017 193.431 109.366 193.304 109.594 193.048C109.822 192.789 109.936 192.424 109.936 191.955C109.936 191.444 109.817 191.061 109.58 190.806C109.348 190.551 109.001 190.423 108.541 190.423C108.09 190.423 107.746 190.553 107.509 190.813C107.276 191.073 107.16 191.458 107.16 191.968C107.16 192.429 107.276 192.789 107.509 193.048C107.746 193.304 108.092 193.431 108.548 193.431Z" fill="#474D66"/>
<g clip-path="url(#clip0_1153_6391)">
<rect width="50.176" height="14.9261" transform="translate(222.161 62.4814)" fill="white"/>
<line x1="223.161" y1="66.9814" x2="271.161" y2="66.9814" stroke="#3366FF"/>
<line x1="222.661" y1="62.4814" x2="222.661" y2="71.4814" stroke="#3366FF"/>
<line x1="271.661" y1="62.4814" x2="271.661" y2="71.4814" stroke="#3366FF"/>
</g>
<path d="M241.489 108.675L241.952 106.489H237.856L237.956 105.997L243.2 100.079H243.885L242.649 105.95H244.09L243.973 106.489H242.526L242.063 108.675H241.489ZM238.641 105.95H242.063L242.713 102.897C242.784 102.581 242.846 102.298 242.901 102.048C242.96 101.794 243.016 101.56 243.071 101.345C243.13 101.13 243.184 100.923 243.235 100.724H243.206C243.073 100.907 242.934 101.091 242.79 101.274C242.645 101.458 242.481 101.649 242.297 101.849L238.641 105.95ZM244.096 111.493L246.042 102.306H246.534L246.27 103.794H246.305C246.469 103.528 246.669 103.274 246.903 103.032C247.141 102.786 247.413 102.585 247.717 102.429C248.022 102.269 248.36 102.188 248.731 102.188C249.106 102.188 249.428 102.278 249.698 102.458C249.971 102.634 250.182 102.89 250.331 103.226C250.483 103.558 250.559 103.956 250.559 104.421C250.559 104.843 250.514 105.263 250.424 105.681C250.335 106.095 250.204 106.489 250.032 106.864C249.86 107.235 249.643 107.567 249.381 107.86C249.12 108.149 248.817 108.378 248.473 108.546C248.133 108.71 247.751 108.792 247.325 108.792C246.965 108.792 246.665 108.726 246.422 108.593C246.18 108.456 245.987 108.282 245.842 108.071C245.702 107.856 245.6 107.632 245.538 107.397H245.503C245.475 107.612 245.438 107.851 245.391 108.112C245.344 108.374 245.297 108.612 245.251 108.827L244.682 111.493H244.096ZM247.307 108.276C247.651 108.276 247.962 108.204 248.239 108.06C248.516 107.911 248.76 107.71 248.971 107.456C249.186 107.198 249.366 106.903 249.51 106.571C249.655 106.239 249.764 105.89 249.838 105.522C249.913 105.155 249.95 104.784 249.95 104.409C249.95 103.87 249.831 103.452 249.592 103.155C249.354 102.854 249.01 102.704 248.561 102.704C248.323 102.704 248.088 102.755 247.858 102.856C247.631 102.954 247.415 103.095 247.208 103.278C247.005 103.458 246.817 103.671 246.645 103.917C246.473 104.163 246.325 104.433 246.2 104.726C246.075 105.015 245.977 105.321 245.907 105.646C245.837 105.97 245.801 106.298 245.801 106.63C245.801 107.165 245.936 107.573 246.206 107.854C246.475 108.136 246.842 108.276 247.307 108.276ZM250.776 108.675L253.618 105.388L252.194 102.306H252.821L254.01 104.972L256.307 102.306H257.005L254.274 105.417L255.809 108.675H255.182L253.881 105.845L251.479 108.675H250.776Z" fill="#3366FF"/>
<g clip-path="url(#clip1_1153_6391)">
<rect width="62.72" height="14.9261" transform="translate(309.968 62.4814)" fill="white"/>
<line x1="310.968" y1="66.9814" x2="371.968" y2="66.9814" stroke="#3366FF"/>
<line x1="310.468" y1="62.4814" x2="310.468" y2="71.4814" stroke="#3366FF"/>
<line x1="372.468" y1="62.4814" x2="372.468" y2="71.4814" stroke="#3366FF"/>
</g>
<path d="M334.684 108.792C334.203 108.792 333.787 108.702 333.436 108.522C333.088 108.343 332.819 108.099 332.627 107.79C332.44 107.478 332.346 107.124 332.346 106.729C332.346 106.257 332.455 105.858 332.674 105.534C332.897 105.206 333.199 104.931 333.582 104.708C333.969 104.485 334.408 104.29 334.901 104.122C334.678 103.974 334.473 103.812 334.285 103.636C334.102 103.456 333.953 103.251 333.84 103.021C333.731 102.786 333.676 102.511 333.676 102.194C333.676 101.737 333.783 101.345 333.998 101.017C334.213 100.685 334.504 100.429 334.871 100.249C335.242 100.069 335.66 99.9795 336.125 99.9795C336.574 99.9795 336.953 100.063 337.262 100.231C337.571 100.396 337.805 100.614 337.965 100.888C338.129 101.157 338.211 101.452 338.211 101.772C338.211 102.198 338.11 102.563 337.907 102.868C337.707 103.169 337.44 103.427 337.104 103.642C336.768 103.853 336.395 104.04 335.985 104.204C336.278 104.364 336.541 104.54 336.776 104.731C337.01 104.923 337.196 105.151 337.332 105.417C337.469 105.679 337.537 106.001 337.537 106.384C337.537 106.868 337.416 107.292 337.174 107.655C336.936 108.015 336.602 108.294 336.172 108.493C335.742 108.692 335.246 108.792 334.684 108.792ZM334.731 108.276C335.153 108.276 335.53 108.202 335.862 108.054C336.194 107.901 336.455 107.685 336.647 107.403C336.838 107.118 336.934 106.78 336.934 106.39C336.934 106.058 336.871 105.78 336.746 105.558C336.621 105.331 336.444 105.13 336.213 104.954C335.983 104.778 335.713 104.604 335.405 104.433C334.963 104.569 334.557 104.729 334.186 104.913C333.815 105.093 333.516 105.325 333.289 105.61C333.067 105.892 332.955 106.257 332.955 106.706C332.955 107.198 333.123 107.583 333.459 107.86C333.799 108.138 334.223 108.276 334.731 108.276ZM335.51 103.917C335.928 103.765 336.293 103.593 336.606 103.401C336.922 103.21 337.168 102.985 337.344 102.728C337.524 102.47 337.614 102.165 337.614 101.813C337.614 101.407 337.469 101.087 337.18 100.853C336.895 100.618 336.53 100.501 336.084 100.501C335.737 100.501 335.424 100.567 335.147 100.7C334.873 100.829 334.657 101.019 334.496 101.269C334.336 101.519 334.256 101.827 334.256 102.194C334.256 102.601 334.373 102.937 334.608 103.202C334.842 103.468 335.143 103.706 335.51 103.917ZM338.176 111.493L340.121 102.306H340.614L340.35 103.794H340.385C340.549 103.528 340.748 103.274 340.983 103.032C341.221 102.786 341.492 102.585 341.797 102.429C342.102 102.269 342.44 102.188 342.811 102.188C343.186 102.188 343.508 102.278 343.778 102.458C344.051 102.634 344.262 102.89 344.41 103.226C344.563 103.558 344.639 103.956 344.639 104.421C344.639 104.843 344.594 105.263 344.504 105.681C344.414 106.095 344.283 106.489 344.112 106.864C343.94 107.235 343.723 107.567 343.461 107.86C343.199 108.149 342.897 108.378 342.553 108.546C342.213 108.71 341.83 108.792 341.405 108.792C341.045 108.792 340.744 108.726 340.502 108.593C340.26 108.456 340.067 108.282 339.922 108.071C339.782 107.856 339.68 107.632 339.617 107.397H339.582C339.555 107.612 339.518 107.851 339.471 108.112C339.424 108.374 339.377 108.612 339.33 108.827L338.762 111.493H338.176ZM341.387 108.276C341.731 108.276 342.041 108.204 342.319 108.06C342.596 107.911 342.84 107.71 343.051 107.456C343.266 107.198 343.446 106.903 343.59 106.571C343.735 106.239 343.844 105.89 343.918 105.522C343.992 105.155 344.03 104.784 344.03 104.409C344.03 103.87 343.91 103.452 343.672 103.155C343.434 102.854 343.09 102.704 342.641 102.704C342.403 102.704 342.168 102.755 341.938 102.856C341.711 102.954 341.494 103.095 341.287 103.278C341.084 103.458 340.897 103.671 340.725 103.917C340.553 104.163 340.405 104.433 340.28 104.726C340.155 105.015 340.057 105.321 339.987 105.646C339.916 105.97 339.881 106.298 339.881 106.63C339.881 107.165 340.016 107.573 340.285 107.854C340.555 108.136 340.922 108.276 341.387 108.276ZM344.856 108.675L347.698 105.388L346.274 102.306H346.901L348.09 104.972L350.387 102.306H351.084L348.354 105.417L349.889 108.675H349.262L347.961 105.845L345.559 108.675H344.856Z" fill="#3366FF"/>
<g clip-path="url(#clip2_1153_6391)">
<rect width="75.264" height="14.9261" transform="translate(410.32 62.4814)" fill="white"/>
<line x1="411.32" y1="66.9814" x2="484.32" y2="66.9814" stroke="#3366FF"/>
<line x1="410.82" y1="62.4814" x2="410.82" y2="71.4814" stroke="#3366FF"/>
<line x1="484.82" y1="62.4814" x2="484.82" y2="71.4814" stroke="#3366FF"/>
</g>
<path d="M437.739 108.675L439.057 102.464C439.108 102.226 439.157 102.003 439.204 101.796C439.255 101.585 439.301 101.394 439.344 101.222C439.387 101.046 439.424 100.897 439.456 100.776C439.346 100.878 439.233 100.972 439.116 101.058C439.003 101.14 438.864 101.233 438.7 101.339L437.288 102.271L437.001 101.819L439.632 100.108H440.165L438.342 108.675H437.739ZM444.747 108.792C444.243 108.792 443.825 108.683 443.493 108.464C443.165 108.241 442.919 107.933 442.755 107.538C442.594 107.144 442.514 106.687 442.514 106.167C442.514 105.749 442.557 105.306 442.643 104.837C442.729 104.368 442.854 103.899 443.018 103.431C443.186 102.962 443.389 102.522 443.628 102.112C443.866 101.698 444.137 101.339 444.442 101.034C444.684 100.792 444.948 100.593 445.233 100.437C445.518 100.28 445.821 100.165 446.141 100.091C446.462 100.013 446.792 99.9736 447.132 99.9736C447.342 99.9736 447.548 99.9873 447.747 100.015C447.946 100.042 448.114 100.079 448.251 100.126L448.128 100.659C447.999 100.612 447.846 100.573 447.671 100.542C447.495 100.511 447.299 100.495 447.085 100.495C446.526 100.495 446.001 100.63 445.508 100.899C445.02 101.165 444.583 101.599 444.196 102.2C443.813 102.802 443.505 103.606 443.27 104.614H443.305C443.454 104.396 443.641 104.192 443.868 104.005C444.094 103.813 444.358 103.659 444.659 103.542C444.964 103.421 445.303 103.36 445.678 103.36C446.28 103.36 446.76 103.55 447.12 103.929C447.479 104.308 447.659 104.817 447.659 105.458C447.659 105.915 447.587 106.345 447.442 106.747C447.298 107.149 447.094 107.505 446.833 107.813C446.575 108.118 446.268 108.358 445.913 108.534C445.561 108.706 445.173 108.792 444.747 108.792ZM444.782 108.276C445.13 108.276 445.444 108.198 445.725 108.042C446.007 107.886 446.245 107.675 446.44 107.409C446.639 107.14 446.792 106.841 446.897 106.513C447.007 106.181 447.061 105.843 447.061 105.499C447.061 104.976 446.924 104.573 446.651 104.292C446.382 104.011 446.003 103.87 445.514 103.87C445.116 103.87 444.753 103.956 444.424 104.128C444.1 104.3 443.833 104.511 443.622 104.761C443.411 105.011 443.274 105.253 443.212 105.487C443.192 105.562 443.174 105.642 443.159 105.728C443.143 105.813 443.132 105.903 443.124 105.997C443.116 106.091 443.112 106.187 443.112 106.284C443.112 106.519 443.137 106.753 443.188 106.987C443.243 107.222 443.333 107.437 443.458 107.632C443.583 107.827 443.753 107.983 443.967 108.101C444.182 108.218 444.454 108.276 444.782 108.276ZM448.104 111.493L450.049 102.306H450.542L450.278 103.794H450.313C450.477 103.528 450.676 103.274 450.911 103.032C451.149 102.786 451.421 102.585 451.725 102.429C452.03 102.269 452.368 102.188 452.739 102.188C453.114 102.188 453.436 102.278 453.706 102.458C453.979 102.634 454.19 102.89 454.339 103.226C454.491 103.558 454.567 103.956 454.567 104.421C454.567 104.843 454.522 105.263 454.432 105.681C454.342 106.095 454.212 106.489 454.04 106.864C453.868 107.235 453.651 107.567 453.389 107.86C453.128 108.149 452.825 108.378 452.481 108.546C452.141 108.71 451.758 108.792 451.333 108.792C450.973 108.792 450.673 108.726 450.43 108.593C450.188 108.456 449.995 108.282 449.85 108.071C449.71 107.856 449.608 107.632 449.546 107.397H449.51C449.483 107.612 449.446 107.851 449.399 108.112C449.352 108.374 449.305 108.612 449.258 108.827L448.69 111.493H448.104ZM451.315 108.276C451.659 108.276 451.969 108.204 452.247 108.06C452.524 107.911 452.768 107.71 452.979 107.456C453.194 107.198 453.374 106.903 453.518 106.571C453.663 106.239 453.772 105.89 453.846 105.522C453.921 105.155 453.958 104.784 453.958 104.409C453.958 103.87 453.839 103.452 453.6 103.155C453.362 102.854 453.018 102.704 452.569 102.704C452.331 102.704 452.096 102.755 451.866 102.856C451.639 102.954 451.423 103.095 451.216 103.278C451.012 103.458 450.825 103.671 450.653 103.917C450.481 104.163 450.333 104.433 450.208 104.726C450.083 105.015 449.985 105.321 449.915 105.646C449.844 105.97 449.809 106.298 449.809 106.63C449.809 107.165 449.944 107.573 450.214 107.854C450.483 108.136 450.85 108.276 451.315 108.276ZM454.784 108.675L457.626 105.388L456.202 102.306H456.829L458.018 104.972L460.315 102.306H461.012L458.282 105.417L459.817 108.675H459.19L457.889 105.845L455.487 108.675H454.784Z" fill="#3366FF"/>
<path fill-rule="evenodd" clip-rule="evenodd" d="M35.568 47.5557H44.9761V37.6047H35.568V47.5557ZM46.544 49.214V49.2142H34V47.5557H34V37.6047V35.9463H35.568H44.9761H46.544H46.5441V49.214H46.544Z" fill="#D6E0FF"/>
<path fill-rule="evenodd" clip-rule="evenodd" d="M46.5443 35.9463H57.5206H59.0883H59.0886V49.214H59.0884V49.2142H46.5444V47.5557H57.5206V37.6047H46.5443V35.9463Z" fill="#D6E0FF"/>
<path fill-rule="evenodd" clip-rule="evenodd" d="M59.088 35.9463H70.0644H71.632H71.6324V49.214H71.6321V49.2142H59.0881V47.5557H70.0644V37.6047H59.088V35.9463Z" fill="#D6E0FF"/>
<path fill-rule="evenodd" clip-rule="evenodd" d="M71.6318 35.9463H82.6082H84.1758H84.1762V49.214H84.1759V49.2142H71.6319V47.5557H82.6082V37.6047H71.6318V35.9463Z" fill="#D6E0FF"/>
<path fill-rule="evenodd" clip-rule="evenodd" d="M84.1764 35.9463H95.1527H96.7204H96.7207V49.214H96.7205V49.2142H84.1765V47.5557H95.1527V37.6047H84.1764V35.9463Z" fill="#D6E0FF"/>
<path fill-rule="evenodd" clip-rule="evenodd" d="M96.7203 35.9463H107.697H109.264H109.265V49.214H109.264V49.2142H96.7203V47.5557H107.697V37.6047H96.7203V35.9463Z" fill="#D6E0FF"/>
<path fill-rule="evenodd" clip-rule="evenodd" d="M109.265 35.9463H120.241H121.809H121.809V49.214H121.809V49.2142H109.265V47.5557H120.241V37.6047H109.265V35.9463Z" fill="#D6E0FF"/>
<path fill-rule="evenodd" clip-rule="evenodd" d="M121.808 35.9463H132.785H134.352H134.353V49.214H134.352V49.2142H121.808V47.5557H132.785V37.6047H121.808V35.9463Z" fill="#D6E0FF"/>
<path fill-rule="evenodd" clip-rule="evenodd" d="M34 49.2134H35.568V60.8228H44.9761V49.2134H46.5441V62.4811H46.544V62.4813H34V60.8228H34V49.2134Z" fill="#D6E0FF"/>
<path fill-rule="evenodd" clip-rule="evenodd" d="M59.0885 49.2134H57.5205V60.8228H46.5443V62.4813H59.0883V62.4811H59.0885V49.2134Z" fill="#D6E0FF"/>
<path fill-rule="evenodd" clip-rule="evenodd" d="M71.6324 49.2134H70.0644V60.8228H59.088V62.4813H71.632V62.4811H71.6324V49.2134Z" fill="#D6E0FF"/>
<path fill-rule="evenodd" clip-rule="evenodd" d="M84.1762 49.2134H82.6082V60.8228H71.6318V62.4813H84.1758V62.4811H84.1762V49.2134Z" fill="#D6E0FF"/>
<path fill-rule="evenodd" clip-rule="evenodd" d="M96.7206 49.2134H95.1526V60.8228H84.1764V62.4813H96.7204V62.4811H96.7206V49.2134Z" fill="#D6E0FF"/>
<path fill-rule="evenodd" clip-rule="evenodd" d="M109.265 49.2134H107.697V60.8228H96.7203V62.4812H109.264V62.4811H109.265V49.2134Z" fill="#D6E0FF"/>
<path fill-rule="evenodd" clip-rule="evenodd" d="M121.808 49.2134H120.24V60.8228H109.264V62.4813H121.808V62.4811H121.808V49.2134Z" fill="#D6E0FF"/>
<path fill-rule="evenodd" clip-rule="evenodd" d="M134.353 49.2134H132.785V60.8228H121.808V62.4812H134.352V62.4811H134.353V49.2134Z" fill="#D6E0FF"/>
<path fill-rule="evenodd" clip-rule="evenodd" d="M34 62.4805H35.568V74.09H44.9761V62.4805H46.5441V75.7482H46.544V75.7484H34V74.09H34V62.4805Z" fill="#D6E0FF"/>
<path fill-rule="evenodd" clip-rule="evenodd" d="M59.0885 62.4805H57.5205V74.09H46.5443V75.7484H59.0883V75.7482H59.0885V62.4805Z" fill="#D6E0FF"/>
<path fill-rule="evenodd" clip-rule="evenodd" d="M71.6324 62.4805H70.0644V74.09H59.088V75.7484H71.632V75.7482H71.6324V62.4805Z" fill="#D6E0FF"/>
<path fill-rule="evenodd" clip-rule="evenodd" d="M84.1762 62.4805H82.6082V74.09H71.6318V75.7484H84.1758V75.7482H84.1762V62.4805Z" fill="#D6E0FF"/>
<path fill-rule="evenodd" clip-rule="evenodd" d="M96.7206 62.4805H95.1526V74.09H84.1764V75.7484H96.7204V75.7482H96.7206V62.4805Z" fill="#D6E0FF"/>
<path fill-rule="evenodd" clip-rule="evenodd" d="M109.265 62.4805H107.697V74.0899H96.7203V75.7483H109.264V75.7482H109.265V62.4805Z" fill="#D6E0FF"/>
<path fill-rule="evenodd" clip-rule="evenodd" d="M121.809 62.4805H120.241V74.09H109.265V75.7484H121.809V75.7482H121.809V62.4805Z" fill="#D6E0FF"/>
<path fill-rule="evenodd" clip-rule="evenodd" d="M134.353 62.4805H132.785V74.0899H121.808V75.7483H134.352V75.7482H134.353V62.4805Z" fill="#D6E0FF"/>
<path fill-rule="evenodd" clip-rule="evenodd" d="M34 75.748H35.568V87.3574H44.9761V75.748H46.5441V89.0157H46.544V89.0158H34V87.3574H34V75.748Z" fill="#D6E0FF"/>
<path fill-rule="evenodd" clip-rule="evenodd" d="M59.0885 75.748H57.5205V87.3574H46.5443V89.0158H59.0883V89.0157H59.0885V75.748Z" fill="#D6E0FF"/>
<path fill-rule="evenodd" clip-rule="evenodd" d="M71.6324 75.748H70.0644V87.3574H59.088V89.0158H71.632V89.0157H71.6324V75.748Z" fill="#D6E0FF"/>
<path fill-rule="evenodd" clip-rule="evenodd" d="M84.1762 75.748H82.6082V87.3574H71.6318V89.0158H84.1758V89.0157H84.1762V75.748Z" fill="#D6E0FF"/>
<path fill-rule="evenodd" clip-rule="evenodd" d="M96.7206 75.748H95.1526V87.3574H84.1764V89.0158H96.7204V89.0157H96.7206V75.748Z" fill="#D6E0FF"/>
<path fill-rule="evenodd" clip-rule="evenodd" d="M109.265 75.748H107.697V87.3575H96.7203V89.0159H109.264V89.0157H109.265V75.748Z" fill="#D6E0FF"/>
<path fill-rule="evenodd" clip-rule="evenodd" d="M121.809 75.748H120.241V87.3574H109.265V89.0158H121.809V89.0157H121.809V75.748Z" fill="#D6E0FF"/>
<path fill-rule="evenodd" clip-rule="evenodd" d="M134.353 75.748H132.785V87.3575H121.808V89.0159H134.352V89.0157H134.353V75.748Z" fill="#D6E0FF"/>
<path fill-rule="evenodd" clip-rule="evenodd" d="M34 89.0171H35.568V100.626H44.9761V89.0171H46.5441V102.285H46.544V102.285H34V100.626H34V89.0171Z" fill="#D6E0FF"/>
<path fill-rule="evenodd" clip-rule="evenodd" d="M59.0885 89.0171H57.5205V100.626H46.5443V102.285H59.0883V102.285H59.0885V89.0171Z" fill="#D6E0FF"/>
<path fill-rule="evenodd" clip-rule="evenodd" d="M71.6324 89.0171H70.0644V100.626H59.088V102.285H71.632V102.285H71.6324V89.0171Z" fill="#D6E0FF"/>
<path fill-rule="evenodd" clip-rule="evenodd" d="M84.1762 89.0171H82.6082V100.626H71.6318V102.285H84.1758V102.285H84.1762V89.0171Z" fill="#D6E0FF"/>
<path fill-rule="evenodd" clip-rule="evenodd" d="M96.7206 89.0171H95.1526V100.626H84.1764V102.285H96.7204V102.285H96.7206V89.0171Z" fill="#D6E0FF"/>
<path fill-rule="evenodd" clip-rule="evenodd" d="M109.265 89.0171H107.697V100.626H96.7203V102.285H109.264V102.285H109.265V89.0171Z" fill="#D6E0FF"/>
<path fill-rule="evenodd" clip-rule="evenodd" d="M121.809 89.0171H120.241V100.626H109.265V102.285H121.809V102.285H121.809V89.0171Z" fill="#D6E0FF"/>
<path fill-rule="evenodd" clip-rule="evenodd" d="M134.353 89.0171H132.785V100.626H121.808V102.285H134.352V102.285H134.353V89.0171Z" fill="#D6E0FF"/>
<path fill-rule="evenodd" clip-rule="evenodd" d="M34 102.284H35.568V113.894H44.9761V102.284H46.5441V115.552H46.544V115.552H34V113.894H34V102.284Z" fill="#D6E0FF"/>
<path fill-rule="evenodd" clip-rule="evenodd" d="M59.0885 102.284H57.5205V113.894H46.5443V115.552H59.0883V115.552H59.0885V102.284Z" fill="#D6E0FF"/>
<path fill-rule="evenodd" clip-rule="evenodd" d="M71.6324 102.284H70.0644V113.894H59.088V115.552H71.632V115.552H71.6324V102.284Z" fill="#D6E0FF"/>
<path fill-rule="evenodd" clip-rule="evenodd" d="M84.1762 102.284H82.6082V113.894H71.6318V115.552H84.1758V115.552H84.1762V102.284Z" fill="#D6E0FF"/>
<path fill-rule="evenodd" clip-rule="evenodd" d="M96.7206 102.284H95.1526V113.894H84.1764V115.552H96.7204V115.552H96.7206V102.284Z" fill="#D6E0FF"/>
<path fill-rule="evenodd" clip-rule="evenodd" d="M109.265 102.284H107.697V113.894H96.7203V115.552H109.264V115.552H109.265V102.284Z" fill="#D6E0FF"/>
<path fill-rule="evenodd" clip-rule="evenodd" d="M121.808 102.284H120.24V113.894H109.264V115.552H121.808V115.552H121.808V102.284Z" fill="#D6E0FF"/>
<path fill-rule="evenodd" clip-rule="evenodd" d="M134.353 102.284H132.785V113.894H121.808V115.552H134.352V115.552H134.353V102.284Z" fill="#D6E0FF"/>
<path fill-rule="evenodd" clip-rule="evenodd" d="M34 115.551H35.568V127.161H44.9761V115.551H46.5441V128.819H46.544V128.819H34V127.161H34V115.551Z" fill="#D6E0FF"/>
<path fill-rule="evenodd" clip-rule="evenodd" d="M59.0885 115.551H57.5205V127.161H46.5443V128.819H59.0883V128.819H59.0885V115.551Z" fill="#D6E0FF"/>
<path fill-rule="evenodd" clip-rule="evenodd" d="M71.6324 115.551H70.0644V127.161H59.088V128.819H71.632V128.819H71.6324V115.551Z" fill="#D6E0FF"/>
<path fill-rule="evenodd" clip-rule="evenodd" d="M84.1762 115.551H82.6082V127.161H71.6318V128.819H84.1758V128.819H84.1762V115.551Z" fill="#D6E0FF"/>
<path fill-rule="evenodd" clip-rule="evenodd" d="M96.7206 115.551H95.1526V127.161H84.1764V128.819H96.7204V128.819H96.7206V115.551Z" fill="#D6E0FF"/>
<path fill-rule="evenodd" clip-rule="evenodd" d="M109.265 115.551H107.697V127.161H96.7203V128.819H109.264V128.819H109.265V115.551Z" fill="#D6E0FF"/>
<path fill-rule="evenodd" clip-rule="evenodd" d="M121.809 115.551H120.241V127.161H109.265V128.819H121.809V128.819H121.809V115.551Z" fill="#D6E0FF"/>
<path fill-rule="evenodd" clip-rule="evenodd" d="M134.353 115.551H132.785V127.161H121.808V128.819H134.352V128.819H134.353V115.551Z" fill="#D6E0FF"/>
<path fill-rule="evenodd" clip-rule="evenodd" d="M34 128.82H35.568V140.43H44.9764V128.82H46.5444V142.088H46.544V142.088H34V142.088V140.43V128.82Z" fill="#D6E0FF"/>
<path fill-rule="evenodd" clip-rule="evenodd" d="M59.089 128.82H57.521V140.43H46.5447V142.088H59.0887V142.088H59.089V128.82Z" fill="#D6E0FF"/>
<path fill-rule="evenodd" clip-rule="evenodd" d="M71.6327 128.82H70.0647V140.43H59.0883V142.088H71.6323V142.088H71.6327V128.82Z" fill="#D6E0FF"/>
<path fill-rule="evenodd" clip-rule="evenodd" d="M84.1762 128.82H82.6082V140.43H71.6318V142.088H84.1758V142.088H84.1762V128.82Z" fill="#D6E0FF"/>
<path fill-rule="evenodd" clip-rule="evenodd" d="M96.721 128.82H95.153V140.43H84.1768V142.088H96.7208V142.088H96.721V128.82Z" fill="#D6E0FF"/>
<path fill-rule="evenodd" clip-rule="evenodd" d="M109.265 128.82H107.697V140.43H96.7203V142.088H109.264V142.088H109.265V128.82Z" fill="#D6E0FF"/>
<path fill-rule="evenodd" clip-rule="evenodd" d="M121.809 128.82H120.241V140.43H109.265V142.088H121.809V142.088H121.809V128.82Z" fill="#D6E0FF"/>
<path fill-rule="evenodd" clip-rule="evenodd" d="M134.353 128.82H132.785V140.43H121.809V142.088H134.353V142.088H134.353V128.82Z" fill="#D6E0FF"/>
<path d="M40.2943 5.95215C41.584 5.95215 42.5251 6.21647 43.1176 6.74512C43.71 7.27376 44.0062 8.01432 44.0062 8.9668C44.0062 9.39974 43.9379 9.81217 43.8011 10.2041C43.669 10.5915 43.4502 10.9355 43.1449 11.2363C42.8396 11.5326 42.4362 11.7673 41.9349 11.9404C41.4382 12.1136 40.8252 12.2002 40.0961 12.2002H39.0297V15.9463H37.389V5.95215H40.2943ZM40.1849 7.3125H39.0297V10.833H39.9252C40.4401 10.833 40.8776 10.7738 41.2377 10.6553C41.5977 10.5322 41.8711 10.3385 42.058 10.0742C42.2448 9.8099 42.3383 9.46126 42.3383 9.02832C42.3383 8.44954 42.1628 8.01888 41.8119 7.73633C41.4655 7.45378 40.9232 7.3125 40.1849 7.3125ZM49.6732 8.23535C49.8008 8.23535 49.9398 8.24219 50.0902 8.25586C50.2406 8.26953 50.3705 8.28776 50.4799 8.31055L50.3295 9.81445C50.2338 9.78711 50.1153 9.7666 49.974 9.75293C49.8373 9.73926 49.7142 9.73242 49.6049 9.73242C49.3177 9.73242 49.0443 9.78027 48.7845 9.87598C48.5248 9.96712 48.2946 10.1084 48.0941 10.2998C47.8936 10.4867 47.7364 10.7214 47.6224 11.0039C47.5085 11.2865 47.4515 11.6146 47.4515 11.9883V15.9463H45.8383V8.37891H47.0961L47.3148 9.71191H47.39C47.5404 9.44303 47.7273 9.19694 47.9506 8.97363C48.1739 8.75033 48.4291 8.57259 48.7162 8.44043C49.0079 8.30371 49.3269 8.23535 49.6732 8.23535ZM53.4877 8.37891V15.9463H51.8812V8.37891H53.4877ZM52.6947 5.48047C52.9408 5.48047 53.1527 5.54655 53.3304 5.67871C53.5127 5.81087 53.6039 6.03874 53.6039 6.3623C53.6039 6.68132 53.5127 6.90918 53.3304 7.0459C53.1527 7.17806 52.9408 7.24414 52.6947 7.24414C52.4395 7.24414 52.223 7.17806 52.0453 7.0459C51.8721 6.90918 51.7855 6.68132 51.7855 6.3623C51.7855 6.03874 51.8721 5.81087 52.0453 5.67871C52.223 5.54655 52.4395 5.48047 52.6947 5.48047ZM64.3431 8.23535C65.1908 8.23535 65.8288 8.4541 66.2572 8.8916C66.6901 9.3291 66.9066 10.0309 66.9066 10.9971V15.9463H65.3002V11.2842C65.3002 10.71 65.1885 10.277 64.9652 9.98535C64.7419 9.69368 64.4024 9.54785 63.9467 9.54785C63.3086 9.54785 62.8483 9.75293 62.5658 10.1631C62.2878 10.5687 62.1488 11.1589 62.1488 11.9336V15.9463H60.5424V11.2842C60.5424 10.9014 60.4922 10.5824 60.392 10.3271C60.2963 10.0674 60.1482 9.8737 59.9476 9.74609C59.7471 9.61393 59.4942 9.54785 59.1888 9.54785C58.7468 9.54785 58.3936 9.64811 58.1293 9.84863C57.8695 10.0492 57.6827 10.3454 57.5687 10.7373C57.4548 11.1247 57.3978 11.6009 57.3978 12.166V15.9463H55.7914V8.37891H57.0424L57.2679 9.39746H57.3568C57.5118 9.13314 57.7032 8.91667 57.931 8.74805C58.1635 8.57487 58.4209 8.44727 58.7035 8.36523C58.986 8.27865 59.28 8.23535 59.5853 8.23535C60.1504 8.23535 60.6267 8.33561 61.014 8.53613C61.4014 8.7321 61.6908 9.03288 61.8822 9.43848H62.0052C62.2422 9.02832 62.5726 8.72526 62.9965 8.5293C63.4203 8.33333 63.8692 8.23535 64.3431 8.23535ZM72.1156 8.23535C73.0726 8.23535 73.795 8.44727 74.2826 8.87109C74.7748 9.29492 75.0209 9.95573 75.0209 10.8535V15.9463H73.8793L73.5717 14.873H73.517C73.3028 15.1465 73.0817 15.3721 72.8539 15.5498C72.626 15.7275 72.3617 15.8597 72.0609 15.9463C71.7647 16.0374 71.4024 16.083 70.974 16.083C70.5228 16.083 70.1195 16.001 69.764 15.8369C69.4086 15.6683 69.1283 15.4131 68.9232 15.0713C68.7181 14.7295 68.6156 14.2965 68.6156 13.7725C68.6156 12.9932 68.905 12.4076 69.4838 12.0156C70.0671 11.6237 70.9467 11.4072 72.1224 11.3662L73.4349 11.3184V10.9219C73.4349 10.3978 73.3119 10.0241 73.0658 9.80078C72.8243 9.57747 72.4825 9.46582 72.0404 9.46582C71.6622 9.46582 71.2953 9.52051 70.9398 9.62988C70.5844 9.73926 70.238 9.8737 69.9008 10.0332L69.3812 8.89844C69.7504 8.70247 70.1696 8.54297 70.639 8.41992C71.113 8.29688 71.6052 8.23535 72.1156 8.23535ZM73.4281 12.3301L72.4506 12.3643C71.6485 12.3916 71.0857 12.5283 70.7621 12.7744C70.4385 13.0205 70.2767 13.3577 70.2767 13.7861C70.2767 14.1598 70.3884 14.4333 70.6117 14.6064C70.835 14.7751 71.1289 14.8594 71.4935 14.8594C72.0495 14.8594 72.5098 14.7021 72.8744 14.3877C73.2435 14.0687 73.4281 13.6016 73.4281 12.9863V12.3301ZM81.1049 8.23535C81.2325 8.23535 81.3715 8.24219 81.5219 8.25586C81.6722 8.26953 81.8021 8.28776 81.9115 8.31055L81.7611 9.81445C81.6654 9.78711 81.5469 9.7666 81.4056 9.75293C81.2689 9.73926 81.1459 9.73242 81.0365 9.73242C80.7494 9.73242 80.476 9.78027 80.2162 9.87598C79.9564 9.96712 79.7263 10.1084 79.5258 10.2998C79.3252 10.4867 79.168 10.7214 79.0541 11.0039C78.9401 11.2865 78.8832 11.6146 78.8832 11.9883V15.9463H77.2699V8.37891H78.5277L78.7465 9.71191H78.8217C78.972 9.44303 79.1589 9.19694 79.3822 8.97363C79.6055 8.75033 79.8607 8.57259 80.1478 8.44043C80.4395 8.30371 80.7585 8.23535 81.1049 8.23535ZM82.1713 8.37891H83.9213L85.473 12.6992C85.5414 12.8952 85.6029 13.0889 85.6576 13.2803C85.7168 13.4671 85.767 13.6517 85.808 13.834C85.8536 14.0163 85.89 14.1986 85.9174 14.3809H85.9584C86.0039 14.1439 86.0677 13.8796 86.1498 13.5879C86.2364 13.2917 86.3321 12.9954 86.4369 12.6992L87.9271 8.37891H89.6566L86.4095 16.9854C86.2227 17.4775 85.9926 17.8968 85.7191 18.2432C85.4502 18.5941 85.1312 18.8584 84.7621 19.0361C84.3929 19.2184 83.9714 19.3096 83.4974 19.3096C83.2696 19.3096 83.0713 19.2959 82.9027 19.2686C82.7341 19.2458 82.5905 19.2207 82.472 19.1934V17.9082C82.5677 17.931 82.6885 17.9515 82.8344 17.9697C82.9802 17.988 83.1306 17.9971 83.2855 17.9971C83.5726 17.9971 83.821 17.9401 84.0306 17.8262C84.2403 17.7122 84.418 17.5505 84.5638 17.3408C84.7097 17.1357 84.8304 16.901 84.9261 16.6367L85.1927 15.9258L82.1713 8.37891Z" fill="#474D66"/>
<defs>
<clipPath id="clip0_1153_6391">
<rect width="50.176" height="14.9261" fill="white" transform="translate(222.161 62.4814)"/>
</clipPath>
<clipPath id="clip1_1153_6391">
<rect width="62.72" height="14.9261" fill="white" transform="translate(309.968 62.4814)"/>
</clipPath>
<clipPath id="clip2_1153_6391">
<rect width="75.264" height="14.9261" fill="white" transform="translate(410.32 62.4814)"/>
</clipPath>
</defs>
</svg>
