<svg width="520" height="66" viewBox="0 0 520 66" fill="none" xmlns="http://www.w3.org/2000/svg">
<rect x="9.09485" y="0.0883789" width="3.13236" height="30.498" fill="#D6E0FF"/>
<path d="M6.72693 60.4302H5.56677V62.311H4.2074V60.4302H0.310913V59.3872L4.22498 53.7212H5.56677V59.2876H6.72693V60.4302ZM4.2074 59.2876V57.1606C4.2074 56.9849 4.20935 56.8071 4.21326 56.6274C4.22107 56.4438 4.22888 56.2681 4.23669 56.1001C4.24451 55.9321 4.25232 55.7778 4.26013 55.6372C4.26794 55.4927 4.2738 55.3735 4.27771 55.2798H4.23083C4.15662 55.436 4.07458 55.5962 3.98474 55.7603C3.8949 55.9204 3.79919 56.0767 3.69763 56.229L1.58826 59.2876H4.2074ZM11.2562 55.7017C12.0258 55.7017 12.6429 55.9829 13.1078 56.5454C13.5765 57.1079 13.8109 57.9438 13.8109 59.0532C13.8109 59.7876 13.7015 60.4067 13.4828 60.9106C13.2679 61.4106 12.9652 61.7896 12.5746 62.0474C12.1879 62.3013 11.7367 62.4282 11.2211 62.4282C10.8929 62.4282 10.6078 62.3853 10.3656 62.2993C10.1234 62.2134 9.91638 62.1021 9.74451 61.9653C9.57263 61.8247 9.4281 61.6724 9.31091 61.5083H9.22888C9.24841 61.6646 9.26599 61.8384 9.28162 62.0298C9.30115 62.2173 9.31091 62.3892 9.31091 62.5454V65.188H7.9281V55.8247H9.0531L9.24646 56.7212H9.31091C9.43201 56.5376 9.57849 56.3677 9.75037 56.2114C9.92615 56.0552 10.1371 55.9321 10.3832 55.8423C10.6332 55.7485 10.9242 55.7017 11.2562 55.7017ZM10.8871 56.8267C10.5082 56.8267 10.2035 56.9028 9.97302 57.0552C9.74646 57.2036 9.58044 57.4282 9.47498 57.729C9.37341 58.0298 9.31873 58.4067 9.31091 58.8599V59.0532C9.31091 59.5337 9.35974 59.9419 9.4574 60.2778C9.55896 60.6099 9.72498 60.8638 9.95544 61.0396C10.1898 61.2114 10.5062 61.2974 10.9047 61.2974C11.2406 61.2974 11.5179 61.2056 11.7367 61.022C11.9594 60.8384 12.1254 60.5767 12.2347 60.2368C12.3441 59.897 12.3988 59.4966 12.3988 59.0356C12.3988 58.3364 12.2738 57.7935 12.0238 57.4067C11.7777 57.02 11.3988 56.8267 10.8871 56.8267ZM16.8402 58.9946L14.6722 55.8247H16.2426L17.725 58.104L19.2133 55.8247H20.7777L18.598 58.9946L20.889 62.311H19.3129L17.725 59.8794L16.1312 62.311H14.5668L16.8402 58.9946Z" fill="#474D66"/>
<rect x="413.599" y="0.0883789" width="37.5883" height="30.498" fill="#D6E0FF"/>
<path d="M423.25 60.4302H422.09V62.311H420.73V60.4302H416.834V59.3872L420.748 53.7212H422.09V59.2876H423.25V60.4302ZM420.73 59.2876V57.1606C420.73 56.9849 420.732 56.8071 420.736 56.6274C420.744 56.4438 420.752 56.2681 420.76 56.1001C420.767 55.9321 420.775 55.7778 420.783 55.6372C420.791 55.4927 420.797 55.3735 420.801 55.2798H420.754C420.679 55.436 420.597 55.5962 420.508 55.7603C420.418 55.9204 420.322 56.0767 420.22 56.229L418.111 59.2876H420.73ZM426.894 53.6274C427.39 53.6274 427.838 53.7056 428.236 53.8618C428.635 54.0142 428.951 54.2427 429.185 54.5474C429.42 54.8521 429.537 55.229 429.537 55.6782C429.537 56.0259 429.465 56.3286 429.32 56.5864C429.179 56.8442 428.988 57.0708 428.746 57.2661C428.504 57.4575 428.232 57.6274 427.931 57.7759C428.267 57.9399 428.576 58.1294 428.857 58.3442C429.142 58.5552 429.371 58.8032 429.543 59.0884C429.719 59.3735 429.806 59.7075 429.806 60.0903C429.806 60.5708 429.683 60.9868 429.437 61.3384C429.195 61.686 428.857 61.9556 428.424 62.147C427.99 62.3345 427.484 62.4282 426.906 62.4282C426.285 62.4282 425.756 62.3364 425.318 62.1528C424.881 61.9692 424.549 61.7075 424.322 61.3677C424.095 61.0239 423.982 60.6138 423.982 60.1372C423.982 59.7427 424.06 59.4009 424.217 59.1118C424.373 58.8228 424.582 58.5728 424.844 58.3618C425.109 58.1509 425.4 57.9731 425.717 57.8286C425.447 57.6685 425.201 57.4888 424.978 57.2896C424.756 57.0864 424.578 56.854 424.445 56.5923C424.316 56.3267 424.252 56.02 424.252 55.6724C424.252 55.2271 424.371 54.854 424.609 54.5532C424.847 54.2485 425.166 54.0181 425.564 53.8618C425.967 53.7056 426.41 53.6274 426.894 53.6274ZM425.295 60.0845C425.295 60.4595 425.427 60.7681 425.693 61.0103C425.959 61.2524 426.355 61.3735 426.883 61.3735C427.406 61.3735 427.804 61.2544 428.078 61.0161C428.351 60.7778 428.488 60.4634 428.488 60.0728C428.488 59.8228 428.418 59.6021 428.277 59.4106C428.14 59.2192 427.955 59.0493 427.72 58.9009C427.49 58.7485 427.234 58.6079 426.953 58.479L426.765 58.4028C426.461 58.5317 426.199 58.6782 425.98 58.8423C425.761 59.0024 425.592 59.1841 425.47 59.3872C425.353 59.5903 425.295 59.8228 425.295 60.0845ZM426.883 54.688C426.504 54.688 426.191 54.7817 425.945 54.9692C425.703 55.1528 425.582 55.4185 425.582 55.7661C425.582 56.0122 425.64 56.2231 425.758 56.3989C425.879 56.5747 426.041 56.7271 426.244 56.856C426.447 56.981 426.672 57.0981 426.918 57.2075C427.156 57.1021 427.371 56.9868 427.562 56.8618C427.758 56.7329 427.912 56.5806 428.025 56.4048C428.142 56.2251 428.201 56.0103 428.201 55.7603C428.201 55.4165 428.078 55.1528 427.832 54.9692C427.59 54.7817 427.273 54.688 426.883 54.688ZM434.646 55.7017C435.416 55.7017 436.033 55.9829 436.498 56.5454C436.967 57.1079 437.201 57.9438 437.201 59.0532C437.201 59.7876 437.092 60.4067 436.873 60.9106C436.658 61.4106 436.355 61.7896 435.965 62.0474C435.578 62.3013 435.127 62.4282 434.611 62.4282C434.283 62.4282 433.998 62.3853 433.756 62.2993C433.513 62.2134 433.306 62.1021 433.135 61.9653C432.963 61.8247 432.818 61.6724 432.701 61.5083H432.619C432.638 61.6646 432.656 61.8384 432.672 62.0298C432.691 62.2173 432.701 62.3892 432.701 62.5454V65.188H431.318V55.8247H432.443L432.636 56.7212H432.701C432.822 56.5376 432.969 56.3677 433.14 56.2114C433.316 56.0552 433.527 55.9321 433.773 55.8423C434.023 55.7485 434.314 55.7017 434.646 55.7017ZM434.277 56.8267C433.898 56.8267 433.594 56.9028 433.363 57.0552C433.136 57.2036 432.97 57.4282 432.865 57.729C432.763 58.0298 432.709 58.4067 432.701 58.8599V59.0532C432.701 59.5337 432.75 59.9419 432.847 60.2778C432.949 60.6099 433.115 60.8638 433.345 61.0396C433.58 61.2114 433.896 61.2974 434.295 61.2974C434.631 61.2974 434.908 61.2056 435.127 61.022C435.349 60.8384 435.515 60.5767 435.625 60.2368C435.734 59.897 435.789 59.4966 435.789 59.0356C435.789 58.3364 435.664 57.7935 435.414 57.4067C435.168 57.02 434.789 56.8267 434.277 56.8267ZM440.23 58.9946L438.062 55.8247H439.633L441.115 58.104L442.603 55.8247H444.168L441.988 58.9946L444.279 62.311H442.703L441.115 59.8794L439.521 62.311H437.957L440.23 58.9946Z" fill="#474D66"/>
<rect x="52.6422" y="0.0883789" width="6.26471" height="30.498" fill="#D6E0FF"/>
<path d="M49.5074 53.6274C50.0035 53.6274 50.4508 53.7056 50.8492 53.8618C51.2477 54.0142 51.5641 54.2427 51.7985 54.5474C52.0328 54.8521 52.15 55.229 52.15 55.6782C52.15 56.0259 52.0778 56.3286 51.9332 56.5864C51.7926 56.8442 51.6012 57.0708 51.359 57.2661C51.1168 57.4575 50.8453 57.6274 50.5446 57.7759C50.8805 57.9399 51.1891 58.1294 51.4703 58.3442C51.7555 58.5552 51.984 58.8032 52.1559 59.0884C52.3317 59.3735 52.4196 59.7075 52.4196 60.0903C52.4196 60.5708 52.2965 60.9868 52.0504 61.3384C51.8082 61.686 51.4703 61.9556 51.0367 62.147C50.6031 62.3345 50.0973 62.4282 49.5192 62.4282C48.8981 62.4282 48.3688 62.3364 47.9313 62.1528C47.4938 61.9692 47.1617 61.7075 46.9352 61.3677C46.7086 61.0239 46.5953 60.6138 46.5953 60.1372C46.5953 59.7427 46.6735 59.4009 46.8297 59.1118C46.986 58.8228 47.1949 58.5728 47.4567 58.3618C47.7223 58.1509 48.0133 57.9731 48.3297 57.8286C48.0602 57.6685 47.8141 57.4888 47.5914 57.2896C47.3688 57.0864 47.191 56.854 47.0582 56.5923C46.9293 56.3267 46.8649 56.02 46.8649 55.6724C46.8649 55.2271 46.984 54.854 47.2223 54.5532C47.4606 54.2485 47.7789 54.0181 48.1774 53.8618C48.5797 53.7056 49.0231 53.6274 49.5074 53.6274ZM47.9078 60.0845C47.9078 60.4595 48.0406 60.7681 48.3063 61.0103C48.5719 61.2524 48.9684 61.3735 49.4957 61.3735C50.0192 61.3735 50.4176 61.2544 50.691 61.0161C50.9645 60.7778 51.1012 60.4634 51.1012 60.0728C51.1012 59.8228 51.0309 59.6021 50.8903 59.4106C50.7535 59.2192 50.568 59.0493 50.3336 58.9009C50.1031 58.7485 49.8473 58.6079 49.566 58.479L49.3785 58.4028C49.0739 58.5317 48.8121 58.6782 48.5934 58.8423C48.3746 59.0024 48.2047 59.1841 48.0836 59.3872C47.9664 59.5903 47.9078 59.8228 47.9078 60.0845ZM49.4957 54.688C49.1168 54.688 48.8043 54.7817 48.5582 54.9692C48.316 55.1528 48.1949 55.4185 48.1949 55.7661C48.1949 56.0122 48.2535 56.2231 48.3707 56.3989C48.4918 56.5747 48.6539 56.7271 48.8571 56.856C49.0602 56.981 49.2848 57.0981 49.5309 57.2075C49.7692 57.1021 49.984 56.9868 50.1754 56.8618C50.3707 56.7329 50.525 56.5806 50.6383 56.4048C50.7555 56.2251 50.8141 56.0103 50.8141 55.7603C50.8141 55.4165 50.691 55.1528 50.4449 54.9692C50.2028 54.7817 49.8864 54.688 49.4957 54.688ZM57.2594 55.7017C58.0289 55.7017 58.6461 55.9829 59.111 56.5454C59.5797 57.1079 59.8141 57.9438 59.8141 59.0532C59.8141 59.7876 59.7047 60.4067 59.486 60.9106C59.2711 61.4106 58.9684 61.7896 58.5778 62.0474C58.191 62.3013 57.7399 62.4282 57.2242 62.4282C56.8961 62.4282 56.611 62.3853 56.3688 62.2993C56.1266 62.2134 55.9196 62.1021 55.7477 61.9653C55.5758 61.8247 55.4313 61.6724 55.3141 61.5083H55.2321C55.2516 61.6646 55.2692 61.8384 55.2848 62.0298C55.3043 62.2173 55.3141 62.3892 55.3141 62.5454V65.188H53.9313V55.8247H55.0563L55.2496 56.7212H55.3141C55.4352 56.5376 55.5817 56.3677 55.7535 56.2114C55.9293 56.0552 56.1403 55.9321 56.3864 55.8423C56.6364 55.7485 56.9274 55.7017 57.2594 55.7017ZM56.8903 56.8267C56.5114 56.8267 56.2067 56.9028 55.9762 57.0552C55.7496 57.2036 55.5836 57.4282 55.4781 57.729C55.3766 58.0298 55.3219 58.4067 55.3141 58.8599V59.0532C55.3141 59.5337 55.3629 59.9419 55.4606 60.2778C55.5621 60.6099 55.7281 60.8638 55.9586 61.0396C56.193 61.2114 56.5094 61.2974 56.9078 61.2974C57.2438 61.2974 57.5211 61.2056 57.7399 61.022C57.9625 60.8384 58.1285 60.5767 58.2379 60.2368C58.3473 59.897 58.402 59.4966 58.402 59.0356C58.402 58.3364 58.277 57.7935 58.027 57.4067C57.7809 57.02 57.402 56.8267 56.8903 56.8267ZM62.8434 58.9946L60.6754 55.8247H62.2457L63.7281 58.104L65.2164 55.8247H66.7809L64.6012 58.9946L66.8922 62.311H65.316L63.7281 59.8794L62.1344 62.311H60.5699L62.8434 58.9946Z" fill="#474D66"/>
<rect x="204.091" y="0.0883789" width="18.7941" height="30.498" fill="#D6E0FF"/>
<path d="M204.431 62.0884H198.63V61.0513L200.851 58.8013C201.281 58.3638 201.634 57.9868 201.912 57.6704C202.189 57.3501 202.394 57.0474 202.527 56.7622C202.664 56.4771 202.732 56.1665 202.732 55.8306C202.732 55.4165 202.613 55.104 202.375 54.8931C202.136 54.6782 201.822 54.5708 201.431 54.5708C201.06 54.5708 200.716 54.645 200.4 54.7935C200.088 54.938 199.763 55.145 199.427 55.4146L198.672 54.5063C198.91 54.3032 199.164 54.1177 199.433 53.9497C199.707 53.7817 200.011 53.6489 200.347 53.5513C200.683 53.4497 201.066 53.3989 201.496 53.3989C202.039 53.3989 202.507 53.4966 202.902 53.6919C203.297 53.8833 203.599 54.1509 203.81 54.4946C204.025 54.8384 204.132 55.2388 204.132 55.6958C204.132 56.1567 204.041 56.5825 203.857 56.9731C203.673 57.3638 203.412 57.7505 203.072 58.1333C202.732 58.5122 202.328 58.9243 201.859 59.3696L200.377 60.8169V60.8813H204.431V62.0884ZM211.609 60.2075H210.449V62.0884H209.089V60.2075H205.193V59.1646L209.107 53.4985H210.449V59.0649H211.609V60.2075ZM209.089 59.0649V56.938C209.089 56.7622 209.091 56.5845 209.095 56.4048C209.103 56.2212 209.111 56.0454 209.119 55.8774C209.127 55.7095 209.134 55.5552 209.142 55.4146C209.15 55.27 209.156 55.1509 209.16 55.0571H209.113C209.039 55.2134 208.957 55.3735 208.867 55.5376C208.777 55.6978 208.681 55.854 208.58 56.0063L206.47 59.0649H209.089ZM216.138 55.479C216.908 55.479 217.525 55.7603 217.99 56.3228C218.459 56.8853 218.693 57.7212 218.693 58.8306C218.693 59.5649 218.584 60.1841 218.365 60.688C218.15 61.188 217.847 61.5669 217.457 61.8247C217.07 62.0786 216.619 62.2056 216.103 62.2056C215.775 62.2056 215.49 62.1626 215.248 62.0767C215.005 61.9907 214.798 61.8794 214.627 61.7427C214.455 61.6021 214.31 61.4497 214.193 61.2856H214.111C214.13 61.4419 214.148 61.6157 214.164 61.8071C214.183 61.9946 214.193 62.1665 214.193 62.3228V64.9653H212.81V55.6021H213.935L214.129 56.4985H214.193C214.314 56.3149 214.461 56.145 214.632 55.9888C214.808 55.8325 215.019 55.7095 215.265 55.6196C215.515 55.5259 215.806 55.479 216.138 55.479ZM215.769 56.604C215.39 56.604 215.086 56.6802 214.855 56.8325C214.629 56.981 214.463 57.2056 214.357 57.5063C214.255 57.8071 214.201 58.1841 214.193 58.6372V58.8306C214.193 59.311 214.242 59.7192 214.339 60.0552C214.441 60.3872 214.607 60.6411 214.838 60.8169C215.072 60.9888 215.388 61.0747 215.787 61.0747C216.123 61.0747 216.4 60.9829 216.619 60.7993C216.841 60.6157 217.007 60.354 217.117 60.0142C217.226 59.6743 217.281 59.2739 217.281 58.813C217.281 58.1138 217.156 57.5708 216.906 57.1841C216.66 56.7974 216.281 56.604 215.769 56.604ZM221.722 58.772L219.554 55.6021H221.125L222.607 57.8813L224.095 55.6021H225.66L223.48 58.772L225.771 62.0884H224.195L222.607 59.6567L221.013 62.0884H219.449L221.722 58.772Z" fill="#474D66"/>
<rect x="475.188" y="0.0883789" width="43.853" height="30.498" fill="#D6E0FF"/>
<path d="M483.639 56.9556C484.19 56.9556 484.674 57.0552 485.092 57.2544C485.514 57.4497 485.842 57.7388 486.076 58.1216C486.311 58.5005 486.428 58.9653 486.428 59.5161C486.428 60.1177 486.301 60.6372 486.047 61.0747C485.793 61.5083 485.42 61.8423 484.928 62.0767C484.436 62.311 483.836 62.4282 483.129 62.4282C482.68 62.4282 482.26 62.3892 481.869 62.311C481.483 62.2329 481.149 62.1157 480.867 61.9595V60.7173C481.16 60.8813 481.512 61.0161 481.922 61.1216C482.332 61.2231 482.725 61.2739 483.1 61.2739C483.498 61.2739 483.84 61.2153 484.125 61.0981C484.41 60.981 484.629 60.8013 484.781 60.5591C484.938 60.3169 485.016 60.0103 485.016 59.6392C485.016 59.147 484.858 58.7681 484.541 58.5024C484.229 58.2329 483.738 58.0981 483.07 58.0981C482.836 58.0981 482.586 58.1196 482.32 58.1626C482.059 58.2017 481.84 58.2446 481.664 58.2915L481.061 57.9341L481.383 53.7446H485.836V54.9575H482.596L482.408 57.0903C482.549 57.0591 482.717 57.0298 482.912 57.0024C483.108 56.9712 483.35 56.9556 483.639 56.9556ZM487.606 58.6606C487.606 58.1567 487.641 57.6606 487.711 57.1724C487.785 56.6841 487.91 56.2271 488.086 55.8013C488.262 55.3755 488.504 55.0005 488.813 54.6763C489.125 54.3521 489.518 54.0981 489.99 53.9146C490.463 53.7271 491.031 53.6333 491.695 53.6333C491.867 53.6333 492.061 53.6411 492.276 53.6567C492.49 53.6724 492.668 53.6978 492.809 53.7329V54.8755C492.656 54.8325 492.488 54.7993 492.305 54.7759C492.125 54.7524 491.945 54.7407 491.766 54.7407C491.047 54.7407 490.486 54.8774 490.084 55.1509C489.682 55.4204 489.395 55.7915 489.223 56.2642C489.051 56.7329 488.951 57.27 488.924 57.8755H488.994C489.111 57.6802 489.258 57.5063 489.434 57.354C489.609 57.2017 489.824 57.0806 490.078 56.9907C490.332 56.897 490.627 56.8501 490.963 56.8501C491.463 56.8501 491.899 56.9556 492.27 57.1665C492.641 57.3735 492.926 57.6743 493.125 58.0688C493.328 58.4634 493.43 58.9419 493.43 59.5044C493.43 60.1099 493.315 60.6313 493.084 61.0688C492.858 61.5063 492.533 61.8423 492.111 62.0767C491.693 62.311 491.195 62.4282 490.617 62.4282C490.192 62.4282 489.795 62.3501 489.428 62.1938C489.065 62.0376 488.746 61.8032 488.473 61.4907C488.199 61.1782 487.986 60.7876 487.834 60.3188C487.682 59.8462 487.606 59.2935 487.606 58.6606ZM490.594 61.2915C491.039 61.2915 491.397 61.147 491.666 60.8579C491.94 60.5649 492.076 60.1177 492.076 59.5161C492.076 59.0278 491.955 58.6411 491.713 58.356C491.475 58.0708 491.115 57.9282 490.635 57.9282C490.307 57.9282 490.02 57.9985 489.774 58.1392C489.527 58.2798 489.336 58.4575 489.199 58.6724C489.067 58.8872 489 59.106 489 59.3286C489 59.5552 489.033 59.7837 489.1 60.0142C489.166 60.2446 489.266 60.4575 489.399 60.6528C489.531 60.8442 489.697 60.9985 489.897 61.1157C490.096 61.2329 490.328 61.2915 490.594 61.2915ZM498.234 55.7017C499.004 55.7017 499.621 55.9829 500.086 56.5454C500.555 57.1079 500.789 57.9438 500.789 59.0532C500.789 59.7876 500.68 60.4067 500.461 60.9106C500.246 61.4106 499.943 61.7896 499.553 62.0474C499.166 62.3013 498.715 62.4282 498.199 62.4282C497.871 62.4282 497.586 62.3853 497.344 62.2993C497.102 62.2134 496.895 62.1021 496.723 61.9653C496.551 61.8247 496.406 61.6724 496.289 61.5083H496.207C496.227 61.6646 496.244 61.8384 496.26 62.0298C496.279 62.2173 496.289 62.3892 496.289 62.5454V65.188H494.906V55.8247H496.031L496.225 56.7212H496.289C496.41 56.5376 496.557 56.3677 496.729 56.2114C496.904 56.0552 497.115 55.9321 497.361 55.8423C497.611 55.7485 497.902 55.7017 498.234 55.7017ZM497.865 56.8267C497.486 56.8267 497.182 56.9028 496.951 57.0552C496.725 57.2036 496.559 57.4282 496.453 57.729C496.352 58.0298 496.297 58.4067 496.289 58.8599V59.0532C496.289 59.5337 496.338 59.9419 496.436 60.2778C496.537 60.6099 496.703 60.8638 496.934 61.0396C497.168 61.2114 497.484 61.2974 497.883 61.2974C498.219 61.2974 498.496 61.2056 498.715 61.022C498.938 60.8384 499.104 60.5767 499.213 60.2368C499.322 59.897 499.377 59.4966 499.377 59.0356C499.377 58.3364 499.252 57.7935 499.002 57.4067C498.756 57.02 498.377 56.8267 497.865 56.8267ZM503.818 58.9946L501.651 55.8247H503.221L504.703 58.104L506.192 55.8247H507.756L505.576 58.9946L507.867 62.311H506.291L504.703 59.8794L503.109 62.311H501.545L503.818 58.9946Z" fill="#474D66"/>
<rect x="102" y="0.0883789" width="9.39707" height="30.498" fill="#D6E0FF"/>
<path d="M96.5879 62.311H95.2051V56.7974C95.2051 56.6138 95.207 56.4302 95.2109 56.2466C95.2148 56.063 95.2188 55.8833 95.2227 55.7075C95.2305 55.5317 95.2402 55.3638 95.252 55.2036C95.1699 55.2935 95.0684 55.3911 94.9473 55.4966C94.8301 55.6021 94.7051 55.7114 94.5723 55.8247L93.5879 56.6099L92.8965 55.7368L95.4395 53.7446H96.5879V62.311ZM105.207 62.311H99.4062V61.2739L101.627 59.0239C102.057 58.5864 102.41 58.2095 102.688 57.8931C102.965 57.5728 103.17 57.27 103.303 56.9849C103.439 56.6997 103.508 56.3892 103.508 56.0532C103.508 55.6392 103.389 55.3267 103.15 55.1157C102.912 54.9009 102.598 54.7935 102.207 54.7935C101.836 54.7935 101.492 54.8677 101.176 55.0161C100.863 55.1606 100.539 55.3677 100.203 55.6372L99.4473 54.729C99.6855 54.5259 99.9395 54.3403 100.209 54.1724C100.482 54.0044 100.787 53.8716 101.123 53.7739C101.459 53.6724 101.842 53.6216 102.271 53.6216C102.814 53.6216 103.283 53.7192 103.678 53.9146C104.072 54.106 104.375 54.3735 104.586 54.7173C104.801 55.061 104.908 55.4614 104.908 55.9185C104.908 56.3794 104.816 56.8052 104.633 57.1958C104.449 57.5864 104.188 57.9731 103.848 58.356C103.508 58.7349 103.104 59.147 102.635 59.5923L101.152 61.0396V61.104H105.207V62.311ZM110.047 55.7017C110.816 55.7017 111.434 55.9829 111.898 56.5454C112.367 57.1079 112.602 57.9438 112.602 59.0532C112.602 59.7876 112.492 60.4067 112.273 60.9106C112.059 61.4106 111.756 61.7896 111.365 62.0474C110.979 62.3013 110.527 62.4282 110.012 62.4282C109.684 62.4282 109.398 62.3853 109.156 62.2993C108.914 62.2134 108.707 62.1021 108.535 61.9653C108.363 61.8247 108.219 61.6724 108.102 61.5083H108.02C108.039 61.6646 108.057 61.8384 108.072 62.0298C108.092 62.2173 108.102 62.3892 108.102 62.5454V65.188H106.719V55.8247H107.844L108.037 56.7212H108.102C108.223 56.5376 108.369 56.3677 108.541 56.2114C108.717 56.0552 108.928 55.9321 109.174 55.8423C109.424 55.7485 109.715 55.7017 110.047 55.7017ZM109.678 56.8267C109.299 56.8267 108.994 56.9028 108.764 57.0552C108.537 57.2036 108.371 57.4282 108.266 57.729C108.164 58.0298 108.109 58.4067 108.102 58.8599V59.0532C108.102 59.5337 108.15 59.9419 108.248 60.2778C108.35 60.6099 108.516 60.8638 108.746 61.0396C108.98 61.2114 109.297 61.2974 109.695 61.2974C110.031 61.2974 110.309 61.2056 110.527 61.022C110.75 60.8384 110.916 60.5767 111.025 60.2368C111.135 59.897 111.189 59.4966 111.189 59.0356C111.189 58.3364 111.064 57.7935 110.814 57.4067C110.568 57.02 110.189 56.8267 109.678 56.8267ZM115.631 58.9946L113.463 55.8247H115.033L116.516 58.104L118.004 55.8247H119.568L117.389 58.9946L119.68 62.311H118.104L116.516 59.8794L114.922 62.311H113.357L115.631 58.9946Z" fill="#474D66"/>
<rect x="256.201" y="0.0883789" width="21.9265" height="30.498" fill="#D6E0FF"/>
<path d="M258.54 62.0884H252.74V61.0513L254.96 58.8013C255.39 58.3638 255.744 57.9868 256.021 57.6704C256.298 57.3501 256.503 57.0474 256.636 56.7622C256.773 56.4771 256.841 56.1665 256.841 55.8306C256.841 55.4165 256.722 55.104 256.484 54.8931C256.245 54.6782 255.931 54.5708 255.54 54.5708C255.169 54.5708 254.826 54.645 254.509 54.7935C254.197 54.938 253.872 55.145 253.536 55.4146L252.781 54.5063C253.019 54.3032 253.273 54.1177 253.542 53.9497C253.816 53.7817 254.12 53.6489 254.456 53.5513C254.792 53.4497 255.175 53.3989 255.605 53.3989C256.148 53.3989 256.617 53.4966 257.011 53.6919C257.406 53.8833 257.708 54.1509 257.919 54.4946C258.134 54.8384 258.242 55.2388 258.242 55.6958C258.242 56.1567 258.15 56.5825 257.966 56.9731C257.783 57.3638 257.521 57.7505 257.181 58.1333C256.841 58.5122 256.437 58.9243 255.968 59.3696L254.486 60.8169V60.8813H258.54V62.0884ZM262.495 53.4048C262.992 53.4048 263.439 53.4829 263.837 53.6392C264.236 53.7915 264.552 54.02 264.786 54.3247C265.021 54.6294 265.138 55.0063 265.138 55.4556C265.138 55.8032 265.066 56.106 264.921 56.3638C264.781 56.6216 264.589 56.8481 264.347 57.0435C264.105 57.2349 263.833 57.4048 263.533 57.5532C263.869 57.7173 264.177 57.9067 264.458 58.1216C264.744 58.3325 264.972 58.5806 265.144 58.8657C265.32 59.1509 265.408 59.4849 265.408 59.8677C265.408 60.3481 265.285 60.7642 265.038 61.1157C264.796 61.4634 264.458 61.7329 264.025 61.9243C263.591 62.1118 263.085 62.2056 262.507 62.2056C261.886 62.2056 261.357 62.1138 260.919 61.9302C260.482 61.7466 260.15 61.4849 259.923 61.145C259.697 60.8013 259.583 60.3911 259.583 59.9146C259.583 59.52 259.661 59.1782 259.818 58.8892C259.974 58.6001 260.183 58.3501 260.445 58.1392C260.71 57.9282 261.001 57.7505 261.318 57.606C261.048 57.4458 260.802 57.2661 260.579 57.0669C260.357 56.8638 260.179 56.6313 260.046 56.3696C259.917 56.104 259.853 55.7974 259.853 55.4497C259.853 55.0044 259.972 54.6313 260.21 54.3306C260.449 54.0259 260.767 53.7954 261.165 53.6392C261.568 53.4829 262.011 53.4048 262.495 53.4048ZM260.896 59.8618C260.896 60.2368 261.029 60.5454 261.294 60.7876C261.56 61.0298 261.956 61.1509 262.484 61.1509C263.007 61.1509 263.406 61.0317 263.679 60.7935C263.953 60.5552 264.089 60.2407 264.089 59.8501C264.089 59.6001 264.019 59.3794 263.878 59.188C263.742 58.9966 263.556 58.8267 263.322 58.6782C263.091 58.5259 262.835 58.3853 262.554 58.2563L262.367 58.1802C262.062 58.3091 261.8 58.4556 261.581 58.6196C261.363 58.7798 261.193 58.9614 261.072 59.1646C260.954 59.3677 260.896 59.6001 260.896 59.8618ZM262.484 54.4653C262.105 54.4653 261.792 54.5591 261.546 54.7466C261.304 54.9302 261.183 55.1958 261.183 55.5435C261.183 55.7896 261.242 56.0005 261.359 56.1763C261.48 56.3521 261.642 56.5044 261.845 56.6333C262.048 56.7583 262.273 56.8755 262.519 56.9849C262.757 56.8794 262.972 56.7642 263.163 56.6392C263.359 56.5103 263.513 56.3579 263.626 56.1821C263.744 56.0024 263.802 55.7876 263.802 55.5376C263.802 55.1938 263.679 54.9302 263.433 54.7466C263.191 54.5591 262.874 54.4653 262.484 54.4653ZM270.247 55.479C271.017 55.479 271.634 55.7603 272.099 56.3228C272.568 56.8853 272.802 57.7212 272.802 58.8306C272.802 59.5649 272.693 60.1841 272.474 60.688C272.259 61.188 271.956 61.5669 271.566 61.8247C271.179 62.0786 270.728 62.2056 270.212 62.2056C269.884 62.2056 269.599 62.1626 269.357 62.0767C269.115 61.9907 268.908 61.8794 268.736 61.7427C268.564 61.6021 268.419 61.4497 268.302 61.2856H268.22C268.24 61.4419 268.257 61.6157 268.273 61.8071C268.292 61.9946 268.302 62.1665 268.302 62.3228V64.9653H266.919V55.6021H268.044L268.238 56.4985H268.302C268.423 56.3149 268.57 56.145 268.742 55.9888C268.917 55.8325 269.128 55.7095 269.374 55.6196C269.624 55.5259 269.915 55.479 270.247 55.479ZM269.878 56.604C269.499 56.604 269.195 56.6802 268.964 56.8325C268.738 56.981 268.572 57.2056 268.466 57.5063C268.365 57.8071 268.31 58.1841 268.302 58.6372V58.8306C268.302 59.311 268.351 59.7192 268.449 60.0552C268.55 60.3872 268.716 60.6411 268.947 60.8169C269.181 60.9888 269.497 61.0747 269.896 61.0747C270.232 61.0747 270.509 60.9829 270.728 60.7993C270.951 60.6157 271.117 60.354 271.226 60.0142C271.335 59.6743 271.39 59.2739 271.39 58.813C271.39 58.1138 271.265 57.5708 271.015 57.1841C270.769 56.7974 270.39 56.604 269.878 56.604ZM275.831 58.772L273.663 55.6021H275.234L276.716 57.8813L278.204 55.6021H279.769L277.589 58.772L279.88 62.0884H278.304L276.716 59.6567L275.122 62.0884H273.558L275.831 58.772Z" fill="#474D66"/>
<rect x="153.087" y="0.0883789" width="12.5294" height="30.498" fill="#D6E0FF"/>
<path d="M149.675 62.311H148.292V56.7974C148.292 56.6138 148.294 56.4302 148.298 56.2466C148.302 56.063 148.306 55.8833 148.31 55.7075C148.318 55.5317 148.327 55.3638 148.339 55.2036C148.257 55.2935 148.156 55.3911 148.034 55.4966C147.917 55.6021 147.792 55.7114 147.659 55.8247L146.675 56.6099L145.984 55.7368L148.527 53.7446H149.675V62.311ZM152.505 58.6606C152.505 58.1567 152.54 57.6606 152.611 57.1724C152.685 56.6841 152.81 56.2271 152.986 55.8013C153.161 55.3755 153.404 55.0005 153.712 54.6763C154.025 54.3521 154.417 54.0981 154.89 53.9146C155.363 53.7271 155.931 53.6333 156.595 53.6333C156.767 53.6333 156.96 53.6411 157.175 53.6567C157.39 53.6724 157.568 53.6978 157.708 53.7329V54.8755C157.556 54.8325 157.388 54.7993 157.204 54.7759C157.025 54.7524 156.845 54.7407 156.665 54.7407C155.947 54.7407 155.386 54.8774 154.984 55.1509C154.581 55.4204 154.294 55.7915 154.122 56.2642C153.95 56.7329 153.851 57.27 153.823 57.8755H153.894C154.011 57.6802 154.157 57.5063 154.333 57.354C154.509 57.2017 154.724 57.0806 154.978 56.9907C155.232 56.897 155.527 56.8501 155.863 56.8501C156.363 56.8501 156.798 56.9556 157.169 57.1665C157.54 57.3735 157.825 57.6743 158.025 58.0688C158.228 58.4634 158.329 58.9419 158.329 59.5044C158.329 60.1099 158.214 60.6313 157.984 61.0688C157.757 61.5063 157.433 61.8423 157.011 62.0767C156.593 62.311 156.095 62.4282 155.517 62.4282C155.091 62.4282 154.695 62.3501 154.327 62.1938C153.964 62.0376 153.646 61.8032 153.372 61.4907C153.099 61.1782 152.886 60.7876 152.734 60.3188C152.581 59.8462 152.505 59.2935 152.505 58.6606ZM155.493 61.2915C155.939 61.2915 156.296 61.147 156.566 60.8579C156.839 60.5649 156.976 60.1177 156.976 59.5161C156.976 59.0278 156.855 58.6411 156.613 58.356C156.374 58.0708 156.015 57.9282 155.534 57.9282C155.206 57.9282 154.919 57.9985 154.673 58.1392C154.427 58.2798 154.236 58.4575 154.099 58.6724C153.966 58.8872 153.9 59.106 153.9 59.3286C153.9 59.5552 153.933 59.7837 153.999 60.0142C154.066 60.2446 154.165 60.4575 154.298 60.6528C154.431 60.8442 154.597 60.9985 154.796 61.1157C154.995 61.2329 155.228 61.2915 155.493 61.2915ZM163.134 55.7017C163.904 55.7017 164.521 55.9829 164.986 56.5454C165.454 57.1079 165.689 57.9438 165.689 59.0532C165.689 59.7876 165.579 60.4067 165.361 60.9106C165.146 61.4106 164.843 61.7896 164.452 62.0474C164.066 62.3013 163.615 62.4282 163.099 62.4282C162.771 62.4282 162.486 62.3853 162.243 62.2993C162.001 62.2134 161.794 62.1021 161.622 61.9653C161.45 61.8247 161.306 61.6724 161.189 61.5083H161.107C161.126 61.6646 161.144 61.8384 161.159 62.0298C161.179 62.2173 161.189 62.3892 161.189 62.5454V65.188H159.806V55.8247H160.931L161.124 56.7212H161.189C161.31 56.5376 161.456 56.3677 161.628 56.2114C161.804 56.0552 162.015 55.9321 162.261 55.8423C162.511 55.7485 162.802 55.7017 163.134 55.7017ZM162.765 56.8267C162.386 56.8267 162.081 56.9028 161.851 57.0552C161.624 57.2036 161.458 57.4282 161.353 57.729C161.251 58.0298 161.197 58.4067 161.189 58.8599V59.0532C161.189 59.5337 161.238 59.9419 161.335 60.2778C161.437 60.6099 161.603 60.8638 161.833 61.0396C162.068 61.2114 162.384 61.2974 162.782 61.2974C163.118 61.2974 163.396 61.2056 163.615 61.022C163.837 60.8384 164.003 60.5767 164.113 60.2368C164.222 59.897 164.277 59.4966 164.277 59.0356C164.277 58.3364 164.152 57.7935 163.902 57.4067C163.656 57.02 163.277 56.8267 162.765 56.8267ZM168.718 58.9946L166.55 55.8247H168.12L169.603 58.104L171.091 55.8247H172.656L170.476 58.9946L172.767 62.311H171.191L169.603 59.8794L168.009 62.311H166.445L168.718 58.9946Z" fill="#474D66"/>
<rect x="307.271" y="0.0883789" width="25.0589" height="30.498" fill="#D6E0FF"/>
<path d="M311.283 55.7017C311.283 56.0884 311.205 56.4243 311.049 56.7095C310.893 56.9946 310.678 57.229 310.404 57.4126C310.135 57.5923 309.822 57.7212 309.467 57.7993V57.8403C310.15 57.9263 310.666 58.1411 311.014 58.4849C311.365 58.8286 311.541 59.2837 311.541 59.8501C311.541 60.3462 311.422 60.7896 311.184 61.1802C310.945 61.5669 310.58 61.8716 310.088 62.0942C309.596 62.3169 308.963 62.4282 308.189 62.4282C307.725 62.4282 307.293 62.3911 306.895 62.3169C306.5 62.2427 306.125 62.1235 305.77 61.9595V60.7349C306.133 60.9146 306.52 61.0532 306.93 61.1509C307.34 61.2485 307.729 61.2974 308.096 61.2974C308.811 61.2974 309.32 61.1646 309.625 60.8989C309.93 60.6294 310.082 60.2583 310.082 59.7856C310.082 59.481 310.002 59.231 309.842 59.0356C309.686 58.8403 309.441 58.6938 309.109 58.5962C308.781 58.4985 308.357 58.4497 307.838 58.4497H307.082V57.3423H307.844C308.34 57.3423 308.738 57.2837 309.039 57.1665C309.34 57.0454 309.557 56.8794 309.689 56.6685C309.826 56.4575 309.895 56.2114 309.895 55.9302C309.895 55.563 309.775 55.2778 309.537 55.0747C309.299 54.8677 308.945 54.7642 308.477 54.7642C308.188 54.7642 307.924 54.7974 307.686 54.8638C307.451 54.9302 307.234 55.0142 307.035 55.1157C306.836 55.2173 306.646 55.3267 306.467 55.4438L305.805 54.4888C306.129 54.2466 306.516 54.0415 306.965 53.8735C307.414 53.7056 307.938 53.6216 308.535 53.6216C309.414 53.6216 310.092 53.811 310.568 54.1899C311.045 54.5649 311.283 55.0688 311.283 55.7017ZM318.479 62.311H312.678V61.2739L314.898 59.0239C315.328 58.5864 315.682 58.2095 315.959 57.8931C316.236 57.5728 316.441 57.27 316.574 56.9849C316.711 56.6997 316.779 56.3892 316.779 56.0532C316.779 55.6392 316.66 55.3267 316.422 55.1157C316.184 54.9009 315.869 54.7935 315.479 54.7935C315.107 54.7935 314.764 54.8677 314.447 55.0161C314.135 55.1606 313.811 55.3677 313.475 55.6372L312.719 54.729C312.957 54.5259 313.211 54.3403 313.48 54.1724C313.754 54.0044 314.059 53.8716 314.395 53.7739C314.73 53.6724 315.113 53.6216 315.543 53.6216C316.086 53.6216 316.555 53.7192 316.949 53.9146C317.344 54.106 317.646 54.3735 317.857 54.7173C318.072 55.061 318.18 55.4614 318.18 55.9185C318.18 56.3794 318.088 56.8052 317.904 57.1958C317.721 57.5864 317.459 57.9731 317.119 58.356C316.779 58.7349 316.375 59.147 315.906 59.5923L314.424 61.0396V61.104H318.479V62.311ZM323.318 55.7017C324.088 55.7017 324.705 55.9829 325.17 56.5454C325.639 57.1079 325.873 57.9438 325.873 59.0532C325.873 59.7876 325.764 60.4067 325.545 60.9106C325.33 61.4106 325.027 61.7896 324.637 62.0474C324.25 62.3013 323.799 62.4282 323.283 62.4282C322.955 62.4282 322.67 62.3853 322.428 62.2993C322.186 62.2134 321.979 62.1021 321.807 61.9653C321.635 61.8247 321.49 61.6724 321.373 61.5083H321.291C321.311 61.6646 321.328 61.8384 321.344 62.0298C321.363 62.2173 321.373 62.3892 321.373 62.5454V65.188H319.99V55.8247H321.115L321.309 56.7212H321.373C321.494 56.5376 321.641 56.3677 321.812 56.2114C321.988 56.0552 322.199 55.9321 322.445 55.8423C322.695 55.7485 322.986 55.7017 323.318 55.7017ZM322.949 56.8267C322.57 56.8267 322.266 56.9028 322.035 57.0552C321.809 57.2036 321.643 57.4282 321.537 57.729C321.436 58.0298 321.381 58.4067 321.373 58.8599V59.0532C321.373 59.5337 321.422 59.9419 321.52 60.2778C321.621 60.6099 321.787 60.8638 322.018 61.0396C322.252 61.2114 322.568 61.2974 322.967 61.2974C323.303 61.2974 323.58 61.2056 323.799 61.022C324.021 60.8384 324.188 60.5767 324.297 60.2368C324.406 59.897 324.461 59.4966 324.461 59.0356C324.461 58.3364 324.336 57.7935 324.086 57.4067C323.84 57.02 323.461 56.8267 322.949 56.8267ZM328.902 58.9946L326.734 55.8247H328.305L329.787 58.104L331.275 55.8247H332.84L330.66 58.9946L332.951 62.311H331.375L329.787 59.8794L328.193 62.311H326.629L328.902 58.9946Z" fill="#474D66"/>
<rect x="358.276" y="0.0883789" width="31.3236" height="30.498" fill="#D6E0FF"/>
<path d="M365.926 60.4302H364.766V62.311H363.407V60.4302H359.51V59.3872L363.424 53.7212H364.766V59.2876H365.926V60.4302ZM363.407 59.2876V57.1606C363.407 56.9849 363.409 56.8071 363.412 56.6274C363.42 56.4438 363.428 56.2681 363.436 56.1001C363.444 55.9321 363.452 55.7778 363.459 55.6372C363.467 55.4927 363.473 55.3735 363.477 55.2798H363.43C363.356 55.436 363.274 55.5962 363.184 55.7603C363.094 55.9204 362.998 56.0767 362.897 56.229L360.787 59.2876H363.407ZM372.483 58.022C372.483 58.7134 372.428 59.3325 372.319 59.8794C372.213 60.4224 372.045 60.8833 371.815 61.2622C371.584 61.6411 371.284 61.9302 370.912 62.1294C370.541 62.3286 370.092 62.4282 369.565 62.4282C368.905 62.4282 368.36 62.2544 367.93 61.9067C367.5 61.5552 367.182 61.0513 366.975 60.395C366.768 59.7349 366.664 58.9438 366.664 58.022C366.664 57.1001 366.758 56.311 366.946 55.6548C367.137 54.9946 367.446 54.4888 367.871 54.1372C368.297 53.7856 368.862 53.6099 369.565 53.6099C370.229 53.6099 370.776 53.7856 371.205 54.1372C371.639 54.4849 371.959 54.9888 372.166 55.6489C372.377 56.3052 372.483 57.0962 372.483 58.022ZM368.053 58.022C368.053 58.7446 368.1 59.3481 368.194 59.8325C368.291 60.3169 368.452 60.6802 368.674 60.9224C368.897 61.1606 369.194 61.2798 369.565 61.2798C369.936 61.2798 370.233 61.1606 370.455 60.9224C370.678 60.6841 370.838 60.3228 370.936 59.8384C371.037 59.354 371.088 58.7485 371.088 58.022C371.088 57.3032 371.039 56.7017 370.942 56.2173C370.844 55.7329 370.684 55.3696 370.461 55.1274C370.239 54.8813 369.94 54.7583 369.565 54.7583C369.19 54.7583 368.891 54.8813 368.668 55.1274C368.45 55.3696 368.291 55.7329 368.194 56.2173C368.1 56.7017 368.053 57.3032 368.053 58.022ZM377.323 55.7017C378.092 55.7017 378.709 55.9829 379.174 56.5454C379.643 57.1079 379.877 57.9438 379.877 59.0532C379.877 59.7876 379.768 60.4067 379.549 60.9106C379.334 61.4106 379.032 61.7896 378.641 62.0474C378.254 62.3013 377.803 62.4282 377.287 62.4282C376.959 62.4282 376.674 62.3853 376.432 62.2993C376.19 62.2134 375.983 62.1021 375.811 61.9653C375.639 61.8247 375.495 61.6724 375.377 61.5083H375.295C375.315 61.6646 375.332 61.8384 375.348 62.0298C375.368 62.2173 375.377 62.3892 375.377 62.5454V65.188H373.995V55.8247H375.12L375.313 56.7212H375.377C375.498 56.5376 375.645 56.3677 375.817 56.2114C375.993 56.0552 376.203 55.9321 376.45 55.8423C376.7 55.7485 376.991 55.7017 377.323 55.7017ZM376.953 56.8267C376.575 56.8267 376.27 56.9028 376.039 57.0552C375.813 57.2036 375.647 57.4282 375.541 57.729C375.44 58.0298 375.385 58.4067 375.377 58.8599V59.0532C375.377 59.5337 375.426 59.9419 375.524 60.2778C375.625 60.6099 375.791 60.8638 376.022 61.0396C376.256 61.2114 376.573 61.2974 376.971 61.2974C377.307 61.2974 377.584 61.2056 377.803 61.022C378.026 60.8384 378.192 60.5767 378.301 60.2368C378.411 59.897 378.465 59.4966 378.465 59.0356C378.465 58.3364 378.34 57.7935 378.09 57.4067C377.844 57.02 377.465 56.8267 376.953 56.8267ZM382.907 58.9946L380.739 55.8247H382.309L383.791 58.104L385.28 55.8247H386.844L384.664 58.9946L386.955 62.311H385.379L383.791 59.8794L382.198 62.311H380.633L382.907 58.9946Z" fill="#474D66"/>
</svg>
