<svg width="452" height="108" viewBox="0 0 452 108" fill="none" xmlns="http://www.w3.org/2000/svg">
<g clip-path="url(#clip0_639_9458)">
<rect width="50.176" height="14.9261" transform="translate(188.161 27.4814)" fill="white"/>
<line x1="189.161" y1="31.9814" x2="237.161" y2="31.9814" stroke="#3366FF"/>
<line x1="188.661" y1="27.4814" x2="188.661" y2="36.4814" stroke="#3366FF"/>
<line x1="237.661" y1="27.4814" x2="237.661" y2="36.4814" stroke="#3366FF"/>
</g>
<path d="M207.489 73.6748L207.952 71.4893H203.856L203.956 70.9971L209.2 65.0791H209.885L208.649 70.9502H210.09L209.973 71.4893H208.526L208.063 73.6748H207.489ZM204.641 70.9502H208.063L208.713 67.8975C208.784 67.5811 208.846 67.2979 208.901 67.0479C208.96 66.7939 209.016 66.5596 209.071 66.3447C209.13 66.1299 209.184 65.9229 209.235 65.7236H209.206C209.073 65.9072 208.934 66.0908 208.79 66.2744C208.645 66.458 208.481 66.6494 208.297 66.8486L204.641 70.9502ZM210.096 76.4932L212.042 67.3057H212.534L212.27 68.7939H212.305C212.469 68.5283 212.669 68.2744 212.903 68.0322C213.141 67.7861 213.413 67.585 213.717 67.4287C214.022 67.2686 214.36 67.1885 214.731 67.1885C215.106 67.1885 215.428 67.2783 215.698 67.458C215.971 67.6338 216.182 67.8896 216.331 68.2256C216.483 68.5576 216.559 68.9561 216.559 69.4209C216.559 69.8428 216.514 70.2627 216.424 70.6807C216.335 71.0947 216.204 71.4893 216.032 71.8643C215.86 72.2354 215.643 72.5674 215.381 72.8604C215.12 73.1494 214.817 73.3779 214.473 73.5459C214.133 73.71 213.751 73.792 213.325 73.792C212.965 73.792 212.665 73.7256 212.422 73.5928C212.18 73.4561 211.987 73.2822 211.842 73.0713C211.702 72.8564 211.6 72.6318 211.538 72.3975H211.503C211.475 72.6123 211.438 72.8506 211.391 73.1123C211.344 73.374 211.297 73.6123 211.251 73.8271L210.682 76.4932H210.096ZM213.307 73.2764C213.651 73.2764 213.962 73.2041 214.239 73.0596C214.516 72.9111 214.76 72.71 214.971 72.4561C215.186 72.1982 215.366 71.9033 215.51 71.5713C215.655 71.2393 215.764 70.8896 215.838 70.5225C215.913 70.1553 215.95 69.7842 215.95 69.4092C215.95 68.8701 215.831 68.4521 215.592 68.1553C215.354 67.8545 215.01 67.7041 214.561 67.7041C214.323 67.7041 214.088 67.7549 213.858 67.8564C213.631 67.9541 213.415 68.0947 213.208 68.2783C213.005 68.458 212.817 68.6709 212.645 68.917C212.473 69.1631 212.325 69.4326 212.2 69.7256C212.075 70.0146 211.977 70.3213 211.907 70.6455C211.837 70.9697 211.801 71.2979 211.801 71.6299C211.801 72.165 211.936 72.5732 212.206 72.8545C212.475 73.1357 212.842 73.2764 213.307 73.2764ZM216.776 73.6748L219.618 70.3877L218.194 67.3057H218.821L220.01 69.9717L222.307 67.3057H223.005L220.274 70.417L221.809 73.6748H221.182L219.881 70.8447L217.479 73.6748H216.776Z" fill="#3366FF"/>
<g clip-path="url(#clip1_639_9458)">
<rect width="62.72" height="14.9261" transform="translate(275.968 27.4814)" fill="white"/>
<line x1="276.968" y1="31.9814" x2="337.968" y2="31.9814" stroke="#3366FF"/>
<line x1="276.468" y1="27.4814" x2="276.468" y2="36.4814" stroke="#3366FF"/>
<line x1="338.468" y1="27.4814" x2="338.468" y2="36.4814" stroke="#3366FF"/>
</g>
<path d="M300.684 73.792C300.203 73.792 299.787 73.7021 299.436 73.5225C299.088 73.3428 298.819 73.0986 298.627 72.79C298.44 72.4775 298.346 72.124 298.346 71.7295C298.346 71.2568 298.455 70.8584 298.674 70.5342C298.897 70.2061 299.199 69.9307 299.582 69.708C299.969 69.4854 300.408 69.29 300.901 69.1221C300.678 68.9736 300.473 68.8115 300.285 68.6357C300.102 68.4561 299.953 68.251 299.84 68.0205C299.731 67.7861 299.676 67.5107 299.676 67.1943C299.676 66.7373 299.783 66.3447 299.998 66.0166C300.213 65.6846 300.504 65.4287 300.871 65.249C301.242 65.0693 301.66 64.9795 302.125 64.9795C302.574 64.9795 302.953 65.0635 303.262 65.2314C303.571 65.3955 303.805 65.6143 303.965 65.8877C304.129 66.1572 304.211 66.4521 304.211 66.7725C304.211 67.1982 304.11 67.5635 303.907 67.8682C303.707 68.1689 303.44 68.4268 303.104 68.6416C302.768 68.8525 302.395 69.04 301.985 69.2041C302.278 69.3643 302.541 69.54 302.776 69.7314C303.01 69.9229 303.196 70.1514 303.332 70.417C303.469 70.6787 303.537 71.001 303.537 71.3838C303.537 71.8682 303.416 72.292 303.174 72.6553C302.936 73.0146 302.602 73.2939 302.172 73.4932C301.742 73.6924 301.246 73.792 300.684 73.792ZM300.731 73.2764C301.153 73.2764 301.53 73.2021 301.862 73.0537C302.194 72.9014 302.455 72.6846 302.647 72.4033C302.838 72.1182 302.934 71.7803 302.934 71.3896C302.934 71.0576 302.871 70.7803 302.746 70.5576C302.621 70.3311 302.444 70.1299 302.213 69.9541C301.983 69.7783 301.713 69.6045 301.405 69.4326C300.963 69.5693 300.557 69.7295 300.186 69.9131C299.815 70.0928 299.516 70.3252 299.289 70.6104C299.067 70.8916 298.955 71.2568 298.955 71.7061C298.955 72.1982 299.123 72.583 299.459 72.8604C299.799 73.1377 300.223 73.2764 300.731 73.2764ZM301.51 68.917C301.928 68.7646 302.293 68.5928 302.606 68.4014C302.922 68.21 303.168 67.9854 303.344 67.7275C303.524 67.4697 303.614 67.165 303.614 66.8135C303.614 66.4072 303.469 66.0869 303.18 65.8525C302.895 65.6182 302.53 65.501 302.084 65.501C301.737 65.501 301.424 65.5674 301.147 65.7002C300.873 65.8291 300.657 66.0186 300.496 66.2686C300.336 66.5186 300.256 66.8271 300.256 67.1943C300.256 67.6006 300.373 67.9365 300.608 68.2021C300.842 68.4678 301.143 68.7061 301.51 68.917ZM304.176 76.4932L306.121 67.3057H306.614L306.35 68.7939H306.385C306.549 68.5283 306.748 68.2744 306.983 68.0322C307.221 67.7861 307.492 67.585 307.797 67.4287C308.102 67.2686 308.44 67.1885 308.811 67.1885C309.186 67.1885 309.508 67.2783 309.778 67.458C310.051 67.6338 310.262 67.8896 310.41 68.2256C310.563 68.5576 310.639 68.9561 310.639 69.4209C310.639 69.8428 310.594 70.2627 310.504 70.6807C310.414 71.0947 310.283 71.4893 310.112 71.8643C309.94 72.2354 309.723 72.5674 309.461 72.8604C309.199 73.1494 308.897 73.3779 308.553 73.5459C308.213 73.71 307.83 73.792 307.405 73.792C307.045 73.792 306.744 73.7256 306.502 73.5928C306.26 73.4561 306.067 73.2822 305.922 73.0713C305.782 72.8564 305.68 72.6318 305.617 72.3975H305.582C305.555 72.6123 305.518 72.8506 305.471 73.1123C305.424 73.374 305.377 73.6123 305.33 73.8271L304.762 76.4932H304.176ZM307.387 73.2764C307.731 73.2764 308.041 73.2041 308.319 73.0596C308.596 72.9111 308.84 72.71 309.051 72.4561C309.266 72.1982 309.446 71.9033 309.59 71.5713C309.735 71.2393 309.844 70.8896 309.918 70.5225C309.992 70.1553 310.03 69.7842 310.03 69.4092C310.03 68.8701 309.91 68.4521 309.672 68.1553C309.434 67.8545 309.09 67.7041 308.641 67.7041C308.403 67.7041 308.168 67.7549 307.938 67.8564C307.711 67.9541 307.494 68.0947 307.287 68.2783C307.084 68.458 306.897 68.6709 306.725 68.917C306.553 69.1631 306.405 69.4326 306.28 69.7256C306.155 70.0146 306.057 70.3213 305.987 70.6455C305.916 70.9697 305.881 71.2979 305.881 71.6299C305.881 72.165 306.016 72.5732 306.285 72.8545C306.555 73.1357 306.922 73.2764 307.387 73.2764ZM310.856 73.6748L313.698 70.3877L312.274 67.3057H312.901L314.09 69.9717L316.387 67.3057H317.084L314.354 70.417L315.889 73.6748H315.262L313.961 70.8447L311.559 73.6748H310.856Z" fill="#3366FF"/>
<g clip-path="url(#clip2_639_9458)">
<rect width="75.264" height="14.9261" transform="translate(376.32 27.4814)" fill="white"/>
<line x1="377.32" y1="31.9814" x2="450.32" y2="31.9814" stroke="#3366FF"/>
<line x1="376.82" y1="27.4814" x2="376.82" y2="36.4814" stroke="#3366FF"/>
<line x1="450.82" y1="27.4814" x2="450.82" y2="36.4814" stroke="#3366FF"/>
</g>
<path d="M403.739 73.6748L405.057 67.4639C405.108 67.2256 405.157 67.0029 405.204 66.7959C405.255 66.585 405.301 66.3936 405.344 66.2217C405.387 66.0459 405.424 65.8975 405.456 65.7764C405.346 65.8779 405.233 65.9717 405.116 66.0576C405.003 66.1396 404.864 66.2334 404.7 66.3389L403.288 67.2705L403.001 66.8193L405.632 65.1084H406.165L404.342 73.6748H403.739ZM410.747 73.792C410.243 73.792 409.825 73.6826 409.493 73.4639C409.165 73.2412 408.919 72.9326 408.755 72.5381C408.594 72.1436 408.514 71.6865 408.514 71.167C408.514 70.749 408.557 70.3057 408.643 69.8369C408.729 69.3682 408.854 68.8994 409.018 68.4307C409.186 67.9619 409.389 67.5225 409.628 67.1123C409.866 66.6982 410.137 66.3389 410.442 66.0342C410.684 65.792 410.948 65.5928 411.233 65.4365C411.518 65.2803 411.821 65.165 412.141 65.0908C412.462 65.0127 412.792 64.9736 413.132 64.9736C413.342 64.9736 413.548 64.9873 413.747 65.0146C413.946 65.042 414.114 65.0791 414.251 65.126L414.128 65.6592C413.999 65.6123 413.846 65.5732 413.671 65.542C413.495 65.5107 413.299 65.4951 413.085 65.4951C412.526 65.4951 412.001 65.6299 411.508 65.8994C411.02 66.165 410.583 66.5986 410.196 67.2002C409.813 67.8018 409.505 68.6064 409.27 69.6143H409.305C409.454 69.3955 409.641 69.1924 409.868 69.0049C410.094 68.8135 410.358 68.6592 410.659 68.542C410.964 68.4209 411.303 68.3604 411.678 68.3604C412.28 68.3604 412.76 68.5498 413.12 68.9287C413.479 69.3076 413.659 69.8174 413.659 70.458C413.659 70.915 413.587 71.3447 413.442 71.7471C413.298 72.1494 413.094 72.5049 412.833 72.8135C412.575 73.1182 412.268 73.3584 411.913 73.5342C411.561 73.7061 411.173 73.792 410.747 73.792ZM410.782 73.2764C411.13 73.2764 411.444 73.1982 411.725 73.042C412.007 72.8857 412.245 72.6748 412.44 72.4092C412.639 72.1396 412.792 71.8408 412.897 71.5127C413.007 71.1807 413.061 70.8428 413.061 70.499C413.061 69.9756 412.924 69.5732 412.651 69.292C412.382 69.0107 412.003 68.8701 411.514 68.8701C411.116 68.8701 410.753 68.9561 410.424 69.1279C410.1 69.2998 409.833 69.5107 409.622 69.7607C409.411 70.0107 409.274 70.2529 409.212 70.4873C409.192 70.5615 409.174 70.6416 409.159 70.7275C409.143 70.8135 409.132 70.9033 409.124 70.9971C409.116 71.0908 409.112 71.1865 409.112 71.2842C409.112 71.5186 409.137 71.7529 409.188 71.9873C409.243 72.2217 409.333 72.4365 409.458 72.6318C409.583 72.8271 409.753 72.9834 409.967 73.1006C410.182 73.2178 410.454 73.2764 410.782 73.2764ZM414.104 76.4932L416.049 67.3057H416.542L416.278 68.7939H416.313C416.477 68.5283 416.676 68.2744 416.911 68.0322C417.149 67.7861 417.421 67.585 417.725 67.4287C418.03 67.2686 418.368 67.1885 418.739 67.1885C419.114 67.1885 419.436 67.2783 419.706 67.458C419.979 67.6338 420.19 67.8896 420.339 68.2256C420.491 68.5576 420.567 68.9561 420.567 69.4209C420.567 69.8428 420.522 70.2627 420.432 70.6807C420.342 71.0947 420.212 71.4893 420.04 71.8643C419.868 72.2354 419.651 72.5674 419.389 72.8604C419.128 73.1494 418.825 73.3779 418.481 73.5459C418.141 73.71 417.758 73.792 417.333 73.792C416.973 73.792 416.673 73.7256 416.43 73.5928C416.188 73.4561 415.995 73.2822 415.85 73.0713C415.71 72.8564 415.608 72.6318 415.546 72.3975H415.51C415.483 72.6123 415.446 72.8506 415.399 73.1123C415.352 73.374 415.305 73.6123 415.258 73.8271L414.69 76.4932H414.104ZM417.315 73.2764C417.659 73.2764 417.969 73.2041 418.247 73.0596C418.524 72.9111 418.768 72.71 418.979 72.4561C419.194 72.1982 419.374 71.9033 419.518 71.5713C419.663 71.2393 419.772 70.8896 419.846 70.5225C419.921 70.1553 419.958 69.7842 419.958 69.4092C419.958 68.8701 419.839 68.4521 419.6 68.1553C419.362 67.8545 419.018 67.7041 418.569 67.7041C418.331 67.7041 418.096 67.7549 417.866 67.8564C417.639 67.9541 417.423 68.0947 417.216 68.2783C417.012 68.458 416.825 68.6709 416.653 68.917C416.481 69.1631 416.333 69.4326 416.208 69.7256C416.083 70.0146 415.985 70.3213 415.915 70.6455C415.844 70.9697 415.809 71.2979 415.809 71.6299C415.809 72.165 415.944 72.5732 416.214 72.8545C416.483 73.1357 416.85 73.2764 417.315 73.2764ZM420.784 73.6748L423.626 70.3877L422.202 67.3057H422.829L424.018 69.9717L426.315 67.3057H427.012L424.282 70.417L425.817 73.6748H425.19L423.889 70.8447L421.487 73.6748H420.784Z" fill="#3366FF"/>
<path fill-rule="evenodd" clip-rule="evenodd" d="M1.56801 12.5557H10.9761V2.60475H1.56801V12.5557ZM12.544 14.214V14.2142H0V12.5557H9.56998e-06V2.60475V0.946289H1.56801H10.9761H12.544H12.5441V14.214H12.544Z" fill="#D6E0FF"/>
<path fill-rule="evenodd" clip-rule="evenodd" d="M12.5443 0.946289H23.5206H25.0883H25.0886V14.214H25.0884V14.2142H12.5444V12.5557H23.5206V2.60475H12.5443V0.946289Z" fill="#D6E0FF"/>
<path fill-rule="evenodd" clip-rule="evenodd" d="M25.088 0.946289H36.0644H37.632H37.6324V14.214H37.6321V14.2142H25.0881V12.5557H36.0644V2.60475H25.088V0.946289Z" fill="#D6E0FF"/>
<path fill-rule="evenodd" clip-rule="evenodd" d="M37.6318 0.946289H48.6082H50.1758H50.1762V14.214H50.1759V14.2142H37.6319V12.5557H48.6082V2.60475H37.6318V0.946289Z" fill="#D6E0FF"/>
<path fill-rule="evenodd" clip-rule="evenodd" d="M50.1764 0.946289H61.1527H62.7204H62.7207V14.214H62.7205V14.2142H50.1765V12.5557H61.1527V2.60475H50.1764V0.946289Z" fill="#D6E0FF"/>
<path fill-rule="evenodd" clip-rule="evenodd" d="M62.7203 0.946289H73.6968H75.2643H75.2648V14.214H75.2643V14.2142H62.7203V12.5557H73.6968V2.60475H62.7203V0.946289Z" fill="#D6E0FF"/>
<path fill-rule="evenodd" clip-rule="evenodd" d="M75.2647 0.946289H86.2408H87.8087H87.8088V14.214H87.8087V14.2142H75.2646V12.5557H86.2408V2.60475H75.2647V0.946289Z" fill="#D6E0FF"/>
<path fill-rule="evenodd" clip-rule="evenodd" d="M87.8085 0.946289H98.7848H100.352H100.353V14.214H100.352V14.2142H87.8085V12.5557H98.7848V2.60475H87.8085V0.946289Z" fill="#D6E0FF"/>
<path fill-rule="evenodd" clip-rule="evenodd" d="M9.56998e-06 14.2134H1.56801V25.8228H10.9761V14.2134H12.5441V27.4811H12.544V27.4813H0V25.8228H9.56998e-06V14.2134Z" fill="#D6E0FF"/>
<path fill-rule="evenodd" clip-rule="evenodd" d="M25.0885 14.2134H23.5205V25.8228H12.5443V27.4813H25.0883V27.4811H25.0885V14.2134Z" fill="#D6E0FF"/>
<path fill-rule="evenodd" clip-rule="evenodd" d="M37.6324 14.2134H36.0644V25.8228H25.088V27.4813H37.632V27.4811H37.6324V14.2134Z" fill="#D6E0FF"/>
<path fill-rule="evenodd" clip-rule="evenodd" d="M50.1762 14.2134H48.6082V25.8228H37.6318V27.4813H50.1758V27.4811H50.1762V14.2134Z" fill="#D6E0FF"/>
<path fill-rule="evenodd" clip-rule="evenodd" d="M62.7206 14.2134H61.1526V25.8228H50.1764V27.4813H62.7204V27.4811H62.7206V14.2134Z" fill="#D6E0FF"/>
<path fill-rule="evenodd" clip-rule="evenodd" d="M75.2648 14.2134H73.6968V25.8228H62.7203V27.4812H75.2643V27.4811H75.2648V14.2134Z" fill="#D6E0FF"/>
<path fill-rule="evenodd" clip-rule="evenodd" d="M87.8085 14.2134H86.2405V25.8228H75.2642V27.4813H87.8082V27.4811H87.8085V14.2134Z" fill="#D6E0FF"/>
<path fill-rule="evenodd" clip-rule="evenodd" d="M100.353 14.2134H98.7848V25.8228H87.8085V27.4812H100.352V27.4811H100.353V14.2134Z" fill="#D6E0FF"/>
<path fill-rule="evenodd" clip-rule="evenodd" d="M9.56998e-06 27.4805H1.56801V39.09H10.9761V27.4805H12.5441V40.7482H12.544V40.7484H0V39.09H9.56998e-06V27.4805Z" fill="#D6E0FF"/>
<path fill-rule="evenodd" clip-rule="evenodd" d="M25.0885 27.4805H23.5205V39.09H12.5443V40.7484H25.0883V40.7482H25.0885V27.4805Z" fill="#D6E0FF"/>
<path fill-rule="evenodd" clip-rule="evenodd" d="M37.6324 27.4805H36.0644V39.09H25.088V40.7484H37.632V40.7482H37.6324V27.4805Z" fill="#D6E0FF"/>
<path fill-rule="evenodd" clip-rule="evenodd" d="M50.1762 27.4805H48.6082V39.09H37.6318V40.7484H50.1758V40.7482H50.1762V27.4805Z" fill="#D6E0FF"/>
<path fill-rule="evenodd" clip-rule="evenodd" d="M62.7206 27.4805H61.1526V39.09H50.1764V40.7484H62.7204V40.7482H62.7206V27.4805Z" fill="#D6E0FF"/>
<path fill-rule="evenodd" clip-rule="evenodd" d="M75.2648 27.4805H73.6968V39.0899H62.7203V40.7483H75.2643V40.7482H75.2648V27.4805Z" fill="#D6E0FF"/>
<path fill-rule="evenodd" clip-rule="evenodd" d="M87.8088 27.4805H86.2408V39.09H75.2646V40.7484H87.8087V40.7482H87.8088V27.4805Z" fill="#D6E0FF"/>
<path fill-rule="evenodd" clip-rule="evenodd" d="M100.353 27.4805H98.7848V39.0899H87.8085V40.7483H100.352V40.7482H100.353V27.4805Z" fill="#D6E0FF"/>
<path fill-rule="evenodd" clip-rule="evenodd" d="M9.56998e-06 40.748H1.56801V52.3574H10.9761V40.748H12.5441V54.0157H12.544V54.0158H0V52.3574H9.56998e-06V40.748Z" fill="#D6E0FF"/>
<path fill-rule="evenodd" clip-rule="evenodd" d="M25.0885 40.748H23.5205V52.3574H12.5443V54.0158H25.0883V54.0157H25.0885V40.748Z" fill="#D6E0FF"/>
<path fill-rule="evenodd" clip-rule="evenodd" d="M37.6324 40.748H36.0644V52.3574H25.088V54.0158H37.632V54.0157H37.6324V40.748Z" fill="#D6E0FF"/>
<path fill-rule="evenodd" clip-rule="evenodd" d="M50.1762 40.748H48.6082V52.3574H37.6318V54.0158H50.1758V54.0157H50.1762V40.748Z" fill="#D6E0FF"/>
<path fill-rule="evenodd" clip-rule="evenodd" d="M62.7206 40.748H61.1526V52.3574H50.1764V54.0158H62.7204V54.0157H62.7206V40.748Z" fill="#D6E0FF"/>
<path fill-rule="evenodd" clip-rule="evenodd" d="M75.2648 40.748H73.6968V52.3575H62.7203V54.0159H75.2643V54.0157H75.2648V40.748Z" fill="#D6E0FF"/>
<path fill-rule="evenodd" clip-rule="evenodd" d="M87.8088 40.748H86.2408V52.3574H75.2646V54.0158H87.8087V54.0157H87.8088V40.748Z" fill="#D6E0FF"/>
<path fill-rule="evenodd" clip-rule="evenodd" d="M100.353 40.748H98.7848V52.3575H87.8085V54.0159H100.352V54.0157H100.353V40.748Z" fill="#D6E0FF"/>
<path fill-rule="evenodd" clip-rule="evenodd" d="M9.56998e-06 54.0171H1.56801V65.6265H10.9761V54.0171H12.5441V67.2848H12.544V67.285H0V65.6265H9.56998e-06V54.0171Z" fill="#D6E0FF"/>
<path fill-rule="evenodd" clip-rule="evenodd" d="M25.0885 54.0171H23.5205V65.6265H12.5443V67.285H25.0883V67.2848H25.0885V54.0171Z" fill="#D6E0FF"/>
<path fill-rule="evenodd" clip-rule="evenodd" d="M37.6324 54.0171H36.0644V65.6265H25.088V67.285H37.632V67.2848H37.6324V54.0171Z" fill="#D6E0FF"/>
<path fill-rule="evenodd" clip-rule="evenodd" d="M50.1762 54.0171H48.6082V65.6265H37.6318V67.285H50.1758V67.2848H50.1762V54.0171Z" fill="#D6E0FF"/>
<path fill-rule="evenodd" clip-rule="evenodd" d="M62.7206 54.0171H61.1526V65.6265H50.1764V67.285H62.7204V67.2848H62.7206V54.0171Z" fill="#D6E0FF"/>
<path fill-rule="evenodd" clip-rule="evenodd" d="M75.2648 54.0171H73.6968V65.6265H62.7203V67.285H75.2643V67.2848H75.2648V54.0171Z" fill="#D6E0FF"/>
<path fill-rule="evenodd" clip-rule="evenodd" d="M87.8088 54.0171H86.2408V65.6265H75.2646V67.285H87.8087V67.2848H87.8088V54.0171Z" fill="#D6E0FF"/>
<path fill-rule="evenodd" clip-rule="evenodd" d="M100.353 54.0171H98.7848V65.6265H87.8085V67.285H100.352V67.2848H100.353V54.0171Z" fill="#D6E0FF"/>
<path fill-rule="evenodd" clip-rule="evenodd" d="M9.56998e-06 67.2842H1.56801V78.8936H10.9761V67.2842H12.5441V80.5519H12.544V80.5521H0V78.8936H9.56998e-06V67.2842Z" fill="#D6E0FF"/>
<path fill-rule="evenodd" clip-rule="evenodd" d="M25.0885 67.2842H23.5205V78.8936H12.5443V80.5521H25.0883V80.5519H25.0885V67.2842Z" fill="#D6E0FF"/>
<path fill-rule="evenodd" clip-rule="evenodd" d="M37.6324 67.2842H36.0644V78.8936H25.088V80.5521H37.632V80.5519H37.6324V67.2842Z" fill="#D6E0FF"/>
<path fill-rule="evenodd" clip-rule="evenodd" d="M50.1762 67.2842H48.6082V78.8936H37.6318V80.5521H50.1758V80.5519H50.1762V67.2842Z" fill="#D6E0FF"/>
<path fill-rule="evenodd" clip-rule="evenodd" d="M62.7206 67.2842H61.1526V78.8936H50.1764V80.5521H62.7204V80.5519H62.7206V67.2842Z" fill="#D6E0FF"/>
<path fill-rule="evenodd" clip-rule="evenodd" d="M75.2648 67.2842H73.6968V78.8936H62.7203V80.552H75.2643V80.5519H75.2648V67.2842Z" fill="#D6E0FF"/>
<path fill-rule="evenodd" clip-rule="evenodd" d="M87.8085 67.2842H86.2405V78.8936H75.2642V80.5521H87.8082V80.5519H87.8085V67.2842Z" fill="#D6E0FF"/>
<path fill-rule="evenodd" clip-rule="evenodd" d="M100.353 67.2842H98.7848V78.8936H87.8085V80.552H100.352V80.5519H100.353V67.2842Z" fill="#D6E0FF"/>
<path fill-rule="evenodd" clip-rule="evenodd" d="M9.56998e-06 80.5513H1.56801V92.1608H10.9761V80.5513H12.5441V93.819H12.544V93.8192H0V92.1608H9.56998e-06V80.5513Z" fill="#D6E0FF"/>
<path fill-rule="evenodd" clip-rule="evenodd" d="M25.0885 80.5513H23.5205V92.1608H12.5443V93.8192H25.0883V93.819H25.0885V80.5513Z" fill="#D6E0FF"/>
<path fill-rule="evenodd" clip-rule="evenodd" d="M37.6324 80.5513H36.0644V92.1608H25.088V93.8192H37.632V93.819H37.6324V80.5513Z" fill="#D6E0FF"/>
<path fill-rule="evenodd" clip-rule="evenodd" d="M50.1762 80.5513H48.6082V92.1608H37.6318V93.8192H50.1758V93.819H50.1762V80.5513Z" fill="#D6E0FF"/>
<path fill-rule="evenodd" clip-rule="evenodd" d="M62.7206 80.5513H61.1526V92.1608H50.1764V93.8192H62.7204V93.819H62.7206V80.5513Z" fill="#D6E0FF"/>
<path fill-rule="evenodd" clip-rule="evenodd" d="M75.2648 80.5513H73.6968V92.1607H62.7203V93.8191H75.2643V93.819H75.2648V80.5513Z" fill="#D6E0FF"/>
<path fill-rule="evenodd" clip-rule="evenodd" d="M87.8088 80.5513H86.2408V92.1608H75.2646V93.8192H87.8087V93.819H87.8088V80.5513Z" fill="#D6E0FF"/>
<path fill-rule="evenodd" clip-rule="evenodd" d="M100.353 80.5513H98.7848V92.1607H87.8085V93.8191H100.352V93.819H100.353V80.5513Z" fill="#D6E0FF"/>
<path fill-rule="evenodd" clip-rule="evenodd" d="M0 93.8203H1.568V105.43H10.9764V93.8203H12.5444V107.088H12.544V107.088H0V107.088V105.43V93.8203Z" fill="#D6E0FF"/>
<path fill-rule="evenodd" clip-rule="evenodd" d="M25.089 93.8203H23.521V105.43H12.5447V107.088H25.0887V107.088H25.089V93.8203Z" fill="#D6E0FF"/>
<path fill-rule="evenodd" clip-rule="evenodd" d="M37.6327 93.8203H36.0647V105.43H25.0883V107.088H37.6323V107.088H37.6327V93.8203Z" fill="#D6E0FF"/>
<path fill-rule="evenodd" clip-rule="evenodd" d="M50.1762 93.8203H48.6082V105.43H37.6318V107.088H50.1758V107.088H50.1762V93.8203Z" fill="#D6E0FF"/>
<path fill-rule="evenodd" clip-rule="evenodd" d="M62.721 93.8203H61.153V105.43H50.1768V107.088H62.7208V107.088H62.721V93.8203Z" fill="#D6E0FF"/>
<path fill-rule="evenodd" clip-rule="evenodd" d="M75.2648 93.8203H73.6968V105.43H62.7203V107.088H75.2643V107.088H75.2648V93.8203Z" fill="#D6E0FF"/>
<path fill-rule="evenodd" clip-rule="evenodd" d="M87.809 93.8203H86.241V105.43H75.2646V107.088H87.8087V107.088H87.809V93.8203Z" fill="#D6E0FF"/>
<path fill-rule="evenodd" clip-rule="evenodd" d="M100.353 93.8203H98.7851V105.43H87.8088V107.088H100.353V107.088H100.353V93.8203Z" fill="#D6E0FF"/>
<defs>
<clipPath id="clip0_639_9458">
<rect width="50.176" height="14.9261" fill="white" transform="translate(188.161 27.4814)"/>
</clipPath>
<clipPath id="clip1_639_9458">
<rect width="62.72" height="14.9261" fill="white" transform="translate(275.968 27.4814)"/>
</clipPath>
<clipPath id="clip2_639_9458">
<rect width="75.264" height="14.9261" fill="white" transform="translate(376.32 27.4814)"/>
</clipPath>
</defs>
</svg>
