<svg width="235" height="336" viewBox="0 0 235 336" fill="none" xmlns="http://www.w3.org/2000/svg">
<path d="M0 20C0 8.95431 8.9543 0 20 0H215C226.046 0 235 8.95431 235 20V316C235 327.046 226.046 336 215 336H10C4.47715 336 0 331.523 0 326V20Z" fill="#F9FAFC"/>
<path d="M46.2734 36.94L45.3334 36L41.3334 40L45.3334 44L46.2734 43.06L43.22 40L46.2734 36.94Z" fill="#474D66"/>
<path d="M76.1572 42.2246C76.1572 42.8171 76.0137 43.332 75.7266 43.7695C75.4395 44.207 75.0202 44.5443 74.4688 44.7812C73.9219 45.0182 73.2565 45.1367 72.4727 45.1367C72.1263 45.1367 71.7868 45.1139 71.4541 45.0684C71.126 45.0228 70.8092 44.9567 70.5039 44.8701C70.2031 44.779 69.916 44.6673 69.6426 44.5352V42.5664C70.1165 42.776 70.6087 42.9652 71.1191 43.1338C71.6296 43.3024 72.1354 43.3867 72.6367 43.3867C72.9831 43.3867 73.2611 43.3411 73.4707 43.25C73.6849 43.1589 73.8398 43.0335 73.9355 42.874C74.0312 42.7145 74.0791 42.5322 74.0791 42.3271C74.0791 42.0765 73.9948 41.8623 73.8262 41.6846C73.6576 41.5068 73.4251 41.3405 73.1289 41.1855C72.8372 41.0306 72.5068 40.8643 72.1377 40.6865C71.9053 40.5771 71.6523 40.445 71.3789 40.29C71.1055 40.1305 70.8457 39.9368 70.5996 39.709C70.3535 39.4811 70.1507 39.2054 69.9912 38.8818C69.8363 38.5537 69.7588 38.1618 69.7588 37.7061C69.7588 37.109 69.8955 36.5986 70.1689 36.1748C70.4424 35.751 70.832 35.4274 71.3379 35.2041C71.8483 34.9762 72.4499 34.8623 73.1426 34.8623C73.6621 34.8623 74.1566 34.9238 74.626 35.0469C75.0999 35.1654 75.5944 35.3385 76.1094 35.5664L75.4258 37.2139C74.9655 37.027 74.5531 36.8835 74.1885 36.7832C73.8239 36.6784 73.4525 36.626 73.0742 36.626C72.8099 36.626 72.5843 36.6693 72.3975 36.7559C72.2106 36.8379 72.0693 36.9564 71.9736 37.1113C71.8779 37.2617 71.8301 37.4372 71.8301 37.6377C71.8301 37.8747 71.8984 38.0752 72.0352 38.2393C72.1764 38.3988 72.3861 38.5537 72.6641 38.7041C72.9466 38.8545 73.2975 39.0299 73.7168 39.2305C74.2272 39.472 74.6624 39.7249 75.0225 39.9893C75.387 40.249 75.6673 40.5566 75.8633 40.9121C76.0592 41.263 76.1572 41.7005 76.1572 42.2246ZM80.9421 37.2139C81.6484 37.2139 82.2568 37.3506 82.7673 37.624C83.2777 37.8929 83.6719 38.2848 83.9499 38.7998C84.2279 39.3148 84.3669 39.9437 84.3669 40.6865V41.6982H79.4381C79.4609 42.2861 79.6364 42.7487 79.9645 43.0859C80.2972 43.4186 80.7575 43.585 81.3454 43.585C81.833 43.585 82.2796 43.5348 82.6852 43.4346C83.0908 43.3343 83.5078 43.1839 83.9362 42.9834V44.5967C83.5579 44.7835 83.1615 44.9202 82.7467 45.0068C82.3366 45.0934 81.8376 45.1367 81.2497 45.1367C80.484 45.1367 79.805 44.9954 79.2126 44.7129C78.6247 44.4303 78.1621 43.9997 77.8249 43.4209C77.4922 42.8421 77.3258 42.113 77.3258 41.2334C77.3258 40.3402 77.4762 39.5973 77.777 39.0049C78.0824 38.4079 78.5062 37.9613 79.0485 37.665C79.5908 37.3643 80.222 37.2139 80.9421 37.2139ZM80.9557 38.6973C80.5501 38.6973 80.2129 38.8271 79.944 39.0869C79.6797 39.3467 79.527 39.7546 79.486 40.3105H82.4118C82.4072 40.0007 82.3503 39.7249 82.2409 39.4834C82.1361 39.2419 81.9766 39.0505 81.7624 38.9092C81.5527 38.7679 81.2839 38.6973 80.9557 38.6973ZM89.2679 43.4756C89.4958 43.4756 89.7168 43.4528 89.931 43.4072C90.1497 43.3617 90.3662 43.3047 90.5804 43.2363V44.7881C90.3571 44.8883 90.0791 44.9704 89.7464 45.0342C89.4183 45.1025 89.0583 45.1367 88.6663 45.1367C88.2106 45.1367 87.8005 45.0638 87.4359 44.918C87.0758 44.7676 86.791 44.5101 86.5814 44.1455C86.3763 43.7764 86.2738 43.2637 86.2738 42.6074V38.9229H85.2757V38.041L86.4241 37.3438L87.0257 35.7305H88.3587V37.3574H90.4984V38.9229H88.3587V42.6074C88.3587 42.8991 88.4408 43.1178 88.6048 43.2637C88.7734 43.4049 88.9945 43.4756 89.2679 43.4756ZM95.3379 43.4756C95.5657 43.4756 95.7868 43.4528 96.001 43.4072C96.2197 43.3617 96.4362 43.3047 96.6504 43.2363V44.7881C96.4271 44.8883 96.1491 44.9704 95.8164 45.0342C95.4883 45.1025 95.1282 45.1367 94.7363 45.1367C94.2806 45.1367 93.8704 45.0638 93.5059 44.918C93.1458 44.7676 92.861 44.5101 92.6514 44.1455C92.4463 43.7764 92.3437 43.2637 92.3437 42.6074V38.9229H91.3457V38.041L92.4941 37.3438L93.0957 35.7305H94.4287V37.3574H96.5684V38.9229H94.4287V42.6074C94.4287 42.8991 94.5107 43.1178 94.6748 43.2637C94.8434 43.4049 95.0644 43.4756 95.3379 43.4756ZM100.273 37.3574V45H98.1881V37.3574H100.273ZM99.234 34.3633C99.5439 34.3633 99.8105 34.4362 100.034 34.582C100.257 34.7233 100.369 34.9899 100.369 35.3818C100.369 35.7692 100.257 36.0381 100.034 36.1885C99.8105 36.3343 99.5439 36.4072 99.234 36.4072C98.9196 36.4072 98.6507 36.3343 98.4274 36.1885C98.2086 36.0381 98.0993 35.7692 98.0993 35.3818C98.0993 34.9899 98.2086 34.7233 98.4274 34.582C98.6507 34.4362 98.9196 34.3633 99.234 34.3633ZM106.794 37.2139C107.61 37.2139 108.266 37.4372 108.763 37.8838C109.26 38.3258 109.508 39.0368 109.508 40.0166V45H107.423V40.5361C107.423 39.9893 107.323 39.5768 107.122 39.2988C106.926 39.0208 106.617 38.8818 106.193 38.8818C105.555 38.8818 105.119 39.0983 104.887 39.5312C104.655 39.9642 104.538 40.5885 104.538 41.4043V45H102.453V37.3574H104.046L104.326 38.335H104.443C104.607 38.0706 104.81 37.8564 105.051 37.6924C105.297 37.5283 105.568 37.4076 105.865 37.3301C106.165 37.2526 106.475 37.2139 106.794 37.2139ZM113.876 48.3633C112.81 48.3633 111.994 48.1764 111.429 47.8027C110.868 47.4336 110.588 46.9141 110.588 46.2441C110.588 45.7839 110.731 45.3988 111.019 45.0889C111.306 44.779 111.727 44.5579 112.283 44.4258C112.069 44.3346 111.882 44.1865 111.723 43.9814C111.563 43.7718 111.483 43.5508 111.483 43.3184C111.483 43.0267 111.568 42.7852 111.736 42.5938C111.905 42.3978 112.149 42.2064 112.468 42.0195C112.067 41.8464 111.748 41.5684 111.511 41.1855C111.278 40.8027 111.162 40.3516 111.162 39.832C111.162 39.276 111.283 38.8044 111.524 38.417C111.77 38.0251 112.126 37.7266 112.591 37.5215C113.06 37.3164 113.63 37.2139 114.3 37.2139C114.441 37.2139 114.605 37.223 114.792 37.2412C114.979 37.2594 115.15 37.2799 115.305 37.3027C115.464 37.3255 115.571 37.3438 115.626 37.3574H118.292V38.417L117.096 38.7246C117.205 38.8932 117.287 39.0732 117.342 39.2646C117.396 39.4561 117.424 39.6589 117.424 39.873C117.424 40.6934 117.137 41.3337 116.562 41.7939C115.993 42.2497 115.2 42.4775 114.184 42.4775C113.942 42.4639 113.714 42.4456 113.5 42.4229C113.395 42.5049 113.315 42.5915 113.261 42.6826C113.206 42.7738 113.179 42.8695 113.179 42.9697C113.179 43.07 113.22 43.1543 113.302 43.2227C113.388 43.2865 113.516 43.3366 113.685 43.373C113.858 43.4049 114.072 43.4209 114.327 43.4209H115.626C116.465 43.4209 117.103 43.6009 117.54 43.9609C117.982 44.321 118.203 44.8496 118.203 45.5469C118.203 46.4401 117.829 47.1328 117.082 47.625C116.339 48.1172 115.27 48.3633 113.876 48.3633ZM113.965 47.0029C114.462 47.0029 114.888 46.9551 115.243 46.8594C115.603 46.7682 115.879 46.6361 116.07 46.4629C116.262 46.2943 116.357 46.0915 116.357 45.8545C116.357 45.6631 116.3 45.5104 116.187 45.3965C116.077 45.2871 115.909 45.2096 115.681 45.1641C115.457 45.1185 115.17 45.0957 114.819 45.0957H113.739C113.484 45.0957 113.254 45.1367 113.049 45.2188C112.848 45.3008 112.689 45.4147 112.57 45.5605C112.452 45.7109 112.393 45.8841 112.393 46.0801C112.393 46.3672 112.529 46.5928 112.803 46.7568C113.081 46.9209 113.468 47.0029 113.965 47.0029ZM114.3 41.2061C114.692 41.2061 114.979 41.0853 115.161 40.8438C115.343 40.6022 115.435 40.2741 115.435 39.8594C115.435 39.3991 115.339 39.055 115.147 38.8271C114.961 38.5947 114.678 38.4785 114.3 38.4785C113.917 38.4785 113.63 38.5947 113.438 38.8271C113.247 39.055 113.151 39.3991 113.151 39.8594C113.151 40.2741 113.245 40.6022 113.432 40.8438C113.623 41.0853 113.912 41.2061 114.3 41.2061ZM124.875 42.7305C124.875 43.25 124.752 43.6898 124.506 44.0498C124.264 44.4053 123.902 44.6764 123.419 44.8633C122.936 45.0456 122.334 45.1367 121.614 45.1367C121.081 45.1367 120.623 45.1025 120.24 45.0342C119.862 44.9658 119.479 44.8519 119.091 44.6924V42.9697C119.506 43.1566 119.951 43.3115 120.424 43.4346C120.903 43.5531 121.322 43.6123 121.682 43.6123C122.088 43.6123 122.377 43.5531 122.55 43.4346C122.728 43.3115 122.817 43.152 122.817 42.9561C122.817 42.8285 122.781 42.7145 122.708 42.6143C122.639 42.5094 122.489 42.3932 122.256 42.2656C122.024 42.1335 121.659 41.9626 121.163 41.7529C120.684 41.5524 120.29 41.3496 119.98 41.1445C119.675 40.9395 119.447 40.6979 119.297 40.4199C119.151 40.1374 119.078 39.7796 119.078 39.3467C119.078 38.6403 119.351 38.1094 119.898 37.7539C120.45 37.3939 121.186 37.2139 122.106 37.2139C122.58 37.2139 123.031 37.2617 123.46 37.3574C123.893 37.4531 124.337 37.6058 124.793 37.8154L124.164 39.3193C123.785 39.1553 123.428 39.0208 123.09 38.916C122.758 38.8112 122.418 38.7588 122.072 38.7588C121.767 38.7588 121.536 38.7998 121.381 38.8818C121.227 38.9639 121.149 39.0892 121.149 39.2578C121.149 39.3809 121.188 39.4902 121.265 39.5859C121.347 39.6816 121.502 39.7887 121.73 39.9072C121.963 40.0212 122.302 40.1693 122.749 40.3516C123.182 40.5293 123.558 40.7161 123.877 40.9121C124.196 41.1035 124.442 41.3428 124.615 41.6299C124.788 41.9124 124.875 42.2793 124.875 42.7305Z" fill="#42526E"/>
<path d="M48.67 81.1299C50.04 82.0599 51 83.3199 51 84.9999V87.9999H55V84.9999C55 82.8199 51.43 81.5299 48.67 81.1299Z" fill="#474D66"/>
<path d="M47 80C49.21 80 51 78.21 51 76C51 73.79 49.21 72 47 72C46.53 72 46.09 72.1 45.67 72.24C46.5 73.27 47 74.58 47 76C47 77.42 46.5 78.73 45.67 79.76C46.09 79.9 46.53 80 47 80Z" fill="#474D66"/>
<path d="M41 80C43.21 80 45 78.21 45 76C45 73.79 43.21 72 41 72C38.79 72 37 73.79 37 76C37 78.21 38.79 80 41 80ZM41 74C42.1 74 43 74.9 43 76C43 77.1 42.1 78 41 78C39.9 78 39 77.1 39 76C39 74.9 39.9 74 41 74Z" fill="#474D66"/>
<path d="M41 81C38.33 81 33 82.34 33 85V88H49V85C49 82.34 43.67 81 41 81ZM47 86H35V85.01C35.2 84.29 38.3 83 41 83C43.7 83 46.8 84.29 47 85V86Z" fill="#474D66"/>
<path d="M80.9277 75.0059V81.4727C80.9277 82.179 80.7842 82.8079 80.4971 83.3594C80.2145 83.9108 79.7861 84.346 79.2119 84.665C78.6377 84.9795 77.9176 85.1367 77.0518 85.1367C75.8167 85.1367 74.8757 84.8018 74.2285 84.1318C73.5859 83.4619 73.2646 82.5664 73.2646 81.4453V75.0059H74.4336V81.4795C74.4336 82.3271 74.6569 82.9811 75.1035 83.4414C75.5547 83.9017 76.2269 84.1318 77.1201 84.1318C77.7308 84.1318 78.2298 84.0225 78.6172 83.8037C79.0091 83.5804 79.2985 83.2705 79.4854 82.874C79.6768 82.473 79.7725 82.0104 79.7725 81.4863V75.0059H80.9277ZM88.2419 82.9492C88.2419 83.4277 88.1211 83.8311 87.8796 84.1592C87.6426 84.4827 87.3008 84.7266 86.8542 84.8906C86.4121 85.0547 85.8835 85.1367 85.2682 85.1367C84.7441 85.1367 84.2907 85.0957 83.9079 85.0137C83.5251 84.9316 83.1901 84.8154 82.903 84.665V83.6191C83.2083 83.7695 83.5729 83.9062 83.9967 84.0293C84.4206 84.1523 84.8535 84.2139 85.2956 84.2139C85.9427 84.2139 86.4121 84.109 86.7038 83.8994C86.9954 83.6898 87.1413 83.4049 87.1413 83.0449C87.1413 82.8398 87.082 82.6598 86.9635 82.5049C86.8496 82.3454 86.6559 82.1927 86.3825 82.0469C86.109 81.8965 85.7308 81.7324 85.2477 81.5547C84.7692 81.3724 84.3545 81.1924 84.0036 81.0146C83.6572 80.8324 83.3883 80.6113 83.1969 80.3516C83.0101 80.0918 82.9167 79.7546 82.9167 79.3398C82.9167 78.7064 83.1719 78.221 83.6823 77.8838C84.1973 77.542 84.8717 77.3711 85.7057 77.3711C86.1569 77.3711 86.5784 77.4167 86.9704 77.5078C87.3669 77.5944 87.736 77.7129 88.0778 77.8633L87.695 78.7725C87.3851 78.6403 87.0547 78.5286 86.7038 78.4375C86.3529 78.3464 85.9951 78.3008 85.6305 78.3008C85.1064 78.3008 84.7031 78.3874 84.4206 78.5605C84.1426 78.7337 84.0036 78.9707 84.0036 79.2715C84.0036 79.5039 84.0674 79.6953 84.195 79.8457C84.3271 79.9961 84.5368 80.1374 84.8239 80.2695C85.111 80.4017 85.4893 80.5566 85.9587 80.7344C86.4281 80.9076 86.8337 81.0876 87.1755 81.2744C87.5173 81.4567 87.7793 81.68 87.9616 81.9443C88.1484 82.2041 88.2419 82.5391 88.2419 82.9492ZM92.9378 77.3711C93.5758 77.3711 94.1227 77.5124 94.5784 77.7949C95.0342 78.0775 95.3828 78.474 95.6243 78.9844C95.8659 79.4902 95.9866 80.0827 95.9866 80.7617V81.4658H90.8118C90.8255 82.3454 91.0443 83.0153 91.4681 83.4756C91.8919 83.9359 92.4889 84.166 93.2591 84.166C93.7331 84.166 94.1523 84.1227 94.5169 84.0361C94.8815 83.9495 95.2598 83.8219 95.6517 83.6533V84.6514C95.2734 84.82 94.8975 84.943 94.5238 85.0205C94.1546 85.098 93.7171 85.1367 93.2113 85.1367C92.4912 85.1367 91.8623 84.9909 91.3245 84.6992C90.7913 84.403 90.3766 83.9701 90.0804 83.4004C89.7842 82.8307 89.6361 82.1335 89.6361 81.3086C89.6361 80.502 89.7705 79.8047 90.0394 79.2168C90.3128 78.6243 90.6956 78.1686 91.1878 77.8496C91.6846 77.5306 92.2679 77.3711 92.9378 77.3711ZM92.9241 78.3008C92.318 78.3008 91.835 78.499 91.4749 78.8955C91.1149 79.292 90.9007 79.8457 90.8324 80.5566H94.7972C94.7926 80.11 94.722 79.7181 94.5853 79.3809C94.4531 79.0391 94.2503 78.7747 93.9769 78.5879C93.7034 78.3965 93.3525 78.3008 92.9241 78.3008ZM101.305 77.3711C101.455 77.3711 101.612 77.3802 101.776 77.3984C101.94 77.4121 102.086 77.4326 102.214 77.46L102.07 78.5127C101.947 78.4808 101.811 78.4557 101.66 78.4375C101.51 78.4193 101.368 78.4102 101.236 78.4102C100.936 78.4102 100.651 78.4717 100.382 78.5947C100.118 78.7132 99.8851 78.8864 99.6846 79.1143C99.484 79.3376 99.3268 79.6087 99.2129 79.9277C99.099 80.2422 99.042 80.5931 99.042 80.9805V85H97.9004V77.5078H98.8437L98.9668 78.8887H99.0146C99.1696 78.6107 99.3564 78.3577 99.5752 78.1299C99.7939 77.8975 100.047 77.7129 100.334 77.5762C100.626 77.4395 100.949 77.3711 101.305 77.3711ZM108.462 82.9492C108.462 83.4277 108.341 83.8311 108.099 84.1592C107.862 84.4827 107.52 84.7266 107.074 84.8906C106.632 85.0547 106.103 85.1367 105.488 85.1367C104.964 85.1367 104.51 85.0957 104.128 85.0137C103.745 84.9316 103.41 84.8154 103.123 84.665V83.6191C103.428 83.7695 103.793 83.9062 104.216 84.0293C104.64 84.1523 105.073 84.2139 105.515 84.2139C106.162 84.2139 106.632 84.109 106.923 83.8994C107.215 83.6898 107.361 83.4049 107.361 83.0449C107.361 82.8398 107.302 82.6598 107.183 82.5049C107.069 82.3454 106.876 82.1927 106.602 82.0469C106.329 81.8965 105.951 81.7324 105.467 81.5547C104.989 81.3724 104.574 81.1924 104.223 81.0146C103.877 80.8324 103.608 80.6113 103.417 80.3516C103.23 80.0918 103.136 79.7546 103.136 79.3398C103.136 78.7064 103.392 78.221 103.902 77.8838C104.417 77.542 105.091 77.3711 105.925 77.3711C106.377 77.3711 106.798 77.4167 107.19 77.5078C107.587 77.5944 107.956 77.7129 108.298 77.8633L107.915 78.7725C107.605 78.6403 107.274 78.5286 106.923 78.4375C106.573 78.3464 106.215 78.3008 105.85 78.3008C105.326 78.3008 104.923 78.3874 104.64 78.5605C104.362 78.7337 104.223 78.9707 104.223 79.2715C104.223 79.5039 104.287 79.6953 104.415 79.8457C104.547 79.9961 104.757 80.1374 105.044 80.2695C105.331 80.4017 105.709 80.5566 106.178 80.7344C106.648 80.9076 107.053 81.0876 107.395 81.2744C107.737 81.4567 107.999 81.68 108.181 81.9443C108.368 82.2041 108.462 82.5391 108.462 82.9492Z" fill="#474D66"/>
<path d="M50 120H46V121.5H50V120Z" fill="#474D66"/>
<path d="M50 123H46V124.5H50V123Z" fill="#474D66"/>
<path d="M52 115H47V112C47 110.9 46.1 110 45 110H43C41.9 110 41 110.9 41 112V115H36C34.9 115 34 115.9 34 117V128C34 129.1 34.9 130 36 130H52C53.1 130 54 129.1 54 128V117C54 115.9 53.1 115 52 115ZM43 115V112H45V115V117H43V115ZM52 128H36V117H41C41 118.1 41.9 119 43 119H45C46.1 119 47 118.1 47 117H52V128Z" fill="#474D66"/>
<path d="M41 123C41.8284 123 42.5 122.328 42.5 121.5C42.5 120.672 41.8284 120 41 120C40.1716 120 39.5 120.672 39.5 121.5C39.5 122.328 40.1716 123 41 123Z" fill="#474D66"/>
<path d="M43.08 124.18C42.44 123.9 41.74 123.75 41 123.75C40.26 123.75 39.56 123.9 38.92 124.18C38.36 124.42 38 124.96 38 125.57V126H44V125.57C44 124.96 43.64 124.42 43.08 124.18Z" fill="#474D66"/>
<path d="M76.0674 115.006C76.8877 115.006 77.5645 115.108 78.0977 115.313C78.6354 115.514 79.0365 115.822 79.3008 116.236C79.5651 116.651 79.6973 117.18 79.6973 117.822C79.6973 118.351 79.6016 118.793 79.4102 119.148C79.2188 119.499 78.9681 119.784 78.6582 120.003C78.3483 120.222 78.0179 120.39 77.667 120.509L80.4082 125H79.0547L76.6074 120.83H74.5293V125H73.3672V115.006H76.0674ZM75.999 116.011H74.5293V119.846H76.1152C76.931 119.846 77.5303 119.679 77.9131 119.347C78.3005 119.014 78.4941 118.524 78.4941 117.877C78.4941 117.198 78.2891 116.717 77.8789 116.435C77.4733 116.152 76.8467 116.011 75.999 116.011ZM84.7077 117.371C85.3457 117.371 85.8926 117.512 86.3483 117.795C86.804 118.077 87.1527 118.474 87.3942 118.984C87.6357 119.49 87.7565 120.083 87.7565 120.762V121.466H82.5817C82.5954 122.345 82.8141 123.015 83.238 123.476C83.6618 123.936 84.2588 124.166 85.029 124.166C85.5029 124.166 85.9222 124.123 86.2868 124.036C86.6514 123.95 87.0296 123.822 87.4215 123.653V124.651C87.0433 124.82 86.6673 124.943 86.2936 125.021C85.9245 125.098 85.487 125.137 84.9811 125.137C84.2611 125.137 83.6322 124.991 83.0944 124.699C82.5612 124.403 82.1465 123.97 81.8503 123.4C81.554 122.831 81.4059 122.133 81.4059 121.309C81.4059 120.502 81.5404 119.805 81.8092 119.217C82.0827 118.624 82.4655 118.169 82.9577 117.85C83.4544 117.531 84.0378 117.371 84.7077 117.371ZM84.694 118.301C84.0879 118.301 83.6048 118.499 83.2448 118.896C82.8848 119.292 82.6706 119.846 82.6022 120.557H86.5671C86.5625 120.11 86.4919 119.718 86.3551 119.381C86.223 119.039 86.0202 118.775 85.7467 118.588C85.4733 118.396 85.1224 118.301 84.694 118.301ZM94.5169 122.949C94.5169 123.428 94.3962 123.831 94.1546 124.159C93.9176 124.483 93.5758 124.727 93.1292 124.891C92.6872 125.055 92.1585 125.137 91.5433 125.137C91.0192 125.137 90.5658 125.096 90.1829 125.014C89.8001 124.932 89.4652 124.815 89.1781 124.665V123.619C89.4834 123.77 89.848 123.906 90.2718 124.029C90.6956 124.152 91.1286 124.214 91.5706 124.214C92.2178 124.214 92.6872 124.109 92.9788 123.899C93.2705 123.69 93.4163 123.405 93.4163 123.045C93.4163 122.84 93.3571 122.66 93.2386 122.505C93.1247 122.345 92.931 122.193 92.6575 122.047C92.3841 121.896 92.0059 121.732 91.5228 121.555C91.0443 121.372 90.6296 121.192 90.2786 121.015C89.9323 120.832 89.6634 120.611 89.472 120.352C89.2852 120.092 89.1917 119.755 89.1917 119.34C89.1917 118.706 89.4469 118.221 89.9574 117.884C90.4723 117.542 91.1468 117.371 91.9808 117.371C92.432 117.371 92.8535 117.417 93.2454 117.508C93.6419 117.594 94.0111 117.713 94.3529 117.863L93.97 118.772C93.6602 118.64 93.3297 118.529 92.9788 118.438C92.6279 118.346 92.2702 118.301 91.9056 118.301C91.3815 118.301 90.9782 118.387 90.6956 118.561C90.4176 118.734 90.2786 118.971 90.2786 119.271C90.2786 119.504 90.3424 119.695 90.47 119.846C90.6022 119.996 90.8118 120.137 91.099 120.27C91.3861 120.402 91.7643 120.557 92.2337 120.734C92.7031 120.908 93.1087 121.088 93.4505 121.274C93.7923 121.457 94.0544 121.68 94.2366 121.944C94.4235 122.204 94.5169 122.539 94.5169 122.949ZM102.788 121.24C102.788 121.855 102.708 122.405 102.549 122.888C102.389 123.371 102.159 123.779 101.858 124.111C101.558 124.444 101.193 124.699 100.765 124.877C100.341 125.05 99.86 125.137 99.3223 125.137C98.821 125.137 98.3607 125.05 97.9414 124.877C97.5267 124.699 97.1667 124.444 96.8613 124.111C96.5605 123.779 96.3258 123.371 96.1572 122.888C95.9932 122.405 95.9111 121.855 95.9111 121.24C95.9111 120.42 96.0501 119.723 96.3281 119.148C96.6061 118.57 97.0026 118.13 97.5176 117.829C98.0371 117.524 98.6546 117.371 99.3701 117.371C100.054 117.371 100.651 117.524 101.161 117.829C101.676 118.134 102.075 118.576 102.357 119.155C102.645 119.729 102.788 120.424 102.788 121.24ZM97.0869 121.24C97.0869 121.842 97.1667 122.364 97.3262 122.806C97.4857 123.248 97.7318 123.59 98.0644 123.831C98.3971 124.073 98.8255 124.193 99.3496 124.193C99.8691 124.193 100.295 124.073 100.628 123.831C100.965 123.59 101.214 123.248 101.373 122.806C101.533 122.364 101.612 121.842 101.612 121.24C101.612 120.643 101.533 120.128 101.373 119.695C101.214 119.258 100.967 118.921 100.635 118.684C100.302 118.447 99.8714 118.328 99.3428 118.328C98.5635 118.328 97.9915 118.586 97.6269 119.101C97.2669 119.616 97.0869 120.329 97.0869 121.24ZM110.923 117.508V125H109.993L109.829 123.947H109.767C109.612 124.207 109.412 124.426 109.166 124.604C108.92 124.781 108.642 124.913 108.332 125C108.026 125.091 107.701 125.137 107.354 125.137C106.762 125.137 106.265 125.041 105.864 124.85C105.463 124.658 105.16 124.362 104.955 123.961C104.754 123.56 104.654 123.045 104.654 122.416V117.508H105.802V122.334C105.802 122.958 105.944 123.425 106.226 123.735C106.509 124.041 106.939 124.193 107.518 124.193C108.074 124.193 108.516 124.089 108.844 123.879C109.177 123.669 109.416 123.362 109.562 122.956C109.708 122.546 109.781 122.045 109.781 121.452V117.508H110.923ZM116.712 117.371C116.863 117.371 117.02 117.38 117.184 117.398C117.348 117.412 117.494 117.433 117.621 117.46L117.478 118.513C117.355 118.481 117.218 118.456 117.068 118.438C116.917 118.419 116.776 118.41 116.644 118.41C116.343 118.41 116.058 118.472 115.789 118.595C115.525 118.713 115.293 118.886 115.092 119.114C114.892 119.338 114.734 119.609 114.62 119.928C114.506 120.242 114.45 120.593 114.45 120.98V125H113.308V117.508H114.251L114.374 118.889H114.422C114.577 118.611 114.764 118.358 114.983 118.13C115.201 117.897 115.454 117.713 115.742 117.576C116.033 117.439 116.357 117.371 116.712 117.371ZM122.023 125.137C121.349 125.137 120.754 124.998 120.239 124.72C119.724 124.442 119.323 124.018 119.036 123.448C118.749 122.879 118.605 122.161 118.605 121.295C118.605 120.388 118.756 119.647 119.057 119.073C119.362 118.494 119.781 118.066 120.314 117.788C120.848 117.51 121.454 117.371 122.133 117.371C122.506 117.371 122.867 117.41 123.213 117.487C123.564 117.56 123.851 117.654 124.074 117.768L123.732 118.718C123.505 118.627 123.24 118.545 122.939 118.472C122.643 118.399 122.365 118.362 122.105 118.362C121.586 118.362 121.153 118.474 120.807 118.697C120.465 118.921 120.207 119.249 120.034 119.682C119.866 120.115 119.781 120.648 119.781 121.281C119.781 121.887 119.863 122.405 120.027 122.833C120.196 123.261 120.444 123.59 120.772 123.817C121.105 124.041 121.52 124.152 122.017 124.152C122.413 124.152 122.771 124.111 123.09 124.029C123.409 123.943 123.698 123.842 123.958 123.729V124.74C123.707 124.868 123.427 124.966 123.117 125.034C122.812 125.103 122.447 125.137 122.023 125.137ZM128.606 117.371C129.244 117.371 129.791 117.512 130.247 117.795C130.702 118.077 131.051 118.474 131.293 118.984C131.534 119.49 131.655 120.083 131.655 120.762V121.466H126.48C126.494 122.345 126.713 123.015 127.136 123.476C127.56 123.936 128.157 124.166 128.927 124.166C129.401 124.166 129.821 124.123 130.185 124.036C130.55 123.95 130.928 123.822 131.32 123.653V124.651C130.942 124.82 130.566 124.943 130.192 125.021C129.823 125.098 129.385 125.137 128.88 125.137C128.159 125.137 127.531 124.991 126.993 124.699C126.46 124.403 126.045 123.97 125.749 123.4C125.452 122.831 125.304 122.133 125.304 121.309C125.304 120.502 125.439 119.805 125.708 119.217C125.981 118.624 126.364 118.169 126.856 117.85C127.353 117.531 127.936 117.371 128.606 117.371ZM128.592 118.301C127.986 118.301 127.503 118.499 127.143 118.896C126.783 119.292 126.569 119.846 126.501 120.557H130.465C130.461 120.11 130.39 119.718 130.254 119.381C130.121 119.039 129.919 118.775 129.645 118.588C129.372 118.396 129.021 118.301 128.592 118.301ZM138.415 122.949C138.415 123.428 138.295 123.831 138.053 124.159C137.816 124.483 137.474 124.727 137.028 124.891C136.586 125.055 136.057 125.137 135.442 125.137C134.918 125.137 134.464 125.096 134.081 125.014C133.699 124.932 133.364 124.815 133.076 124.665V123.619C133.382 123.77 133.746 123.906 134.17 124.029C134.594 124.152 135.027 124.214 135.469 124.214C136.116 124.214 136.586 124.109 136.877 123.899C137.169 123.69 137.315 123.405 137.315 123.045C137.315 122.84 137.256 122.66 137.137 122.505C137.023 122.345 136.829 122.193 136.556 122.047C136.283 121.896 135.904 121.732 135.421 121.555C134.943 121.372 134.528 121.192 134.177 121.015C133.831 120.832 133.562 120.611 133.37 120.352C133.184 120.092 133.09 119.755 133.09 119.34C133.09 118.706 133.345 118.221 133.856 117.884C134.371 117.542 135.045 117.371 135.879 117.371C136.33 117.371 136.752 117.417 137.144 117.508C137.54 117.594 137.909 117.713 138.251 117.863L137.868 118.772C137.559 118.64 137.228 118.529 136.877 118.438C136.526 118.346 136.169 118.301 135.804 118.301C135.28 118.301 134.877 118.387 134.594 118.561C134.316 118.734 134.177 118.971 134.177 119.271C134.177 119.504 134.241 119.695 134.368 119.846C134.501 119.996 134.71 120.137 134.997 120.27C135.284 120.402 135.663 120.557 136.132 120.734C136.602 120.908 137.007 121.088 137.349 121.274C137.691 121.457 137.953 121.68 138.135 121.944C138.322 122.204 138.415 122.539 138.415 122.949Z" fill="#474D66"/>
<path d="M44 150L38.5 159H49.5L44 150ZM44 153.84L45.93 157H42.06L44 153.84ZM49.5 161C47.01 161 45 163.01 45 165.5C45 167.99 47.01 170 49.5 170C51.99 170 54 167.99 54 165.5C54 163.01 51.99 161 49.5 161ZM49.5 168C48.12 168 47 166.88 47 165.5C47 164.12 48.12 163 49.5 163C50.88 163 52 164.12 52 165.5C52 166.88 50.88 168 49.5 168ZM35 169.5H43V161.5H35V169.5ZM37 163.5H41V167.5H37V163.5Z" fill="#474D66"/>
<path d="M76.4365 165H75.2676V156.031H72.123V155.006H79.5674V156.031H76.4365V165ZM79.7106 157.508H80.9274L82.5817 161.855C82.6774 162.111 82.7663 162.357 82.8483 162.594C82.9303 162.826 83.0033 163.049 83.0671 163.264C83.1309 163.478 83.181 163.685 83.2174 163.886H83.2653C83.3291 163.658 83.4202 163.359 83.5387 162.99C83.6572 162.617 83.7848 162.236 83.9215 161.849L85.487 157.508H86.7106L83.4499 166.101C83.2767 166.561 83.0739 166.962 82.8415 167.304C82.6136 167.646 82.3356 167.908 82.0075 168.09C81.6794 168.277 81.2829 168.37 80.818 168.37C80.6038 168.37 80.4147 168.356 80.2506 168.329C80.0866 168.306 79.9453 168.279 79.8268 168.247V167.338C79.9271 167.361 80.0478 167.381 80.1891 167.399C80.335 167.418 80.4853 167.427 80.6403 167.427C80.9228 167.427 81.1667 167.372 81.3717 167.263C81.5814 167.158 81.7614 167.003 81.9118 166.798C82.0622 166.593 82.1921 166.349 82.3014 166.066L82.7116 165.014L79.7106 157.508ZM91.4134 157.371C92.3477 157.371 93.0928 157.692 93.6488 158.335C94.2047 158.978 94.4827 159.944 94.4827 161.233C94.4827 162.086 94.3551 162.801 94.0999 163.38C93.8447 163.959 93.4847 164.396 93.0199 164.692C92.5596 164.989 92.015 165.137 91.3861 165.137C90.9896 165.137 90.6409 165.084 90.3402 164.979C90.0394 164.875 89.7819 164.733 89.5677 164.556C89.3535 164.378 89.1758 164.184 89.0345 163.975H88.9525C88.9661 164.152 88.9821 164.367 89.0003 164.617C89.0231 164.868 89.0345 165.087 89.0345 165.273V168.35H87.8929V157.508H88.8294L88.9798 158.615H89.0345C89.1803 158.387 89.3581 158.18 89.5677 157.993C89.7773 157.802 90.0325 157.651 90.3333 157.542C90.6387 157.428 90.9987 157.371 91.4134 157.371ZM91.2152 158.328C90.6956 158.328 90.2764 158.428 89.9574 158.629C89.6429 158.829 89.4128 159.13 89.2669 159.531C89.1211 159.928 89.0436 160.427 89.0345 161.028V161.247C89.0345 161.881 89.1029 162.416 89.2396 162.854C89.3809 163.291 89.611 163.624 89.93 163.852C90.2536 164.079 90.6865 164.193 91.2288 164.193C91.6937 164.193 92.081 164.068 92.3909 163.817C92.7008 163.567 92.931 163.218 93.0814 162.771C93.2363 162.32 93.3138 161.803 93.3138 161.22C93.3138 160.336 93.1406 159.634 92.7943 159.114C92.4525 158.59 91.9261 158.328 91.2152 158.328ZM99.3359 157.371C99.974 157.371 100.521 157.512 100.977 157.795C101.432 158.077 101.781 158.474 102.022 158.984C102.264 159.49 102.385 160.083 102.385 160.762V161.466H97.21C97.2236 162.345 97.4424 163.015 97.8662 163.476C98.29 163.936 98.887 164.166 99.6572 164.166C100.131 164.166 100.55 164.123 100.915 164.036C101.28 163.95 101.658 163.822 102.05 163.653V164.651C101.672 164.82 101.296 164.943 100.922 165.021C100.553 165.098 100.115 165.137 99.6094 165.137C98.8893 165.137 98.2604 164.991 97.7226 164.699C97.1894 164.403 96.7747 163.97 96.4785 163.4C96.1823 162.831 96.0342 162.133 96.0342 161.309C96.0342 160.502 96.1686 159.805 96.4375 159.217C96.7109 158.624 97.0937 158.169 97.5859 157.85C98.0827 157.531 98.666 157.371 99.3359 157.371ZM99.3223 158.301C98.7161 158.301 98.2331 158.499 97.873 158.896C97.513 159.292 97.2988 159.846 97.2305 160.557H101.195C101.191 160.11 101.12 159.718 100.983 159.381C100.851 159.039 100.648 158.775 100.375 158.588C100.102 158.396 99.7506 158.301 99.3223 158.301ZM114.381 161.24C114.381 161.855 114.301 162.405 114.142 162.888C113.982 163.371 113.752 163.779 113.451 164.111C113.151 164.444 112.786 164.699 112.358 164.877C111.934 165.05 111.453 165.137 110.915 165.137C110.414 165.137 109.954 165.05 109.534 164.877C109.12 164.699 108.76 164.444 108.454 164.111C108.154 163.779 107.919 163.371 107.75 162.888C107.586 162.405 107.504 161.855 107.504 161.24C107.504 160.42 107.643 159.723 107.921 159.148C108.199 158.57 108.596 158.13 109.111 157.829C109.63 157.524 110.248 157.371 110.963 157.371C111.647 157.371 112.244 157.524 112.754 157.829C113.269 158.134 113.668 158.576 113.951 159.155C114.238 159.729 114.381 160.424 114.381 161.24ZM108.68 161.24C108.68 161.842 108.76 162.364 108.919 162.806C109.079 163.248 109.325 163.59 109.658 163.831C109.99 164.073 110.419 164.193 110.943 164.193C111.462 164.193 111.888 164.073 112.221 163.831C112.558 163.59 112.807 163.248 112.966 162.806C113.126 162.364 113.205 161.842 113.205 161.24C113.205 160.643 113.126 160.128 112.966 159.695C112.807 159.258 112.561 158.921 112.228 158.684C111.895 158.447 111.465 158.328 110.936 158.328C110.157 158.328 109.585 158.586 109.22 159.101C108.86 159.616 108.68 160.329 108.68 161.24ZM119.665 158.396H117.799V165H116.664V158.396H115.338V157.85L116.664 157.474V156.975C116.664 156.346 116.757 155.835 116.944 155.443C117.131 155.047 117.402 154.755 117.758 154.568C118.113 154.382 118.546 154.288 119.057 154.288C119.344 154.288 119.606 154.313 119.843 154.363C120.084 154.413 120.296 154.47 120.479 154.534L120.185 155.43C120.03 155.38 119.854 155.334 119.658 155.293C119.467 155.247 119.271 155.225 119.07 155.225C118.637 155.225 118.316 155.366 118.106 155.648C117.901 155.926 117.799 156.364 117.799 156.961V157.508H119.665V158.396ZM129.501 162.949C129.501 163.428 129.381 163.831 129.139 164.159C128.902 164.483 128.56 164.727 128.114 164.891C127.672 165.055 127.143 165.137 126.528 165.137C126.004 165.137 125.55 165.096 125.167 165.014C124.784 164.932 124.45 164.815 124.162 164.665V163.619C124.468 163.77 124.832 163.906 125.256 164.029C125.68 164.152 126.113 164.214 126.555 164.214C127.202 164.214 127.672 164.109 127.963 163.899C128.255 163.69 128.401 163.405 128.401 163.045C128.401 162.84 128.341 162.66 128.223 162.505C128.109 162.345 127.915 162.193 127.642 162.047C127.368 161.896 126.99 161.732 126.507 161.555C126.029 161.372 125.614 161.192 125.263 161.015C124.917 160.832 124.648 160.611 124.456 160.352C124.27 160.092 124.176 159.755 124.176 159.34C124.176 158.706 124.431 158.221 124.942 157.884C125.457 157.542 126.131 157.371 126.965 157.371C127.416 157.371 127.838 157.417 128.23 157.508C128.626 157.594 128.995 157.713 129.337 157.863L128.954 158.772C128.645 158.64 128.314 158.529 127.963 158.438C127.612 158.346 127.255 158.301 126.89 158.301C126.366 158.301 125.963 158.387 125.68 158.561C125.402 158.734 125.263 158.971 125.263 159.271C125.263 159.504 125.327 159.695 125.454 159.846C125.587 159.996 125.796 160.137 126.083 160.27C126.37 160.402 126.749 160.557 127.218 160.734C127.687 160.908 128.093 161.088 128.435 161.274C128.777 161.457 129.039 161.68 129.221 161.944C129.408 162.204 129.501 162.539 129.501 162.949ZM134.833 157.371C135.767 157.371 136.512 157.692 137.068 158.335C137.624 158.978 137.902 159.944 137.902 161.233C137.902 162.086 137.775 162.801 137.52 163.38C137.264 163.959 136.904 164.396 136.439 164.692C135.979 164.989 135.435 165.137 134.806 165.137C134.409 165.137 134.061 165.084 133.76 164.979C133.459 164.875 133.201 164.733 132.987 164.556C132.773 164.378 132.595 164.184 132.454 163.975H132.372C132.386 164.152 132.402 164.367 132.42 164.617C132.443 164.868 132.454 165.087 132.454 165.273V168.35H131.312V157.508H132.249L132.399 158.615H132.454C132.6 158.387 132.778 158.18 132.987 157.993C133.197 157.802 133.452 157.651 133.753 157.542C134.058 157.428 134.418 157.371 134.833 157.371ZM134.635 158.328C134.115 158.328 133.696 158.428 133.377 158.629C133.062 158.829 132.832 159.13 132.687 159.531C132.541 159.928 132.463 160.427 132.454 161.028V161.247C132.454 161.881 132.522 162.416 132.659 162.854C132.8 163.291 133.031 163.624 133.35 163.852C133.673 164.079 134.106 164.193 134.648 164.193C135.113 164.193 135.501 164.068 135.811 163.817C136.12 163.567 136.351 163.218 136.501 162.771C136.656 162.32 136.733 161.803 136.733 161.22C136.733 160.336 136.56 159.634 136.214 159.114C135.872 158.59 135.346 158.328 134.635 158.328ZM142.756 157.371C143.394 157.371 143.94 157.512 144.396 157.795C144.852 158.077 145.2 158.474 145.442 158.984C145.684 159.49 145.804 160.083 145.804 160.762V161.466H140.63C140.643 162.345 140.862 163.015 141.286 163.476C141.71 163.936 142.307 164.166 143.077 164.166C143.551 164.166 143.97 164.123 144.335 164.036C144.699 163.95 145.077 163.822 145.469 163.653V164.651C145.091 164.82 144.715 164.943 144.341 165.021C143.972 165.098 143.535 165.137 143.029 165.137C142.309 165.137 141.68 164.991 141.142 164.699C140.609 164.403 140.194 163.97 139.898 163.4C139.602 162.831 139.454 162.133 139.454 161.309C139.454 160.502 139.588 159.805 139.857 159.217C140.131 158.624 140.513 158.169 141.006 157.85C141.502 157.531 142.086 157.371 142.756 157.371ZM142.742 158.301C142.136 158.301 141.653 158.499 141.293 158.896C140.933 159.292 140.718 159.846 140.65 160.557H144.615C144.61 160.11 144.54 159.718 144.403 159.381C144.271 159.039 144.068 158.775 143.795 158.588C143.521 158.396 143.17 158.301 142.742 158.301ZM150.719 165.137C150.045 165.137 149.45 164.998 148.935 164.72C148.42 164.442 148.019 164.018 147.732 163.448C147.445 162.879 147.301 162.161 147.301 161.295C147.301 160.388 147.451 159.647 147.752 159.073C148.058 158.494 148.477 158.066 149.01 157.788C149.543 157.51 150.149 157.371 150.828 157.371C151.202 157.371 151.562 157.41 151.909 157.487C152.259 157.56 152.547 157.654 152.77 157.768L152.428 158.718C152.2 158.627 151.936 158.545 151.635 158.472C151.339 158.399 151.061 158.362 150.801 158.362C150.282 158.362 149.849 158.474 149.502 158.697C149.16 158.921 148.903 159.249 148.73 159.682C148.561 160.115 148.477 160.648 148.477 161.281C148.477 161.887 148.559 162.405 148.723 162.833C148.892 163.261 149.14 163.59 149.468 163.817C149.801 164.041 150.215 164.152 150.712 164.152C151.109 164.152 151.466 164.111 151.785 164.029C152.104 163.943 152.394 163.842 152.654 163.729V164.74C152.403 164.868 152.123 164.966 151.813 165.034C151.507 165.103 151.143 165.137 150.719 165.137ZM155.552 157.508V165H154.417V157.508H155.552ZM154.998 154.705C155.185 154.705 155.344 154.767 155.477 154.89C155.613 155.008 155.682 155.195 155.682 155.45C155.682 155.701 155.613 155.888 155.477 156.011C155.344 156.134 155.185 156.195 154.998 156.195C154.802 156.195 154.638 156.134 154.506 156.011C154.378 155.888 154.314 155.701 154.314 155.45C154.314 155.195 154.378 155.008 154.506 154.89C154.638 154.767 154.802 154.705 154.998 154.705ZM160.747 157.385C161.64 157.385 162.303 157.585 162.736 157.986C163.169 158.387 163.385 159.028 163.385 159.907V165H162.558L162.339 163.893H162.285C162.075 164.166 161.856 164.396 161.629 164.583C161.401 164.765 161.136 164.904 160.836 165C160.539 165.091 160.175 165.137 159.742 165.137C159.286 165.137 158.881 165.057 158.525 164.897C158.174 164.738 157.896 164.496 157.691 164.173C157.491 163.849 157.39 163.439 157.39 162.942C157.39 162.195 157.686 161.621 158.279 161.22C158.871 160.819 159.774 160.6 160.986 160.563L162.278 160.509V160.051C162.278 159.404 162.139 158.95 161.861 158.69C161.583 158.431 161.191 158.301 160.685 158.301C160.293 158.301 159.92 158.358 159.564 158.472C159.209 158.586 158.871 158.72 158.552 158.875L158.204 158.014C158.541 157.84 158.928 157.692 159.366 157.569C159.803 157.446 160.264 157.385 160.747 157.385ZM162.264 161.309L161.123 161.356C160.188 161.393 159.53 161.546 159.147 161.814C158.764 162.083 158.573 162.464 158.573 162.956C158.573 163.384 158.703 163.701 158.963 163.906C159.222 164.111 159.566 164.214 159.995 164.214C160.66 164.214 161.205 164.029 161.629 163.66C162.052 163.291 162.264 162.737 162.264 161.999V161.309ZM166.851 165H165.709V154.363H166.851V165ZM171.656 164.207C171.843 164.207 172.034 164.191 172.23 164.159C172.426 164.127 172.586 164.089 172.709 164.043V164.925C172.577 164.984 172.392 165.034 172.155 165.075C171.923 165.116 171.695 165.137 171.472 165.137C171.075 165.137 170.715 165.068 170.392 164.932C170.068 164.79 169.808 164.553 169.612 164.221C169.421 163.888 169.325 163.428 169.325 162.84V158.396H168.259V157.843L169.332 157.398L169.783 155.771H170.467V157.508H172.661V158.396H170.467V162.806C170.467 163.275 170.574 163.626 170.788 163.858C171.007 164.091 171.296 164.207 171.656 164.207ZM175.347 157.508V165H174.213V157.508H175.347ZM174.794 154.705C174.98 154.705 175.14 154.767 175.272 154.89C175.409 155.008 175.477 155.195 175.477 155.45C175.477 155.701 175.409 155.888 175.272 156.011C175.14 156.134 174.98 156.195 174.794 156.195C174.598 156.195 174.434 156.134 174.301 156.011C174.174 155.888 174.11 155.701 174.11 155.45C174.11 155.195 174.174 155.008 174.301 154.89C174.434 154.767 174.598 154.705 174.794 154.705ZM180.624 157.371C181.262 157.371 181.809 157.512 182.265 157.795C182.721 158.077 183.069 158.474 183.311 158.984C183.552 159.49 183.673 160.083 183.673 160.762V161.466H178.498C178.512 162.345 178.731 163.015 179.155 163.476C179.578 163.936 180.175 164.166 180.946 164.166C181.42 164.166 181.839 164.123 182.203 164.036C182.568 163.95 182.946 163.822 183.338 163.653V164.651C182.96 164.82 182.584 164.943 182.21 165.021C181.841 165.098 181.404 165.137 180.898 165.137C180.178 165.137 179.549 164.991 179.011 164.699C178.478 164.403 178.063 163.97 177.767 163.4C177.471 162.831 177.323 162.133 177.323 161.309C177.323 160.502 177.457 159.805 177.726 159.217C177.999 158.624 178.382 158.169 178.874 157.85C179.371 157.531 179.954 157.371 180.624 157.371ZM180.611 158.301C180.005 158.301 179.521 158.499 179.161 158.896C178.801 159.292 178.587 159.846 178.519 160.557H182.484C182.479 160.11 182.408 159.718 182.272 159.381C182.14 159.039 181.937 158.775 181.663 158.588C181.39 158.396 181.039 158.301 180.611 158.301ZM190.434 162.949C190.434 163.428 190.313 163.831 190.071 164.159C189.834 164.483 189.492 164.727 189.046 164.891C188.604 165.055 188.075 165.137 187.46 165.137C186.936 165.137 186.482 165.096 186.1 165.014C185.717 164.932 185.382 164.815 185.095 164.665V163.619C185.4 163.77 185.765 163.906 186.188 164.029C186.612 164.152 187.045 164.214 187.487 164.214C188.134 164.214 188.604 164.109 188.895 163.899C189.187 163.69 189.333 163.405 189.333 163.045C189.333 162.84 189.274 162.66 189.155 162.505C189.041 162.345 188.848 162.193 188.574 162.047C188.301 161.896 187.922 161.732 187.439 161.555C186.961 161.372 186.546 161.192 186.195 161.015C185.849 160.832 185.58 160.611 185.389 160.352C185.202 160.092 185.108 159.755 185.108 159.34C185.108 158.706 185.364 158.221 185.874 157.884C186.389 157.542 187.063 157.371 187.897 157.371C188.349 157.371 188.77 157.417 189.162 157.508C189.559 157.594 189.928 157.713 190.269 157.863L189.887 158.772C189.577 158.64 189.246 158.529 188.895 158.438C188.545 158.346 188.187 158.301 187.822 158.301C187.298 158.301 186.895 158.387 186.612 158.561C186.334 158.734 186.195 158.971 186.195 159.271C186.195 159.504 186.259 159.695 186.387 159.846C186.519 159.996 186.728 160.137 187.016 160.27C187.303 160.402 187.681 160.557 188.15 160.734C188.62 160.908 189.025 161.088 189.367 161.274C189.709 161.457 189.971 161.68 190.153 161.944C190.34 162.204 190.434 162.539 190.434 162.949Z" fill="#474D66"/>
<path d="M45.0001 199.33L50.0001 206H38.0001L43.0001 199.33V194H45.0001V199.33ZM47.9601 192H40.0401C39.6201 192 39.3901 192.48 39.6501 192.81L41.0001 194.5V198.67L35.2001 206.4C34.7101 207.06 35.1801 208 36.0001 208H52.0001C52.8201 208 53.2901 207.06 52.8001 206.4L47.0001 198.67V194.5L48.3501 192.81C48.6101 192.48 48.3801 192 47.9601 192Z" fill="#474D66"/>
<path d="M78.9316 205H73.3672V195.006H78.9316V196.031H74.5293V199.265H78.6787V200.276H74.5293V203.975H78.9316V205ZM82.7458 201.165L80.1549 197.508H81.4538L83.4294 200.393L85.3981 197.508H86.6833L84.0924 201.165L86.8268 205H85.528L83.4294 201.944L81.3171 205H80.0319L82.7458 201.165ZM91.0784 197.385C91.9717 197.385 92.6348 197.585 93.0677 197.986C93.5006 198.387 93.7171 199.028 93.7171 199.907V205H92.89L92.6712 203.893H92.6165C92.4069 204.166 92.1881 204.396 91.9603 204.583C91.7324 204.765 91.4681 204.904 91.1673 205C90.8711 205.091 90.5065 205.137 90.0736 205.137C89.6178 205.137 89.2122 205.057 88.8568 204.897C88.5059 204.738 88.2279 204.496 88.0228 204.173C87.8223 203.849 87.722 203.439 87.722 202.942C87.722 202.195 88.0182 201.621 88.6107 201.22C89.2031 200.819 90.1055 200.6 91.3177 200.563L92.6097 200.509V200.051C92.6097 199.404 92.4707 198.95 92.1927 198.69C91.9147 198.431 91.5228 198.301 91.0169 198.301C90.625 198.301 90.2513 198.358 89.8958 198.472C89.5404 198.586 89.2031 198.72 88.8841 198.875L88.5355 198.014C88.8727 197.84 89.2601 197.692 89.6976 197.569C90.1351 197.446 90.5954 197.385 91.0784 197.385ZM92.596 201.309L91.4544 201.356C90.5202 201.393 89.8616 201.546 89.4788 201.814C89.096 202.083 88.9046 202.464 88.9046 202.956C88.9046 203.384 89.0345 203.701 89.2943 203.906C89.554 204.111 89.8981 204.214 90.3265 204.214C90.9919 204.214 91.5365 204.029 91.9603 203.66C92.3841 203.291 92.596 202.737 92.596 201.999V201.309ZM104.176 197.371C105.001 197.371 105.623 197.588 106.042 198.021C106.461 198.449 106.671 199.139 106.671 200.092V205H105.55V200.146C105.55 199.54 105.418 199.087 105.153 198.786C104.894 198.481 104.506 198.328 103.991 198.328C103.267 198.328 102.74 198.538 102.412 198.957C102.084 199.376 101.92 199.994 101.92 200.81V205H100.792V200.146C100.792 199.741 100.733 199.404 100.614 199.135C100.5 198.866 100.327 198.665 100.095 198.533C99.8669 198.396 99.5775 198.328 99.2266 198.328C98.7298 198.328 98.331 198.431 98.0303 198.636C97.7295 198.841 97.5107 199.146 97.374 199.552C97.2419 199.953 97.1758 200.447 97.1758 201.035V205H96.041V197.508H96.957L97.1279 198.567H97.1894C97.3398 198.308 97.529 198.089 97.7568 197.911C97.9847 197.733 98.2399 197.599 98.5225 197.508C98.805 197.417 99.1058 197.371 99.4248 197.371C99.9945 197.371 100.471 197.478 100.854 197.692C101.241 197.902 101.521 198.223 101.694 198.656H101.756C102.002 198.223 102.339 197.902 102.768 197.692C103.196 197.478 103.665 197.371 104.176 197.371ZM113.835 202.949C113.835 203.428 113.714 203.831 113.472 204.159C113.235 204.483 112.894 204.727 112.447 204.891C112.005 205.055 111.476 205.137 110.861 205.137C110.337 205.137 109.883 205.096 109.501 205.014C109.118 204.932 108.783 204.815 108.496 204.665V203.619C108.801 203.77 109.166 203.906 109.59 204.029C110.013 204.152 110.446 204.214 110.888 204.214C111.535 204.214 112.005 204.109 112.297 203.899C112.588 203.69 112.734 203.405 112.734 203.045C112.734 202.84 112.675 202.66 112.556 202.505C112.442 202.345 112.249 202.193 111.975 202.047C111.702 201.896 111.324 201.732 110.84 201.555C110.362 201.372 109.947 201.192 109.596 201.015C109.25 200.832 108.981 200.611 108.79 200.352C108.603 200.092 108.509 199.755 108.509 199.34C108.509 198.706 108.765 198.221 109.275 197.884C109.79 197.542 110.465 197.371 111.298 197.371C111.75 197.371 112.171 197.417 112.563 197.508C112.96 197.594 113.329 197.713 113.671 197.863L113.288 198.772C112.978 198.64 112.647 198.529 112.297 198.438C111.946 198.346 111.588 198.301 111.223 198.301C110.699 198.301 110.296 198.387 110.013 198.561C109.735 198.734 109.596 198.971 109.596 199.271C109.596 199.504 109.66 199.695 109.788 199.846C109.92 199.996 110.13 200.137 110.417 200.27C110.704 200.402 111.082 200.557 111.551 200.734C112.021 200.908 112.426 201.088 112.768 201.274C113.11 201.457 113.372 201.68 113.554 201.944C113.741 202.204 113.835 202.539 113.835 202.949Z" fill="#474D66"/>
<path fill-rule="evenodd" clip-rule="evenodd" d="M52 235H36C34.9 235 34 235.9 34 237V251C34 252.1 34.9 253 36 253H52C53.1 253 54 252.1 54 251V237C54 235.9 53.1 235 52 235ZM52 251H36V237H52V251Z" fill="#474D66"/>
<path fill-rule="evenodd" clip-rule="evenodd" d="M51.41 242.42L49.99 241L46.82 244.17L45.41 242.75L44 244.16L46.82 247L51.41 242.42Z" fill="#474D66"/>
<path d="M42 239H37V241H42V239Z" fill="#474D66"/>
<path d="M42 243H37V245H42V243Z" fill="#474D66"/>
<path d="M42 247H37V249H42V247Z" fill="#474D66"/>
<path d="M77.7627 241L74.4062 232.154H74.3516C74.3698 232.341 74.3857 232.569 74.3994 232.838C74.4131 233.107 74.4245 233.401 74.4336 233.72C74.4427 234.034 74.4473 234.355 74.4473 234.684V241H73.3672V231.006H75.0898L78.2549 239.318H78.3027L81.5156 231.006H83.2246V241H82.0762V234.602C82.0762 234.305 82.0807 234.009 82.0898 233.713C82.099 233.412 82.1104 233.13 82.124 232.865C82.1377 232.596 82.1514 232.364 82.165 232.168H82.1104L78.7129 241H77.7627ZM91.9606 233.508V241H91.0309L90.8669 239.947H90.8053C90.6504 240.207 90.4499 240.426 90.2038 240.604C89.9577 240.781 89.6797 240.913 89.3698 241C89.0645 241.091 88.7386 241.137 88.3923 241.137C87.7998 241.137 87.3031 241.041 86.902 240.85C86.501 240.658 86.1979 240.362 85.9928 239.961C85.7923 239.56 85.6921 239.045 85.6921 238.416V233.508H86.8405V238.334C86.8405 238.958 86.9818 239.425 87.2643 239.735C87.5469 240.041 87.9775 240.193 88.5563 240.193C89.1123 240.193 89.5544 240.089 89.8825 239.879C90.2152 239.669 90.4544 239.362 90.6003 238.956C90.7461 238.546 90.819 238.045 90.819 237.452V233.508H91.9606ZM95.4876 241H94.346V230.363H95.4876V241ZM100.293 240.207C100.48 240.207 100.671 240.191 100.867 240.159C101.063 240.127 101.223 240.089 101.346 240.043V240.925C101.214 240.984 101.029 241.034 100.792 241.075C100.56 241.116 100.332 241.137 100.108 241.137C99.7119 241.137 99.3519 241.068 99.0283 240.932C98.7047 240.79 98.445 240.553 98.249 240.221C98.0576 239.888 97.9619 239.428 97.9619 238.84V234.396H96.8955V233.843L97.9687 233.398L98.4199 231.771H99.1035V233.508H101.298V234.396H99.1035V238.806C99.1035 239.275 99.2106 239.626 99.4248 239.858C99.6435 240.091 99.9329 240.207 100.293 240.207ZM103.984 233.508V241H102.849V233.508H103.984ZM103.43 230.705C103.617 230.705 103.777 230.767 103.909 230.89C104.046 231.008 104.114 231.195 104.114 231.45C104.114 231.701 104.046 231.888 103.909 232.011C103.777 232.134 103.617 232.195 103.43 232.195C103.234 232.195 103.07 232.134 102.938 232.011C102.811 231.888 102.747 231.701 102.747 231.45C102.747 231.195 102.811 231.008 102.938 230.89C103.07 230.767 103.234 230.705 103.43 230.705ZM109.897 233.371C110.831 233.371 111.576 233.692 112.132 234.335C112.688 234.978 112.966 235.944 112.966 237.233C112.966 238.086 112.839 238.801 112.583 239.38C112.328 239.959 111.968 240.396 111.503 240.692C111.043 240.989 110.498 241.137 109.869 241.137C109.473 241.137 109.124 241.084 108.824 240.979C108.523 240.875 108.265 240.733 108.051 240.556C107.837 240.378 107.659 240.184 107.518 239.975H107.436C107.45 240.152 107.465 240.367 107.484 240.617C107.506 240.868 107.518 241.087 107.518 241.273V244.35H106.376V233.508H107.313L107.463 234.615H107.518C107.664 234.387 107.841 234.18 108.051 233.993C108.261 233.802 108.516 233.651 108.817 233.542C109.122 233.428 109.482 233.371 109.897 233.371ZM109.699 234.328C109.179 234.328 108.76 234.428 108.441 234.629C108.126 234.829 107.896 235.13 107.75 235.531C107.604 235.928 107.527 236.427 107.518 237.028V237.247C107.518 237.881 107.586 238.416 107.723 238.854C107.864 239.291 108.094 239.624 108.413 239.852C108.737 240.079 109.17 240.193 109.712 240.193C110.177 240.193 110.564 240.068 110.874 239.817C111.184 239.567 111.414 239.218 111.565 238.771C111.72 238.32 111.797 237.803 111.797 237.22C111.797 236.336 111.624 235.634 111.278 235.114C110.936 234.59 110.409 234.328 109.699 234.328ZM116.076 241H114.935V230.363H116.076V241ZM121.346 233.371C121.984 233.371 122.531 233.512 122.987 233.795C123.443 234.077 123.791 234.474 124.033 234.984C124.274 235.49 124.395 236.083 124.395 236.762V237.466H119.22C119.234 238.345 119.453 239.015 119.877 239.476C120.3 239.936 120.897 240.166 121.668 240.166C122.142 240.166 122.561 240.123 122.925 240.036C123.29 239.95 123.668 239.822 124.06 239.653V240.651C123.682 240.82 123.306 240.943 122.932 241.021C122.563 241.098 122.126 241.137 121.62 241.137C120.9 241.137 120.271 240.991 119.733 240.699C119.2 240.403 118.785 239.97 118.489 239.4C118.193 238.831 118.045 238.133 118.045 237.309C118.045 236.502 118.179 235.805 118.448 235.217C118.721 234.624 119.104 234.169 119.596 233.85C120.093 233.531 120.676 233.371 121.346 233.371ZM121.333 234.301C120.727 234.301 120.243 234.499 119.883 234.896C119.523 235.292 119.309 235.846 119.241 236.557H123.206C123.201 236.11 123.131 235.718 122.994 235.381C122.862 235.039 122.659 234.775 122.385 234.588C122.112 234.396 121.761 234.301 121.333 234.301ZM131.156 238.949C131.156 239.428 131.035 239.831 130.793 240.159C130.556 240.483 130.214 240.727 129.768 240.891C129.326 241.055 128.797 241.137 128.182 241.137C127.658 241.137 127.204 241.096 126.822 241.014C126.439 240.932 126.104 240.815 125.817 240.665V239.619C126.122 239.77 126.487 239.906 126.91 240.029C127.334 240.152 127.767 240.214 128.209 240.214C128.856 240.214 129.326 240.109 129.617 239.899C129.909 239.69 130.055 239.405 130.055 239.045C130.055 238.84 129.996 238.66 129.877 238.505C129.763 238.345 129.57 238.193 129.296 238.047C129.023 237.896 128.645 237.732 128.161 237.555C127.683 237.372 127.268 237.192 126.917 237.015C126.571 236.832 126.302 236.611 126.111 236.352C125.924 236.092 125.83 235.755 125.83 235.34C125.83 234.706 126.086 234.221 126.596 233.884C127.111 233.542 127.785 233.371 128.619 233.371C129.071 233.371 129.492 233.417 129.884 233.508C130.281 233.594 130.65 233.713 130.992 233.863L130.609 234.772C130.299 234.64 129.968 234.529 129.617 234.438C129.267 234.346 128.909 234.301 128.544 234.301C128.02 234.301 127.617 234.387 127.334 234.561C127.056 234.734 126.917 234.971 126.917 235.271C126.917 235.504 126.981 235.695 127.109 235.846C127.241 235.996 127.451 236.137 127.738 236.27C128.025 236.402 128.403 236.557 128.872 236.734C129.342 236.908 129.747 237.088 130.089 237.274C130.431 237.457 130.693 237.68 130.875 237.944C131.062 238.204 131.156 238.539 131.156 238.949ZM76.7168 249.371C77.651 249.371 78.3962 249.692 78.9521 250.335C79.5081 250.978 79.7861 251.944 79.7861 253.233C79.7861 254.086 79.6585 254.801 79.4033 255.38C79.1481 255.959 78.7881 256.396 78.3232 256.692C77.863 256.989 77.3184 257.137 76.6895 257.137C76.293 257.137 75.9443 257.084 75.6436 256.979C75.3428 256.875 75.0853 256.733 74.8711 256.556C74.6569 256.378 74.4792 256.184 74.3379 255.975H74.2559C74.2695 256.152 74.2855 256.367 74.3037 256.617C74.3265 256.868 74.3379 257.087 74.3379 257.273V260.35H73.1963V249.508H74.1328L74.2832 250.615H74.3379C74.4837 250.387 74.6615 250.18 74.8711 249.993C75.0807 249.802 75.3359 249.651 75.6367 249.542C75.9421 249.428 76.3021 249.371 76.7168 249.371ZM76.5186 250.328C75.999 250.328 75.5798 250.428 75.2607 250.629C74.9463 250.829 74.7161 251.13 74.5703 251.531C74.4245 251.928 74.347 252.427 74.3379 253.028V253.247C74.3379 253.881 74.4062 254.416 74.543 254.854C74.6842 255.291 74.9144 255.624 75.2334 255.852C75.557 256.079 75.9899 256.193 76.5322 256.193C76.9971 256.193 77.3844 256.068 77.6943 255.817C78.0042 255.567 78.2344 255.218 78.3848 254.771C78.5397 254.32 78.6172 253.803 78.6172 253.22C78.6172 252.336 78.444 251.634 78.0977 251.114C77.7559 250.59 77.2295 250.328 76.5186 250.328ZM85.1589 249.371C85.3092 249.371 85.4665 249.38 85.6305 249.398C85.7946 249.412 85.9404 249.433 86.068 249.46L85.9245 250.513C85.8014 250.481 85.6647 250.456 85.5143 250.438C85.3639 250.419 85.2227 250.41 85.0905 250.41C84.7897 250.41 84.5049 250.472 84.236 250.595C83.9717 250.713 83.7393 250.886 83.5387 251.114C83.3382 251.338 83.181 251.609 83.0671 251.928C82.9531 252.242 82.8962 252.593 82.8962 252.98V257H81.7546V249.508H82.6979L82.821 250.889H82.8688C83.0238 250.611 83.2106 250.358 83.4294 250.13C83.6481 249.897 83.901 249.713 84.1881 249.576C84.4798 249.439 84.8034 249.371 85.1589 249.371ZM93.929 253.24C93.929 253.855 93.8493 254.405 93.6898 254.888C93.5303 255.371 93.3001 255.779 92.9993 256.111C92.6986 256.444 92.334 256.699 91.9056 256.877C91.4818 257.05 91.001 257.137 90.4632 257.137C89.9619 257.137 89.5016 257.05 89.0824 256.877C88.6676 256.699 88.3076 256.444 88.0023 256.111C87.7015 255.779 87.4668 255.371 87.2982 254.888C87.1341 254.405 87.0521 253.855 87.0521 253.24C87.0521 252.42 87.1911 251.723 87.4691 251.148C87.7471 250.57 88.1435 250.13 88.6585 249.829C89.1781 249.524 89.7956 249.371 90.5111 249.371C91.1947 249.371 91.7917 249.524 92.3021 249.829C92.8171 250.134 93.2158 250.576 93.4984 251.155C93.7855 251.729 93.929 252.424 93.929 253.24ZM88.2279 253.24C88.2279 253.842 88.3076 254.364 88.4671 254.806C88.6266 255.248 88.8727 255.59 89.2054 255.831C89.5381 256.073 89.9665 256.193 90.4906 256.193C91.0101 256.193 91.4362 256.073 91.7689 255.831C92.1061 255.59 92.3545 255.248 92.514 254.806C92.6735 254.364 92.7533 253.842 92.7533 253.24C92.7533 252.643 92.6735 252.128 92.514 251.695C92.3545 251.258 92.1084 250.921 91.7757 250.684C91.443 250.447 91.0124 250.328 90.4837 250.328C89.7044 250.328 89.1325 250.586 88.7679 251.101C88.4079 251.616 88.2279 252.329 88.2279 253.24ZM98.8779 257.137C98.2034 257.137 97.6087 256.998 97.0937 256.72C96.5788 256.442 96.1777 256.018 95.8906 255.448C95.6035 254.879 95.46 254.161 95.46 253.295C95.46 252.388 95.6103 251.647 95.9111 251.073C96.2165 250.494 96.6357 250.066 97.1689 249.788C97.7021 249.51 98.3083 249.371 98.9873 249.371C99.361 249.371 99.721 249.41 100.067 249.487C100.418 249.56 100.705 249.654 100.929 249.768L100.587 250.718C100.359 250.627 100.095 250.545 99.7939 250.472C99.4977 250.399 99.2197 250.362 98.96 250.362C98.4404 250.362 98.0075 250.474 97.6611 250.697C97.3193 250.921 97.0618 251.249 96.8887 251.682C96.72 252.115 96.6357 252.648 96.6357 253.281C96.6357 253.887 96.7178 254.405 96.8818 254.833C97.0504 255.261 97.2988 255.59 97.6269 255.817C97.9596 256.041 98.3743 256.152 98.8711 256.152C99.2676 256.152 99.6253 256.111 99.9443 256.029C100.263 255.943 100.553 255.842 100.812 255.729V256.74C100.562 256.868 100.282 256.966 99.9717 257.034C99.6663 257.103 99.3018 257.137 98.8779 257.137ZM105.461 249.371C106.099 249.371 106.645 249.512 107.101 249.795C107.557 250.077 107.906 250.474 108.147 250.984C108.389 251.49 108.509 252.083 108.509 252.762V253.466H103.335C103.348 254.345 103.567 255.015 103.991 255.476C104.415 255.936 105.012 256.166 105.782 256.166C106.256 256.166 106.675 256.123 107.04 256.036C107.404 255.95 107.783 255.822 108.174 255.653V256.651C107.796 256.82 107.42 256.943 107.047 257.021C106.677 257.098 106.24 257.137 105.734 257.137C105.014 257.137 104.385 256.991 103.847 256.699C103.314 256.403 102.899 255.97 102.603 255.4C102.307 254.831 102.159 254.133 102.159 253.309C102.159 252.502 102.293 251.805 102.562 251.217C102.836 250.624 103.218 250.169 103.711 249.85C104.207 249.531 104.791 249.371 105.461 249.371ZM105.447 250.301C104.841 250.301 104.358 250.499 103.998 250.896C103.638 251.292 103.423 251.846 103.355 252.557H107.32C107.315 252.11 107.245 251.718 107.108 251.381C106.976 251.039 106.773 250.775 106.5 250.588C106.226 250.396 105.875 250.301 105.447 250.301ZM113.089 257.137C112.141 257.137 111.389 256.813 110.833 256.166C110.282 255.519 110.006 254.557 110.006 253.281C110.006 251.992 110.289 251.019 110.854 250.362C111.419 249.701 112.171 249.371 113.11 249.371C113.506 249.371 113.853 249.424 114.149 249.528C114.445 249.633 114.7 249.774 114.914 249.952C115.129 250.125 115.309 250.324 115.454 250.547H115.536C115.518 250.406 115.5 250.212 115.482 249.966C115.464 249.72 115.454 249.519 115.454 249.364V246.363H116.589V257H115.673L115.502 255.934H115.454C115.313 256.157 115.133 256.36 114.914 256.542C114.7 256.724 114.443 256.87 114.142 256.979C113.846 257.084 113.495 257.137 113.089 257.137ZM113.267 256.193C114.069 256.193 114.636 255.965 114.969 255.51C115.302 255.054 115.468 254.377 115.468 253.479V253.274C115.468 252.322 115.309 251.59 114.99 251.08C114.675 250.57 114.101 250.314 113.267 250.314C112.57 250.314 112.048 250.583 111.701 251.121C111.355 251.654 111.182 252.383 111.182 253.309C111.182 254.229 111.353 254.94 111.695 255.441C112.041 255.943 112.565 256.193 113.267 256.193ZM125.168 249.508V257H124.238L124.074 255.947H124.013C123.858 256.207 123.657 256.426 123.411 256.604C123.165 256.781 122.887 256.913 122.577 257C122.272 257.091 121.946 257.137 121.6 257.137C121.007 257.137 120.51 257.041 120.109 256.85C119.708 256.658 119.405 256.362 119.2 255.961C119 255.56 118.899 255.045 118.899 254.416V249.508H120.048V254.334C120.048 254.958 120.189 255.425 120.472 255.735C120.754 256.041 121.185 256.193 121.764 256.193C122.32 256.193 122.762 256.089 123.09 255.879C123.423 255.669 123.662 255.362 123.808 254.956C123.953 254.546 124.026 254.045 124.026 253.452V249.508H125.168ZM130.958 249.371C131.108 249.371 131.265 249.38 131.429 249.398C131.593 249.412 131.739 249.433 131.867 249.46L131.723 250.513C131.6 250.481 131.464 250.456 131.313 250.438C131.163 250.419 131.021 250.41 130.889 250.41C130.589 250.41 130.304 250.472 130.035 250.595C129.77 250.713 129.538 250.886 129.338 251.114C129.137 251.338 128.98 251.609 128.866 251.928C128.752 252.242 128.695 252.593 128.695 252.98V257H127.553V249.508H128.497L128.62 250.889H128.668C128.823 250.611 129.009 250.358 129.228 250.13C129.447 249.897 129.7 249.713 129.987 249.576C130.279 249.439 130.602 249.371 130.958 249.371ZM136.153 249.371C136.791 249.371 137.338 249.512 137.793 249.795C138.249 250.077 138.598 250.474 138.839 250.984C139.081 251.49 139.201 252.083 139.201 252.762V253.466H134.027C134.04 254.345 134.259 255.015 134.683 255.476C135.107 255.936 135.704 256.166 136.474 256.166C136.948 256.166 137.367 256.123 137.732 256.036C138.096 255.95 138.475 255.822 138.867 255.653V256.651C138.488 256.82 138.112 256.943 137.739 257.021C137.369 257.098 136.932 257.137 136.426 257.137C135.706 257.137 135.077 256.991 134.539 256.699C134.006 256.403 133.591 255.97 133.295 255.4C132.999 254.831 132.851 254.133 132.851 253.309C132.851 252.502 132.985 251.805 133.254 251.217C133.528 250.624 133.91 250.169 134.403 249.85C134.899 249.531 135.483 249.371 136.153 249.371ZM136.139 250.301C135.533 250.301 135.05 250.499 134.69 250.896C134.33 251.292 134.116 251.846 134.047 252.557H138.012C138.007 252.11 137.937 251.718 137.8 251.381C137.668 251.039 137.465 250.775 137.192 250.588C136.918 250.396 136.567 250.301 136.139 250.301ZM145.962 254.949C145.962 255.428 145.841 255.831 145.6 256.159C145.363 256.483 145.021 256.727 144.574 256.891C144.132 257.055 143.603 257.137 142.988 257.137C142.464 257.137 142.011 257.096 141.628 257.014C141.245 256.932 140.91 256.815 140.623 256.665V255.619C140.928 255.77 141.293 255.906 141.717 256.029C142.141 256.152 142.574 256.214 143.016 256.214C143.663 256.214 144.132 256.109 144.424 255.899C144.715 255.69 144.861 255.405 144.861 255.045C144.861 254.84 144.802 254.66 144.684 254.505C144.57 254.345 144.376 254.193 144.103 254.047C143.829 253.896 143.451 253.732 142.968 253.555C142.489 253.372 142.075 253.192 141.724 253.015C141.377 252.832 141.108 252.611 140.917 252.352C140.73 252.092 140.637 251.755 140.637 251.34C140.637 250.706 140.892 250.221 141.402 249.884C141.917 249.542 142.592 249.371 143.426 249.371C143.877 249.371 144.298 249.417 144.69 249.508C145.087 249.594 145.456 249.713 145.798 249.863L145.415 250.772C145.105 250.64 144.775 250.529 144.424 250.438C144.073 250.346 143.715 250.301 143.351 250.301C142.826 250.301 142.423 250.387 142.141 250.561C141.863 250.734 141.724 250.971 141.724 251.271C141.724 251.504 141.787 251.695 141.915 251.846C142.047 251.996 142.257 252.137 142.544 252.27C142.831 252.402 143.209 252.557 143.679 252.734C144.148 252.908 144.554 253.088 144.895 253.274C145.237 253.457 145.499 253.68 145.682 253.944C145.868 254.204 145.962 254.539 145.962 254.949Z" fill="#474D66"/>
<path d="M51 295V280H47V279H37V295H35V297H47V282H49V297H53V295H51ZM45 295H39V281H45V295ZM42 287H44V289H42V287Z" fill="#474D66"/>
<path d="M77.6396 283.888C77.0882 283.888 76.5915 283.983 76.1494 284.175C75.7119 284.362 75.3382 284.635 75.0283 284.995C74.723 285.351 74.4883 285.781 74.3242 286.287C74.1602 286.793 74.0781 287.363 74.0781 287.996C74.0781 288.835 74.208 289.564 74.4678 290.184C74.7321 290.799 75.124 291.275 75.6436 291.612C76.1676 291.95 76.8216 292.118 77.6055 292.118C78.0521 292.118 78.4714 292.082 78.8633 292.009C79.2598 291.931 79.6449 291.836 80.0186 291.722V292.733C79.654 292.87 79.2712 292.97 78.8701 293.034C78.4691 293.103 77.9928 293.137 77.4414 293.137C76.4251 293.137 75.5752 292.927 74.8916 292.508C74.2126 292.084 73.7021 291.487 73.3604 290.717C73.0231 289.947 72.8545 289.037 72.8545 287.989C72.8545 287.233 72.9593 286.542 73.1689 285.918C73.3831 285.289 73.693 284.747 74.0986 284.291C74.5088 283.835 75.0101 283.484 75.6025 283.238C76.1995 282.988 76.8831 282.862 77.6533 282.862C78.1592 282.862 78.6468 282.912 79.1162 283.013C79.5856 283.113 80.0094 283.257 80.3877 283.443L79.9229 284.428C79.6038 284.282 79.2529 284.157 78.8701 284.052C78.4919 283.942 78.0817 283.888 77.6396 283.888ZM83.1423 293H82.0006V282.363H83.1423V293ZM86.6624 285.508V293H85.5277V285.508H86.6624ZM86.1087 282.705C86.2956 282.705 86.4551 282.767 86.5872 282.89C86.724 283.008 86.7923 283.195 86.7923 283.45C86.7923 283.701 86.724 283.888 86.5872 284.011C86.4551 284.134 86.2956 284.195 86.1087 284.195C85.9128 284.195 85.7487 284.134 85.6165 284.011C85.4889 283.888 85.4251 283.701 85.4251 283.45C85.4251 283.195 85.4889 283.008 85.6165 282.89C85.7487 282.767 85.9128 282.705 86.1087 282.705ZM92.6025 285.371C93.4912 285.371 94.1634 285.59 94.6191 286.027C95.0749 286.46 95.3027 287.158 95.3027 288.119V293H94.1816V288.194C94.1816 287.57 94.0381 287.103 93.751 286.793C93.4684 286.483 93.0332 286.328 92.4453 286.328C91.6159 286.328 91.0325 286.563 90.6953 287.032C90.3581 287.502 90.1894 288.183 90.1894 289.076V293H89.0547V285.508H89.9707L90.1416 286.588H90.2031C90.3626 286.324 90.5654 286.103 90.8115 285.925C91.0576 285.743 91.3333 285.606 91.6387 285.515C91.944 285.419 92.2653 285.371 92.6025 285.371ZM98.7614 285.508V293H97.6266V285.508H98.7614ZM98.2077 282.705C98.3945 282.705 98.554 282.767 98.6862 282.89C98.8229 283.008 98.8913 283.195 98.8913 283.45C98.8913 283.701 98.8229 283.888 98.6862 284.011C98.554 284.134 98.3945 284.195 98.2077 284.195C98.0117 284.195 97.8476 284.134 97.7155 284.011C97.5879 283.888 97.5241 283.701 97.5241 283.45C97.5241 283.195 97.5879 283.008 97.7155 282.89C97.8476 282.767 98.0117 282.705 98.2077 282.705ZM104.155 293.137C103.48 293.137 102.885 292.998 102.37 292.72C101.855 292.442 101.454 292.018 101.167 291.448C100.88 290.879 100.737 290.161 100.737 289.295C100.737 288.388 100.887 287.647 101.188 287.073C101.493 286.494 101.912 286.066 102.446 285.788C102.979 285.51 103.585 285.371 104.264 285.371C104.638 285.371 104.998 285.41 105.344 285.487C105.695 285.56 105.982 285.654 106.205 285.768L105.864 286.718C105.636 286.627 105.371 286.545 105.071 286.472C104.774 286.399 104.496 286.362 104.237 286.362C103.717 286.362 103.284 286.474 102.938 286.697C102.596 286.921 102.339 287.249 102.165 287.682C101.997 288.115 101.912 288.648 101.912 289.281C101.912 289.887 101.994 290.405 102.159 290.833C102.327 291.261 102.576 291.59 102.904 291.817C103.236 292.041 103.651 292.152 104.148 292.152C104.544 292.152 104.902 292.111 105.221 292.029C105.54 291.943 105.829 291.842 106.089 291.729V292.74C105.839 292.868 105.558 292.966 105.248 293.034C104.943 293.103 104.578 293.137 104.155 293.137ZM112.699 290.949C112.699 291.428 112.578 291.831 112.337 292.159C112.1 292.483 111.758 292.727 111.312 292.891C110.869 293.055 110.341 293.137 109.726 293.137C109.201 293.137 108.748 293.096 108.365 293.014C107.982 292.932 107.647 292.815 107.36 292.665V291.619C107.666 291.77 108.03 291.906 108.454 292.029C108.878 292.152 109.311 292.214 109.753 292.214C110.4 292.214 110.869 292.109 111.161 291.899C111.453 291.69 111.599 291.405 111.599 291.045C111.599 290.84 111.539 290.66 111.421 290.505C111.307 290.345 111.113 290.193 110.84 290.047C110.566 289.896 110.188 289.732 109.705 289.555C109.227 289.372 108.812 289.192 108.461 289.015C108.115 288.832 107.846 288.611 107.654 288.352C107.467 288.092 107.374 287.755 107.374 287.34C107.374 286.706 107.629 286.221 108.14 285.884C108.655 285.542 109.329 285.371 110.163 285.371C110.614 285.371 111.036 285.417 111.428 285.508C111.824 285.594 112.193 285.713 112.535 285.863L112.152 286.772C111.842 286.64 111.512 286.529 111.161 286.438C110.81 286.346 110.452 286.301 110.088 286.301C109.564 286.301 109.16 286.387 108.878 286.561C108.6 286.734 108.461 286.971 108.461 287.271C108.461 287.504 108.525 287.695 108.652 287.846C108.784 287.996 108.994 288.137 109.281 288.27C109.568 288.402 109.947 288.557 110.416 288.734C110.885 288.908 111.291 289.088 111.633 289.274C111.975 289.457 112.237 289.68 112.419 289.944C112.606 290.204 112.699 290.539 112.699 290.949Z" fill="#474D66"/>
</svg>
