<svg width="178" height="176" viewBox="0 0 178 176" fill="none" xmlns="http://www.w3.org/2000/svg">
<path d="M178 8C178 3.58172 174.418 0 170 0H8C3.58173 0 0 3.58172 0 8V168C0 172.418 3.58173 176 8 176H170C174.418 176 178 172.418 178 168V8Z" fill="#F9FAFC"/>
<path d="M28 57.3333C24.32 57.3333 21.3334 60.3199 21.3334 63.9999C21.3334 67.6799 24.32 70.6666 28 70.6666C31.68 70.6666 34.6667 67.6799 34.6667 63.9999C34.6667 60.3199 31.68 57.3333 28 57.3333ZM28 69.3333C25.06 69.3333 22.6667 66.9399 22.6667 63.9999C22.6667 61.0599 25.06 58.6666 28 58.6666C30.94 58.6666 33.3334 61.0599 33.3334 63.9999C33.3334 66.9399 30.94 69.3333 28 69.3333ZM31.06 61.0533L26.6667 65.4466L24.94 63.7266L24 64.6666L26.6667 67.3333L32 61.9999L31.06 61.0533Z" fill="#474D66"/>
<path d="M30 134.573L32.02 136L30 137.427V134.573ZM24 134.573L26.02 136L24 137.427V134.573ZM28.6666 132V140L34.3333 136L28.6666 132ZM22.6666 132V140L28.3333 136L22.6666 132Z" fill="#474D66"/>
<path d="M27.9934 105.333C24.3134 105.333 21.3334 108.32 21.3334 112C21.3334 115.68 24.3134 118.667 27.9934 118.667C31.68 118.667 34.6667 115.68 34.6667 112C34.6667 108.32 31.68 105.333 27.9934 105.333ZM28 117.333C25.0534 117.333 22.6667 114.947 22.6667 112C22.6667 109.053 25.0534 106.667 28 106.667C30.9467 106.667 33.3334 109.053 33.3334 112C33.3334 114.947 30.9467 117.333 28 117.333ZM28.3334 108.667H27.3334V112.667L30.8334 114.767L31.3334 113.947L28.3334 112.167V108.667Z" fill="#474D66"/>
<path d="M28.6666 82C25.3533 82 22.6666 84.6867 22.6666 88H20.6666L23.26 90.5933L23.3066 90.6867L26 88H24C24 85.42 26.0866 83.3333 28.6666 83.3333C31.2466 83.3333 33.3333 85.42 33.3333 88C33.3333 90.58 31.2466 92.6667 28.6666 92.6667C27.38 92.6667 26.2133 92.14 25.3733 91.2933L24.4266 92.24C25.5133 93.3267 27.0066 94 28.6666 94C31.98 94 34.6666 91.3133 34.6666 88C34.6666 84.6867 31.98 82 28.6666 82ZM28 85.3333V88.6667L30.8333 90.3467L31.3466 89.4933L29 88.1V85.3333H28Z" fill="#474D66"/>
<path d="M29.7267 37.3333L28 39.0599L26.2734 37.3333L25.3334 38.2733L27.06 39.9999L25.3334 41.7266L26.2734 42.6666L28 40.9399L29.7267 42.6666L30.6667 41.7266L28.94 39.9999L30.6667 38.2733L29.7267 37.3333ZM28 33.3333C24.3134 33.3333 21.3334 36.3133 21.3334 39.9999C21.3334 43.6866 24.3134 46.6666 28 46.6666C31.6867 46.6666 34.6667 43.6866 34.6667 39.9999C34.6667 36.3133 31.6867 33.3333 28 33.3333ZM28 45.3333C25.06 45.3333 22.6667 42.9399 22.6667 39.9999C22.6667 37.0599 25.06 34.6666 28 34.6666C30.94 34.6666 33.3334 37.0599 33.3334 39.9999C33.3334 42.9399 30.94 45.3333 28 45.3333Z" fill="#474D66"/>
<path d="M48.834 36.1895C48.3613 36.1895 47.9355 36.2715 47.5566 36.4355C47.1816 36.5957 46.8613 36.8301 46.5957 37.1387C46.334 37.4434 46.1328 37.8125 45.9922 38.2461C45.8516 38.6797 45.7812 39.168 45.7812 39.7109C45.7812 40.4297 45.8926 41.0547 46.1152 41.5859C46.3418 42.1133 46.6777 42.5215 47.123 42.8105C47.5723 43.0996 48.1328 43.2441 48.8047 43.2441C49.1875 43.2441 49.5469 43.2129 49.8828 43.1504C50.2227 43.084 50.5527 43.002 50.873 42.9043V43.7715C50.5605 43.8887 50.2324 43.9746 49.8887 44.0293C49.5449 44.0879 49.1367 44.1172 48.6641 44.1172C47.793 44.1172 47.0645 43.9375 46.4785 43.5781C45.8965 43.2148 45.459 42.7031 45.166 42.043C44.877 41.3828 44.7324 40.6035 44.7324 39.7051C44.7324 39.0566 44.8223 38.4648 45.002 37.9297C45.1855 37.3906 45.4512 36.9258 45.7988 36.5352C46.1504 36.1445 46.5801 35.8438 47.0879 35.6328C47.5996 35.418 48.1855 35.3105 48.8457 35.3105C49.2793 35.3105 49.6973 35.3535 50.0996 35.4395C50.502 35.5254 50.8652 35.6484 51.1895 35.8086L50.791 36.6523C50.5176 36.5273 50.2168 36.4199 49.8887 36.3301C49.5645 36.2363 49.2129 36.1895 48.834 36.1895ZM55.0163 37.4727C55.782 37.4727 56.3503 37.6445 56.7214 37.9883C57.0925 38.332 57.278 38.8809 57.278 39.6348V44H56.5691L56.3816 43.0508H56.3347C56.155 43.2852 55.9675 43.4824 55.7722 43.6426C55.5769 43.7988 55.3503 43.918 55.0925 44C54.8386 44.0781 54.5261 44.1172 54.155 44.1172C53.7644 44.1172 53.4167 44.0488 53.112 43.9121C52.8113 43.7754 52.573 43.5684 52.3972 43.291C52.2253 43.0137 52.1394 42.6621 52.1394 42.2363C52.1394 41.5957 52.3933 41.1035 52.9011 40.7598C53.4089 40.416 54.1823 40.2285 55.2214 40.1973L56.3288 40.1504V39.7578C56.3288 39.2031 56.2097 38.8145 55.9714 38.5918C55.7331 38.3691 55.3972 38.2578 54.9636 38.2578C54.6277 38.2578 54.3073 38.3066 54.0027 38.4043C53.698 38.502 53.4089 38.6172 53.1355 38.75L52.8366 38.0117C53.1257 37.8633 53.4577 37.7363 53.8327 37.6309C54.2077 37.5254 54.6023 37.4727 55.0163 37.4727ZM56.3171 40.8359L55.3386 40.877C54.5378 40.9082 53.9734 41.0391 53.6452 41.2695C53.3171 41.5 53.153 41.8262 53.153 42.248C53.153 42.6152 53.2644 42.8867 53.487 43.0625C53.7097 43.2383 54.0046 43.3262 54.3718 43.3262C54.9421 43.3262 55.4089 43.168 55.7722 42.8516C56.1355 42.5352 56.3171 42.0605 56.3171 41.4277V40.8359ZM62.353 37.4609C63.1147 37.4609 63.6909 37.6484 64.0815 38.0234C64.4721 38.3945 64.6674 38.9922 64.6674 39.8164V44H63.7065V39.8809C63.7065 39.3457 63.5834 38.9453 63.3373 38.6797C63.0952 38.4141 62.7221 38.2812 62.2182 38.2812C61.5073 38.2812 61.0073 38.4824 60.7182 38.8848C60.4291 39.2871 60.2846 39.8711 60.2846 40.6367V44H59.312V37.5781H60.0971L60.2436 38.5039H60.2963C60.433 38.2773 60.6069 38.0879 60.8178 37.9355C61.0288 37.7793 61.2651 37.6621 61.5268 37.584C61.7885 37.502 62.0639 37.4609 62.353 37.4609ZM69.2736 44.1172C68.6955 44.1172 68.1857 43.998 67.7443 43.7598C67.3029 43.5215 66.9591 43.1582 66.713 42.6699C66.467 42.1816 66.3439 41.5664 66.3439 40.8242C66.3439 40.0469 66.4728 39.4121 66.7306 38.9199C66.9923 38.4238 67.3517 38.0566 67.8088 37.8184C68.2658 37.5801 68.7853 37.4609 69.3673 37.4609C69.6877 37.4609 69.9963 37.4941 70.2931 37.5605C70.5939 37.623 70.84 37.7031 71.0314 37.8008L70.7384 38.6152C70.5431 38.5371 70.3166 38.4668 70.0588 38.4043C69.8048 38.3418 69.5666 38.3105 69.3439 38.3105C68.8986 38.3105 68.5275 38.4062 68.2306 38.5977C67.9377 38.7891 67.717 39.0703 67.5685 39.4414C67.424 39.8125 67.3517 40.2695 67.3517 40.8125C67.3517 41.332 67.422 41.7754 67.5627 42.1426C67.7072 42.5098 67.9201 42.791 68.2013 42.9863C68.4865 43.1777 68.842 43.2734 69.2677 43.2734C69.6076 43.2734 69.9142 43.2383 70.1877 43.168C70.4611 43.0938 70.7091 43.0078 70.9318 42.9102V43.7773C70.717 43.8867 70.4767 43.9707 70.2111 44.0293C69.9494 44.0879 69.6369 44.1172 69.2736 44.1172ZM74.9579 37.4609C75.5048 37.4609 75.9735 37.582 76.3641 37.8242C76.7548 38.0664 77.0536 38.4062 77.2606 38.8438C77.4677 39.2773 77.5712 39.7852 77.5712 40.3672V40.9707H73.1356C73.1473 41.7246 73.3348 42.2988 73.6981 42.6934C74.0614 43.0879 74.5731 43.2852 75.2333 43.2852C75.6395 43.2852 75.9989 43.248 76.3114 43.1738C76.6239 43.0996 76.9481 42.9902 77.2841 42.8457V43.7012C76.9598 43.8457 76.6376 43.9512 76.3173 44.0176C76.0009 44.084 75.6259 44.1172 75.1923 44.1172C74.5751 44.1172 74.036 43.9922 73.5751 43.7422C73.118 43.4883 72.7626 43.1172 72.5087 42.6289C72.2548 42.1406 72.1278 41.543 72.1278 40.8359C72.1278 40.1445 72.243 39.5469 72.4735 39.043C72.7079 38.5352 73.036 38.1445 73.4579 37.8711C73.8837 37.5977 74.3837 37.4609 74.9579 37.4609ZM74.9462 38.2578C74.4266 38.2578 74.0126 38.4277 73.704 38.7676C73.3954 39.1074 73.2118 39.582 73.1532 40.1914H76.5516C76.5477 39.8086 76.4872 39.4727 76.37 39.1836C76.2567 38.8906 76.0829 38.6641 75.8485 38.5039C75.6141 38.3398 75.3134 38.2578 74.9462 38.2578ZM80.232 44H79.2535V34.8828H80.232V44ZM48.834 60.1895C48.3613 60.1895 47.9355 60.2715 47.5566 60.4355C47.1816 60.5957 46.8613 60.8301 46.5957 61.1387C46.334 61.4434 46.1328 61.8125 45.9922 62.2461C45.8516 62.6797 45.7812 63.168 45.7812 63.7109C45.7812 64.4297 45.8926 65.0547 46.1152 65.5859C46.3418 66.1133 46.6777 66.5215 47.123 66.8105C47.5723 67.0996 48.1328 67.2441 48.8047 67.2441C49.1875 67.2441 49.5469 67.2129 49.8828 67.1504C50.2227 67.084 50.5527 67.002 50.873 66.9043V67.7715C50.5605 67.8887 50.2324 67.9746 49.8887 68.0293C49.5449 68.0879 49.1367 68.1172 48.6641 68.1172C47.793 68.1172 47.0645 67.9375 46.4785 67.5781C45.8965 67.2148 45.459 66.7031 45.166 66.043C44.877 65.3828 44.7324 64.6035 44.7324 63.7051C44.7324 63.0566 44.8223 62.4648 45.002 61.9297C45.1855 61.3906 45.4512 60.9258 45.7988 60.5352C46.1504 60.1445 46.5801 59.8438 47.0879 59.6328C47.5996 59.418 48.1855 59.3105 48.8457 59.3105C49.2793 59.3105 49.6973 59.3535 50.0996 59.4395C50.502 59.5254 50.8652 59.6484 51.1895 59.8086L50.791 60.6523C50.5176 60.5273 50.2168 60.4199 49.8887 60.3301C49.5645 60.2363 49.2129 60.1895 48.834 60.1895ZM58.1511 64.7773C58.1511 65.3047 58.0827 65.7754 57.946 66.1895C57.8093 66.6035 57.612 66.9531 57.3542 67.2383C57.0964 67.5234 56.7839 67.7422 56.4167 67.8945C56.0534 68.043 55.6413 68.1172 55.1804 68.1172C54.7507 68.1172 54.3562 68.043 53.9968 67.8945C53.6413 67.7422 53.3327 67.5234 53.071 67.2383C52.8132 66.9531 52.612 66.6035 52.4675 66.1895C52.3269 65.7754 52.2566 65.3047 52.2566 64.7773C52.2566 64.0742 52.3757 63.4766 52.614 62.9844C52.8523 62.4883 53.1921 62.1113 53.6335 61.8535C54.0788 61.5918 54.6081 61.4609 55.2214 61.4609C55.8073 61.4609 56.3191 61.5918 56.7566 61.8535C57.198 62.1152 57.5398 62.4941 57.782 62.9902C58.028 63.4824 58.1511 64.0781 58.1511 64.7773ZM53.2644 64.7773C53.2644 65.293 53.3327 65.7402 53.4695 66.1191C53.6062 66.498 53.8171 66.791 54.1023 66.998C54.3874 67.2051 54.7546 67.3086 55.2038 67.3086C55.6491 67.3086 56.0144 67.2051 56.2995 66.998C56.5886 66.791 56.8015 66.498 56.9382 66.1191C57.0749 65.7402 57.1433 65.293 57.1433 64.7773C57.1433 64.2656 57.0749 63.8242 56.9382 63.4531C56.8015 63.0781 56.5905 62.7891 56.3054 62.5859C56.0202 62.3828 55.6511 62.2812 55.198 62.2812C54.53 62.2812 54.0398 62.502 53.7273 62.9434C53.4187 63.3848 53.2644 63.9961 53.2644 64.7773ZM62.9038 61.4609C63.6655 61.4609 64.2416 61.6484 64.6323 62.0234C65.0229 62.3945 65.2182 62.9922 65.2182 63.8164V68H64.2573V63.8809C64.2573 63.3457 64.1342 62.9453 63.8881 62.6797C63.6459 62.4141 63.2729 62.2812 62.769 62.2812C62.058 62.2812 61.558 62.4824 61.269 62.8848C60.9799 63.2871 60.8354 63.8711 60.8354 64.6367V68H59.8627V61.5781H60.6479L60.7944 62.5039H60.8471C60.9838 62.2773 61.1577 62.0879 61.3686 61.9355C61.5795 61.7793 61.8159 61.6621 62.0776 61.584C62.3393 61.502 62.6147 61.4609 62.9038 61.4609ZM70.1115 62.3398H68.5119V68H67.5392V62.3398H66.4025V61.8711L67.5392 61.5488V61.1211C67.5392 60.582 67.6193 60.1445 67.7795 59.8086C67.9396 59.4688 68.172 59.2188 68.4767 59.0586C68.7814 58.8984 69.1525 58.8184 69.59 58.8184C69.8361 58.8184 70.0607 58.8398 70.2638 58.8828C70.4709 58.9258 70.6525 58.9746 70.8088 59.0293L70.5568 59.7969C70.424 59.7539 70.2736 59.7148 70.1056 59.6797C69.9416 59.6406 69.7736 59.6211 69.6017 59.6211C69.2306 59.6211 68.9552 59.7422 68.7755 59.9844C68.5998 60.2227 68.5119 60.5977 68.5119 61.1094V61.5781H70.1115V62.3398ZM72.2619 61.5781V68H71.2892V61.5781H72.2619ZM71.7873 59.1758C71.9474 59.1758 72.0841 59.2285 72.1974 59.334C72.3146 59.4355 72.3732 59.5957 72.3732 59.8145C72.3732 60.0293 72.3146 60.1895 72.1974 60.2949C72.0841 60.4004 71.9474 60.4531 71.7873 60.4531C71.6193 60.4531 71.4787 60.4004 71.3654 60.2949C71.256 60.1895 71.2013 60.0293 71.2013 59.8145C71.2013 59.5957 71.256 59.4355 71.3654 59.334C71.4787 59.2285 71.6193 59.1758 71.7873 59.1758ZM77.2665 61.4609C77.3954 61.4609 77.5302 61.4688 77.6708 61.4844C77.8114 61.4961 77.9364 61.5137 78.0458 61.5371L77.9227 62.4395C77.8173 62.4121 77.7001 62.3906 77.5712 62.375C77.4423 62.3594 77.3212 62.3516 77.2079 62.3516C76.9501 62.3516 76.7059 62.4043 76.4755 62.5098C76.2489 62.6113 76.0497 62.7598 75.8778 62.9551C75.7059 63.1465 75.5712 63.3789 75.4735 63.6523C75.3759 63.9219 75.327 64.2227 75.327 64.5547V68H74.3485V61.5781H75.1571L75.2626 62.7617H75.3036C75.4364 62.5234 75.5966 62.3066 75.7841 62.1113C75.9716 61.9121 76.1884 61.7539 76.4345 61.6367C76.6845 61.5195 76.9618 61.4609 77.2665 61.4609ZM86.2613 61.4609C86.9684 61.4609 87.5016 61.6465 87.8609 62.0176C88.2203 62.3848 88.4 62.9766 88.4 63.793V68H87.4391V63.8398C87.4391 63.3203 87.3258 62.9316 87.0992 62.6738C86.8766 62.4121 86.5445 62.2812 86.1031 62.2812C85.482 62.2812 85.0309 62.4609 84.7496 62.8203C84.4684 63.1797 84.3277 63.709 84.3277 64.4082V68H83.3609V63.8398C83.3609 63.4922 83.3102 63.2031 83.2086 62.9727C83.1109 62.7422 82.9625 62.5703 82.7633 62.457C82.568 62.3398 82.3199 62.2812 82.0191 62.2812C81.5934 62.2812 81.2516 62.3691 80.9938 62.5449C80.7359 62.7207 80.5484 62.9824 80.4313 63.3301C80.318 63.6738 80.2613 64.0977 80.2613 64.6016V68H79.2887V61.5781H80.0738L80.2203 62.4863H80.273C80.402 62.2637 80.5641 62.0762 80.7594 61.9238C80.9547 61.7715 81.1734 61.6562 81.4156 61.5781C81.6578 61.5 81.9156 61.4609 82.1891 61.4609C82.6773 61.4609 83.0855 61.5527 83.4137 61.7363C83.7457 61.916 83.9859 62.1914 84.1344 62.5625H84.1871C84.398 62.1914 84.6871 61.916 85.0543 61.7363C85.4215 61.5527 85.8238 61.4609 86.2613 61.4609ZM47.4863 83.4336C48.1895 83.4336 48.7695 83.5215 49.2266 83.6973C49.6875 83.8691 50.0312 84.1328 50.2578 84.4883C50.4844 84.8438 50.5977 85.2969 50.5977 85.8477C50.5977 86.3008 50.5156 86.6797 50.3516 86.9844C50.1875 87.2852 49.9727 87.5293 49.707 87.7168C49.4414 87.9043 49.1582 88.0488 48.8574 88.1504L51.207 92H50.0469L47.9492 88.4258H46.168V92H45.1719V83.4336H47.4863ZM47.4277 84.2949H46.168V87.582H47.5273C48.2266 87.582 48.7402 87.4395 49.0684 87.1543C49.4004 86.8691 49.5664 86.4492 49.5664 85.8945C49.5664 85.3125 49.3906 84.9004 49.0391 84.6582C48.6914 84.416 48.1543 84.2949 47.4277 84.2949ZM54.9343 85.4609C55.4812 85.4609 55.9499 85.582 56.3405 85.8242C56.7312 86.0664 57.03 86.4062 57.237 86.8438C57.4441 87.2773 57.5476 87.7852 57.5476 88.3672V88.9707H53.112C53.1238 89.7246 53.3113 90.2988 53.6745 90.6934C54.0378 91.0879 54.5495 91.2852 55.2097 91.2852C55.6159 91.2852 55.9753 91.248 56.2878 91.1738C56.6003 91.0996 56.9245 90.9902 57.2605 90.8457V91.7012C56.9363 91.8457 56.614 91.9512 56.2937 92.0176C55.9773 92.084 55.6023 92.1172 55.1687 92.1172C54.5515 92.1172 54.0124 91.9922 53.5515 91.7422C53.0945 91.4883 52.739 91.1172 52.4851 90.6289C52.2312 90.1406 52.1042 89.543 52.1042 88.8359C52.1042 88.1445 52.2195 87.5469 52.4499 87.043C52.6843 86.5352 53.0124 86.1445 53.4343 85.8711C53.8601 85.5977 54.3601 85.4609 54.9343 85.4609ZM54.9226 86.2578C54.403 86.2578 53.989 86.4277 53.6804 86.7676C53.3718 87.1074 53.1882 87.582 53.1296 88.1914H56.528C56.5241 87.8086 56.4636 87.4727 56.3464 87.1836C56.2331 86.8906 56.0593 86.6641 55.8249 86.5039C55.5905 86.3398 55.2898 86.2578 54.9226 86.2578ZM63.3842 90.2422C63.3842 90.6523 63.2807 90.998 63.0737 91.2793C62.8705 91.5566 62.5776 91.7656 62.1948 91.9062C61.8159 92.0469 61.3627 92.1172 60.8354 92.1172C60.3862 92.1172 59.9975 92.082 59.6694 92.0117C59.3413 91.9414 59.0541 91.8418 58.808 91.7129V90.8164C59.0698 90.9453 59.3823 91.0625 59.7455 91.168C60.1088 91.2734 60.4799 91.3262 60.8588 91.3262C61.4135 91.3262 61.8159 91.2363 62.0659 91.0566C62.3159 90.877 62.4409 90.6328 62.4409 90.3242C62.4409 90.1484 62.3901 89.9941 62.2885 89.8613C62.1909 89.7246 62.0248 89.5938 61.7905 89.4688C61.5561 89.3398 61.2319 89.1992 60.8178 89.0469C60.4077 88.8906 60.0522 88.7363 59.7514 88.584C59.4545 88.4277 59.2241 88.2383 59.06 88.0156C58.8998 87.793 58.8198 87.5039 58.8198 87.1484C58.8198 86.6055 59.0385 86.1895 59.476 85.9004C59.9174 85.6074 60.4955 85.4609 61.2104 85.4609C61.5971 85.4609 61.9584 85.5 62.2944 85.5781C62.6342 85.6523 62.9506 85.7539 63.2436 85.8828L62.9155 86.6621C62.6498 86.5488 62.3666 86.4531 62.0659 86.375C61.7651 86.2969 61.4584 86.2578 61.1459 86.2578C60.6967 86.2578 60.351 86.332 60.1088 86.4805C59.8705 86.6289 59.7514 86.832 59.7514 87.0898C59.7514 87.2891 59.8061 87.4531 59.9155 87.582C60.0288 87.7109 60.2084 87.832 60.4545 87.9453C60.7006 88.0586 61.0248 88.1914 61.4272 88.3438C61.8295 88.4922 62.1772 88.6465 62.4702 88.8066C62.7631 88.9629 62.9877 89.1543 63.144 89.3809C63.3041 89.6035 63.3842 89.8906 63.3842 90.2422ZM67.5509 92.1172C66.9728 92.1172 66.463 91.998 66.0216 91.7598C65.5802 91.5215 65.2365 91.1582 64.9904 90.6699C64.7443 90.1816 64.6213 89.5664 64.6213 88.8242C64.6213 88.0469 64.7502 87.4121 65.008 86.9199C65.2697 86.4238 65.6291 86.0566 66.0861 85.8184C66.5431 85.5801 67.0627 85.4609 67.6447 85.4609C67.965 85.4609 68.2736 85.4941 68.5705 85.5605C68.8713 85.623 69.1173 85.7031 69.3088 85.8008L69.0158 86.6152C68.8205 86.5371 68.5939 86.4668 68.3361 86.4043C68.0822 86.3418 67.8439 86.3105 67.6213 86.3105C67.1759 86.3105 66.8048 86.4062 66.508 86.5977C66.215 86.7891 65.9943 87.0703 65.8459 87.4414C65.7013 87.8125 65.6291 88.2695 65.6291 88.8125C65.6291 89.332 65.6994 89.7754 65.84 90.1426C65.9845 90.5098 66.1974 90.791 66.4787 90.9863C66.7638 91.1777 67.1193 91.2734 67.5451 91.2734C67.8849 91.2734 68.1916 91.2383 68.465 91.168C68.7384 91.0938 68.9865 91.0078 69.2091 90.9102V91.7773C68.9943 91.8867 68.7541 91.9707 68.4884 92.0293C68.2267 92.0879 67.9142 92.1172 67.5509 92.1172ZM71.7352 82.8828V85.6074C71.7352 85.7637 71.7313 85.9219 71.7235 86.082C71.7157 86.2383 71.702 86.3828 71.6825 86.5156H71.747C71.8798 86.2891 72.0477 86.0996 72.2509 85.9473C72.4579 85.791 72.6923 85.6738 72.954 85.5957C73.2157 85.5137 73.493 85.4727 73.786 85.4727C74.3016 85.4727 74.7313 85.5547 75.0751 85.7188C75.4227 85.8828 75.6825 86.1367 75.8544 86.4805C76.0302 86.8242 76.118 87.2695 76.118 87.8164V92H75.1571V87.8809C75.1571 87.3457 75.0341 86.9453 74.788 86.6797C74.5458 86.4141 74.1727 86.2812 73.6688 86.2812C73.1923 86.2812 72.8114 86.373 72.5263 86.5566C72.245 86.7363 72.0419 87.002 71.9169 87.3535C71.7958 87.7051 71.7352 88.1348 71.7352 88.6426V92H70.7626V82.8828H71.7352ZM80.6246 85.4609C81.1715 85.4609 81.6402 85.582 82.0309 85.8242C82.4215 86.0664 82.7203 86.4062 82.9273 86.8438C83.1344 87.2773 83.2379 87.7852 83.2379 88.3672V88.9707H78.8023C78.8141 89.7246 79.0016 90.2988 79.3648 90.6934C79.7281 91.0879 80.2398 91.2852 80.9 91.2852C81.3063 91.2852 81.6656 91.248 81.9781 91.1738C82.2906 91.0996 82.6148 90.9902 82.9508 90.8457V91.7012C82.6266 91.8457 82.3043 91.9512 81.984 92.0176C81.6676 92.084 81.2926 92.1172 80.859 92.1172C80.2418 92.1172 79.7027 91.9922 79.2418 91.7422C78.7848 91.4883 78.4293 91.1172 78.1754 90.6289C77.9215 90.1406 77.7945 89.543 77.7945 88.8359C77.7945 88.1445 77.9098 87.5469 78.1402 87.043C78.3746 86.5352 78.7027 86.1445 79.1246 85.8711C79.5504 85.5977 80.0504 85.4609 80.6246 85.4609ZM80.6129 86.2578C80.0934 86.2578 79.6793 86.4277 79.3707 86.7676C79.0621 87.1074 78.8785 87.582 78.8199 88.1914H82.2184C82.2145 87.8086 82.1539 87.4727 82.0367 87.1836C81.9234 86.8906 81.7496 86.6641 81.5152 86.5039C81.2809 86.3398 80.9801 86.2578 80.6129 86.2578ZM87.2054 92.1172C86.3929 92.1172 85.7484 91.8398 85.2718 91.2852C84.7991 90.7305 84.5628 89.9062 84.5628 88.8125C84.5628 87.707 84.805 86.873 85.2894 86.3105C85.7738 85.7441 86.4183 85.4609 87.223 85.4609C87.5628 85.4609 87.8597 85.5059 88.1136 85.5957C88.3675 85.6855 88.5863 85.8066 88.7698 85.959C88.9534 86.1074 89.1077 86.2773 89.2327 86.4688H89.303C89.2874 86.3477 89.2718 86.1816 89.2562 85.9707C89.2405 85.7598 89.2327 85.5879 89.2327 85.4551V82.8828H90.2054V92H89.4202L89.2738 91.0859H89.2327C89.1116 91.2773 88.9573 91.4512 88.7698 91.6074C88.5863 91.7637 88.3655 91.8887 88.1077 91.9824C87.8538 92.0723 87.553 92.1172 87.2054 92.1172ZM87.3577 91.3086C88.0452 91.3086 88.5316 91.1133 88.8167 90.7227C89.1019 90.332 89.2445 89.752 89.2445 88.9824V88.8066C89.2445 87.9902 89.1077 87.3633 88.8343 86.9258C88.5648 86.4883 88.0726 86.2695 87.3577 86.2695C86.7601 86.2695 86.3128 86.5 86.0159 86.9609C85.7191 87.418 85.5706 88.043 85.5706 88.8359C85.5706 89.625 85.7171 90.2344 86.0101 90.6641C86.307 91.0938 86.7562 91.3086 87.3577 91.3086ZM97.6006 85.5781V92H96.8037L96.6631 91.0977H96.6104C96.4776 91.3203 96.3057 91.5078 96.0948 91.6602C95.8838 91.8125 95.6455 91.9258 95.3799 92C95.1182 92.0781 94.8389 92.1172 94.542 92.1172C94.0342 92.1172 93.6084 92.0352 93.2647 91.8711C92.9209 91.707 92.6612 91.4531 92.4854 91.1094C92.3135 90.7656 92.2276 90.3242 92.2276 89.7852V85.5781H93.212V89.7148C93.212 90.25 93.333 90.6504 93.5752 90.916C93.8174 91.1777 94.1866 91.3086 94.6827 91.3086C95.1592 91.3086 95.5381 91.2188 95.8194 91.0391C96.1045 90.8594 96.3096 90.5957 96.4346 90.248C96.5596 89.8965 96.6221 89.4668 96.6221 88.959V85.5781H97.6006ZM100.666 92H99.6873V82.8828H100.666V92ZM105.225 85.4609C105.772 85.4609 106.241 85.582 106.631 85.8242C107.022 86.0664 107.321 86.4062 107.528 86.8438C107.735 87.2773 107.838 87.7852 107.838 88.3672V88.9707H103.403C103.415 89.7246 103.602 90.2988 103.965 90.6934C104.329 91.0879 104.84 91.2852 105.5 91.2852C105.907 91.2852 106.266 91.248 106.579 91.1738C106.891 91.0996 107.215 90.9902 107.551 90.8457V91.7012C107.227 91.8457 106.905 91.9512 106.584 92.0176C106.268 92.084 105.893 92.1172 105.459 92.1172C104.842 92.1172 104.303 91.9922 103.842 91.7422C103.385 91.4883 103.03 91.1172 102.776 90.6289C102.522 90.1406 102.395 89.543 102.395 88.8359C102.395 88.1445 102.51 87.5469 102.741 87.043C102.975 86.5352 103.303 86.1445 103.725 85.8711C104.151 85.5977 104.651 85.4609 105.225 85.4609ZM105.213 86.2578C104.694 86.2578 104.28 86.4277 103.971 86.7676C103.663 87.1074 103.479 87.582 103.42 88.1914H106.819C106.815 87.8086 106.754 87.4727 106.637 87.1836C106.524 86.8906 106.35 86.6641 106.116 86.5039C105.881 86.3398 105.581 86.2578 105.213 86.2578ZM50.5449 116L49.4902 113.281H46.0566L45.0078 116H44L47.3516 107.398H48.248L51.5762 116H50.5449ZM49.1914 112.396L48.1895 109.695C48.166 109.625 48.127 109.51 48.0723 109.35C48.0215 109.189 47.9688 109.023 47.9141 108.852C47.8594 108.68 47.8145 108.541 47.7793 108.436C47.7402 108.596 47.6973 108.756 47.6504 108.916C47.6074 109.072 47.5645 109.219 47.5215 109.355C47.4785 109.488 47.4414 109.602 47.4102 109.695L46.3906 112.396H49.1914ZM56.8034 114.242C56.8034 114.652 56.6999 114.998 56.4929 115.279C56.2898 115.557 55.9968 115.766 55.614 115.906C55.2351 116.047 54.782 116.117 54.2546 116.117C53.8054 116.117 53.4167 116.082 53.0886 116.012C52.7605 115.941 52.4734 115.842 52.2273 115.713V114.816C52.489 114.945 52.8015 115.062 53.1648 115.168C53.528 115.273 53.8991 115.326 54.278 115.326C54.8327 115.326 55.2351 115.236 55.4851 115.057C55.7351 114.877 55.8601 114.633 55.8601 114.324C55.8601 114.148 55.8093 113.994 55.7077 113.861C55.6101 113.725 55.4441 113.594 55.2097 113.469C54.9753 113.34 54.6511 113.199 54.237 113.047C53.8269 112.891 53.4714 112.736 53.1706 112.584C52.8738 112.428 52.6433 112.238 52.4792 112.016C52.3191 111.793 52.239 111.504 52.239 111.148C52.239 110.605 52.4577 110.189 52.8952 109.9C53.3366 109.607 53.9148 109.461 54.6296 109.461C55.0163 109.461 55.3777 109.5 55.7136 109.578C56.0534 109.652 56.3698 109.754 56.6628 109.883L56.3347 110.662C56.0691 110.549 55.7859 110.453 55.4851 110.375C55.1843 110.297 54.8777 110.258 54.5652 110.258C54.1159 110.258 53.7702 110.332 53.528 110.48C53.2898 110.629 53.1706 110.832 53.1706 111.09C53.1706 111.289 53.2253 111.453 53.3347 111.582C53.448 111.711 53.6277 111.832 53.8738 111.945C54.1198 112.059 54.4441 112.191 54.8464 112.344C55.2488 112.492 55.5964 112.646 55.8894 112.807C56.1823 112.963 56.407 113.154 56.5632 113.381C56.7234 113.604 56.8034 113.891 56.8034 114.242ZM62.5522 114.242C62.5522 114.652 62.4487 114.998 62.2416 115.279C62.0385 115.557 61.7455 115.766 61.3627 115.906C60.9838 116.047 60.5307 116.117 60.0034 116.117C59.5541 116.117 59.1655 116.082 58.8373 116.012C58.5092 115.941 58.2221 115.842 57.976 115.713V114.816C58.2377 114.945 58.5502 115.062 58.9135 115.168C59.2768 115.273 59.6479 115.326 60.0268 115.326C60.5815 115.326 60.9838 115.236 61.2338 115.057C61.4838 114.877 61.6088 114.633 61.6088 114.324C61.6088 114.148 61.558 113.994 61.4565 113.861C61.3588 113.725 61.1928 113.594 60.9584 113.469C60.7241 113.34 60.3998 113.199 59.9858 113.047C59.5756 112.891 59.2202 112.736 58.9194 112.584C58.6225 112.428 58.392 112.238 58.228 112.016C58.0678 111.793 57.9877 111.504 57.9877 111.148C57.9877 110.605 58.2065 110.189 58.644 109.9C59.0854 109.607 59.6635 109.461 60.3784 109.461C60.7651 109.461 61.1264 109.5 61.4623 109.578C61.8022 109.652 62.1186 109.754 62.4116 109.883L62.0834 110.662C61.8178 110.549 61.5346 110.453 61.2338 110.375C60.933 110.297 60.6264 110.258 60.3139 110.258C59.8647 110.258 59.519 110.332 59.2768 110.48C59.0385 110.629 58.9194 110.832 58.9194 111.09C58.9194 111.289 58.9741 111.453 59.0834 111.582C59.1967 111.711 59.3764 111.832 59.6225 111.945C59.8686 112.059 60.1928 112.191 60.5952 112.344C60.9975 112.492 61.3452 112.646 61.6381 112.807C61.9311 112.963 62.1557 113.154 62.312 113.381C62.4721 113.604 62.5522 113.891 62.5522 114.242ZM65.1193 109.578V116H64.1466V109.578H65.1193ZM64.6447 107.176C64.8048 107.176 64.9416 107.229 65.0548 107.334C65.172 107.436 65.2306 107.596 65.2306 107.814C65.2306 108.029 65.172 108.189 65.0548 108.295C64.9416 108.4 64.8048 108.453 64.6447 108.453C64.4767 108.453 64.3361 108.4 64.2228 108.295C64.1134 108.189 64.0588 108.029 64.0588 107.814C64.0588 107.596 64.1134 107.436 64.2228 107.334C64.3361 107.229 64.4767 107.176 64.6447 107.176ZM69.0048 118.883C68.161 118.883 67.5106 118.725 67.0536 118.408C66.5966 118.096 66.368 117.656 66.368 117.09C66.368 116.688 66.495 116.344 66.7489 116.059C67.0067 115.773 67.3622 115.584 67.8153 115.49C67.6473 115.412 67.5028 115.295 67.3817 115.139C67.2645 114.982 67.2059 114.803 67.2059 114.6C67.2059 114.365 67.2704 114.16 67.3993 113.984C67.5321 113.805 67.7333 113.633 68.0028 113.469C67.6669 113.332 67.3934 113.102 67.1825 112.777C66.9755 112.449 66.872 112.068 66.872 111.635C66.872 111.174 66.9677 110.781 67.1591 110.457C67.3505 110.129 67.6278 109.879 67.9911 109.707C68.3544 109.535 68.7938 109.449 69.3095 109.449C69.4227 109.449 69.536 109.455 69.6493 109.467C69.7665 109.475 69.8778 109.488 69.9833 109.508C70.0888 109.523 70.1805 109.543 70.2587 109.566H72.4618V110.193L71.2782 110.34C71.3954 110.492 71.493 110.676 71.5712 110.891C71.6493 111.105 71.6884 111.344 71.6884 111.605C71.6884 112.246 71.4716 112.756 71.038 113.135C70.6044 113.51 70.0087 113.697 69.2509 113.697C69.0712 113.697 68.8876 113.682 68.7001 113.65C68.5087 113.756 68.3622 113.873 68.2606 114.002C68.163 114.131 68.1141 114.279 68.1141 114.447C68.1141 114.572 68.1513 114.672 68.2255 114.746C68.3036 114.82 68.4149 114.875 68.5595 114.91C68.704 114.941 68.8778 114.957 69.0809 114.957H70.2118C70.911 114.957 71.4462 115.104 71.8173 115.396C72.1923 115.689 72.3798 116.117 72.3798 116.68C72.3798 117.391 72.0907 117.936 71.5126 118.314C70.9345 118.693 70.0985 118.883 69.0048 118.883ZM69.0341 118.121C69.5653 118.121 70.0048 118.066 70.3524 117.957C70.704 117.852 70.9657 117.697 71.1376 117.494C71.3134 117.295 71.4013 117.057 71.4013 116.779C71.4013 116.521 71.3427 116.326 71.2255 116.193C71.1083 116.064 70.9364 115.979 70.7098 115.936C70.4833 115.889 70.2059 115.865 69.8778 115.865H68.7645C68.4755 115.865 68.2235 115.91 68.0087 116C67.7938 116.09 67.6278 116.223 67.5106 116.398C67.3973 116.574 67.3407 116.793 67.3407 117.055C67.3407 117.402 67.4872 117.666 67.7802 117.846C68.0731 118.029 68.4911 118.121 69.0341 118.121ZM69.286 112.988C69.7509 112.988 70.1005 112.871 70.3348 112.637C70.5692 112.402 70.6864 112.061 70.6864 111.611C70.6864 111.131 70.5673 110.771 70.329 110.533C70.0907 110.291 69.7391 110.17 69.2743 110.17C68.829 110.17 68.4852 110.295 68.243 110.545C68.0048 110.791 67.8856 111.152 67.8856 111.629C67.8856 112.066 68.0067 112.402 68.2489 112.637C68.4911 112.871 68.8368 112.988 69.286 112.988ZM76.7984 109.461C77.5602 109.461 78.1363 109.648 78.527 110.023C78.9176 110.395 79.1129 110.992 79.1129 111.816V116H78.152V111.881C78.152 111.346 78.0289 110.945 77.7828 110.68C77.5406 110.414 77.1676 110.281 76.6637 110.281C75.9527 110.281 75.4527 110.482 75.1637 110.885C74.8746 111.287 74.7301 111.871 74.7301 112.637V116H73.7574V109.578H74.5426L74.6891 110.504H74.7418C74.8785 110.277 75.0523 110.088 75.2633 109.936C75.4742 109.779 75.7105 109.662 75.9723 109.584C76.234 109.502 76.5094 109.461 76.7984 109.461ZM87.335 109.461C88.0967 109.461 88.6729 109.648 89.0635 110.023C89.4541 110.395 89.6495 110.992 89.6495 111.816V116H88.6885V111.881C88.6885 111.346 88.5655 110.945 88.3194 110.68C88.0772 110.414 87.7041 110.281 87.2002 110.281C86.4893 110.281 85.9893 110.482 85.7002 110.885C85.4112 111.287 85.2666 111.871 85.2666 112.637V116H84.294V109.578H85.0791L85.2256 110.504H85.2784C85.4151 110.277 85.5889 110.088 85.7998 109.936C86.0108 109.779 86.2471 109.662 86.5088 109.584C86.7705 109.502 87.0459 109.461 87.335 109.461ZM94.156 109.461C94.7029 109.461 95.1716 109.582 95.5623 109.824C95.9529 110.066 96.2517 110.406 96.4588 110.844C96.6658 111.277 96.7693 111.785 96.7693 112.367V112.971H92.3338C92.3455 113.725 92.533 114.299 92.8963 114.693C93.2595 115.088 93.7713 115.285 94.4314 115.285C94.8377 115.285 95.197 115.248 95.5095 115.174C95.822 115.1 96.1463 114.99 96.4822 114.846V115.701C96.158 115.846 95.8357 115.951 95.5154 116.018C95.199 116.084 94.824 116.117 94.3904 116.117C93.7732 116.117 93.2341 115.992 92.7732 115.742C92.3162 115.488 91.9607 115.117 91.7068 114.629C91.4529 114.141 91.3259 113.543 91.3259 112.836C91.3259 112.145 91.4412 111.547 91.6716 111.043C91.906 110.535 92.2341 110.145 92.656 109.871C93.0818 109.598 93.5818 109.461 94.156 109.461ZM94.1443 110.258C93.6248 110.258 93.2107 110.428 92.9021 110.768C92.5935 111.107 92.4099 111.582 92.3513 112.191H95.7498C95.7459 111.809 95.6853 111.473 95.5681 111.184C95.4548 110.891 95.281 110.664 95.0466 110.504C94.8123 110.34 94.5115 110.258 94.1443 110.258ZM103.678 115.988L102.536 112.25C102.485 112.09 102.436 111.934 102.389 111.781C102.346 111.625 102.305 111.477 102.266 111.336C102.231 111.191 102.198 111.059 102.166 110.938C102.139 110.812 102.116 110.705 102.096 110.615H102.055C102.04 110.705 102.018 110.812 101.991 110.938C101.963 111.059 101.93 111.191 101.891 111.336C101.856 111.48 101.817 111.633 101.774 111.793C101.731 111.949 101.682 112.107 101.627 112.268L100.432 115.988H99.3364L97.5669 109.566H98.5747L99.5005 113.111C99.563 113.346 99.6216 113.578 99.6763 113.809C99.7348 114.035 99.7837 114.25 99.8227 114.453C99.8657 114.652 99.897 114.826 99.9165 114.975H99.9634C99.9868 114.877 100.012 114.76 100.04 114.623C100.071 114.486 100.104 114.342 100.139 114.189C100.178 114.033 100.219 113.879 100.262 113.727C100.305 113.57 100.348 113.424 100.391 113.287L101.575 109.566H102.624L103.766 113.281C103.825 113.469 103.881 113.664 103.936 113.867C103.995 114.07 104.047 114.268 104.094 114.459C104.141 114.646 104.174 114.814 104.194 114.963H104.241C104.256 114.83 104.286 114.666 104.329 114.471C104.372 114.275 104.42 114.061 104.475 113.826C104.534 113.592 104.594 113.354 104.657 113.111L105.594 109.566H106.584L104.809 115.988H103.678ZM113.008 115.32C113.168 115.32 113.332 115.307 113.5 115.279C113.668 115.252 113.805 115.219 113.91 115.18V115.936C113.797 115.986 113.639 116.029 113.435 116.064C113.236 116.1 113.041 116.117 112.85 116.117C112.51 116.117 112.201 116.059 111.924 115.941C111.646 115.82 111.424 115.617 111.256 115.332C111.092 115.047 111.01 114.652 111.01 114.148V110.34H110.096V109.865L111.016 109.484L111.402 108.09H111.988V109.578H113.869V110.34H111.988V114.119C111.988 114.521 112.08 114.822 112.264 115.021C112.451 115.221 112.699 115.32 113.008 115.32ZM120.544 109.578V116H119.747L119.606 115.098H119.553C119.421 115.32 119.249 115.508 119.038 115.66C118.827 115.812 118.589 115.926 118.323 116C118.061 116.078 117.782 116.117 117.485 116.117C116.977 116.117 116.551 116.035 116.208 115.871C115.864 115.707 115.604 115.453 115.428 115.109C115.256 114.766 115.171 114.324 115.171 113.785V109.578H116.155V113.715C116.155 114.25 116.276 114.65 116.518 114.916C116.76 115.178 117.13 115.309 117.626 115.309C118.102 115.309 118.481 115.219 118.762 115.039C119.048 114.859 119.253 114.596 119.378 114.248C119.503 113.896 119.565 113.467 119.565 112.959V109.578H120.544ZM125.548 109.461C125.677 109.461 125.812 109.469 125.952 109.484C126.093 109.496 126.218 109.514 126.327 109.537L126.204 110.439C126.099 110.412 125.982 110.391 125.853 110.375C125.724 110.359 125.603 110.352 125.49 110.352C125.232 110.352 124.988 110.404 124.757 110.51C124.531 110.611 124.331 110.76 124.16 110.955C123.988 111.146 123.853 111.379 123.755 111.652C123.658 111.922 123.609 112.223 123.609 112.555V116H122.63V109.578H123.439L123.544 110.762H123.585C123.718 110.523 123.878 110.307 124.066 110.111C124.253 109.912 124.47 109.754 124.716 109.637C124.966 109.52 125.244 109.461 125.548 109.461ZM130.611 109.461C131.373 109.461 131.949 109.648 132.34 110.023C132.731 110.395 132.926 110.992 132.926 111.816V116H131.965V111.881C131.965 111.346 131.842 110.945 131.596 110.68C131.354 110.414 130.981 110.281 130.477 110.281C129.766 110.281 129.266 110.482 128.977 110.885C128.688 111.287 128.543 111.871 128.543 112.637V116H127.57V109.578H128.356L128.502 110.504H128.555C128.691 110.277 128.865 110.088 129.076 109.936C129.287 109.779 129.524 109.662 129.785 109.584C130.047 109.502 130.322 109.461 130.611 109.461ZM46.168 140H45.1719V131.434H49.9414V132.312H46.168V135.453H49.7129V136.326H46.168V140ZM56.7917 136.777C56.7917 137.305 56.7234 137.775 56.5866 138.189C56.4499 138.604 56.2527 138.953 55.9948 139.238C55.737 139.523 55.4245 139.742 55.0573 139.895C54.6941 140.043 54.282 140.117 53.821 140.117C53.3913 140.117 52.9968 140.043 52.6374 139.895C52.282 139.742 51.9734 139.523 51.7116 139.238C51.4538 138.953 51.2527 138.604 51.1081 138.189C50.9675 137.775 50.8972 137.305 50.8972 136.777C50.8972 136.074 51.0163 135.477 51.2546 134.984C51.4929 134.488 51.8327 134.111 52.2741 133.854C52.7195 133.592 53.2488 133.461 53.862 133.461C54.448 133.461 54.9597 133.592 55.3972 133.854C55.8386 134.115 56.1804 134.494 56.4226 134.99C56.6687 135.482 56.7917 136.078 56.7917 136.777ZM51.905 136.777C51.905 137.293 51.9734 137.74 52.1101 138.119C52.2468 138.498 52.4577 138.791 52.7429 138.998C53.028 139.205 53.3952 139.309 53.8445 139.309C54.2898 139.309 54.655 139.205 54.9402 138.998C55.2292 138.791 55.4421 138.498 55.5788 138.119C55.7155 137.74 55.7839 137.293 55.7839 136.777C55.7839 136.266 55.7155 135.824 55.5788 135.453C55.4421 135.078 55.2312 134.789 54.946 134.586C54.6609 134.383 54.2917 134.281 53.8386 134.281C53.1706 134.281 52.6804 134.502 52.3679 134.943C52.0593 135.385 51.905 135.996 51.905 136.777ZM61.4213 133.461C61.5502 133.461 61.685 133.469 61.8256 133.484C61.9663 133.496 62.0913 133.514 62.2006 133.537L62.0776 134.439C61.9721 134.412 61.8549 134.391 61.726 134.375C61.5971 134.359 61.476 134.352 61.3627 134.352C61.1049 134.352 60.8608 134.404 60.6303 134.51C60.4038 134.611 60.2045 134.76 60.0327 134.955C59.8608 135.146 59.726 135.379 59.6284 135.652C59.5307 135.922 59.4819 136.223 59.4819 136.555V140H58.5034V133.578H59.312L59.4174 134.762H59.4584C59.5913 134.523 59.7514 134.307 59.9389 134.111C60.1264 133.912 60.3432 133.754 60.5893 133.637C60.8393 133.52 61.1166 133.461 61.4213 133.461ZM68.6701 139.988L67.5275 136.25C67.4767 136.09 67.4279 135.934 67.381 135.781C67.338 135.625 67.297 135.477 67.258 135.336C67.2228 135.191 67.1896 135.059 67.1584 134.938C67.131 134.812 67.1076 134.705 67.088 134.615H67.047C67.0314 134.705 67.0099 134.812 66.9826 134.938C66.9552 135.059 66.922 135.191 66.883 135.336C66.8478 135.48 66.8088 135.633 66.7658 135.793C66.7228 135.949 66.674 136.107 66.6193 136.268L65.424 139.988H64.3283L62.5588 133.566H63.5666L64.4923 137.111C64.5548 137.346 64.6134 137.578 64.6681 137.809C64.7267 138.035 64.7755 138.25 64.8146 138.453C64.8576 138.652 64.8888 138.826 64.9084 138.975H64.9552C64.9787 138.877 65.0041 138.76 65.0314 138.623C65.0627 138.486 65.0959 138.342 65.131 138.189C65.1701 138.033 65.2111 137.879 65.2541 137.727C65.297 137.57 65.34 137.424 65.383 137.287L66.5666 133.566H67.6154L68.758 137.281C68.8166 137.469 68.8732 137.664 68.9279 137.867C68.9865 138.07 69.0392 138.268 69.0861 138.459C69.133 138.646 69.1662 138.814 69.1857 138.963H69.2326C69.2482 138.83 69.2775 138.666 69.3205 138.471C69.3634 138.275 69.4123 138.061 69.467 137.826C69.5255 137.592 69.5861 137.354 69.6486 137.111L70.5861 133.566H71.5763L69.8009 139.988H68.6701ZM75.1805 133.473C75.9462 133.473 76.5145 133.645 76.8856 133.988C77.2567 134.332 77.4423 134.881 77.4423 135.635V140H76.7333L76.5458 139.051H76.4989C76.3192 139.285 76.1317 139.482 75.9364 139.643C75.7411 139.799 75.5145 139.918 75.2567 140C75.0028 140.078 74.6903 140.117 74.3192 140.117C73.9286 140.117 73.5809 140.049 73.2763 139.912C72.9755 139.775 72.7372 139.568 72.5614 139.291C72.3895 139.014 72.3036 138.662 72.3036 138.236C72.3036 137.596 72.5575 137.104 73.0653 136.76C73.5731 136.416 74.3466 136.229 75.3856 136.197L76.493 136.15V135.758C76.493 135.203 76.3739 134.814 76.1356 134.592C75.8973 134.369 75.5614 134.258 75.1278 134.258C74.7919 134.258 74.4716 134.307 74.1669 134.404C73.8622 134.502 73.5731 134.617 73.2997 134.75L73.0009 134.012C73.2899 133.863 73.622 133.736 73.997 133.631C74.372 133.525 74.7665 133.473 75.1805 133.473ZM76.4813 136.836L75.5028 136.877C74.702 136.908 74.1376 137.039 73.8095 137.27C73.4813 137.5 73.3173 137.826 73.3173 138.248C73.3173 138.615 73.4286 138.887 73.6513 139.062C73.8739 139.238 74.1688 139.326 74.536 139.326C75.1063 139.326 75.5731 139.168 75.9364 138.852C76.2997 138.535 76.4813 138.061 76.4813 137.428V136.836ZM82.3941 133.461C82.523 133.461 82.6578 133.469 82.7984 133.484C82.9391 133.496 83.0641 133.514 83.1734 133.537L83.0504 134.439C82.9449 134.412 82.8277 134.391 82.6988 134.375C82.5699 134.359 82.4488 134.352 82.3355 134.352C82.0777 134.352 81.8336 134.404 81.6031 134.51C81.3766 134.611 81.1773 134.76 81.0055 134.955C80.8336 135.146 80.6988 135.379 80.6012 135.652C80.5035 135.922 80.4547 136.223 80.4547 136.555V140H79.4762V133.578H80.2848L80.3902 134.762H80.4313C80.5641 134.523 80.7242 134.307 80.9117 134.111C81.0992 133.912 81.316 133.754 81.5621 133.637C81.8121 133.52 82.0895 133.461 82.3941 133.461ZM86.7015 140.117C85.889 140.117 85.2445 139.84 84.7679 139.285C84.2952 138.73 84.0589 137.906 84.0589 136.812C84.0589 135.707 84.3011 134.873 84.7855 134.311C85.2698 133.744 85.9144 133.461 86.7191 133.461C87.0589 133.461 87.3558 133.506 87.6097 133.596C87.8636 133.686 88.0823 133.807 88.2659 133.959C88.4495 134.107 88.6038 134.277 88.7288 134.469H88.7991C88.7835 134.348 88.7679 134.182 88.7523 133.971C88.7366 133.76 88.7288 133.588 88.7288 133.455V130.883H89.7015V140H88.9163L88.7698 139.086H88.7288C88.6077 139.277 88.4534 139.451 88.2659 139.607C88.0823 139.764 87.8616 139.889 87.6038 139.982C87.3499 140.072 87.0491 140.117 86.7015 140.117ZM86.8538 139.309C87.5413 139.309 88.0277 139.113 88.3128 138.723C88.598 138.332 88.7405 137.752 88.7405 136.982V136.807C88.7405 135.99 88.6038 135.363 88.3304 134.926C88.0609 134.488 87.5687 134.27 86.8538 134.27C86.2562 134.27 85.8089 134.5 85.512 134.961C85.2152 135.418 85.0667 136.043 85.0667 136.836C85.0667 137.625 85.2132 138.234 85.5062 138.664C85.803 139.094 86.2523 139.309 86.8538 139.309ZM97.9822 133.461C98.7439 133.461 99.3201 133.648 99.7107 134.023C100.101 134.395 100.297 134.992 100.297 135.816V140H99.3357V135.881C99.3357 135.346 99.2127 134.945 98.9666 134.68C98.7244 134.414 98.3513 134.281 97.8474 134.281C97.1365 134.281 96.6365 134.482 96.3474 134.885C96.0584 135.287 95.9138 135.871 95.9138 136.637V140H94.9412V133.578H95.7263L95.8728 134.504H95.9255C96.0623 134.277 96.2361 134.088 96.447 133.936C96.658 133.779 96.8943 133.662 97.156 133.584C97.4177 133.502 97.6931 133.461 97.9822 133.461ZM107.868 136.777C107.868 137.305 107.799 137.775 107.663 138.189C107.526 138.604 107.329 138.953 107.071 139.238C106.813 139.523 106.5 139.742 106.133 139.895C105.77 140.043 105.358 140.117 104.897 140.117C104.467 140.117 104.073 140.043 103.713 139.895C103.358 139.742 103.049 139.523 102.788 139.238C102.53 138.953 102.329 138.604 102.184 138.189C102.043 137.775 101.973 137.305 101.973 136.777C101.973 136.074 102.092 135.477 102.331 134.984C102.569 134.488 102.909 134.111 103.35 133.854C103.795 133.592 104.325 133.461 104.938 133.461C105.524 133.461 106.036 133.592 106.473 133.854C106.915 134.115 107.256 134.494 107.499 134.99C107.745 135.482 107.868 136.078 107.868 136.777ZM102.981 136.777C102.981 137.293 103.049 137.74 103.186 138.119C103.323 138.498 103.534 138.791 103.819 138.998C104.104 139.205 104.471 139.309 104.92 139.309C105.366 139.309 105.731 139.205 106.016 138.998C106.305 138.791 106.518 138.498 106.655 138.119C106.791 137.74 106.86 137.293 106.86 136.777C106.86 136.266 106.791 135.824 106.655 135.453C106.518 135.078 106.307 134.789 106.022 134.586C105.737 134.383 105.368 134.281 104.915 134.281C104.247 134.281 103.756 134.502 103.444 134.943C103.135 135.385 102.981 135.996 102.981 136.777ZM111.654 139.32C111.814 139.32 111.978 139.307 112.146 139.279C112.314 139.252 112.45 139.219 112.556 139.18V139.936C112.443 139.986 112.284 140.029 112.081 140.064C111.882 140.1 111.687 140.117 111.495 140.117C111.155 140.117 110.847 140.059 110.57 139.941C110.292 139.82 110.07 139.617 109.902 139.332C109.738 139.047 109.655 138.652 109.655 138.148V134.34H108.741V133.865L109.661 133.484L110.048 132.09H110.634V133.578H112.515V134.34H110.634V138.119C110.634 138.521 110.726 138.822 110.909 139.021C111.097 139.221 111.345 139.32 111.654 139.32ZM114.859 133.578V140H113.887V133.578H114.859ZM114.385 131.176C114.545 131.176 114.682 131.229 114.795 131.334C114.912 131.436 114.971 131.596 114.971 131.814C114.971 132.029 114.912 132.189 114.795 132.295C114.682 132.4 114.545 132.453 114.385 132.453C114.217 132.453 114.076 132.4 113.963 132.295C113.853 132.189 113.799 132.029 113.799 131.814C113.799 131.596 113.853 131.436 113.963 131.334C114.076 131.229 114.217 131.176 114.385 131.176ZM119.811 134.34H118.212V140H117.239V134.34H116.102V133.871L117.239 133.549V133.121C117.239 132.582 117.319 132.145 117.479 131.809C117.639 131.469 117.872 131.219 118.176 131.059C118.481 130.898 118.852 130.818 119.29 130.818C119.536 130.818 119.76 130.84 119.964 130.883C120.171 130.926 120.352 130.975 120.508 131.029L120.256 131.797C120.124 131.754 119.973 131.715 119.805 131.68C119.641 131.641 119.473 131.621 119.301 131.621C118.93 131.621 118.655 131.742 118.475 131.984C118.299 132.223 118.212 132.598 118.212 133.109V133.578H119.811V134.34ZM121.962 133.578V140H120.989V133.578H121.962ZM121.487 131.176C121.647 131.176 121.784 131.229 121.897 131.334C122.014 131.436 122.073 131.596 122.073 131.814C122.073 132.029 122.014 132.189 121.897 132.295C121.784 132.4 121.647 132.453 121.487 132.453C121.319 132.453 121.178 132.4 121.065 132.295C120.956 132.189 120.901 132.029 120.901 131.814C120.901 131.596 120.956 131.436 121.065 131.334C121.178 131.229 121.319 131.176 121.487 131.176ZM126.62 140.117C126.042 140.117 125.533 139.998 125.091 139.76C124.65 139.521 124.306 139.158 124.06 138.67C123.814 138.182 123.691 137.566 123.691 136.824C123.691 136.047 123.82 135.412 124.077 134.92C124.339 134.424 124.699 134.057 125.156 133.818C125.613 133.58 126.132 133.461 126.714 133.461C127.035 133.461 127.343 133.494 127.64 133.561C127.941 133.623 128.187 133.703 128.378 133.801L128.085 134.615C127.89 134.537 127.663 134.467 127.406 134.404C127.152 134.342 126.913 134.311 126.691 134.311C126.245 134.311 125.874 134.406 125.577 134.598C125.285 134.789 125.064 135.07 124.915 135.441C124.771 135.812 124.699 136.27 124.699 136.812C124.699 137.332 124.769 137.775 124.91 138.143C125.054 138.51 125.267 138.791 125.548 138.986C125.833 139.178 126.189 139.273 126.615 139.273C126.954 139.273 127.261 139.238 127.535 139.168C127.808 139.094 128.056 139.008 128.279 138.91V139.777C128.064 139.887 127.824 139.971 127.558 140.029C127.296 140.088 126.984 140.117 126.62 140.117ZM132.234 133.473C133 133.473 133.568 133.645 133.94 133.988C134.311 134.332 134.496 134.881 134.496 135.635V140H133.787L133.6 139.051H133.553C133.373 139.285 133.186 139.482 132.99 139.643C132.795 139.799 132.568 139.918 132.311 140C132.057 140.078 131.744 140.117 131.373 140.117C130.982 140.117 130.635 140.049 130.33 139.912C130.029 139.775 129.791 139.568 129.615 139.291C129.443 139.014 129.357 138.662 129.357 138.236C129.357 137.596 129.611 137.104 130.119 136.76C130.627 136.416 131.4 136.229 132.44 136.197L133.547 136.15V135.758C133.547 135.203 133.428 134.814 133.19 134.592C132.951 134.369 132.615 134.258 132.182 134.258C131.846 134.258 131.525 134.307 131.221 134.404C130.916 134.502 130.627 134.617 130.354 134.75L130.055 134.012C130.344 133.863 130.676 133.736 131.051 133.631C131.426 133.525 131.82 133.473 132.234 133.473ZM133.535 136.836L132.557 136.877C131.756 136.908 131.191 137.039 130.863 137.27C130.535 137.5 130.371 137.826 130.371 138.248C130.371 138.615 130.482 138.887 130.705 139.062C130.928 139.238 131.223 139.326 131.59 139.326C132.16 139.326 132.627 139.168 132.99 138.852C133.354 138.535 133.535 138.061 133.535 137.428V136.836ZM138.604 139.32C138.764 139.32 138.929 139.307 139.096 139.279C139.264 139.252 139.401 139.219 139.507 139.18V139.936C139.393 139.986 139.235 140.029 139.032 140.064C138.833 140.1 138.637 140.117 138.446 140.117C138.106 140.117 137.798 140.059 137.52 139.941C137.243 139.82 137.02 139.617 136.852 139.332C136.688 139.047 136.606 138.652 136.606 138.148V134.34H135.692V133.865L136.612 133.484L136.999 132.09H137.585V133.578H139.466V134.34H137.585V138.119C137.585 138.521 137.677 138.822 137.86 139.021C138.048 139.221 138.296 139.32 138.604 139.32ZM141.81 133.578V140H140.837V133.578H141.81ZM141.335 131.176C141.496 131.176 141.632 131.229 141.746 131.334C141.863 131.436 141.921 131.596 141.921 131.814C141.921 132.029 141.863 132.189 141.746 132.295C141.632 132.4 141.496 132.453 141.335 132.453C141.168 132.453 141.027 132.4 140.914 132.295C140.804 132.189 140.75 132.029 140.75 131.814C140.75 131.596 140.804 131.436 140.914 131.334C141.027 131.229 141.168 131.176 141.335 131.176ZM149.44 136.777C149.44 137.305 149.371 137.775 149.235 138.189C149.098 138.604 148.901 138.953 148.643 139.238C148.385 139.523 148.073 139.742 147.705 139.895C147.342 140.043 146.93 140.117 146.469 140.117C146.039 140.117 145.645 140.043 145.285 139.895C144.93 139.742 144.621 139.523 144.36 139.238C144.102 138.953 143.901 138.604 143.756 138.189C143.615 137.775 143.545 137.305 143.545 136.777C143.545 136.074 143.664 135.477 143.903 134.984C144.141 134.488 144.481 134.111 144.922 133.854C145.367 133.592 145.897 133.461 146.51 133.461C147.096 133.461 147.608 133.592 148.045 133.854C148.487 134.115 148.828 134.494 149.071 134.99C149.317 135.482 149.44 136.078 149.44 136.777ZM144.553 136.777C144.553 137.293 144.621 137.74 144.758 138.119C144.895 138.498 145.106 138.791 145.391 138.998C145.676 139.205 146.043 139.309 146.492 139.309C146.938 139.309 147.303 139.205 147.588 138.998C147.877 138.791 148.09 138.498 148.227 138.119C148.364 137.74 148.432 137.293 148.432 136.777C148.432 136.266 148.364 135.824 148.227 135.453C148.09 135.078 147.879 134.789 147.594 134.586C147.309 134.383 146.94 134.281 146.487 134.281C145.819 134.281 145.328 134.502 145.016 134.943C144.707 135.385 144.553 135.996 144.553 136.777ZM154.192 133.461C154.954 133.461 155.53 133.648 155.921 134.023C156.311 134.395 156.507 134.992 156.507 135.816V140H155.546V135.881C155.546 135.346 155.423 134.945 155.177 134.68C154.935 134.414 154.561 134.281 154.058 134.281C153.347 134.281 152.847 134.482 152.558 134.885C152.269 135.287 152.124 135.871 152.124 136.637V140H151.151V133.578H151.936L152.083 134.504H152.136C152.272 134.277 152.446 134.088 152.657 133.936C152.868 133.779 153.104 133.662 153.366 133.584C153.628 133.502 153.903 133.461 154.192 133.461Z" fill="#474D66"/>
</svg>
