<svg width="85" height="49" viewBox="0 0 85 49" fill="none" xmlns="http://www.w3.org/2000/svg">
<rect width="85" height="49" rx="3" fill="#D6E0FF"/>
<rect x="7" y="10" width="71" height="31" rx="2" fill="#F3F6FF"/>
<path d="M17.95 16.75H19.05V17.85H17.95V16.75ZM17.95 18.95H19.05V22.25H17.95V18.95ZM18.5 14C15.464 14 13 16.464 13 19.5C13 22.536 15.464 25 18.5 25C21.536 25 24 22.536 24 19.5C24 16.464 21.536 14 18.5 14ZM18.5 23.9C16.0745 23.9 14.1 21.9255 14.1 19.5C14.1 17.0745 16.0745 15.1 18.5 15.1C20.9255 15.1 22.9 17.0745 22.9 19.5C22.9 21.9255 20.9255 23.9 18.5 23.9Z" fill="#3366FF"/>
</svg>
