<svg width="37" height="48" viewBox="0 0 37 48" fill="none" xmlns="http://www.w3.org/2000/svg">
<path d="M0 10.5C0 4.70101 4.73299 0 10.5714 0H26.4286C32.267 0 37 4.70101 37 10.5C37 16.299 32.267 21 26.4286 21H10.5714C4.73299 21 0 16.299 0 10.5Z" fill="#3366FF"/>
<path d="M18.5 10.5C18.5 6.15076 22.0497 2.625 26.4286 2.625C30.8074 2.625 34.3571 6.15076 34.3571 10.5C34.3571 14.8492 30.8074 18.375 26.4286 18.375C22.0497 18.375 18.5 14.8492 18.5 10.5Z" fill="white"/>
<path d="M37 37.5C37 43.299 32.267 48 26.4286 48L10.5714 48C4.73299 48 1.36465e-06 43.299 1.87161e-06 37.5C2.37858e-06 31.701 4.73299 27 10.5714 27L26.4286 27C32.267 27 37 31.701 37 37.5Z" fill="#9DB5FF"/>
<path d="M18.5 37.5C18.5 41.8492 14.9503 45.375 10.5714 45.375C6.1926 45.375 2.64286 41.8492 2.64286 37.5C2.64286 33.1508 6.1926 29.625 10.5714 29.625C14.9503 29.625 18.5 33.1508 18.5 37.5Z" fill="white"/>
</svg>
